<?xml version='1.0' encoding='utf-8'?>
<COLLADA xmlns="http://www.collada.org/2005/11/COLLADASchema" version="1.4.1">
  <asset>
    <created>2026-09-14T00:00:00Z</created>
    <modified>2026-09-14T00:00:00Z</modified>
    <unit name="metre" meter="1" />
    <up_axis>Z_UP</up_axis>
  </asset>
  <library_effects>
    <effect id="scout_333333_effect">
      <profile_COMMON>
        <technique sid="common">
          <lambert>
            <emission>
              <color>0 0 0 1</color>
            </emission>
            <ambient>
              <color>0.1 0.1 0.1 1</color>
            </ambient>
            <diffuse>
              <color>0.2 0.2 0.2 1</color>
            </diffuse>
          </lambert>
        </technique>
      </profile_COMMON>
    </effect>
  </library_effects>
  <library_materials>
    <material id="scout_333333" name="scout_333333">
      <instance_effect url="#scout_333333_effect" />
    </material>
  </library_materials>
  <library_geometries>
    <geometry id="geometry" name="head_link">
      <mesh>
        <source id="positions">
          <float_array id="positions_array" count="732">-0.057990212 -0.037630789 0.329984903 -0.0583485439 -0.0289394688 0.325633198 -0.0543862544 -0.053133402 0.32692048 -0.0532863848 -0.0555074066 0.330795705 -0.0421944298 -0.0695156977 0.329915851 -0.0451696254 -0.0659942403 0.332851559 0.050168056 -0.0245808475 0.401521236 0.0125750517 -0.0190594364 0.398329109 0.027867116 -0.0257772077 0.404172629 -0.0367263854 -0.0340602957 0.352060199 -0.0311137196 -0.0214062613 0.367405891 -0.0351911075 -0.00414835848 0.368813485 0.0428815186 -0.036214903 0.454480767 0.019991016 -0.0370098948 0.45575124 0.0442706607 0.00485761836 0.456649512 -0.0205222871 -0.0763321593 0.333162069 -0.0262628049 -0.0759849772 0.335173279 -0.0298997834 -0.0473209471 0.34690094 -0.0202883463 0.0763638169 0.333175182 0.00928285159 -0.0765248537 0.333070904 -0.0282917991 -0.0141360704 0.380737454 -0.0288968086 0.00975553133 0.382685244 -0.0286470838 0.000291999866 0.390583962 -0.00960739423 -0.0463698432 0.34882772 0.00270943576 -0.0768358856 0.336233109 -0.0224896111 -0.0341960527 0.358524024 -0.0184958056 -0.027534524 0.371201336 -0.00312103494 -0.0336113833 0.361703843 -0.0142619815 -0.0252990816 0.396037698 -0.0235753115 -0.0177559741 0.393660665 -0.0407924093 -0.0503136553 0.474235922 -0.0343514495 -0.0482042022 0.492625833 -0.0440569073 -0.0422902331 0.496152401 0.00916993711 -0.0422446467 0.348599672 0.00371355168 -0.0304951649 0.368234098 0.00703923032 -0.0291813202 0.388834417 -0.0649986938 -0.0230582319 0.475122333 -0.0600247569 -0.0241409075 0.465641439 -0.056743402 -0.0402772464 0.473571777 -0.0509306043 -0.0409653075 0.465990931 -0.0550184213 -0.0303440411 0.496302217 -0.0590297133 -0.0121061383 0.500011027 -0.0633525029 0.000466279831 0.491682231 -0.0345255844 -0.0488547869 0.464502215 -0.0458153263 -0.0243906695 0.511372626 -0.0446046703 -0.00200181524 0.517239571 -0.011254563 -0.0513335019 0.497848809 -0.0308418181 -0.0326741263 0.515164196 -0.0138162589 -0.0425576046 0.511774063 -0.0273905378 -0.0149851451 0.524466991 -0.0280931164 0.0138370572 0.463911116 -0.0263819266 -0.00140074699 0.459755719 -0.028355401 -0.013238823 0.463805377 0.0226134825 -0.0425328724 0.512516916 0.000738403527 -0.0563483275 0.472867936 0.00517400168 -0.0551173463 0.463205546 -0.0122574056 -0.0285595115 0.523263216 -0.0199634936 -0.0152373444 0.4592852 -0.0131693864 -0.0267685428 0.463425934 -0.00921547972 -0.0221458804 0.45894295 -0.0201587044 -0.0106911445 0.448148698 -0.00584455067 -0.0116269477 0.529879451 -0.0232134536 0.0042099026 0.449459702 -0.0134357391 -0.00182758714 0.43976596 0.0288056191 -0.0373444445 0.42831704 0.0308097824 -0.0325740129 0.41514945 0.0305459779 -0.0458708666 0.419715405 0.072114788 0.0042843027 0.501741111 0.074128896 -0.00139493938 0.49253419 0.0716972128 0.0256357435 0.490156144 -0.00714254659 -0.0157148652 0.444479972 0.00764587941 -0.0264704507 0.462526739 0.0049149245 -0.0210215263 0.458682299 0.00489272689 -0.0178993121 0.449385345 0.0154242823 -0.0279572736 0.523946822 0.000798917026 -0.00662797596 0.439234108 -0.0577121489 0.0391151905 0.330132931 -0.05818161 0.0292415563 0.325709075 -0.0543442108 0.052851487 0.326961577 -0.0500807129 0.0613789819 0.331965894 -0.0249068849 0.00542585971 0.527301848 -0.0436730795 0.0222821422 0.352100134 -0.0524576157 0.0110248448 0.342286378 -0.0415785685 0.0700303987 0.330104232 -0.0240993444 0.0765492246 0.335537463 -0.0349154212 0.0471346751 0.346147925 -0.0333737843 0.0182897467 0.367193937 -0.0353631005 0.032868702 0.35414955 -0.0207447484 0.0246537942 0.380461663 -0.0223262813 0.0302921627 0.363232493 0.029291667 -0.0399649888 0.406620115 -0.015216101 0.0590163171 0.342889965 -0.0196590759 0.0230236128 0.395656645 -0.0139710484 0.0459950641 0.34955734 0.00246314914 0.0292844139 0.397447884 -0.0022890917 0.0334137864 0.362243354 0.00256122975 0.030346347 0.370663077 -0.00950312801 0.0151290474 0.39642489 -0.0121998526 -0.0154719604 0.396452844 -0.0573642962 0.0394215062 0.473509461 -0.0414118618 0.0463462919 0.464850754 -0.0557182394 0.0346692465 0.465523213 0.0139394999 0.0755469576 0.332711011 0.00413103402 0.0768082514 0.336238176 -0.0565283224 0.0143542262 0.503445685 -0.0463916212 0.0479158126 0.474825799 -0.0611290224 0.0172408186 0.465772599 -0.0651388243 0.021374194 0.474113703 -0.0605073869 0.027186837 0.487795293 -0.0536099412 0.0366916694 0.492113173 -0.0364785008 0.0149507727 0.520423055 -0.0420908108 0.0286775064 0.511569381 -0.0366404988 0.0429261327 0.501502097 -0.0227450468 0.0300255772 0.52029413 -0.0199675784 0.0546429865 0.471949905 -0.0208488833 0.0521482937 0.464213312 -0.0222454593 0.0522044487 0.490974635 -0.0206154119 0.0152730923 0.459417164 -0.0127133084 0.00954720564 0.44118011 0.0540695079 -0.0292875115 0.509774148 0.0597977005 -0.0478072874 0.490023106 0.067110844 -0.036478959 0.495564222 -0.00636590132 0.0195473768 0.448896557 -0.00500126323 0.0294379815 0.463508099 -0.0111319106 0.02125616 0.458655149 -0.00883632805 0.0446250215 0.509783924 0.00194242015 0.00930916518 0.440211207 0.00559174223 0.0206661765 0.45831126 0.00828408543 0.018339755 0.528590024 -0.00339138717 0.0341663584 0.520706594 0.00733810756 0.0543873757 0.462757766 0.0229908787 0.054727342 0.488504946 0.0234456155 -0.0719170794 0.333580047 0.0118593415 -0.0280588102 0.361338168 0.0240606014 0.0417136587 0.448076636 0.0439012498 0.0414086282 0.446597159 0.0433574282 0.0371890664 0.45405525 0.00544488383 -0.0301423836 0.397825092 0.0212590508 -0.0348391458 0.39999038 0.0203760359 -0.027424898 0.390325993 0.0176812392 -0.0226631742 0.385046721 0.0469980538 0.0363051631 0.423411608 0.0491917282 0.0373879299 0.408755958 0.0450870879 0.0466037467 0.438067496 0.0285558179 -0.0685938373 0.329856992 0.0345731042 -0.0589669906 0.331395507 0.0223065205 -0.0238289144 0.350755423 0.0359058268 -0.0266863741 0.339088887 0.0487206616 0.0387136489 0.466887534 0.0450408272 0.0486276969 0.461540788 0.0623423345 0.0446759686 0.480627894 0.0185590889 -0.01849447 0.363244444 0.0238674227 -0.00850614533 0.352816224 0.0245242994 -0.0104084099 0.381209135 0.0655494332 0.0385211371 0.496340662 0.0220987219 -0.00677786814 0.377032995 0.0232048035 0.00622620247 0.380399734 0.0113084279 -0.00162606745 0.392732292 0.0291540828 -0.0159096997 0.525153339 0.0390310585 -0.0530603379 0.327262938 0.0450245813 -0.0337939337 0.329076618 0.0407256372 -0.0447314866 0.414248139 0.0380463414 -0.0516437367 0.438944042 0.0268560648 -0.0505715311 0.436700255 0.0433196984 -0.0338153467 0.394049823 0.0481302254 -0.0336352661 0.416025251 0.0440985821 -0.0209914763 0.382467419 0.044985164 -0.0081066303 0.377793044 0.0518440008 -0.0202342663 0.389745295 0.0474695042 -0.0419834368 0.420556992 0.0435599759 -0.0486147143 0.452294439 0.0440859608 -0.0414521396 0.444391131 0.0451147556 -0.0314700156 0.325562418 0.0498816967 -0.034276776 0.403834343 0.0477874726 0.019106999 0.326235086 0.0513994358 -0.00842934661 0.391102046 0.0390976742 0.00434069009 0.338253289 0.052575022 0.00570189441 0.38385278 0.0263221227 -0.0525874868 0.495333463 0.016815953 -0.010747252 0.458108127 0.0234173983 -0.0531507507 0.449692249 0.0425173491 -0.055339653 0.471671045 0.0125858383 -0.00818738341 0.446638167 0.0132542048 -0.000732226297 0.444530994 0.0158022996 -0.0541507304 0.459788382 0.0190290269 0.00121965294 0.457573742 0.00212886813 -0.000102129939 0.531136155 0.0294843838 0.00467299437 0.526663482 0.0395868495 -0.0517053977 0.492329806 0.0245806146 -0.0416757651 0.446872771 0.0427608863 -0.0338972323 0.512996972 0.0474175476 -0.0484496616 0.465368152 0.0446662493 -0.0345302261 0.459629357 0.0571911708 -0.0467944928 0.475863904 0.0480620973 -0.0352848358 0.465658337 0.0166972484 0.0108583588 0.458324283 0.0447183922 0.0348673984 0.461388707 0.0577893555 -0.0402997434 0.476798445 0.0659198016 -0.0404687747 0.484302849 0.07099244 -0.0191350151 0.499891579 0.0178759955 0.0476477332 0.506050169 0.0191518832 0.0367473662 0.517988801 0.0572971292 -0.0133171873 0.512614131 0.0721283183 -0.0234817211 0.490642279 0.0507949591 0.00976734329 0.392322391 0.0213462878 0.0215979163 0.400182009 0.0111266077 0.0447294153 0.346211612 0.0143407686 0.0326443538 0.353392631 0.0149278743 0.0245391 0.366179198 0.0132729923 0.0270113349 0.387367904 0.0151985427 0.033300519 0.398560494 0.0106299771 0.0135874236 0.4493424 0.0196390618 0.0735256225 0.334399492 0.020941902 0.0113325864 0.363761961 0.0245370455 0.0142452074 0.35106799 0.0209754929 0.0173635241 0.383750975 0.0239436477 0.0339121036 0.345155209 0.0318772793 0.0659714565 0.330341339 0.0450024158 0.00926850643 0.378020704 0.044218041 0.0243235175 0.384409755 0.0498109162 0.0262533743 0.40319702 0.0306559037 0.0296643954 0.409227222 0.0417265445 0.0454305075 0.329907477 0.0265699904 0.0378093123 0.402782321 0.0405853689 0.0455122329 0.416392893 0.0428559408 0.0370731726 0.398731589 0.0385111459 0.0551431291 0.464343876 0.0498764664 0.0541223399 0.478852421 0.0307411961 0.0454666428 0.418334126 0.0267670434 0.0506186076 0.436558068 0.0373629145 0.0525797717 0.442578971 0.0392671712 0.0517226644 0.327031791 0.0451731272 0.0342822298 0.327000648 0.0509322621 0.0259248596 0.393312931 0.019901 0.0372660197 0.455612361 0.0392533354 0.026311662 0.518286586 0.0210736934 0.0539635755 0.454766184 0.0491932631 0.00322276982 0.518714309 0.0432522669 0.0444355123 0.504010022 0.0582887977 0.0217309631 0.509765446 0.0605815053 0.047074873 0.489615053 0.0698035806 0.0252036192 0.499019265 0.0587725826 0.0381784998 0.477765441 0.0289326981 0.0373744555 0.427999198</float_array>
          <technique_common>
            <accessor source="#positions_array" count="244" stride="3">
              <param name="X" type="float" />
              <param name="Y" type="float" />
              <param name="Z" type="float" />
            </accessor>
          </technique_common>
        </source>
        <source id="normals">
          <float_array id="normals_array" count="1215">-0.965866387 -0.15538995 0.207258433 -0.998977304 -0.0211867541 0.039943371 -0.936396182 -0.350625962 0.0149539569 -0.882701874 -0.455593139 0.115205519 -0.783893645 -0.615614235 -0.0808075219 -0.784501314 -0.617771447 -0.0540015921 0.0160395913 0.704126894 0.709892929 -0.0650411174 0.209627092 0.975615799 0.0366529748 0.767857909 0.639570773 -0.350709558 -0.517970383 0.780198336 -0.580821872 -0.301304847 0.756215096 -0.448448688 -0.473262876 0.758232176 -0.700630605 -0.484337658 0.523959756 -0.86862731 -0.0587733127 0.491967738 -0.0572229698 0.054572884 -0.996868789 -0.0726482123 0.0634854063 -0.995335042 -0.0529281572 -0.017641278 -0.998442471 -0.207938775 -0.872085094 -0.442977428 -0.0606405921 -0.998090982 -0.011707739 -0.188014433 -0.905537784 -0.380331337 -0.17383796 -0.438572496 0.88172245 -0.459566921 -0.7647596 0.451598287 -0.0988174304 -0.451004803 0.887034297 0.0583356321 -0.00065388839 -0.998296797 -0.0723868385 0.00104046077 -0.997376084 0.0646028668 -1.32764308e-05 -0.997911036 0.348252118 -0.781764269 0.517266989 -0.895385802 -0.300365031 0.32873264 -0.916388273 0.236526996 0.32293576 -0.986471176 0.0138240987 0.163351029 0.00952049438 -0.542240202 0.840169549 0.081933938 -0.376961142 0.922598004 -0.224917248 -0.703483701 0.67418319 -0.298474073 -0.901933253 0.312137276 0.0788132623 -0.825593352 0.558734417 -0.386012137 -0.915135026 0.116286613 -0.631370306 -0.775368452 0.0132387644 -0.935292721 -0.214902267 0.281148672 -0.00768305967 -0.994442761 -0.104997918 -0.00676658237 -0.993706524 -0.111810505 -0.37158373 -0.92647332 -0.0597722307 -0.285997838 -0.89523828 0.341692388 -0.5062356 -0.735276222 0.45066002 0.308554411 -0.49075824 0.814831614 0.158147186 -0.979508936 0.124706693 0.0792111158 -0.996822953 -0.00834311824 -0.969829321 -0.228256628 -0.0856151208 -0.862457097 -0.224153638 -0.453787237 -0.760117769 -0.641772568 -0.1017299 -0.587858498 -0.693418622 -0.41664502 -0.773295879 -0.453301877 0.443318009 -0.853067756 -0.144954845 0.50126195 -0.954067945 0.0123590659 0.299335271 -0.250398993 -0.920745194 -0.29921335 -0.0651610792 -0.0135759348 -0.997782409 -0.0533172712 -0.0218100343 -0.998339415 -0.134296477 -0.0930839181 -0.98655957 -0.59694463 -0.362279475 0.715828717 -0.609210312 -0.0279890131 0.792514622 -0.105839662 -0.929270148 0.353913724 -0.354433984 -0.563688993 0.74607724 -0.138566151 -0.749349356 0.647514403 -0.343167782 -0.229089856 0.910908163 0.171591714 1.0987661e-05 -0.985168159 -0.590134382 0.29995355 -0.749512732 -0.866263449 0.0385526828 -0.498097688 -0.910565734 0.0104345372 -0.413232625 0.118661337 -0.723224342 0.680342555 -0.0671347156 -0.997719109 -0.00703403447 -0.0102030169 -0.990926683 -0.134015545 -0.128507033 -0.478923589 0.868399739 -0.507059813 -0.311598748 -0.803614676 -0.479682773 -0.445412904 -0.755984008 -0.250236273 -0.586184323 -0.770564556 -0.144885674 -0.606004059 -0.782155514 -0.236399531 -0.892495275 -0.384145051 -0.704134047 -0.661633432 -0.257752568 -0.707582891 -0.478461117 -0.520001411 -0.0719893202 -0.190144911 0.979113102 -0.855610728 0.214608744 -0.471034348 -0.381445587 -0.0937192142 -0.919628203 -0.501459956 -0.204024166 -0.840780616 -0.970399678 -0.0627751276 -0.233203232 -0.98048842 -0.006803344 -0.196459219 -0.996337771 -0.0100112986 0.0849167854 -0.994807899 0.00728692673 -0.101509415 0.848655701 0.0495794825 0.526616931 0.978146791 -0.0153363384 0.207349181 0.94955045 0.274000525 0.152570188 -0.159930289 -0.706351221 -0.689558029 0.155720338 -0.535170734 -0.830267131 0.335969925 -0.892625093 -0.300573766 0.353344917 -0.78661716 -0.506340623 0.178625226 -0.505883276 -0.843904734 0.0995198339 -0.437293172 0.89379555 0.17518948 -0.271843582 -0.946260929 -0.962378263 0.172923103 0.209584653 -0.998357832 0.0240610167 0.0519871973 -0.931838036 0.28137511 0.229141623 -0.563932717 0.389656425 0.728112459 -0.284567475 0.0915831178 0.954271376 -0.748135209 0.218921006 0.626392245 -0.8615973 0.0357802063 0.506329775 -0.69166261 0.590138674 -0.416340172 -0.164309531 0.409564137 0.89736259 -0.23472245 0.457096905 0.857885659 -0.761412799 0.380055666 0.525174499 -0.447702646 0.490805089 0.747444153 -0.535043955 0.807418823 0.24860175 -0.317109615 0.770527661 0.552927315 -0.985057592 0.00362478197 0.17218709 -0.0117224939 0.384445578 0.923073232 -0.430481464 0.573111475 0.697301209 -0.206881195 0.891194224 -0.4036991 -0.162015259 0.924898267 -0.343968391 -0.0294608939 0.991674662 -0.125353262 -0.885277271 0.418926924 0.201951504 -0.0245270934 0.583324671 0.811868668 -0.279419392 0.952369153 0.122138426 -0.0726024956 0.995567083 0.0597919412 0.0689805448 0.858379424 0.508356631 0.147199735 0.970477045 0.191066965 -0.0265031364 -0.0411789976 0.998800218 -0.158016577 -0.00139676023 0.98743546 -0.0694331676 0.021776516 0.997348905 -0.7701056 0.624575138 -0.129781738 -0.382264227 0.857772231 -0.343658149 -0.745092094 0.473967552 -0.469246745 0.00387940393 0.957794666 -0.287426978 -0.000264076371 0.94137311 -0.337367088 -0.797229886 0.183646366 0.575063944 -0.466752529 0.883728504 -0.0341476165 -0.881020248 0.0845969245 -0.465453267 -0.97049886 0.194460928 -0.142537519 -0.891374648 0.325897783 0.31502676 -0.683453321 0.602378368 0.412349135 -0.48105368 0.223216847 0.847798049 -0.541698337 0.45055753 0.709620237 -0.382693082 0.768697262 0.512494445 -0.248781726 0.495526165 0.832202792 -0.149868235 0.984792888 -0.0878778398 -0.18756026 0.94089371 -0.282028675 -0.177947313 0.942079008 0.284291953 -0.602278471 0.581236899 -0.547196686 -0.65035367 0.464469343 -0.601089239 0.4821181 -0.39745903 0.780761421 0.532224357 -0.802364051 0.270091087 0.761564195 -0.483450532 0.431619734 -0.537979484 0.721801758 -0.435408235 -0.141637087 0.580815136 -0.801618814 -0.414692581 0.706398547 -0.573612392 -0.106858499 0.805040359 0.5835163 0.12065497 0.857616305 -0.49993667 0.232430741 0.392668426 -0.88982439 -0.0412679501 0.626670718 -0.778190732 0.0315846503 0.987028301 -0.157408684 0.523218691 0.841359198 -0.135487795 0.00029660837 0.509981692 -0.860185206 0.0561720394 0.282005072 0.957767129 -0.0583853871 0.569314122 0.820044279 -0.0254084729 0.994336665 -0.103193752 0.0460277013 0.971952379 0.230629623 0.26022929 -0.850381553 0.457309425 0.593940496 -0.737178743 0.32218343 -0.0401314087 -0.854809225 -0.517388344 0.337809861 -0.829535365 -0.444697231 -0.0362418853 -0.86450845 -0.501309931 -0.0941696391 -0.988013923 -0.122313581 -0.127937064 -0.807256639 -0.576167405 -0.153705269 -0.790716946 -0.592571855 -0.137744397 -0.696307838 -0.704401791 0.139025778 -0.986982822 -0.0808500797 0.717186868 -0.696868956 -0.00408326602 0.989221096 -0.0214760583 0.144846126 0.989882052 -0.0162066128 0.140964016 0.990742505 -0.008934577 0.135460123 0.299128294 -0.878165364 -0.373293221 0.391005903 -0.344098985 0.853645265 0.724569321 -0.419230461 0.547033012 0.683951318 -0.321113795 0.655054569 0.668756723 -0.133917719 0.731321037 0.291210324 -0.631710529 -0.718427718 0.169506669 -0.68723166 -0.706385255 0.37931782 -0.582431316 -0.718951821 0.765645146 -0.0364939608 -0.642227173 0.925901175 -0.0874742717 -0.367498606 0.699168265 -0.0495737642 -0.713236392 0.876640022 -0.454773068 0.157110691 0.88220799 -0.095086582 0.461158991 0.500050426 -0.500524759 -0.706699729 0.900217175 0.433002949 0.0460155569 0.736455262 0.665740907 -0.120094761 0.973110795 -0.0109873414 -0.23007527 0.863210976 -0.50113678 -0.0610636324 0.909330666 0.171441242 -0.379111588 0.899532378 0.116749108 -0.420964569 0.990100563 0.11875461 -0.074821353 0.0684476122 0.0616999455 0.995744944 0.270773143 -0.214248002 0.938498616 0.717083275 -0.52202642 0.46182242 0.840340972 -0.337399572 0.424250662 0.704293668 -0.149023801 0.694090962 -0.0647865608 -0.945953429 -0.317765266 -0.0834714025 -0.871791005 -0.482714146 0.25914079 -0.899801373 -0.351003677 0.297355235 -0.938863337 -0.173538253 -0.0450198427 -0.96964252 -0.240346774 -0.97274518 -0.0589857213 0.224248677 -0.0783489272 -0.774137318 -0.628150344 0.0326400213 0.896810949 0.441208333 0.0142892282 0.906809926 0.42129755 0.00819033384 0.961217701 0.275669128 -0.160134062 -0.254361689 -0.953759491 -0.116652362 -0.487000883 -0.865576327 0.646336019 -0.406863183 -0.64553237 0.727943897 -0.154609144 -0.667977273 0.67573899 -0.426056832 -0.601541638 0.544482648 -0.809210122 -0.220720619 0.733796775 -0.659801543 -0.161876976 0.990024269 0.00456655025 0.140823066 0.995032072 0.0264507309 0.0959765464 0.9966079 0.00700152665 -0.081998229 0.990947902 -0.122269817 -0.0554286204 0.971006513 -0.210105896 -0.114025749 0.946672797 -0.279392749 -0.160469085 0.507393122 -0.774954081 -0.376826763 0.614275634 -0.639817595 -0.461842895 0.989623308 0.00753350044 0.143488646 0.989891768 -0.000313506433 0.141824573 0.989837825 0.00367813394 0.142153472 0.988123536 0.0169817619 0.152720496 0.998570919 -0.0526464917 -0.00919156242 0.0317035727 0.241084799 0.969986081 0.745916963 0.0192561392 0.665760517 -0.126655415 -0.158901721 -0.979136705 0.695937097 0.106693938 -0.710132301 0.0731148049 -0.932618618 0.353378952 0.808127761 -0.460360557 -0.367420375 0.329364449 -0.428534359 -0.841354489 -0.00247170147 -0.991948724 -0.126616076 0.305545568 -0.949291706 -0.074075155 0.690792978 -0.408997685 -0.596260011 0.720508814 0.0134142581 -0.693315983 -0.178613961 -0.0202667117 -0.983710468 -0.318131566 0.00498636859 -0.948033452 -0.467740953 -0.00596296042 -0.883845508 0.0166891012 -0.992293 -0.122784622 0.0813062787 0.333964199 0.939072549 0.24354136 0.000261480804 -0.969890475 0.310912907 0.000347490073 -0.950438321 0.308936536 0.000247980643 -0.951082647 0.910465181 0.0498169772 -0.410574466 0.0187717341 0.00285058981 0.999819756 0.275551736 0.0684905276 0.958843172 0.180200815 -0.912737846 0.366656929 -0.0573141277 0.871245325 -0.487490207 0.191969886 0.87892586 -0.436619788 -0.0606212467 0.8742432 -0.481688529 -0.0281139407 0.885826707 -0.463163704 0.335695773 -0.523591459 0.78304553 0.640017688 -0.71426183 -0.283209234 0.933894753 -0.00421179226 -0.357523292 0.862767696 0.0194299221 -0.505227089 0.574002504 -0.792076826 -0.207690686 0.349171758 0.848084152 -0.398537755 0.81396246 -0.00892707333 -0.580848873 -0.2834571 0.00339900213 -0.958978891 -0.410219878 -0.0190485846 -0.911787689 -0.0977616161 0.0286163967 -0.994798362 0.992696226 0.00209727883 -0.120622776 0.946238637 -0.0149422074 -0.323124021 0.920019567 -0.00165117346 -0.391868889 0.710340202 0.0143749462 -0.703711748 0.685170949 0.00848396681 -0.728332937 0.712453783 0.0352236889 -0.700834394 0.814447403 -0.580167115 -0.00903331582 0.840463817 -0.191063374 0.507065415 0.0566002689 0.847175241 0.528290212 0.129287168 0.594669402 0.793506861 0.539638579 -0.14832145 0.828728497 0.956004202 -0.23481667 0.17583245 0.0212468933 -0.303718388 0.9525249 0.0181304105 -0.589127243 0.80783689 0.275068879 0.454035044 0.847460508 0.57534188 0.55533725 0.600485086 0.747572124 0.644580722 0.160161376 0.533596456 0.825175166 -0.185366601 -0.233635843 0.86428386 -0.445452303 0.807723045 0.470503718 -0.355260134 0.59997493 0.60849309 -0.519390285 0.2989057 0.306366175 0.903767228 0.232231796 0.919570148 0.316952944 0.966201484 0.241601184 0.0899083465 0.803510606 0.172405303 0.569778144 0.860768378 0.49440214 -0.121013828 0.516163349 0.304576218 0.80050528 0.596209109 0.651744306 -0.468789995 0.403886348 0.843957067 -0.353004575 -0.147200644 0.478604168 -0.865603864 -0.108813092 0.193647683 -0.975018084 -0.140291527 0.117748827 -0.983083665 -0.113161996 0.570617855 -0.813381612 0.00393072888 -0.735103607 0.677943408 0.033449363 -0.85101229 0.524079382 0.610796094 0.194827184 0.767444134 -0.0943973809 0.847753704 -0.521922171 0.261241883 0.917042255 -0.30130741 0.257400602 0.808754206 -0.528830349 0.00652493304 0.999536276 -0.0297422335 0.124609254 0.95702523 0.261868656 -0.0727740675 0.935003817 -0.347090423 -0.0481882617 0.969527781 -0.24019517 -0.034771014 0.979546309 -0.198191777 0.480246782 0.267194897 0.83544594 0.890681982 0.42358911 0.165099576 0.939344883 0.336232603 -0.0676667169 0.902480841 0.411261201 0.128033519 -0.131966531 0.713223815 -0.68840152 0.654150128 0.193075016 -0.731306791 0.979521573 0.00756997149 0.201196983 0.980662405 -0.00877739675 0.195510015 0.983035684 0.0167653002 0.182646424 0.832442164 0.116072759 0.541818321 0.775052488 0.0615041703 0.628896534 0.667165637 0.438431352 -0.602219164 0.628755152 0.558862686 -0.540684164 0.991682112 -0.0130215613 0.128050715 0.992877662 -0.00780171668 0.118882462 0.941649675 0.319070578 -0.107190564 0.54760015 0.773428798 -0.319283426 -0.941403627 0.00245892629 -0.33727318 -0.973894119 0.0152048189 -0.226493031 -0.895906448 0.0321578979 -0.443077326 0.565752804 0.814524293 -0.128350779 0.588391602 0.801967204 -0.103169367 -0.598213255 -0.0058902353 -0.801315308 -0.0641912669 -0.0448585525 -0.996928871 0.340673357 0.3740426 0.862573922 -0.0224577691 0.993208051 -0.114163794 0.469223708 0.0399399549 0.882175684 -0.0375258513 -0.851380706 -0.523204267 -0.066284731 -0.0816667452 -0.994453073 0.272385567 0.738245726 0.617089391 0.622318387 0.737063468 -0.26354748 0.61945051 0.743807793 -0.25105986 0.533940732 0.263352782 0.803462863 0.458890021 0.531644821 0.711880386 0.502726853 -0.767572045 -0.397616446 0.990987122 -0.00652450277 0.133798391 0.987731636 -0.155405089 0.0153462216 0.992269337 -0.0644261464 -0.106069818 0.594169974 0.73378247 -0.329431891 0.293332726 0.813436925 0.502271175 0.614964247 0.262216836 0.743680954 0.694451809 -0.0375287458 -0.718559921 0.772802353 0.634393692 -0.0179230943 0.950253367 0.226269901 0.214057162 -0.429033428 -0.0071295076 0.903260469 -0.491832823 -0.0427073501 0.869641602 -0.758115709 -0.0467992388 0.650438607 -0.212299019 0.0238341987 0.976914048 -0.353303313 0.0500323102 0.934169948 -0.115622029 0.0382315144 0.992557228 -0.915845156 0.00225745677 0.401525289 -0.998512924 -0.014048053 -0.0526742227 -0.0323605426 0.0926937833 -0.995168686 0.167558461 0.000596690516 -0.985861957 0.712557554 -0.000331542484 -0.701613545 -0.144030258 -0.016292043 0.989439189 -0.304995596 -0.0173150562 0.95219636 -0.0766342729 0.0417145677 -0.996186256 -0.183030739 0.00805616565 -0.983074188 -0.344491661 0.0133677442 -0.938694179 -0.184509024 0.00233847182 -0.982828021 -0.240486309 0.000353162031 -0.970652461 -0.372908622 0.0320392773 -0.927314758 -0.096176222 0.00187167292 -0.99536258 0.279428363 0.0963362455 -0.955321491 -0.0629885644 0.00146059319 -0.998013198 -0.05432529 0.00523284962 -0.998509586 -0.0412085839 0.0100687435 -0.999099851 -0.0471835658 0.00815771241 -0.998852909 -0.05601836 0.00235684565 -0.998426974 -0.0395581946 0.00342412083 -0.999211431 -0.0523086749 -0.00391378487 -0.998623312 -0.0377186649 -0.0155354645 -0.999167621 -0.759328485 -0.0256731659 -0.650200844 -0.102800846 0.020911945 0.9944821 0.000993402791 0.969090462 0.246703625 0.018264113 0.972730935 0.231216133 -0.737127483 -0.00263003586 -0.675748646 -0.544510722 0.00322984252 -0.838747621 0.243189991 0.000279684638 -0.969978631 -0.502965629 0.00599833485 0.864285588 0.693192363 -0.00104917213 -0.720751822 0.714229226 -0.000658658973 -0.699911535 -0.982580245 0.0108659351 -0.185520887 -0.937632859 -0.0161807928 -0.347250313 -0.969947219 -0.0310292374 -0.241328895 0.00722249225 -0.941021264 0.338270396 0.0132254548 -0.961042821 0.276082963 -0.00117831794 -0.977020383 0.213142738 0.00102516869 -0.976591885 0.215098336 0.659589171 0.746956646 0.0836533904 -0.605467021 0.075874798 0.792245328</float_array>
          <technique_common>
            <accessor source="#normals_array" count="405" stride="3">
              <param name="X" type="float" />
              <param name="Y" type="float" />
              <param name="Z" type="float" />
            </accessor>
          </technique_common>
        </source>
        <vertices id="vertices">
          <input semantic="POSITION" source="#positions" />
        </vertices>
        <triangles material="scout_333333" count="488">
          <input semantic="VERTEX" source="#vertices" offset="0" />
          <input semantic="NORMAL" source="#normals" offset="1" />
          <p>0 0 1 1 2 2 3 3 2 2 4 4 5 5 3 3 4 4 3 3 0 0 2 2 6 6 7 7 8 8 9 9 3 10 5 11 0 0 3 3 10 12 11 13 0 0 10 12 12 14 13 15 14 16 4 17 15 18 16 19 16 20 5 11 4 21 9 9 5 11 16 20 9 9 16 20 17 22 18 23 19 24 15 25 10 26 3 26 9 26 20 27 11 13 10 12 21 28 11 13 20 27 22 29 21 28 20 27 23 30 17 22 16 20 24 31 23 30 16 20 25 32 9 9 17 22 23 30 25 32 17 22 10 12 9 9 25 32 26 33 10 12 25 32 25 32 23 30 27 34 28 35 20 27 10 12 28 35 10 12 26 33 28 35 29 36 20 27 22 29 20 27 29 37 24 38 16 19 15 18 24 38 15 18 19 39 30 40 31 41 32 42 27 34 23 30 33 43 27 34 26 33 25 32 34 44 26 33 27 34 28 35 26 33 35 45 35 45 26 33 34 44 36 46 37 47 38 48 38 48 37 47 39 49 40 50 36 46 38 48 40 50 41 51 36 46 42 52 36 46 41 51 39 49 30 40 38 48 43 53 30 40 39 49 32 42 38 48 30 40 37 54 43 55 39 56 40 50 38 48 32 42 44 57 40 50 32 42 44 57 41 51 40 50 45 58 41 51 44 57 46 59 31 41 30 40 47 60 44 57 32 42 48 61 47 60 32 42 49 62 44 57 47 60 4 63 18 23 15 25 50 64 51 65 52 66 53 67 48 61 46 59 54 68 30 40 55 69 55 69 30 40 43 53 46 59 30 40 54 68 48 61 32 42 31 41 48 61 31 41 46 59 56 70 47 60 48 61 49 62 47 60 56 70 52 71 57 72 58 73 59 74 58 73 57 72 59 75 57 76 60 77 61 78 49 62 56 70 62 79 63 80 60 77 52 71 51 81 57 72 51 82 62 79 60 77 51 82 60 77 57 76 64 83 65 84 66 85 67 86 68 87 69 88 59 75 60 77 70 89 58 73 59 74 71 90 72 91 59 75 73 92 71 90 59 74 72 93 61 78 56 70 74 94 60 77 63 80 70 89 63 80 75 95 70 89 76 96 77 97 0 0 76 96 78 98 77 97 79 99 78 98 76 96 80 100 49 62 61 78 81 101 76 96 82 102 81 101 79 99 76 96 79 103 83 103 78 103 84 104 79 99 85 105 86 106 82 102 11 13 86 106 81 101 82 102 86 106 11 13 21 28 87 107 81 101 86 106 88 108 86 106 21 28 81 101 87 107 79 99 87 107 86 106 89 109 85 105 79 99 87 107 90 110 66 85 65 84 84 104 85 105 91 111 83 112 79 99 84 104 83 113 84 114 18 115 88 108 89 109 86 106 92 116 21 28 22 29 92 116 88 108 21 28 93 117 87 107 89 109 93 117 85 105 87 107 91 111 85 105 93 117 92 118 94 119 88 108 89 109 95 120 93 117 88 108 95 120 89 109 88 108 96 121 95 120 97 122 92 123 98 124 99 125 100 126 101 127 84 114 102 128 18 115 84 114 103 129 102 128 42 52 41 51 104 130 105 131 100 126 99 125 101 127 106 132 107 133 108 134 107 133 42 52 99 125 101 127 107 133 108 134 99 125 107 133 109 135 99 125 108 134 45 58 104 130 41 51 110 136 104 130 45 58 111 137 109 135 104 130 110 136 111 137 104 130 109 135 111 137 112 138 109 135 105 131 99 125 109 135 112 138 105 131 113 139 111 137 110 136 111 137 113 139 112 138 105 131 114 140 100 126 114 140 115 141 100 126 112 138 116 142 105 131 62 79 117 143 118 144 118 144 63 80 62 79 117 143 62 79 51 82 50 64 117 143 51 65 119 145 120 146 121 147 122 148 118 144 117 143 50 64 123 149 117 143 123 149 124 150 117 143 113 139 125 151 112 138 112 138 125 151 116 142 122 152 126 153 118 154 124 150 122 148 117 143 124 155 127 156 122 152 124 150 123 149 127 157 80 100 128 158 113 139 129 159 113 139 128 158 113 139 129 159 125 151 115 141 114 140 130 160 116 142 131 161 114 140 132 162 24 162 19 162 33 43 23 30 24 31 133 163 27 34 33 43 133 163 34 44 27 34 134 164 135 165 136 166 35 45 34 44 133 163 137 167 28 35 35 45 138 168 137 169 139 170 139 171 137 167 35 45 140 172 35 45 133 163 141 173 142 174 143 175 132 176 19 176 144 176 33 43 24 31 132 177 145 178 146 179 33 43 147 180 146 179 145 178 139 181 35 182 140 183 148 184 149 185 150 186 146 179 151 187 133 163 152 188 151 187 146 179 151 187 140 172 133 163 153 189 139 181 140 183 154 190 69 88 150 191 152 188 155 192 151 187 151 187 153 193 140 172 151 194 155 192 153 195 155 192 156 196 153 195 157 197 98 124 7 7 74 94 158 198 61 78 145 178 132 177 144 199 159 200 145 178 144 199 160 201 145 178 159 200 147 180 145 178 160 201 66 202 90 203 161 204 162 205 163 206 161 204 37 47 36 46 107 133 65 84 8 207 90 110 90 203 138 168 164 208 138 168 139 170 164 208 161 204 90 203 164 208 65 209 165 210 8 8 64 211 165 210 65 209 153 212 166 213 139 170 166 213 164 208 139 170 166 214 167 215 168 216 169 217 162 205 161 204 170 218 162 205 169 217 169 219 171 220 170 221 172 222 160 223 159 224 168 216 173 225 164 226 6 6 8 8 165 210 169 217 161 204 164 226 173 225 169 217 164 226 6 227 165 228 173 229 168 230 6 227 173 229 173 229 165 228 169 219 165 228 171 220 169 219 172 222 174 231 160 223 175 232 7 7 6 6 168 216 164 226 166 214 160 201 176 233 147 180 152 188 156 196 155 192 167 234 166 213 153 212 167 215 177 235 168 216 53 67 46 59 178 236 53 67 56 70 48 61 74 94 56 70 53 67 179 237 72 91 73 92 72 93 179 238 71 90 180 239 162 205 181 240 70 89 75 95 73 92 75 95 182 241 73 92 75 95 183 242 182 241 182 241 179 237 73 92 55 243 71 244 179 245 54 68 184 246 181 240 181 240 184 246 180 239 103 247 84 104 91 111 2 248 1 249 77 250 183 242 179 237 182 241 183 242 185 251 179 237 61 78 158 198 186 252 187 253 186 252 158 198 170 218 181 240 162 205 188 254 178 236 181 240 53 67 178 236 188 254 13 255 12 256 189 257 12 256 171 258 189 257 190 259 74 94 53 67 190 259 158 198 74 94 119 145 158 198 190 259 191 260 181 240 170 218 171 220 192 261 170 221 181 240 120 146 188 254 191 262 170 221 192 261 191 260 193 263 181 240 120 146 53 67 188 254 12 256 192 264 171 258 192 261 194 265 191 262 130 266 195 267 123 268 14 269 192 261 12 270 192 261 196 271 194 265 14 269 196 271 192 261 197 272 198 273 193 274 120 146 181 240 193 263 120 146 193 263 198 275 198 275 121 147 120 146 119 145 190 259 120 146 199 276 119 145 121 147 200 277 125 151 201 278 199 276 202 279 119 145 203 280 121 147 198 275 203 280 199 276 121 147 68 87 199 276 203 280 68 87 67 86 199 276 204 281 97 122 157 197 205 282 97 122 204 281 93 117 95 120 206 283 206 283 95 120 207 284 95 120 96 121 207 284 96 121 208 285 207 284 94 119 209 286 96 121 209 286 208 285 96 121 94 287 210 287 209 287 80 100 110 136 45 58 91 111 93 117 206 283 127 156 195 288 211 289 103 247 206 283 212 290 103 291 212 291 102 291 213 292 156 196 152 188 214 293 213 292 152 188 213 292 215 294 156 196 216 295 207 284 214 293 207 284 208 285 214 293 214 293 208 285 213 292 208 285 215 294 213 292 206 283 207 284 216 295 210 296 215 294 209 286 216 295 212 290 206 283 212 297 217 297 102 297 176 233 214 293 152 188 215 298 218 299 156 300 219 301 218 299 215 298 220 302 221 303 205 282 216 295 214 293 222 304 223 305 224 306 225 307 180 239 163 206 162 205 226 308 131 161 227 309 228 310 224 306 223 305 229 311 230 312 224 306 217 313 216 295 222 304 217 314 222 315 231 316 223 305 225 307 210 317 218 318 177 235 167 215 177 319 204 320 175 321 232 322 222 304 174 323 220 302 205 282 204 281 219 324 233 325 177 235 219 324 177 235 218 318 233 326 220 327 204 320 233 326 204 320 177 319 231 316 222 315 232 328 219 324 225 307 233 325 224 306 142 329 225 307 225 307 142 329 233 325 142 174 141 173 220 327 233 326 142 174 220 327 189 330 163 331 180 332 224 306 143 333 142 329 230 334 143 333 224 306 199 276 67 86 202 279 126 153 183 242 75 95 126 153 211 289 183 242 122 152 211 289 126 153 122 152 127 156 211 289 33 43 146 179 133 163 201 278 129 159 128 158 200 277 131 161 116 142 201 278 125 151 129 159 114 140 226 308 130 160 211 289 195 288 183 242 183 242 195 288 185 251 195 267 234 335 185 336 201 278 128 158 235 337 186 252 128 158 80 100 130 160 226 308 236 338 196 271 149 185 148 184 235 337 128 158 187 253 235 337 187 253 237 339 234 340 134 164 136 166 234 335 136 341 14 16 238 342 201 278 235 337 230 334 226 343 149 344 200 277 238 342 131 161 187 253 128 158 186 252 239 345 235 337 237 339 194 265 148 184 197 272 154 346 238 342 235 337 154 346 235 337 239 345 149 344 143 333 230 334 143 347 136 166 135 165 143 175 135 348 141 173 143 349 149 185 136 350 226 343 227 351 149 344 227 351 150 191 149 344 238 342 227 309 131 161 240 352 227 309 238 342 239 345 237 339 67 86 154 346 239 345 241 353 148 184 150 186 242 354 240 355 150 191 227 351 240 355 154 190 150 191 240 352 238 342 154 346 69 88 241 356 67 86 154 190 241 356 69 88 138 357 8 358 7 7 42 52 104 130 108 134 238 342 200 277 201 278 200 277 116 142 125 151 158 198 237 339 187 253 223 359 210 360 205 361 193 274 191 262 197 272 178 236 54 68 181 240 236 338 226 308 230 312 97 122 94 362 92 123 6 227 168 230 175 321 107 133 36 46 42 52 54 68 178 236 46 59 44 57 49 62 45 58 221 363 228 364 223 359 98 124 157 197 97 122 63 80 118 365 75 95 126 153 75 95 118 365 77 97 1 1 0 0 2 248 83 366 4 63 69 367 198 273 150 186 114 140 131 161 226 308 28 368 92 123 29 369 13 15 179 370 14 16 217 371 231 372 144 373 144 373 231 372 159 374 172 375 159 374 174 376 174 376 159 374 231 372 232 377 174 376 231 372 70 89 73 92 59 75 191 262 194 265 197 272 102 378 19 24 18 23 101 379 100 380 50 381 106 382 101 379 50 381 123 268 100 380 115 383 37 54 106 382 50 381 115 383 130 266 123 268 37 54 52 384 43 55 37 54 50 381 52 384 58 385 43 55 52 384 55 243 43 55 58 385 58 385 71 244 55 243 123 268 50 381 100 380 108 134 104 130 109 135 110 136 80 100 113 139 114 140 105 131 116 142 4 63 83 366 18 23 97 122 205 361 94 362 208 285 209 286 215 294 102 378 144 373 19 24 82 102 0 0 11 13 195 267 236 386 234 335 163 331 189 330 64 83 66 202 161 204 163 206 106 132 37 47 107 133 66 85 163 331 64 83 98 124 28 368 7 7 7 7 28 368 137 387 165 210 64 211 171 388 171 388 64 211 189 389 167 234 153 212 156 300 152 188 146 179 147 180 176 233 152 188 147 180 7 7 175 232 157 197 239 345 67 86 241 353 168 230 177 319 175 321 176 233 160 201 174 323 49 62 80 100 45 58 175 232 204 281 157 197 13 390 184 391 179 245 222 304 214 293 176 233 179 245 184 391 55 243 184 391 13 390 180 332 76 96 0 0 82 102 2 248 78 392 83 366 150 186 198 273 242 354 197 272 242 354 198 273 28 368 98 124 92 123 96 121 88 108 94 119 14 16 179 370 185 336 190 259 53 67 120 146 119 145 202 279 158 198 92 123 22 393 29 369 158 198 202 279 237 339 242 354 197 272 148 184 237 339 202 279 67 86 68 394 203 395 69 367 198 273 69 367 203 395 205 361 210 360 94 362 103 247 91 111 206 283 61 78 186 252 80 100 243 396 134 397 229 398 144 373 102 378 217 371 180 332 13 390 189 330 216 295 217 313 212 290 54 68 55 69 184 246 156 300 218 299 167 234 219 301 215 298 210 317 141 399 221 303 220 302 219 301 210 317 225 307 228 364 221 363 243 396 141 399 243 400 221 303 243 400 141 399 134 401 141 399 135 402 134 401 243 396 229 398 228 364 174 323 222 304 176 233 205 361 221 363 223 359 130 266 236 386 195 267 134 397 234 335 236 386 196 271 14 269 136 350 123 403 195 288 127 156 33 43 132 177 145 178 185 336 234 335 14 16 229 311 224 306 228 310 148 184 194 265 196 271 138 357 7 7 137 387 229 311 236 338 230 312 90 404 8 358 138 357 134 397 236 386 229 398 2 248 77 250 78 392 149 185 196 271 136 350</p>
        </triangles>
      </mesh>
    </geometry>
  </library_geometries>
  <library_visual_scenes>
    <visual_scene id="scene">
      <node id="head_link">
        <instance_geometry url="#geometry">
          <bind_material>
            <technique_common>
              <instance_material symbol="scout_333333" target="#scout_333333" />
            </technique_common>
          </bind_material>
        </instance_geometry>
      </node>
    </visual_scene>
  </library_visual_scenes>
  <scene>
    <instance_visual_scene url="#scene" />
  </scene>
</COLLADA>