<?xml version='1.0' encoding='utf-8'?>
<COLLADA xmlns="http://www.collada.org/2005/11/COLLADASchema" version="1.4.1">
  <asset>
    <created>2026-09-14T00:00:00Z</created>
    <modified>2026-09-14T00:00:00Z</modified>
    <unit name="metre" meter="1" />
    <up_axis>Z_UP</up_axis>
  </asset>
  <library_effects>
    <effect id="scout_b2b2b2_effect">
      <profile_COMMON>
        <technique sid="common">
          <lambert>
            <emission>
              <color>0 0 0 1</color>
            </emission>
            <ambient>
              <color>0.35 0.35 0.35 1</color>
            </ambient>
            <diffuse>
              <color>0.7 0.7 0.7 1</color>
            </diffuse>
          </lambert>
        </technique>
      </profile_COMMON>
    </effect>
  </library_effects>
  <library_materials>
    <material id="scout_b2b2b2" name="scout_b2b2b2">
      <instance_effect url="#scout_b2b2b2_effect" />
    </material>
  </library_materials>
  <library_geometries>
    <geometry id="geometry" name="left_wrist_yaw_link">
      <mesh>
        <source id="positions">
          <float_array id="positions_array" count="210">-0.0162248947 -0.00839840807 -0.024037838 -0.0172330476 0.00586670963 -0.0236482043 -0.00609989651 -0.00484218448 -0.0300383884 -0.0104345307 -0.0148418806 -0.0232126452 -0.00528933154 -0.0172596779 -0.0250985045 -0.00755260978 0.00327200606 -0.0285240896 -0.00766508747 -0.00503460923 0.0292403586 -0.0182556808 0.00129104732 0.0242612064 -0.0157574099 -0.0097357817 0.0219295118 -0.0157845207 -0.00597253442 0.02371246 -0.00734456116 -0.0162197053 0.0208793636 -0.00547938328 -0.0154761747 0.0238596853 -0.00462869601 -0.0169304349 0.0250955019 -0.00727080461 -0.00213328074 0.0281523541 -0.00902456138 0.016685402 -0.0246674567 -0.00627182284 0.00722005544 -0.0295081045 -0.00559317973 0.0167929213 -0.0232188832 -0.0164535381 0.00667743059 0.0214707404 -0.00888836663 0.0163385831 0.0247908439 -0.00543342624 0.00865999516 0.0271401927 -0.00724237785 0.0163115319 0.0217962544 -0.00519576157 0.0050787311 0.0294658486 0.028194787 0.019679768 -0.0207885057 0.036796093 0.0116260322 -0.0260403883 0.0356418118 0.0251824465 -0.0144972587 0.0287643485 -0.0216004252 -0.0117962891 0.0282312781 -0.0212038215 -0.0209166463 0.028326178 -0.0239576902 0.00270514982 0.0286889486 -0.0210511573 0.0138990115 0.0261948127 -0.0180924572 -0.0222392995 0.0358152874 -0.0199524648 -0.0205785539 0.0356676094 -0.00570078334 -0.029145604 -0.00358768762 -0.0084875077 -0.0278516822 0.0365786739 -0.0178200193 -0.0248320047 0.041033946 -0.0174106546 -0.016714599 0.0364600904 -0.0230647251 -0.0151047353 0.0397627316 -0.015729554 -0.0189248659 0.0364512466 -0.0036611075 -0.0304857492 0.0410656221 0.00106210459 -0.0249855779 0.026885299 -0.0199794155 0.0222046077 0.025535237 -0.0180388149 0.0213658568 0.0357291624 -0.00860594492 0.0276270937 0.0396312065 -0.0154597759 0.0189410858 0.0358622484 -0.0224163532 -0.00140097749 0.0359350778 -0.0201255884 0.0194262657 0.0272372644 0.020071445 -0.0227611698 0.028433932 0.0299920719 -0.00505543407 0.0285311788 0.0275606718 -0.0069965669 0.0365857184 -0.00494665466 0.0297275782 0.0372950807 0.0240249 0.0135432398 0.0358878225 0.0285952259 0.00115179003 0.0395865515 0.0222388413 -0.00907516759 0.0365293957 0.0122057861 -0.0281348228 0.041257184 0.0205708556 -0.0129108047 0.0365553349 0.0236661378 -0.0190437268 0.0364900194 0.0295091234 -0.00638323743 0.0410484448 0.0064531574 0.0237044934 0.0363877527 0.0143158259 0.0270388331 0.0355229713 0.011665497 0.0267785657 0.0395104401 0.00742898928 0.0228311103 0.0267618932 0.0190803688 0.0208077207 0.0273983311 0.0204143766 0.0222905632 0.0280848425 0.0269146618 0.00948595349 0.0411510654 0.021498831 0.0111808591 0.0364322551 0.0281119458 0.0117371846 0.0409686305 -0.0166071076 0.0179063585 0.0363973752 -0.0191612672 0.0234887321 0.0366043784 -0.023103511 0.0126375668 0.0412389711 -0.00849246979 0.01698534 0.0413550399 -0.0111183254 -0.0155888312</float_array>
          <technique_common>
            <accessor source="#positions_array" count="70" stride="3">
              <param name="X" type="float" />
              <param name="Y" type="float" />
              <param name="Z" type="float" />
            </accessor>
          </technique_common>
        </source>
        <source id="normals">
          <float_array id="normals_array" count="414">-0.465026766 -0.203476205 -0.861595929 -0.490914017 0.107204974 -0.86458689 -0.233585492 -0.156512246 -0.959657073 -0.501111627 -0.53720659 -0.678451359 -0.174632877 -0.418517947 -0.891260922 0.265875548 0.232058033 0.935659826 0.218337744 -0.126638979 0.967621386 0.244321555 0.184405014 0.95199883 -0.277014077 -0.191214606 0.941647589 -0.471312076 -0.0201116838 0.881737173 -0.514165163 -0.339686424 0.787557781 0.213226289 0.419563979 -0.882326841 0.406142384 0.205727756 -0.890350759 0.542183995 0.607156992 -0.580858767 0.289083689 0.469228595 -0.834419072 -0.574149072 -0.783464968 0.237772033 -0.16333203 -0.38326329 0.909083009 0.244050726 0.0652985796 -0.967561543 0.403960437 -0.178763017 0.897139788 -0.221921995 0.402591676 -0.888071299 -0.231262162 0.218917355 -0.947941482 -0.372049302 0.362778932 0.85438329 0.996735692 0.040319182 -0.0699451268 -0.781842291 0.47238633 0.406907558 0.488007635 -0.236459047 -0.840199769 0.218428627 -0.328657061 -0.918843567 -0.664830923 0.648189306 -0.371282279 -0.177307248 0.17595917 0.96829772 -0.0260443632 -0.649175048 0.76019305 -0.045698978 -0.401255757 0.91482532 0.0540139265 -0.861990392 0.504038751 -0.816361666 0.573458314 0.068550393 -0.799933791 0.595673382 0.0726578832 -0.98771584 0.156197324 -0.00445399014 -0.98916018 0.146716148 -0.00603882456 -0.841405392 -0.539792776 0.0257056747 0.0218297672 0.989233553 0.144707993 0.0566085577 0.972049236 0.227850392 0.134127885 0.948874533 0.285739005 -0.187919542 0.343832403 0.920035601 -0.0136437276 0.173809603 0.984684765 0.144435674 0.328830659 0.933278501 0.826037705 -0.339621544 -0.449798703 0.904682696 -0.377746016 -0.197122142 0.753474116 -0.645334721 -0.125777245 -0.932001233 0.116584308 0.34319362 -0.908281207 0.0521567576 0.415096223 -0.670824885 0.376965493 0.638663471 0.804769933 -0.106133997 -0.58402133 0.91904372 0.0201398786 -0.393640727 -0.453336984 0.866194665 -0.2102198 -0.79711622 -0.596116662 -0.0961801261 -0.0247981139 0.571321964 -0.820351303 -0.0179915931 0.282676458 -0.959046543 -0.806279302 0.589234471 -0.0521196947 -0.852501214 0.522721052 -0.00208746782 -0.785474181 0.615477026 -0.0649488866 -0.100280054 0.980957866 0.166329682 -0.0997896716 0.965945661 0.238727942 -0.100284696 0.981228113 0.164724976 -0.0997744277 0.96559453 0.240150467 0.106340118 -0.395974606 0.912083268 -0.998985827 -0.0450097509 -0.00121091981 -0.832015276 -0.458086163 0.312902063 -0.838327646 -0.450022072 0.307712287 -0.994681001 -0.0855658203 0.0573422983 0.0159218814 -0.140930206 0.989891469 -0.989315808 -0.137807295 -0.0475748815 -0.8774122 -0.479344755 -0.0194008965 -0.937766612 -0.320171565 0.134476453 0.846216261 0.235547617 -0.477949172 0.931284666 0.317160755 -0.179214835 -0.806407988 -0.500499547 0.314970434 -0.984879017 -0.0544944145 0.164449513 0.803452671 0.451479167 -0.388111204 0.870676458 0.490548074 -0.0358477123 0.915611148 0.0892476439 0.392034501 0.806884348 0.301584899 0.507921457 0.850950599 -0.0991082639 0.515810668 0.00574866775 -0.120623931 -0.992681623 0.0217728559 0.386056989 -0.922217965 -0.841716349 0.121171534 -0.526147306 -0.799632728 -0.239561707 -0.550633907 -0.798547447 -0.135505438 -0.586481273 -0.0819314197 -0.715502441 0.693789184 -0.939789653 0.322427839 0.11329446 0.0571674891 0.959685802 -0.275200039 -0.0232484285 -0.932615697 -0.360121459 0.0283764675 -0.997870028 -0.0587380938 -0.0902986452 -0.844221771 -0.528333008 0.924158871 0.344658762 0.164744526 0.821181059 0.540559232 0.182913423 -0.107313566 0.922372937 0.371095568 -0.0296446998 0.988728106 -0.146758065 -0.215260401 0.927791893 0.304737896 0.00189522549 -0.85780251 -0.513975918 -0.0248225201 -0.977016926 -0.211711615 0.0161714461 -0.999446988 0.0290545709 -0.791624904 -0.0505946204 -0.60890907 -0.0513151065 0.808508158 -0.586243391 0.0249775611 0.978572786 -0.204380721 0.0769115761 0.99702543 -0.00498774182 0.224174932 -0.521838605 -0.823061407 -0.0756705403 0.347744614 0.934530735 0.0452840328 -0.635805726 -0.770519555 -0.0826082006 0.995096505 -0.0543952473 -0.129373118 0.764153242 -0.63192755 0.045593258 -0.973240018 0.225222468 -0.0162678491 0.658413589 -0.752480507 0.910163701 -0.344038725 0.230736598 0.786050856 -0.424313277 0.449535578 0.794038177 -0.603294969 0.0744217485 -0.776742101 0.626339316 0.066111736 0.0228067692 -0.725522518 0.687820375 -0.0365798846 -0.981907666 0.185793668 -0.00435672654 0.559785783 0.828625917 -0.74451381 0.661931574 0.0868664682 0.0410855636 0.97526741 -0.21717605 0.0432405211 0.982843935 -0.179298759 -0.00868196879 -0.401809126 -0.915682256 -0.104842722 -0.989521742 -0.0992711708 -0.029866714 -0.681743503 -0.73098135 -0.0356827751 0.57915765 -0.81443429 -0.0353743546 -0.398570657 -0.91645515 0.0173881017 0.698396504 0.715499818 0.0497989804 0.440144867 0.896544755 -0.984318912 -0.0345911533 0.17297323 -0.998710811 -0.0427689739 0.0273411851 0.127605662 0.937325835 -0.324248463 0.999504209 -0.0228582993 0.0216520615 0.999292314 -0.025383845 -0.0277587026 -0.0240980368 -0.860441148 0.508979738 -0.733058929 0.333739489 -0.592657149 -0.99945581 -0.0178119075 -0.0277627055 -0.637529671 0.43921271 -0.632967651 -0.0483961031 0.514232874 0.856284082 -0.00622973824 0.490449876 0.871447146 -0.820909202 -0.358395219 -0.444590747</float_array>
          <technique_common>
            <accessor source="#normals_array" count="138" stride="3">
              <param name="X" type="float" />
              <param name="Y" type="float" />
              <param name="Z" type="float" />
            </accessor>
          </technique_common>
        </source>
        <vertices id="vertices">
          <input semantic="POSITION" source="#positions" />
        </vertices>
        <triangles material="scout_b2b2b2" count="136">
          <input semantic="VERTEX" source="#vertices" offset="0" />
          <input semantic="NORMAL" source="#normals" offset="1" />
          <p>0 0 1 1 2 2 3 3 0 0 4 4 3 5 5 6 0 7 6 8 7 9 8 10 8 11 9 12 10 13 9 12 11 14 10 13 12 15 8 15 10 15 12 16 6 8 8 10 9 12 13 17 11 14 1 18 0 7 5 6 14 19 15 20 1 1 16 21 14 21 1 21 17 22 9 22 8 22 18 23 17 23 7 23 17 24 13 17 9 12 17 24 19 25 13 17 20 26 17 26 18 26 21 27 7 9 6 8 22 28 23 29 24 30 25 31 26 32 27 33 28 34 25 31 27 33 25 35 29 35 26 35 25 36 30 37 29 38 7 9 21 27 18 39 31 40 5 6 32 41 33 42 34 43 35 44 36 45 31 46 30 47 37 48 38 49 33 42 38 49 34 43 33 42 39 50 28 50 27 50 40 51 28 51 39 51 40 52 11 14 41 53 42 54 43 55 44 56 16 57 45 58 14 59 45 58 16 57 22 60 5 6 23 29 16 61 46 62 45 63 22 64 46 62 22 64 47 65 21 27 6 8 48 66 49 67 50 68 51 69 52 70 53 71 38 49 24 72 23 73 51 69 53 71 54 74 55 75 56 76 57 77 48 78 37 79 15 20 52 80 41 81 58 82 59 83 4 84 29 84 3 84 60 85 61 85 62 85 11 86 40 86 10 86 62 87 50 88 49 89 63 90 57 77 56 76 64 91 57 77 63 90 2 2 15 20 37 79 4 4 0 0 2 2 64 92 46 93 62 94 26 95 35 96 27 97 7 98 17 98 8 98 48 66 6 8 12 16 54 99 46 93 55 100 30 37 25 36 43 101 20 102 19 25 17 24 53 71 64 91 63 90 26 103 29 103 4 103 26 95 4 4 33 104 60 105 20 105 18 105 18 106 61 106 60 106 22 28 24 30 47 107 52 80 14 19 45 108 65 109 66 110 67 111 65 109 48 78 66 110 36 112 43 55 42 54 66 113 48 66 12 16 35 96 67 114 27 97 14 19 52 80 15 20 35 44 34 43 67 111 31 40 32 41 3 115 4 4 37 79 33 104 30 116 43 55 36 112 44 117 43 101 28 118 10 119 40 119 39 119 39 120 12 120 10 120 49 89 60 121 62 87 40 52 41 53 44 122 60 121 49 89 58 123 61 124 57 125 64 92 61 124 18 39 57 125 11 14 13 17 41 53 62 87 47 107 50 88 59 126 49 67 42 127 49 67 51 69 42 127 51 69 23 73 42 127 42 127 23 73 36 45 44 117 28 118 40 128 3 5 32 41 5 6 63 90 56 76 53 71 53 71 56 76 68 129 53 71 68 129 65 109 53 71 65 109 69 130 39 131 27 97 67 114 67 114 66 113 39 131 41 81 59 83 42 132 56 76 48 78 65 109 67 111 34 43 65 109 69 130 65 109 34 43 53 71 69 130 38 49 38 49 69 130 34 43 65 109 68 129 56 76 57 125 21 27 48 66 50 88 47 107 24 30 41 53 13 17 58 123 2 2 37 79 4 4 54 74 53 71 52 70 46 62 47 65 62 133 58 123 19 25 60 121 52 80 45 108 54 99 66 113 12 16 39 131 16 61 23 29 22 28 5 6 16 61 1 18 45 108 46 93 54 99 41 81 42 132 44 134 43 101 25 36 28 118 51 69 50 68 24 72 36 45 23 73 31 46 19 25 20 102 60 121 13 17 19 25 58 123 18 39 21 27 57 125 2 2 1 1 15 20 46 93 64 92 55 100 26 95 33 104 35 96 62 94 61 124 64 92 30 135 31 40 29 136 37 48 52 70 38 49 23 29 5 6 31 40 31 40 3 115 29 136 49 137 59 83 58 82 64 91 53 71 55 75</p>
        </triangles>
      </mesh>
    </geometry>
  </library_geometries>
  <library_visual_scenes>
    <visual_scene id="scene">
      <node id="left_wrist_yaw_link">
        <instance_geometry url="#geometry">
          <bind_material>
            <technique_common>
              <instance_material symbol="scout_b2b2b2" target="#scout_b2b2b2" />
            </technique_common>
          </bind_material>
        </instance_geometry>
      </node>
    </visual_scene>
  </library_visual_scenes>
  <scene>
    <instance_visual_scene url="#scene" />
  </scene>
</COLLADA>