<?xml version='1.0' encoding='utf-8'?>
<COLLADA xmlns="http://www.collada.org/2005/11/COLLADASchema" version="1.4.1">
  <asset>
    <created>2026-09-14T00:00:00Z</created>
    <modified>2026-09-14T00:00:00Z</modified>
    <unit name="metre" meter="1" />
    <up_axis>Z_UP</up_axis>
  </asset>
  <library_effects>
    <effect id="scout_b2b2b2_effect">
      <profile_COMMON>
        <technique sid="common">
          <lambert>
            <emission>
              <color>0 0 0 1</color>
            </emission>
            <ambient>
              <color>0.35 0.35 0.35 1</color>
            </ambient>
            <diffuse>
              <color>0.7 0.7 0.7 1</color>
            </diffuse>
          </lambert>
        </technique>
      </profile_COMMON>
    </effect>
  </library_effects>
  <library_materials>
    <material id="scout_b2b2b2" name="scout_b2b2b2">
      <instance_effect url="#scout_b2b2b2_effect" />
    </material>
  </library_materials>
  <library_geometries>
    <geometry id="geometry" name="left_hand_palm_link">
      <mesh>
        <source id="positions">
          <float_array id="positions_array" count="363">0.013361291 -0.0177840535 -0.0232717209 0.00114806264 -0.0181993917 -0.0129820686 0.000662846782 -0.0114144664 -0.0230605006 0.00277277175 -0.00238041137 -0.0261860043 0.0215454213 -0.0133366184 -0.0308880284 0.011451046 -0.000391376147 -0.0290347822 0.0352848694 -0.0203160383 -0.0182123408 0.0132867163 -0.0189174842 -0.0161702614 0.0506064072 -0.013188784 -0.0413553864 0.0440463908 -0.0183297638 -0.020576898 0.0434167273 -0.0201151334 -0.0148255778 0.0538716801 -0.0182711314 -0.00614767056 0.0497830249 -0.0201487876 0.00217686733 0.0482915193 -0.0170160104 -0.0351258703 0.0705339313 -0.0173012577 -0.037037421 0.0578473657 -0.01830028 -0.0211695228 0.0709578395 -0.0125471037 -0.0438578017 0.0467032753 0.0135238981 -0.0415384397 0.0675404891 -0.0183009505 -0.0238273833 0.0674820244 -0.018277552 -0.00468433555 0.0706624612 -0.00933524128 -0.0419034548 0.0576587133 -0.0125386072 -0.0395834148 0.0706086829 -0.0122729838 -0.0388737768 0.0498879775 -0.00623928104 -0.0399014913 0.0701384023 -0.0112873511 -0.0176160932 0.0702602938 -0.00373733393 -0.0130863376 0.0718934387 -0.0162750836 -0.0137905441 0.0790551677 -0.00517703965 -0.0124496464 0.00320316199 -0.0130098686 0.023658976 0.0001082741 -0.0162103288 0.0164560508 0.0043258965 -0.017850671 0.0197418574 0.000755410467 -0.00423241686 0.0247314926 0.0120141981 0.00257190946 0.0292039327 0.0105112102 -0.0189305004 0.0134570012 0.0322182775 -0.00684883306 -0.0382364839 0.0278301574 -0.0184583683 0.02524966 0.027022358 -0.0128020924 0.0339122787 0.0323287807 -0.00337974494 0.0389728658 0.0844794959 0.00850428548 -0.0190366264 0.0853683501 -0.0102542406 -0.037815243 0.084995769 0.00760151492 -0.0378851444 0.0497331247 -0.0144958971 0.0398682989 0.0274002198 0.0209324006 -0.0216311626 0.00118051609 0.0187064614 -0.00280622463 0.0271840189 0.0207155198 0.0229592081 0.0433072858 -0.0189509988 0.0174102616 0.0487867184 -0.0176725239 0.034034647 0.0536281131 -0.0182490554 0.0140899988 0.0707860813 -0.0104808286 0.0439456925 0.0674910396 -0.0182830226 0.0199231636 0.067819573 -0.0178182088 0.0362388901 0.0297280587 0.0143824406 -0.0370721072 0.0500011183 -0.00696929963 0.0390608944 0.0563088283 -0.0120581407 0.0402182899 0.0707356557 -0.0122589441 0.0387156531 0.0714532807 -0.0163694639 0.0396317579 0.0710212737 -0.00882025529 0.0420591384 0.0854540318 -0.0103487289 -0.0189900249 0.0838294327 0.0116430139 -0.0278947372 0.0815621763 0.010650171 -0.0288880002 0.0767522529 0.011524911 -0.0378301218 0.0727504194 -0.0146906907 0.0128545249 0.0701327696 -0.0112368995 0.017742116 0.0716649666 -0.0165658016 0.0148360264 0.0804271102 -0.00122945348 0.0110053616 0.0819449574 0.00112192798 -0.0107573094 0.070781149 -0.0155676212 0.0109929517 0.0704274699 -0.00378000317 0.0131705971 0.000469795545 0.0107173854 -0.022709867 0.00292813336 0.0156916119 -0.018714333 0.00998388417 0.0127900895 -0.0254525691 0.0280565098 0.0188782383 -0.0283109937 0.0797652975 -0.00401330367 0.012627339 0.0289192256 0.0140810851 0.0368308425 0.0101486929 0.0134734241 0.0250628907 0.0630850047 0.0161041468 -0.0399790555 0.0736715943 0.020520689 -0.0285702981 0.0703787282 0.0107958838 -0.0417270884 0.0497233011 0.00832856819 -0.0398881696 0.0712391883 0.0126376962 -0.042912893 0.0694505721 0.0129680764 -0.0390858911 0.0559994169 0.0132135889 -0.0398810245 0.0803051144 0.0108156847 0.0306284819 0.0693354234 0.0108719477 0.018684784 0.0699588135 0.010611387 0.0381520279 0.0713808611 0.0104396734 -0.0378150456 0.0697505251 0.0186664499 -0.0283564515 0.0797640309 0.0162037387 -0.0280273594 0.0804050267 0.017304413 0.00126103882 0.0834731981 0.0097130388 -0.011961394 0.0819495693 0.0166052431 -0.0283695459 0.0843714699 0.00260505802 0.0124040972 0.0843113512 0.00301320828 -0.012547832 0.0827390105 0.0178590808 -0.00237926422 0.0825674608 0.0110675264 0.0252511781 0.000461517746 0.00946338382 0.0233076438 0.00107484346 0.0161625817 0.0156333856 0.0702539086 0.0105399191 0.0417685248 0.0429914519 0.00437212083 0.0415866189 0.0536218956 0.0147378324 0.0416740365 0.0716949776 0.020555513 0.029304022 0.0678682178 0.0132067883 0.0430565774 0.051844243 0.0122708362 0.0400175601 0.0700378865 0.0129401386 0.0392207354 0.0697233975 0.0185115952 0.0287768822 0.0788996518 0.0185884405 0.0296020824 0.0764887109 0.0115362061 0.0381386839 0.078887172 0.0165708661 0.0283536054 0.0836786106 0.0127076134 0.0287781954 0.0849179104 0.00763146207 0.0378898084 0.0854371712 -0.0103487251 0.0189960822 0.0845304206 0.00846160669 0.0190550182 0.0724146962 0.0214817151 0.00093464629 0.0341002941 -0.0194896068 0.0167949721 0.0693564713 0.010832713 -0.0186952855 0.0488944389 0.00597617449 0.0385421067 0.0853348672 -0.0103172408 0.0377668887 0.0832306445 0.00969456602 0.0119331628 0.0695074126 0.0192647912 -0.00787586905 0.0703479946 -0.0153769748 -0.011058935 0.0438622572 -0.0192598645 0.00374786579</float_array>
          <technique_common>
            <accessor source="#positions_array" count="121" stride="3">
              <param name="X" type="float" />
              <param name="Y" type="float" />
              <param name="Z" type="float" />
            </accessor>
          </technique_common>
        </source>
        <source id="normals">
          <float_array id="normals_array" count="768">-0.2210785 -0.859752238 -0.460380763 -0.197325587 -0.963520527 -0.180806041 -0.388464302 -0.543433011 -0.744161308 -0.345990956 -0.0233350117 -0.937947631 -0.334291428 -0.493329018 -0.803041518 -0.380293399 0.029073609 -0.924408793 0.00996424537 -0.966531157 -0.256355673 -0.0676737204 -0.994612813 -0.078521423 -0.145561457 -0.490482032 -0.859208524 0.0665213987 -0.984685123 -0.161152288 0.168392912 -0.976766944 -0.13255246 0.121971235 -0.99182415 -0.0375208929 0.165014684 -0.986244798 0.0095553752 -0.081235081 -0.932280421 -0.352496982 0.00679966202 -0.940383732 -0.34004733 0.00160790212 -0.999984026 0.00541557744 -0.0898578241 0.0050048721 -0.995942056 -0.160568327 0.00406030333 -0.98701638 0.158273071 -0.987171829 -0.0210105069 -0.000823270762 -0.999999106 0.00104597793 -0.0527818576 0.717382729 0.694676995 -0.0446736738 -0.818243325 -0.573133647 0.09933649 0.0406667851 0.994222522 0.103011705 0.0488054082 0.993482053 0.123679817 0.201630175 0.971621633 0.99384439 0.0258489773 0.107727081 0.998458683 0.0134254852 0.0538516529 0.994995892 0.028025765 0.0959047005 0.973349869 0.178326204 -0.144186586 0.997466981 0.0379590169 -0.0601560101 0.963008225 0.224259064 -0.149409145 0.0898855329 0.111410856 -0.989701092 0.0968449265 0.156956151 -0.982845783 0.0828925222 0.0666458905 -0.994327486 -0.554361522 -0.403013647 0.728191793 -0.724814534 -0.457798243 0.514844358 -0.353852391 -0.853803575 0.381848127 -0.826073408 -0.289450526 0.483550578 -0.418445319 0.0487306081 0.906933725 -0.321985602 -0.0868887007 0.942748964 -0.075299263 -0.996066272 0.0467122346 -0.316479415 -0.202595085 -0.926712453 -0.0899540037 -0.946371138 0.310306132 -0.312987328 -0.544135869 0.778431177 -0.319796205 -0.134562343 0.937882364 0.999266863 0.0368075296 0.0105304178 0.999279916 0.0363028757 0.0110351657 0.999432504 0.0209579468 0.0263713207 -0.152704 -0.582912505 0.798056722 -0.13120091 0.975129545 -0.178630129 -0.15433614 0.987678885 -0.0259000435 -0.142745957 0.958149314 0.248140082 0.0564752854 -0.994367003 0.0896927193 -0.0674377382 -0.952805758 0.295995474 0.0611484461 -0.997105241 0.045189064 -0.0794554055 -0.311788619 0.946823478 -0.0100322403 -0.999787271 0.0180205461 -0.050038632 -0.950260639 0.307409853 -0.357935965 0.0448422208 -0.932668746 0.0332756825 0.0928999707 0.995119274 0.102121197 0.339265615 0.935131073 0.0409443267 0.0420846529 0.998274744 -0.0546991862 -0.721298039 0.690461576 -0.0645200983 0.698409438 -0.71278429 0.0914203078 -0.995649576 0.0180062428 0.103857704 -0.994213104 0.0274573937 0.0606971942 -0.998142242 -0.00528616831 0.437935948 -0.894793928 -0.0869250596 0.474420965 -0.848378181 -0.234902546 0.499468744 -0.794089139 -0.346342832 0.899909079 0.0738527253 0.429778367 0.964038372 0.183958754 0.191805229 0.951288044 0.118247896 0.284725279 -0.939076543 0.343701303 0.00215289695 -0.912748158 0.314558655 0.260660112 -0.8242746 0.566077709 0.0112886671 0.995306969 0.0532633327 0.0807900652 0.98198247 0.14422366 -0.122106388 0.993129611 0.043210797 0.108749494 0.98823899 0.147359818 -0.0408502333 0.989503324 0.0220992751 0.142810464 -0.830916464 0.00156702846 -0.556394994 -0.343308985 0.435083359 -0.832370937 -0.273134977 0.861813545 -0.427404642 -0.386844128 0.489769727 -0.781330407 -0.808541417 0.55550468 -0.194101229 -0.189177305 0.897874236 -0.397534609 -0.16858536 0.863528132 -0.475287467 0.062816143 0.491237223 0.868757784 0.0599018671 0.0807901397 0.994929492 0.0629769191 0.317149878 0.946282148 -0.366283834 0.102469936 0.924843788 -0.372193962 0.604868174 0.703992963 -0.0845172778 0.857241631 -0.507930696 0.012116041 0.815591931 -0.578500688 0.223832458 0.940552056 -0.25546208 0.840171933 -0.542318821 0.00119797816 0.838832259 -0.544384241 -0.00250518182 0.861489117 -0.507317305 0.0215795208 -0.999188185 -0.0400428064 0.00442661718 -0.995806694 0.081926167 -0.0407085977 -0.999492943 0.0204164889 -0.0244347472 0.091994673 -0.0282909833 0.995357513 0.0957059711 -0.0359758027 0.994759321 0.838956356 -0.0287907068 0.543436587 0.830667675 -0.0301387813 0.555952191 0.270555258 0.764233768 -0.585445642 -0.203571171 -0.801877618 0.561739326 -0.0511011295 -0.780074596 0.623596311 -0.173998356 -0.7896896 0.588315368 0.303856164 0.952653408 0.0110843452 0.0805811435 0.99433428 -0.0693257377 -0.00655725598 0.999814093 0.0181321576 0.195755452 -0.970816851 -0.138544157 -0.127587005 0.984257638 0.122304551 -0.0936261415 0.992109239 0.0833870173 0.356096894 0.934448481 0.00103693956 0.458838701 -0.622530818 -0.633973539 -0.233896032 -0.938786924 0.252926439 -0.24699463 -0.943679094 0.220144033 -0.181307122 -0.983403146 -0.00678176386 0.336601824 0.0282433294 -0.941223443 -0.00395923108 0.0057048765 -0.99997586 0.0249947831 0.0261202529 -0.999346256 -0.98120451 0.18308799 0.0609632991 -0.803939581 0.220423996 0.552353561 -0.714390457 -0.327165067 0.618554175 0.674148083 0.429405987 -0.600944996 0.717142045 0.623309076 -0.311758041 0.910481572 0.302317977 -0.282182902 0.991475284 0.130286574 0.00145609106 0.988170147 0.153139934 0.00824403577 0.992262065 0.124160841 -0.000359728874 0.757768154 0.652518094 -0.00274978345 0.276604801 0.952737927 0.125619248 0.485761195 0.867330074 -0.10851112 0.760023236 -0.647343695 0.0575399846 -0.958104193 -0.286091954 0.0137032298 -0.952102959 -0.304241925 0.0306073446 -0.874451101 -0.457877576 -0.160260364 -0.392307371 0.425359845 0.815575838 -0.281924933 0.898471177 0.336552888 0.9863289 0.0414873399 0.159480825 -0.178039148 0.878863037 0.442608029 -0.173910618 0.0350896269 0.984136105 -0.114703543 0.109305963 0.987367868 -0.0339357257 0.912730217 0.407150924 0.370738745 -0.92871201 0.00684149796 0.566847026 -0.823816776 0.00321494183 0.126445785 0.95696646 0.261202365 -0.0545198843 0.0380450264 -0.997787654 0.529257953 0.0648619533 0.845978081 0.530804038 0.0667856336 0.844859004 0.556571901 0.0995191932 0.8248173 -0.00324380561 -0.728005528 -0.685563624 -0.267279685 -0.73836261 -0.619178712 -0.242597893 -0.692822158 -0.679075658 0.055091083 -0.418005884 0.906772316 0.0738935322 -0.271988899 0.959459126 0.0269612633 -0.129628107 0.991196096 0.171553582 0.829673767 0.531235158 0.999504089 -0.0173309613 -0.0262906905 0.999119818 -0.0161635317 -0.0387075432 0.999245524 -0.0134580778 -0.0364314243 0.528527021 0.782906771 0.328201473 0.140099347 -0.989652395 -0.0309882052 -0.00507364003 0.999783635 0.0201716926 -0.581166506 -0.75018239 -0.315391541 -0.205677047 -0.946853995 -0.247314572 -0.759191632 -0.392326713 -0.519333959 0.499503046 0.0286491085 0.865838289 0.530395925 0.573927641 0.623928845 0.626925707 -0.752570808 0.201497585 0.601047993 -0.706710398 0.373231381 0.593221545 -0.733661711 0.33140415 0.78190887 0.553339601 0.287112772 0.999340594 0.0357177667 -0.00652534841 0.999325216 0.0360815078 -0.00687193591 0.998667896 0.0481983833 -0.0184213296 0.162479907 0.986705065 0.00365498359 0.263596147 0.959545791 -0.0989392921 0.468685418 0.878998756 0.0877221152 0.00786036346 -0.997235119 0.073894009 0.369648486 -0.929146349 0.00686042802 -0.999750495 0.00606808765 -0.0214984082 -0.999912202 0.0107322121 0.00776913064 -0.999790251 -0.0150505891 0.0138880992 -0.99363935 -0.0325301364 -0.107808493 -0.999178767 -0.00934026204 0.0394278057 0.825754464 -0.564029753 -2.46028449e-05 0.8282305 -0.56038177 0.00255158241 0.999797165 -6.52317249e-05 -0.0201388001 0.0287025236 -0.00796563737 -0.999556243 0.000423459249 0.00091923523 -0.999999464 0.0406812355 -0.00586512359 -0.999154985 0.0483732261 -0.00745059922 -0.998801529 0.216775879 0.000691662659 -0.976221144 0.066217497 0.0060504633 -0.99778688 0.999290824 0.0287630018 0.0243009552 0.0301958956 0.0497726798 0.998304009 0.0637684092 0.0253983773 0.997641504 0.0527242646 0.0334302783 0.998049378 0.0889177844 0.00705825118 0.996013939 0.841489136 -0.540164769 -0.0108631998 0.998658061 0.0516108386 -0.00428627292 -0.128373876 0.070526436 -0.989214897 0.186335295 0.0044406713 -0.982476175 0.147398189 0.0188897364 -0.988896847 0.224460751 0.0269328915 -0.974110842 0.0332132801 -0.0670156628 0.997198939 -0.949383497 -0.312431544 0.0325192995 0.110102169 0.00390146719 -0.993912637 0.0718612 -0.00240517408 -0.997411728 0.131913051 -0.990058184 0.0488233455 -0.394369632 -0.917693436 0.0480767339 0.871642292 -0.489008605 0.0333215073 -0.249501273 0.168676734 -0.953570783 0.0880212411 -0.995895445 -0.0210850928 0.0577738099 -0.998327732 0.00198937976 0.10026937 -0.994494319 -0.0304477848 0.128343433 -0.990368187 -0.0519500896 -0.0380605944 0.0601340868 0.997464418 -0.188000083 -0.982075989 0.0135176303 -0.818118036 0.574665308 0.0210380852 0.105152361 0.212752596 -0.971431553 0.823632181 -0.567124188 -0.000427729334 0.663502038 -0.748168707 0.00292470958 0.0716501102 0.995110631 0.0679790378 0.0576577522 -0.0166411605 0.998197675 0.443868399 0.00203476544 -0.896089673 -0.108382665 -0.993030667 -0.0462953001 0.987142086 0.159522966 0.0101438044 0.775840998 0.627116084 0.0692541376 -0.999492824 -0.0307464842 -0.0082893353 0.424690634 0.894298196 -0.140956149 0.999958932 0.00221622922 0.00878762174 0.99977535 0.0203197859 -0.00603043055 0.999659479 0.0242145155 -0.00972666219 0.999799371 0.00411782414 -0.0196029637 0.998690188 -0.0511598252 -0.000748721824 0.99890393 -0.0467201099 0.00285988301 -0.0737906471 0.041995611 0.996389151 -0.257948577 0.163903639 0.952154458 0.0312628523 0.0437034816 -0.998555303 0.0504380316 0.0296703465 -0.998286366 0.0597355105 0.0228525382 -0.99795264 0.0812532753 0.00703954604 -0.996668637 0.103837319 -0.134847999 0.985410511 0.0936305076 -0.0112327924 -0.995543659 -0.9688043 0.246303454 0.0274378918 -0.971895695 0.2337479 -0.0279412493 0.420005441 0.89855969 0.127223834 0.99971652 0.0231874958 0.00540972501 0.065553017 -0.0053106742 0.99783498 0.0458129905 0.00880891457 0.998911202 0.0189463031 0.0196578354 0.999627233</float_array>
          <technique_common>
            <accessor source="#normals_array" count="256" stride="3">
              <param name="X" type="float" />
              <param name="Y" type="float" />
              <param name="Z" type="float" />
            </accessor>
          </technique_common>
        </source>
        <vertices id="vertices">
          <input semantic="POSITION" source="#positions" />
        </vertices>
        <triangles material="scout_b2b2b2" count="246">
          <input semantic="VERTEX" source="#vertices" offset="0" />
          <input semantic="NORMAL" source="#normals" offset="1" />
          <p>0 0 1 1 2 2 3 3 4 4 2 2 3 3 5 5 4 4 6 6 7 7 0 0 0 0 4 4 8 8 0 0 9 9 6 6 10 10 6 6 9 9 11 11 10 10 9 9 11 11 12 12 10 10 13 13 0 0 8 8 14 14 9 9 13 13 11 11 9 9 15 15 14 14 13 13 8 8 16 16 8 8 17 17 18 18 9 9 14 14 18 18 15 15 9 9 11 11 15 15 19 19 19 19 15 15 18 18 20 20 21 20 22 20 16 21 14 14 8 8 20 22 23 23 21 24 20 25 22 26 16 27 24 28 25 29 26 30 25 31 27 32 26 33 28 34 29 35 30 36 28 34 31 37 29 35 32 38 31 39 28 34 1 1 33 40 30 36 34 41 8 8 4 4 35 42 30 36 33 40 36 43 28 34 30 36 37 44 32 38 36 43 36 43 30 36 35 42 38 45 39 46 40 47 41 48 36 43 35 42 42 49 43 50 44 51 45 52 46 53 35 42 41 48 35 42 46 53 37 44 36 43 41 48 11 11 47 54 12 12 47 54 45 52 12 12 47 54 46 53 45 52 48 55 37 44 41 48 19 19 47 54 11 11 49 56 47 54 19 19 50 57 46 53 47 54 41 48 46 53 50 57 50 57 47 54 49 56 34 41 5 5 51 58 52 59 53 60 54 61 55 62 41 48 50 57 56 63 54 63 53 63 48 55 41 48 55 62 24 64 39 65 57 66 58 67 59 68 60 69 61 70 62 71 63 72 64 73 65 74 66 75 67 76 62 71 61 70 54 77 56 78 55 79 56 78 48 80 55 79 68 81 3 81 2 81 3 3 68 82 5 5 69 83 70 84 68 82 43 85 69 85 68 85 68 82 70 84 5 5 69 83 71 86 70 84 70 84 51 58 5 5 71 86 51 87 70 84 43 50 71 86 69 83 43 50 42 49 71 86 64 88 67 89 72 90 34 41 17 17 8 8 73 91 74 92 32 38 51 87 71 86 17 93 75 94 71 86 76 95 26 96 27 97 63 98 1 99 29 100 31 101 77 102 78 103 20 22 16 27 77 104 20 25 79 105 77 104 16 27 75 94 79 106 17 93 80 107 81 108 77 109 82 110 83 111 84 112 60 113 85 113 77 113 77 114 85 115 59 116 79 117 60 117 77 117 86 118 80 107 87 119 87 119 80 107 77 109 76 95 79 106 75 94 88 120 86 118 87 119 85 121 60 122 40 123 65 74 89 124 27 125 87 126 77 126 59 126 60 127 90 128 58 129 79 106 90 128 60 127 89 130 91 131 92 132 93 133 90 128 76 95 76 95 90 128 79 106 59 116 38 134 40 135 58 67 94 136 59 68 88 137 59 138 94 139 74 92 95 140 32 38 74 92 96 141 95 140 74 92 44 51 96 141 48 80 56 78 97 142 73 143 44 51 74 92 98 144 73 91 37 44 99 145 73 91 98 144 73 143 99 146 44 51 55 147 14 14 26 148 100 149 44 51 99 146 79 150 16 16 17 17 97 151 101 152 48 153 102 154 103 155 97 156 103 157 102 158 84 159 101 160 100 149 99 146 104 161 103 162 84 163 101 160 105 164 100 149 4 4 0 0 2 2 97 165 84 165 106 165 97 166 82 110 84 112 107 167 103 155 104 168 97 156 107 167 82 169 106 170 101 152 97 151 105 164 101 160 106 171 107 167 94 139 82 169 108 172 106 173 82 174 105 164 106 171 108 175 109 176 110 177 111 178 100 149 105 164 112 179 108 172 94 136 58 67 111 180 82 110 109 181 113 182 12 12 45 52 14 14 55 147 50 183 96 184 43 185 31 101 31 101 43 185 2 186 96 184 31 101 95 187 2 186 43 185 68 188 7 7 1 1 0 0 91 189 72 190 27 97 24 28 114 191 25 29 5 5 34 41 4 4 113 182 45 52 35 42 112 179 76 95 42 49 76 95 71 86 42 49 23 192 78 193 81 194 23 192 81 194 21 195 21 195 81 194 80 196 21 195 80 196 22 197 22 26 24 28 14 198 14 198 16 27 22 26 14 198 24 28 26 30 114 199 24 200 38 201 57 202 38 201 24 200 92 203 91 189 27 97 28 34 36 43 32 38 35 42 33 40 113 182 38 45 57 204 39 46 27 205 89 205 92 205 7 7 33 40 1 1 102 206 53 207 52 208 37 44 48 55 98 144 54 61 84 159 52 59 52 59 84 159 115 209 59 138 88 137 87 210 102 206 56 211 53 207 40 123 39 212 22 197 22 197 85 121 40 123 24 64 22 213 39 65 1 1 30 36 29 214 27 97 72 190 61 215 61 215 63 98 27 97 62 71 54 77 55 79 63 72 62 71 55 79 67 216 64 216 66 216 62 217 110 218 116 219 116 219 54 220 62 217 93 133 58 129 90 128 100 149 112 179 44 51 112 179 42 49 44 51 34 41 51 58 17 17 71 86 75 94 17 93 72 221 91 221 117 221 78 103 23 23 20 22 86 118 88 120 118 222 65 74 119 223 66 75 65 224 27 32 25 31 31 101 2 186 1 99 49 225 19 226 50 183 80 196 85 121 22 197 85 115 114 227 59 116 114 227 38 134 59 116 111 180 83 111 82 110 61 228 72 90 67 89 102 206 52 208 115 229 12 12 113 182 120 230 120 230 6 6 10 10 93 133 76 95 112 179 33 40 7 7 113 182 113 182 7 7 120 230 120 230 7 7 6 6 115 209 84 159 102 158 10 10 12 12 120 230 50 183 18 18 14 14 44 51 43 50 96 141 73 91 32 38 37 44 89 130 117 231 91 131 0 0 13 13 9 9 114 232 85 232 80 232 26 233 63 233 55 233 60 234 59 116 40 135 83 235 67 76 118 236 84 163 83 235 104 161 104 161 83 235 118 236 67 76 66 237 25 29 66 237 119 238 25 29 118 236 67 76 25 29 25 29 114 191 118 236 114 191 80 239 86 240 118 236 114 191 86 240 101 241 98 144 48 55 31 39 32 38 95 140 101 241 99 145 98 144 108 172 82 174 94 136 83 235 62 71 67 76 25 242 119 242 65 242 103 155 107 167 97 156 108 175 93 133 105 164 83 243 111 244 62 245 62 245 111 244 110 246 118 222 88 120 104 168 18 18 50 183 19 226 78 103 77 102 81 247 97 248 56 211 102 206 88 120 107 167 104 168 64 73 72 249 117 250 109 181 82 110 106 251 88 137 94 139 107 167 105 164 93 133 112 179 109 176 116 252 110 177 54 61 116 253 109 254 109 254 106 255 54 61 84 159 54 61 106 255 117 250 89 124 65 74 65 74 64 73 117 250 108 175 58 129 93 133</p>
        </triangles>
      </mesh>
    </geometry>
  </library_geometries>
  <library_visual_scenes>
    <visual_scene id="scene">
      <node id="left_hand_palm_link">
        <instance_geometry url="#geometry">
          <bind_material>
            <technique_common>
              <instance_material symbol="scout_b2b2b2" target="#scout_b2b2b2" />
            </technique_common>
          </bind_material>
        </instance_geometry>
      </node>
    </visual_scene>
  </library_visual_scenes>
  <scene>
    <instance_visual_scene url="#scene" />
  </scene>
</COLLADA>