<?xml version='1.0' encoding='utf-8'?>
<COLLADA xmlns="http://www.collada.org/2005/11/COLLADASchema" version="1.4.1">
  <asset>
    <created>2026-09-14T00:00:00Z</created>
    <modified>2026-09-14T00:00:00Z</modified>
    <unit name="metre" meter="1" />
    <up_axis>Z_UP</up_axis>
  </asset>
  <library_effects>
    <effect id="scout_b2b2b2_effect">
      <profile_COMMON>
        <technique sid="common">
          <lambert>
            <emission>
              <color>0 0 0 1</color>
            </emission>
            <ambient>
              <color>0.35 0.35 0.35 1</color>
            </ambient>
            <diffuse>
              <color>0.7 0.7 0.7 1</color>
            </diffuse>
          </lambert>
        </technique>
      </profile_COMMON>
    </effect>
  </library_effects>
  <library_materials>
    <material id="scout_b2b2b2" name="scout_b2b2b2">
      <instance_effect url="#scout_b2b2b2_effect" />
    </material>
  </library_materials>
  <library_geometries>
    <geometry id="geometry" name="left_shoulder_yaw_link">
      <mesh>
        <source id="positions">
          <float_array id="positions_array" count="312">-0.0319154896 0.00169637054 -0.0624903068 -0.0271273423 -0.00256392453 -0.0892476439 -0.0292554833 -0.0106955161 -0.0732052997 -0.0235890262 -0.0216702763 -0.0764281824 -0.0159419533 -0.0235014465 -0.0981057063 -0.0314850025 -0.00993597228 -0.0108995829 -0.0227794778 -0.0253447648 -0.00208190177 -0.0227389485 -0.0201208964 -0.0376585461 -0.0131193157 -0.0296667237 -0.071325548 -0.0129860658 -0.0303178709 -0.090094395 -0.0127120512 -0.0406575426 -0.0860865712 -0.00769027183 -0.0398653522 -0.0628363937 -0.00825853646 0.0217349529 -0.0694034472 -0.0184434839 0.0225804355 -0.0848159119 -0.0184045304 0.0199982412 -0.0426276252 -0.00943722483 -0.0268670507 -0.0589426793 -0.00932129379 -0.0262953304 -0.034767814 -0.0116653237 -0.0300712083 -0.00478606764 -0.00205209106 -0.0305415802 -0.104817115 0.00504138926 -0.0370706208 -0.106227398 -0.00520461239 -0.0392068215 -0.0991268083 0.00229761028 -0.0307040159 -0.0540394522 0.0052690329 -0.0274566654 -0.0494705625 0.0158822127 -0.0289682411 0.0309994593 -0.00822800491 -0.0232641138 0.0314749479 -0.00710359355 -0.0316862948 0.0306991115 0.00431965617 -0.0275361072 -0.111458801 0.00346708391 -0.0313442349 -0.00339153805 -0.0157760214 0.000980081153 -0.105310723 -0.00195615715 9.60124526e-05 -0.111595556 0.0357543416 -0.0374884792 -0.0629201382 0.0429399163 -0.0281562842 -0.0630490184 0.0343322605 -0.0306767039 -0.0624618717 -0.0288096722 -0.0152347209 0.031215664 -0.022430772 0.0105229719 0.000503618969 -0.0229232591 -0.0101926737 0.0314493552 -0.0177235492 -0.0177063476 0.000424080208 0.00871905871 -0.0244700797 -0.0349961855 -0.0271880254 0.0136591289 -0.0420322232 -0.0250831097 0.0148555432 -0.0855429992 -0.0311909206 0.0117638726 -0.0064146528 -0.0238732025 0.0248483047 -0.00498003699 -0.00796749815 0.0221312791 -0.105076917 0.00273877336 0.0230128374 -0.0440817624 -0.00951989088 0.0314856581 -0.00763502577 -0.0329004042 0.00219481275 0.0310639702 -0.0279375929 0.0201646835 0.0308921766 -0.011694992 0.0324161127 0.0307364184 -0.000142279809 0.0257668234 0.0313996896 -0.0214326978 0.0121110678 0.0314539 0.00941163115 -0.0317530707 -0.10732732 0.00943305437 -0.0408198871 -0.0544471852 0.0208612196 -0.026873257 -0.113430418 0.0138079775 -0.0235571079 -0.0441195965 0.0236714147 -0.0369687825 -0.107360251 0.0303038452 -0.0270290561 -0.0507920086 0.0121594584 -0.0312004704 -0.0511934496 0.0171052981 -0.0120844236 -0.0420012064 0.0182016883 -0.0195499137 -0.0190134328 0.0213130116 -0.0249139499 0.00411925744 0.0194505826 -0.00450382708 -0.0255447831 0.0178691838 0.00625720294 -0.0418542288 0.0303235408 -0.0330473296 -0.0552469045 0.0223764181 -0.0412601717 -0.0523663387 0.0196291469 -0.0404820964 -0.0691519603 0.0332589857 -0.0319120325 -0.103734754 0.0307235606 -0.00854679942 -0.00308416341 0.0396265984 -0.0274919495 -0.103262268 0.0368754007 -0.0376561321 -0.0975375548 0.0406458043 -0.030537691 -0.0977776572 0.045003321 -0.0363210924 -0.0786032304 0.0470213816 -0.0278236885 -0.0895729139 0.047929775 -0.0272709616 -0.0750167444 0.00637418497 -0.0232924502 0.000393967726 0.0108068045 -0.0220239107 0.0314094946 0.0167579185 0.0224265959 -0.114355318 0.0112939347 0.0214534439 -0.055831708 0.00915454421 0.0308588948 -0.00923648011 0.0143676018 0.0208507814 -0.0277782343 0.0150640989 0.0163708664 -0.0415170491 0.0373565815 0.0226380341 -0.0553363115 0.0215994045 0.0250066165 -0.0036096652 0.0282405801 0.0167965218 -0.00376243936 0.0317977853 0.00471466966 -0.00271550077 0.0297558792 0.0220561922 -0.0584984459 0.0483222641 0.0223368164 -0.074503392 0.0363474004 0.021362599 -0.0965512842 0.0463949218 0.022313308 -0.0922532603 0.0382582135 0.0222440735 -0.104717582 0.0385944769 0.0212109759 -0.070155099 0.0171841457 0.0303896852 0.0311354771 0.0311806854 0.0125378696 0.0309127253 -0.00426974334 0.0208423473 -0.0944992825 0.0113140158 0.0214417782 -0.105130479 0.0268189665 -0.0397934988 -0.0856994465 0.0117959799 -0.0397419035 -0.0964112282 -0.0203511976 -0.0255305022 0.0307585876 -0.00608001836 0.0233116187 0.000413780188 0.0310305916 -0.0117083546 0.0308525134 0.0211721826 -0.0122351544 0.000623685832 0.0218150113 0.0102848895 0.00044697235 0.0118593676 0.020993365 0.000509577454 0.022418065 -0.0100183673 0.0314638652 0.0219220538 0.0116785979 0.0314825252</float_array>
          <technique_common>
            <accessor source="#positions_array" count="104" stride="3">
              <param name="X" type="float" />
              <param name="Y" type="float" />
              <param name="Z" type="float" />
            </accessor>
          </technique_common>
        </source>
        <source id="normals">
          <float_array id="normals_array" count="534">-0.990559518 0.118451327 -0.069001168 -0.917497039 -0.0508834906 -0.394474447 -0.947437882 -0.284821451 -0.145733342 -0.799370527 -0.591035545 -0.108091071 -0.722652256 -0.448568493 -0.525889754 -0.948696494 -0.315308928 -0.0235647112 -0.655164659 -0.754325449 -0.0418623388 -0.585434556 -0.810719073 0.000970225956 -0.958154082 -0.24163036 0.153478041 -0.999565125 -0.0288524088 -0.00609545736 -0.989724576 -0.126414105 0.0668188706 -0.924752831 -0.317026496 0.210538313 -0.745624363 -0.557389081 -0.365187168 -0.00149223604 0.999957681 0.00907490309 0.0939200148 0.995473683 0.0145312147 -0.386439443 0.917138517 -0.0975781903 -0.528740704 -0.842233777 0.10524027 -0.252199769 -0.93663162 0.243138745 -0.178017586 -0.982189536 -0.0601118691 -0.253647685 -0.963771999 -0.0825011134 -0.541730523 -0.416842371 -0.729911327 -0.259202689 -0.15639092 -0.953077018 -0.791324973 -0.10736005 -0.601895809 -0.810747445 -0.178151101 -0.557629585 -0.401739955 -0.516474187 0.756213903 -0.240481719 -0.622505248 0.744752169 0.0252615493 -0.0451210216 0.998662055 -0.023915194 -0.0830695033 0.996256769 -0.0170749668 -0.0939766839 0.995427966 -0.27497831 -0.440361679 -0.854674518 0.150417268 -0.984192729 -0.0934841409 -0.654429972 0.0431466214 -0.754890621 -0.299688518 0.0195329282 -0.953837097 0.0824619085 -0.04974759 0.995351791 -0.898981869 -0.436541259 0.0355434977 0.995174229 0.0734818652 0.0650278404 0.998333871 0.0393328257 0.042218145 0.978751421 0.162855268 0.124594621 -0.157318234 -0.987411141 0.0164364763 0.345139027 -0.924855947 -0.15975149 -0.775245488 0.627773166 -0.0699661747 -0.857435822 0.430516034 -0.281886041 -0.945544779 0.32399419 -0.031189898 -0.721349418 0.662273228 -0.202606127 -0.671324909 0.736973286 -0.0786974952 -0.560927808 0.27427128 -0.781111538 0.0673588812 0.983337164 -0.16885151 -0.196826994 0.972883642 -0.121476665 -0.999524891 0.0210503414 0.0225125626 -0.829900861 0.557438672 0.0229501408 -0.267246187 0.963625371 -0.00236212788 0.583276272 -0.812024355 -0.0201309919 0.569198728 -0.82218504 -0.00496222777 0.53975898 -0.841425121 0.0257685557 -0.131101042 -0.467238158 -0.874357462 -0.429352045 -0.336631626 0.838054895 -0.281169355 -0.285055935 0.916344285 0.26998356 -0.118234746 -0.955578029 0.105309241 -0.916847885 0.385097235 0.0977765918 -0.962177277 0.254272819 -0.168074116 -0.453992248 -0.875009775 -0.160712346 -0.60156405 -0.782491028 0.477676034 -0.300370336 0.825592697 -0.0556951575 -0.32514742 0.944021821 0.0429744236 -0.838816047 0.542716205 0.950244784 -0.267984569 -0.158805385 0.82602185 -0.489884496 -0.278749228 0.648748815 -0.754189968 -0.101599514 0.840146899 -0.322042584 0.43639636 0.961896479 -0.0319359712 -0.271542311 0.989629269 0.140009955 -0.0321112722 0.685079992 -0.71384722 -0.145215362 0.496456683 -0.474493235 -0.726902246 0.494936138 -0.3771483 -0.782813787 0.997362435 -0.0666480958 -0.0287428219 0.386258066 -0.547969997 0.74197948 0.227735445 0.118612304 0.966471791 0.102749892 -0.0116113881 0.994639456 0.494160414 -0.0854467973 0.865161479 0.314813793 -0.259081811 0.913109481 0.930139124 -0.282871455 -0.234147355 0.669118941 -0.317951024 -0.67170459 0.705819964 -0.429818898 -0.563093126 0.723751187 -0.517767549 -0.456180871 0.844828069 0.141662389 0.51594305 0.26691547 -0.949707329 -0.163744017 0.811727583 -0.0776058286 0.578857243 0.76560843 -0.546791852 -0.33891356 0.903621852 -0.276864171 -0.326823801 0.987688482 -0.0389953107 0.151495412 0.227363274 -0.973543584 0.0227785129 0.732125342 -0.558330297 0.390204817 -0.217745677 0.974109352 0.0608090684 0.313007057 0.949639142 -0.0145644434 -0.424293607 0.905428886 -0.0131706996 0.0241046175 -0.0452294536 0.998685777 0.0721034557 0.0538443439 -0.995942712 0.00282770768 0.996597111 -0.0823782086 0.26537472 0.949832618 -0.1655121 0.753115773 0.593540847 -0.283770859 0.962568879 0.268263429 -0.0386766642 -0.052418083 0.996267736 -0.068578057 0.230118707 0.691449821 0.68479383 0.49897331 0.831059635 -0.245693982 0.647251964 0.745581627 -0.158659801 0.87327677 0.432584524 -0.224183589 0.965944886 0.088716507 -0.243063584 -0.0536283962 0.994532883 -0.0896008164 0.735627294 0.0160884336 0.67719543 0.50106746 0.110357791 0.858342886 0.557850122 0.0192469638 0.82971853 -0.115847051 0.992915094 -0.0264401548 -0.0601362176 0.997093022 0.0467883125 -0.10780371 0.993788958 0.0276023243 -0.0646201521 0.993647516 0.0921349227 -0.111041047 0.988661289 -0.10108754 -0.0104654394 0.994739771 0.101898365 0.462185889 0.886693478 -0.0126023889 0.944760501 0.327676445 0.00746868458 -0.731634736 0.161755159 0.662227988 0.0643746629 0.997429788 0.0314603001 0.00557804387 0.996210396 0.0867968947 0.0387236029 -0.99838233 0.0416319966 0.108599387 -0.993511081 -0.0337915383 0.0863815844 -0.965818703 0.2444022 -0.0260729436 -0.873082936 0.486874044 0.182045445 -0.983181655 0.0146030011 0.126138911 -0.988314331 -0.0855792463 0.0500897318 -0.979757309 -0.193821102 0.0224215984 -0.989024222 -0.146042421 0.00353889121 -0.964284062 -0.264846653 -0.00510553876 -0.986702263 -0.162458003 0.0794938281 0.992211938 0.0958969295 0.38057971 0.923454046 0.0489046536 0.941797674 0.00488201343 -0.336144716 0.651353598 0.00854820665 -0.75872618 -0.606351197 -0.794172943 0.0403428935 0.614942074 -0.786616027 -0.0555111058 -0.0376655199 0.0392221995 0.998520374 -0.0391719788 0.00601020642 0.999214411 -0.0401967987 0.0299718846 0.998742163 -0.0245794263 0.0558470562 0.998136759 -0.00980730075 0.0639866292 0.997902572 0.0159652159 0.0325689502 0.999341965 -0.0325496793 -0.0233780965 0.999196649 -0.04310067 -0.0841155201 0.995523453 -0.0331261232 -0.00764938584 0.999421895 -0.0198509172 -0.999733806 0.0117589217 -2.24996757e-06 -0.999527335 -0.0307426751 -0.0308200605 -0.998542368 -0.044308316 -0.0272479858 -0.998752892 -0.0418358184 0.986039162 -0.0095216902 0.166241065 0.979424298 0.0101309316 0.201557547 0.458129287 -0.888635099 0.021100305 0.937277913 -0.348380297 0.0118845068 -0.00546797086 0.00239047012 0.999982178 -0.00114710338 0.000802487542 0.999999046 -0.00114596647 -0.0019040074 0.999997556 -0.000959562429 -0.00147573499 0.99999845 -0.00272149127 -0.0171299633 0.999849558 -0.00191819505 0.000795616594 0.999997854 0.00680988887 -0.00168197963 0.999975383 -0.637416422 0.76992768 0.0301948879 0.66308558 0.745322168 -0.069370985 -0.718606889 0.69510138 -0.0209334455 -0.128023148 -0.986440003 0.102694519 -0.476333708 -0.878655434 0.0327243097 -0.415393084 -0.909402788 -0.020861147 -0.595256209 -0.802110851 -0.0478351973 -0.731884539 -0.680624843 0.0330890082 -0.999660373 -0.00216510589 0.0259696152 -0.999590039 0.0285501797 0.00216552312 -0.99980706 0.00850069057 0.0177078675 -0.998856008 -0.0228709225 0.0419957489 0.0515463464 0.0169483442 0.998526752 0.0603356771 0.0117461961 0.998109043 0.0616489314 -0.0213669911 0.997869134 0.0643050373 -0.0330949873 0.997381389</float_array>
          <technique_common>
            <accessor source="#normals_array" count="178" stride="3">
              <param name="X" type="float" />
              <param name="Y" type="float" />
              <param name="Z" type="float" />
            </accessor>
          </technique_common>
        </source>
        <vertices id="vertices">
          <input semantic="POSITION" source="#positions" />
        </vertices>
        <triangles material="scout_b2b2b2" count="204">
          <input semantic="VERTEX" source="#vertices" offset="0" />
          <input semantic="NORMAL" source="#normals" offset="1" />
          <p>0 0 1 1 2 2 2 2 1 1 3 3 3 3 1 1 4 4 5 5 2 2 3 3 6 6 5 5 7 7 8 8 9 9 10 10 11 11 8 8 10 10 9 12 3 3 4 4 12 13 13 14 14 15 7 7 3 3 8 16 15 17 7 7 8 16 7 7 15 17 16 18 6 6 7 7 16 18 17 19 6 6 16 18 18 20 19 21 20 22 9 12 18 20 10 23 10 23 18 20 20 22 21 24 15 17 8 16 22 25 15 17 21 24 23 26 24 27 25 28 4 4 26 29 18 20 17 19 16 18 27 30 28 31 29 32 26 29 30 33 31 33 32 33 33 34 5 5 6 6 34 35 35 36 36 37 25 38 6 6 17 19 16 18 37 39 27 30 38 40 39 41 0 0 38 40 0 0 40 42 39 41 28 31 1 1 14 15 13 43 38 40 41 44 38 40 40 42 39 41 42 45 28 31 13 43 42 45 39 41 14 15 43 46 12 13 41 44 44 47 14 15 45 48 0 0 5 5 46 49 40 42 45 48 41 44 40 42 46 49 46 49 47 50 41 44 34 51 48 52 49 53 41 44 47 50 44 47 18 20 50 54 19 21 50 54 18 20 26 29 21 24 11 55 51 56 29 32 52 57 26 29 53 58 16 18 22 59 37 39 16 18 53 58 50 54 54 60 19 21 50 54 52 61 54 60 52 61 50 54 26 29 55 62 22 25 56 63 53 58 22 59 55 64 57 65 58 66 37 39 59 67 27 30 37 39 57 68 37 68 53 68 57 65 60 69 58 66 60 69 57 65 61 70 62 71 63 71 64 71 52 57 65 72 54 73 34 35 49 74 35 36 56 63 62 75 55 62 62 76 56 63 63 77 57 78 53 79 55 62 4 4 18 20 9 12 60 69 66 80 58 66 66 80 59 67 58 66 65 72 52 57 67 81 65 72 68 82 54 73 65 72 69 83 68 82 69 83 65 72 67 81 32 84 62 84 30 84 31 85 62 85 32 85 31 86 55 62 62 75 69 83 70 87 68 82 3 3 7 7 5 5 69 83 71 88 70 87 71 89 31 89 70 89 72 90 31 90 71 90 70 91 31 91 30 91 67 81 71 88 69 83 14 15 38 40 41 44 73 92 24 93 74 94 74 95 24 27 23 26 56 63 21 24 51 56 28 31 42 45 29 32 42 45 75 96 29 32 43 46 76 97 12 13 77 98 78 99 43 46 79 100 78 99 61 70 61 70 78 99 60 69 43 46 80 101 76 97 80 102 43 102 79 102 78 99 79 103 43 46 78 99 81 104 82 105 78 99 83 106 60 69 80 101 84 107 76 97 80 108 79 109 61 110 80 101 85 111 84 107 86 112 87 113 88 114 89 115 87 113 86 112 84 107 85 111 89 115 75 116 86 112 88 114 47 50 90 117 44 47 81 104 77 98 90 117 28 31 4 4 1 1 82 105 90 117 91 118 8 119 11 119 21 119 12 13 76 97 86 112 76 97 84 107 89 115 92 120 12 13 86 112 76 97 89 115 86 112 93 121 92 120 86 112 64 122 94 123 30 124 62 125 64 122 30 124 70 126 30 124 94 123 68 127 70 126 94 123 54 128 68 127 95 129 95 129 68 127 94 123 19 130 54 128 95 129 95 129 20 131 19 130 38 40 13 43 39 41 58 66 59 67 37 39 83 106 78 99 82 105 82 105 91 118 83 106 28 31 26 29 4 4 39 41 1 1 0 0 93 121 86 112 75 116 93 121 75 116 42 132 92 120 93 121 42 132 92 120 42 132 13 14 12 13 92 120 13 14 73 92 36 133 24 93 80 108 61 110 57 78 55 62 80 108 57 78 87 134 67 81 88 135 14 15 44 47 43 46 33 34 45 48 5 5 55 62 31 86 80 108 6 6 96 136 33 34 43 46 44 47 77 98 0 0 45 48 40 42 48 52 34 51 97 137 46 138 45 139 49 140 47 141 46 138 49 140 47 141 49 140 48 142 90 143 47 141 48 142 33 144 96 145 24 27 35 146 33 144 24 27 96 145 25 28 24 27 49 140 45 139 33 144 52 57 29 32 75 96 11 147 10 148 64 122 51 149 11 147 64 122 63 150 51 149 64 122 10 148 95 129 64 122 10 148 20 131 95 129 64 122 95 129 94 123 49 140 33 144 35 146 72 151 71 88 85 152 31 86 72 151 85 152 23 153 59 67 98 154 81 104 78 99 77 98 8 16 3 3 9 12 15 17 22 59 16 18 99 155 100 156 36 157 100 156 101 158 36 157 73 159 99 155 36 157 101 158 97 160 36 157 97 160 34 161 36 157 27 30 23 153 25 38 99 162 73 92 74 94 23 153 27 30 59 67 35 163 24 93 36 133 102 164 99 162 74 94 52 57 88 135 67 81 87 113 89 115 85 111 98 154 59 67 66 80 52 57 75 96 88 135 98 154 66 80 83 106 85 152 71 88 87 134 6 6 25 38 96 136 0 0 2 2 5 5 66 80 60 69 83 106 25 38 17 19 27 30 71 88 67 81 87 134 97 165 101 166 48 167 44 47 90 117 77 98 101 166 103 168 48 167 103 168 101 166 100 169 103 170 100 171 99 172 99 172 102 173 103 170 98 154 83 106 91 118 90 117 82 105 81 104 56 63 51 56 63 77 56 63 22 25 21 24 48 142 103 174 90 143 90 143 103 174 91 175 98 176 91 175 103 174 103 174 102 177 98 176 102 177 74 95 98 176 23 26 98 176 74 95 31 86 85 152 80 108</p>
        </triangles>
      </mesh>
    </geometry>
  </library_geometries>
  <library_visual_scenes>
    <visual_scene id="scene">
      <node id="left_shoulder_yaw_link">
        <instance_geometry url="#geometry">
          <bind_material>
            <technique_common>
              <instance_material symbol="scout_b2b2b2" target="#scout_b2b2b2" />
            </technique_common>
          </bind_material>
        </instance_geometry>
      </node>
    </visual_scene>
  </library_visual_scenes>
  <scene>
    <instance_visual_scene url="#scene" />
  </scene>
</COLLADA>