<?xml version='1.0' encoding='utf-8'?>
<COLLADA xmlns="http://www.collada.org/2005/11/COLLADASchema" version="1.4.1">
  <asset>
    <created>2026-09-14T00:00:00Z</created>
    <modified>2026-09-14T00:00:00Z</modified>
    <unit name="metre" meter="1" />
    <up_axis>Z_UP</up_axis>
  </asset>
  <library_effects>
    <effect id="scout_333333_effect">
      <profile_COMMON>
        <technique sid="common">
          <lambert>
            <emission>
              <color>0 0 0 1</color>
            </emission>
            <ambient>
              <color>0.1 0.1 0.1 1</color>
            </ambient>
            <diffuse>
              <color>0.2 0.2 0.2 1</color>
            </diffuse>
          </lambert>
        </technique>
      </profile_COMMON>
    </effect>
  </library_effects>
  <library_materials>
    <material id="scout_333333" name="scout_333333">
      <instance_effect url="#scout_333333_effect" />
    </material>
  </library_materials>
  <library_geometries>
    <geometry id="geometry" name="left_hip_pitch_link">
      <mesh>
        <source id="positions">
          <float_array id="positions_array" count="291">-0.042838376 0.0513627231 0.00369119179 -0.0370925553 0.0829933956 -0.0049049966 -0.0378958657 0.0913114473 -0.023824757 -0.040482223 0.0244688857 -0.00745284883 -0.0343563743 0.0124395769 -0.0448441207 -0.0349251293 0.0146214943 -0.0116401101 -0.0301341861 0.0919575691 -0.0520197786 -0.0285270438 0.084767282 -0.0646252409 -0.0237328466 0.012910434 -0.0553387366 -0.0237210188 0.0212837365 -0.0676418468 -0.0297191925 0.0299155787 -0.0701126084 -0.0167781841 0.000353308016 0.000875725178 -0.0108436961 0.00957932509 0.0106663592 -0.00106026372 0.000234048464 0.0161740221 -0.0289488807 0.0527576655 -0.0754235908 -0.0215470139 0.0487298034 -0.0793576539 -0.0252237394 0.0694185644 -0.0756548792 -0.0142875602 0.013430777 -0.0534085669 -0.0121338051 0.0239601899 -0.0664730668 -0.0200963058 0.0315648764 -0.0730356053 -0.00870855525 0.00324579002 -0.0393229164 -0.0123851337 0.000236777167 -0.0294899233 -0.0144527275 0.0116300909 -0.0273622312 -0.00799951237 0.0910887346 -0.0539955758 -0.00787267461 0.0121193454 -0.0530525409 -0.0103096412 0.0500291437 -0.076595597 -0.00469992915 0.0336448215 -0.0731258765 -0.0122582903 0.0902119651 -0.00427021272 -0.0108516337 0.0972220451 -0.0220048204 -0.0143310158 0.091794394 -0.0122285914 -0.0184167959 0.0728041306 0.00624846481 -0.00518124783 0.0977378935 -0.0488741361 -0.00312168594 0.0144377369 -0.0662061647 -0.00595818367 0.00509082712 -0.0556064285 1.11622439e-05 0.0365990661 -0.0791182294 -0.00463112071 0.0685153827 -0.0736155435 -0.000434077054 0.0690158978 -0.0779639184 -0.00197785394 0.0859853998 -0.0676786304 -0.0370945185 0.0364192612 0.00506673101 -0.0386421643 0.0593844242 0.0072661913 -0.0185948797 0.00630648714 0.0302551463 -0.0211782027 0.0114546819 0.0220676735 -0.0204290356 0.00160611235 0.0256465748 -0.0175445303 0.0578794628 0.0182254296 -0.0147912642 0.0780732408 0.00873808097 3.54421863e-05 0.0058311834 0.032652095 0.0197315719 2.85334227e-05 0.0342541896 0.0257220231 0.000144882913 0.0113227982 0.0207257736 0.00604762742 0.0364962034 0.0269430056 0.0914561227 0.00070702465 0.0257279463 0.0412274599 -0.0150501868 0.0314258896 0.0389429666 -0.0177794695 0.0285258368 0.0370582193 -0.027734004 0.0131349489 0.000205034201 -0.00847691484 0.015246951 0.00327704195 -0.028830586 0.031858325 0.00232851622 -0.0232257973 -0.0260018893 0.000126298895 -0.0144602358 0.0224209074 0.0538359247 0.0265367664 0.0138249192 0.00954466965 0.0062232432 0.013903114 0.000262455666 0.00691051595 0.0393182896 0.0281794686 -0.0688231364 0.0357444026 0.013092055 -0.0584586263 0.0299822316 0.0507629476 -0.00943960808 0.0252346247 0.0570530109 -0.0112806177 0.0339704975 0.0540111996 -0.0401405729 0.0279706307 0.0679266527 -0.0279851444 0.0298419837 0.0440231487 -0.0380448811 0.0312624238 0.06476596 -0.0162050743 0.0357872099 0.00499212742 -0.0478090346 0.0347383283 0.0429673716 -0.0363264568 0.0342175774 0.0659838691 -0.0323399976 0.0348950177 0.0905905142 -0.0556537844 0.0341348499 0.097669594 -0.0402090736 0.0387225188 0.081002295 -0.0647308901 0.0292291101 0.0982931703 -0.0208054371 0.0394876227 0.0678746775 -0.0708205923 0.0382486172 0.049802985 -0.0740001872 -0.0192834157 0.0432979986 0.010924276 -0.0268164817 0.0120749129 -0.0143604865 -0.0150013128 0.0120139355 -0.012257196 -0.017291883 0.0223877616 -5.14160711e-05 -0.00225882954 0.000210238897 -0.0161732007 -0.013850132 0.00965941604 -0.00814237166 0.00923834834 0.00958429277 -0.0132627878 -0.0268682502 0.0124239614 -0.0343869664 -0.0292584226 7.90030117e-06 0.0050413697 0.0323591568 0.0203819945 -0.0224961024 0.0273847301 0.0442167036 0.00577076711 0.0292530525 0.0756088272 -0.00498497812 0.0355313346 0.0808505043 -0.0407336727 0.0237340797 0.0785629302 0.0152907362 0.0379780233 0.0414764062 -0.0543264374 0.0210784506 0.00377133442 -0.0347639583 -0.00566859776 0.00381900952 -0.0327579267 0.0198824052 0.0299300943 0.0318609625 0.00240176939 0.00978019275 0.0147773698 -0.00379277905 0.000197672969 0.0300819911</float_array>
          <technique_common>
            <accessor source="#positions_array" count="97" stride="3">
              <param name="X" type="float" />
              <param name="Y" type="float" />
              <param name="Z" type="float" />
            </accessor>
          </technique_common>
        </source>
        <source id="normals">
          <float_array id="normals_array" count="558">-0.996578038 0.0819705725 -0.010631755 -0.962197006 0.218845397 0.162122384 -0.98880595 0.0758816451 -0.128470704 -0.981367409 -0.148675606 -0.121711195 -0.988019347 -0.0390060991 -0.149319291 -0.867499053 -0.497120023 0.0178075396 -0.938764095 0.233833253 -0.253069222 -0.953512788 0.123699427 -0.274794161 -0.461016417 -0.733402371 -0.499584675 -0.534500539 -0.673480868 -0.510619938 -0.500264645 -0.574120998 -0.648166955 -0.376925617 -0.429653347 -0.820563912 0.667389691 0.295923322 -0.683388948 -0.791221976 0.00916448794 -0.611460328 -0.113266364 -0.108742997 -0.987595916 -0.375086784 0.350429088 -0.858201265 -0.0177206099 -0.932762027 -0.360056937 0.0616911054 -0.947969735 -0.312326133 0.152680233 -0.666241288 -0.729939282 0.833915412 -0.456623077 -0.309968531 0.0384151377 -0.421035677 -0.906230211 -0.93578881 -0.226636007 -0.270065576 -0.851786315 -0.0573290028 -0.520743132 -0.838469386 -0.0919240117 -0.537139654 0.00532093411 0.976830721 -0.213947371 0.0851000473 0.909906566 -0.405990154 0.0899460986 0.735858023 -0.671135306 -0.940669298 -0.187368602 -0.282903403 -0.0298406519 -0.754207253 -0.655957997 -0.373787344 -0.312885791 -0.873146892 -0.457350314 0.760791063 0.460464537 -0.0821523517 0.975877106 0.202274352 -0.567684948 0.766533792 0.300266087 -0.863964081 0.345777541 0.366065443 -0.809502006 0.532905161 -0.246411458 -0.720247865 0.553806841 -0.417781055 -0.92573899 0.347504348 -0.149157703 -0.931536794 0.332684785 -0.14683336 -0.896409929 -0.200298846 -0.395385355 -0.949272871 -0.160265163 -0.270547807 -0.74733603 -0.194773912 -0.635257423 0.270776242 -0.677574396 -0.683793247 -0.765432894 -0.075628683 -0.639056146 0.362813532 -0.0601066016 -0.929921269 0.190528274 0.383424431 -0.903706074 0.497904062 -0.0131591372 -0.867132246 -0.726092398 0.141730234 -0.672831655 -0.736525834 0.17437683 -0.653545976 -0.798657298 0.334670544 -0.500142157 -0.495822459 -0.35895279 0.790767372 -0.583781481 -0.150956765 0.79775387 -0.558379352 -0.519392729 0.646872282 -0.241051883 0.136811301 0.960820794 -0.245412454 -0.832574964 0.496580005 -0.869323075 0.270357639 0.413744032 -0.130772084 0.463090688 0.876610339 -0.176008716 0.723544836 0.66746074 -0.938239813 0.0685361624 0.339129537 -0.967188776 0.101663612 0.23283124 -0.931168497 0.0598586127 0.35964179 -0.967322171 0.117039196 0.224921331 -0.842642307 0.42141977 0.335200489 -0.169052422 -0.0991011485 0.980612159 -0.1112222 -0.673289061 0.730966151 -0.151383713 -0.586301088 0.795822859 0.938156128 -0.245783702 0.243830889 0.980435967 -0.0340655856 0.19386813 0.969658315 -0.100622833 0.222795531 -0.0816969201 0.868688822 0.488574773 -0.136896372 0.597062886 0.790427268 0.254285634 0.934011102 -0.250922501 0.0774996355 -0.994484365 -0.0706730112 0.00645521004 -0.992587686 -0.121359035 0.0112634329 -0.994893909 -0.100295708 -0.892996132 -0.0502985753 -0.447244912 -0.155544832 0.316682994 0.935690999 -0.164235085 0.335895568 0.927470207 -0.158490032 0.194574758 0.967998743 -0.56976223 0.033304628 -0.821134448 -0.549634933 -0.0139996884 -0.835287631 -0.525089979 -0.0672395751 -0.848386288 0.112362832 -0.653771102 -0.748303413 0.164253131 -0.420001715 -0.892535448 0.124759048 -0.694511056 -0.708582759 -0.168060392 0.554528117 -0.815017939 0.57885021 0.205978036 -0.7889902 0.727213919 -0.246161118 0.64075321 0.872529328 -0.186551332 0.451543063 0.956816792 -0.0458955728 0.287045658 -0.200145006 -0.411332667 -0.889239788 0.609690368 -0.706242204 -0.35986045 -0.103521436 0.98006922 0.169551313 -0.0761501342 0.932012916 0.354334712 0.844958365 -0.424051046 -0.325923413 -0.653325379 0.755599976 0.0472713821 -0.0170266945 0.829545796 0.558179021 -0.257863224 0.299335778 0.918642819 0.3791641 -0.510608554 0.771695197 0.832240045 0.518373787 -0.196634635 0.980968177 0.13063553 0.143651679 0.992665112 0.0598750003 0.105028488 0.900689542 0.377196342 0.215595111 0.972477376 0.0778358802 0.219611734 0.996111572 0.00738517521 0.0877905115 0.995118141 -0.0240948815 0.0957046449 0.961764693 -0.0178548414 -0.273294508 -0.152898178 -0.177854508 0.97210592 0.00219005556 0.999858379 0.0166847464 -0.920931458 0.0402848646 -0.38763687 0.101860017 0.704253018 -0.702603877 0.151342064 0.56768018 -0.809218645 0.139611602 0.297261775 -0.944533765 -0.984388053 -0.0059753065 -0.175910279 -0.984128594 -0.00875847787 -0.177240357 -0.987182975 0.00290132873 -0.159566134 -0.985471308 -4.56047055e-05 -0.169841871 0.711638868 0.36045599 0.603027046 -0.050330963 -0.998214841 -0.0321547352 -0.196147278 -0.97815311 -0.0688674226 0.177018031 -0.0214269347 -0.983974338 0.13609457 -0.254825711 -0.957362056 0.109186411 0.818716109 -0.563721776 0.0290079731 0.96540761 -0.259126693 -0.935548425 -0.276596218 0.219644532 -0.963051975 -0.204563811 0.175170153 -0.988473475 -0.102435686 0.111476943 -0.998744249 -0.00472076191 0.0498765297 0.186845183 -0.492986172 0.849737346 -0.149904445 -0.631596208 0.760667384 -0.0831059217 -0.781367958 0.618512392 -0.0694448873 -0.997563958 0.00659958087 -0.950706422 0.280618191 0.131949753 0.985775113 -0.0180126969 0.167101651 0.979486346 0.00933260657 0.201294333 0.97508508 0.0378669389 0.218575224 0.98708117 0.0366053022 0.155983388 0.975212157 0.0299557671 0.219234809 0.985921264 -0.0339685082 0.163723588 0.971006274 0.0377805978 0.236049563 0.988758147 -0.0228112191 0.14777337 0.989394307 -0.00342783751 0.145214021 -0.136514053 0.604996026 0.784438431 -0.38102746 -0.914087951 -0.13878496 0.894968748 -0.421958745 -0.144850865 0.0159248151 -0.999814391 -0.0108435433 0.056808982 -0.998250544 -0.0163872335 -0.032445509 -0.999461412 0.00492212595 -0.00348909781 -0.995770752 -0.0918065384 0.201089948 -0.968344986 -0.147887975 0.0611768886 -0.991143644 -0.117862821 -0.431582898 0.261264265 0.863410175 0.00119916024 0.206045672 0.978541613 -0.018415235 0.991334438 0.130065128 0.0545141101 -0.936642349 -0.346019298 0.0724782795 -0.928486407 -0.364225 -0.59514147 0.0991602018 -0.797479749 -0.172088638 -0.951165318 0.256261706 0.176425189 0.29638201 -0.938632965 0.0495613851 0.974870086 -0.217191234 0.983885705 0.0431734771 0.17350775 0.972707927 0.00123060483 0.232029647 0.992528439 -0.0197268575 0.1204082 0.984730184 0.0026798232 0.174066797 0.986159921 -0.00439849216 0.165738404 0.986404419 0.00788527355 0.164146587 -0.0424642451 -0.999037921 -0.0109559288 -0.564214349 -0.811607659 -0.151509732 0.0100933667 -0.999630451 0.0252397638 -0.0354571119 -0.999004483 0.0270709824 0.0384990722 -0.998728991 0.032530088 0.0103127919 -0.999940813 0.00346502615 0.233432129 -0.962864459 -0.135652184 0.33346045 -0.939984858 -0.0723363981 0.291016847 -0.241000265 -0.925866127 -0.00637905067 -0.999974906 0.00307452492 0.0173441991 -0.999824882 -0.00702965818 0.000196718509 -0.999999166 0.00129491312 -0.00249889516 -0.999972105 0.00704126805 -0.00352085358 -0.999993086 -0.00120475108 -0.00768908206 -0.999947131 0.00682560122 -0.172861025 -0.0501723923 0.983667552 -0.169582233 -0.318083078 0.932772756 -0.238107115 -0.264538854 0.934518158 0.983682096 0.0191480406 0.178893387 0.981256664 0.010789712 0.192403138 0.98751539 -0.00670369249 0.157379672</float_array>
          <technique_common>
            <accessor source="#normals_array" count="186" stride="3">
              <param name="X" type="float" />
              <param name="Y" type="float" />
              <param name="Z" type="float" />
            </accessor>
          </technique_common>
        </source>
        <vertices id="vertices">
          <input semantic="POSITION" source="#positions" />
        </vertices>
        <triangles material="scout_333333" count="190">
          <input semantic="VERTEX" source="#vertices" offset="0" />
          <input semantic="NORMAL" source="#normals" offset="1" />
          <p>0 0 1 1 2 2 3 3 4 4 5 5 2 2 6 6 7 7 8 8 4 9 9 10 10 11 9 10 4 9 11 12 12 12 13 12 14 13 15 14 10 11 16 15 15 14 14 13 7 7 16 15 14 13 17 16 8 17 18 18 19 19 8 19 9 19 10 11 19 20 9 10 15 14 19 20 10 11 20 21 21 22 22 23 6 24 23 25 7 26 22 23 24 27 20 21 24 28 17 16 18 18 25 29 26 29 18 29 27 30 28 31 29 32 27 30 29 32 30 33 31 34 23 35 28 36 28 36 23 35 29 37 24 27 32 38 33 39 24 27 26 40 32 38 24 28 18 18 26 41 26 40 34 42 32 38 25 43 35 44 26 45 36 46 34 42 26 40 35 47 36 46 26 40 35 47 37 48 36 46 23 35 37 48 35 47 31 34 37 48 23 35 38 49 0 50 3 51 39 52 0 50 38 49 38 49 3 51 5 53 39 54 1 1 0 0 30 55 1 56 39 52 40 57 41 58 42 59 40 57 43 60 41 58 43 60 30 33 41 58 44 61 30 33 43 60 45 62 40 63 42 64 46 65 47 66 48 67 27 30 30 33 44 61 49 68 27 30 44 69 50 70 51 70 52 70 53 71 54 72 55 73 22 23 21 22 56 74 57 75 43 76 40 77 13 78 58 79 59 80 25 43 19 20 15 14 32 81 60 82 61 83 50 84 62 84 51 84 63 85 62 85 50 85 64 86 65 87 66 88 63 89 67 89 62 89 65 90 67 90 63 90 2 91 1 56 29 92 61 93 60 93 68 93 52 94 51 94 69 94 52 95 69 95 66 95 64 96 66 96 69 96 65 87 64 86 70 97 71 98 72 99 73 100 74 101 49 102 72 99 75 103 60 104 76 105 39 52 77 106 30 55 78 107 41 107 79 107 78 108 22 23 56 74 37 109 73 110 36 111 27 30 49 68 28 31 41 58 80 112 79 113 77 114 80 112 41 58 30 33 77 114 41 58 14 13 2 2 7 7 2 2 14 13 10 115 2 2 10 115 0 0 10 115 4 4 3 3 10 115 3 3 0 0 81 116 82 116 11 116 22 117 17 16 24 118 36 111 76 119 34 120 71 121 37 109 31 122 83 123 53 124 58 125 53 124 59 126 58 125 35 44 7 26 23 25 34 120 76 119 60 82 83 127 82 127 81 127 80 128 5 53 79 129 8 17 17 16 22 117 84 130 8 17 22 117 85 131 42 59 41 58 77 106 38 49 80 128 86 132 87 133 47 66 87 133 88 134 49 102 88 134 89 135 49 102 48 67 87 133 57 136 89 135 72 99 49 102 47 66 55 137 86 132 48 67 47 66 87 133 57 136 87 133 90 138 87 133 49 102 90 138 89 135 73 100 72 99 86 132 68 139 60 104 91 140 86 132 60 104 89 135 91 140 75 103 91 140 60 104 75 103 73 100 89 135 75 103 49 68 44 69 90 141 70 142 67 142 65 142 86 132 55 137 68 139 11 143 82 143 12 143 55 73 46 144 59 145 55 73 59 145 53 71 46 144 13 146 59 145 92 147 55 73 54 72 93 148 54 72 81 149 81 149 54 72 53 71 53 150 83 150 81 150 33 39 20 21 24 27 94 151 57 75 40 77 34 120 60 82 32 81 25 43 18 18 19 20 28 31 74 152 31 122 25 43 15 14 35 44 68 153 33 154 61 83 74 152 28 31 49 68 35 44 15 14 16 15 13 78 95 155 58 79 79 129 5 53 78 156 32 81 61 83 33 154 30 55 29 92 1 56 18 18 8 17 19 20 56 74 85 131 78 108 76 119 36 111 75 157 71 121 73 110 37 109 44 69 43 76 90 141 72 158 31 122 74 152 69 159 86 132 91 140 64 160 69 159 91 140 64 160 91 140 89 135 64 160 89 135 70 161 67 162 70 161 89 135 67 162 89 135 88 134 62 163 67 162 87 133 88 134 87 133 67 162 51 164 62 163 86 132 62 163 87 133 86 132 86 132 69 159 51 164 96 165 13 146 46 144 46 166 55 166 47 166 11 167 13 146 42 168 13 146 96 165 42 168 11 167 42 168 85 169 11 167 85 169 56 170 81 149 11 167 56 170 93 148 81 149 21 171 20 172 93 148 21 171 21 171 81 149 56 170 77 106 39 52 38 49 73 110 75 157 36 111 5 53 80 128 38 49 12 173 95 173 13 173 55 73 92 147 68 153 68 153 92 147 33 154 33 154 92 147 54 72 33 154 54 72 93 148 33 154 93 148 20 172 85 131 41 58 78 108 22 117 78 156 84 130 78 156 5 53 84 130 84 130 5 53 4 174 8 17 84 130 4 174 31 122 72 158 71 121 16 15 7 26 35 44 12 175 82 176 95 177 82 176 83 178 58 179 82 176 58 179 95 177 29 92 23 25 6 24 29 92 6 24 2 91 48 180 45 62 46 181 96 182 46 181 45 62 45 62 42 64 96 182 94 151 40 77 45 62 48 180 94 151 45 62 57 75 90 141 43 76 94 151 48 180 57 75 66 88 65 87 52 183 52 183 65 87 50 184 63 185 50 184 65 87</p>
        </triangles>
      </mesh>
    </geometry>
  </library_geometries>
  <library_visual_scenes>
    <visual_scene id="scene">
      <node id="left_hip_pitch_link">
        <instance_geometry url="#geometry">
          <bind_material>
            <technique_common>
              <instance_material symbol="scout_333333" target="#scout_333333" />
            </technique_common>
          </bind_material>
        </instance_geometry>
      </node>
    </visual_scene>
  </library_visual_scenes>
  <scene>
    <instance_visual_scene url="#scene" />
  </scene>
</COLLADA>