<?xml version='1.0' encoding='utf-8'?>
<COLLADA xmlns="http://www.collada.org/2005/11/COLLADASchema" version="1.4.1">
  <asset>
    <created>2026-09-14T00:00:00Z</created>
    <modified>2026-09-14T00:00:00Z</modified>
    <unit name="metre" meter="1" />
    <up_axis>Z_UP</up_axis>
  </asset>
  <library_effects>
    <effect id="scout_b2b2b2_effect">
      <profile_COMMON>
        <technique sid="common">
          <lambert>
            <emission>
              <color>0 0 0 1</color>
            </emission>
            <ambient>
              <color>0.35 0.35 0.35 1</color>
            </ambient>
            <diffuse>
              <color>0.7 0.7 0.7 1</color>
            </diffuse>
          </lambert>
        </technique>
      </profile_COMMON>
    </effect>
  </library_effects>
  <library_materials>
    <material id="scout_b2b2b2" name="scout_b2b2b2">
      <instance_effect url="#scout_b2b2b2_effect" />
    </material>
  </library_materials>
  <library_geometries>
    <geometry id="geometry" name="left_hand_thumb_2_link">
      <mesh>
        <source id="positions">
          <float_array id="positions_array" count="138">-0.00690325489 -0.0336822905 -0.0114754159 0.000468418206 -0.0428967811 -0.0101187155 -0.0057355077 -0.0460149944 -0.00909962691 -0.00782238971 -0.0197196007 -0.00925180689 -0.00670021679 -0.0203438662 -0.0124328798 -0.00890490506 -0.00937273726 8.11935315e-05 -0.00584101398 -0.0103108529 -0.00956779998 0.00271762954 -0.0491684638 -0.00374247623 -0.000298106257 -0.0511720628 0.00499867089 -0.00400008028 -0.0515846536 -0.00634302013 0.00361312088 -0.0204708967 -0.0114393318 -0.00432843575 0.00396091817 -0.0130041623 -0.00517554767 0.00207863678 -0.00984990131 -0.00811786205 -0.0246941987 0.0091028465 -0.00903977826 -0.0223079547 -0.00252859597 -0.00669701817 -0.0103285238 0.00974175613 -0.00679915398 -0.0382643975 0.010782456 -0.00436752522 -0.051059112 0.00736645609 -0.00143932865 -0.0436589606 0.0100910263 -0.00060414389 -0.0204297937 0.0121998414 -0.00678061787 -0.0205216631 0.0123902503 0.00218977709 -0.0325741954 0.0111430958 -0.00434717955 -0.0139383385 -0.00966906175 -0.00422601216 -0.013928283 0.00971740391 0.00415627146 -0.0438504592 -0.00707218982 0.00616084319 -0.0315435827 -0.00890327897 0.00694403378 -0.0368923806 -0.00441705668 0.00845133979 -0.0218222402 -0.00579001848 0.00632303348 -0.015891917 -0.00969153177 0.0042078672 0.00426629232 -0.0129421623 0.00523592392 0.00180230697 -0.00984123349 0.00806590077 -0.0304773096 0.00438756682 0.00723976502 -0.0198497418 -0.00928044412 0.00778702507 -0.0204159971 0.00822413806 0.00468909228 -0.0442916304 0.00591029041 0.00443565147 -0.0399060622 0.00882041361 0.00633064751 -0.0204562861 0.0102585517 0.00675225258 -0.0197514556 0.0128317224 0.000317194994 0.00592720043 -0.00975227542 0.00468317932 0.00616628816 0.00996908639 0.00575611135 0.00459359447 0.0128418375 -0.00607417477 -0.0133564407 -0.0129504129 0.00638634618 -0.0161647126 0.00969165657 0.00726901274 -0.0183958113 -0.0129931476 -0.00582869444 0.00434646336 0.00998859201 -0.00466666091 0.00618938729 0.0128690246</float_array>
          <technique_common>
            <accessor source="#positions_array" count="46" stride="3">
              <param name="X" type="float" />
              <param name="Y" type="float" />
              <param name="Z" type="float" />
            </accessor>
          </technique_common>
        </source>
        <source id="normals">
          <float_array id="normals_array" count="309">0.0640068725 -0.0955619439 -0.9933635 0.289789379 -0.307865173 -0.906223595 0.0146289133 -0.336793154 -0.94146502 -0.958767653 0.0713391379 -0.275091559 -0.948464274 0.0710953623 -0.308805645 -0.987382591 -0.090864636 -0.129689023 -0.996376276 0.0832170919 -0.017584905 -0.979537129 0.131848365 -0.152062595 0.746789575 -0.664438963 -0.0287433546 0.371550053 -0.926792622 0.0548274107 0.26947996 -0.961547494 -0.0529803373 0.309845924 -0.508508146 -0.803377271 0.325044423 -0.0802300498 -0.942289352 0.0947507322 -0.0727108866 -0.992842078 -0.980776727 0.0591748133 -0.185944483 -0.971369982 0.0468713678 -0.23290208 -0.971594632 -0.0252899211 0.23529619 -0.997828305 -0.0366447791 -0.054734543 -0.965871274 0.0764250457 0.247491241 -0.98893249 -0.13901715 0.0518337302 -0.980792284 -0.19459787 -0.0133497547 -0.976796269 -0.213592902 0.0157202892 0.17388548 -0.325176954 0.929528773 -0.0155182611 -0.134706184 0.990764081 -0.163261101 -0.283334792 0.945022345 0.130919203 -0.0603492893 0.989554524 0.0320285261 -0.0902341604 0.995405436 0.27139765 -0.105630204 0.956653297 -0.949498117 0.0573296361 0.308490902 0.912658095 0.407243967 0.0347498469 0.839453161 0.543431699 0.000561182096 0.824421585 0.565950036 -0.00544621004 0.338023901 0.941004097 0.0158459619 0.457758963 -0.547785759 -0.700276732 0.757282734 -0.39405933 -0.520807147 0.739003301 -0.137508109 -0.659519196 0.960800529 -0.214982703 -0.175056592 0.976472795 0.166227743 -0.137365207 0.978856385 0.185475945 0.0862488896 0.978328288 0.0713070557 -0.194394246 0.960253417 0.0566842929 -0.273313582 0.971602201 -0.119139731 0.204437971 0.519560337 -0.0753876492 -0.851101518 0.969093263 0.0614414923 0.238920778 0.961159647 0.275307328 0.0194433331 0.466627181 -0.462212592 0.754068017 0.45513761 -0.445887983 0.7707358 0.44578895 -0.427337676 0.786546111 0.927360952 -0.356595695 0.113319166 0.666432977 -0.252985835 0.701331019 0.61326164 -0.112842359 0.781777918 0.121107116 -0.959375679 0.254816264 0.0337475576 -0.85225898 0.522030413 0.217716187 -0.949840844 0.224504039 0.310061932 -0.9286654 0.203573465 0.0111399777 0.00211143191 0.999935746 0.004476164 0.00488111749 0.999978065 0.00579498103 0.00203690119 0.999981105 -0.0032486862 -0.0292408913 0.999567091 -0.000576691236 0.00963519141 0.999953389 -0.00145035167 -0.0232898407 0.999727726 -0.952662826 -0.303711295 -0.0138909398 0.984151483 0.0484208874 0.170591041 0.950059056 0.129568577 -0.283901036 0.962450922 0.122850567 -0.242065996 0.97613579 0.0398523621 0.213473022 -0.995694339 0.0916512236 -0.0138871223 0.949909806 0.312521487 0.00129563897 0.00714782393 0.00321524939 -0.999969304 -0.00995361246 -0.0231636502 -0.999682128 0.00329373963 0.00121597014 -0.999993861 -0.0149559863 -0.031125037 -0.999403596 -0.0300650802 -0.0711513534 -0.997012317 0.602178395 0.710202515 0.364682853 0.972808361 0.186578736 0.137230679 0.924279332 0.379473746 0.0413210727 0.921949804 -0.0971554741 -0.374925792 0.206221789 0.978417635 0.0130964192 0.188588873 0.982051075 0.0031451527 0.19776012 0.980215192 0.00831556227 0.18008998 0.983648777 -0.00163572445 -0.548364222 0.774645269 0.314994276 -0.0276649483 0.872411251 -0.487989008 -0.14964734 0.859164059 -0.489328891 0.0632793605 -0.667218685 -0.742169082 0.268844336 -0.834195197 -0.481498748 0.147697538 -0.746243298 -0.64908123 -0.00553355552 -0.999256432 0.0381571651 0.351284236 -0.872739792 -0.339005321 -0.942773402 0.0535769798 0.329101503 -0.936846316 0.0496103391 0.346204937 -0.00013404488 -0.0179107059 0.999839604 -0.0238458328 -0.00607207604 0.999697208 -0.00938665774 -0.0132926377 0.999867618 -0.0325056575 -0.00174531899 0.999470055 0.0294142403 -0.833265603 0.55208987 -0.794697285 -0.0530986115 -0.604679048 -0.00188701402 0.0146780675 -0.999890506 0.000195055312 0.012437446 -0.999922633 0.00229385006 0.0115070296 -0.999931157 0.00292085414 0.011765738 -0.999926507 -0.00481615728 0.0171024911 -0.999842167 0.137332991 0.889554799 0.435696989</float_array>
          <technique_common>
            <accessor source="#normals_array" count="103" stride="3">
              <param name="X" type="float" />
              <param name="Y" type="float" />
              <param name="Z" type="float" />
            </accessor>
          </technique_common>
        </source>
        <vertices id="vertices">
          <input semantic="POSITION" source="#positions" />
        </vertices>
        <triangles material="scout_b2b2b2" count="88">
          <input semantic="VERTEX" source="#vertices" offset="0" />
          <input semantic="NORMAL" source="#normals" offset="1" />
          <p>0 0 1 1 2 2 3 3 4 4 0 5 5 6 6 7 3 3 7 8 8 9 9 10 1 1 9 11 2 2 0 0 10 12 1 1 4 13 10 12 0 0 11 14 6 7 12 15 13 16 5 6 14 17 13 16 15 18 5 6 16 19 13 16 14 17 16 19 2 20 17 21 18 22 16 23 17 24 19 25 20 26 16 23 21 27 19 25 16 23 15 18 13 16 20 28 22 29 15 30 23 31 5 32 15 32 6 32 21 27 16 23 18 22 9 11 1 1 7 33 24 34 7 33 1 1 10 12 25 35 1 1 24 34 26 36 7 8 25 35 24 34 1 1 25 35 26 36 24 34 25 35 27 37 26 36 28 38 29 39 30 40 27 37 31 41 26 36 32 42 25 35 10 12 31 41 27 37 33 43 32 44 33 43 27 37 34 45 17 46 8 47 7 8 34 48 8 9 35 49 18 22 17 46 34 45 35 49 17 46 21 27 18 22 35 49 19 25 21 27 36 50 37 51 19 52 36 53 26 36 34 48 7 8 34 48 31 41 35 49 36 50 21 27 35 49 31 41 36 50 35 49 31 41 33 43 36 50 33 54 37 51 36 53 16 19 14 17 2 20 2 20 14 17 0 5 3 3 14 17 5 6 34 48 26 36 31 41 28 55 30 56 6 57 22 58 28 55 6 57 6 57 30 56 12 59 12 59 30 56 38 60 14 17 3 3 0 5 2 20 9 61 17 21 33 62 39 63 40 64 40 64 37 65 33 62 11 14 41 66 6 7 33 43 32 44 28 38 28 38 42 67 33 43 29 68 43 69 11 70 41 71 11 70 43 69 41 71 43 69 4 72 20 28 13 16 16 19 29 73 38 73 30 73 43 74 28 38 32 44 22 29 6 75 15 30 25 35 32 76 27 37 42 77 28 78 23 79 28 78 22 80 23 79 11 81 12 81 38 81 29 82 11 82 38 82 39 83 44 83 45 83 4 84 43 85 10 86 17 87 9 10 8 9 28 38 43 74 29 39 43 85 32 88 10 86 20 28 45 89 15 18 45 89 44 90 15 18 45 91 20 92 40 93 20 92 37 94 40 93 20 95 19 52 37 51 39 96 33 96 42 96 39 97 42 98 23 99 39 97 23 99 15 100 44 101 39 97 15 100 39 102 45 102 40 102 41 66 4 4 6 7 4 4 3 3 6 7</p>
        </triangles>
      </mesh>
    </geometry>
  </library_geometries>
  <library_visual_scenes>
    <visual_scene id="scene">
      <node id="left_hand_thumb_2_link">
        <instance_geometry url="#geometry">
          <bind_material>
            <technique_common>
              <instance_material symbol="scout_b2b2b2" target="#scout_b2b2b2" />
            </technique_common>
          </bind_material>
        </instance_geometry>
      </node>
    </visual_scene>
  </library_visual_scenes>
  <scene>
    <instance_visual_scene url="#scene" />
  </scene>
</COLLADA>