<?xml version='1.0' encoding='utf-8'?>
<COLLADA xmlns="http://www.collada.org/2005/11/COLLADASchema" version="1.4.1">
  <asset>
    <created>2026-09-14T00:00:00Z</created>
    <modified>2026-09-14T00:00:00Z</modified>
    <unit name="metre" meter="1" />
    <up_axis>Z_UP</up_axis>
  </asset>
  <library_effects>
    <effect id="scout_b2b2b2_effect">
      <profile_COMMON>
        <technique sid="common">
          <lambert>
            <emission>
              <color>0 0 0 1</color>
            </emission>
            <ambient>
              <color>0.35 0.35 0.35 1</color>
            </ambient>
            <diffuse>
              <color>0.7 0.7 0.7 1</color>
            </diffuse>
          </lambert>
        </technique>
      </profile_COMMON>
    </effect>
  </library_effects>
  <library_materials>
    <material id="scout_b2b2b2" name="scout_b2b2b2">
      <instance_effect url="#scout_b2b2b2_effect" />
    </material>
  </library_materials>
  <library_geometries>
    <geometry id="geometry" name="left_hip_yaw_link">
      <mesh>
        <source id="positions">
          <float_array id="positions_array" count="396">-0.113273866 -0.0278753601 -0.197647527 -0.101021744 -0.0344908349 -0.216090783 -0.120107904 -0.0346950442 -0.187537864 -0.113119081 -0.0364859663 -0.170669243 -0.106487341 -0.0444613956 -0.169484824 -0.113552317 -0.0447993129 -0.167029008 -0.0994258001 -0.0367659591 -0.164302811 -0.108852066 -0.0364617258 -0.155261368 -0.0973906443 -0.0446596965 -0.145451844 -0.118775629 -0.0277318414 -0.168797135 -0.113712922 -0.0180844665 -0.198597863 -0.118792377 -0.0182802901 -0.170129672 -0.121442139 -0.0339477398 -0.162252083 -0.105540603 -0.0235977154 -0.148118675 -0.10775955 -0.0330079161 -0.143167213 -0.0866482034 -0.0181929432 -0.136311546 -0.0873354003 -0.036361292 -0.18240577 -0.0933695659 -0.0447503887 -0.172814652 -0.0833660215 -0.0442777611 -0.188650548 -0.0910008326 -0.035562709 -0.135478422 -0.0911784917 -0.029950276 -0.135997161 -0.0836248696 -0.0371669456 -0.139867306 -0.0963461101 -0.0179351885 -0.213819072 -0.122783802 -0.0170168318 -0.200749353 -0.0972304121 -0.0172215663 -0.22267881 -0.0979248807 -0.0279964637 -0.212614998 -0.0873747095 -0.0363817327 -0.211406752 -0.0623298064 -0.0367351994 -0.211674348 -0.0872612 -0.0442481153 -0.211637452 -0.0747145489 -0.0378568284 -0.201527491 -0.0786814764 -0.0450941138 -0.200795293 -0.0593192019 -0.0452877395 -0.144966125 -0.0675524995 -0.0357134305 -0.134257153 -0.0761547014 -0.0280841161 -0.217938527 -0.0868278667 -0.0340850987 -0.221430972 -0.0619705096 -0.0451249853 -0.210258991 -0.0501864292 -0.0361725353 -0.150373101 -0.062744841 -0.0341945589 -0.219589129 -0.0710129961 -0.0182521343 -0.218009323 -0.0510970615 -0.0281216055 -0.20739691 -0.062558651 -0.0292983968 -0.138820678 -0.0447362401 -0.0452336706 -0.191570774 -0.0449251831 -0.0378816836 -0.192418292 -0.0368891172 -0.0358461179 -0.189224675 -0.0418544896 -0.0374285541 -0.169080094 -0.0435961224 -0.0452078171 -0.166691527 -0.0540224314 -0.0351459049 -0.141868249 -0.043117594 -0.0358973593 -0.14898999 -0.045481801 -0.0266467482 -0.149282768 -0.0434602201 -0.0186091457 -0.199583843 -0.0674099773 -0.0170126278 -0.225841433 -0.0469403528 -0.0169703141 -0.213855624 -0.0447602943 -0.0342904367 -0.207289547 -0.0395535454 -0.0264972653 -0.161067918 -0.054635942 -0.0182281416 -0.142511129 -0.0461833104 -0.0341776088 -0.118833467 -0.0469074473 -0.0182683058 -0.111208245 -0.057380069 -0.0170043577 -0.125972509 -0.0519929081 -0.0250876825 -0.0633749887 -0.0516693294 -0.00976401288 -0.00116347009 -0.0551064163 0.00914029405 -0.0582733713 -0.0400704145 -0.0368697718 -0.000789826212 -0.020022966 -0.0429094397 -0.00138614036 0.01737931 -0.022597149 -0.000108640001 -0.0469824076 -0.0171063561 -0.0839229748 -0.045533251 -0.032147456 -0.089105688 -0.032342013 -0.0179368388 -0.198650956 -0.0239155069 -0.000444723788 -0.191320911 -0.0472597145 0.00918992702 -0.111040369 -0.0482446477 -0.027217228 -0.00108887558 -0.035385631 -0.0317136087 -0.189512476 -0.0379228964 -0.0351610929 -0.162879989 -0.0256368797 -0.0311330445 -0.174517199 -0.0124200657 -0.0352517404 -0.108114801 -0.0458477922 0.016293373 -0.213263571 -0.0324796289 0.0161580686 -0.199389786 -0.0255146604 -0.0366035141 -0.0778788775 -0.0299453512 0.0358202271 -0.0702727735 -0.00545625761 0.0355293788 -0.0895321891 -0.0429691039 0.034851104 -0.153147951 -0.012701082 -0.0188190956 -0.172674567 0.012221856 -0.024097519 -0.126802474 0.0300173238 -0.0423989184 -0.00111144269 0.0434983037 -0.0358529501 -0.00249112421 0.0515796058 -0.019789625 -0.00108603586 -0.113905653 0.0166735519 -0.149323508 -0.121823855 0.0167252496 -0.188103154 -0.125319183 0.010591927 -0.163381875 -0.124018162 0.0113035608 -0.195591182 -0.0944242254 0.0161863249 -0.223298013 -0.109118864 0.00990245026 -0.215259194 -0.109769143 0.010924763 -0.139089733 -0.087299265 0.0101865064 -0.128801361 -0.0869225636 0.016043162 -0.134123161 0.0276284385 -0.0352432877 -0.0582533032 -0.0699200258 0.0164114404 -0.226048231 -0.0582045764 0.00983940158 -0.126069814 -0.0500434935 0.0163730308 -0.128876835 -0.0417677201 0.0185399093 -0.117016494 -0.0479496643 0.0135586821 -0.0807074457 -0.0417684019 0.0336708799 -0.108786836 -0.0473379344 0.0289457031 -0.000985240797 -0.0512755997 0.0148831308 -0.00211923593 -0.0475066975 0.0295631476 -0.0785050616 -0.0384595655 0.0175924283 -0.195673481 -0.035546124 0.0283893831 -0.192286029 -0.0365908444 0.0340651684 -0.170427904 -0.037765529 0.0174785443 -0.167752296 -0.0443139039 0.0160851981 -0.156857118 0.0122914668 0.00462386338 -0.132696927 -0.0321506113 0.0406781733 -0.00105546357 -0.0123280575 0.0194561202 -0.171531916 -0.0013918922 0.0432460383 -0.00125684543 0.00192867452 0.0229319856 -0.145303026 0.00580965914 0.0317357928 -0.115783021 0.0286827572 -0.0243054219 -0.0882837772 0.0416679867 -0.0250671152 -0.0443924703 0.0367166661 -0.00857483223 -0.0704548433 0.017055247 0.0238129552 -0.115155205 0.0303227864 0.0256183837 -0.0823152512 0.0316185839 0.0349212103 -0.0441103056 0.0274353903 0.0418693647 -0.00168636197 0.0375439599 0.0269614048 -0.0547856912 0.0460213982 0.0147491843 -0.033153262 0.0505811088 0.0249838755 -0.00128723145 0.0402863286 0.0378627144 -0.000802814611 -0.123088978 -0.0171031225 -0.154390544 -0.0933393836 -0.0170685351 -0.12977609 0.0095584197 0.0255358852 0.000199039816 -0.0253637452 -0.0110917753 -2.3631017e-05 -0.0565715581 0.0170680527 -0.195356891 -0.101318352 0.0176687464 -0.192679495</float_array>
          <technique_common>
            <accessor source="#positions_array" count="132" stride="3">
              <param name="X" type="float" />
              <param name="Y" type="float" />
              <param name="Z" type="float" />
            </accessor>
          </technique_common>
        </source>
        <source id="normals">
          <float_array id="normals_array" count="801">-0.831360221 0.00939410087 -0.555654526 -0.288964808 -0.371321499 -0.882394314 0.415411174 0.214130789 -0.884070992 -0.950631261 0.164705575 0.26300627 -0.742507458 -0.369744718 0.558544099 -0.827403605 0.543104053 -0.142972752 -0.871887147 0.48594299 0.0605987273 -0.803807974 0.57403183 -0.156141624 -0.869570971 -0.0653333962 -0.489466906 -0.883228362 -0.0843809098 -0.461288989 -0.983401775 -0.0343001559 -0.178169727 -0.984074473 -0.0265239496 -0.175766662 -0.805110753 0.5377388 0.250267267 -0.575945854 0.579659581 0.576438367 -0.576933563 0.444788665 0.685062528 -0.566200733 0.369018584 0.73704952 -0.504232943 0.719599605 0.477415502 -0.830606759 -0.0377407745 -0.555579007 -0.839763224 -0.0048368182 -0.542931259 -0.834434092 -0.0290025994 -0.55034411 -0.848731041 0.0754849762 -0.523409605 -0.172515705 0.654185176 -0.73639673 -0.286492288 -0.914108694 0.286927581 -0.289264739 -0.928772271 0.231749788 -0.12412063 -0.969770968 0.210091382 -0.269593537 0.170263067 0.947802603 -0.217994511 0.0829772949 0.972416162 -0.492051423 0.293001831 0.819777608 -0.0367334709 -0.971745789 0.233154014 -0.0535712205 -0.995529175 -0.0777935311 -0.110406734 -0.992290497 -0.0563019924 -0.0408457927 -0.995512187 -0.085364759 -0.492771506 -0.0443472527 -0.869027972 -0.565231264 0.582278073 -0.584350765 -0.409878075 0.603952229 -0.683550835 -0.4334822 0.577125728 -0.692112029 -0.0102670649 0.0291651282 -0.999521852 0.0371607542 -0.128185913 -0.9910537 0.00164355116 -0.0103631793 -0.999944925 -0.6852507 0.285038441 0.670212328 -0.617197514 -0.031961944 0.7861588 -0.656528473 0.107914589 0.746541858 -0.688795924 0.436131299 0.579093814 -0.116392128 -0.993202984 0.000857732084 -0.0528845936 -0.998374999 -0.0212270543 -0.0640806034 -0.98993504 -0.126183435 -0.855112493 0.28907454 -0.430370301 -0.835700393 0.422580689 -0.350756884 -0.0199110173 -0.573706388 0.818818986 0.169460759 0.440383315 0.881672025 -0.179011926 0.0428185686 -0.982914686 -0.426210791 -0.016120147 -0.904480219 0.0596183538 0.54409492 -0.836902857 -0.149953142 0.629911125 -0.762053847 0.0480090007 -0.16415818 -0.985265076 0.281880796 0.264628291 0.92223376 0.269593507 0.664943993 -0.696540654 0.420908451 -0.117765896 -0.899426043 0.589870632 0.0999839082 -0.801283896 0.379292518 -0.204851165 -0.902315438 0.506443441 0.588731766 -0.630007863 0.289827317 0.213017911 0.93307209 0.733657479 -0.0779955611 -0.675028384 0.918347299 -0.0524643362 -0.392282665 0.732370317 -0.082654804 -0.675871193 0.896610677 -0.027904233 -0.441939712 0.289925396 -0.955073357 -0.0614666194 0.33869949 -0.89837414 -0.279654294 0.132941335 -0.94904083 -0.285741359 0.823502898 -0.159943506 0.544298708 0.756701648 -0.536859453 0.373074532 0.802246034 -0.386363298 0.455109507 0.810105383 -0.00135303801 0.58628273 0.40820232 0.124571003 0.904352188 0.0590797365 -0.990171671 0.126766324 0.0413606241 -0.990789771 0.128937528 0.0169911887 -0.999574125 0.0237259045 0.191321567 0.0178370923 -0.981365323 0.691902936 0.0367610492 -0.721054018 0.0724682063 -0.98878175 -0.130610004 0.024331389 -0.990207374 -0.137467697 0.0382338613 -0.989327908 -0.140600219 0.0781920999 -0.988090038 -0.132529497 0.595057547 0.601990283 -0.532460451 0.76858145 -0.159941211 0.619436383 0.80340451 -0.442403555 0.398522705 0.796412051 -0.286576837 0.532542527 -0.953801394 -0.0727350935 0.291500419 -0.946168363 -0.0220410377 0.322923601 -0.978324354 -0.0973094925 0.182790473 -0.179229662 -0.982867539 0.0429894887 -0.102363817 -0.992842495 0.0615258478 -0.0353795998 -0.997064114 0.0679077506 -0.995204031 -0.0728412867 0.0652919784 -0.927908182 -0.365401626 -0.0739461035 -0.994227588 -0.0928864703 0.0536995828 -0.990323901 0.106695212 -0.0887398347 -0.0205612257 -0.0267452877 0.999430776 0.00488616014 -0.0717273951 0.997412324 0.0115314936 -0.0261674952 0.999591053 -0.989130199 -0.0359741896 -0.142573848 -0.995451748 -0.0602773316 -0.0737730935 0.741108835 -0.202667549 -0.640065312 0.611074686 -0.0132735036 -0.791461647 0.786250532 -0.00264891237 -0.61790216 0.264497101 0.129297033 0.955679655 0.118809484 0.0335084051 0.992351472 -0.811473131 -0.0194306523 0.58406657 -0.81333518 -0.0172703471 0.581538975 -0.816129386 -0.0140020372 0.577699602 -0.915996313 0.394475669 0.0730735809 -0.895731091 -0.442903429 0.0387606472 0.851868272 -0.337801188 -0.400263458 0.773513854 -0.414889693 -0.479106337 0.830410659 -0.33321631 -0.446525455 0.380425572 -0.921873033 0.0736651719 0.256675512 -0.966121376 0.0269668978 0.514963627 -0.820725918 -0.247429535 0.262197644 -0.947996438 0.180430487 0.714448273 -0.0118527571 0.699587822 0.0503159873 -0.996809125 -0.0619671196 0.604205966 0.0103564868 -0.796760917 0.743085742 0.182724044 -0.643766701 -0.0296307281 -0.971618295 -0.234691158 -0.533944666 -0.845487714 -0.00732583646 -0.304898947 -0.952012062 0.0266396999 -0.130575389 -0.98985225 -0.0560590737 0.745058179 -0.0519766621 -0.664971232 0.634205878 0.644026697 -0.427799612 0.102857336 -0.565519929 -0.818295538 -0.867017806 -0.235485539 -0.439120322 -0.910722554 -0.149427369 -0.385040075 -0.893739104 -0.185770363 -0.408313364 -0.930062234 -0.101178043 -0.353195697 -0.0699314252 -0.996920466 0.0354841463 -0.120187797 -0.991161585 -0.0561566316 -0.173489109 0.98369658 -0.0473552719 0.0484165177 0.996324718 -0.0706601068 0.016231155 0.999524474 -0.026218975 0.790699422 -0.333676368 -0.513278186 0.767877162 -0.51362884 -0.382818609 0.0386678614 -0.059482798 0.997480094 0.185208365 -0.177717745 0.966495872 0.0494868122 -0.0279858746 0.998382628 -0.121158898 0.991701543 0.042994611 -0.557901382 0.829857528 -0.00908126123 -0.903490305 0.376424074 0.204963773 -0.510197878 0.755011976 -0.411891967 -0.534359813 0.719250917 -0.444001853 -0.551123321 0.69165647 -0.466770172 -0.797912359 0.327131182 0.506281614 -0.678125679 0.0537516773 0.732977748 -0.50452435 0.762802839 -0.40445897 -0.29597643 0.761175692 0.577069819 -0.168992445 0.668763816 0.724014163 -0.197940364 0.671175957 0.714382589 0.696599185 -0.700520098 -0.154987752 0.233814105 -0.966193199 -0.108635426 0.457540154 -0.869865537 -0.184366331 -0.294950962 0.777218163 0.555819988 -0.267116308 0.00279580639 -0.96366024 0.173786744 0.00695811119 -0.984758735 0.213750839 0.000872651697 -0.976887822 -0.118097968 0.53733474 0.835059464 -0.124915123 0.519254446 0.845441341 -0.957030177 0.281044722 0.0714640468 -0.978517175 0.0502083637 -0.199958026 -0.99463284 0.0437211171 -0.0937763676 -0.564416647 0.731442332 0.382656485 -0.48981446 0.779540122 0.390383095 -0.0532265306 0.0170195606 0.998437405 -0.411727577 0.0418784693 0.910344183 -0.0566489771 -0.000308740768 0.998394132 -0.800703764 0.591171384 -0.0969015583 -0.819944203 0.572104096 0.0197063554 -0.986796141 0.153521657 0.0516183712 -0.0788465962 0.996066034 -0.0404436663 0.150623515 0.979249477 -0.135584146 0.0206342991 0.999242544 -0.0329935551 -0.423462898 0.373244166 -0.825450182 -0.98602438 0.057830818 -0.156241745 -0.981513381 0.0700722635 -0.178104997 -0.967751086 0.0843474045 -0.237367585 -0.187416717 0.98108387 -0.0484701917 -0.0344344862 0.999391437 0.00556506962 -0.113548368 0.992968678 -0.0334662274 0.894088209 0.0365522802 -0.446396977 -0.294221848 0.955019772 0.0370238163 -0.339699477 0.939687729 -0.0398898534 0.603230417 0.652411461 -0.4587726 0.779170692 0.355896503 -0.515975535 -0.0139526138 0.996497929 -0.0824449658 0.742248952 0.51841867 -0.424627602 0.371980846 0.90641731 -0.200094745 0.259553879 0.950496256 -0.170846835 0.0570483692 -0.990508199 0.12505582 0.834279478 -0.441846639 -0.329771549 0.892664075 -0.389184862 -0.227345556 0.953837395 -0.0385655351 -0.297837019 0.963663876 -0.201626107 -0.175210714 0.562856078 0.776455581 -0.283389866 0.908623457 0.135531038 -0.395012408 0.526910961 0.819881856 -0.22396107 0.486708969 0.859616876 -0.155477434 0.189020455 0.975616276 -0.111553274 0.834961116 0.500502706 -0.228772789 0.969985425 0.108212054 -0.217757627 0.941116333 0.0791586488 -0.328685135 0.91765058 0.352667183 -0.183148086 0.577898741 0.798231661 -0.169880062 -0.998032093 -0.0573575348 -0.0253378414 -0.907031596 -0.0403065868 0.419128895 -0.994869947 0.0937071219 -0.0381150469 -0.267352343 -0.959029675 0.0937275067 -0.15836136 -0.987301588 -0.0125399958 -0.0174129959 -0.999821007 0.00739589194 -0.0241909195 -0.999681234 0.00723044109 -0.00610191561 -0.999979615 -0.00187327503 -0.0144152176 -0.999861479 -0.00831951294 0.0140191158 -0.999509215 0.0280147735 -0.0317296349 -0.998102367 -0.0527717508 -0.0136417421 -0.999849796 -0.0106904693 -0.0106353574 -0.999923646 -0.00629002973 -0.0106635196 -0.999940395 -0.00234748051 0.0102650952 -0.999873638 -0.0121357311 0.0396917909 -0.998941064 -0.0232666023 -0.0380893797 -0.992327034 0.117627628 -0.0564453714 -0.992807209 0.105583005 -0.0766870156 -0.995617211 0.053529989 -0.20942685 -0.977748513 0.0121744387 -0.0988231227 -0.992219806 -0.0757220611 -0.161753535 0.0775065646 -0.983782768 -0.978923738 0.196473211 -0.0557371601 0.0707720891 -0.988878131 -0.130810186 -0.105188124 0.000373811286 0.994452298 -0.100448616 -0.00588034373 0.994924843 -0.360118777 -0.0257487576 0.932551026 -0.959700227 0.119086407 -0.254546583 0.000513883424 0.0879950151 0.996120811 -0.0158270746 0.0391784348 0.999106884 0.00591516169 0.0336375199 0.99941659 -0.0200963672 -0.0070195361 0.999773383 -0.0431020893 -0.00483876932 0.999058962 -0.378377318 -0.0283954795 -0.92521584 -0.633343637 0.00727137923 -0.773836553 -0.846567154 0.072838977 0.527274609 -0.193904027 0.980980217 0.00888914987 0.0366101265 0.999326646 -0.002444471 -0.792209506 0.0757593885 -0.605528414 -0.721149683 -0.00732147368 -0.69274056 0.028616339 0.301918507 0.952904165 0.0283822566 0.0315758362 0.999098301 -0.0223369189 0.999586105 -0.0181293022 0.00716703199 0.999847949 0.0158974286 -0.80862695 -0.0227061696 0.587883353 0.179968685 -0.966659963 -0.182153255 0.0868328437 -0.947216809 -0.308610409 0.971899331 -0.231191099 -0.0442979969 0.979851007 -0.190702558 -0.0593679585 -0.237417862 0.0178803094 0.971243024 -0.948037386 0.293983966 -0.121649042 -0.0233796909 0.998288929 -0.0535971224 0.00686169136 0.999378085 -0.0345892198 -0.0939468965 -0.994617462 -0.0437038504 -0.0952709615 -0.988035023 -0.12128555 -0.00766909542 -0.999593318 -0.0274664816 0.036211025 0.000321124244 0.99934411</float_array>
          <technique_common>
            <accessor source="#normals_array" count="267" stride="3">
              <param name="X" type="float" />
              <param name="Y" type="float" />
              <param name="Z" type="float" />
            </accessor>
          </technique_common>
        </source>
        <vertices id="vertices">
          <input semantic="POSITION" source="#positions" />
        </vertices>
        <triangles material="scout_b2b2b2" count="260">
          <input semantic="VERTEX" source="#vertices" offset="0" />
          <input semantic="NORMAL" source="#normals" offset="1" />
          <p>0 0 1 0 2 0 3 1 4 1 5 1 3 2 6 2 4 2 7 3 3 3 5 3 8 4 7 4 5 4 2 5 9 6 0 7 10 8 0 9 9 10 11 11 10 8 9 10 12 12 9 6 2 5 12 12 13 13 9 6 14 14 13 13 12 12 15 15 11 16 13 13 6 17 16 18 17 19 16 18 18 20 17 19 6 21 17 21 4 21 14 22 7 23 19 24 20 25 14 14 19 26 21 27 7 27 8 27 19 24 7 23 21 28 22 29 23 30 24 31 0 9 10 8 25 32 0 33 25 34 1 35 14 14 20 25 13 13 15 15 13 13 20 25 26 36 27 37 28 38 29 39 26 40 28 41 29 39 28 41 30 42 29 43 16 44 26 45 18 20 29 46 30 47 16 18 29 46 18 20 21 48 8 48 31 48 32 49 20 25 19 26 33 50 25 32 22 51 25 34 33 52 34 53 27 37 35 54 28 38 36 55 21 55 31 55 33 52 37 56 34 53 38 57 39 58 33 59 33 52 39 60 37 56 40 61 20 25 32 49 27 62 41 63 35 64 27 62 42 65 41 63 43 66 42 67 27 68 44 69 36 70 31 71 44 69 31 71 45 72 46 73 40 61 32 49 46 74 36 75 47 76 48 77 47 77 36 77 38 57 49 78 39 58 49 79 38 80 50 81 49 79 50 81 51 82 39 60 52 83 37 56 53 84 48 85 36 86 54 87 46 88 55 89 56 90 57 91 54 92 56 93 54 87 55 89 58 94 59 95 60 96 61 97 62 98 63 99 58 94 64 100 65 101 1 35 25 34 34 53 66 102 51 103 67 104 40 61 54 105 15 106 68 107 57 108 56 109 64 100 68 110 56 93 40 61 15 106 20 25 59 95 58 94 69 111 52 112 70 113 43 114 43 66 44 115 42 67 71 116 44 115 43 66 72 117 71 116 43 66 72 117 43 114 70 113 36 118 44 115 71 116 53 84 36 86 71 119 73 120 47 76 71 116 74 121 75 122 67 104 34 123 27 68 26 45 61 124 58 94 65 125 62 126 61 124 65 125 49 78 70 127 39 58 39 60 70 128 52 83 49 129 66 129 70 129 48 130 53 131 47 132 53 131 71 133 47 132 73 120 71 116 72 117 55 134 46 74 73 120 55 134 76 135 65 125 77 136 78 137 79 138 80 139 70 113 66 102 72 117 70 113 80 139 66 102 67 104 80 139 73 120 62 126 76 135 80 139 81 140 72 117 82 141 83 142 84 143 85 144 86 145 87 146 88 147 89 148 90 149 85 150 87 146 91 151 86 152 89 148 88 147 91 153 92 154 93 155 83 156 82 157 94 158 93 155 85 159 91 153 89 160 95 161 50 162 96 163 97 164 93 155 98 165 99 166 100 167 97 168 96 169 68 110 60 96 99 166 64 100 101 170 102 171 59 172 103 173 100 167 99 166 103 173 99 166 60 96 101 174 60 96 102 175 103 173 60 96 101 174 104 176 75 177 74 178 105 179 75 179 104 179 79 180 106 181 107 182 98 183 108 184 97 185 68 110 98 165 97 168 68 110 99 166 98 165 109 186 81 140 80 139 103 173 77 136 100 187 103 173 110 188 77 136 110 188 103 173 101 174 105 189 111 190 75 122 64 100 58 94 60 96 110 188 112 191 77 136 111 190 105 189 113 192 114 193 113 192 105 189 106 194 114 193 105 189 36 75 32 195 21 28 81 140 94 158 72 117 82 157 73 120 94 158 67 104 109 186 80 139 115 196 94 158 81 140 50 162 74 121 51 103 81 140 109 186 115 196 116 197 94 158 115 196 117 198 116 197 115 196 116 197 83 156 94 158 116 197 84 199 83 156 114 193 118 200 113 192 118 201 109 186 113 192 114 193 119 202 118 200 120 203 119 202 114 193 121 204 120 203 114 193 120 203 122 205 119 202 122 205 123 206 119 207 123 206 122 205 124 208 121 204 125 209 120 203 120 203 124 208 122 205 120 203 125 209 124 208 23 210 126 211 87 146 87 146 88 212 23 210 12 213 3 214 7 23 126 211 91 151 87 146 35 215 41 216 18 217 41 216 45 218 18 217 30 219 28 220 35 215 18 217 30 219 35 215 18 217 45 218 17 221 17 221 45 218 31 222 31 222 8 223 17 221 4 224 17 221 8 223 5 225 4 224 8 223 15 226 54 92 57 91 15 226 57 91 127 227 127 227 126 228 11 229 126 228 23 30 11 229 11 229 15 226 127 227 11 229 23 30 10 230 38 231 33 50 22 51 106 181 104 232 107 182 51 82 66 233 49 79 57 234 96 235 127 236 59 95 102 175 60 96 24 31 50 81 38 80 79 180 107 182 108 237 56 93 65 101 64 100 93 155 92 154 96 163 40 61 46 73 54 105 112 238 110 239 128 240 128 240 110 239 101 170 101 170 59 172 129 241 129 241 59 172 69 242 129 241 69 242 61 97 63 99 129 241 61 97 21 28 32 195 19 24 117 198 123 206 116 197 24 243 90 244 89 160 73 120 76 135 55 134 69 111 58 94 61 124 24 31 38 80 22 29 47 76 73 120 46 74 11 245 9 245 13 245 76 135 62 126 65 125 73 120 72 117 94 158 63 99 128 240 129 241 107 246 74 178 108 184 130 247 108 184 74 178 86 145 88 212 87 146 78 137 114 193 106 194 88 248 90 244 23 249 126 211 127 236 91 151 121 250 112 238 125 251 131 252 93 253 130 247 93 253 108 184 130 247 24 243 89 160 50 162 123 206 117 198 119 207 74 121 50 162 95 161 96 254 57 108 68 107 43 66 27 68 52 255 37 256 52 255 27 68 12 213 7 23 14 22 27 68 34 123 37 256 56 93 55 89 65 101 77 136 79 138 100 187 64 100 99 166 68 110 25 32 10 8 22 51 45 257 41 63 44 258 67 104 75 122 111 190 78 137 106 194 79 138 101 170 129 241 128 240 67 104 51 103 74 121 98 165 100 167 79 180 108 237 98 165 79 180 73 120 82 157 62 126 77 136 112 191 78 137 36 75 46 74 32 195 91 151 127 236 92 259 41 63 42 65 44 258 78 137 121 204 114 193 117 198 109 186 119 207 104 176 74 178 107 246 117 198 115 196 109 186 106 181 105 260 104 232 89 261 86 145 131 252 131 252 85 144 93 253 86 145 85 144 131 252 108 184 93 253 97 185 95 262 89 261 131 252 130 247 74 178 95 262 130 247 95 262 131 252 109 186 67 104 111 190 2 263 26 45 16 44 34 123 26 45 1 264 26 45 2 263 1 264 16 44 3 214 2 263 3 214 16 44 6 265 12 213 2 263 3 214 78 137 112 191 121 204 123 206 84 199 116 197 127 236 96 235 92 259 10 230 23 30 22 29 113 192 109 186 111 190 124 266 128 240 84 143 82 141 84 143 63 99 84 143 128 240 63 99 62 98 82 141 63 99 125 251 112 238 128 240 125 251 128 240 124 266 84 199 123 206 124 208 24 243 23 249 90 244 118 201 119 207 109 186</p>
        </triangles>
      </mesh>
    </geometry>
  </library_geometries>
  <library_visual_scenes>
    <visual_scene id="scene">
      <node id="left_hip_yaw_link">
        <instance_geometry url="#geometry">
          <bind_material>
            <technique_common>
              <instance_material symbol="scout_b2b2b2" target="#scout_b2b2b2" />
            </technique_common>
          </bind_material>
        </instance_geometry>
      </node>
    </visual_scene>
  </library_visual_scenes>
  <scene>
    <instance_visual_scene url="#scene" />
  </scene>
</COLLADA>