<?xml version='1.0' encoding='utf-8'?>
<COLLADA xmlns="http://www.collada.org/2005/11/COLLADASchema" version="1.4.1">
  <asset>
    <created>2026-09-14T00:00:00Z</created>
    <modified>2026-09-14T00:00:00Z</modified>
    <unit name="metre" meter="1" />
    <up_axis>Z_UP</up_axis>
  </asset>
  <library_effects>
    <effect id="scout_b2b2b2_effect">
      <profile_COMMON>
        <technique sid="common">
          <lambert>
            <emission>
              <color>0 0 0 1</color>
            </emission>
            <ambient>
              <color>0.35 0.35 0.35 1</color>
            </ambient>
            <diffuse>
              <color>0.7 0.7 0.7 1</color>
            </diffuse>
          </lambert>
        </technique>
      </profile_COMMON>
    </effect>
  </library_effects>
  <library_materials>
    <material id="scout_b2b2b2" name="scout_b2b2b2">
      <instance_effect url="#scout_b2b2b2_effect" />
    </material>
  </library_materials>
  <library_geometries>
    <geometry id="geometry" name="left_wrist_roll_link">
      <mesh>
        <source id="positions">
          <float_array id="positions_array" count="210">0.0418076515 0.0280880556 -0.0108643202 0.0145892855 0.0238151513 -0.0182031076 0.000230843929 0.0264433511 -0.0149296438 0.0109042944 -0.0229231268 -0.0199462567 0.000438641408 -0.0275615063 -0.0131925028 0.000361443323 -0.0168568306 -0.0251183547 0.00930719823 -0.0121625848 -0.025718702 0.0122047365 -0.0226778183 -0.017609274 0.00944590755 -0.0108889183 -0.0280701779 0.00947803166 0.00289075519 -0.0300620813 0.00165849784 0.0272041708 0.00944980141 0.0434190147 0.0281748716 0.0045901644 0.0441141762 0.0236110389 0.0155331818 0.0542372651 0.0242852475 0.00800418761 0.0439676605 0.029868111 0.00462531811 0.044487074 0.0244214982 0.0170276575 0.0449566059 -0.0239052847 -0.017049253 0.0422048345 -0.026912773 -0.0105982041 0.0516803488 -0.0232346989 -0.0106412321 0.0505759269 -0.0281714797 0.000555809995 0.0431385003 -0.0298639908 0.00696291914 0.0431144834 -0.0292476285 -0.00882395077 0.0449631251 -0.0286569186 -0.00208480819 0.0552557446 -0.0239049383 -0.00747313537 0.0549683236 -0.0230756029 0.00642826641 0.00173083832 -0.0283121616 0.00746600982 0.0438305624 -0.0274281651 0.00835241564 0.00954782218 -0.0186676867 0.0217684582 0.00960901007 -0.0130109014 0.0271660667 0.0111544766 -0.0232965183 0.0195457675 0.00948610995 -0.00739598181 0.0271883793 0.00967424549 0.00507630501 0.0298786294 0.00928573217 0.00899046566 0.0267888457 0.0143687557 -0.0226076338 0.0177641045 0.0532842092 -0.0245098826 0.0108815748 0.043002177 -0.0241867136 0.0180646665 0.054471653 0.0249420628 -0.006587137 0.0439195409 -0.0237006061 0.0158257186 0.0142576937 0.0217718128 -0.0177102964 0.00173684594 0.026570512 -0.0120304637 0.00860942714 0.0156902317 -0.0237666424 0.00926791597 0.00575270504 -0.0277359057 0.00953083578 0.0184720121 -0.0238251351 0.0461888462 0.024307644 -0.0166092217 0.0550329387 0.0208548084 0.00426415773 0.053396441 0.0208137278 -0.00896246359 0.0412201025 0.0274014436 -0.00858433452 0.0469117649 0.0208375808 0.0157485772 0.0435742736 0.021881735 -0.0168636497 0.0540905409 0.0236115307 -0.00533482525 0.00180787942 0.0183135401 0.0222027972 0.00166683947 0.00752912788 0.0275205672 0.000590231095 -0.0132148117 0.0271721426 0.00999499671 0.0182287637 0.0216466021 0.0106047802 0.0224110987 0.0202173423 0.0142026469 0.0215034541 0.0176982265 0.00156945654 -0.00949120987 0.0272068065 0.0523727983 0.0237932224 0.0076908702 0.000822378148 0.0299991835 0.00559630757 0.000501068833 0.0240635071 0.0178969707 0.000568613759 0.0136321923 0.0269773211 0.000451722735 0.00100981328 0.0299329329 0.000599826628 0.0122641465 -0.0277701542 0.000596074329 -0.0242856927 0.0185658075 0.000608585309 -0.0304278526 0.00383179402 0.000832683581 -0.0041652061 -0.0298653524 0.00157560175 -0.0266645048 -0.0127756177 0.00163242046 0.0116642313 -0.0264938995 0.00163671316 -0.0107498793 -0.0268900804 0.0016451038 -0.0222714171 0.0185946766</float_array>
          <technique_common>
            <accessor source="#positions_array" count="70" stride="3">
              <param name="X" type="float" />
              <param name="Y" type="float" />
              <param name="Z" type="float" />
            </accessor>
          </technique_common>
        </source>
        <source id="normals">
          <float_array id="normals_array" count="444">0.123339534 0.940290213 -0.317240804 0.00858126115 0.799811244 -0.600190282 -0.0420008376 0.886515498 -0.460788667 -0.000511565886 -0.768878162 -0.639395118 -0.0352319703 -0.908087194 -0.417296499 -0.0151746077 -0.559116662 -0.828950107 0.87255168 -0.123980142 -0.472527832 0.99500221 0.0505842566 0.0860920623 0.971742153 0.178416237 0.15454717 0.952156067 0.241671786 0.187065661 0.996077538 0.000381953927 0.0884838328 0.0143546937 -0.956426024 -0.291621596 -0.182823122 -0.973225713 -0.139310569 -0.261879534 -0.842665017 -0.470462263 0.417079002 0.887042046 0.197993621 0.197376728 0.970897973 0.135644987 0.135162666 0.904872298 0.403654754 0.0393033102 0.991261125 -0.125923261 -0.143500596 0.941760421 0.30412975 -0.423973262 0.879456282 0.216340631 -0.186014488 0.912376702 0.364646822 0.473500133 -0.880785942 0.00370012759 0.153391331 -0.962270141 0.224738359 0.176033825 -0.936606526 -0.302952588 -0.257209718 0.96426487 0.0635327846 0.513016045 -0.830531299 -0.216869339 0.191321984 -0.842087924 -0.504265606 0.671214879 0.168320656 -0.72189939 -0.453513771 0.880461514 -0.138249174 0.229361668 0.971884191 -0.0532384366 0.0088629825 0.976601183 -0.214875683 -0.195738032 0.93617171 -0.292008728 0.694407642 0.492809117 -0.524344563 0.988252521 0.0213868208 -0.151325822 0.998857379 0.0220318418 -0.0424094535 0.999166191 0.0220067557 -0.0343898684 0.993355215 0.00975126494 -0.114674948 0.993547142 0.00939363148 -0.113030329 0.508706152 -0.222761035 0.831622243 0.468803197 -0.844309509 0.259547681 0.112821616 -0.882140934 0.457273126 0.358909994 0.924000323 -0.131935433 -0.155611157 0.882918417 -0.442990184 0.288121909 0.878879189 0.380206674 0.0913461968 0.961981952 0.257384241 0.302481592 0.867942989 0.393928796 0.728756249 -0.682497263 0.0557838567 0.00408928888 -0.759402514 0.650608242 0.03269976 -0.920718014 0.388856083 0.0274796821 -0.626233757 0.779150903 0.982390463 -0.0624033511 0.176110074 0.770432651 -0.201857507 0.604720652 0.708751142 -0.220671237 0.67005676 0.826777995 -0.258439749 -0.499646932 0.826663792 -0.284030378 -0.485750645 0.826709151 -0.281326771 -0.487244517 0.826741338 -0.255095989 -0.501422822 0.195409983 0.881059587 -0.430753946 0.987086117 -0.12624386 -0.0986077711 0.989816546 0.142328426 0.00241143326 0.975384355 -0.184931114 -0.120107643 -0.150006413 -0.940383732 0.305248231 0.66761905 0.195270434 0.718438745 -0.20820114 -0.823441446 0.527822435 -0.465675384 -0.85362196 0.233400866 -0.532511532 -0.617916882 0.578454971 -0.988700151 0.0870264694 0.122059226 -0.0259192102 -0.646428287 -0.76253438 -0.0451668315 -0.265734076 -0.962987721 -0.05847032 -0.186244771 -0.980762005 0.0226203483 -0.401736826 0.915475726 0.00250428496 -0.395465583 0.918477356 0.0315601341 0.154126719 0.987546921 0.885390818 -0.261945248 -0.384015381 0.787734687 -0.34051159 -0.513347745 0.741313577 -0.368975878 -0.560634494 0.888152838 -0.259178787 -0.379487693 0.594320893 0.181121841 0.78356719 -0.0482833385 0.173783168 -0.983599603 -0.0398481451 0.280223608 -0.959107339 -0.695241392 -0.600179851 -0.395504236 -0.59886086 -0.530085981 -0.600312054 -0.814677358 -0.0655792281 -0.576194525 -0.790990949 -0.604268193 -0.0958819091 0.747746408 -0.402392089 0.528162777 0.979442954 0.200197741 0.0247450657 -0.999882698 0.0107965479 0.0108659575 -0.999980569 -0.00459840009 0.00420447811 -0.999993682 -0.00182885083 -0.00305404398 -0.999659598 -0.00762847951 -0.024948908 -0.999581218 0.0150447637 0.0247185584 -0.999908209 -0.00452624075 -0.0127690742 -0.999919176 -0.00729715219 -0.0104101459 -0.999999821 -0.000429353269 -0.000419656339 -0.999993145 0.00185595616 0.00320688891 -0.999968886 0.00780835003 0.00112776179 -0.999930203 0.0048119179 0.0107919071 -0.994808614 -0.00112272985 -0.101757534 0.0401011854 0.898019433 0.438124359 0.0253098477 -0.361964464 -0.931848228 0.0286116302 -0.10090562 0.994484484 0.0251711868 -0.388224989 0.921220779 -0.0619082563 0.0796205923 0.994900942 0.0397876091 0.653452992 0.755920768 0.00794601254 0.663488388 0.748144388 0.0130786039 0.742409885 0.669818282 0.0467274748 0.463637888 0.884791791 -0.0178178325 -0.128918827 -0.991495073 0.00424090168 0.109813392 -0.993943155 -0.0153464759 -0.993287444 0.114649564 0.999992311 0.00391358603 0.000212751926 0.999897242 -0.011468498 -0.00860191137 0.99999994 -0.000133449823 -0.000325068395 0.999999702 -0.000457670772 0.000610368792 0.999996066 -0.00281329942 6.4191343e-05 0.999974251 0.0011473078 0.00708095683 0.999992251 -0.00393832522 -0.000181399388 0.999970138 -0.00682957331 -0.00362086412 0.999999523 0.000839150161 0.000452025677 0.999084771 -0.0287040528 -0.0317134485 -0.0290281773 0.628694892 -0.7771101 0.00312249223 0.410046697 -0.912059188 -0.00826350693 -0.790981233 0.611784637 0.038538374 0.611503422 -0.790302694 -0.00257898029 0.604109526 -0.796897113 -0.130089015 0.110657223 0.985307992 0.0588482767 0.702739477 0.70900923 0.754550397 0.168413937 -0.634263694 0.0454102457 0.904240549 0.424602121 0.145262286 0.952854395 0.26639697 0.00359692238 -0.806408226 -0.59134835 -0.000236866093 -0.702513635 0.71167022 -0.0268498715 0.806352377 0.590825677 0.516544223 -0.482528597 -0.707352996 0.0215396732 -0.0355082825 0.999137223 -0.0071467394 0.989333689 0.145491377 0.0452070199 0.901615262 0.430170059 -0.0583335757 -0.647297502 -0.760002077 -0.028520003 0.695147038 -0.718301654 0.0489536636 0.0425590351 -0.997893929 0.0289269332 -0.238792643 -0.970639646 0.0299604665 -0.225478917 -0.973787248 0.0495131798 0.0512492172 -0.997457743 0.00114972086 -0.940271139 0.340424448 0.106104992 -0.269783348 0.957057297 -0.061742235 -0.139038444 -0.988360345 -0.0643180236 0.0299641527 -0.997479498 -0.00153558457 0.878865004 -0.477068067</float_array>
          <technique_common>
            <accessor source="#normals_array" count="148" stride="3">
              <param name="X" type="float" />
              <param name="Y" type="float" />
              <param name="Z" type="float" />
            </accessor>
          </technique_common>
        </source>
        <vertices id="vertices">
          <input semantic="POSITION" source="#positions" />
        </vertices>
        <triangles material="scout_b2b2b2" count="136">
          <input semantic="VERTEX" source="#vertices" offset="0" />
          <input semantic="NORMAL" source="#normals" offset="1" />
          <p>0 0 1 1 2 2 3 3 4 4 5 5 3 6 6 6 7 6 8 7 6 8 3 9 9 10 6 8 8 7 10 11 11 12 12 13 13 14 14 15 15 16 7 17 16 17 3 17 17 18 18 19 16 20 19 21 20 22 21 23 22 24 18 19 17 18 23 25 21 23 16 26 18 27 23 27 16 27 24 28 18 19 22 24 24 29 23 29 18 29 25 30 26 31 22 24 27 32 28 32 29 32 30 33 28 34 27 35 30 33 31 36 28 34 32 37 31 36 30 33 33 38 27 38 29 38 34 39 35 40 20 22 26 31 24 28 22 24 14 15 13 14 36 41 34 39 20 22 19 21 37 42 24 28 26 31 24 43 35 44 34 45 34 39 19 21 23 25 24 46 34 39 23 25 38 47 39 48 40 49 9 10 41 50 6 8 9 10 42 51 41 50 42 51 40 52 41 50 38 53 40 54 42 55 42 55 1 56 38 53 36 41 43 57 0 0 36 58 44 59 45 60 46 61 11 12 39 48 13 62 15 62 47 62 46 61 48 63 49 64 0 0 14 15 36 41 49 64 48 63 45 65 49 66 45 66 44 66 50 67 32 68 51 69 52 70 28 71 31 72 53 73 31 74 32 75 53 73 54 76 31 74 54 77 53 77 55 77 23 25 19 21 21 23 32 68 30 78 56 79 12 13 11 12 57 80 12 13 57 80 47 81 57 80 44 82 47 81 57 80 49 64 44 83 44 84 13 84 47 84 43 57 1 1 0 0 44 59 36 58 13 85 58 86 2 87 52 88 59 89 58 86 52 88 60 90 59 89 61 91 52 88 2 87 62 92 61 91 59 89 52 88 63 93 52 88 62 92 64 94 63 93 62 92 64 94 62 92 5 95 64 94 5 95 4 96 62 92 65 97 5 95 17 18 66 98 22 24 3 3 5 5 8 99 41 100 67 101 68 102 46 61 49 64 11 12 6 103 68 104 66 98 54 105 60 106 31 72 65 107 9 108 8 99 11 12 10 11 39 48 4 4 21 23 64 109 25 110 66 111 68 112 25 110 68 112 56 113 68 112 67 114 56 113 25 110 56 113 69 115 67 114 39 116 56 113 56 113 39 116 51 117 51 117 39 116 10 118 10 118 50 119 51 117 42 120 9 108 62 121 20 22 35 40 63 122 39 48 48 63 46 61 65 107 8 99 5 5 69 123 56 79 27 124 68 102 6 125 41 100 16 20 7 126 66 98 43 127 36 127 45 127 66 98 7 126 6 103 4 4 16 26 21 23 33 128 35 44 37 129 55 130 50 67 10 11 24 43 37 129 35 44 66 98 17 18 16 20 2 2 1 1 42 120 16 26 4 4 3 3 29 131 28 71 63 122 60 106 54 105 59 132 2 2 42 120 62 121 45 133 48 133 43 133 61 134 31 72 60 106 58 135 14 15 0 0 40 49 39 48 67 101 28 71 52 70 63 122 9 108 65 107 62 121 33 128 29 136 35 44 50 67 53 137 32 68 0 0 2 2 58 135 12 13 55 130 10 11 59 132 54 105 15 16 61 134 52 70 31 72 38 47 48 63 39 48 50 67 55 130 53 137 25 30 37 42 26 31 41 100 40 49 67 101 35 40 29 131 63 122 33 138 69 123 27 124 20 22 63 122 64 109 15 16 58 135 59 132 27 124 56 79 30 78 64 109 21 23 20 22 48 139 38 140 1 141 43 142 48 139 1 141 22 24 66 98 25 30 51 69 32 68 56 79 55 143 47 143 54 143 47 144 15 144 54 144 12 145 47 145 55 145 57 80 11 12 49 64 33 146 37 146 69 146 37 42 25 30 69 147 14 15 58 135 15 16</p>
        </triangles>
      </mesh>
    </geometry>
  </library_geometries>
  <library_visual_scenes>
    <visual_scene id="scene">
      <node id="left_wrist_roll_link">
        <instance_geometry url="#geometry">
          <bind_material>
            <technique_common>
              <instance_material symbol="scout_b2b2b2" target="#scout_b2b2b2" />
            </technique_common>
          </bind_material>
        </instance_geometry>
      </node>
    </visual_scene>
  </library_visual_scenes>
  <scene>
    <instance_visual_scene url="#scene" />
  </scene>
</COLLADA>