<?xml version='1.0' encoding='utf-8'?>
<COLLADA xmlns="http://www.collada.org/2005/11/COLLADASchema" version="1.4.1">
  <asset>
    <created>2026-09-14T00:00:00Z</created>
    <modified>2026-09-14T00:00:00Z</modified>
    <unit name="metre" meter="1" />
    <up_axis>Z_UP</up_axis>
  </asset>
  <library_effects>
    <effect id="scout_333333_effect">
      <profile_COMMON>
        <technique sid="common">
          <lambert>
            <emission>
              <color>0 0 0 1</color>
            </emission>
            <ambient>
              <color>0.1 0.1 0.1 1</color>
            </ambient>
            <diffuse>
              <color>0.2 0.2 0.2 1</color>
            </diffuse>
          </lambert>
        </technique>
      </profile_COMMON>
    </effect>
  </library_effects>
  <library_materials>
    <material id="scout_333333" name="scout_333333">
      <instance_effect url="#scout_333333_effect" />
    </material>
  </library_materials>
  <library_geometries>
    <geometry id="geometry" name="left_ankle_roll_link">
      <mesh>
        <source id="positions">
          <float_array id="positions_array" count="576">-0.0547505096 -0.0170319751 -0.00389556843 -0.0591046177 -0.0197409429 -0.0337933041 -0.0488692895 -0.0242009182 -0.00945003983 -0.0635863841 -0.0066708657 -0.0177984219 -0.0558475889 -0.00746087823 0.00385166425 -0.056718763 0.00526558794 -0.00420787185 -0.0524755977 -0.00527301291 0.00400566822 -0.0551228598 -0.0101683047 -0.00470579648 -0.0631927773 -0.0117846951 -0.0351694152 -0.0422142148 -0.02967472 -0.0349696279 0.0703397319 -0.0354393199 -0.0215583388 0.0927810296 -0.0373735502 -0.0348325409 0.10148669 -0.0343944728 -0.0221466217 -0.0520862266 -0.0121991942 -0.0136811715 -0.0494589284 -0.0173465107 -0.00527254911 -0.0430968627 -0.0197819248 -0.014618638 -0.0487223454 -0.0141154127 0.00424544141 -0.0421446264 -0.0221973639 -0.00377728022 -0.0361211151 -0.0292545035 -0.0152143622 -0.048215542 -0.0269775074 -0.024634596 0.0109001221 -0.027291432 0.00515782973 -0.0289107133 -0.0251502395 0.00669245655 -0.01018856 -0.0287730899 -0.034294825 -0.0247983672 -0.0295694731 -0.0346370973 0.00556089263 -0.0286741666 -0.011476961 -0.0345006846 -0.0232197493 -0.0122873811 -0.0107016275 -0.0219828561 -0.0146791078 -0.033772137 -0.0244293492 -0.00476886984 0.00855961069 -0.0251170304 -0.00393353542 -0.0268670265 -0.00729849888 -0.0137698324 -0.0262101572 -0.0136296172 -0.00415315153 -0.0261363499 -0.00618501427 -0.00127312425 -0.0260096956 0.000341066363 -0.00661381893 -0.0189162865 -0.00255022454 -0.00590641657 -0.0188736077 -0.0138103776 0.00234911684 -0.0188050494 -0.0115996171 -0.00763250142 -0.0180381089 -0.00861608703 -0.0141599821 -0.0186653268 -0.00596586196 0.0032043783 0.011415475 -0.0290993471 -0.032965634 0.00591918221 -0.0234839674 0.00797151588 0.0144237587 -0.0244972222 -0.013984696 -0.0460532717 -0.0161939375 0.0116498182 -0.0404930227 -0.0130452691 0.0143820709 -0.0429670028 -0.00450484268 0.0189203974 -0.0516282022 0.0105048539 0.00965492427 -0.0419283696 -0.00720218336 0.0160733256 -0.0392964445 -0.0143130133 0.0176053159 -0.0282280631 -0.021071529 0.00822408032 -0.0258809179 -0.0132780923 0.0198571496 -0.0221384447 -0.017280845 0.0132409297 -0.0255893078 -0.0106851989 0.0183644816 -0.0258077085 0.00986302085 0.0190116875 -0.0132486625 -0.0218586903 0.00896479283 -0.0141080962 -0.0243712571 0.00979997125 -0.0262838285 -0.0100589218 0.0101190172 0.0577076524 -0.0265139304 -0.0114300894 0.037015859 -0.0279172696 -0.0101440409 0.0292326398 -0.0210023988 0.010993748 -0.0188464411 -0.00443551037 0.0140558928 -0.0262037143 -0.0011698032 0.00703756604 -0.0260041524 -8.16386e-06 0.0142667554 -0.0188708305 0.00308774668 0.00566507643 -0.02624215 0.0110701835 0.0210798196 -0.0588850826 0.0163956434 -0.0142229563 -0.0631917119 0.0119005786 -0.0350763127 -0.0662273392 0.00242329156 -0.0322090685 -0.0609874949 0.0037754064 -0.00669227587 -0.0556091182 -0.00140670419 -0.014201941 -0.0570197962 0.0213988554 -0.0350391604 -0.0511198528 0.0182160046 0.00160591106 -0.0522644073 0.0110438997 -0.0145213082 -0.0525249317 0.0146223465 -0.00427258434 -0.0495958999 0.00824413355 0.00779068004 -0.0471313819 0.0265230387 -0.0161705203 -0.047977794 0.0272948202 -0.0348501205 -0.0462951176 0.0189158693 -0.013019897 -0.0378956869 0.0220182929 -0.0140510565 -0.0457259677 0.0206091143 -0.0035336623 -0.042691648 0.0235476047 0.00129334559 -0.036454998 0.0293051116 -0.014421477 -0.0272646826 0.0222439226 0.00730718346 -0.0334191248 0.0245014373 -0.00535924174 -0.0234229416 0.0258257259 0.00802311394 -0.0381820872 0.0299483053 -0.0350146592 -0.0257320199 0.00660729408 0.000150923224 -0.0264077298 0.0141587397 -0.000222795672 -0.0189187843 0.00577648589 -0.00279076025 -0.0188063551 0.0145070264 -0.00296593201 -0.0261273608 0.00866847392 -0.0119432779 0.0128943836 0.0241501462 -0.0144539978 0.0149518168 0.0242806226 0.00508594653 0.0061784857 0.0251303688 -0.00497758249 0.00606227061 0.0285276957 -0.00617956556 -0.0403884947 0.0117155751 0.0160029847 -0.041209925 0.0154657383 0.0160884149 -0.0105521148 0.0290327929 -0.03436286 -0.0263448171 0.00970097538 0.010436926 -0.0187996849 0.0102900332 0.0100277541 -0.0153691247 0.0219149757 0.00869267527 -0.0219806936 0.0183245931 0.0145928469 -0.0137604913 0.0233974885 0.00994186196 0.0173870288 0.027150983 0.00628497684 0.0059781014 0.0239517894 0.00830883253 0.0273744445 -0.0317420885 -0.0332944542 0.0484071709 0.0316887014 -0.0125687988 0.0314043276 0.0320133939 -0.0126275159 0.017929228 0.0300746933 -0.0332629196 0.0328409746 -0.0320355706 -0.0123114157 0.0356479995 -0.0262560099 -0.0144322645 0.0437463224 -0.036511343 -0.0348317213 0.0450042114 -0.0369800553 -0.0275407489 0.0499503799 -0.0288475659 -0.00720668444 0.0625355244 -0.0241225362 -0.0147433784 0.0771976411 -0.0247879196 -0.00652194116 0.0571099631 -0.0214502048 0.00529576931 0.0870445222 -0.0227043331 -0.0116003733 0.0811942071 -0.022748014 -0.0146196922 0.0808913261 -0.0168128386 -0.00240465975 0.063985385 -0.0182984639 0.000935451069 0.0790129751 -0.015310362 -0.00415852666 0.0760952979 0.00626054453 0.00167377782 0.0713858753 -0.0100404471 0.00356894662 0.0947785899 0.00198803516 -0.00548450882 0.102517545 -0.0218706746 -0.0120592965 0.0358821303 0.0215479732 0.0148130571 0.0600291863 0.0218059774 0.00371467019 0.097319603 -0.0177544728 -0.012110861 0.115792781 -0.0333044603 -0.0351262204 0.118876405 -0.0306733456 -0.0214049648 0.106573217 -0.00839773286 -0.00972910039 0.10317672 -0.00829843991 -0.0112010632 0.102287628 -0.00529249851 -0.014696802 0.12919119 -0.0270519517 -0.0349891298 0.130289078 -0.0247492287 -0.0204389077 0.139071494 -0.014543104 -0.0194206312 0.139402211 -0.0152388168 -0.0350894965 0.139008537 0.00538887223 -0.0179612935 0.142373741 -0.000764135038 -0.0205850583 0.142456114 0.000205583172 -0.0342954509 0.01933112 -0.0229673591 0.0085582938 0.0232109278 -0.0179547556 0.0110875499 0.0188606493 -0.016779162 0.00865202677 0.0219208598 -0.0175362527 0.00462462567 0.0316122063 -0.0228699334 0.013276835 0.0370975621 -0.0174317639 0.0162753277 0.049990654 -0.0175658669 0.00881971419 0.0421228781 -0.0176098458 0.0165960919 0.0375975594 -0.0118800895 0.0226565283 0.0378102474 -0.00550026307 0.0210896302 0.037737716 0.0108556189 0.0227597095 0.0402439274 -0.000209803504 0.0232552085 0.0576693155 -0.00713692047 0.00805819221 0.0561322235 -0.00491907494 0.0122749386 0.0846764967 0.00571323466 -0.00459748739 0.0353909954 0.0277202427 -0.00737735815 0.0392654836 0.0349795595 -0.0333526284 0.0449575 0.0371377803 -0.0277909562 0.0764308348 0.0248663109 -0.0117926318 0.0372269526 0.0272968728 -0.0140503412 0.0438344851 0.0367669165 -0.0351731665 0.0935638174 0.0372540057 -0.0349202976 0.064398624 0.0251353253 -0.014431335 0.0597306713 0.0196321197 0.0014655377 0.0304743107 0.0205090921 0.0125043076 0.0382708013 0.0179303866 0.0146282427 0.0859787986 0.0221147351 -0.014428 0.0922855511 0.0211493261 -0.0119249504 0.0798496678 0.0205941591 -0.00357634015 0.0883796141 0.0300878081 -0.0155159179 0.0749598816 0.0133645572 -0.00169736496 0.132568583 0.0225193221 -0.0199295375 0.102027394 0.0190759432 -0.0103379739 0.0859763771 0.0356374457 -0.0222734716 0.10110864 0.0134341531 -0.0116082896 0.0977775827 0.0132104745 -0.014904947 0.140064657 0.0133678354 -0.0351067372 0.106370836 0.0360342637 -0.0338722356 0.108558066 0.0327456817 -0.0210293364 0.119141161 0.0326671563 -0.0349768847 0.124068111 0.0278874766 -0.0206837803 0.132906228 0.0246634297 -0.0346182771 0.139895797 0.0137298144 -0.0208965279 0.0202114824 0.0232510027 0.00880158972 0.0190581083 0.0171559826 0.00759511022 0.0234595705 0.0174118429 0.00478511862 0.0228660889 0.0181087162 0.0108871665 0.0366832688 0.0099831922 0.020531144 0.037123248 0.0163444299 0.0198596492 0.0531465486 0.0133056231 0.00904205628 0.0876841545 -0.00573222106 -0.00574613316 -0.0280400384 0.00938573852 -0.0147083364 -0.0180206727 0.00728518981 -0.0137530258</float_array>
          <technique_common>
            <accessor source="#positions_array" count="192" stride="3">
              <param name="X" type="float" />
              <param name="Y" type="float" />
              <param name="Z" type="float" />
            </accessor>
          </technique_common>
        </source>
        <source id="normals">
          <float_array id="normals_array" count="1029">-0.757847071 -0.573351324 0.311345547 -0.761149704 -0.641619205 0.0947411656 -0.486555874 -0.840628445 0.237922579 -0.950636625 -0.241832897 0.194439739 -0.845134318 -0.204164311 0.494029313 0.974788666 -0.203722939 -0.0910163447 0.841937661 0.14964661 -0.518408 0.919904947 0.377233088 -0.107098781 -0.0302171502 -0.0434331857 -0.998599231 -0.00129980908 -0.0209680293 -0.999779284 -0.229026303 -0.278980732 -0.932586014 0.0417590402 -0.931366086 0.361681402 0.0746221766 -0.98436749 0.1595373 0.145120338 -0.881678343 0.448980451 0.810018599 0.545338392 0.215582609 0.672988951 0.738561809 -0.0401534662 0.479402363 0.858371675 0.182678416 0.67314446 0.57491076 -0.465138882 0.401341915 0.906475365 -0.131252125 -0.139685199 -0.980882347 0.135491416 -0.451787293 -0.889033198 0.0742175654 -0.234644547 -0.97198385 0.0137592042 -0.0227229893 -0.979987562 0.197757617 -0.148318663 -0.887767076 0.43574208 0.0233930517 -0.000557832711 -0.999726176 0.0184763577 0.0890507177 -0.995855689 -0.0490333587 -0.997401655 0.0527795702 0.0445556827 0.634610593 0.771546602 0.044508934 0.634959757 0.77126199 0.0433764048 0.643358171 0.764335454 0.154427424 0.98625505 -0.0587636083 0.0530296154 0.99836576 -0.0213003289 0.202570856 0.970433474 0.13124001 -0.993535638 0.0247889552 0.110780835 -0.99950254 -0.00226081023 0.0314582288 -0.99966222 0.0157814138 0.0206481237 -0.998265088 0.0219160188 0.0546490885 0.177097693 0.621249557 0.763338327 -0.0921298489 -0.992815495 0.0763508603 -0.0141493222 -0.975012541 -0.221698835 0.000234153646 -0.912415802 -0.409264416 -0.0883669257 -0.866547704 -0.49120912 -0.151935354 -0.892069161 -0.425591677 -0.234544888 0.908099115 0.346907258 0.0344284661 -0.999218225 -0.0194316152 -0.101477645 -0.994805932 -0.00796412956 0.0184450317 -0.999774635 0.0105072688 0.0294824168 0.984497964 -0.172900289 0.043314293 0.643815458 0.763953865 -0.560393333 -0.593177915 0.578013182 0.40631488 0.568460107 -0.715374947 -0.461684018 -0.0742207915 0.883933902 -0.750149786 0.287854642 0.595327675 0.49384436 0.162461489 -0.854238868 -0.358640611 -0.254630119 0.898075938 0.148333803 0.860470951 -0.487428814 -0.171835661 -0.775906563 0.606993854 -0.0761187896 -0.731692672 0.677371264 0.0932872295 0.714921772 -0.692953348 0.136148468 0.383008748 -0.913656354 -0.104217365 -0.0972821712 0.989785314 0.175278217 0.00394074526 -0.984511077 0.0668809861 0.928129613 -0.36619994 0.631936669 0.767606676 -0.106939398 0.481213331 0.123858936 0.867809117 0.295282364 0.208892405 0.93229413 0.270191073 0.219211951 0.93751955 -0.0549600236 -0.874927461 0.481125116 0.895898938 0.141644269 0.421072394 0.960518539 0.0495744683 0.273763686 0.925803959 0.1048446 0.363173068 -0.231523499 -0.944022477 0.234986022 -0.127543658 0.89923352 -0.418463558 -0.0209109746 0.999406695 0.0273665711 -0.113781251 0.924165666 -0.364652783 0.2513825 -0.755780637 0.604650676 0.272748381 0.824695945 -0.495464385 -0.201423734 -0.368859351 0.907398045 -0.312694699 0.242509216 -0.9183743 0.999930382 -0.008920867 0.00771951163 0.999953628 -0.00100117328 0.00957806781 0.999593437 -0.0274004601 0.00788871758 0.960087359 -0.10129229 0.260714769 0.950696886 -0.135644823 0.278883249 -0.817554653 0.538211226 0.204775527 -0.896727026 0.432944447 0.0918679461 -0.98867631 0.0881526172 0.121442571 -0.936045885 0.12649183 0.328356445 0.987179458 0.017006265 0.158705801 -0.705243766 0.704984903 0.0750167295 -0.659561932 0.650788605 0.376101315 0.900290132 -0.403330922 0.163712755 0.813387275 -0.569504917 -0.118597329 0.764655411 -0.287241191 -0.576883495 -0.447428375 0.881715894 0.149615854 -0.410436273 0.910149038 0.056309808 0.564841986 -0.808988094 0.162762955 0.231433064 -0.957590997 0.171634078 0.497916251 -0.848559618 -0.178957954 -0.359083682 0.863450408 0.354277074 -0.139681473 0.982090533 0.1264406 0.03385631 -0.0832255408 0.995955467 0.242244229 -0.35584566 0.902602673 0.0331349708 -0.0361172371 0.998798072 0.166596055 -0.884506941 -0.435767472 0.158712015 -0.987195373 -0.0159930494 -0.0710259378 0.872209072 0.483949006 -0.123070762 0.991538525 0.0412907042 -0.995227337 -0.0908205137 -0.0356958173 -0.9989326 -0.045164194 -0.00969094504 0.197548181 -0.723193526 0.661789894 -0.229937747 -0.341117352 0.911464512 -0.192223892 0.886906803 -0.420055062 -0.120503068 0.874238491 -0.470304251 -0.0534776598 0.856475055 -0.513410747 0.999418795 -0.014648377 0.0307805724 0.999796271 -0.0125580085 0.0158011243 0.997960567 -0.00219196035 0.0637956783 0.0786499232 -0.984528482 0.156581759 -0.00483900355 -0.982665122 -0.185326397 0.0370112807 -0.999301374 0.00518742297 -0.047743164 0.994291604 0.0954189152 0.418942124 -0.437435925 -0.795699239 -0.379908532 0.52327019 0.762796044 -0.126802847 0.361496627 0.923710585 0.0026048834 0.999735713 0.022840308 0.196257532 -0.661323607 -0.723971069 -0.999507368 -0.0075453571 -0.0304636415 -0.00680491934 0.942499697 0.334137768 -0.0574209914 0.949584186 0.308208853 0.0356128998 0.934182584 0.35501352 0.0963227227 0.918490231 0.38353312 0.243578568 -0.651218057 -0.718738139 -0.239373937 -0.925668478 -0.292981237 0.08726421 0.326374799 0.941203713 0.0217288248 0.367513716 0.929764211 0.140789479 0.291026533 0.946299076 0.187869295 0.258600622 0.947539389 -0.9969666 -0.00432747044 0.0777100772 -0.999903738 -0.010349704 0.00924340915 -0.999989688 0.00439439993 0.00115431193 0.0270829238 -0.908900201 -0.416133285 0.322719216 -0.715882301 -0.619164586 0.0174876396 0.660659313 0.750482142 0.588023901 -0.788806915 0.178917691 0.0143756932 0.64438355 0.764567316 -0.0560194403 0.493128657 0.86815089 0.912517369 -0.239581853 0.33153075 0.0788511857 -0.691006184 0.718535244 -0.00833986048 0.970632613 0.240422145 -0.0611263737 -0.478142738 0.876152456 0.0549993888 0.922104776 0.38301155 -0.0842106044 0.982376933 0.166865468 -0.127348691 0.991369724 0.0311196186 -0.0593710318 -0.973651171 0.220178232 0.0922080129 0.987308264 0.129306242 0.0320858471 0.93224442 0.360403746 -0.161967471 -0.986159027 -0.035453219 -0.115878217 -0.987906158 0.103022568 -0.209692791 -0.977578938 0.0191912949 0.0911105722 -0.894386053 0.437918335 -0.063459225 0.862557292 0.501964033 -0.0652179718 0.851812243 0.519771636 0.196783736 -0.709459066 0.676715553 0.302374989 -0.701359093 0.645495772 -0.291832596 0.779559433 0.554184794 -0.114392772 0.61225462 0.782341719 0.344707072 -0.352139354 0.870157957 -0.451758742 0.120269828 -0.883996129 -0.370267183 0.294192404 -0.881108999 -0.3065072 0.483623028 -0.819854915 -0.931245625 -0.35473612 0.0833295137 0.414784312 0.102648623 0.904111266 0.418513179 -0.179648668 0.890265763 0.368169099 0.0272730831 0.92935878 0.24505873 -0.445648044 0.861013353 0.201904476 0.833417356 0.51444149 0.212455571 0.798262894 0.563594699 -0.24510622 0.334291667 0.910039544 -0.332059205 0.355537295 -0.873687506 0.288474292 -0.951321959 0.108485326 0.17019026 -0.55104661 0.816935062 0.286000997 -0.0975567102 0.953250289 -0.739181519 0.406162858 0.537254453 0.345213294 -0.931740463 0.112638548 0.592092931 -0.802584231 0.0726949498 0.235645726 -0.357385278 0.903740466 0.291978419 -0.153726995 0.943989754 0.636946976 -0.767449975 0.072931692 0.893696189 -0.446966469 0.0390905179 0.895780981 -0.443570554 0.0286638159 0.501825809 0.0965140983 0.859567285 0.587526143 -0.0235840976 0.808861434 0.999867558 -0.0110899322 0.0119096283 0.07228484 -0.529876053 0.844988942 0.100657769 -0.502771556 0.858538747 0.0151600968 -0.581347585 0.813514113 -0.0115961321 -0.604046464 0.796864688 -0.05008379 0.952772379 -0.299527049 -0.254711479 -0.966945469 -0.0117709506 -0.358182728 -0.0353221931 0.9329831 -0.395735651 0.464372545 0.792307675 -0.300992399 0.560065508 0.771835566 -0.538523912 0.283760279 0.793392777 0.109217249 -0.880616128 0.461071372 -0.170654804 0.89168489 -0.419255346 -0.230582237 0.854502916 -0.465463787 -0.603504121 0.18050684 0.776659548 0.286797881 -0.603127778 0.744300961 -0.0724937394 -0.563796163 0.82272625 -0.0685700774 -0.749998629 0.657875538 -0.998921573 0.039352484 0.0246390011 -0.998210669 0.010697565 -0.0588308014 -0.998239458 0.0432474576 0.0405908674 -0.916495621 0.0354796946 0.398468286 -0.207370102 -0.00316131162 0.978257477 -0.519770503 0.11642196 -0.846335948 -0.488903314 0.168957144 -0.855819523 -0.483099103 0.300117046 -0.822523594 -0.465221494 0.354982466 -0.810898542 0.497590303 -0.167194352 0.851146221 -0.363426298 -0.0413600914 -0.930704415 -0.0246616937 -0.989795685 -0.140343383 -0.312929362 0.949546039 0.0209170766 -0.132574558 0.984626353 0.113731876 -0.171787605 -0.983514786 -0.05645933 0.0148799745 -0.997299731 0.0719150454 -0.186042845 0.982316196 -0.0210475698 0.0571044758 0.986738682 0.151940107 -0.349911183 0.0999657884 -0.931433856 -0.0776942745 -0.963537395 0.256045491 -0.263790607 -0.720470965 -0.641354918 0.998809576 -0.0487119369 0.00255568791 -0.384426713 0.0349977277 0.922491848 -0.334532291 -0.26706022 0.903751612 -0.350308985 -0.206696212 0.913542747 -0.212871224 -0.951479137 0.222201109 -0.308690965 -0.478800416 -0.82186377 0.33036229 0.466172814 0.820697069 0.143994153 0.727531731 0.670793056 -0.374406219 -0.261038333 -0.889763415 -0.222489685 -0.955857337 0.191924617 0.279964566 0.285691768 0.916515172 0.25885877 0.353190809 0.899026334 0.0555469431 0.920845628 0.385950595 -0.357131541 -0.177618802 -0.917010665 -0.408247799 -0.554598153 0.725089371 -0.3801727 -0.543829858 0.748142898 -0.601209164 -0.427047223 0.675409675 0.285539538 -0.00718983589 -0.958339989 0.0201762654 -0.00125251745 -0.999795675 0.0240571667 0.00802354794 -0.999678373 0.173644707 0.9632411 0.204973415 0.187389806 0.827310264 0.529568493 -0.646882057 -0.350253135 0.677396774 -0.688920975 -0.159969598 0.706963718 0.124239288 0.701442182 -0.701814413 0.365590632 0.91388905 0.176494464 0.201161668 0.491611928 0.84726131 0.444173098 0.884508193 0.142672881 0.00421063462 0.00912683923 -0.999949455 0.0804461762 0.093893528 -0.992326796 0.655058742 0.746530652 0.116576552 0.916336417 0.398730278 0.0366292745 0.663239896 0.742277682 0.0955858454 0.483309478 0.244413719 0.840638995 0.932110488 0.362169266 0.00185069081 0.0806640908 -0.989037275 0.123687476 0.0594463237 0.373602033 0.925682247 -0.150510088 0.456762344 0.87676388 -0.27502802 -0.953254342 0.12516275 -0.691375792 0.00287083094 -0.722489595 -0.564730406 0.0240326244 -0.824925482 -0.539044321 0.0275992099 -0.841825128 -0.775334537 -0.00991028454 -0.631472945 -0.137276813 0.982542336 -0.125561401 -0.317343324 -0.928698182 0.191866815 -0.94012183 0.0195182655 0.340279222 -0.985919833 -0.0645980686 -0.154237568 -0.136585474 -0.919959307 -0.367449701 -0.878007412 -0.369263411 -0.304544806 -0.795748174 -0.508632541 -0.328751951 -0.527719617 -0.221108854 -0.820135891 -0.44562003 -0.346122622 -0.825603962 0.948168635 0.224807441 0.224583596 -0.179336578 -0.90735358 -0.380194575 -0.435083836 -0.477220297 -0.763520002 0.39759621 0.471393764 0.787213564 0.511222184 0.0248163994 0.859090269 -0.287883043 0.0589099675 -0.955851972 0.997947633 0.00436868239 0.0638865754 0.985535681 -0.0364226066 -0.16550757 0.9792521 -0.042204652 -0.198202014 -0.161637187 -0.00315850298 -0.986845195 -0.0468410812 0.00373210316 -0.998895407 -0.217859909 0.00273150043 -0.975976229 -0.797420382 -0.014148633 -0.603258252 -0.963266551 -0.0140378019 0.268179953 -0.825307965 -0.0262950547 0.564070284 0.0178987496 0.831435382 -0.555333138 0.995363235 0.0100490982 0.0956608504 0.544211864 -0.258917928 0.797994375 0.999964178 -0.00696351752 -0.00481127063 0.999997854 -0.00127482519 -0.00163848826 0.192817584 0.973958969 0.119269736 -0.640953779 0.000539888279 0.767579257 -0.482085556 0.0300761051 0.875607729 -0.501517117 0.0266963392 0.864735723 -0.653705895 -0.00204598671 0.756745934 0.00655646715 -0.00658261077 0.999956846 0.00323233358 -0.00148805545 0.999993682 0.00450896239 -0.0059520728 0.999972105 0.0163797103 -0.00761347916 0.999836862 -0.00675598392 0.00228786282 0.999974549 -0.00901449658 0.00493704714 0.99994719 0.00356562855 -0.0185131039 0.999822259 0.012099606 -0.00656768028 0.999905229 0.023722183 -0.0030095526 0.999714077 -0.0165348519 0.0717608333 0.99728483 0.0371894166 -0.0194659885 0.999118626 -0.00255412026 0.00858043693 0.999959946 -0.0527921915 0.0681956187 0.996274233 -0.00089718122 -0.0183559358 0.99983114 0.0177323241 0.0220008679 0.999600708 0.00715178763 -0.0294249337 0.999541402 0.1949853 0.110671796 0.974542201 -0.118226178 0.890824616 -0.438695818 -0.980965972 -0.0901268646 0.171996906 -0.00491362251 -0.00227020797 -0.999985337 0.000671898073 0.000110423876 -0.999999762 -0.00477904687 -0.00173172494 -0.999987066 0.0237784609 -0.0290434901 -0.999295294 0.074146308 0.291632593 0.953652322 -3.18565253e-05 0.0039307964 -0.999992251 -0.00285187643 0.00929313432 -0.999952734 -0.043338608 0.0983401835 -0.994208694 0.0116642872 0.00546352612 -0.99991703 0.0310664363 -0.000981002813 -0.999516845 0.998977959 -0.00551053369 0.0448627323 0.993830144 -0.00675374595 0.110706829 0.995460629 -0.0157666169 0.0938591212 -0.0316884294 0.004776082 -0.999486387 0.00639541354 0.0144771375 -0.999874771</float_array>
          <technique_common>
            <accessor source="#normals_array" count="343" stride="3">
              <param name="X" type="float" />
              <param name="Y" type="float" />
              <param name="Z" type="float" />
            </accessor>
          </technique_common>
        </source>
        <vertices id="vertices">
          <input semantic="POSITION" source="#positions" />
        </vertices>
        <triangles material="scout_333333" count="380">
          <input semantic="VERTEX" source="#vertices" offset="0" />
          <input semantic="NORMAL" source="#normals" offset="1" />
          <p>0 0 1 1 2 2 3 3 1 1 0 0 3 3 0 0 4 4 5 5 6 6 7 7 8 8 9 9 1 10 10 11 11 12 12 13 13 14 14 15 15 16 16 17 17 18 14 15 14 15 17 18 15 16 13 14 7 7 14 15 18 19 19 20 9 21 20 22 21 23 18 19 22 24 23 25 9 9 2 2 19 20 18 19 21 23 2 2 18 19 20 22 18 19 24 26 15 27 25 28 26 29 27 30 28 31 25 32 29 33 30 34 31 35 31 35 32 36 29 33 33 37 32 37 31 37 34 38 30 39 35 40 29 41 36 42 35 40 31 43 37 43 33 43 24 26 22 44 38 45 23 46 22 44 24 26 39 47 28 31 27 30 25 28 40 48 26 29 41 49 0 0 2 2 42 50 17 18 16 17 6 6 16 17 7 7 4 4 0 0 41 49 43 51 4 4 41 49 44 52 4 4 43 51 16 17 45 53 42 50 6 6 45 53 16 17 43 51 41 49 46 54 42 50 47 55 17 18 17 18 47 55 27 30 46 56 41 49 21 23 48 57 46 56 21 23 42 50 49 58 47 55 45 53 50 59 42 50 48 60 43 51 46 54 51 61 50 59 45 53 42 50 50 59 49 58 49 58 52 62 47 55 49 63 48 63 53 63 47 55 39 47 27 30 49 64 53 65 52 66 20 22 53 67 21 23 49 68 50 69 48 70 34 38 54 71 30 39 55 72 56 73 57 74 58 75 54 75 34 75 59 76 37 76 31 76 58 77 60 77 54 77 59 78 61 78 37 78 37 79 58 80 34 81 50 69 51 82 48 70 51 82 62 83 48 70 52 62 39 47 47 55 63 84 64 85 65 86 65 86 3 3 66 87 66 87 63 84 65 86 44 52 63 84 66 87 67 88 5 5 7 7 68 89 64 85 63 84 44 52 69 90 63 84 70 91 71 92 67 88 71 92 5 5 67 88 71 92 72 93 5 5 73 94 74 95 68 89 75 96 76 97 77 98 69 90 73 94 63 84 77 98 71 92 75 96 78 99 73 94 69 90 73 94 79 100 74 95 76 101 75 102 70 103 78 99 79 100 73 94 80 104 77 98 81 105 78 99 82 106 79 100 79 100 83 107 74 95 84 108 85 109 32 36 86 110 84 110 32 110 86 111 32 111 33 111 85 112 87 113 88 114 87 115 86 116 33 117 41 49 2 2 21 23 81 105 76 97 89 118 90 119 81 105 91 120 82 106 92 121 79 100 44 52 66 87 4 4 5 5 72 93 6 6 72 93 45 53 6 6 93 122 72 93 71 92 72 93 93 122 45 53 43 51 94 123 44 52 77 98 93 122 71 92 44 52 94 123 69 90 69 90 94 123 78 99 62 124 94 123 43 51 95 125 79 100 92 121 93 122 51 61 45 53 80 104 93 122 77 98 94 123 82 106 78 99 80 104 51 126 93 122 85 109 84 108 59 127 96 128 97 129 87 130 96 128 87 130 85 131 61 132 59 132 84 132 61 133 84 133 86 133 97 134 96 135 60 136 97 134 60 136 58 137 60 138 96 139 54 140 80 104 98 141 99 142 99 143 82 106 62 124 98 144 100 144 99 144 100 145 82 106 99 143 82 106 100 145 101 146 80 104 99 142 51 126 99 147 62 83 51 82 90 119 80 104 81 105 98 141 80 104 90 119 100 148 98 148 102 148 82 106 101 149 92 121 103 150 38 150 22 150 104 151 105 152 101 149 106 153 95 125 92 121 20 22 24 26 107 154 40 155 56 73 108 156 109 157 110 158 103 159 111 160 20 22 107 154 110 158 109 157 11 12 10 11 107 154 110 158 107 154 10 11 111 160 56 73 55 161 108 156 112 162 108 156 55 161 113 163 111 160 10 11 114 164 111 160 113 163 113 163 10 11 12 13 115 165 116 166 55 161 117 167 114 164 113 163 118 168 119 169 115 170 8 171 3 3 65 86 120 172 121 173 122 174 123 175 117 167 113 163 104 151 124 176 125 177 126 178 116 166 115 165 123 175 113 163 12 13 119 169 126 179 115 170 12 13 11 12 127 180 128 181 123 175 12 13 129 182 117 167 123 175 130 183 131 183 126 183 128 184 12 13 127 180 132 185 128 184 127 180 123 175 128 181 133 186 134 187 123 175 133 186 129 182 123 175 134 187 133 188 128 184 132 185 135 189 134 190 133 188 48 60 62 124 43 51 136 191 129 182 134 187 137 192 136 191 134 187 138 193 134 190 135 189 39 194 53 195 20 196 139 197 39 194 20 196 39 47 139 198 56 73 39 47 56 73 28 31 140 199 141 199 142 199 143 200 139 200 20 200 57 201 139 202 143 203 143 204 20 22 111 160 144 205 145 206 55 72 143 203 144 207 57 201 146 208 144 209 143 204 147 210 144 209 146 208 147 211 148 212 144 213 147 211 149 214 148 212 150 215 149 215 147 215 143 204 111 160 114 164 114 164 146 208 143 204 148 216 151 217 145 218 148 216 145 218 144 219 121 173 146 208 114 164 121 173 114 164 117 167 121 173 152 220 146 208 145 218 151 217 118 168 151 217 119 169 118 168 151 217 153 221 119 169 120 172 152 220 121 173 24 26 38 45 103 159 118 168 115 170 145 218 15 16 27 30 25 32 107 154 103 159 110 158 90 119 91 120 154 222 105 152 106 153 92 121 92 121 101 149 105 152 112 162 55 161 116 166 105 152 155 223 106 153 155 223 105 152 156 224 73 94 68 89 63 84 103 159 107 154 24 26 157 225 154 222 158 226 156 224 159 227 155 223 156 224 160 228 159 227 119 169 130 229 126 179 157 225 158 226 161 230 162 231 154 222 157 225 137 232 134 190 138 193 144 205 55 72 57 74 163 233 164 234 124 235 157 225 161 230 165 236 166 237 162 231 157 225 167 238 168 239 125 177 169 240 162 231 166 237 166 241 157 225 165 236 170 242 171 243 136 191 168 239 172 244 104 151 125 177 168 239 104 151 169 240 173 245 153 221 166 246 165 247 174 248 138 249 135 250 175 251 173 245 169 240 166 237 171 243 167 238 120 172 171 243 168 239 167 238 172 244 176 252 160 228 177 253 176 252 172 244 177 253 172 244 168 239 173 245 130 229 153 221 171 243 120 172 122 174 173 254 174 248 131 255 171 243 122 174 129 182 173 254 166 246 174 248 160 256 176 256 178 256 70 91 75 96 71 92 177 253 178 257 176 252 177 253 171 243 179 258 177 253 179 259 178 257 81 105 77 98 76 97 117 167 122 174 121 173 178 260 180 261 175 251 170 262 181 263 180 264 181 265 170 242 136 191 178 257 170 262 180 264 179 259 170 262 178 257 138 193 181 263 137 232 181 265 136 191 137 192 175 266 181 263 138 193 102 267 98 141 90 119 101 146 102 268 182 269 182 270 102 267 90 119 65 271 64 271 8 271 183 272 184 273 142 274 66 87 3 3 4 4 183 275 185 275 184 275 163 276 182 270 90 119 101 146 182 269 163 233 149 214 186 277 148 212 149 214 187 278 186 277 163 279 90 119 154 222 163 233 124 235 101 146 101 149 124 176 104 151 187 278 164 280 186 277 187 278 124 281 164 280 102 268 101 146 100 145 151 217 148 216 169 240 186 282 188 283 148 216 187 284 149 284 150 284 164 285 163 279 154 222 188 283 164 286 162 231 164 286 188 283 186 282 164 285 154 222 162 231 124 176 187 287 125 177 120 172 150 288 152 220 188 283 169 240 148 216 187 287 150 288 120 172 167 238 187 287 120 172 169 240 153 221 151 217 162 231 169 240 188 283 167 238 125 177 187 287 189 289 119 169 153 221 184 290 140 291 142 292 56 73 40 155 28 31 2 2 1 1 19 20 18 19 9 21 23 46 79 100 95 125 83 107 159 293 109 294 155 295 189 289 153 221 130 229 40 155 25 32 28 31 53 67 48 57 21 23 180 264 181 263 175 266 141 296 183 272 142 274 88 297 190 298 29 33 191 299 88 114 87 113 7 7 13 14 67 88 16 17 14 15 7 7 117 167 129 182 122 174 130 229 119 169 189 289 185 300 140 291 184 290 59 127 96 139 85 109 88 297 29 33 32 36 32 36 85 109 88 297 150 288 147 301 152 220 82 106 94 123 62 124 87 115 97 302 61 303 61 303 86 116 87 115 97 302 58 80 61 303 61 303 58 80 37 79 172 244 160 228 156 224 154 222 89 118 158 226 88 304 191 304 190 304 183 305 141 306 140 307 185 308 183 305 140 307 1 1 3 3 8 171 161 309 158 310 112 311 112 311 158 310 108 312 40 313 158 310 89 314 158 310 40 313 108 312 89 314 26 315 40 313 165 316 161 309 112 311 174 317 165 316 116 166 89 314 191 318 36 319 89 314 36 319 26 315 191 318 89 314 190 320 89 314 76 101 190 320 131 321 174 317 116 166 36 319 29 322 26 315 112 311 116 166 165 316 29 322 190 320 67 323 190 320 70 103 67 323 29 322 67 323 15 324 67 323 13 325 15 324 15 324 26 315 29 322 131 321 116 166 126 178 30 34 54 140 31 35 31 35 54 140 59 127 54 140 96 139 59 127 104 151 172 244 156 224 177 253 168 239 171 243 154 222 91 120 89 118 145 206 115 326 55 72 131 327 130 327 173 327 11 328 109 294 159 293 159 293 160 329 11 328 11 328 160 329 127 330 127 330 160 329 178 260 127 330 178 260 135 250 178 260 175 251 135 250 132 331 127 330 135 250 1 1 9 21 19 20 17 18 27 30 15 16 39 332 52 66 53 65 29 41 35 40 30 39 64 333 68 334 8 8 68 334 74 335 83 336 8 8 68 334 83 336 22 24 83 336 95 337 22 24 9 9 83 336 9 9 8 8 83 336 34 81 35 338 37 79 36 339 191 340 33 117 35 338 36 339 33 117 37 79 35 338 33 117 191 340 87 115 33 117 133 188 132 185 135 189 147 301 146 208 152 220 155 295 109 294 103 341 106 342 155 295 22 24 95 337 106 342 22 24 155 295 103 341 22 24 110 158 11 12 10 11 105 152 104 151 156 224 190 320 76 101 70 103 179 258 171 243 170 242 129 182 136 191 171 243 57 74 56 73 139 198 81 105 89 118 91 120 23 46 24 26 18 19</p>
        </triangles>
      </mesh>
    </geometry>
  </library_geometries>
  <library_visual_scenes>
    <visual_scene id="scene">
      <node id="left_ankle_roll_link">
        <instance_geometry url="#geometry">
          <bind_material>
            <technique_common>
              <instance_material symbol="scout_333333" target="#scout_333333" />
            </technique_common>
          </bind_material>
        </instance_geometry>
      </node>
    </visual_scene>
  </library_visual_scenes>
  <scene>
    <instance_visual_scene url="#scene" />
  </scene>
</COLLADA>