<?xml version='1.0' encoding='utf-8'?>
<COLLADA xmlns="http://www.collada.org/2005/11/COLLADASchema" version="1.4.1">
  <asset>
    <created>2026-09-14T00:00:00Z</created>
    <modified>2026-09-14T00:00:00Z</modified>
    <unit name="metre" meter="1" />
    <up_axis>Z_UP</up_axis>
  </asset>
  <library_effects>
    <effect id="scout_b2b2b2_effect">
      <profile_COMMON>
        <technique sid="common">
          <lambert>
            <emission>
              <color>0 0 0 1</color>
            </emission>
            <ambient>
              <color>0.35 0.35 0.35 1</color>
            </ambient>
            <diffuse>
              <color>0.7 0.7 0.7 1</color>
            </diffuse>
          </lambert>
        </technique>
      </profile_COMMON>
    </effect>
  </library_effects>
  <library_materials>
    <material id="scout_b2b2b2" name="scout_b2b2b2">
      <instance_effect url="#scout_b2b2b2_effect" />
    </material>
  </library_materials>
  <library_geometries>
    <geometry id="geometry" name="left_shoulder_roll_link">
      <mesh>
        <source id="positions">
          <float_array id="positions_array" count="285">0.0410919674 -0.00655252114 0.000390441652 0.0408769287 0.0102786301 -0.00638786238 0.0410162471 0.00697318465 0.00607442716 -0.0388152935 -0.010901087 0.0227915458 -0.0381842293 -0.00205973489 0.0265848693 -0.0401396453 0.00657896884 0.0201219376 0.0338704288 0.0370739028 -0.00353537174 -0.0340362377 0.0368647762 -0.00172637857 0.0341161378 0.0353892818 0.00446985057 0.0401729904 0.00114461791 0.019803999 0.0402982719 0.00322476192 -0.0178833883 0.0399016999 0.0205976125 -0.00847385265 0.0401921682 0.0154160736 0.0122215999 0.038900353 0.0263360497 0.00294940919 0.0388520434 -0.0108747128 0.0227284189 0.039865505 -0.0159821119 0.0138649223 0.0334709696 0.00401065499 -0.0677402392 0.0402662493 -0.00988174044 -0.0149190379 0.0377001651 0.0244550444 0.0153524214 0.0394017287 -0.0228247214 0.00362863275 0.040414039 -0.0166461896 0.00137224875 0.0397213735 -0.0189656317 -0.0106728729 0.0328675881 0.0143117094 -0.0674153492 0.0240126681 0.00954632089 -0.103203788 0.0368784778 0.0312913954 -0.00950366631 0.0382594019 0.00954458397 0.0251089633 0.0344219171 -0.0239369553 0.0226894971 0.0224297531 -0.00280514359 -0.103203952 0.0340053476 -0.0180417579 0.0278955828 -0.034405265 -0.0239096042 0.0227380171 0.0340369008 -0.0271589831 0.0188511498 -0.0340366885 -0.0310494099 0.0111512318 0.0340959206 -0.0316948928 0.00933927391 0.020784609 0.0182400029 -0.103199996 0.028689621 0.0258530527 -0.0675653219 0.034006115 0.0316169746 0.014120061 0.0340509452 0.0276355613 0.020104412 0.0381968245 -0.00207316829 0.0265681278 0.0340492204 -0.0103645707 0.0316382907 -0.0340797976 0.0264840238 0.0215172153 0.0340380929 0.0229309276 0.0250058025 0.0358721204 -0.0294099674 -0.00949354749 0.0312143527 -0.00569740171 -0.0676052794 0.0149850082 0.0252082534 -0.103200473 0.0341086872 0.0149335591 0.0301199462 0.034057457 -0.00156241574 0.0333881341 0.0373953022 -0.0269121844 0.00774380844 0.0341350064 -0.0329163 -0.00217249361 0.0148556028 -0.0129360827 -0.103198394 0.0215070043 0.0341345631 -0.0674360991 0.0328402221 0.0376966931 -0.0105756847 0.0340405554 0.00676775724 0.0327494182 0.0116287153 0.0390695035 -0.0673297718 -0.0400593877 -0.0166592877 0.0116263423 0.00668354472 -0.0170802325 -0.103087887 -0.00308713061 0.0302244481 -0.103201993 0.00621165708 0.0294222217 -0.103199996 0.00325992587 -0.0267401282 -0.0680505335 -0.00338958739 -0.0177001413 -0.103201665 -0.00224055885 0.0400290824 -0.0674148202 -0.0339909866 0.0325113386 0.0125795938 -0.0339899249 0.0214678068 0.0261346363 -0.0340417139 -0.0271437503 0.0188557003 -0.0207846109 -0.00576000055 -0.103199996 -0.0339992456 -0.0179393552 0.0279632024 -0.00784754474 -0.0259973966 -0.0678812563 -0.0119999992 0.02702461 -0.103199996 -0.0131096551 0.038519647 -0.0674660131 -0.0314500667 0.0379769877 -0.0134094693 0.00215662387 0.0398591012 -0.0305636395 -0.0340415873 0.00423775287 0.0332633555 -0.0340716653 -0.0327893645 0.00290645706 -0.0342270732 -0.0322046876 -0.00682765851 -0.0143679427 -0.0132159619 -0.1031987 -0.019507058 0.0206510928 -0.103201486 -0.0217568092 0.0339417122 -0.0674632117 -0.0282406025 0.0262130406 -0.0681171343 -0.0335630327 0.0365234278 -0.0118833994 -0.0377135277 0.0300357211 -0.00748044113 -0.0326053351 0.0156866554 -0.0676208213 -0.0231822208 0.0124516543 -0.103199996 -0.0388472974 0.0082022734 0.0241251346 -0.0311576668 -0.00582505902 -0.0676334798 -0.0239251852 0.00269607734 -0.10320276 -0.0383969918 -0.0235884115 -0.0104038827 -0.0401560888 -0.0159353577 -0.0112527236 -0.0334805772 0.00403114967 -0.0677292943 -0.0376568288 0.0275676977 0.00974794198 -0.0372562334 0.0186205171 0.022282837 -0.0340395533 0.0146916118 0.0302338302 -0.0340665579 -0.0081708869 0.0324130207 -0.038109839 -0.0255409963 0.00751975738 -0.0389631353 -0.024304498 -0.00235167961 -0.0401513316 0.00929088239 -0.0180769116 -0.040040195 0.0215529446 0.00208381843</float_array>
          <technique_common>
            <accessor source="#positions_array" count="95" stride="3">
              <param name="X" type="float" />
              <param name="Y" type="float" />
              <param name="Z" type="float" />
            </accessor>
          </technique_common>
        </source>
        <source id="normals">
          <float_array id="normals_array" count="405">0.999403954 -0.0344397202 0.00237695617 0.997875512 0.0532524288 -0.0375317782 0.998917162 0.0337326676 0.0320404135 -0.93534106 -0.16860722 0.31098029 -0.911560595 -0.0364634059 0.40954569 -0.985502601 0.0584852919 0.159260988 0.00456847809 0.98826462 0.152683377 -0.00483123725 0.979629219 0.200756714 0.00260690041 0.958227813 0.285994232 0.984513462 0.00859352201 0.175098196 0.994327903 0.0227499586 -0.10389635 0.982741654 0.170637742 -0.0714251474 0.983734548 0.134197548 0.119404174 0.949507117 0.307611406 0.0617370754 0.931915939 -0.170587599 0.320050806 0.967369854 -0.194443434 0.162441701 0.975599766 -0.0721457973 -0.207364574 0.991917908 -0.0737551674 -0.10324233 0.906722188 0.338819504 0.251109868 0.953418374 -0.300146937 0.0300873145 0.993746936 -0.111525461 0.00539212488 0.964869797 -0.23429969 -0.118869521 0.959181547 0.197543144 -0.202354714 0.954592705 0.109995984 -0.276863873 0.913821459 0.395895481 -0.0905380175 0.917927444 0.145303667 0.369182944 0.893126905 -0.335229695 0.299908966 0.890525877 -0.360314161 -0.277736217 0.000233712111 -0.556789935 0.83065331 -0.000161228658 -0.715320408 0.69879663 0.000208173573 -0.715531528 0.698580384 0.00137697428 -0.839025676 0.544090092 -0.00180855452 -0.942889273 0.333101392 0.0041574561 -0.962185621 0.272362798 0.833028257 0.473586023 -0.285972297 0.839836955 0.491824985 -0.229743391 0.847727656 0.477127045 0.231749088 0.832015634 0.428854257 0.351900637 0.860657334 -0.271415323 0.430816233 0.909998596 -0.0306348763 0.413478047 0.856479287 -0.167846233 0.488129944 0.000214059721 0.780758679 0.62483269 -0.00225821324 0.758433104 0.651746988 0.00214855443 0.634437144 0.772971451 0.779943049 -0.597558856 -0.186043784 0.915748119 -0.325994194 -0.234804586 0.586857617 0.752338052 -0.299308538 0.882587075 0.45596987 0.114593111 0.881953478 0.471295565 0.00620638859 0.880744398 0.284038365 0.378961146 0.86338222 0.236564577 0.445654929 0.856916547 -0.0202039909 0.515059114 0.868679106 -0.425782084 0.253192067 0.889568627 -0.436877817 0.133437008 0.836594999 -0.525526226 0.154696673 0.494664222 -0.868753254 -0.023981262 0.613606274 -0.741891325 -0.270341754 0.588247776 0.775292099 -0.22997123 0.502650619 0.863458097 -0.04221889 0.859855175 0.0807041079 0.504118919 0.240920335 0.955502629 -0.170211941 -0.977662742 -0.168869376 0.125134557 -0.895647049 -0.330292344 0.297864676 0.25537172 -0.931880951 -0.257649273 -0.113793492 0.951290846 -0.286525339 0.244793415 0.92639637 -0.286122262 0.10072282 -0.975321651 -0.196475327 -0.157134593 -0.952297807 -0.261605918 -0.0276685953 0.990062237 -0.137880951 -0.00365622784 0.902322829 0.431045443 -0.00125070743 0.600094795 0.79992795 -0.000764261174 0.424300432 0.905521154 -0.000149744228 -0.834026456 0.551724434 0.000989143737 -0.00415028865 -0.99999088 -1.92885182e-05 -0.000123249425 -1 -1.83153588e-05 0.000142339471 -1 0.0023666143 -0.320405781 0.947277427 -0.00149372953 -0.544764817 0.838587523 -0.209863067 -0.954144597 -0.213460848 -0.473654091 0.825687826 -0.306417018 -0.28890416 0.94026053 -0.180123731 -0.348482162 0.936454356 -0.040167883 0.0103354836 0.999304831 0.0358188599 -0.00337952538 0.109098367 0.99402523 0.000126058483 0.195812389 0.980641365 -0.00450773491 -0.997252882 0.073934868 -0.522589266 -0.843309999 -0.125414103 -0.55733788 -0.784691334 -0.271355927 -0.772452414 0.563002527 -0.293846011 -0.600345612 0.7667225 -0.22742404 0.0040950207 -0.0598086715 0.99820143 -0.831943691 0.504205644 -0.231616825 -0.756571651 0.644016862 -0.113320924 -0.934950411 0.34865281 -0.0656422675 -0.952259898 0.221313879 -0.210288554 -0.830721974 -0.486472636 -0.270638913 -0.93416816 0.234733269 -0.268756628 -0.855320215 0.0615188852 0.514434397 -0.919308424 0.124936812 0.373179406 -0.909353793 -0.344215721 -0.233647645 -0.954458773 -0.133457735 -0.266828597 -0.910318792 -0.375888348 -0.173284993 -0.987846494 -0.125080526 -0.092272304 -0.975786865 -0.0658177212 -0.208585888 -0.86581707 0.499160528 0.0346354954 -0.913027823 0.368467778 0.174962118 -0.856771469 0.394996732 0.331542253 -0.840259135 0.489328057 0.233500704 -0.902541041 0.273070097 0.332945049 -0.826190889 0.335787654 0.452388406 -0.851006687 0.207460925 0.48243922 -0.85935986 -0.268028051 0.435501516 -0.85420233 -0.135140583 0.502071083 -0.911219239 -0.392258883 0.125747472 -0.870497167 -0.422360271 0.252678603 -0.844756186 -0.501479566 0.186829373 -0.85763222 -0.513093472 0.0346702486 -0.941928148 -0.334926337 -0.0244068056 -0.994209528 0.062700808 -0.0872699842 -0.985969961 0.164599165 0.0277553871 0.00116585835 0.886301816 0.463106543 -0.00492969947 -0.246586606 0.969108224 0.000107869026 0.400866538 0.916136444 0.000273415179 0.000682880171 -0.999999702 9.64992578e-05 4.64607328e-05 -1 0.000330022624 0.000490346109 -0.999999821 0.00154131826 -0.00522181857 -0.999985158 0.0146994777 -0.0556064583 -0.998344541 0.000158427676 -0.000128934538 -1 -0.00125562737 0.000378537952 -0.999999166 -0.000191576532 0.000161179181 -0.99999994 -0.000534405874 0.000862313784 -0.999999464 3.89635134e-05 0.000137350769 -1 2.01401974e-07 -0.000128459316 -1 -0.000526362332 -0.000626591325 -0.999999642</float_array>
          <technique_common>
            <accessor source="#normals_array" count="135" stride="3">
              <param name="X" type="float" />
              <param name="Y" type="float" />
              <param name="Z" type="float" />
            </accessor>
          </technique_common>
        </source>
        <vertices id="vertices">
          <input semantic="POSITION" source="#positions" />
        </vertices>
        <triangles material="scout_b2b2b2" count="186">
          <input semantic="VERTEX" source="#vertices" offset="0" />
          <input semantic="NORMAL" source="#normals" offset="1" />
          <p>0 0 1 1 2 2 3 3 4 4 5 5 6 6 7 7 8 8 2 2 9 9 0 0 10 10 1 1 0 0 11 11 12 12 1 1 12 12 9 9 2 2 10 10 11 11 1 1 13 13 12 12 11 11 14 14 15 15 9 9 16 16 10 10 17 17 13 13 18 18 12 12 19 19 20 20 15 15 19 19 21 21 20 20 16 16 17 17 21 21 22 22 10 10 16 16 16 16 23 23 22 22 24 24 13 13 11 11 18 18 25 25 12 12 25 25 9 9 12 12 26 26 15 15 14 14 27 27 23 23 16 16 28 28 29 29 26 30 30 31 31 32 32 33 33 34 34 35 23 23 34 35 22 22 23 23 21 21 17 17 20 20 35 36 36 37 18 18 14 14 28 38 26 26 37 39 38 40 14 14 38 40 28 38 14 14 36 41 39 42 40 43 41 44 42 45 21 21 42 45 16 16 21 21 42 45 27 27 16 16 43 46 34 35 33 34 24 24 22 22 34 35 24 24 11 11 22 22 13 13 8 47 18 18 8 47 35 36 18 18 24 24 6 48 13 13 6 48 8 47 13 13 40 49 18 18 36 37 40 49 44 50 18 18 44 50 25 25 18 18 45 51 38 40 37 39 30 52 46 53 26 26 30 52 32 54 46 53 47 55 41 44 46 53 32 54 47 55 46 53 42 45 41 44 27 27 41 44 48 56 27 27 49 57 34 35 43 46 50 58 24 24 34 35 50 58 6 48 24 24 44 50 51 59 25 25 52 60 49 57 43 46 50 58 34 35 49 57 53 61 29 62 3 3 41 44 47 55 48 56 47 55 54 63 48 56 55 64 52 60 56 65 50 58 49 57 52 60 57 66 54 63 47 55 57 66 58 67 54 63 59 68 52 60 55 64 7 7 60 69 8 8 61 70 44 71 40 43 36 41 60 69 39 42 41 44 19 19 46 53 30 31 29 29 62 72 58 73 63 74 55 75 38 76 64 77 28 28 57 66 65 78 58 67 66 79 67 80 55 64 67 80 59 68 55 64 67 80 68 81 59 68 69 82 50 58 52 60 46 53 15 15 26 26 44 71 70 83 51 84 20 20 0 0 15 15 32 33 71 85 47 55 72 86 47 55 71 85 65 78 73 87 58 67 57 66 72 86 65 78 74 88 75 89 66 79 75 89 67 80 66 79 69 82 6 6 50 58 15 15 0 0 9 9 51 84 70 83 45 90 65 78 72 86 73 87 76 91 75 89 74 88 77 92 68 81 75 89 68 81 67 80 75 89 0 0 17 17 10 10 78 93 76 91 79 94 72 86 63 95 73 87 80 96 79 94 74 88 79 94 76 91 74 88 76 91 77 92 75 89 7 7 69 82 68 81 17 17 0 0 20 20 70 97 81 98 4 4 82 99 83 100 63 95 72 86 82 99 63 95 83 100 79 94 80 96 84 101 85 102 86 103 78 93 77 92 76 91 77 92 7 104 68 81 87 105 39 106 60 107 7 104 87 105 60 107 87 105 88 108 39 106 88 108 61 109 39 106 88 108 89 110 61 109 78 93 87 105 7 104 88 108 81 98 89 110 81 98 70 97 89 110 3 3 29 62 64 111 90 112 3 3 64 111 29 62 91 113 62 114 91 113 31 115 62 114 4 4 3 3 90 112 91 113 71 116 31 115 4 4 90 112 70 97 72 86 84 101 82 99 82 99 86 103 83 100 71 116 92 117 72 86 92 117 84 101 72 86 91 113 92 117 71 116 86 103 79 94 83 100 86 103 93 118 79 94 78 93 7 104 77 92 78 93 94 119 87 105 84 101 86 103 82 99 85 102 93 118 86 103 93 118 78 93 79 94 94 119 78 93 93 118 5 5 88 108 87 105 94 119 5 5 87 105 5 5 81 98 88 108 5 5 4 4 81 98 92 117 91 113 53 61 9 9 25 25 37 39 53 61 93 118 85 102 45 51 25 25 51 59 5 5 53 61 3 3 53 61 85 102 92 117 35 120 8 8 60 69 69 82 7 7 6 6 40 43 39 42 61 70 28 28 64 77 29 29 30 31 62 72 31 32 38 76 45 90 90 121 22 22 11 11 10 10 52 60 43 46 56 65 61 70 89 122 44 71 36 41 35 120 60 69 30 31 26 30 29 29 69 82 52 60 59 68 55 75 56 123 43 124 43 124 33 125 55 75 48 126 54 127 58 73 83 128 80 129 74 130 74 130 66 131 55 75 33 125 23 132 55 75 23 132 27 133 55 75 27 133 48 126 58 73 58 73 73 134 63 74 63 74 83 128 55 75 83 128 74 130 55 75 27 133 58 73 55 75 38 76 90 121 64 77 46 53 19 19 15 15 41 44 21 21 19 19 32 33 31 32 71 85 70 83 90 121 45 90 44 71 89 122 70 83 69 82 59 68 68 81 57 66 47 55 72 86 1 1 12 12 2 2 91 113 29 62 53 61 14 14 9 9 37 39 84 101 92 117 85 102 94 119 93 118 5 5 53 61 5 5 93 118 45 51 37 39 25 25</p>
        </triangles>
      </mesh>
    </geometry>
  </library_geometries>
  <library_visual_scenes>
    <visual_scene id="scene">
      <node id="left_shoulder_roll_link">
        <instance_geometry url="#geometry">
          <bind_material>
            <technique_common>
              <instance_material symbol="scout_b2b2b2" target="#scout_b2b2b2" />
            </technique_common>
          </bind_material>
        </instance_geometry>
      </node>
    </visual_scene>
  </library_visual_scenes>
  <scene>
    <instance_visual_scene url="#scene" />
  </scene>
</COLLADA>