<?xml version='1.0' encoding='utf-8'?>
<COLLADA xmlns="http://www.collada.org/2005/11/COLLADASchema" version="1.4.1">
  <asset>
    <created>2026-09-14T00:00:00Z</created>
    <modified>2026-09-14T00:00:00Z</modified>
    <unit name="metre" meter="1" />
    <up_axis>Z_UP</up_axis>
  </asset>
  <library_effects>
    <effect id="scout_b2b2b2_effect">
      <profile_COMMON>
        <technique sid="common">
          <lambert>
            <emission>
              <color>0 0 0 1</color>
            </emission>
            <ambient>
              <color>0.35 0.35 0.35 1</color>
            </ambient>
            <diffuse>
              <color>0.7 0.7 0.7 1</color>
            </diffuse>
          </lambert>
        </technique>
      </profile_COMMON>
    </effect>
  </library_effects>
  <library_materials>
    <material id="scout_b2b2b2" name="scout_b2b2b2">
      <instance_effect url="#scout_b2b2b2_effect" />
    </material>
  </library_materials>
  <library_geometries>
    <geometry id="geometry" name="left_shoulder_pitch_link">
      <mesh>
        <source id="positions">
          <float_array id="positions_array" count="234">-0.0313865393 0.0517643839 -0.0413903669 -0.0285044387 0.0482204035 -0.0484104604 -0.0296201296 0.0253239367 -0.0471112877 -0.0314335637 0.066378139 -0.0265913941 -0.0289286207 0.0636807382 -0.0383783877 -0.0287347082 0.00467776228 -0.00532307569 -0.0228853747 0.0046410854 -0.0178903677 -0.0257839449 0.000799908477 -0.0115561951 -0.0310770925 0.00925369188 -0.00221683807 -0.0296999551 0.0055048964 -0.0259704273 -0.0283022672 0.00379069941 0.00702207722 -0.0278670657 -4.79194604e-08 -0.00263606524 -0.0278670862 -4.80067719e-08 -0.00188290374 -0.0278671179 -4.81086353e-08 -0.00112974225 -0.0301294401 0.0101308692 -0.0349444188 -0.00111028133 0.00981516298 -0.038024772 -0.0290349759 0.0721351281 -0.0232280008 -0.0299655106 0.0722189173 -0.00591229927 -0.00780195836 0.00549955852 -0.0284557808 -0.0146658402 0.000217334833 -0.0244496167 0.0255206376 0.000834273989 0.0125337793 -0.0023051817 0.000908417045 -0.0278388299 -0.028064955 0.00513121812 0.0358302556 -0.0287508182 0.0686010644 0.00437029637 -0.0314027257 0.0529039651 0.0140294107 -0.0278670955 -4.84724296e-08 0.00188290374 -0.0278670695 -4.85742966e-08 0.00263606524 -0.0278670508 -4.867616e-08 0.00338922674 -0.0278670397 -4.87634715e-08 0.00414238824 -0.0278670304 -4.8850783e-08 0.00489554973 -0.0278670099 -3.25962937e-08 0.00527264783 -0.0267942864 0.0010774082 0.00858551171 -0.0278664846 -4.82978066e-08 0.000376580749 -0.0278664846 -4.82104952e-08 -0.000376580749 -0.0310304407 0.0253840759 0.0140620079 -0.0284952074 0.0426079631 0.023018891 -0.0284800902 0.0623463318 0.0126504302 -0.0136077441 0.00471754093 0.0265835617 -0.0201631617 -0.000411904446 0.0197656229 -0.0100148274 0.000629630289 0.0263771787 -0.000565423281 0.0733887479 -0.0252730884 0.0033376019 0.0735113323 -0.00369626144 0.0299751852 0.0733264312 -0.0134132849 0.031585414 0.025482323 -0.0421222225 0.0289342999 0.022096293 -0.0457455926 0.0290064197 0.0420226119 -0.0491963923 0.0290735029 0.0672902018 0.00663673831 0.0065059308 0.00455579767 0.0284715258 0.0039095683 0.000469526247 0.0278072134 0.0127234906 0.000504330383 -0.0254952107 0.0106410859 0.00521242479 -0.0268857796 0.0235853009 0.00453598378 -0.0174821056 0.00222163135 0.0306512415 -0.0499687269 0.0298533645 0.00647947565 -0.0298448075 0.0248886775 0.000511046732 -0.0134282224 0.029011704 0.0049642846 0.00528907636 0.0279689636 0.000655317504 -0.00266440492 0.0311988965 0.00700611668 -0.00458090799 0.029659735 0.0677691922 -0.0332287103 0.0288758185 0.0545953959 -0.0451526642 0.00320730172 0.063750267 -0.0403147191 0.0313395523 0.0533653684 -0.0407178029 0.0141764646 0.000819840701 0.02442527 0.0284483675 0.0551108308 0.0174425654 -0.00832511578 0.0519824103 0.0203073751 0.0063038948 0.0261239056 0.0320729837 0.0212932359 0.00469163805 0.0197951626 0.013652497 0.00514766388 0.0389469787 0.0284449626 0.00517359097 0.0331545211 0.0285482462 0.027364403 0.0277610719 0.0312835164 0.0242612902 0.0128791882 0.0285755452 0.0424308069 0.0230307169 0.0315292776 0.0549152531 0.0125106135 -0.0306538362 0.0177293085 -0.0351611227 -0.0306788199 0.0616344437 0.00147193857 0.0306451861 0.0649718419 -0.00878239889 0.0306428857 0.0106664235 -0.0186032839 -0.0168167502 0.00528556947 0.0395534933</float_array>
          <technique_common>
            <accessor source="#positions_array" count="78" stride="3">
              <param name="X" type="float" />
              <param name="Y" type="float" />
              <param name="Z" type="float" />
            </accessor>
          </technique_common>
        </source>
        <source id="normals">
          <float_array id="normals_array" count="468">-0.95738399 0.123843819 -0.260918826 -0.905019283 0.0882610083 -0.416113108 -0.988303959 -0.0386119001 -0.147527665 -0.955710113 0.265666723 -0.126646608 -0.907970428 0.296251923 -0.296351939 -0.906559944 -0.0116524072 -0.421916217 -0.7484411 -0.356944382 -0.558951318 -0.878157377 -0.10641595 -0.466385365 -0.855013192 -0.518570125 0.00611552363 -0.972812176 -0.231175572 0.0139394794 -0.990943611 -0.131574973 -0.0268098209 -0.948503911 -0.117211364 0.29428184 -0.915860772 0.357989043 -0.181776896 -0.939013839 0.303608388 -0.161477268 -0.993480682 -0.114000447 -2.89214877e-05 -0.993486047 -0.11395365 -3.49301226e-05 -0.966993392 -0.254323483 0.0155984629 -0.806599438 -0.59092766 -0.0142066581 -0.0747240931 -0.777638435 -0.624255359 -0.0686758086 -0.360873789 -0.930082619 -0.00309764105 -0.753183663 -0.657802999 -0.893863142 0.435249895 -0.107546091 -0.985643148 0.158994645 0.0568183325 -0.0488737859 -0.964397132 -0.259902954 -0.573708236 0.132479817 -0.808274686 -0.00197729282 -0.999987721 0.00454860879 0.00965251122 -0.999934256 0.00619191583 0.0237284694 -0.999552965 -0.0181899033 -0.0253735967 -0.922050595 -0.386236876 -0.127021492 -0.29996711 -0.945455074 0.0627012551 -0.0588116124 -0.996298015 -0.223516211 -0.387772977 -0.894244194 -0.990207255 -0.0803879723 0.11413724 -0.930412769 0.292822957 0.22042419 -0.942911208 0.170688167 0.285979122 -0.993472934 -0.114068292 1.28434594e-05 -0.993469954 -0.114094131 3.2120548e-05 -0.993471205 -0.114083014 2.20568236e-05 -0.993472517 -0.114071704 1.39949298e-05 -0.993471205 -0.114083178 2.80218701e-05 -0.978551269 -0.167622373 0.119750269 0.11871244 -0.99272877 -0.0199236721 0.708840609 -0.705368638 4.46906415e-06 0.709549844 -0.70465517 -0.000172810294 -0.86682117 -0.225510702 0.444708854 -0.998141766 -0.0206574257 0.0573260002 -0.869476199 0.161927357 0.466680437 -0.88788718 0.322708935 0.327895224 -0.782720149 0.233494386 0.576913834 -0.792061985 0.207187653 0.574204743 0.0260782912 -0.998362184 -0.0509202406 0.282353878 -0.914645374 -0.2893098 -0.0103916507 0.958590567 -0.284598112 0.00308734993 0.965296686 0.261137396 0.0882969201 0.996073723 0.00638540788 0.957743704 -0.109515041 -0.265957624 0.874266565 -0.223207772 -0.431087345 0.939616978 0.0293260142 -0.340969056 -0.0306964125 0.667184472 0.744259775 0.0531075671 0.828820109 0.556989014 -0.0285098869 0.874491155 0.484202862 0.205670148 -0.208480477 0.956156731 -0.21800822 -0.236090481 0.946960211 0.0334108919 -0.181022495 0.982911289 0.442430824 -0.104526408 -0.890690327 0.0146042947 -0.942108035 -0.334991246 0.26304397 -0.164440855 -0.950666666 0.636408687 -0.376482338 -0.673234761 -0.000838274776 -0.192903504 -0.981217384 0.0472632311 0.0933293104 -0.994512856 0.0799752995 -0.463097721 -0.882691622 0.115236856 -0.910532236 -0.397053599 0.162587732 -0.984044313 -0.072263442 0.633306265 -0.437725037 -0.638216197 0.691532254 -0.722230315 0.0129015837 0.960740745 0.0337443724 -0.275387943 0.961195588 0.0898137987 -0.260838211 0.955107272 0.17978245 -0.235474706 0.953178167 0.195382208 -0.23081854 0.644557238 -0.764402986 -0.0153000327 0.990140617 -0.12283437 -0.0673297495 0.0882796198 0.846705198 -0.524687588 0.0475546606 0.479362875 -0.876327455 0.00178412546 0.680303097 -0.732928693 0.962810099 0.139653176 -0.231287166 0.98771435 0.140242681 -0.0689374581 0.877584636 0.217667744 -0.427160323 0.477173537 0.0284121092 0.878349662 0.0344015472 0.551390648 0.833537579 -0.0194257405 0.497204423 0.867415905 0.0345221013 0.372259796 0.9274863 0.704079211 -0.369706661 0.606291592 0.646025121 -0.451122671 0.615743399 0.860511839 -0.0154856341 0.50919497 0.160517275 0.29670909 0.941380858 0.355423123 0.219189957 0.908641934 0.278603792 0.276313305 0.919799387 0.866445541 -0.477690458 0.145203292 0.999955475 -0.00521085458 -0.00786933117 0.996433198 -0.0176922325 0.0825098902 0.992902219 -0.023899138 0.116507404 0.728922009 -0.684305549 0.0199652445 0.105143659 0.38129431 0.918454945 0.980722666 0.0261828415 0.19364287 0.899398386 0.137000889 0.415106446 0.946171999 0.186071977 0.264831513 0.948719919 0.267913282 0.16778864 0.817963898 0.285080999 0.49966383 0.996017098 0.0887409449 -0.0086563658 -0.996826291 -0.0498902053 -0.0620344654 -0.999451935 0.0321119092 -0.00804418232 -0.0463451035 0.263146162 -0.96364218 -0.0508415364 0.985901475 0.15941605 -0.0599985905 0.968535781 -0.241533935 -0.057424821 0.726075709 -0.685212672 -0.0835631266 -0.99585247 -0.0359874256 -0.0508920066 -0.996675134 -0.0636296719 0.996888578 0.0780513287 -0.0110089332 0.998267412 -0.0521640554 -0.0272217933 -0.457639754 -0.4411982 0.771952033 -0.341601312 -0.344386548 0.874474943 -0.134406626 0.342405081 0.929889023 -0.0926098526 0.409216911 0.907725155 -0.303023249 0.305144906 0.902808666 0.0282873437 -0.999294281 0.0247124806 -0.000652037561 -0.99447298 -0.104990594 0.00759939197 -0.999965787 -0.00326075428 -0.0265148785 -0.999493599 0.0175942387 -0.0105670616 -0.999863446 0.0127055272 0.00364061841 -0.999916971 0.0123603791 0.502025664 -0.8641451 0.0349785201 0.000282458495 -0.99999994 -1.18508972e-07 -0.000282435649 -0.99999994 -1.12456512e-07 -0.000376764656 -0.99999994 -1.49941712e-07 -0.00037658072 -0.99999994 -1.08034094e-07 -1.69187751e-05 -1 -1.24287965e-07 0.000753160333 -0.999999702 -1.22934551e-07 0.860237002 -0.509894431 -1.07341011e-05 0.100755155 -0.994911253 1.22483207e-05 0.0962433144 -0.995357811 1.16998372e-05 -0.0309582222 -0.999520659 -1.15871089e-07 -0.0297933929 -0.999556065 -1.11511376e-07 0.708535075 -0.705675542 7.82732895e-05 -0.997342408 -0.0694575086 -0.0219940059 -0.00209456286 -0.999062657 0.0432364941 0.000271469558 -0.998981714 0.0451166928 -0.00217847805 -0.998925328 0.0462978408 0.00114064233 -0.998918891 0.04647284 0.0110644698 -0.999101937 0.0409006663 0.00350924861 -0.998533487 0.0540233143 0.0385447815 -0.999089837 0.0182688273 0.0230891053 -0.999452531 0.0236959048 0.502700388 0.102465816 0.858366549 0.0513360091 -0.998644888 0.00854524411 -0.693090558 -0.430466533 -0.578207612 0.879349709 0.0800837502 0.469393939</float_array>
          <technique_common>
            <accessor source="#normals_array" count="156" stride="3">
              <param name="X" type="float" />
              <param name="Y" type="float" />
              <param name="Z" type="float" />
            </accessor>
          </technique_common>
        </source>
        <vertices id="vertices">
          <input semantic="POSITION" source="#positions" />
        </vertices>
        <triangles material="scout_b2b2b2" count="152">
          <input semantic="VERTEX" source="#vertices" offset="0" />
          <input semantic="NORMAL" source="#normals" offset="1" />
          <p>0 0 1 1 2 2 3 3 4 4 0 0 5 5 6 6 7 7 5 8 8 9 9 10 10 11 7 12 11 13 10 11 11 13 12 14 10 11 12 14 13 15 10 16 5 8 7 17 14 18 2 19 15 20 4 4 1 1 0 0 16 21 3 3 17 22 15 20 9 23 14 18 6 24 18 24 19 24 20 25 19 26 21 27 18 28 9 23 15 20 18 29 21 30 19 31 10 16 22 32 5 8 23 33 17 22 24 34 10 11 25 35 26 36 10 11 26 36 27 37 10 11 27 37 28 38 10 11 28 38 29 39 10 11 29 39 30 40 31 41 32 42 33 43 10 11 30 40 31 44 22 32 8 9 5 8 22 32 24 34 34 45 35 46 24 34 22 32 23 33 24 34 36 47 37 48 10 11 38 49 39 50 38 51 31 41 40 52 41 53 42 54 43 55 44 56 45 57 36 58 46 59 23 60 47 61 39 62 48 63 18 29 49 64 21 30 50 65 18 28 15 20 50 66 51 67 49 64 52 68 45 69 44 70 53 71 51 72 50 65 51 67 54 73 49 64 23 60 46 59 41 53 55 74 51 72 53 71 54 75 51 76 56 77 51 76 55 78 56 77 57 79 55 74 53 71 44 56 43 55 53 80 58 81 59 82 60 83 41 53 46 59 42 54 42 54 58 81 40 52 45 57 61 84 43 55 58 85 61 84 59 86 62 87 47 61 48 63 63 88 64 89 65 90 66 91 62 92 20 93 67 94 68 95 69 96 55 97 20 97 56 97 57 98 70 99 68 100 55 74 57 79 68 101 71 102 67 94 69 96 70 99 69 103 68 100 71 104 69 103 72 105 46 106 63 107 72 105 72 105 69 103 70 99 72 105 63 107 71 104 42 108 46 106 72 105 3 3 0 0 73 109 3 3 73 109 74 110 74 110 73 109 34 45 24 34 74 110 34 45 73 109 8 9 34 45 59 82 45 69 1 111 40 52 17 112 41 53 17 112 40 52 16 113 1 111 52 68 2 19 4 114 16 113 40 52 5 115 9 23 6 116 60 83 4 114 40 52 75 117 42 108 72 105 76 118 70 99 57 98 43 55 76 118 53 80 75 117 61 84 58 85 42 108 75 117 58 85 57 98 53 80 76 118 41 53 17 112 23 60 2 19 44 70 15 20 1 111 45 69 52 68 38 119 39 62 37 120 77 121 35 122 22 123 38 49 10 11 31 44 31 41 7 124 20 25 39 50 31 41 20 25 48 125 39 50 62 126 62 126 39 50 20 25 7 124 19 26 20 25 20 25 21 27 49 127 54 128 20 25 49 127 20 25 54 128 56 129 8 9 22 32 34 45 65 90 77 121 67 94 31 41 33 43 11 130 31 41 11 130 7 124 10 11 13 15 25 35 13 131 12 132 25 133 25 133 12 132 26 134 12 132 11 135 26 134 27 136 26 134 11 135 30 137 29 137 28 137 28 138 27 136 11 135 30 139 28 138 33 135 28 138 11 135 33 135 30 140 33 135 32 141 30 142 32 42 31 41 14 143 9 10 73 109 2 2 14 143 73 109 0 0 2 2 73 109 17 22 3 3 74 110 24 34 17 22 74 110 9 10 8 9 73 109 49 64 18 29 50 66 59 82 1 111 60 83 16 21 4 4 3 3 18 28 6 116 9 23 53 71 50 65 15 20 4 114 60 83 1 111 64 89 36 58 35 122 40 52 58 81 60 83 36 47 24 34 35 46 15 20 44 70 53 71 70 99 61 84 72 105 61 84 75 117 72 105 43 55 61 84 70 99 76 118 43 55 70 99 39 62 47 61 37 120 52 68 44 70 2 19 77 144 22 145 37 146 22 145 10 147 37 146 77 144 37 146 67 148 37 146 47 149 67 148 47 149 66 150 67 148 68 151 67 148 66 150 67 94 71 102 65 90 59 86 61 84 45 57 66 152 47 61 62 87 65 90 71 102 63 88 68 151 66 150 55 153 19 154 7 7 6 6 64 89 35 122 65 90 20 93 55 155 66 91 35 122 77 121 65 90 64 89 63 88 36 58 46 59 36 58 63 88</p>
        </triangles>
      </mesh>
    </geometry>
  </library_geometries>
  <library_visual_scenes>
    <visual_scene id="scene">
      <node id="left_shoulder_pitch_link">
        <instance_geometry url="#geometry">
          <bind_material>
            <technique_common>
              <instance_material symbol="scout_b2b2b2" target="#scout_b2b2b2" />
            </technique_common>
          </bind_material>
        </instance_geometry>
      </node>
    </visual_scene>
  </library_visual_scenes>
  <scene>
    <instance_visual_scene url="#scene" />
  </scene>
</COLLADA>