<?xml version='1.0' encoding='utf-8'?>
<COLLADA xmlns="http://www.collada.org/2005/11/COLLADASchema" version="1.4.1">
  <asset>
    <created>2026-09-14T00:00:00Z</created>
    <modified>2026-09-14T00:00:00Z</modified>
    <unit name="metre" meter="1" />
    <up_axis>Z_UP</up_axis>
  </asset>
  <library_effects>
    <effect id="scout_b2b2b2_effect">
      <profile_COMMON>
        <technique sid="common">
          <lambert>
            <emission>
              <color>0 0 0 1</color>
            </emission>
            <ambient>
              <color>0.35 0.35 0.35 1</color>
            </ambient>
            <diffuse>
              <color>0.7 0.7 0.7 1</color>
            </diffuse>
          </lambert>
        </technique>
      </profile_COMMON>
    </effect>
  </library_effects>
  <library_materials>
    <material id="scout_b2b2b2" name="scout_b2b2b2">
      <instance_effect url="#scout_b2b2b2_effect" />
    </material>
  </library_materials>
  <library_geometries>
    <geometry id="geometry" name="left_hip_roll_link">
      <mesh>
        <source id="positions">
          <float_array id="positions_array" count="273">0.0339568518 0.0336541384 -0.0657188445 0.0346886739 0.017607918 -0.0217299517 0.0336879045 0.0481736921 -0.0547898337 0.00313188718 -0.0431904681 -0.123413123 -0.0160755534 -0.037326932 -0.0960100517 -0.0212772526 -0.0330553241 -0.123734772 0.00118813338 -0.0255275071 -0.0726982206 -0.0129755558 -0.0243061818 -0.0750322044 0.00116521365 -0.0293934625 -0.0719990656 -0.0148685751 0.0368358158 -0.0955190137 -0.0249937903 0.0251401328 -0.123594098 -0.0239263196 0.00226912065 -0.0999634489 -0.0025483889 0.0417769141 -0.123596951 -0.0194973573 0.00980084389 -0.0756681338 0.0038326229 0.037615601 -0.0751635432 -0.0110988077 0.0213962551 -0.0788015425 0.0229607485 -0.0476871543 -0.0782507583 -0.0136009166 -0.0190127697 -0.0939413086 0.0164280348 -0.0422221459 -0.0790013149 0.00401311321 -0.0385769792 -0.0755476877 0.0151778199 -0.0365619957 -0.063462615 0.0139720822 -0.0356928185 -0.0701062605 0.000522807473 -0.0275731198 -0.0659313649 0.00512161246 -0.0310392454 -0.0709294975 0.00326804211 -0.0296471491 -0.0683509409 0.00662440527 -0.0326338001 -0.0630659983 0.00505488878 -0.0306677576 -0.0672425702 0.017187193 -0.0348906405 -0.0729055777 0.074419938 -0.0295066275 -0.123396613 0.0757130086 -0.0323048793 -0.0319566466 0.0614256486 -0.0463447385 -0.0683293119 0.0177937504 -0.0370656736 -0.0715980977 0.0324006602 -0.0361504741 -0.0672029257 0.0309148896 -0.0446928032 -0.122675583 0.0248737987 -0.0429185033 -0.1089141 0.0331124514 -0.0400364958 -0.0738227963 0.0343272686 -0.0362424366 -0.0721745342 0.0361451544 -0.0376399867 -0.0632507131 0.0351339467 -0.0427405313 -0.108750783 0.0322094336 -0.0484532267 -0.0576868951 0.0353502668 -0.047284063 -0.000816263724 0.021368634 0.0395112745 -0.122124381 0.0254509486 0.0444458947 -0.124105774 0.0194472838 0.0397990644 -0.0782859549 0.0231262874 0.0473882332 -0.0776631013 0.0352870338 0.0419074334 -0.12170513 0.0597671717 -0.0412849598 -0.122895144 0.0811636075 -0.00315804407 -0.0559259318 0.0691518635 0.0136893662 0.0308978688 0.0353553034 -0.0364014171 0.0293962713 0.0607399084 -0.0455602147 -0.0046404223 0.0343646929 0.0371970646 -0.071990028 0.0671336874 -0.0295795407 0.0225689765 0.00154231302 0.0240719263 -0.0671349093 0.00101845781 0.0264507588 -0.0632567555 0.00035572311 0.026086418 -0.0724778771 0.00118945539 0.0224721264 -0.0727581903 0.00466736266 0.0284531098 -0.0708524361 0.0104579274 0.0310620219 -0.0717087686 0.0067946366 0.0297082104 -0.07075046 0.0129723502 0.0310319867 -0.0728060007 0.00814095233 0.0308404714 -0.0701098815 0.00721484236 0.0303479694 -0.067398116 0.00879802927 0.0313202478 -0.0697046891 0.00912006199 0.0311019402 -0.0689400285 0.010705905 0.0309296641 -0.0671968609 0.0055512595 0.0286627375 -0.0676907375 0.0148981139 0.0343950652 -0.064727582 -0.00586405257 0.0257848706 -0.0900217593 0.0147673106 0.033226151 -0.0712447017 0.0152765755 0.031242907 -0.06691017 0.0169107113 0.0339966938 -0.0696076676 0.0526193269 0.0474140234 -0.0721444264 0.032928586 0.0340077281 -0.0697258934 0.059491504 0.0408071838 -0.123406619 0.0353189036 -0.0159921385 0.044478409 0.0353695862 0.0448133722 0.0111596277 0.0637689233 0.0423565805 0.00572986947 0.0740177259 0.0354292057 -0.0880159885 0.0749805868 0.0309273899 -0.0254250336 0.0353890322 0.0235900637 0.0423192009 0.0346645899 -0.0176706929 -0.0220698956 0.0346718803 -0.0180440173 0.0211390872 0.0346462056 0.017351713 0.0224210396 -0.00603907788 0.0221199766 -0.121506087 -0.0112758325 -0.0185337253 -0.122750364 0.00238541933 -0.027855115 -0.120536774 0.0517870635 0.0192189049 -0.123145685 0.0484459735 -0.0214696303 -0.122485325 -0.00654519349 -0.000442031451 -0.12281619 0.0760042444 0.0260794219 -0.123527169</float_array>
          <technique_common>
            <accessor source="#positions_array" count="91" stride="3">
              <param name="X" type="float" />
              <param name="Y" type="float" />
              <param name="Z" type="float" />
            </accessor>
          </technique_common>
        </source>
        <source id="normals">
          <float_array id="normals_array" count="750">-0.999575973 0.00277606631 -0.0289861206 -0.999971867 -0.006049613 0.00443510665 -0.999885142 -0.0151560754 -2.85428141e-05 -0.226367652 -0.973115802 -0.0424649343 -0.311218917 -0.950222731 -0.0148179708 -0.381734163 -0.921589434 -0.0703703612 -0.0999868289 0.0501883477 0.9937222 -0.158505633 0.0149470987 0.987244904 -0.145161286 0.176910698 0.973463297 -0.943844736 0.215075523 0.250798106 -0.983995795 0.103754796 0.144869596 -0.995361805 -0.00831133593 0.0958426297 -0.59124577 0.797654748 -0.119060174 -0.406074703 0.913674355 -0.0173928235 -0.330216616 0.942768395 -0.0463115685 -0.735404611 0.611532092 0.291905046 -0.0256002974 -0.998575807 -0.0468081348 -0.529206753 -0.821463108 -0.212458566 -0.350813955 -0.386823326 -0.852817297 0.103441916 -0.98364383 -0.147460565 0.365588844 -0.91206944 -0.185672119 0.235886976 -0.957143247 -0.168030232 -0.356191665 -0.43085289 0.829152167 -0.334123135 -0.428086579 0.839704454 -0.360837191 -0.431405187 0.826853096 -0.994749606 -0.0124723529 -0.10157562 -0.399282873 -0.435562849 0.806757808 -0.418814689 -0.890151858 0.179510236 -0.82264179 -0.566988707 0.042241592 -0.980897069 0.0261501875 0.192761734 0.293989062 0.504460037 0.811843872 0.40647167 0.606078446 0.683702946 0.287262499 0.472398847 0.83325839 0.364111304 0.696872175 0.617893279 0.566975355 0.805508792 -0.172320902 0.606098473 0.737421334 -0.298084706 0.664048314 0.74683094 -0.0358250178 -0.671420693 -0.726384282 0.146833614 0.686190307 0.706581414 0.172874197 0.469721079 0.879175067 -0.0800829008 0.894434929 -0.439923435 -0.0803341791 0.902083516 -0.425362229 0.0728859007 0.422106355 -0.90585345 -0.035436511 -0.0728438944 -0.819880128 0.567882359 -0.0744310915 -0.813920617 0.576188564 -0.0787608698 -0.908602715 0.410168052 0.467585355 0.547546446 0.693942964 -0.0399985239 0.996414721 -0.0745507926 -0.00431055855 -0.991641521 -0.128951564 0.108270496 0.533952475 -0.838553667 0.0121305324 0.116075873 -0.993166268 0.133068845 0.658340454 -0.740864754 0.026808342 -0.996510506 -0.0790453851 0.622838914 0.766225636 0.158019096 -0.284376174 0.434440017 0.854629815 0.486041397 0.775487065 -0.402968496 0.358725518 0.821320593 -0.443563432 0.246606082 0.847099781 -0.470751971 -0.0451522022 -0.192735672 0.980211318 -0.0526766032 -0.132650971 0.989762068 -0.0692350045 -0.378768355 0.922898173 -0.117763855 -0.974330544 0.191863522 -0.0430142954 -0.967892051 0.24765861 0.63448292 0.694423914 -0.339421421 0.938639283 -0.335424155 0.080292441 -0.978165627 0.207806006 -0.00294604595 -0.94227016 0.334444404 -0.0165497996 -0.935435891 0.352697164 0.0237584729 -0.282775968 -0.95477128 -0.091921173 -0.999996126 -0.00236144988 0.00146725797 0.738231122 0.62922734 0.243079752 -0.0108557716 -0.917625904 0.397296965 0.0168903824 -0.999464214 0.0280357264 0.0457956791 -0.997882664 0.0461833738 0.777426362 -0.62781322 0.0381944217 0.79642123 -0.603198767 0.0431795642 0.886944532 -0.456554025 0.0699126869 -0.120727554 -0.988625228 0.0896942914 -0.132688418 -0.987398922 0.0862390921 -0.241374135 -0.96893239 0.053931091 0.387745351 -0.916671157 -0.0967861935 0.999697208 -0.0122374622 0.0213472582 0.984094977 0.0701212734 0.163217828 0.257195026 -0.751334727 0.607739091 0.094939746 -0.977217436 0.189822376 0.137352496 -0.969225883 0.204292625 -0.938395023 0.00257454324 -0.345554829 -0.999163687 -0.00519834552 -0.0405573286 -0.932424903 0.00138307328 -0.361361146 0.964566827 -0.208113536 0.162171632 0.773217261 -0.62232542 0.121844448 -0.984107077 -0.177360088 -0.00875421893 -0.989504933 0.0161871798 -0.143589735 -0.991513312 -0.112704568 -0.0647998154 -0.958952248 -0.259074003 0.11528784 -0.964375854 -0.23227711 0.126595825 0.791320741 -0.609128654 -0.0526667945 0.821648419 -0.569666564 0.0193346795 0.846963406 -0.522978246 0.0956386775 -0.481167376 0.876628757 -5.5075132e-05 -0.494706988 0.868999779 -0.0102155274 -0.451868743 0.89190191 0.0180461276 -0.403926432 0.359079778 0.841371 -0.445155084 0.318119764 0.837040484 -0.34449029 0.249550149 0.905014455 0.3081882 -0.702237666 0.641780555 0.33616823 -0.480202347 0.810183108 0.333291501 -0.460151792 0.822907686 0.412458122 -0.747154415 0.52118957 -0.424367011 0.314852804 0.848987877 0.347461015 -0.473766297 0.809207261 0.315300941 -0.888341606 0.333818018 0.570464671 -0.820039034 0.045891095 -0.567298532 0.822605371 -0.0386370048 -0.600472987 0.795964539 -0.0766334683 -0.646848559 0.759932935 -0.0639441609 -0.583661079 0.217915803 0.782209992 -0.690796912 0.564326167 0.45203495 0.0646407455 -0.995052576 -0.0754446983 0.364851028 0.912581682 0.184603363 0.380347967 0.789831638 0.481145918 0.453129292 0.728744149 0.513425529 0.176262334 0.984156311 0.0191830155 0.733603716 -0.660152853 -0.161318898 -0.5850631 0.801365793 -0.12455529 0.0829720348 -0.119809709 -0.989323616 0.0436839908 -0.0377693437 -0.998331189 0.223819137 -0.307425767 -0.924875319 0.409846842 -0.901134491 -0.141358197 -0.169884488 0.978175402 0.119633265 0.669325471 -0.470586598 -0.574936211 -0.468947798 0.883159935 0.0107927155 -0.666756034 0.593826175 0.450340748 -0.435865164 0.894296646 -0.101267219 0.0575277396 -0.987028837 -0.149882227 0.173166528 -0.952202618 -0.251641572 0.691535056 -0.415580422 -0.590823293 -0.514957726 0.852149963 0.0930536017 -0.233751193 0.412659615 -0.880381942 0.304777801 0.666677713 0.680184722 -0.598649859 -0.67878437 0.425288349 0.653894424 -0.713668764 0.251195133 0.418608665 0.892404974 -0.168464005 0.088337101 -0.901813745 -0.422999501 0.987415314 0.151031867 -0.0469077043 -0.908016741 0.159272194 -0.387476325 0.0595526882 -0.138202608 -0.988611937 0.0201194268 -0.386827022 -0.921932757 0.00615951139 -0.151319966 -0.988465667 0.243064612 0.969434917 -0.0333989337 -0.0311521441 0.99613297 -0.0821498558 -0.450810492 -0.419689447 0.787801147 0.0468832031 0.976467848 0.210505217 -0.0457913987 0.833586216 0.550488114 -0.055203151 0.772226334 0.632944763 0.0922037214 -0.603677511 -0.7918787 0.137134716 -0.733491421 -0.665720999 3.73591283e-05 -0.996128559 -0.0879085064 0.00345269335 -0.92435962 0.381506711 0.000232448147 -0.998097122 -0.0616611429 -0.806403935 0.250614792 -0.535635054 -0.665993214 0.29752776 -0.684054255 -0.85060823 0.229847908 -0.472901255 -0.199225679 0.96662569 -0.161071017 0.243105993 0.486339033 0.839269817 0.0427264981 0.996120155 0.0769359469 -0.076809518 -0.825882137 -0.558586597 0.3952218 -0.250573188 0.883749306 0.38668251 -0.601706982 0.698874354 0.0566595122 0.998229265 0.0181117598 0.143966943 0.930680096 0.336315483 0.546549618 0.78482908 0.292107642 0.799377143 0.599984109 -0.0318641737 0.389741719 0.912631035 -0.123312473 0.161009103 -0.65625453 0.737160861 0.923539937 0.375155479 0.0795760676 -0.0459945761 0.988796115 0.142009512 -0.0195664503 0.988117874 0.152447462 -0.130130693 0.985606909 0.107912019 0.315431833 0.722496569 0.615224779 0.407791048 0.644449532 0.646831751 -0.82597661 -0.557869971 0.080893673 -0.999768913 -0.0131719746 -0.016987944 -0.999614179 -0.0204989724 0.0187435672 -0.999658823 -0.00814824272 0.0248165373 -0.999731183 0.0194552448 0.0126100751 -0.999739289 0.0139188599 0.0180995148 0.421596169 -0.0667989627 0.904319942 -0.0517475456 -0.997640193 0.0451250672 -0.144847035 0.984202206 0.101810642 0.760576963 0.612180829 0.216234267 -0.548163831 0.810424447 -0.206708908 0.895108461 -0.439885855 0.0726727918 -0.352507502 -0.814151287 0.461406738 -0.0249254648 0.998719811 -0.0440163389 0.0635311753 -0.997767627 -0.0205809437 -0.985411108 -0.13950251 0.0974883512 -0.916135907 0.189146906 -0.35343799 0.0556777045 -0.0427146405 -0.997534692 0.100926198 0.0158677325 -0.994767368 0.116008617 0.0918493569 -0.988992274 0.0796441734 0.155357093 -0.984642565 -0.00977541599 0.109689929 -0.993917763 0.101028115 -0.0360467769 -0.99423033 0.0500486977 0.0331968702 -0.998194933 0.00373838586 -0.906650603 0.421865761 -0.108011983 0.991409302 0.0737630427 0.057157997 0.963198245 0.26264438 -0.171602488 0.981067777 0.0897698998 -0.0249014851 -0.00220618187 -0.999687493 -0.0350840464 -0.00777941197 -0.999354064 0.0664737746 0.0474002659 -0.996661663 0.997237027 0.0509203598 -0.0540867187 0.333355516 0.0507645868 0.941433489 -0.971883059 -0.177217141 0.155040115 -0.034899421 0.012180971 -0.999316573 -0.0351962857 -0.000431022578 -0.99938035 -0.0177001171 -0.00865404494 -0.999805868 -0.0426450782 0.00314337714 -0.999085367 -0.00952070393 0.0564649664 -0.998359203 0.656676352 0.737552464 -0.157456353 -0.981935024 -0.188137904 -0.0201928187 -0.260578185 -0.964256465 0.0480466411 -0.999996006 -0.00259801699 0.00110262271 -0.999421954 0.0149800265 0.0305184703 -0.511986673 -0.0211686715 0.858732522 -0.475634068 0.0507766865 0.87817651 -0.49797377 0.00704063103 0.867163539 -0.489317477 0.166956142 0.855975509 -0.471247494 0.133644208 0.871817052 -0.472892493 0.0522182547 0.879571438 -0.483723104 -0.0581807867 0.873285174 -0.46599555 -0.452626914 0.760248005 -0.4722583 -0.391202241 0.789894223 0.360080391 -0.784636736 -0.504665494 0.187705114 0.00122200069 0.982224643 -0.175516918 0.0211568419 0.984249055 -0.0294486154 0.00804045983 0.999533951 -0.0318918377 0.00558391493 0.999475718 -0.999372482 -0.0283547528 -0.0212274976 0.00988429785 0.0213972032 0.999722183 0.0542447902 0.0285655074 0.998118997 -0.116149366 -0.00624965411 0.993212104 0.0551433749 0.0878013819 0.994610548 0.041328311 0.018663289 0.998971283 -0.0170598682 -0.137145728 0.99040395 -0.451708883 -0.039980609 0.891269088 -0.0200017355 0.0734810308 -0.997096002 0.0422745831 0.00464218901 -0.999095261 0.0773232952 -0.117061719 -0.990109921</float_array>
          <technique_common>
            <accessor source="#normals_array" count="250" stride="3">
              <param name="X" type="float" />
              <param name="Y" type="float" />
              <param name="Z" type="float" />
            </accessor>
          </technique_common>
        </source>
        <vertices id="vertices">
          <input semantic="POSITION" source="#positions" />
        </vertices>
        <triangles material="scout_b2b2b2" count="214">
          <input semantic="VERTEX" source="#vertices" offset="0" />
          <input semantic="NORMAL" source="#normals" offset="1" />
          <p>0 0 1 1 2 2 3 3 4 4 5 5 6 6 7 7 8 8 9 9 10 10 11 11 10 12 9 13 12 14 13 15 14 15 15 15 16 16 4 4 3 3 7 17 17 17 18 17 7 18 18 18 19 18 20 19 19 20 21 21 8 22 7 23 19 24 22 25 6 25 8 25 23 26 8 22 19 24 24 27 8 27 23 27 25 28 26 28 23 28 25 29 23 29 19 29 23 30 27 31 6 32 23 30 21 33 27 31 26 34 8 35 24 36 25 37 22 37 8 37 22 38 26 34 24 36 26 39 21 39 23 39 28 40 29 41 30 42 21 43 19 44 31 45 21 33 31 46 27 31 20 47 32 47 31 47 20 19 21 21 32 48 26 49 32 50 21 51 16 16 3 3 33 52 18 53 16 53 34 53 31 54 32 54 27 54 32 55 35 56 27 57 36 58 27 59 35 60 37 61 31 45 35 62 32 55 37 63 35 56 36 64 35 64 38 64 37 65 38 66 39 67 37 68 32 68 36 68 40 69 37 65 39 67 24 36 6 70 22 38 18 71 34 72 38 73 41 74 42 75 43 76 2 77 44 78 45 79 30 42 46 80 28 40 29 41 47 81 48 82 49 83 40 84 50 85 32 86 51 87 36 88 29 41 52 89 50 90 48 82 52 89 29 41 53 91 22 92 54 93 55 94 56 95 53 91 57 96 53 97 56 98 55 99 54 100 57 101 57 102 14 103 55 104 58 105 57 106 56 107 59 108 57 106 58 105 59 109 14 103 57 102 58 105 56 107 60 110 61 111 59 108 58 105 62 112 61 112 63 112 62 113 63 114 59 115 14 103 59 109 63 116 63 117 61 117 64 117 58 105 64 118 61 111 63 119 58 120 14 121 63 119 65 122 58 120 54 93 55 94 53 91 66 123 53 97 57 96 54 100 66 124 57 101 54 100 62 113 66 124 62 113 59 115 66 124 65 125 53 126 66 127 65 128 66 128 59 128 61 129 62 129 65 129 61 130 65 130 59 130 54 100 67 131 62 113 67 132 63 132 64 132 67 131 64 133 62 113 65 134 62 135 64 118 65 134 64 118 58 105 67 136 65 136 63 136 15 137 43 137 68 137 14 138 43 138 15 138 14 121 58 120 60 139 67 140 14 140 60 140 69 141 65 141 60 141 67 142 69 142 14 142 70 143 65 143 69 143 69 144 67 144 70 144 67 145 71 145 70 145 12 146 42 147 41 148 72 149 12 14 44 150 71 151 14 151 69 151 51 152 14 153 71 154 73 155 69 155 51 155 71 156 0 156 70 156 0 157 71 158 73 159 17 160 13 161 15 162 51 163 71 163 67 163 67 164 73 164 51 164 67 165 0 165 73 165 42 166 74 166 45 166 75 167 49 83 52 168 2 169 76 170 72 149 76 170 77 171 72 149 72 149 78 172 74 173 77 171 78 172 72 149 51 174 69 174 60 174 29 41 50 90 30 42 77 171 79 175 78 172 38 176 34 177 16 178 77 171 80 179 48 180 80 179 77 171 76 170 77 171 48 82 79 175 36 181 38 181 37 181 0 0 37 65 1 1 37 65 81 182 1 1 37 65 40 69 81 182 51 87 0 0 2 2 40 69 82 183 81 182 40 69 75 184 82 183 76 185 2 2 1 1 1 1 83 186 76 185 79 175 48 82 47 81 48 187 75 167 52 168 31 45 37 61 20 188 28 40 47 81 29 41 16 178 39 189 38 176 23 190 6 70 24 36 82 183 83 186 81 182 83 186 1 1 81 182 9 13 44 150 12 14 35 62 19 44 18 71 33 52 46 80 30 42 60 191 65 191 67 191 38 73 35 62 18 71 43 76 42 75 44 192 78 172 79 175 47 81 19 193 20 193 25 193 72 149 74 173 42 194 39 195 30 42 50 85 50 85 40 84 39 195 11 11 10 10 5 196 49 83 50 85 52 168 32 86 0 0 51 87 68 197 17 160 15 162 41 148 84 198 12 146 85 199 86 200 3 201 86 200 33 202 3 201 84 198 10 203 12 146 85 199 3 201 5 204 84 198 85 199 10 203 10 203 85 199 5 204 69 205 73 159 71 158 42 194 12 14 72 149 41 206 43 207 51 152 45 208 41 206 51 152 14 153 51 152 43 207 84 198 87 209 88 210 86 200 84 198 88 210 86 200 89 211 84 198 90 212 47 81 28 40 2 169 72 149 44 150 48 187 80 213 75 167 5 196 4 214 11 11 85 199 84 198 89 211 89 211 86 200 85 199 46 215 33 202 86 200 46 215 86 200 88 210 28 216 46 215 88 210 90 217 28 216 88 210 88 210 87 209 90 217 87 209 74 218 90 217 45 219 74 218 87 209 45 219 87 209 41 148 41 148 87 209 84 198 78 172 90 220 74 173 7 221 13 221 17 221 44 78 42 222 45 79 75 184 40 69 49 223 75 184 80 224 82 183 83 186 82 183 80 224 83 186 80 224 76 185 17 225 68 226 11 227 68 226 43 228 44 229 68 226 44 229 9 230 11 227 68 226 9 230 11 227 4 231 17 225 4 231 16 232 18 233 4 231 18 233 17 225 30 42 39 195 16 16 47 81 90 212 78 172 25 234 8 234 26 234 56 235 55 104 6 6 14 103 13 236 55 104 13 236 7 7 55 104 55 104 7 7 6 6 56 235 6 6 60 237 51 238 60 237 6 6 27 59 36 58 6 6 51 238 6 6 36 58 45 239 51 87 2 2 31 45 19 44 35 62 37 240 0 241 25 242 0 241 67 243 54 244 0 241 54 244 25 242 20 245 37 240 25 242 54 244 22 246 25 242 32 50 26 49 22 247 0 248 32 50 53 126 53 126 32 50 22 247 70 249 0 248 53 126 70 249 53 126 65 125 16 16 33 52 30 42</p>
        </triangles>
      </mesh>
    </geometry>
  </library_geometries>
  <library_visual_scenes>
    <visual_scene id="scene">
      <node id="left_hip_roll_link">
        <instance_geometry url="#geometry">
          <bind_material>
            <technique_common>
              <instance_material symbol="scout_b2b2b2" target="#scout_b2b2b2" />
            </technique_common>
          </bind_material>
        </instance_geometry>
      </node>
    </visual_scene>
  </library_visual_scenes>
  <scene>
    <instance_visual_scene url="#scene" />
  </scene>
</COLLADA>