<?xml version='1.0' encoding='utf-8'?>
<COLLADA xmlns="http://www.collada.org/2005/11/COLLADASchema" version="1.4.1">
  <asset>
    <created>2026-09-14T00:00:00Z</created>
    <modified>2026-09-14T00:00:00Z</modified>
    <unit name="metre" meter="1" />
    <up_axis>Z_UP</up_axis>
  </asset>
  <library_effects>
    <effect id="scout_b2b2b2_effect">
      <profile_COMMON>
        <technique sid="common">
          <lambert>
            <emission>
              <color>0 0 0 1</color>
            </emission>
            <ambient>
              <color>0.35 0.35 0.35 1</color>
            </ambient>
            <diffuse>
              <color>0.7 0.7 0.7 1</color>
            </diffuse>
          </lambert>
        </technique>
      </profile_COMMON>
    </effect>
  </library_effects>
  <library_materials>
    <material id="scout_b2b2b2" name="scout_b2b2b2">
      <instance_effect url="#scout_b2b2b2_effect" />
    </material>
  </library_materials>
  <library_geometries>
    <geometry id="geometry" name="left_knee_link">
      <mesh>
        <source id="positions">
          <float_array id="positions_array" count="555">-0.0110238204 -0.0086210547 -0.306522459 0.00106425676 -0.00967781898 -0.29074803 0.000135223861 -0.00808035862 -0.312078416 0.0037444022 -0.0193271972 -0.310591221 -0.0113978609 -0.0176444426 -0.301956058 -0.0136652514 -0.00320530776 -0.282280654 0.00789515581 -1.4053815e-05 -0.284324884 0.0162369031 -0.0168368239 -0.300123781 -0.0330000781 -0.0341158994 -0.0999294668 -0.0344189778 -0.018990675 -0.102069765 -0.0323299654 -0.018466169 -0.140109807 -0.0344472565 0.00581818027 -0.11718829 -0.0316680931 0.0202690959 -0.134776175 -0.0278198291 -0.0306468979 -0.131750256 -0.0228750985 -0.0315044597 -0.136049673 -0.0160801522 -0.0352550521 -0.13842243 -0.0286819022 -0.0344418772 -0.0534262024 -0.0226078369 -0.0311972219 -0.074811317 0.0172798336 -0.0138508389 -0.313931108 -0.0236292817 -0.00139668433 -0.181275114 -0.0167487692 -0.0209188759 -0.203779086 -0.0228711106 -0.0238077492 -0.168584049 -0.027970843 -0.0201701894 -0.140984073 -0.0156051079 -0.0314454325 -0.147980437 -0.0279206298 -0.0228488483 -0.13213782 -0.0300623551 -0.0151969614 -0.127552971 -0.0239697453 -0.01235836 -0.121491127 -0.0297423173 -0.0332289897 -0.100541785 -0.0225141086 -0.0274949539 -0.0940515697 -0.0296033155 -0.00350156031 -0.110194057 -0.0232686009 -0.0135895424 -0.112944596 -0.0290995669 -0.0184381735 -0.0658512563 -0.0204753056 -0.00765559403 -0.0524875745 0.0619552732 -0.0161004029 0.012732219 0.0607006066 -0.0110222818 -0.0171828642 0.0610217415 -0.0112005714 -0.0148228183 0.0576531328 -0.011051272 -0.0794093236 0.0556007661 -0.0117852017 -0.126067862 0.0564801171 -0.00343317538 -0.103261553 -0.00496824132 0.0183128733 -0.125657976 -0.00553516578 -0.0298239104 -0.166631222 -0.0019390072 -0.0150647527 -0.0556069314 -0.00365177891 -0.0310484916 -0.14013046 -0.00225437153 -0.0311202072 -0.0919964612 -0.00295031513 -0.00336723472 -0.118269928 0.015916571 0.0151346484 -0.0486243926 -0.0243214127 0.01640887 -0.0543232113 -0.00298539875 -0.0307107251 -0.0776970908 0.0149654392 -0.0350597464 -0.0493412502 -0.0158950631 0.0201261509 -0.208601594 -0.00239224476 -0.0317519642 -0.0551015474 -0.0224473402 0.034743011 -0.133169845 -0.0271736588 0.031490352 -0.0933931544 -0.0273938626 0.0256934483 -0.130569026 -0.0089931339 0.00637340685 -0.291187018 -0.00917734299 0.0172576346 -0.301383078 0.00766173517 0.0189004373 -0.291610926 0.0519034006 -0.00976727903 -0.164363235 0.0439498425 -0.0228640139 -0.174045444 0.0458866768 -0.00222853431 -0.190779209 -0.00305087096 0.0114105158 -0.113794602 0.00275716395 0.0185088161 -0.308374882 -0.00478544645 0.00758717582 -0.311538965 -0.010188031 0.0162457712 -0.310553133 -0.0129212644 0.0174670909 -0.28072983 -0.0334410369 0.0205969848 -0.100932769 -0.0330557674 0.0354763046 -0.094297871 -0.0317456275 0.0314618833 -0.0308894981 -0.0373914279 0.0286551118 -0.0601805188 -0.0361190252 0.0177202635 -0.058050923 -0.038012933 0.0156703964 -0.00815741345 -0.0394364484 0.0335761756 0.0077900202 -0.0311654471 0.0212426912 -0.162499994 -0.0297364928 0.0034726325 -0.167649403 -0.0232143719 0.0066890358 -0.114875704 -0.0259031001 0.0203472245 -0.0999514237 -0.0226958152 0.0252184607 -0.0679320022 -0.0201693084 0.0205159504 -0.169928163 -0.0228062049 0.0316102058 -0.150914997 -0.0103495317 0.0304053333 -0.167777225 -0.0320097208 0.0180330258 -0.0645371974 -0.00103026442 0.0248113647 -0.0609263852 0.0588257238 0.00855587609 -0.0646728203 0.0569493398 -0.0280120783 -0.0272481795 0.060389135 0.00746628875 -0.0322815292 -0.00768256607 0.0266743731 -0.160864323 -0.00404733373 0.0315850526 -0.144659445 -0.00230666762 0.0310379863 -0.0910410509 0.0136855505 0.012198614 -0.303036124 0.0335141718 -0.0338900983 -0.149300784 -0.0343048908 0.0162086282 0.0213843044 -0.0170299485 0.032283213 0.0355422162 -0.00579624204 0.0158766937 0.0404211804 0.0122018093 0.0340485349 0.037460804 0.0108687785 -0.0100759519 -0.302603453 0.0252114255 -0.0115143191 -0.275434732 0.0317466371 -0.0131786177 -0.256608367 0.0326765738 -0.0145710679 -0.306054562 0.0311117359 -0.0170219038 -0.190790027 0.0396643281 -0.017444903 -0.209710434 0.0355848074 -0.0074715009 -0.236008987 0.0258188415 -0.0235558487 -0.192735866 0.0270613953 -0.0241006538 -0.164129496 0.033782471 -0.000434110611 -0.246741489 0.0219412036 -0.00332216267 -0.238462314 0.0164713431 -0.0190805458 -0.266406387 0.0299989991 -0.0134367403 -0.189355329 0.0369572118 -4.31592161e-05 -0.205275968 0.0262144525 -6.92088724e-05 -0.204504713 0.0282943137 -0.0126486784 -0.184064671 0.0452039801 -0.0342458561 -0.0481007211 0.035343416 -0.0332846679 -0.136450514 0.0361380205 -0.0309708416 -0.0870816931 0.0373683497 -0.0125776799 -0.199488431 0.0380099788 -0.0236125123 -0.14735119 0.0492236391 -0.0307660364 -0.136326209 0.0474592969 -0.0271493737 -0.146542817 0.0278943516 -0.0272669103 -0.139039055 0.0296603516 -0.0268349368 -0.052585192 0.0379498713 -0.00620965566 -0.143797725 0.0431419425 0.00546772685 -0.19385767 0.0480406098 0.00222489215 -0.175130814 0.0539849065 -0.0096577229 -0.129008934 0.0514757112 -0.0282275528 -0.0993426889 0.0602846034 -0.00945432484 -0.0722453445 0.0598724782 -0.0196136814 -0.00177175668 0.0500099137 0.0079539502 -0.16471909 0.0557660088 0.00206813449 -0.136319071 0.0525163785 0.00175282138 -0.147689849 0.0572169833 0.000738567731 -0.105752453 0.0572934039 -0.00684491126 -0.100052394 0.0609743223 -0.0136303632 -0.0165893156 0.0617563613 0.00444043055 -0.0374267772 0.0599142611 -0.0123199765 -0.0177967492 0.0620096736 -0.012784672 -0.0092075821 0.059953589 -0.0146869989 -0.0071679051 0.0610258058 -0.0133423479 -0.00724265166 0.015147889 0.0153697552 -0.311786473 0.00980075728 0.00773738092 -0.297787845 0.0386380889 0.0166729763 -0.220554188 0.0216126349 0.0173607152 -0.292076826 0.0280047935 0.012366347 -0.269797921 0.0253527444 0.0149272569 -0.246782646 0.0322035663 0.0149776712 -0.305232882 0.0313123241 0.0173291937 -0.256380796 0.0267041456 0.0252731331 -0.185838073 0.0394626819 0.0340114683 -0.143689111 0.0431433246 0.0341232046 -0.0379638299 0.0215413701 0.00392648438 -0.23489584 0.0325711779 0.0113402512 -0.2072189 0.0355042741 0.00755966594 -0.235661581 0.0187606197 0.0191030949 -0.252986878 0.031500902 0.0171478111 -0.187785029 0.0266669057 0.0229205769 -0.170013279 0.0384049341 0.00770842051 -0.145312697 0.0287971683 0.0267701931 -0.108537726 0.0351904593 0.0325705074 -0.138577089 0.0403665341 0.0150786126 -0.192115471 0.0454853736 0.0230897591 -0.173157498 0.037759617 0.0236067083 -0.146540567 0.0464472175 0.0279789343 -0.146152645 0.0488221347 0.0156179061 -0.163682029 0.0512675606 0.0272868089 -0.130508363 0.0411489196 0.0315035209 -0.0526216179 0.0374704748 0.0301130172 0.0162998047 0.0406693295 0.015825646 0.00354492571 0.0523057915 0.0332201608 -0.0396801718 0.0573458187 0.0259793717 -0.0646961927 0.0538136102 0.00683985837 -0.144089192 0.0533323176 0.0265207402 -0.0954820067 0.0579463318 0.00694992673 -0.0982501432 0.0568987094 0.0129525037 -0.0898241177 0.0580250658 0.010575803 -0.0650177747 0.0589924231 0.0105035892 -0.0619763397 0.0589662567 0.0172473919 -0.0422350168 0.059848424 0.0121534336 -0.0606430061 0.0593445636 0.0231094062 -0.0193656087 0.06156037 0.0162858851 0.0121370517 0.0577569753 0.0190930143 -0.0398747921 0.0269657653 0.0155860726 0.029676348 0.0299355574 0.027432885 -0.0525999628 0.0420896858 0.0105460566 -0.0411255397 0.0261086095 -0.000185852579 -0.0845073834 0.0236438047 0.00100829545 -0.160039738 0.0258237831 -0.000532334554 -0.137349606</float_array>
          <technique_common>
            <accessor source="#positions_array" count="185" stride="3">
              <param name="X" type="float" />
              <param name="Y" type="float" />
              <param name="Z" type="float" />
            </accessor>
          </technique_common>
        </source>
        <source id="normals">
          <float_array id="normals_array" count="1701">0.109386094 0.993849754 -0.0172431562 0.217973828 0.970608592 -0.102011897 -0.0108972648 0.997112751 0.0751496404 -0.466599882 -0.332097143 -0.819753647 -0.333959103 -0.228105739 -0.914570451 -0.303762078 -0.243441567 -0.921121478 -0.490046173 -0.377345413 -0.785789549 0.310042351 0.934480608 -0.174985111 0.590275943 -0.80262655 -0.0858187824 -0.164792821 0.624122083 -0.763750613 -0.346518546 0.676708817 -0.649607658 -0.395931125 0.69802767 -0.596653938 0.015591925 0.80670929 -0.590742767 -0.979659081 -0.180922449 -0.0868053958 -0.998734415 -0.0502060652 0.00298985397 -0.990120053 -0.1014181 -0.0968330353 -0.998367369 0.0327390283 -0.0468048565 -0.977707148 0.178320587 -0.110862538 -0.10543026 -0.994246721 -0.0189177841 -0.294813663 -0.943571091 -0.150859311 -0.476998329 -0.856849194 -0.195658058 -0.153564945 -0.981102705 -0.117708646 -0.158934534 0.981814921 0.103823155 -0.26563099 0.961746454 0.0669623911 -0.281757116 0.959472299 0.00508401962 -0.165798813 -0.181383103 -0.969335318 -0.97377795 -0.0455164537 -0.222900689 -0.988023996 -0.0356833711 -0.150117606 -0.97214824 -0.168491751 -0.162906051 -0.888567805 -0.405237198 -0.215011895 -0.752494693 -0.516313553 -0.408866793 -0.414572656 -0.866119206 -0.279225796 -0.346990436 -0.912667274 -0.215953901 -0.310019583 -0.933495402 -0.180205882 0.898731887 0.253931463 -0.357490897 0.955830455 0.253521979 -0.148710325 0.871935666 -0.0130548635 -0.489446372 0.991369009 0.125564203 0.037697807 -0.417515814 -0.565005541 0.711652517 -0.989599586 0.136021852 0.0468048975 -0.95832783 0.271856993 0.0877583623 -0.987829089 0.147224024 0.0501868688 -0.999916017 -0.012837139 0.00178883341 0.0304445345 -0.935789526 0.351242155 -0.214314699 -0.926384866 0.309645474 0.0785827041 -0.930830598 0.356902152 -0.297282815 -0.909528434 0.290483952 -0.606730103 -0.530501187 -0.591985643 0.807763278 -0.326860249 0.49059239 -0.870510221 -0.453510612 -0.191154599 0.972515583 0.138821274 0.186928138 0.927346528 0.323502272 0.188081682 0.883136153 0.428207546 0.191595346 0.142518207 0.1517739 0.978086531 0.205168754 -0.503884196 -0.839050949 -0.843121052 -0.44859314 -0.29649803 -0.708885789 -0.702753544 0.0601534843 -0.814781845 -0.57975328 -0.00407848228 -0.62332058 -0.775103807 0.103371002 -0.686967432 0.714210868 0.134084105 -0.399861246 0.915764213 0.0385607705 -0.910442054 -0.405339688 -0.0824319795 -0.183543801 -0.667593241 0.721547604 -0.290337831 -0.644469082 0.707363784 -0.0635669678 -0.747101843 0.661663055 0.699605882 -0.699032187 -0.148005575 0.98849082 -0.145564914 -0.0411909856 0.976723373 -0.191643983 -0.0963537544 0.998613954 -0.0483490042 -0.020797886 0.700124562 -0.349125445 0.622845948 -0.131880999 -0.968157887 -0.212785527 -0.102566049 0.0296559166 -0.994284034 -0.135769635 0.0762101635 -0.987804949 -0.100145414 0.0262766797 -0.994625747 -0.0747722834 -0.990801871 -0.112786241 -0.257621855 0.901911736 0.346678853 0.027336875 -0.752936065 -0.657525659 -0.0841942802 -0.80411911 -0.588475764 0.0799455494 -0.723506927 -0.685672224 0.152220741 -0.67745775 -0.719638646 -0.109652787 0.0111700036 0.993907213 -0.191357866 0.00235357787 0.981517494 -0.138373613 0.0533210412 0.988943696 -0.0618183538 -0.730461717 0.680150092 0.104234532 -0.813922763 0.571546078 -0.108278647 -0.0572745577 0.992469311 -0.0932692289 -0.00631266227 0.995620906 -0.993368208 -0.0144020859 -0.114070825 -0.985924244 0.120457359 -0.115945533 -0.999229789 0.0279733222 0.0275197346 -0.995370269 -0.0335948765 -0.0900523141 0.878558576 -0.477543563 0.00932762492 0.850158811 -0.520982981 0.0762020946 0.862997651 -0.500465333 -0.0690613985 0.441597313 -0.6093961 -0.658504486 0.964833796 -0.161683023 -0.207254246 0.917819977 -0.322735876 -0.231188193 0.923200607 0.00201822841 -0.384313077 -0.264582396 0.288910359 0.920068979 -0.166586831 0.10137286 -0.98080188 -0.367878139 0.26722309 -0.890650034 -0.10974241 0.0550069697 -0.992436826 0.144554764 -0.615508914 0.774759769 0.0362873934 -0.685625553 0.727049351 -0.156775534 -0.777633488 0.608857572 0.469557017 -0.529059291 0.706832707 -0.884769619 -0.435014158 -0.167168885 -0.840850711 -0.501454592 -0.20374836 -0.957321763 -0.169933408 -0.233789757 -0.989933193 -0.030650638 -0.138176903 -0.0219478328 -0.758159161 -0.651700079 -0.0319003798 -0.810767412 -0.584498584 0.033395052 -0.689245105 -0.723758161 -0.231704161 0.970697224 -0.0637186244 -0.156567067 0.983442008 -0.0912609324 -0.180713981 0.979575396 -0.0881729275 -0.0954251885 0.994756222 -0.0367978364 -0.998524487 0.00929443073 0.0535014793 -0.965516448 0.239115164 -0.102965832 -0.380161047 -0.368453324 0.848362982 -0.969321847 0.243486077 -0.0336105824 -0.977739573 -0.0756566003 0.195707545 -0.989646554 0.0467345454 0.135703996 -0.994327903 0.0694706887 -0.0805347487 -0.996284008 -0.0858092979 0.00741561875 -0.990567863 0.00339769456 -0.13698107 -0.951006055 -0.11940302 -0.28518486 -0.393294811 -0.700714529 -0.595246434 0.990786135 0.0186382607 0.134147003 0.989977539 -0.0915526748 0.107529238 -0.908845603 0.0441059843 0.414794266 -0.931491613 0.086843878 0.353244334 -0.806352735 -0.0865888894 0.585062087 0.131911814 0.373828799 -0.918069303 -0.990427196 -0.0133208027 -0.137391999 -0.833447218 0.279935688 -0.476447046 -0.806999564 0.263036579 -0.528737605 -0.959337413 -0.170485958 -0.224958286 -0.841394126 0.53139776 -0.0983481407 0.0568512976 0.945303023 -0.321201116 -0.330499232 0.682846129 -0.651530087 -0.369609058 0.696302533 -0.615265727 -0.475072771 0.462619483 -0.748524606 -0.697847009 0.711269081 -0.0842961222 -0.785550594 0.61876291 0.00653942814 -0.781350315 0.624070168 0.00530349324 -0.783037722 0.621947169 0.0057987459 -0.788187802 0.615391254 0.00732091488 0.837432206 -0.512396216 -0.19015111 0.974566579 0.0738947764 0.211564422 0.16605708 0.843955517 0.510062814 0.0435625166 0.641811609 0.765624046 0.0420038998 0.794935226 0.605238557 0.839515865 -0.537582815 0.0788535699 0.467501521 0.0825635493 0.880128145 -0.980186701 -0.170798928 0.10030853 0.0240207389 0.997305751 0.0693125874 -0.622653246 0.780465126 -0.0563658327 -0.974622905 -0.185164347 0.125794664 -0.220064238 -0.974418402 0.0456121787 -0.267368764 -0.960167229 -0.081195958 -0.475741655 -0.866657913 -0.150246471 -0.0407731496 -0.195571646 -0.979841471 -0.0970000997 -0.964934468 0.24391073 -0.153683543 0.837761164 0.523963392 -0.546162605 -0.830615819 -0.108553357 -0.677697182 0.732856333 0.0604001842 -0.973449826 -0.0885315612 0.211086631 -0.989556313 0.127818272 0.0666391701 -0.997052491 -0.0682987794 0.0349521302 0.0754056126 -0.094730027 -0.992643058 -0.990381718 -0.0682313889 0.120368138 -0.996809721 0.0381616652 0.0701007992 -0.990043521 -0.0469266735 0.132709026 -0.653402448 0.531574607 0.538974702 0.200029001 0.96416837 -0.174263492 0.0128398621 0.903380632 -0.428647339 0.0328940004 0.893768728 0.447320282 -0.184577614 0.809907198 0.556759775 -0.180291563 -0.983440638 -0.0184254535 -0.0595805086 -0.98281467 0.174715281 -0.104561374 -0.993508697 0.044804547 0.00405848725 0.715091288 -0.699019253 0.0754527226 0.753826439 -0.652727008 -0.0349622592 0.691289842 -0.721731246 0.908793449 0.159703121 0.385472894 -0.664138258 -0.73436141 -0.140120342 0.17211853 -0.972243249 -0.158487499 -0.973831117 -0.189357936 0.125684127 -0.626351237 -0.0133667635 0.779426336 -0.745281219 0.260278016 0.613849521 -0.706601381 0.150360137 0.691452384 -0.5514853 -0.132696941 0.823562682 0.311858594 0.0369172394 0.949411035 -0.0777776912 0.23487857 0.968908012 0.067494154 0.0949521139 0.993191123 -0.0665140972 0.992766321 0.0999545902 0.030751178 0.998806477 0.0379473232 -0.0303834248 0.999500692 -0.00866999105 -0.167377144 -0.895323336 0.412772298 -0.269563228 0.834210694 0.481069833 0.269386083 -0.739796877 0.616548181 0.199423492 -0.960776329 -0.192715108 0.172990561 -0.979911745 -0.0992332548 0.331745565 -0.926919758 -0.175398439 -0.507701278 0.737919331 -0.444650918 -0.493403405 0.754150271 -0.433371007 0.801514983 0.569288909 -0.182985991 0.96099329 0.180971757 -0.209143892 0.858787 0.505298197 -0.0846089274 0.3017537 0.94255209 -0.143318921 0.318870455 0.938520908 -0.132288158 0.235433817 0.96498698 -0.115633123 -0.785580397 -0.480984867 0.389251798 0.147296876 -0.988618553 0.0306106452 0.112595677 -0.99140352 -0.0666426644 0.277658731 0.959910035 -0.0384495631 0.303440273 0.952616394 -0.0211197399 0.111321516 0.991186678 -0.0718089193 -0.68763411 0.719845653 0.0947709531 -0.78676194 0.230126262 -0.572754383 0.671227753 -0.71937269 -0.178763017 -0.0408606343 -0.999157369 0.003867744 0.880921245 0.387620807 -0.271528751 -0.024465736 0.996284127 0.0825795233 -0.0603744313 0.997941434 0.0216280352 -0.00327997422 0.994971156 0.100108378 0.0420484729 -0.982387424 -0.182062715 0.328826278 -0.906388402 -0.26520443 -0.160821393 -0.83753854 -0.522174001 0.989820898 -0.0322225876 -0.138622716 0.994997859 -0.0617432483 -0.0785302818 0.973215938 0.118353792 -0.197086543 -0.948722064 -0.312778711 0.0457808375 -0.073836349 -0.988617003 0.131090194 0.00917742029 -0.995510101 0.0942095593 -0.25003022 -0.945940077 0.206596911 0.340543687 0.168353006 -0.925033689 -0.0853298232 0.347236484 -0.933887362 0.225786746 0.223495349 -0.948193133 0.518512011 -0.60112524 0.608106613 0.445598722 0.894780338 -0.0284590442 0.630852044 0.774511337 -0.0464536659 0.500150442 0.865355611 -0.0317689776 -0.297608227 -0.81665659 0.494470775 -0.808783293 0.540872276 -0.230925828 0.825984716 -0.413942188 0.382623911 -0.968594253 -0.107424945 0.224243164 -0.859398842 -0.505558014 0.076451011 -0.810735047 -0.584035695 0.0401369333 0.272482723 -0.95852387 -0.0835769996 0.0315770879 0.990334928 0.135053918 0.371226966 -0.907482505 -0.196636796 0.948445559 -0.298719913 -0.10591267 0.0415007621 0.991446853 0.123736836 0.270801783 0.643265903 0.716153145 0.44232583 0.896521688 -0.024428241 0.620033979 0.783421516 -0.0425273851 -0.983849943 0.0193988271 0.177941039 0.985292017 -0.0267243795 -0.168776304 0.982433915 -0.00564334169 -0.186525613 0.998896003 0.0154061019 -0.0443782136 -0.743004501 0.656906664 0.128132373 -0.936414063 0.12131343 0.329259485 -0.967511892 0.0791357905 0.24012126 -0.998823166 -0.0109458454 0.0472488068 0.840318739 0.252910554 -0.479479611 0.947182178 0.0114102745 -0.320493013 -0.876162291 -0.480939269 0.0322037265 -0.815294802 0.220479891 0.535427868 -0.223683491 0.966332793 -0.127148151 -0.193682 0.974939048 -0.10945826 -0.116634846 0.993123651 -0.0100832656 -0.910803378 -0.157390565 0.381661385 -0.926939487 0.196913287 0.319387376 -0.962079763 0.172622845 0.211196348 -0.973292768 -0.00143087353 0.229562953 -0.96915555 -0.0525140427 0.24078986 0.999922097 0.00571953831 -0.0110951327 0.321767837 -0.946788192 -0.00758416578 0.485776007 -0.873996198 -0.0123399161 -0.990172982 0.108873978 0.0877721608 -0.961328387 0.255435467 0.102958702 -0.962499619 0.259616911 0.0786988959 -0.99109298 0.123100296 0.0508038364 -0.413608342 0.908732951 0.055968985 -0.50900209 0.85989511 0.0386946015 -0.421667397 0.905100703 0.0546748005 -0.518722236 0.854149163 0.036830049 0.459559143 0.815975726 -0.350697845 0.949468732 -0.30880177 -0.0561305434 0.965801716 -0.256989628 -0.0344009362 0.947628796 -0.3138403 -0.0591942668 0.937993526 -0.343838513 -0.044081796 0.931656182 -0.36035338 -0.0464996025 -0.966274738 0.167857841 0.195286781 -0.988978863 -0.0440063588 0.141365826 0.827702284 0.558893919 -0.0504634269 0.992461503 0.0442614816 -0.114285141 0.981132269 -0.184684828 -0.0571924709 0.979595602 0.112725578 -0.166389391 -0.964694262 0.228347242 0.131234705 -0.982881308 0.0562154427 0.175454274 -0.952941835 0.176519588 0.246460453 -0.201501235 -0.842859924 -0.498983324 0.952939332 -0.187593222 -0.238149926 0.9829458 -0.117244326 -0.141673192 0.996055543 -0.0761801675 -0.0454970412 0.107475974 -0.781194091 -0.614967287 0.553354263 -0.496894956 -0.668501616 0.996870816 -0.0195047408 -0.0766036883 0.987315297 -0.108039752 -0.116343886 -0.993502676 -0.0260396246 0.110789955 0.99676013 0.0383740999 0.0706867278 0.995944798 0.0889291465 0.0136209903 -0.935965061 0.191993192 0.295140594 -0.992475629 0.112397261 0.0485695899 0.977931261 0.138278469 0.156619191 -0.939567626 0.150810078 0.307358027 -0.699217737 0.0880785659 0.709462225 0.999568403 -0.0202161018 -0.0213139355 0.90448308 -0.360388756 -0.228101492 0.993921101 0.105305798 -0.0321182311 -0.969839752 0.234626785 0.0660391822 0.376540989 0.924099147 0.065250501 -0.0877738521 0.992374778 0.0865338445 0.399721801 0.914423227 0.0636599809 -0.192380592 0.977297723 0.0887629464 0.609443247 -0.784149826 -0.116995595 -0.0146227088 0.738533795 0.674057841 0.83847636 0.515506923 -0.176663563 0.929816723 -0.277401119 -0.24184607 0.527736545 -0.849089622 0.0232579336 0.725359917 -0.688154697 0.0172098093 0.674069166 -0.738422751 0.0190414414 -0.845265985 0.520163953 0.122290142 -0.906386554 0.406092077 0.116415776 0.782176018 -0.622879744 0.0148852849 -0.825256407 -0.277386665 -0.491943598 -0.999463439 -0.00443552388 0.0324515589 -0.974967718 -0.188169107 0.118449524 -0.964463949 0.25191918 0.0796622485 -0.965908229 0.24654077 0.0789868385 -0.0455179401 0.0849256665 -0.995347023 -0.664585948 0.255551159 0.702153206 0.43734321 -0.852247357 -0.28706339 0.283945411 -0.848909676 -0.445788443 0.370176166 -0.86683023 -0.334028333 0.271994591 -0.941779554 -0.197661772 -0.32873708 0.408244133 -0.851627052 0.97222054 0.0969551429 0.213042066 0.994429886 0.0124072498 -0.104667619 -0.00892762933 0.719491959 -0.694443345 -0.905795813 -0.32439521 0.272583455 0.146634385 0.982190728 -0.117472447 0.136190623 0.984220684 -0.112968028 0.221902922 0.971125126 -0.0876076818 -0.0811133981 -0.877789021 0.472130358 -0.640505672 -0.7678653 0.0116348686 -0.635213673 -0.772205532 0.0142194526 -0.583374619 -0.81164968 0.0299807917 0.771413267 -0.634767592 0.0446283296 0.17502518 0.983379543 -0.0482789278 -0.2739622 0.960672677 0.0453071669 -0.404504865 0.914262295 -0.022366479 -0.4431234 0.894999266 -0.0511655621 0.255679727 0.966270745 0.0308011025 0.129131168 0.98877579 -0.0751501396 0.0090504773 0.981725752 -0.190085799 0.0506012514 0.977695107 -0.203842521 -0.0366861336 0.991849601 -0.122018345 0.00241948059 0.998472512 -0.055197414 0.308606237 0.942551136 -0.127904356 0.0314302444 -0.997394621 -0.0649316981 0.0119025549 -0.998203456 -0.0587216131 0.0010392617 0.999877334 0.0156269092 0.0405596718 0.999136984 0.00895388145 -0.593709111 0.328643143 -0.734508812 -0.8824597 -0.441767782 0.161573961 -0.239180014 0.804688692 -0.543386638 -0.692521214 -0.720984101 0.0244178157 0.974708021 0.0229266901 -0.222303152 0.996104121 0.0390070789 -0.0790885985 0.996596456 -0.00844185241 -0.0820017084 -0.848786294 -0.517602265 0.107933782 0.854658842 0.516703784 -0.0507490598 0.844085336 0.524736464 -0.110325024 0.862781405 0.505295336 0.0168771259 0.866492033 0.493463814 0.0753988177 -0.886168003 -0.45990324 0.0565273836 0.963544607 0.0279609058 -0.266082734 0.99642837 0.0451210663 0.0713763088 0.978209615 0.0314217024 -0.205228359 -0.9793244 0.092715688 0.179798499 -0.974003315 0.128142819 0.186807156 -0.985717595 0.0269887168 0.166230068 -0.265072882 0.961665213 0.0702591464 -0.413571417 0.908750892 0.0559504814 0.547917187 -0.835699677 -0.0373205245 0.718448102 -0.69533062 0.0186460055 0.684986055 -0.728491664 0.00969797373 -0.40967676 0.88456732 -0.222947568 0.724817634 -0.0169961527 -0.688731074 0.94794178 0.029650718 -0.317060262 -0.976215661 -0.0727891028 0.204217285 0.970556021 0.00427279761 -0.240837514 0.974157631 0.0131028648 -0.225488767 -0.903384566 -0.323728621 0.281240284 0.584276021 -0.805082619 -0.102290995 -0.885225654 -0.297071695 0.357943982 0.960939467 -0.156913906 -0.227976814 0.881168544 -0.36418435 -0.301515818 0.968263626 0.138275638 -0.208195642 -0.913493037 0.39932552 0.0779076293 -0.905517578 0.418908685 0.0674788356 -0.736634016 0.670974433 -0.084637925 -0.987625301 -0.0281723458 0.154280752 0.148286909 0.984880149 -0.0895659104 -0.304835618 -0.941224277 0.145506456 -0.017903639 -0.998907208 0.0431724861 -0.195337594 -0.96066314 0.197407112 0.142332911 0.97437197 -0.174185559 0.165279582 0.977794588 -0.128842562 0.0198881496 -0.997664154 0.0653509349 0.997827351 0.0442707166 0.0487923957 0.355516046 0.897758842 -0.260071933 -0.714026511 0.692936897 -0.100022957 -0.943513274 -0.312872916 0.109056115 -0.935052156 -0.323286623 0.145475954 0.544930577 0.836229026 -0.061414063 0.213095352 -0.976988316 0.00917416718 0.89030385 -0.0134229688 0.455169082 0.980982959 0.00659481762 0.193981916 0.99945271 -0.0195449684 -0.0266877711 -0.0622562394 -0.980990827 0.183796525 0.020378584 -0.993250728 0.114182927 0.757717311 0.649647415 -0.0618287027 0.990334749 0.124571353 0.060984116 -0.955570102 -0.14148137 0.258589953 0.963624001 0.181231588 -0.196427941 0.973601639 0.169573456 -0.152789786 0.963329852 0.139644101 -0.229118094 0.973373294 0.196643576 -0.117795274 0.940835893 0.236780897 -0.242410153 -0.904510796 -0.284157783 0.317985177 0.952914774 0.231967956 -0.195305735 0.936369419 0.20548448 -0.284584731 -0.977694809 0.1360856 0.159979939 -0.981394231 -0.191709548 0.0106238136 -0.869499505 -0.338140279 -0.360044152 -0.977108777 -0.186584443 0.102199309 -0.99407661 0.0785538107 -0.0751068369 -0.986169815 0.0658494234 0.152095228 -0.99719131 0.000537101005 0.0748942718 -0.988598228 -0.131279528 0.0737514198 0.997804523 0.040337462 -0.0525260679 -0.991900027 0.120081224 0.0414104685 0.997254312 0.0688470826 -0.0272746887 0.999717653 -0.00688849436 -0.0227422938 -0.98580122 -0.128450364 0.108150251 -0.477516145 -0.0393815674 0.877739966 0.992150307 0.109397233 -0.0605803728 0.957276583 0.174496159 -0.230592012 0.981784046 0.166948885 -0.0907092169 0.914800465 0.0265006069 -0.40303579 0.95217818 0.0482872874 -0.301703572 -0.734702349 -0.642262399 0.21842964 -0.645001113 -0.725786924 0.239179596 -0.72269249 -0.654691637 0.221572772 0.968894482 0.0970012024 -0.22767143 -0.594023585 0.669101596 -0.446586043 -0.993485332 -0.10823781 0.0356581472 -0.99890101 -0.00129570591 0.0468513109 0.948723197 0.31168437 0.0526984856 -0.982962728 -0.166259006 0.0783726722 -0.998914242 -0.0329926722 0.0328904651 -0.49464643 -0.86474508 0.0868381634 -0.507674694 -0.856461823 0.0934855193 -0.933293879 -0.347772866 0.0895355642 -0.956532717 -0.288814038 0.0403937362 -0.642786264 -0.72760427 0.239620224 0.962073147 0.250310153 0.108443901 -0.95823276 -0.27478838 -0.0792551488 0.889413893 0.444047987 0.108463474 -0.960422933 -0.272099018 -0.0595811903 0.800161362 0.599657476 -0.0123583069 0.975337863 0.218679503 -0.0299221613 0.998738229 0.0495937355 -0.00790332258 0.641411126 0.0155289043 0.767040133 0.230944037 0.968249261 0.0956987813 -0.973564208 -0.0435258113 0.224228024 -0.942336738 -0.0868371427 0.323203921 0.0509185381 -0.0106508592 -0.998646021 0.254449904 -0.0507117994 -0.965755403 0.230906114 -0.0460791439 -0.97188431 -0.00183533563 -0.000262873218 -0.999998271 -0.0361129083 0.99932754 -0.00635061227 -0.0434228517 0.998989284 0.0116119059 -0.0862416103 0.995770335 0.0316830352 -0.0655449554 0.997607529 0.0219791066 -0.207399309 0.226338133 -0.95171243 -0.0232535582 0.999727249 0.00216441462 -0.804361939 -0.0853673369 0.587974727 -0.0606597699 -0.0285699908 -0.997749567 0.999894798 0.0143779153 0.00192269043 0.999781013 0.0171530191 0.011985925 0.997345507 0.0639099106 0.0348920263 0.996136189 -0.00342205516 -0.0877553448 -0.0621953011 0.997703493 -0.0268225763 -0.00769370049 0.999548435 -0.029046258 0.954253733 0.212855473 0.209981814 -0.321344078 -0.917080045 0.236013174 -0.629379451 -0.232566506 0.741481185 -0.00782305468 -0.999934077 0.00840669125 -0.0172760244 -0.999804258 -0.00964014232 -0.061152488 -0.997694492 -0.029428985 -0.109300204 0.640774071 -0.759909213 -0.997346163 0.0145347407 0.0713395029 -0.99260354 0.116712078 0.0334146693 -0.796330631 0.499888659 0.340542018 0.00508232415 -0.997326732 -0.0728942379 0.130834416 -0.985223174 -0.110533752 -0.999575853 0.00240996806 0.0290228892 -0.009712114 -0.99993664 -0.00569092715 -0.0394203775 -0.999070287 0.0174543336 -0.00199756422 -0.999995768 -0.00210327259 0.996296585 0.0450731479 -0.0732226819 0.999657571 -0.00650684861 -0.0253457185 0.995899022 -0.0550558753 -0.071791485 0.998135388 -0.0606155246 -0.00717341155 -0.0156802442 -0.989002645 -0.147064388 0.0335587636 -0.997215688 -0.0665930659 0.991973937 0.0379997864 -0.120597318 0.993912458 0.00252662692 0.11014358 0.99451232 0.0237987135 -0.101876944 0.999052703 0.0333853699 0.0279123578 0.990806639 -0.0633118674 0.119556583 -0.20177488 -0.973389268 0.108628862 -0.0836859122 -0.995087743 0.0528866015 -0.0513774753 -0.998456478 -0.0210954454 -0.0964633301 -0.994340658 -0.0445140749 -0.181558385 0.957795203 0.222856358 0.00687931105 0.991580248 0.129310861 -0.0591532998 0.984887421 0.162780911 -0.231359437 0.941111565 0.246539637 0.997734308 0.0594159178 -0.0315596014 0.995355308 -0.0829018578 0.0489398167 0.956934273 -0.0677348524 0.282292068 0.341232568 -0.93996954 0.00419137441 -0.0097833937 -0.999948263 -0.00278441445 -0.0122335656 -0.999807656 0.0153307337 0.188428879 0.622365654 -0.75970751 -0.0362882353 -0.156231165 0.987053692 -0.197708085 -0.0586857684 0.978502691 -0.0794823915 0.996479273 0.0266751442 0.0464177355 -0.787138104 -0.615027666 0.765500426 -0.627739549 -0.141251877 -0.486522347 -0.068021968 -0.871016085 0.956987143 -0.0939316005 -0.274504095 -0.0573358834 0.994574428 0.0868001953 -0.0179243311 0.99875772 0.0464950763 0.00175846333 0.42531395 0.905044138 0.981456339 -0.186041594 -0.0461739302 0.097259365 0.995249152 -0.00443783542 -0.994332135 -0.0122288987 -0.105612554 0.952744186 0.0539316349 0.29894799 0.435616374 0.118158154 -0.892343581</float_array>
          <technique_common>
            <accessor source="#normals_array" count="567" stride="3">
              <param name="X" type="float" />
              <param name="Y" type="float" />
              <param name="Z" type="float" />
            </accessor>
          </technique_common>
        </source>
        <vertices id="vertices">
          <input semantic="POSITION" source="#positions" />
        </vertices>
        <triangles material="scout_b2b2b2" count="458">
          <input semantic="VERTEX" source="#vertices" offset="0" />
          <input semantic="NORMAL" source="#normals" offset="1" />
          <p>0 0 1 1 2 2 0 3 2 4 3 5 0 3 3 5 4 6 5 7 1 1 0 0 2 8 1 8 4 8 5 9 6 10 1 11 4 12 1 12 7 12 8 13 9 14 10 15 11 16 10 15 9 14 11 16 12 17 10 15 8 18 13 19 14 20 15 21 8 18 14 20 16 22 17 23 8 24 2 4 18 25 3 5 19 26 20 27 21 28 22 29 21 28 14 30 23 31 14 32 21 33 10 34 24 35 13 36 10 34 25 37 24 35 26 38 24 38 14 38 24 39 26 40 22 41 24 39 22 41 13 42 25 43 22 44 26 45 25 43 10 46 22 44 22 29 14 30 13 47 26 48 14 48 23 48 10 15 13 49 8 13 25 37 9 50 27 51 24 35 25 37 27 51 24 35 27 51 14 52 9 53 8 53 27 53 28 54 9 54 29 54 29 55 30 55 28 55 28 56 31 57 9 58 17 23 28 59 27 60 17 61 31 57 28 56 32 62 31 63 17 64 33 65 34 65 35 65 36 66 37 67 38 68 39 69 29 69 26 69 15 21 23 31 40 70 16 71 32 72 41 73 20 74 40 70 21 33 23 31 21 33 40 70 15 75 42 75 23 75 43 76 28 77 30 78 44 79 43 76 30 78 32 80 45 81 46 82 41 83 17 64 47 84 48 85 32 80 16 86 5 87 20 27 49 88 41 89 47 89 50 89 5 87 4 90 20 27 51 91 52 92 53 93 54 94 55 94 56 94 57 95 58 96 59 97 44 98 39 98 26 98 60 99 44 100 30 101 44 102 26 103 42 104 61 105 55 105 62 105 63 106 62 107 54 108 64 109 54 108 5 87 54 110 6 111 5 112 55 113 61 114 63 115 64 116 55 113 63 115 65 117 11 16 9 14 65 117 66 118 11 16 52 119 66 119 65 119 67 120 68 121 69 122 67 120 69 122 70 123 71 124 67 120 70 123 72 125 19 26 73 126 73 127 22 127 10 127 53 128 29 129 25 37 74 130 53 131 25 132 65 133 75 133 29 133 75 134 74 135 29 136 46 137 76 137 32 137 77 138 49 88 19 26 78 139 77 140 72 141 72 141 77 140 19 142 79 143 49 88 77 138 53 144 78 145 72 146 53 144 72 146 12 147 51 91 53 93 12 148 65 149 29 129 53 128 53 150 74 151 39 152 53 93 52 92 65 153 39 154 74 154 30 154 52 155 74 135 75 134 80 156 75 156 65 156 80 157 76 157 75 157 76 158 52 155 75 134 76 159 68 160 66 161 68 162 81 162 69 162 68 160 76 159 81 163 81 164 76 164 46 164 76 159 66 161 52 165 68 166 67 166 66 166 82 167 83 168 84 169 9 50 25 37 29 129 74 170 60 99 30 101 60 171 39 172 44 173 85 174 79 174 77 174 51 175 85 176 78 139 53 150 39 152 78 177 78 177 39 152 86 178 51 179 78 180 86 181 52 182 87 183 60 184 88 185 56 185 6 185 51 186 79 186 85 186 40 70 89 187 15 21 71 124 70 123 90 188 91 189 71 190 90 191 92 192 91 189 90 191 93 193 91 194 92 195 91 196 93 197 71 198 7 199 1 199 3 199 94 200 2 200 4 200 94 201 4 201 3 201 18 202 7 203 3 204 94 205 3 206 1 11 1 11 6 10 94 205 94 207 6 208 7 209 2 210 94 211 18 212 95 213 94 213 7 213 96 214 7 203 97 215 94 211 95 216 18 212 95 216 96 217 97 218 95 219 7 219 98 219 74 135 26 220 29 136 99 221 7 221 96 221 99 222 98 222 7 222 100 223 96 223 95 223 58 224 101 225 102 226 89 187 101 227 58 228 78 139 85 176 77 140 103 229 100 229 104 229 104 230 101 231 105 232 106 233 95 233 98 233 107 234 108 235 104 236 106 237 98 238 101 239 109 240 101 240 98 240 110 241 111 242 112 243 42 104 26 103 23 244 66 118 51 245 12 17 113 246 98 246 99 246 114 247 109 248 98 249 115 250 89 187 58 228 116 251 58 224 102 226 113 252 114 252 98 252 58 96 57 95 115 253 117 254 116 251 102 226 117 255 111 255 116 255 118 256 112 243 117 257 100 258 103 258 96 258 96 259 103 260 99 261 95 262 113 262 100 262 113 263 107 264 100 265 107 266 59 97 99 267 113 268 99 268 58 268 113 263 59 269 107 264 59 97 58 96 99 267 109 270 119 271 113 272 120 273 113 274 58 275 121 276 120 273 58 275 119 277 109 248 114 247 119 278 114 278 113 278 115 250 110 279 89 187 83 280 110 279 115 250 122 281 116 282 123 283 57 95 37 67 115 253 36 284 122 281 123 283 111 285 110 286 123 287 110 286 83 288 123 287 36 289 124 289 115 289 124 290 83 291 115 292 124 290 125 293 83 291 124 290 33 294 125 293 116 295 121 276 58 275 126 296 121 276 116 295 122 297 37 297 57 297 127 298 122 299 57 300 127 301 116 282 122 281 128 302 116 295 37 303 128 304 37 304 122 304 37 67 116 305 127 306 129 307 38 68 37 67 69 308 81 308 46 308 129 309 130 309 38 309 129 307 124 310 130 311 38 312 122 281 36 284 83 168 82 167 36 284 131 313 124 310 132 314 133 315 83 168 125 316 132 314 34 317 131 313 34 318 133 315 131 319 84 169 133 315 34 318 134 320 34 321 132 322 133 315 125 316 135 323 131 324 33 325 124 326 131 324 135 327 33 325 135 328 134 328 33 328 125 329 134 329 135 329 133 330 134 330 131 330 133 331 35 331 134 331 134 332 136 333 131 334 135 323 35 335 133 315 135 323 136 336 35 335 136 333 135 337 131 334 136 338 134 338 125 338 33 339 84 169 34 318 134 340 35 340 34 340 33 341 136 336 125 342 63 343 137 343 62 343 138 344 61 344 62 344 88 345 138 346 62 347 62 347 137 348 88 345 6 111 54 110 138 346 56 349 138 349 54 349 88 345 6 111 138 346 107 350 99 261 139 351 61 352 137 352 63 352 56 353 61 353 138 353 56 354 137 355 61 356 140 357 56 357 88 357 140 358 141 359 142 360 143 361 144 361 141 361 56 354 140 362 137 355 142 363 144 364 143 365 142 366 143 367 140 362 79 368 145 369 49 370 51 371 146 372 79 368 145 369 79 368 146 372 105 373 101 227 4 374 146 372 66 375 147 376 148 377 103 377 104 377 141 359 149 378 142 360 148 379 150 379 103 379 150 380 149 378 141 359 151 381 145 382 108 383 152 384 142 360 149 378 152 385 149 386 145 387 153 388 152 385 145 387 145 389 149 389 154 389 154 390 109 391 145 392 152 393 109 394 154 395 144 364 142 363 139 396 116 397 111 285 123 287 155 398 153 399 156 400 113 272 106 401 109 270 59 97 113 402 120 403 150 404 141 404 103 404 141 405 144 406 103 260 144 406 139 351 103 260 149 378 150 380 107 407 157 408 154 408 149 408 157 409 149 378 107 407 157 409 107 407 120 273 139 410 120 403 107 411 139 410 158 412 120 403 139 413 157 414 158 415 158 412 59 97 120 403 157 409 120 273 121 276 159 416 152 393 154 395 142 363 157 417 139 396 156 418 153 419 160 420 159 421 157 417 152 422 160 420 153 419 158 423 157 424 159 424 154 424 145 369 146 372 158 425 157 414 160 426 158 415 160 427 157 409 161 428 161 428 157 409 121 276 146 372 162 429 158 425 163 430 155 398 156 400 164 431 165 432 147 433 147 434 163 430 166 435 146 372 167 436 162 429 59 97 126 437 57 95 59 97 158 412 126 437 158 438 121 276 126 296 158 439 161 440 121 441 161 440 57 95 126 437 160 427 126 296 128 302 161 440 162 442 57 95 57 300 128 443 127 298 57 444 168 444 160 444 57 300 160 445 128 443 162 442 168 446 57 95 128 443 168 446 127 298 122 447 168 447 128 447 160 448 168 449 122 281 169 450 160 448 122 281 168 446 162 442 127 298 170 451 38 452 130 453 171 454 170 451 130 453 127 306 129 307 37 67 127 306 170 455 129 307 127 456 38 452 170 451 127 298 171 457 38 458 171 454 130 453 36 284 171 454 36 284 172 459 82 167 172 459 36 284 167 460 172 460 82 460 167 461 82 462 124 310 167 463 173 464 172 465 129 307 170 455 124 310 173 466 174 467 172 468 167 463 175 469 173 464 82 462 175 469 124 310 173 470 175 470 82 470 174 471 173 472 84 169 174 473 132 314 175 469 176 474 84 169 177 475 158 439 162 442 161 440 160 427 161 428 126 296 169 476 156 418 160 420 162 442 167 461 127 298 127 298 167 461 171 457 169 476 166 477 156 418 169 450 171 454 166 478 178 479 171 454 172 459 178 480 172 468 174 467 167 463 174 473 175 469 166 478 171 454 178 479 132 314 174 473 84 481 84 169 178 479 132 482 167 463 178 483 174 473 167 484 132 482 178 479 166 485 176 486 167 436 40 70 20 74 101 227 166 478 178 479 176 474 132 322 176 486 177 487 93 193 92 195 179 488 93 193 179 488 164 431 165 432 164 431 179 488 93 197 164 489 147 376 17 23 27 60 8 24 36 66 115 253 37 67 80 490 65 117 9 14 31 491 80 490 9 14 163 492 110 493 118 494 180 495 163 492 118 494 19 26 49 88 20 27 67 496 71 198 147 376 71 198 93 197 147 376 19 26 21 28 22 29 73 126 19 26 22 29 105 232 7 209 6 208 14 497 27 498 43 499 15 500 14 500 42 500 43 499 42 501 14 497 80 490 31 491 32 502 50 503 16 71 41 73 177 487 33 504 132 322 41 83 32 62 17 64 165 432 181 505 147 433 103 260 139 351 99 261 110 506 163 507 181 505 67 496 147 376 66 375 56 508 49 370 151 509 63 106 54 108 64 109 62 510 55 510 54 510 151 381 104 230 105 232 64 109 5 87 49 88 73 126 10 15 72 125 12 17 72 125 10 15 107 234 104 236 100 511 26 512 74 130 25 132 8 18 15 21 16 513 87 514 52 515 86 181 86 181 52 515 51 179 132 322 33 504 134 320 60 184 74 516 52 182 39 172 87 517 86 518 64 116 49 370 56 508 55 113 64 116 56 508 88 519 141 519 140 519 137 348 143 520 141 521 141 521 88 345 137 348 42 522 43 522 44 522 48 85 45 81 32 80 70 523 165 524 179 525 118 526 182 527 180 528 155 529 180 528 182 527 97 215 7 203 18 202 110 241 112 243 118 256 18 212 95 216 97 218 15 21 110 279 16 513 116 295 128 302 126 296 101 227 20 74 4 374 101 231 104 230 108 383 145 530 158 423 153 419 105 373 4 374 7 531 108 383 148 532 151 381 183 533 184 534 102 535 153 536 184 534 183 533 102 535 153 536 183 533 181 537 165 524 45 538 46 539 45 538 165 524 165 524 70 523 46 539 46 539 70 523 69 540 148 541 108 542 107 543 107 543 150 544 148 541 153 536 155 529 184 534 155 529 117 545 184 534 102 535 184 534 117 545 109 546 152 547 153 536 155 398 163 430 180 548 117 545 155 529 182 527 118 526 117 545 182 527 167 436 176 486 132 322 117 257 112 243 111 242 145 369 151 509 49 370 92 549 90 550 179 525 70 523 179 525 90 550 27 551 28 551 43 551 48 85 110 552 181 553 11 16 66 118 12 17 95 554 106 401 113 272 16 555 110 555 48 555 123 283 83 168 36 284 133 315 84 169 83 168 87 517 39 172 60 171 36 556 130 311 124 310 39 557 30 557 29 557 151 381 105 232 6 208 6 208 56 558 151 381 143 367 137 355 140 362 40 70 101 227 89 187 17 23 16 22 50 559 47 560 17 23 50 559 146 372 51 371 66 375 151 381 148 532 104 230 32 561 76 561 80 561 145 382 101 231 108 383 101 562 109 546 102 535 147 376 166 563 146 372 0 564 4 90 5 87 33 341 35 335 136 336 38 312 171 454 169 450 147 433 181 505 163 507 156 400 166 435 163 430 102 535 109 546 153 536 145 392 109 391 106 565 106 237 101 239 145 566 110 279 15 21 89 187 122 281 38 312 169 450 132 314 124 310 175 469 124 310 170 455 171 457 171 457 167 461 124 310 177 475 84 169 33 339 82 167 84 169 173 472 45 81 48 85 181 553 142 363 152 422 157 417 176 474 178 479 84 169 167 436 146 372 166 485</p>
        </triangles>
      </mesh>
    </geometry>
  </library_geometries>
  <library_visual_scenes>
    <visual_scene id="scene">
      <node id="left_knee_link">
        <instance_geometry url="#geometry">
          <bind_material>
            <technique_common>
              <instance_material symbol="scout_b2b2b2" target="#scout_b2b2b2" />
            </technique_common>
          </bind_material>
        </instance_geometry>
      </node>
    </visual_scene>
  </library_visual_scenes>
  <scene>
    <instance_visual_scene url="#scene" />
  </scene>
</COLLADA>