<?xml version='1.0' encoding='utf-8'?>
<COLLADA xmlns="http://www.collada.org/2005/11/COLLADASchema" version="1.4.1">
  <asset>
    <created>2026-09-14T00:00:00Z</created>
    <modified>2026-09-14T00:00:00Z</modified>
    <unit name="metre" meter="1" />
    <up_axis>Z_UP</up_axis>
  </asset>
  <library_effects>
    <effect id="scout_b2b2b2_effect">
      <profile_COMMON>
        <technique sid="common">
          <lambert>
            <emission>
              <color>0 0 0 1</color>
            </emission>
            <ambient>
              <color>0.35 0.35 0.35 1</color>
            </ambient>
            <diffuse>
              <color>0.7 0.7 0.7 1</color>
            </diffuse>
          </lambert>
        </technique>
      </profile_COMMON>
    </effect>
  </library_effects>
  <library_materials>
    <material id="scout_b2b2b2" name="scout_b2b2b2">
      <instance_effect url="#scout_b2b2b2_effect" />
    </material>
  </library_materials>
  <library_geometries>
    <geometry id="geometry" name="left_elbow_link">
      <mesh>
        <source id="positions">
          <float_array id="positions_array" count="234">-0.0305591226 0.0250620972 -0.00207755272 -0.00957746804 0.0345489606 0.00244081765 -0.0259713978 0.0254373383 -0.0160227008 -0.00613350887 0.0204199664 -0.024190722 -0.0229570847 0.0213934164 -0.011718045 -0.0129937073 0.0243860073 -0.0277535804 -0.00991584826 0.0321391448 -0.015436817 0.00909254234 0.0231157504 -0.033784803 -0.0272236522 0.0253862441 0.0139477989 -0.00620009517 0.0317963399 0.019076502 0.0226648133 0.0240033586 -0.0379008204 0.0432663448 0.020853892 -0.0414587669 0.0400014445 0.0204028506 -0.0290606264 0.0689587072 -0.00631749351 -0.0433796719 0.0482233018 -0.0229461882 -0.0327705145 0.0482826009 -0.00606615748 -0.0429579169 0.0690452233 -0.0320017636 -0.0140480241 0.0691973642 -0.0231203362 -0.0324203745 0.0486788489 0.00998800062 -0.043563161 0.0684149116 0.00955306459 -0.0439949259 0.0721313432 -0.0241602995 -0.0243811104 0.0722565502 -0.0264684707 0.000470728322 0.0984332114 -0.0277444907 -0.00426767813 0.0691023916 -0.0268799271 0.00641580205 0.0721487999 -0.0117237465 -0.0360531695 0.0722294152 0.00138312287 -0.0395150669 0.0495391451 -0.0151754208 0.0180113558 0.0482491814 -0.00587858539 0.0221796948 0.0480139405 -0.0281351209 0.00425208313 0.0465871692 -0.0119795948 0.0125351902 0.0400000699 -0.0107606668 0.0120074721 0.0467888862 -0.0132511891 -0.0305589009 0.0726732388 -0.0102594867 0.0170247592 0.0688851476 -0.0169977453 0.0169290137 0.0680500194 -0.00500038126 0.0230220556 0.0415641591 0.022094097 0.0199863166 0.0401612595 0.0209927168 0.00914428383 0.0128481472 0.021590706 -0.0219626911 0.0456399992 0.017342044 -0.0307002291 0.039322108 0.0297338665 -0.0346955135 0.068817392 0.0290962402 -0.0332447588 0.0719356388 0.0181213357 -0.0350607932 -0.0127245849 0.0246720295 0.028031528 0.0719350129 0.0289989095 -0.0217206869 0.0681175441 0.0348619483 -0.0171237998 0.072267063 0.0313752554 -0.0086398907 0.0689772293 0.0333087184 0.00283597922 0.0718637183 0.0277624391 0.00438670255 0.0464647487 0.0160156544 0.0122796036 0.0985109732 0.00885597337 -0.038717173 0.0256796815 0.0248942785 0.023940159 0.0394328609 0.0313022174 0.00985063985 0.00778431073 0.0242540203 0.0292950347 0.0689334199 0.0108032487 0.0220730025 0.0484147742 0.0120511129 0.0218277797 0.0686055273 0.0268849507 0.0142241437 0.072138764 0.00577192847 0.0192908496 0.0719472542 0.0181820896 0.0145744588 0.0479622446 -0.0303803682 -0.0178058278 0.0984658673 0.0213798005 0.0120446142 0.0467048436 6.0563958e-05 -0.0358430073 0.0400750302 -0.0079494305 -0.0337812863 0.0986008272 -0.0233511031 -0.0249653365 0.0984642208 0.00920985173 0.0185469575 0.0982632786 -0.0117666461 -0.0362386182 0.0985693485 -0.0121201575 0.0167337842 0.0983545184 0.0226820614 -0.0305655263 0.0995053127 0.0157044195 0.00738498615 0.0983510464 0.0310068745 -0.0165272746 0.0983259529 0.0292821079 0.00079575961 0.0995579362 -0.0119224088 0.0061997585 0.0996041968 -0.0175863504 -0.0201892909 0.0995362774 0.00960927457 -0.0298540853 0.0241279081 0.0224949922 -0.0106650917 0.0227074847 0.0212143157 0.0113370903 -0.0120830648 0.0215410106 0.0231551714 0.0117616579 0.0216062739 0.0226671994 -0.0244753808 0.0214099642 0.00635515666</float_array>
          <technique_common>
            <accessor source="#positions_array" count="78" stride="3">
              <param name="X" type="float" />
              <param name="Y" type="float" />
              <param name="Z" type="float" />
            </accessor>
          </technique_common>
        </source>
        <source id="normals">
          <float_array id="normals_array" count="462">-0.407116175 0.91299355 -0.0264415089 -0.197496772 0.979485929 0.0400299914 -0.373516321 0.901241183 -0.219658494 -0.31875357 -0.876166344 -0.361564308 -0.344591379 -0.922626972 -0.173251882 -0.343290508 -0.861520946 -0.374076605 -0.191355139 0.851503611 -0.488185227 -0.211601958 0.932358086 -0.293143272 -0.210040942 0.773487806 -0.597996175 -0.385058641 0.901957691 0.195453912 -0.111267902 0.91945827 0.377115309 -0.203119829 -0.978920162 -0.0213920157 -0.605050385 -0.79514581 -0.0407084115 -0.274042219 -0.959966302 -0.0580137521 -0.0140188038 -0.300415933 -0.953705251 -0.00120950711 -0.742051065 -0.670342267 -0.0235652886 -0.287665784 -0.957440913 0.0213132799 -0.996232748 -0.0840601176 0.00473158481 -0.753021538 -0.657978892 -0.0198673885 0.0872096717 -0.995991826 0.0341939218 0.184031487 -0.982325375 0.754900813 -0.585880518 -0.294735193 0.909017384 -0.414525658 -0.0430796966 0.886952221 -0.454834312 -0.0802587792 -0.0650820807 -0.993633747 -0.0919580609 -0.0152226035 -0.89140445 -0.452953011 -0.0176715255 -0.988073587 -0.15296495 0.610807359 -0.743367434 0.272615463 0.399331719 -0.779768467 0.482177675 0.823080659 -0.411200315 -0.3917301 0.827989459 -0.144514427 -0.541801691 0.779551446 -0.320940763 -0.537862957 0.818189383 0.00465368479 -0.574930012 -0.883458495 -0.288198143 0.369381815 -0.974171996 -0.0615016557 0.217270419 -0.990925491 -0.119924948 0.0607016459 -0.184065029 -0.982511461 0.0281297658 -0.235867232 -0.971595049 0.0192292426 -0.574819803 -0.817103267 -0.0438687019 0.500158191 -0.264278412 0.824620366 0.742566943 -0.424812585 0.517811418 0.754101276 -0.0803893209 0.651819587 -0.734191656 -0.677004158 0.0512631126 -0.560955822 -0.814831853 0.146210954 0.13106139 -0.527406037 -0.839443743 -0.160950422 0.774614573 -0.611610413 -0.805199683 -0.578184009 -0.131744906 -0.032982789 0.831820369 -0.554064095 0.0305012241 0.516978323 -0.855454922 -0.979395151 -0.128798604 -0.155550823 0.0760641471 0.774985194 -0.627385259 0.833152294 0.13802138 -0.535543978 0.813452184 0.284130067 -0.507509291 0.876919329 0.372542411 -0.303685158 -0.213920414 0.834396124 0.507957876 0.798814058 0.569767654 -0.19303073 0.745435476 0.655940175 -0.118610196 0.68280077 0.730274618 0.0219568983 0.814373553 0.546653092 0.194848895 0.83975786 0.471677452 0.268936932 -0.750276923 -0.65970844 0.0432348996 -0.00560339587 -0.0108527485 -0.999925435 -0.0176820736 0.547491133 -0.836624682 0.0421093255 0.207317084 -0.977367103 0.157397553 0.831972182 0.532022834 0.0743662193 0.916259766 0.393621266 0.0788313821 0.848680198 0.522998571 -0.00440757396 0.993731141 -0.111709401 -0.120697059 0.0782491565 0.989600599 -0.366624355 0.024197055 0.930054367 -0.0629860088 0.0899439678 0.993953168 0.127112702 0.640955567 0.756979764 0.0283847488 0.211863697 0.976886928 -0.00486579491 0.115194254 0.993331075 -0.818066478 -0.570853591 -0.069952786 0.775071621 0.160175785 0.611234605 0.0767207742 0.696902215 0.713050663 -0.00349042029 0.965225339 0.261395991 0.365465969 0.0469780229 0.929638445 0.790289819 0.307670802 0.529887438 0.844783306 0.375892282 0.380849242 -0.0376645513 -0.976931334 -0.210205853 -0.0314047262 -0.906635404 0.420744628 -0.0138009628 0.555989146 0.831074953 0.0211244151 0.661780536 0.7493999 -0.0126861436 0.870792925 0.491486281 0.153734848 -0.363721341 -0.918734133 -0.999976754 0.00544544961 0.00409892248 -0.999999702 0.00063996407 0.000452191336 -0.999996126 0.00223862682 0.00166536577 -0.999995768 -0.00229920517 -0.00177825068 -0.988417387 -0.0961999074 -0.117374159 -0.97802484 -0.01356511 -0.208046705 -0.98122704 -0.046865508 -0.187075227 -0.981127977 0.00740441121 0.193217576 -0.964871645 -0.154098928 0.212782219 -0.978614271 0.0130675174 0.205288395 -0.996275425 -0.0850052387 -0.0144698573 -0.986533165 -0.120809376 -0.110260822 0.0159320254 -0.873038173 -0.487391591 0.0264596641 0.205380619 0.978324413 -0.127399206 0.275683194 -0.952768743 -0.417481124 0.160623953 -0.894376576 -0.232904479 0.23766309 -0.943012059 -0.449864149 0.145545438 -0.881157637 -0.604135334 -0.795322955 -0.0498185009 0.0229339544 -0.447642267 -0.893918574 -0.0197481327 -0.574545324 0.818234503 -0.0123598436 -0.611959279 0.790792644 -0.0247549899 -0.187680975 0.981918037 -0.0234811828 -0.190799788 0.981348097 -0.0433912463 -0.713294983 0.699519396 0.0125169624 -0.759772599 0.650068402 0.0173031576 -0.763482034 0.645597279 -0.0210210457 0.905193746 -0.424478918 0.0338287689 0.711170673 -0.702205062 0.0257383585 -0.104070969 0.994236767 0.997521579 0.048907809 0.0505839288 0.998094559 0.0567980371 -0.0241099 0.998650491 0.0491616316 -0.0167446434 0.994983613 0.0974324271 0.0226839315 0.990031242 0.099368535 0.0998201966 0.994847238 0.013272102 0.100512579 0.994963408 -0.0392148793 0.0922495052 0.997224689 -0.0510652289 0.0541777238 0.99453187 -0.101734675 0.02358892 0.991048992 -0.110795788 -0.0744730383 0.996745646 -0.070604004 -0.0388997123 0.994158804 -0.0390470065 -0.100615896 0.998036981 0.045560807 -0.042969916 0.993088126 0.0161466375 -0.116255321 0.0279954989 0.975373447 -0.218775868 -0.0151919136 0.9985044 0.0525180921 0.124763533 -0.986324608 -0.107693434 0.102396309 -0.992898345 -0.0605629198 0.0484498926 -0.996727765 0.0647023618 0.0448601432 -0.989453077 0.137732461 -0.185571641 -0.932799101 0.308948278 0.085794583 -0.963276267 0.254436851 -0.347248971 -0.932417095 0.100082301 0.00212914567 -0.995558977 -0.0941155925 0.0533129089 -0.996887743 -0.0580737479 -0.00297667179 -0.993933737 0.109940261 -0.0845931843 -0.991283357 -0.101001769 -0.530709803 -0.770785689 -0.352472067 -0.546268344 -0.836898088 -0.0345318839 -0.481526792 -0.82982105 0.282008827 -0.225821808 -0.832975447 0.505130053 0.0490044318 -0.908516645 0.414965212 0.056541644 -0.953193188 0.297028244 -0.00700592529 -0.485382557 -0.874273777 0.0687125549 -0.800635457 0.595198631 0.028875351 0.935562551 0.35197863 -0.441369116 0.00626209565 0.89730376</float_array>
          <technique_common>
            <accessor source="#normals_array" count="154" stride="3">
              <param name="X" type="float" />
              <param name="Y" type="float" />
              <param name="Z" type="float" />
            </accessor>
          </technique_common>
        </source>
        <vertices id="vertices">
          <input semantic="POSITION" source="#positions" />
        </vertices>
        <triangles material="scout_b2b2b2" count="152">
          <input semantic="VERTEX" source="#vertices" offset="0" />
          <input semantic="NORMAL" source="#normals" offset="1" />
          <p>0 0 1 1 2 2 3 3 4 4 5 5 5 6 6 7 7 8 8 9 9 10 1 1 10 11 11 12 12 13 13 14 14 15 15 16 16 17 14 15 17 18 15 16 18 19 19 20 20 21 21 22 16 23 21 24 20 25 22 26 21 27 23 28 16 17 17 29 20 21 16 23 13 30 24 31 17 29 25 32 24 31 13 30 26 33 27 34 28 35 29 36 30 37 31 38 21 27 32 39 23 28 33 40 23 28 32 39 32 39 34 41 33 40 35 42 10 11 36 43 37 44 3 44 5 44 6 7 10 45 7 8 14 15 13 14 17 18 5 6 2 2 6 7 38 46 12 13 11 12 36 43 10 11 12 13 39 47 11 48 10 45 11 12 18 49 38 46 39 47 40 50 11 48 0 0 8 9 1 1 19 51 25 32 13 30 11 48 40 50 19 20 19 51 41 52 25 32 40 53 41 52 19 51 42 54 9 10 8 9 40 53 43 55 41 52 40 53 44 56 43 55 44 56 45 57 43 55 46 58 45 57 44 56 46 58 47 59 45 57 36 43 48 60 35 42 25 61 41 62 49 63 50 64 51 65 52 66 51 65 44 67 1 1 29 68 36 69 30 70 50 64 35 71 51 65 53 72 35 71 54 73 35 42 48 60 54 74 53 75 34 41 32 39 55 76 35 71 53 72 51 65 55 76 46 77 56 78 53 75 32 39 57 79 53 75 56 78 57 79 55 80 53 75 47 59 55 80 57 79 46 58 55 80 47 59 39 47 6 7 44 67 16 17 58 81 14 15 16 17 28 82 58 81 6 7 2 2 1 1 57 83 59 84 47 85 60 86 31 86 61 86 36 87 12 88 30 89 12 88 61 90 30 89 31 91 60 92 15 93 48 94 29 95 27 34 54 96 48 94 27 34 28 35 27 34 29 95 28 35 29 95 58 97 29 95 31 91 58 97 18 49 15 93 60 92 31 91 15 93 14 98 31 91 14 98 58 97 20 25 62 99 22 26 19 20 13 14 15 16 46 77 44 67 51 65 11 48 19 20 18 19 59 84 57 83 63 100 38 101 60 102 12 103 60 102 61 104 12 103 60 92 38 46 18 49 1 1 44 67 6 7 30 37 61 105 31 38 25 61 49 63 64 106 26 107 28 82 33 108 34 109 27 110 26 107 32 111 21 112 65 113 34 109 26 107 33 108 43 114 66 115 41 62 32 39 65 116 56 78 23 28 28 82 16 17 67 117 66 118 68 119 68 119 69 120 67 117 69 120 59 121 67 117 59 121 63 122 67 117 63 122 65 123 67 117 67 117 65 123 70 124 65 123 22 125 70 124 22 125 62 126 71 127 62 126 64 128 71 127 64 128 72 129 71 127 70 124 22 125 71 127 64 128 49 130 72 129 49 130 66 118 72 129 68 131 43 114 45 132 37 133 73 134 74 135 3 136 37 133 4 4 37 133 74 135 4 4 75 137 74 135 76 138 4 4 74 135 75 137 4 4 75 137 77 139 39 47 10 45 6 7 73 134 7 140 10 141 10 141 35 142 73 134 37 133 7 140 73 134 7 140 37 133 5 143 4 4 2 144 5 5 0 145 2 144 4 4 77 139 0 145 4 4 8 146 0 145 77 139 42 147 8 146 75 137 75 137 8 146 77 139 52 148 42 147 75 137 76 138 52 148 75 137 50 149 52 148 76 138 74 135 50 149 76 138 74 135 35 142 50 149 73 134 35 142 74 135 64 106 24 150 25 61 44 67 40 50 39 47 64 106 62 99 20 25 33 108 28 82 23 28 65 113 21 112 22 151 45 132 47 85 69 152 43 114 68 131 66 115 49 63 41 62 66 115 66 118 67 117 70 124 66 118 70 124 72 129 72 129 70 124 71 127 9 10 42 54 52 66 9 10 51 65 1 1 51 65 9 10 52 66 29 68 48 153 36 69 64 106 20 25 24 150 24 31 20 21 17 29 53 72 54 73 27 110 27 110 34 109 53 72 45 132 69 152 68 131 55 76 51 65 35 71 56 78 63 100 57 83 47 85 59 84 69 152 63 100 56 78 65 116</p>
        </triangles>
      </mesh>
    </geometry>
  </library_geometries>
  <library_visual_scenes>
    <visual_scene id="scene">
      <node id="left_elbow_link">
        <instance_geometry url="#geometry">
          <bind_material>
            <technique_common>
              <instance_material symbol="scout_b2b2b2" target="#scout_b2b2b2" />
            </technique_common>
          </bind_material>
        </instance_geometry>
      </node>
    </visual_scene>
  </library_visual_scenes>
  <scene>
    <instance_visual_scene url="#scene" />
  </scene>
</COLLADA>