<?xml version='1.0' encoding='utf-8'?>
<COLLADA xmlns="http://www.collada.org/2005/11/COLLADASchema" version="1.4.1">
  <asset>
    <created>2026-09-14T00:00:00Z</created>
    <modified>2026-09-14T00:00:00Z</modified>
    <unit name="metre" meter="1" />
    <up_axis>Z_UP</up_axis>
  </asset>
  <library_effects>
    <effect id="scout_b2b2b2_effect">
      <profile_COMMON>
        <technique sid="common">
          <lambert>
            <emission>
              <color>0 0 0 1</color>
            </emission>
            <ambient>
              <color>0.35 0.35 0.35 1</color>
            </ambient>
            <diffuse>
              <color>0.7 0.7 0.7 1</color>
            </diffuse>
          </lambert>
        </technique>
      </profile_COMMON>
    </effect>
  </library_effects>
  <library_materials>
    <material id="scout_b2b2b2" name="scout_b2b2b2">
      <instance_effect url="#scout_b2b2b2_effect" />
    </material>
  </library_materials>
  <library_geometries>
    <geometry id="geometry" name="left_hand_middle_0_link">
      <mesh>
        <source id="positions">
          <float_array id="positions_array" count="138">0.0198372118 -0.00796232466 -0.00953960605 0.0198264662 -0.00905218534 0.0102699874 0.0196411852 0.00519823842 0.00913563743 0.0201022159 -0.0127836941 -0.00909630768 0.0376748554 -0.00720365345 -0.0127136922 0.0377833061 0.00244160625 -0.00976955332 0.0382337198 -0.00756072626 -0.0097100772 0.0436634347 -0.0131457141 -0.00903179031 0.0442135222 -0.00929122325 -0.00913975388 0.044286821 -0.00963251851 0.0101001039 0.0397580974 0.00693095708 -0.0126127787 0.00454391493 -0.00650766864 0.0108938804 -0.00497773476 -0.00553883659 0.0129043469 -0.00571079226 -0.00518105039 0.00961926766 0.0206452738 -0.0141296927 0.0100475773 -0.00433531078 0.00418513501 -0.00960157439 0.0134781832 0.00598125299 -0.0126727121 -0.00377505645 0.00433195429 -0.0127204433 0.0184204541 -0.0059067416 0.00966256484 0.0218001734 -0.0145248473 -0.00837014988 0.0529330373 -0.00648676697 0.00940613449 0.0527213924 -0.00673454814 -0.00944252312 -0.00384412939 -0.00443359371 -0.00959766004 0.0190061443 -0.00690001342 -0.0126119638 0.0419902839 -0.014544907 0.00976962689 0.0415605605 -0.0145358117 -0.00830842648 -0.00429060496 -0.00406247843 -0.0127158379 0.0413612016 0.00730456179 -0.00962359551 0.0547298305 0.0101989796 -0.01283223 0.0186929889 0.012503311 -0.0116437236 0.0188879035 0.0125302123 0.0118725877 0.0132869212 0.00551659521 -0.00925572123 0.0196556095 0.00519762794 -0.00910418201 0.0184032079 0.00737771252 -0.0119781271 0.0546793491 0.00826254487 -0.00967014022 0.0412535705 0.0061540599 0.0127348891 0.0390193239 -0.00864893105 0.00994197838 0.0412147753 0.00583403045 0.00958948396 0.0546159483 0.00571412453 0.0110517824 -0.0054689995 0.00528347818 0.0129036522 -0.00477861986 0.00569262775 0.00958601851 0.0131572345 0.00645957654 0.0091291219 0.0184299517 -0.00593211409 0.0128334165 0.0182842668 0.00772165088 0.0117577715 0.0538938977 0.0116261644 0.012908536 0.0387887061 -0.00812898111 0.0128629711</float_array>
          <technique_common>
            <accessor source="#positions_array" count="46" stride="3">
              <param name="X" type="float" />
              <param name="Y" type="float" />
              <param name="Z" type="float" />
            </accessor>
          </technique_common>
        </source>
        <source id="normals">
          <float_array id="normals_array" count="378">-0.999446511 -0.0331934057 -0.00221221196 -0.996630788 -0.081757322 0.0065463949 -0.999910295 -0.01335089 -0.0010872524 -0.997463346 -0.0711800009 -0.000487463607 0.983119905 0.043213293 -0.177785888 0.869894564 -0.493220329 -0.00413653906 0.989925563 -0.141449302 -0.00628055539 0.919691503 -0.390418351 0.0417255089 0.901206434 -0.135763645 0.41157648 -0.117903978 -0.989676654 -0.0814783573 -0.986991286 -0.159898341 0.0167557895 -0.0928235203 0.994738162 0.043356698 -0.0793399438 0.989760756 0.11865437 -0.0951991677 0.995013952 0.0297384821 0.128395051 -0.0727406517 -0.989051819 0.0104738111 -0.0485424213 -0.998766184 0.252351582 -0.0735211074 -0.964838505 -0.709469914 -0.70412302 -0.029380912 0.342493922 -0.939481556 0.00850448851 0.32683751 -0.945080101 0.00091698498 0.303081393 -0.952906847 -0.01049677 -0.121667534 -0.985805631 -0.115690321 -0.0886886492 -0.951074958 -0.295957297 -0.0661899 -0.951998234 -0.298861682 0.526341498 -0.849673271 0.0319364741 0.305183142 -0.952262282 -0.00773350103 0.287156016 -0.957713127 -0.0180828627 -0.997134745 -0.0313926637 0.0688242242 -0.989251673 -0.0563161522 0.134943098 -0.993828237 0.0344308577 -0.105450958 0.00847947225 0.120497644 0.992677391 0.00659499643 -0.0463366061 0.998904109 0.011576321 -0.0725045428 0.997300923 0.762330472 -0.550675571 -0.340012819 0.0411925614 0.998556614 -0.0344648473 0.0637584999 0.997963965 -0.00167002913 0.0494765565 0.998523116 -0.022443179 -0.161226228 -0.986160994 0.0386335291 -0.0814140812 -0.996621013 0.0108770961 -0.0500208475 -0.998748183 -6.193025e-06 -0.993317902 0.115313537 -0.00472518569 -0.998401999 0.0559105091 0.00821128022 -0.997856736 0.0651418269 0.00620590989 0.176009029 -0.840731382 -0.512046456 0.988190293 -0.152312219 0.0167617369 0.981874347 -0.165592805 0.0922049731 0.988711119 -0.149803266 0.00304704253 -0.0199689567 -0.994640589 0.101446159 -0.999904871 -0.0137724616 -0.000790278951 -0.989991486 -0.0209295545 0.139566615 -0.976052225 -0.0442929082 0.212979466 -0.990811288 0.0608108677 -0.120809868 -0.977628648 0.0832189247 -0.193175688 -0.967346668 0.25268358 -0.0197843798 0.0336929597 -0.185080588 -0.982145607 -0.00502737751 -0.196070313 -0.980576932 0.0188542176 -0.0770282447 -0.99685061 -0.00721974997 -0.0919494033 -0.995737493 0.0518887155 -0.146274939 -0.987882197 0.0166964326 -0.989623725 -0.142709896 0.0205343906 -0.992343307 -0.121791452 -0.0283102263 0.0664293617 -0.997389436 -0.0287564583 0.0647592321 -0.997486472 -0.0242323801 0.0509194769 -0.998408735 0.0185226463 0.0534095205 -0.998400867 0.0568661876 0.0200474411 -0.998180509 0.00580030819 0.0210725255 -0.999761105 0.00283576548 -0.000722771103 -0.999995708 0.00332803954 -0.00159379642 -0.999993205 -0.00532000931 0.00792323053 -0.999954462 0.0147638554 -0.00624341238 -0.999871492 -0.00242561032 -0.0148590226 -0.999886632 0.0114050908 -0.0312674679 -0.999445975 0.0460083745 -0.00386809697 -0.998933554 -0.912905455 -0.40817076 -0.000531622383 -0.0772391558 0.988488376 0.130095392 -0.0191813484 -0.99961108 0.020244047 -0.0108555229 -0.99988085 0.0109767439 -0.0380388834 -0.0819954574 -0.995906532 -0.00287502119 -0.0796772316 -0.996816576 0.0416109823 -0.0750081837 -0.996314347 0.12161994 -0.0134609528 -0.992485464 -0.119854152 -0.987702668 -0.100391552 -0.194135755 0.976806343 -0.0903362259 -0.264017552 0.964227259 -0.0236760862 -0.164109543 0.977276444 -0.134159654 -0.269427478 0.96269387 -0.025087364 -0.0395383239 0.992671371 0.114194177 -0.0483335555 0.996239781 0.0719040334 0.00250830641 -0.46459344 -0.885520518 -0.00324960775 -0.390202373 -0.920723379 0.0425439365 -0.999061584 -0.00812167209 -0.982946575 0.0602729209 -0.173733175 0.0273889247 0.998140693 -0.0544520356 -0.0254463367 -0.0334090143 0.999117792 -0.020243017 -0.030884454 0.999317944 -0.0165191516 -0.0239971839 0.999575555 -0.00240414962 0.000317151222 0.999997079 -0.00750728417 -0.00983796176 0.999923408 0.0182854123 0.163593978 0.986358285 0.00612492394 -0.0343991444 0.99938941 -0.0714615285 -0.652093709 0.754762948 -0.0649544522 0.0776821226 0.994859993 -0.0250718035 0.0372226387 0.998992443 -0.0341600813 0.00652118213 0.999395072 0.0465287305 -0.036476437 0.998250723 -0.0195561778 -0.00594442757 0.999791086 0.207506105 0.00948226359 0.97818774 0.120820567 -0.0662224069 0.990463018 -0.0414814316 -0.0103898495 0.999085248 0.0764016286 -0.207432315 0.975261331 0.110512227 -0.285487771 0.951989353 -0.190771386 -0.980413735 0.048940964 -0.0304592624 -0.0241360161 0.999244571 -0.0324730352 -0.045742847 0.998425305 -0.108758174 -0.118127733 0.987024546 -0.992169857 0.124711893 -0.00677889353 0.0717792362 -0.99373138 0.0857071057 0.979905903 -0.168142885 0.107295603 0.999628603 -0.0227343868 0.0150280138 0.993879974 0.108931325 0.0183466002 0.99999094 -0.00131815684 0.00405172445 0.990747511 -0.135395706 -0.00934485253 0.991233349 -0.131604522 -0.0116930082 0.0236980226 -0.983923078 0.177013561 0.999211609 0.0247035213 0.0310797542</float_array>
          <technique_common>
            <accessor source="#normals_array" count="126" stride="3">
              <param name="X" type="float" />
              <param name="Y" type="float" />
              <param name="Z" type="float" />
            </accessor>
          </technique_common>
        </source>
        <vertices id="vertices">
          <input semantic="POSITION" source="#positions" />
        </vertices>
        <triangles material="scout_b2b2b2" count="88">
          <input semantic="VERTEX" source="#vertices" offset="0" />
          <input semantic="NORMAL" source="#normals" offset="1" />
          <p>0 0 1 1 2 2 1 1 0 0 3 3 4 4 5 4 6 4 7 5 8 6 9 7 10 8 5 8 4 8 11 9 12 9 13 9 1 1 3 3 14 10 15 11 16 12 17 13 18 14 2 15 1 16 19 17 14 17 3 17 20 18 9 19 21 20 22 21 23 22 0 23 24 24 25 25 7 5 21 20 9 19 8 26 26 27 22 28 15 29 9 30 14 31 24 32 10 33 27 33 5 33 28 34 29 35 30 36 2 37 31 38 32 39 30 40 29 41 33 42 34 43 10 43 28 43 35 44 36 45 37 46 38 47 35 47 37 47 2 2 32 48 0 0 13 49 12 50 39 51 39 51 40 52 13 49 41 53 16 53 31 53 7 54 3 55 6 56 6 56 3 55 0 57 6 56 8 58 7 54 23 22 4 59 0 23 4 59 6 60 0 23 29 61 28 62 10 63 33 64 29 61 10 63 16 65 33 64 23 66 17 67 16 65 26 68 16 65 23 66 26 68 33 64 10 63 23 66 10 63 4 69 23 66 27 70 34 71 21 72 21 72 8 58 6 56 27 70 21 72 6 56 27 70 6 56 5 73 1 74 42 74 18 74 15 11 31 75 16 12 14 76 19 77 24 24 41 78 2 15 18 14 41 78 18 14 11 79 41 78 11 79 40 80 11 79 13 81 40 80 25 25 24 24 19 77 22 21 26 82 23 22 43 83 33 84 41 85 41 85 33 84 16 86 40 87 39 88 41 85 39 88 43 83 41 85 24 24 7 5 9 7 25 89 19 90 7 54 7 54 19 90 3 55 18 91 42 91 11 91 15 29 17 92 26 27 44 93 28 34 30 36 32 94 31 95 0 96 22 97 0 96 15 98 0 96 31 95 15 98 36 99 1 100 9 30 1 100 14 31 9 30 1 101 45 101 42 101 42 102 45 103 43 104 11 105 42 102 43 104 45 103 35 106 43 104 12 107 11 105 39 108 43 104 39 108 11 105 43 104 35 106 30 109 30 109 35 106 44 110 35 106 38 111 44 110 2 37 41 112 31 38 9 30 20 113 36 99 20 113 37 114 36 99 20 113 38 115 37 114 33 42 43 116 30 40 34 117 27 117 10 117 35 44 45 118 36 45 34 119 44 120 38 121 20 122 21 123 38 121 21 123 34 119 38 121 36 124 45 124 1 124 28 125 44 120 34 119</p>
        </triangles>
      </mesh>
    </geometry>
  </library_geometries>
  <library_visual_scenes>
    <visual_scene id="scene">
      <node id="left_hand_middle_0_link">
        <instance_geometry url="#geometry">
          <bind_material>
            <technique_common>
              <instance_material symbol="scout_b2b2b2" target="#scout_b2b2b2" />
            </technique_common>
          </bind_material>
        </instance_geometry>
      </node>
    </visual_scene>
  </library_visual_scenes>
  <scene>
    <instance_visual_scene url="#scene" />
  </scene>
</COLLADA>