<?xml version='1.0' encoding='utf-8'?>
<COLLADA xmlns="http://www.collada.org/2005/11/COLLADASchema" version="1.4.1">
  <asset>
    <created>2026-09-14T00:00:00Z</created>
    <modified>2026-09-14T00:00:00Z</modified>
    <unit name="metre" meter="1" />
    <up_axis>Z_UP</up_axis>
  </asset>
  <library_effects>
    <effect id="scout_b2b2b2_effect">
      <profile_COMMON>
        <technique sid="common">
          <lambert>
            <emission>
              <color>0 0 0 1</color>
            </emission>
            <ambient>
              <color>0.35 0.35 0.35 1</color>
            </ambient>
            <diffuse>
              <color>0.7 0.7 0.7 1</color>
            </diffuse>
          </lambert>
        </technique>
      </profile_COMMON>
    </effect>
  </library_effects>
  <library_materials>
    <material id="scout_b2b2b2" name="scout_b2b2b2">
      <instance_effect url="#scout_b2b2b2_effect" />
    </material>
  </library_materials>
  <library_geometries>
    <geometry id="geometry" name="left_hand_thumb_0_link">
      <mesh>
        <source id="positions">
          <float_array id="positions_array" count="117">-0.0106482683 -0.0229661297 0.0094640702 -0.0107834255 -0.0226290897 -0.0094477199 -0.0103503708 -0.0235817339 -0.00948052108 -0.0109754056 -0.0220277067 -0.00949039683 -0.00624735374 -0.0273521319 0.00948589388 -0.007026962 -0.0270061381 0.00945850834 -0.00551433954 -0.0277347714 0.00946190581 0.00998227391 -0.000197015572 -0.00945669785 0.0100254361 -0.025761893 0.00947857555 0.0100121144 -0.0257697608 -0.00948346779 -0.0112527693 -0.0212297533 -0.00946393143 -0.00677426159 -0.0271368753 -0.0094708642 -0.00570319127 -0.0276523717 -0.00948210433 -0.00756385038 -0.0266929232 0.00947105605 -0.00829729624 -0.0259482227 0.00949241687 -0.00887881964 -0.0256257821 0.00948008709 -0.00903064292 -0.0254111011 -0.00945645757 -0.00967284665 -0.0246236958 0.00945525151 0.0075433515 -0.028242832 0.00948013552 0.00752438698 -0.0282549039 -0.00947688613 -0.00322460057 -0.028220566 0.00945922267 0.00949428137 -1.94058503e-05 0.00946538523 0.0100074131 -0.000265078823 0.00948529225 -0.0109825311 -0.0220313016 0.00946498476 -0.0110732783 -4.01951802e-05 -0.0094729783 -0.0113923056 -0.0193920378 -0.00945170317 -0.0114279678 -0.019304378 0.00945420284 -0.0114898011 -0.000516478205 -0.0094767129 -0.0113156596 -0.000184338976 0.00944369566 -0.0112536345 -0.0211920235 0.00946369115 -0.0101956101 -0.0238219034 0.00946411304 -0.00974587817 -0.024544185 -0.00945657119 -0.00327181257 -0.0282281134 -0.00945693348 0.00869883876 -0.027041031 -0.00949496776 -0.00851759501 -0.0258578565 -0.0094586499 -0.00477032643 -0.0279695652 -0.00947481859 -0.00752868364 -0.0267251171 -0.00947621651 -0.00473354803 -0.0279731564 0.00947996043 0.00908270944 -0.0266660396 0.00949372072</float_array>
          <technique_common>
            <accessor source="#positions_array" count="39" stride="3">
              <param name="X" type="float" />
              <param name="Y" type="float" />
              <param name="Z" type="float" />
            </accessor>
          </technique_common>
        </source>
        <source id="normals">
          <float_array id="normals_array" count="246">-0.915209472 -0.402977169 0.000979176373 -0.930750608 -0.365622044 -0.0048840614 -0.880310953 -0.474397063 -0.00031500656 -0.595739722 -0.244473472 -0.765066564 -0.15731281 -0.329231679 0.931052744 -0.100457795 -0.155497894 0.982714951 -0.101347655 -0.254433185 0.96176523 0.999999046 0.000894658035 -0.00107152096 0.999999046 0.000980743323 -0.000955301162 0.999999046 0.0011676061 -0.000703026017 -0.979818285 -0.199861765 -0.0033779901 -0.917156637 -0.310520679 -0.249801263 -0.363498539 -0.93159467 0.000386293279 -0.456293613 -0.889829278 3.98086158e-05 -0.378835142 -0.925464153 -0.00024903848 0.0119751412 -0.0168841761 0.999785721 -0.0253965687 -0.033024814 0.999131799 -0.0174128823 0.00682872254 0.99982506 -0.717195749 -0.696870148 -0.00150471216 -0.711065412 -0.703125715 -0.000417499221 -0.811186492 -0.584787548 0.000105027975 0.706762731 -0.707450628 -0.000250218844 0.706919551 -0.707293987 -0.000209367019 0.706738889 -0.70747447 -0.000256429368 -0.0824323893 -0.996596396 0.000682150014 -0.00234506745 -0.999997139 0.000482157775 -0.00206904393 -0.999997675 0.000639144157 0.0155735835 0.999838352 -0.00898322091 0.220310956 0.975429475 0.000633737189 0.431743205 0.901992619 0.00266807387 -0.946729541 -0.322029084 0.000635155593 -0.000705934362 0.999999702 -0.000331073417 -0.99915266 -0.0411468372 -0.000923865824 -0.998950303 -0.0457946956 0.00109217677 -0.999993205 0.000394855684 0.00365809165 -0.999941289 0.00587862777 0.00910016149 -0.979695976 -0.200488523 -0.00039471034 -0.861723661 -0.507376671 0.00110149093 -0.811009347 -0.585033119 0.000251179823 -0.000265791168 3.57440913e-05 -0.99999994 0.000312362914 0.00131312164 -0.999999106 0.00122597488 0.00160665205 -0.999997973 0.000775030756 -0.0156437401 -0.999877334 0.000201368763 0.00296249799 -0.999995589 0.163199678 -0.162552446 -0.973109722 0.00373621262 -0.00116096018 -0.999992371 0.00298226252 0.00369831081 -0.999988735 0.0299721602 0.0830202028 -0.996097028 0.0161758922 0.0246189963 -0.999566019 0.0145052969 0.0309293456 -0.999416292 0.0104213329 -0.00127109326 -0.999944866 0.0276134703 0.0113080367 -0.999554694 0.0753717646 0.0265556127 -0.996801853 -0.0971308425 -0.000752674881 -0.995271325 0.0478602014 0.07476037 -0.996052325 -0.044027999 -0.0448939912 -0.998021066 -0.124035314 -0.102464966 -0.986973226 -0.571703076 -0.82045877 -0.00174376741 -0.469477683 -0.882944226 0.000469489401 -0.569312513 -0.822121143 0.000340217754 -0.246869087 -0.969048738 -0.000369997724 -0.658070147 -0.752949297 -0.00332498434 -0.227360457 -0.973810494 0.000576601306 -0.0867423043 -0.996230721 0.000291310134 0.999998868 0.000707180938 -0.00132462499 -0.752728581 0.658314764 -0.00462844782 4.02280239e-05 -0.00865447335 0.999962568 0.00102209905 0.00196690927 0.999997556 0.16921629 -0.162940726 0.972016573 0.706943393 -0.707270086 -0.00020315111 -0.00157740409 0.0171005372 0.999852538 2.46485451e-05 0.000992091373 0.999999523 0.00164461392 0.00357503374 0.999992251 -0.00165207859 0.0773370489 0.997003615 -0.00194648618 0.00112987123 0.999997497 0.003805388 0.00424744422 0.999983728 0.0164989196 0.030662762 0.999393582 0.0151100345 0.00642104913 0.999865234 -0.0127084954 -0.00662232237 0.999897301 -0.00600985205 -0.00312382192 0.999977052 -0.0965813994 -0.0724427328 0.992685318 -0.00793305039 0.999940276 0.00751783093</float_array>
          <technique_common>
            <accessor source="#normals_array" count="82" stride="3">
              <param name="X" type="float" />
              <param name="Y" type="float" />
              <param name="Z" type="float" />
            </accessor>
          </technique_common>
        </source>
        <vertices id="vertices">
          <input semantic="POSITION" source="#positions" />
        </vertices>
        <triangles material="scout_b2b2b2" count="74">
          <input semantic="VERTEX" source="#vertices" offset="0" />
          <input semantic="NORMAL" source="#normals" offset="1" />
          <p>0 0 1 1 2 2 2 3 1 3 3 3 4 4 5 5 6 6 7 7 8 8 9 9 10 10 3 11 1 1 6 12 11 13 12 14 13 15 14 16 15 17 16 18 15 19 17 20 9 21 18 22 19 23 20 24 19 25 18 26 7 27 21 28 22 29 23 30 10 10 1 1 21 28 7 27 24 31 25 32 26 33 27 34 28 35 27 34 26 33 29 36 26 33 25 32 29 36 25 32 10 10 30 37 2 2 31 38 7 39 9 40 25 41 19 42 32 43 33 44 33 44 32 43 9 40 25 41 9 40 32 43 24 45 7 39 25 41 25 41 32 43 34 46 12 47 32 43 35 48 32 43 12 47 11 49 27 50 24 45 25 41 32 43 11 49 34 46 25 41 34 46 2 51 25 41 3 52 10 53 11 49 36 54 34 46 34 46 16 55 2 51 16 55 31 56 2 51 25 41 2 51 3 52 36 57 5 58 13 59 35 60 6 12 12 14 16 18 34 61 15 19 37 62 35 60 32 63 32 63 20 24 37 62 7 7 22 64 8 8 9 40 19 42 33 44 23 30 29 36 10 10 17 20 31 38 16 18 11 13 6 12 5 58 5 58 36 57 11 13 30 37 0 0 2 2 35 60 37 62 6 12 17 20 30 37 31 38 28 65 24 65 27 65 18 66 8 67 38 68 9 21 8 69 18 22 20 24 32 63 19 25 8 67 22 70 26 71 8 67 26 71 20 72 21 73 28 74 22 70 38 68 8 67 20 72 28 74 26 71 22 70 18 66 38 68 20 72 20 72 26 71 23 75 37 76 20 72 4 4 26 71 29 77 23 75 37 76 4 4 6 6 20 72 23 75 4 4 4 4 23 75 30 78 30 78 23 75 0 79 5 5 4 4 14 16 4 4 30 78 14 16 13 15 5 5 14 16 17 80 15 17 14 16 17 80 14 16 30 78 1 1 0 0 23 30 34 61 36 57 15 19 36 57 13 59 15 19 24 31 28 81 21 28</p>
        </triangles>
      </mesh>
    </geometry>
  </library_geometries>
  <library_visual_scenes>
    <visual_scene id="scene">
      <node id="left_hand_thumb_0_link">
        <instance_geometry url="#geometry">
          <bind_material>
            <technique_common>
              <instance_material symbol="scout_b2b2b2" target="#scout_b2b2b2" />
            </technique_common>
          </bind_material>
        </instance_geometry>
      </node>
    </visual_scene>
  </library_visual_scenes>
  <scene>
    <instance_visual_scene url="#scene" />
  </scene>
</COLLADA>