<?xml version='1.0' encoding='utf-8'?>
<COLLADA xmlns="http://www.collada.org/2005/11/COLLADASchema" version="1.4.1">
  <asset>
    <created>2026-09-14T00:00:00Z</created>
    <modified>2026-09-14T00:00:00Z</modified>
    <unit name="metre" meter="1" />
    <up_axis>Z_UP</up_axis>
  </asset>
  <library_effects>
    <effect id="scout_b2b2b2_effect">
      <profile_COMMON>
        <technique sid="common">
          <lambert>
            <emission>
              <color>0 0 0 1</color>
            </emission>
            <ambient>
              <color>0.35 0.35 0.35 1</color>
            </ambient>
            <diffuse>
              <color>0.7 0.7 0.7 1</color>
            </diffuse>
          </lambert>
        </technique>
      </profile_COMMON>
    </effect>
  </library_effects>
  <library_materials>
    <material id="scout_b2b2b2" name="scout_b2b2b2">
      <instance_effect url="#scout_b2b2b2_effect" />
    </material>
  </library_materials>
  <library_geometries>
    <geometry id="geometry" name="left_hand_thumb_1_link">
      <mesh>
        <source id="positions">
          <float_array id="positions_array" count="138">0.00931483507 -0.0442304686 -0.0097481655 0.0140801836 -0.0433866829 0.00882660225 0.00923663937 -0.0442368127 0.00916849542 -0.00640259683 -0.013199091 -0.00910573918 -0.00520949624 -0.0196339805 0.00911707897 -0.00518690422 -0.0196430292 -0.00913959928 -0.000961311045 -0.0374752171 0.00966229569 -0.00693295896 -0.0396692827 0.0126367807 -0.00752826361 -0.0417199098 0.00968685187 0.0142357629 -0.0429199487 -0.0101005305 0.0145076867 -0.0216362998 -0.0100872079 0.0145667754 -0.0230270512 0.0083164135 -0.00824697223 -0.0546808839 0.00966298301 -0.0102323024 -0.0546879433 0.0127838785 0.00952512585 -0.0196728632 -0.0102445688 0.0085878754 -0.0390247554 -0.00994166825 0.00805229042 -0.0387912132 -0.0128729176 0.00517895957 0.00565245142 -0.00959015265 0.00527016446 0.00547623867 -0.0129052782 -0.00553885661 0.00497771893 -0.0129043432 0.00437735673 0.00368202198 0.0127244871 0.0041732369 0.00435623387 0.00961285643 -0.00401480775 0.00438257819 0.0127096651 -0.0044300803 0.00383758778 0.00959653873 0.00593574485 -0.0184417404 -0.0128315911 0.00593237765 -0.0184378121 -0.00971471798 0.00798206311 -0.0198320653 0.00955998339 -0.00548551325 -0.013252018 0.00932149217 -0.00605216483 -0.0135225793 0.0126776472 0.0132169565 -0.0202229563 0.00901059248 0.0065321764 -0.00450659776 -0.0111500956 -0.00542915426 -0.0404224657 -0.0128199011 -0.00585901178 -0.0411947817 -0.00959311984 0.00648354227 -0.05294016 0.00941774808 0.00710427575 -0.0377944484 0.012675968 0.00683927676 -0.0190283582 0.0126361065 -0.0125148343 -0.0188212078 -0.0119859595 -0.00749489991 -0.018855093 -0.0095904395 -0.00750643341 -0.0186033323 -0.0128091341 -0.0117031187 -0.053901691 -0.0129106883 -0.012529769 -0.0187339839 0.0116768666 -0.00529858517 -0.0541629866 -0.0119515518 -0.00739236362 -0.0183965266 0.0120125823 -0.00580462301 0.00465544127 -0.00960822869 0.00649490207 -0.0528516807 -0.00944162346 0.00860335119 -0.0375048704 0.00969158206</float_array>
          <technique_common>
            <accessor source="#positions_array" count="46" stride="3">
              <param name="X" type="float" />
              <param name="Y" type="float" />
              <param name="Z" type="float" />
            </accessor>
          </technique_common>
        </source>
        <source id="normals">
          <float_array id="normals_array" count="390">0.242900237 -0.969879448 -0.0182576384 0.186449379 -0.982459366 -0.00320390286 0.172901854 -0.984938979 0.000384305837 0.987786651 0.155506626 -0.00976033788 0.996422827 0.0751192868 -0.0387123302 0.982666135 0.185380638 0.00112409552 0.491763413 -0.758329809 0.427907318 0.999825001 -0.0185887646 0.0021084093 0.999511123 0.0312535129 -0.000847316755 0.97674644 0.213801891 0.0159739722 0.830562115 -0.177289322 0.527953625 0.981745064 -0.0504185557 -0.183397248 -0.0543815494 0.9981457 -0.0273459032 -0.0460085087 0.997464955 -0.0542849451 -0.082335934 0.994561315 0.063785702 0.0810428262 0.975193739 0.205983698 0.0504493266 0.990878284 0.124960259 -0.0291014723 0.995920181 -0.085417062 -0.0590446331 0.984609723 -0.164491355 0.324979246 0.945720792 -0.000841970963 0.00727014849 0.999961138 0.00498868339 0.0403604023 0.999151587 0.00819722563 0.174572736 0.984533906 -0.014742353 -0.0257524215 -0.0206920169 -0.9994542 0.0249274746 -0.0168524235 -0.999547184 0.0163876358 -0.0139469579 -0.999768436 0.255831808 -0.966477036 -0.0217297431 -0.994211376 0.0667384118 0.0842005983 -0.986043632 0.106777236 -0.127736196 -0.981289327 0.11193727 -0.156656459 0.903476179 0.427627832 0.0294149257 0.122399151 0.992468953 0.00488564884 0.36746943 0.928998172 -0.0439155325 0.99907881 -0.042897772 0.00113336637 0.137712017 -0.970165908 -0.199533179 0.122626148 -0.985328913 -0.118700393 0.140116841 -0.96700114 -0.212781683 0.951324105 -0.308191836 0.000481156167 0.953460217 -0.30149442 0.00384038803 0.952605605 -0.304197848 0.00248555467 0.121300325 -0.899421811 -0.419912606 0.105211854 -0.919407845 -0.378971905 0.0209824126 -0.986782789 -0.160684481 0.993636608 0.112448245 -0.00645588199 0.945815384 0.0905333608 0.311828434 0.938519955 0.0703864992 0.337973416 0.999689937 -0.0237011071 0.00763289863 -0.00521005737 0.999672413 0.0250583105 -0.0109375427 0.999646425 0.0242364388 -0.0305203367 0.996482015 0.0780515745 -0.998267174 -0.0476267897 0.0345584452 -0.996552527 -0.061981868 0.0551483296 -0.999010921 -0.0387410782 0.0218241122 -0.999732614 -0.0231181737 -0.000545763818 0.0938148275 -0.0369654074 -0.994903207 -0.139255062 -0.0074496232 -0.990228534 -0.015831491 0.00653165299 -0.999853313 0.145396039 -0.0610240065 -0.98748976 -0.0383362509 0.0132537782 -0.999176979 -0.00316160358 0.000722766563 -0.999994755 -0.00239275116 0.0603245497 -0.998175919 0.0803248212 -0.0815152973 -0.993430018 0.0664395466 -0.0226272121 -0.997533858 0.597820044 0.0638020635 -0.799087286 0.00785659719 -0.172195062 -0.985031545 0.0526298843 -0.00905227661 0.998573065 0.0728622973 -0.206630319 0.975702286 0.0760001838 -0.0992937014 0.992151558 -0.981966317 0.188803613 0.00976208318 -0.967743516 0.251395583 0.0165151209 -0.987136185 0.134298444 0.0867531151 -0.964704692 0.262617022 0.0194192734 -0.996519685 0.0311993994 -0.0772990808 -0.998344779 0.0385140739 -0.0427124538 -0.985831678 0.150229156 0.0746133626 0.99777019 0.044739373 -0.0495283678 0.036791414 -0.999164343 -0.0178053621 0.111472763 -0.99375689 -0.00459546037 0.115387306 -0.993297458 -0.00677972706 0.0137872808 -0.999677598 -0.0213225577 -0.036731001 -0.99890846 -0.0288559571 -0.0408187397 -0.998767793 -0.0282257851 0.090812102 7.37919472e-05 0.995868027 0.012007243 -0.150199518 0.98858279 0.0858973339 -0.051778242 0.994957626 0.0937938094 0.0423895232 0.994688809 0.985442877 -0.0543478429 -0.161085829 -0.335012585 0.942014337 0.0193786174 0.0223740358 0.0168606732 -0.999607503 0.000929765694 0.0160348788 -0.999871016 0.008591366 0.0118325893 -0.999893069 0.0246427897 0.0142071089 -0.999595344 0.034039177 0.0334655009 -0.998860061 -0.0901830494 0.991876662 0.0897090957 0.076849997 0.0685180351 -0.994685531 0.0730845332 0.0622425154 -0.995381594 0.185054749 0.183572829 -0.965430319 -0.0185286216 -0.0397229604 -0.999038935 0.0150303477 0.99988693 -0.000477026217 -0.0641725436 0.99772048 -0.0208739322 -0.0538943708 0.99837631 -0.0184443891 0.991443694 0.12892732 0.0204233211 -0.0424020365 -0.0207423605 -0.998885274 0.013381971 -0.00726963021 0.999884009 0.0169744343 -0.0027825858 0.999852061 0.0302113295 0.000667627144 0.999543309 0.0169006977 -0.0214266051 0.99962759 0.0527636074 -0.0361619517 0.997952044 0.0859164223 -0.0373065174 0.995603621 -0.990786374 0.0592294559 0.121796086 0.127016068 -0.0393225886 0.991120934 0.193667993 0.00927033741 0.981023312 0.105188295 0.0111025078 0.994390368 0.119126543 -0.987783194 -0.100465178 -0.0531367436 -0.0179692134 0.998425543 -0.0678591803 0.0275868457 0.99731344 -0.0553010963 0.0217726547 0.998232305 -0.0738089681 0.0259788949 0.996933937 -0.020856671 -0.0550003909 0.998268485 -0.0201688856 -0.00578945735 0.99977982 -0.00189752411 -0.00157229183 0.99999696 -0.000588011113 -0.00236606761 0.99999702 -0.00306939636 0.00208076532 0.999993145 0.950438082 -0.310912579 -0.000886179798 -0.00278540887 -0.995186031 -0.0979644805 0.993289411 0.107840203 -0.0417925119 0.474811643 0.0107043935 0.880022347 0.990508437 0.0180238504 0.136265054 0.898045719 0.0322202817 0.438720584 0.891708016 0.0347084291 0.451278389</float_array>
          <technique_common>
            <accessor source="#normals_array" count="130" stride="3">
              <param name="X" type="float" />
              <param name="Y" type="float" />
              <param name="Z" type="float" />
            </accessor>
          </technique_common>
        </source>
        <vertices id="vertices">
          <input semantic="POSITION" source="#positions" />
        </vertices>
        <triangles material="scout_b2b2b2" count="88">
          <input semantic="VERTEX" source="#vertices" offset="0" />
          <input semantic="NORMAL" source="#normals" offset="1" />
          <p>0 0 1 1 2 2 3 3 4 4 5 5 6 6 7 6 8 6 9 7 10 8 11 9 12 10 7 10 13 10 14 11 15 11 16 11 17 12 18 13 19 14 20 15 21 16 22 17 22 17 21 16 23 18 24 19 25 19 14 19 5 20 26 21 14 22 15 23 14 24 10 25 1 1 0 0 9 26 22 27 27 28 28 29 29 30 11 9 10 8 14 22 29 31 10 32 24 33 30 33 25 33 31 34 15 35 32 36 0 37 2 38 33 39 7 40 6 41 34 42 21 43 35 44 26 45 26 21 29 31 14 22 1 46 9 7 11 9 36 47 37 48 38 49 39 50 13 51 40 52 36 53 39 50 40 52 39 54 36 55 31 56 39 54 31 56 41 57 36 55 38 58 31 56 31 56 38 58 16 59 16 59 38 58 24 60 38 58 19 61 30 62 24 60 38 58 30 62 14 63 16 63 24 63 18 64 30 62 19 61 5 65 14 66 25 67 37 68 42 69 3 70 3 70 42 69 28 71 43 72 19 73 3 70 19 73 38 74 3 70 38 74 37 68 3 70 3 3 27 75 4 4 41 76 44 77 33 78 41 76 33 78 12 79 12 79 39 80 41 76 39 80 12 79 13 81 30 82 17 83 43 84 25 67 30 82 3 85 3 85 5 65 25 67 30 82 43 84 3 85 12 86 8 86 7 86 3 87 28 87 27 87 27 88 23 89 21 90 27 88 21 90 26 91 4 92 27 88 26 91 43 93 17 12 19 14 32 94 15 23 44 95 44 95 41 96 32 94 44 95 15 23 0 97 5 20 4 98 26 21 42 99 37 48 40 100 37 48 36 47 40 100 30 101 18 101 17 101 9 102 0 97 15 23 10 25 9 102 15 23 8 103 12 104 33 105 8 103 33 105 6 106 6 106 33 105 2 107 45 108 6 106 2 107 22 27 23 109 27 28 1 110 29 111 45 108 45 108 2 107 1 110 45 108 29 111 26 112 31 34 16 113 15 35 42 114 40 115 7 116 40 115 13 117 7 116 28 118 42 114 35 119 22 120 28 118 20 121 20 121 28 118 35 119 35 119 42 114 7 116 35 119 7 116 34 122 33 39 44 123 0 37 6 41 45 124 34 42 21 43 20 125 35 44 29 111 1 110 11 126 41 127 31 127 32 127 34 128 45 129 26 45 34 128 26 45 35 44</p>
        </triangles>
      </mesh>
    </geometry>
  </library_geometries>
  <library_visual_scenes>
    <visual_scene id="scene">
      <node id="left_hand_thumb_1_link">
        <instance_geometry url="#geometry">
          <bind_material>
            <technique_common>
              <instance_material symbol="scout_b2b2b2" target="#scout_b2b2b2" />
            </technique_common>
          </bind_material>
        </instance_geometry>
      </node>
    </visual_scene>
  </library_visual_scenes>
  <scene>
    <instance_visual_scene url="#scene" />
  </scene>
</COLLADA>