<?xml version='1.0' encoding='utf-8'?>
<COLLADA xmlns="http://www.collada.org/2005/11/COLLADASchema" version="1.4.1">
  <asset>
    <created>2026-09-14T00:00:00Z</created>
    <modified>2026-09-14T00:00:00Z</modified>
    <unit name="metre" meter="1" />
    <up_axis>Z_UP</up_axis>
  </asset>
  <library_effects>
    <effect id="scout_b2b2b2_effect">
      <profile_COMMON>
        <technique sid="common">
          <lambert>
            <emission>
              <color>0 0 0 1</color>
            </emission>
            <ambient>
              <color>0.35 0.35 0.35 1</color>
            </ambient>
            <diffuse>
              <color>0.7 0.7 0.7 1</color>
            </diffuse>
          </lambert>
        </technique>
      </profile_COMMON>
    </effect>
  </library_effects>
  <library_materials>
    <material id="scout_b2b2b2" name="scout_b2b2b2">
      <instance_effect url="#scout_b2b2b2_effect" />
    </material>
  </library_materials>
  <library_geometries>
    <geometry id="geometry" name="left_ankle_pitch_link">
      <mesh>
        <source id="positions">
          <float_array id="positions_array" count="153">-0.017831007 -0.00420704717 -0.023010591 -0.0245284904 -0.000524248753 -0.0243053269 -0.0178687014 0.0034301586 -0.0238571223 0.00433900906 -0.0040794909 -0.0153882923 -0.00810788665 -0.00639843242 -0.0134069482 0.00541551411 -0.00638389168 -0.0151152378 -0.00239037117 0.00409385562 0.0126761142 -0.0158781335 -0.00390496571 0.00365702249 -0.00162769714 -0.00387456524 0.0130652627 0.00556361675 0.00655661058 -0.0238734782 0.0112266298 0.00595636666 -0.0172023047 0.00997697189 -0.00631206855 -0.0212969035 0.00956265349 0.00413987646 0.00980628561 -0.00386783457 0.00556451734 0.00387078011 0.0045971889 0.00568704866 0.00283437525 -0.000299319887 -0.00571304606 0.00550530478 -0.024508046 -0.00589234894 -0.0145389587 -0.0247549154 0.000814849627 -0.0123010129 -0.0221510474 0.000548489566 -0.0209741052 -0.00563977985 -0.00580744818 0.000579808373 -0.0027418877 -4.44119614e-05 0.00468402728 -0.0176982041 -0.00393974315 -0.0113187507 -0.0109388065 -0.00409362372 -0.010984947 -0.00220416742 0.00499918731 -0.00931047834 -0.00586889498 0.00529652182 -0.0147795677 -0.00805652328 0.00488239899 -0.00466988003 -0.0158448312 0.00539324945 -0.00848827511 0.00555037614 0.00563376443 -0.0149123725 -0.0158339422 0.00399666326 0.00374779687 -0.00866325945 0.00519807823 0.00306427828 -0.0041141063 0.00528220832 0.00831229892 0.00692342175 0.00520223193 0.00676663034 -0.00848382246 -0.00473801419 -0.00376505684 -0.00737315509 -0.00480397511 0.00607199734 -0.0025187314 -0.00497216266 -0.00894134026 0.00682511786 -0.00522641977 -0.00634359336 0.00896634348 -0.00511665083 0.00259648706 -0.0191655718 -0.000361968618 -0.0158400927 -0.000168059574 0.00563711114 -0.00618929463 0.00175593502 -0.00550746266 -0.00574002834 -0.0248142686 0.00542094093 -0.0169866439 -0.0180321429 0.0065247505 -0.0194968134 -0.0179197378 0.00412189681 -0.0120756645 0.00349115627 4.71273961e-05 0.00420883158 0.00469704065 -0.00568420906 0.00230504479 -0.0185217001 -0.00656940741 -0.0170852579 0.00729443738 0.00540504325 -0.00631220639 -0.00501562469 -0.00587954605 -0.024065068 -0.00494859321 0.00619845465 -0.0238723438 0.00137627986 -0.0049816547 0.00951611809 0.00991127081 -0.00387050887 0.00928193331</float_array>
          <technique_common>
            <accessor source="#positions_array" count="51" stride="3">
              <param name="X" type="float" />
              <param name="Y" type="float" />
              <param name="Z" type="float" />
            </accessor>
          </technique_common>
        </source>
        <source id="normals">
          <float_array id="normals_array" count="357">0.0340269431 -0.0728242695 -0.996764183 0.130795479 -0.108584084 -0.985445082 0.0628099144 -0.109644547 -0.991984367 0.123244092 0.173354834 0.977117717 -0.551526368 -0.0104879532 0.834091485 -0.552525878 -0.0080865398 0.833456516 -0.550905287 -0.0119753769 0.834481835 0.761393905 0.13413015 -0.634262145 0.999919653 0.00297663943 0.0123194288 0.995491982 -0.0851081237 0.0418605283 0.991507173 -0.118717209 0.0531014726 -0.108198784 -0.176044792 -0.978417754 -0.0930423215 -0.18906638 -0.977546453 -0.0774980858 -0.187164813 -0.979266763 -0.955454767 0.0611707866 -0.288728744 -0.731341839 0.597029388 0.329689205 0.701514363 0.144267976 -0.697899997 0.771413088 0.0630456209 -0.633203864 0.738931239 0.102672495 -0.665912092 -0.0536965244 -0.889871716 0.453039795 0.082632795 -0.902149618 0.423435807 0.0160784516 -0.714869678 0.699072778 -0.0361932293 0.9991768 -0.0183239467 0.0174828842 0.996535182 0.0813143253 -0.0419963486 0.999031663 0.0131187197 0.039557714 0.995577216 0.0852129683 -0.0346073136 0.997015417 0.0690112635 -0.112970352 0.990072668 0.0836290345 -0.128461361 0.991506934 0.0202886052 -0.0313514285 0.959458411 0.28010124 -0.0956194773 0.973057926 0.209798083 0.172207534 0.977013767 0.125653043 0.230689675 -0.55587405 0.798615277 -0.109485574 -0.993394256 0.0343614481 -0.139675751 -0.988631248 -0.0556682982 -0.158702061 -0.971883118 0.173944905 -0.0230118502 -0.999722064 0.00511833699 -0.0710913017 -0.996137083 -0.0515451133 -0.0533793569 -0.990912914 -0.123459555 -0.22493653 -0.971635818 -0.0729889125 -0.326586604 -0.945167243 -0.000216279383 -0.070019953 -0.997409344 -0.0164852384 0.34137252 -0.937182248 0.0717932954 0.229473948 0.972532094 0.039026048 -0.553194046 -0.00647601765 0.833027244 0.63985163 0.140918553 0.755467951 0.911976516 -0.238664359 0.333673686 -0.633349061 -0.667129815 0.392182052 -0.568657756 -0.684335411 0.456413567 -0.711329579 -0.635140419 0.301009744 -0.365627557 0.730458021 -0.576842725 -0.287811935 0.763470829 -0.578166544 -0.303637594 0.771581233 -0.558987081 0.00955302548 -0.99176085 -0.127746657 -0.509674907 -0.616775393 -0.599849582 -0.209837794 -0.110745713 0.971444011 -0.207066819 -0.106410228 0.972522616 -0.0768160671 0.0911107734 0.992873669 -0.340126902 0.723358631 -0.600887656 0.664965987 0.18156676 -0.724467874 -0.651281655 0.750726938 0.110640056 -0.732841372 0.652570903 0.192599863 -0.627545655 0.773494303 0.0888426676 -0.751549363 0.62417841 0.213482678 -0.751712024 0.0599942841 -0.656756997 -0.601057589 0.135184348 -0.787689626 -0.532756686 0.16370362 -0.83028394 -0.290701509 -0.838755429 -0.460415006 -0.340023726 -0.840850234 -0.421135128 -0.149209335 -0.987609148 -0.0486284308 -0.27496317 -0.881637573 -0.383549839 0.154187277 0.97132951 0.180956692 0.0351552106 0.999069571 0.0249831509 -0.0164269768 0.997053921 0.0749244764 -0.000475274428 -0.14358446 -0.989637971 -0.0234855711 -0.999305189 -0.028940659 -0.0169596132 -0.999188244 -0.036540173 -0.0202954225 -0.995428383 -0.0933298916 0.0358511917 -0.0568065271 -0.997741282 0.0577920116 0.0156072741 -0.998206615 0.00651010405 -0.194172993 -0.980945706 0.104223832 -0.0797383785 -0.991352201 0.282937616 -0.00504156109 0.959125042 0.232637405 0.0696407259 0.970067024 0.261953443 0.0265314635 0.964715719 -0.99180603 -0.00189265155 0.127739072 -0.991411507 0.00404370762 0.130716547 -0.992256343 -0.00966950599 0.123829857 -0.992564857 -0.0159459487 0.120667741 -0.200526342 0.840236783 0.503777087 -0.34461078 0.667265236 0.660303295 -0.191724822 0.848317206 0.493558049 -0.0539642498 -0.96089077 0.271618754 0.0480323918 -0.964162111 0.260929704 0.175924793 -0.96484679 0.195246324 0.594906092 -0.801142812 0.065245159 0.732747436 0.40693292 0.545423448 -0.816802323 0.0196673702 -0.576582253 0.0633117184 0.993422627 0.0954103842 -0.455658734 -0.699542761 0.550467968 0.999049664 0.0435665213 -0.00133201818 -0.0282221623 0.992077768 -0.122414172 0.311202615 -0.0485834852 0.949100912 -0.939102471 -0.0242029037 0.342783898 -0.905636907 -0.0878920481 0.414845526 -0.91349113 -0.074510619 0.399977684 0.069481656 -0.911368966 0.405683249 -0.172142461 0.800260842 -0.574412405 0.00426547369 0.995064914 0.0991344824 -0.0258509163 0.994624197 0.100272082 -0.0518665835 0.998143792 0.0319199227 0.0834931582 0.995052993 0.0538375899 -0.0405597165 0.950410306 0.308342636 -0.876164079 -0.132578924 0.463421285 0.0390730239 -0.24381724 -0.969033778 -0.332528293 -0.309488386 0.890865803 -0.0241890978 -0.984002113 0.176506907 0.127025217 -0.989666939 0.0665129945 -0.249725312 -0.968316555 0.000541340269</float_array>
          <technique_common>
            <accessor source="#normals_array" count="119" stride="3">
              <param name="X" type="float" />
              <param name="Y" type="float" />
              <param name="Z" type="float" />
            </accessor>
          </technique_common>
        </source>
        <vertices id="vertices">
          <input semantic="POSITION" source="#positions" />
        </vertices>
        <triangles material="scout_b2b2b2" count="102">
          <input semantic="VERTEX" source="#vertices" offset="0" />
          <input semantic="NORMAL" source="#normals" offset="1" />
          <p>0 0 1 1 2 2 3 3 4 3 5 3 6 4 7 5 8 6 9 7 10 7 11 7 12 8 11 9 10 10 13 11 14 12 15 13 16 14 17 14 18 14 1 15 16 15 18 15 19 16 13 17 20 18 21 19 4 20 22 21 23 22 24 23 25 24 24 23 26 25 25 24 27 26 24 23 23 22 26 25 28 27 25 24 25 24 28 27 29 28 28 27 6 29 30 30 30 30 29 28 28 27 30 30 6 29 31 31 4 20 3 32 22 21 7 33 32 34 33 35 7 33 21 36 22 37 7 33 22 37 32 34 32 34 22 37 34 38 22 37 3 39 34 38 3 39 11 40 35 41 34 38 3 39 35 41 11 40 36 42 35 41 37 43 18 43 17 43 6 4 28 44 7 5 38 45 19 45 39 45 19 46 38 46 13 46 40 47 18 48 37 49 1 50 41 51 2 52 35 41 36 42 39 53 34 38 35 41 39 53 17 54 40 54 37 54 17 55 21 56 42 57 1 50 40 58 41 51 20 18 15 59 19 16 26 60 42 61 28 62 26 60 41 63 42 61 43 64 44 65 15 66 16 67 1 68 45 69 0 70 45 69 1 68 6 29 12 71 31 31 23 22 46 72 27 26 12 71 10 73 46 72 27 26 46 72 10 73 31 31 12 71 46 72 15 13 20 74 13 11 11 75 5 76 47 77 47 77 5 76 4 20 45 69 0 70 47 77 45 69 47 77 4 20 4 20 21 19 45 69 0 0 2 2 48 78 0 0 48 78 47 79 9 80 11 81 48 78 47 79 48 78 11 81 12 82 6 83 8 84 7 85 28 86 42 87 7 85 42 87 21 88 40 89 17 90 42 91 8 92 7 33 33 35 49 93 8 92 33 35 50 94 8 92 49 93 50 94 49 93 36 42 11 95 50 94 36 42 11 96 3 96 5 96 14 97 44 65 43 64 41 98 26 25 24 23 1 99 18 48 40 47 12 8 50 100 11 9 46 72 23 22 38 101 23 22 25 24 38 101 12 82 8 84 50 102 44 103 14 104 39 105 45 69 21 19 16 106 48 107 2 52 41 51 48 108 41 98 24 23 48 108 24 23 9 109 24 23 27 26 9 109 10 73 9 109 27 26 13 110 38 101 25 24 25 24 29 28 13 110 13 110 29 28 30 30 30 30 31 31 13 110 13 110 31 31 14 111 14 111 31 31 46 72 14 111 46 72 38 101 42 91 41 112 40 89 38 113 39 105 14 104 15 13 14 12 43 114 16 115 21 56 17 55 15 116 44 117 36 42 39 53 36 42 44 117 15 116 36 42 49 93 19 118 15 116 33 35 49 93 33 35 15 116 19 118 33 35 32 34 39 53 19 118 32 34 34 38 39 53 32 34</p>
        </triangles>
      </mesh>
    </geometry>
  </library_geometries>
  <library_visual_scenes>
    <visual_scene id="scene">
      <node id="left_ankle_pitch_link">
        <instance_geometry url="#geometry">
          <bind_material>
            <technique_common>
              <instance_material symbol="scout_b2b2b2" target="#scout_b2b2b2" />
            </technique_common>
          </bind_material>
        </instance_geometry>
      </node>
    </visual_scene>
  </library_visual_scenes>
  <scene>
    <instance_visual_scene url="#scene" />
  </scene>
</COLLADA>