<?xml version='1.0' encoding='utf-8'?>
<COLLADA xmlns="http://www.collada.org/2005/11/COLLADASchema" version="1.4.1">
  <asset>
    <created>2026-09-14T00:00:00Z</created>
    <modified>2026-09-14T00:00:00Z</modified>
    <unit name="metre" meter="1" />
    <up_axis>Z_UP</up_axis>
  </asset>
  <library_effects>
    <effect id="scout_b2b2b2_effect">
      <profile_COMMON>
        <technique sid="common">
          <lambert>
            <emission>
              <color>0 0 0 1</color>
            </emission>
            <ambient>
              <color>0.35 0.35 0.35 1</color>
            </ambient>
            <diffuse>
              <color>0.7 0.7 0.7 1</color>
            </diffuse>
          </lambert>
        </technique>
      </profile_COMMON>
    </effect>
  </library_effects>
  <library_materials>
    <material id="scout_b2b2b2" name="scout_b2b2b2">
      <instance_effect url="#scout_b2b2b2_effect" />
    </material>
  </library_materials>
  <library_geometries>
    <geometry id="geometry" name="left_hand_index_1_link">
      <mesh>
        <source id="positions">
          <float_array id="positions_array" count="138">-0.00428091083 -0.0041487366 0.00992646068 0.0187055022 -0.00729408953 0.0129994256 -0.00398106873 -0.00431002164 0.013004072 0.032966543 -0.00192005129 -0.0111653274 0.0463896208 0.00540399225 -0.00960967969 0.0458998419 -0.00217158347 -0.00834852736 0.0159449894 -0.00637243176 0.00964913145 0.0140131237 0.00390942348 -0.00971891545 0.0163884293 -0.00655897474 -0.00964494981 0.0204194747 -0.00241078506 -0.011684618 0.0294973422 -0.00622725347 -0.00944789592 0.0200153477 -0.00725939032 -0.00908303633 0.0210186318 -0.00880715251 -0.00411113817 0.0384371765 -0.00646942668 -0.00587258581 0.0453794338 -0.00446872739 -0.00433646794 0.0504456572 -0.00112391834 -0.00429363735 0.0196358729 -0.006796462 -0.0128494464 0.029669188 -0.0081747584 0.0028066868 0.0205206797 -0.00759940548 0.00836777501 0.0203799028 -0.00506676035 0.0109009929 0.0313401259 -0.00663076481 0.00850724149 0.031543009 -0.00194772112 0.0111297844 0.044314187 -0.00479959929 0.00571125001 0.0440493748 -0.000639632053 0.00960108172 0.0511221699 0.000343157415 0.00589805283 0.00940616988 0.00896524545 -6.76097843e-05 0.010283879 0.00654078508 -0.00971754733 0.0104282806 0.00606722012 0.00956549775 0.0198696833 0.00795405824 -0.00915112998 0.020437235 0.00672605447 -0.0125371618 0.0360653885 0.0071348683 -0.0110444902 0.0191741921 0.00904599112 0.00137117144 0.027549142 0.00827632286 0.00848786626 0.0470681749 0.00535661448 0.00876629725 0.051559411 0.00408910494 -0.00611098576 -0.00424727751 0.00421935786 0.0129439859 -0.00382205984 0.00441336865 0.00987663772 0.0137200514 0.00478364946 0.00966526661 0.0203556009 0.00656273775 0.0122182304 0.0344034769 0.00680263806 0.0114226053 0.0132305939 0.00605169591 0.0129441498 0.0515800379 0.00411195401 0.00573096471 -0.00616651354 0.00468325708 -0.00996962655 -0.00537126232 -0.00533346506 -0.0128065096 -0.00434624963 -0.00582851423 -0.00998791866 -0.00508724991 0.00546128675 -0.012858714</float_array>
          <technique_common>
            <accessor source="#positions_array" count="46" stride="3">
              <param name="X" type="float" />
              <param name="Y" type="float" />
              <param name="Z" type="float" />
            </accessor>
          </technique_common>
        </source>
        <source id="normals">
          <float_array id="normals_array" count="312">-0.128406212 -0.990297973 -0.0531208441 -0.201168641 -0.975039423 -0.0939640924 -0.130318776 -0.990696013 -0.039222151 0.154859304 -0.305222481 -0.939605117 0.334797621 -0.145121098 -0.931048036 0.411516428 -0.528402686 -0.742593348 -0.978939414 -0.203876391 -0.0105869574 -0.976993442 -0.212707564 -0.0154692 -0.974979579 -0.221368581 -0.0202678777 0.0366691723 -0.2863141 -0.957433879 0.128645986 -0.469825149 -0.873335302 0.0177045744 -0.473873705 -0.880414844 0.07448636 -0.986995399 -0.142449439 0.0908884108 -0.945501208 -0.312676847 0.0952437147 -0.947086096 -0.306523412 0.222281173 -0.902581155 -0.36869812 0.426596522 -0.885070443 -0.186187193 0.648775041 -0.682820916 -0.335926384 0.977128386 -0.129860833 -0.16839315 0.924473882 -0.0654220656 -0.375590116 0.982584357 -0.144548178 -0.116764136 0.116291769 -0.989046514 0.0909022316 0.0432946756 -0.892261088 0.449439347 0.0480690636 -0.440421909 0.89650315 0.151857421 -0.798103034 0.583070219 0.104917087 -0.276591152 0.955243289 0.389591426 -0.845748484 0.364592969 0.313110858 -0.335009098 0.888667822 0.508026183 -0.227280453 0.83081466 0.599754274 -0.796674013 0.074868843 -0.941802382 -0.336164951 -0.00120305887 -0.0332225449 0.970697224 -0.237998277 -0.0818550065 0.983500421 -0.161327839 -0.0720804781 0.997138023 0.0228063017 0.0648722649 -0.0639967471 -0.995839357 0.117972545 0.992094755 -0.042784512 -0.0443106294 0.944439292 -0.325685441 0.117191292 -0.0268580671 -0.992746115 -0.860319078 -0.50953567 0.0149848005 0.0170290656 0.999710679 0.016987469 0.0446707979 0.976568997 0.210517332 0.193332642 0.98106432 0.0116336048 0.196539566 0.980489016 -0.00367088942 0.590239942 -0.260503858 -0.764038324 0.980346441 -0.195650101 -0.0253346078 0.988968432 -0.14778243 -0.0100894338 0.974976718 -0.219832897 -0.0330733992 -0.112532079 0.99218744 0.0538572855 -0.100274615 0.981431067 0.163517669 -0.114144802 0.992354393 0.0469434112 -0.576295197 -0.816757619 0.0281226188 -0.395689607 -0.918290854 -0.0130994208 -0.55337292 -0.832626402 0.0226204172 -0.0885442942 0.966187418 0.242160529 0.0306005161 -0.0871225521 0.995727479 0.113821618 -0.0467618033 0.99240011 -0.0766133592 0.994731486 0.0681148842 0.122419886 0.97170037 0.202019274 0.388058901 -0.0420445725 0.920675039 0.552194417 -0.0301481131 0.833170116 -0.936104357 -0.162642583 0.311858892 -0.19043614 -0.976975441 -0.0961930081 0.00803761836 0.0154555179 -0.999848247 -0.00199694955 -0.00478348555 -0.999986589 0.00217767851 0.00363639346 -0.999991 0.0114835566 0.02240582 -0.999683022 -0.93853873 0.0230277237 -0.344404906 -0.124107681 -0.992043614 -0.0211350974 -0.0320751108 -0.986339331 -0.161573276 -0.03527309 -0.989415824 -0.14075546 -0.120693013 -0.991488159 -0.0488308258 0.857273638 -0.19585976 0.476152182 0.876223922 -0.315577567 0.364201158 0.850806534 -0.171699807 0.496636063 -0.10693752 0.976378262 0.187749401 -0.112794355 0.969212234 0.218872204 -0.181625456 -0.982005894 -0.0517360903 -0.257047564 -0.966305554 -0.0134191914 -0.00982438214 -0.010236104 0.999899328 -0.0148351556 -0.00430887891 0.999880672 -0.0145032313 -0.00300387992 0.999890327 -0.012662218 -0.00374922971 0.999912798 -0.0164208189 0.00333867781 0.999859571 -0.995787859 0.0346173458 -0.084900707 -0.98961848 0.052255407 -0.133882776 -0.998876095 -0.0124743627 0.0457269177 -0.00670276349 -0.00969518069 -0.999930561 -0.0186004248 -0.0085444143 -0.99979049 -0.00198999257 -0.00547874672 -0.999983013 -0.0212857574 -0.00467689661 -0.999762475 0.0334558375 0.00811782945 -0.999407232 -0.362686664 -0.931692958 -0.0201651119 0.896307766 -0.0429238975 -0.441350132 -0.980670691 -0.195573419 -0.00600654399 0.259343743 0.965763807 -0.00640764413 0.247954577 0.968768954 -0.00230113161 0.812069833 -0.064002648 0.580039918 -0.994980454 -0.0303824339 0.0953455791 0.0326412097 0.0175295323 0.999313414 0.0981087536 0.0443654247 0.994186282 0.0398951434 0.0209525041 0.998984158 -0.000148432431 0.00602949457 0.999981821 -0.000745512836 0.00702116638 0.999975085 0.992691755 -0.12066853 -0.00149629242</float_array>
          <technique_common>
            <accessor source="#normals_array" count="104" stride="3">
              <param name="X" type="float" />
              <param name="Y" type="float" />
              <param name="Z" type="float" />
            </accessor>
          </technique_common>
        </source>
        <vertices id="vertices">
          <input semantic="POSITION" source="#positions" />
        </vertices>
        <triangles material="scout_b2b2b2" count="88">
          <input semantic="VERTEX" source="#vertices" offset="0" />
          <input semantic="NORMAL" source="#normals" offset="1" />
          <p>0 0 1 1 2 2 3 3 4 4 5 5 6 6 7 7 8 8 9 9 10 10 11 11 12 12 11 13 10 14 3 3 10 10 9 9 13 15 12 12 10 14 3 3 13 15 10 10 3 3 5 5 13 15 5 5 14 16 13 15 5 5 15 17 14 16 16 18 9 19 11 20 17 21 18 22 12 12 19 23 18 22 20 24 21 25 19 23 20 24 20 24 18 22 17 21 22 26 20 24 17 21 22 26 17 21 13 15 23 27 21 25 20 24 23 27 20 24 22 26 24 28 23 27 22 26 22 26 14 16 15 17 15 17 24 29 22 26 25 30 26 30 27 30 28 31 26 32 25 33 29 34 3 3 9 9 28 31 30 35 29 36 29 34 30 37 3 3 12 38 18 38 11 38 31 39 32 40 30 35 28 31 25 33 31 39 33 41 4 42 30 35 4 4 34 43 5 5 5 5 34 43 15 17 34 44 24 45 15 46 35 47 27 48 36 49 7 50 37 51 26 52 32 40 27 48 38 53 27 48 32 40 25 33 21 25 38 54 19 23 39 55 38 54 21 25 33 41 30 35 32 40 23 27 39 55 21 25 27 48 40 56 38 53 39 57 33 41 32 40 33 58 39 55 23 27 41 59 33 58 24 28 33 58 23 27 24 28 42 60 43 60 44 60 0 0 6 61 1 1 16 62 43 63 45 64 16 62 45 64 29 65 45 66 43 66 42 66 8 67 44 68 43 69 43 69 16 70 8 67 1 71 18 72 19 73 28 31 29 36 26 32 29 36 45 74 26 32 45 74 42 75 26 32 16 70 11 76 8 67 1 1 6 61 18 77 18 77 8 67 11 76 8 67 18 77 6 61 26 78 42 79 44 80 26 78 44 80 7 81 44 80 8 82 7 81 35 83 36 84 0 85 28 31 31 39 30 35 12 12 13 15 17 21 14 16 22 26 13 15 6 86 0 87 27 88 27 88 0 87 36 89 6 86 27 88 37 90 37 51 27 91 26 52 30 37 4 4 3 3 16 18 29 92 9 19 6 6 37 93 7 7 33 41 41 94 4 42 41 94 34 95 4 42 35 47 40 56 27 48 1 71 19 73 38 96 2 97 35 83 0 85 1 98 38 99 40 100 2 101 1 98 40 100 2 101 40 100 35 102 31 39 25 33 32 40 39 57 32 40 38 53 24 45 34 44 41 103</p>
        </triangles>
      </mesh>
    </geometry>
  </library_geometries>
  <library_visual_scenes>
    <visual_scene id="scene">
      <node id="left_hand_index_1_link">
        <instance_geometry url="#geometry">
          <bind_material>
            <technique_common>
              <instance_material symbol="scout_b2b2b2" target="#scout_b2b2b2" />
            </technique_common>
          </bind_material>
        </instance_geometry>
      </node>
    </visual_scene>
  </library_visual_scenes>
  <scene>
    <instance_visual_scene url="#scene" />
  </scene>
</COLLADA>