<?xml version='1.0' encoding='utf-8'?>
<COLLADA xmlns="http://www.collada.org/2005/11/COLLADASchema" version="1.4.1">
  <asset>
    <created>2026-09-14T00:00:00Z</created>
    <modified>2026-09-14T00:00:00Z</modified>
    <unit name="metre" meter="1" />
    <up_axis>Z_UP</up_axis>
  </asset>
  <library_effects>
    <effect id="scout_b2b2b2_effect">
      <profile_COMMON>
        <technique sid="common">
          <lambert>
            <emission>
              <color>0 0 0 1</color>
            </emission>
            <ambient>
              <color>0.35 0.35 0.35 1</color>
            </ambient>
            <diffuse>
              <color>0.7 0.7 0.7 1</color>
            </diffuse>
          </lambert>
        </technique>
      </profile_COMMON>
    </effect>
  </library_effects>
  <library_materials>
    <material id="scout_b2b2b2" name="scout_b2b2b2">
      <instance_effect url="#scout_b2b2b2_effect" />
    </material>
  </library_materials>
  <library_geometries>
    <geometry id="geometry" name="left_wrist_pitch_link">
      <mesh>
        <source id="positions">
          <float_array id="positions_array" count="222">-0.0220334306 -0.0224280637 -0.0123083517 -0.0264583938 -0.018705612 -0.0107115079 -0.0215367805 -0.0187080484 -0.0188530162 0.0622648038 -0.0236666147 0.0166571382 0.0621710643 -0.0235924944 -0.0187977292 0.0702645332 -0.0152004743 0.0166507382 0.0745386556 0.00201591314 -0.0187360477 0.0727817789 0.0103599904 0.0168534014 0.0741482228 -0.0048728385 0.0167141724 -0.0134090949 -0.0187368281 -0.0252151582 -0.00829638913 -0.0225087255 -0.0238282848 -0.0209597852 0.0173294414 -0.0188039523 -0.0143615585 0.0168144051 -0.0247908588 0.000265935058 -0.0188884828 -0.0288438834 -0.0191119239 -0.0223911498 0.0162500832 -0.0259407274 -0.0187965967 0.0123209115 -0.024865808 -0.0224158075 0.00291987136 -0.0257667024 0.0166893341 0.0122080427 -0.0203611013 0.0168578476 0.0199848227 -0.0157512482 -0.0188403651 0.0239839051 -0.00922896434 -0.0224668458 0.0230223313 -0.0091392519 0.0168411806 0.0271556973 -0.00353758596 -0.0187939052 0.0283463933 0.00497677363 -0.0224530622 0.0244984757 -0.0107726622 0.0204646904 -0.0223292187 -0.024467567 0.0204379112 -0.00668407744 0.000599327032 0.0203527845 -0.0252138451 -0.00416729739 0.0166811012 -0.0282101482 0.00131156773 0.0204325896 0.0254485607 -0.0152365621 0.0204095934 0.0197843574 -0.0227621626 0.0204341747 0.0101807471 -0.0285488237 0.0166044384 0.00275024236 0.0698759928 0.0161963627 -0.0188792404 0.0651402995 0.0211858097 0.01672915 0.00767939584 -0.0224273242 -0.0236882847 0.0147202425 -0.0187320448 -0.0246520676 0.025269391 -0.0191547666 -0.0225649774 0.0173315573 -0.0224258061 -0.0198785439 0.0290864203 -0.0239368808 -0.0186406728 0.0427319109 -0.0250058416 -0.0224086307 0.0720910206 -0.0123569947 -0.0186862964 0.0407384932 -0.0282750819 -0.0187177472 0.0575108342 -0.0221492425 -0.0224481411 0.0535630621 -0.02756395 -0.0186271146 0.0685891286 -0.0113038644 -0.0224838983 0.0507698879 -0.0281437393 0.0170427449 0.0069881971 -0.0186908133 0.0277299359 -0.026679907 0.0168462936 -0.010327437 0.0229064152 -0.0187057592 0.0212722644 0.0221844558 -0.0225860532 0.0175152868 0.0363267884 -0.0265186522 0.0167636368 0.038567055 -0.0236207433 0.0204261895 0.0583593734 0.021797277 0.0204573851 0.0678561479 0.0121368663 0.0203914512 -0.028625451 -0.0186486784 -0.000285276241 0.0526961461 -0.0239748228 0.0204311889 0.0662610307 -0.015207069 0.0204261839 0.00738833239 0.0165158696 0.0277779419 0.0151074287 0.0204391144 -0.0204412602 0.0071754884 0.016719548 -0.0276871398 0.0196407624 0.0168751832 -0.0229243599 0.0407841057 0.0284365918 -0.0187649541 0.0415910818 0.0286470093 0.0166474655 0.0578334108 0.0260947496 -0.0187386684 0.0243871864 0.0216784645 -0.0188663732 0.0333058387 0.0214384012 -0.0224009249 0.0458555147 0.0251371395 -0.0224236026 0.0628469288 0.019028578 -0.0224067159 0.022283541 0.0210426804 0.0173220336 0.0704219416 0.00521236099 -0.0224587731 0.0248768479 0.0178559776 0.020898018 0.055772502 0.0268134195 0.0167353489 0.0410722159 0.0246066395 0.0204150584 0.0709126815 2.04741773e-05 0.0204375871</float_array>
          <technique_common>
            <accessor source="#positions_array" count="74" stride="3">
              <param name="X" type="float" />
              <param name="Y" type="float" />
              <param name="Z" type="float" />
            </accessor>
          </technique_common>
        </source>
        <source id="normals">
          <float_array id="normals_array" count="417">-0.610889614 -0.714537024 -0.340955496 -0.673322082 -0.705429614 -0.221373945 -0.471680313 -0.746583581 -0.469180763 0.561052263 -0.827771723 0.00379282492 0.594805777 -0.803831637 -0.00779733527 0.844231963 -0.535940647 0.00632954901 0.997108817 0.0739667565 -0.0174063239 0.938449204 0.344747126 0.0215050634 0.990475833 -0.136411324 0.0186957959 -0.362233698 -0.712120652 -0.601390839 -0.239314228 -0.692148268 -0.680925429 -0.749801815 -0.000717976945 -0.661662042 -0.755606592 0.0129896067 -0.654896855 -0.500705898 -0.003366702 -0.865610957 0.0118998513 -0.757905126 -0.652256191 -0.562031567 -0.676576257 0.475778371 -0.828489542 -0.388608307 0.403222889 -0.700484872 -0.708988309 0.0815876871 -0.901316345 0.00579770142 0.433122665 -0.696910441 0.0105527127 0.717080474 -0.517174363 -0.380491495 0.766653001 -0.240760073 -0.719474435 0.651453078 -0.280449897 0.400873572 0.872151494 -0.0822579265 -0.743568301 0.663581014 0.120587178 -0.711881936 0.69186908 -0.417786509 0.829887688 -0.369784802 -0.168710634 0.906474948 -0.387091517 -0.325190336 0.738537192 -0.590604842 -0.446745753 0.887794852 -0.110628076 0.0103613185 0.686909974 -0.726668656 -0.138206214 0.727684379 -0.671844065 0.0125629902 0.616763771 0.787048042 -0.408888698 0.715658844 0.566253006 -0.653034508 0.691330016 0.309206754 -0.632199168 0.726344466 0.269718349 -0.659188747 0.749310374 0.0632784143 -0.503320158 0.719560146 0.478437006 0.766061962 0.509592652 -0.391745389 0.677265763 0.735594153 0.0145725794 0.190766707 -0.681892931 -0.706137419 0.206859097 -0.700188458 -0.683334053 -0.0398762971 -0.691211104 -0.721551836 0.126178116 -0.717242599 -0.685304463 -0.176560491 -0.696384668 -0.695611119 -0.0611420348 -0.715151608 -0.696290016 0.901009679 -0.433547258 -0.0147759728 -0.131133214 -0.705891728 -0.696075439 0.312014043 -0.607527912 -0.730449915 0.15465869 -0.667330503 -0.728526413 0.42203787 -0.547647953 -0.722472012 0.628434181 -0.317904264 -0.709934711 -0.154348239 -0.988016009 0.000988839427 0.244888425 -0.96953547 -0.0055395402 0.134903431 -0.990656555 0.0200175475 0.658188522 -0.300514817 -0.690274417 0.689723969 0.0146400165 -0.723924398 0.176704526 -0.693976879 0.697976768 -0.930158436 -0.00182911556 -0.367153883 -0.931501627 0.0116322385 -0.36355117 0.0732445344 -0.706493258 0.703919351 0.0432378538 -0.699088752 0.713726401 -0.147155121 -0.72376132 0.67417717 -0.123722211 -0.722011805 0.680728853 0.479361862 0.504270911 0.718277872 0.329577506 0.619666755 0.712314367 0.599744737 0.362263143 0.713492572 -0.694462419 -0.718558073 -0.0373665951 -0.0493963547 -0.998776972 0.00213042833 -0.239861041 -0.970793962 0.00507315854 -0.11911574 -0.992865264 -0.00547418697 0.1926056 -0.640367985 0.743526638 0.0796939209 -0.670783043 0.737359524 0.36948964 -0.550242841 0.748805881 0.568554819 -0.429453015 0.70165199 0.672151506 -0.132728428 0.7284199 0.639384091 -0.363808751 0.677370787 -0.999970555 -0.00759009598 -0.00111315923 -0.997205138 0.0074846088 0.074336417 0.190472141 0.354185671 0.915572405 0.17193906 0.710423231 -0.682448328 0.168977723 0.734089732 -0.657692075 0.0517713502 0.696216226 -0.715962827 -0.138701916 0.915374339 -0.377957195 -0.122637264 0.99242425 -0.00736264233 0.358458966 0.849123776 -0.387938172 -0.172888756 0.710292339 -0.682344735 -0.153462023 -0.00152109819 -0.988153398 0.00336791412 -0.00823530182 -0.999960423 -0.243019238 0.659974992 -0.710897088 0.0469845682 0.732029915 -0.679650426 0.478702277 0.573115706 -0.665118396 -0.255223721 0.966868281 0.00515909586 -0.184382498 0.982833624 -0.00641355291 0.69057858 0.151538506 -0.707203805 0.00288252975 0.7395612 0.673083127 -0.0551704578 0.72955507 0.681693256 -0.0528463647 0.674282014 0.73658067 0.167347074 0.641687751 0.74848628 -0.0977920145 0.685407281 0.721563339 0.653884292 0.233519718 0.719655395 -0.20722197 -0.978246331 0.00965357479 0.725272655 0.00791972596 0.688416183 0.012893755 -0.00128194818 0.999916077 0.175964907 -0.00419797748 0.984387517 0.0223652087 0.00234215101 0.999747097 0.249745861 -0.000706842169 -0.968311191 0.213282004 0.00557424594 -0.976974785 0.185272187 -0.00178790814 -0.982685626 -0.441375226 -0.00111559697 -0.897321939 0.208362982 0.000514965795 0.978051424 0.218594387 -0.00381495291 0.975808322 0.0832206607 0.00698273536 -0.996506691 -0.669074833 0.690627575 -0.274540275 -0.136334002 -0.00659393612 0.990640998 -0.000140718432 -1 0.000158370633 -0.00287546986 -0.999995649 -0.00069543923 -0.00231400644 -0.999995887 -0.00168375438 -0.00314509287 -0.999994338 -0.00120408845 0.00498139486 -0.999903858 0.0129421949 0.000984599697 -0.999996364 0.00250574853 0.000719386444 -0.999998868 0.00131259917 0.0113054886 0.00180287356 -0.999934494 0.321362793 0.946956038 -0.000514459796 0.00157949771 -0.0220001787 -0.999756694 0.00286929496 -0.00812255964 -0.999962866 0.000136747869 0.00312827621 -0.999995112 0.00196861057 -0.000534338586 -0.999997914 0.000994294765 0.00316629559 -0.999994516 0.000773828826 0.00292482297 -0.99999541 -0.000478706788 0.999999523 0.000858874642 -0.00309620565 0.999982774 0.00498455297 -0.012486537 0.999916553 -0.00330524379 -0.05701527 0.998372316 0.00141019607 0.00225628936 0.999996185 -0.00160692667 -0.00011434406 0.00030464775 0.99999994 -0.000299903477 8.97218124e-05 0.99999994 0.00201398041 0.00243329932 0.999994993 -9.38518715e-05 0.000802394585 0.999999702 -0.00423364481 -0.0109867286 0.99993068</float_array>
          <technique_common>
            <accessor source="#normals_array" count="139" stride="3">
              <param name="X" type="float" />
              <param name="Y" type="float" />
              <param name="Z" type="float" />
            </accessor>
          </technique_common>
        </source>
        <vertices id="vertices">
          <input semantic="POSITION" source="#positions" />
        </vertices>
        <triangles material="scout_b2b2b2" count="144">
          <input semantic="VERTEX" source="#vertices" offset="0" />
          <input semantic="NORMAL" source="#normals" offset="1" />
          <p>0 0 1 1 2 2 3 3 4 4 5 5 6 6 7 7 8 8 2 2 9 9 10 10 2 11 11 12 12 13 10 10 9 9 13 14 14 15 15 16 16 17 17 18 15 16 18 19 19 20 15 16 14 15 19 20 14 15 20 21 19 20 21 22 18 19 22 23 19 20 20 21 23 24 22 23 20 21 11 25 24 26 12 27 25 28 24 26 11 25 12 27 26 29 27 30 24 26 26 29 12 27 28 31 29 32 21 22 17 33 30 34 31 35 17 33 18 36 30 34 21 22 29 32 18 36 32 37 33 38 7 7 10 10 13 14 34 39 34 39 13 14 35 40 35 40 36 41 37 42 38 43 37 42 36 41 36 41 39 44 38 43 40 45 5 5 4 4 39 44 41 46 38 43 39 44 42 47 43 48 42 47 4 49 43 48 44 50 4 49 42 47 41 51 43 52 45 53 44 50 40 54 4 49 44 50 6 55 40 54 46 56 22 23 23 24 1 57 47 58 2 11 48 59 46 56 23 24 48 59 49 60 50 61 51 62 48 59 50 61 33 63 52 64 53 65 16 17 54 66 0 0 11 12 2 11 47 58 37 67 38 68 49 69 55 70 45 71 3 72 56 73 55 70 3 72 8 74 56 73 5 75 54 76 31 77 47 58 28 31 21 22 57 78 26 29 58 79 59 80 58 79 60 81 59 80 61 82 62 83 63 84 58 79 64 85 60 81 12 13 27 86 13 87 64 85 65 88 60 81 64 85 61 82 65 88 15 16 17 18 31 77 66 89 63 84 67 90 61 82 63 84 66 89 64 91 68 92 62 83 63 84 32 37 67 90 67 90 32 37 69 93 32 37 6 55 69 93 68 94 57 78 70 95 62 96 68 94 70 95 71 97 62 96 52 64 72 98 52 64 62 96 33 63 71 97 52 64 33 63 53 65 7 99 45 53 50 100 41 51 7 99 53 65 73 101 72 102 70 103 51 104 35 105 59 106 60 107 9 108 12 13 13 87 54 66 16 17 15 16 18 19 15 16 19 20 48 109 57 78 46 110 35 105 60 107 36 111 13 87 27 86 59 106 0 0 54 66 1 1 25 28 47 112 31 35 31 77 54 76 15 16 12 13 9 108 2 11 22 113 21 22 19 20 34 114 49 69 23 115 23 115 20 116 34 114 34 114 20 116 14 117 10 118 34 114 0 119 14 117 16 120 34 114 34 114 16 120 0 119 65 121 36 111 60 107 8 8 40 45 6 6 71 122 33 38 63 84 41 51 50 100 38 68 22 113 46 110 57 78 39 44 43 48 41 46 39 123 36 111 42 124 36 111 65 121 66 125 42 124 36 111 44 126 36 111 66 125 67 127 67 127 69 128 36 111 36 111 69 128 44 126 43 52 3 3 45 53 70 103 57 78 48 109 25 28 31 35 30 34 44 50 69 93 6 55 7 99 73 101 8 74 48 59 23 24 49 60 63 84 62 83 71 122 18 36 29 32 30 34 51 62 50 61 45 71 38 68 50 100 49 69 30 129 29 130 28 131 30 129 28 131 25 28 28 131 58 132 26 133 24 26 25 28 28 131 28 131 26 133 24 26 72 102 51 104 55 134 55 134 56 135 72 102 53 136 72 102 73 137 72 102 56 135 73 137 53 136 52 138 72 102 45 71 55 70 51 62 33 38 32 37 63 84 27 30 26 29 59 80 68 92 58 132 28 131 4 4 3 3 43 52 68 92 64 91 58 132 37 67 49 69 34 114 70 103 48 109 51 104 5 75 56 73 3 72 6 6 32 37 7 7 65 88 61 82 66 89 64 91 62 83 61 82 62 96 70 95 72 98 13 87 59 106 35 105 57 78 68 94 28 31 35 40 37 42 34 39 5 5 40 45 8 8 47 112 25 28 11 25 57 78 21 22 22 113 56 73 8 74 73 101 10 10 0 0 2 2 47 58 1 57 54 76</p>
        </triangles>
      </mesh>
    </geometry>
  </library_geometries>
  <library_visual_scenes>
    <visual_scene id="scene">
      <node id="left_wrist_pitch_link">
        <instance_geometry url="#geometry">
          <bind_material>
            <technique_common>
              <instance_material symbol="scout_b2b2b2" target="#scout_b2b2b2" />
            </technique_common>
          </bind_material>
        </instance_geometry>
      </node>
    </visual_scene>
  </library_visual_scenes>
  <scene>
    <instance_visual_scene url="#scene" />
  </scene>
</COLLADA>