<?xml version='1.0' encoding='utf-8'?>
<COLLADA xmlns="http://www.collada.org/2005/11/COLLADASchema" version="1.4.1">
  <asset>
    <created>2026-09-14T00:00:00Z</created>
    <modified>2026-09-14T00:00:00Z</modified>
    <unit name="metre" meter="1" />
    <up_axis>Z_UP</up_axis>
  </asset>
  <library_effects>
    <effect id="scout_333333_effect">
      <profile_COMMON>
        <technique sid="common">
          <lambert>
            <emission>
              <color>0 0 0 1</color>
            </emission>
            <ambient>
              <color>0.1 0.1 0.1 1</color>
            </ambient>
            <diffuse>
              <color>0.2 0.2 0.2 1</color>
            </diffuse>
          </lambert>
        </technique>
      </profile_COMMON>
    </effect>
  </library_effects>
  <library_materials>
    <material id="scout_333333" name="scout_333333">
      <instance_effect url="#scout_333333_effect" />
    </material>
  </library_materials>
  <library_geometries>
    <geometry id="geometry" name="pelvis">
      <mesh>
        <source id="positions">
          <float_array id="positions_array" count="522">-0.0386200659 -0.0629153177 -0.081975773 -0.0477727838 -0.0558984429 -0.101762235 -0.0449265391 -0.0621558875 -0.104618631 0.048586525 -0.00227959082 -0.0352110006 0.0429401211 -0.0223575626 -0.0342647806 0.048022151 -0.0451026708 -0.0357341021 0.0142565761 -0.0197973195 -0.145246923 -0.0160459727 -0.0195953771 -0.144960687 0.0030758637 -0.018619813 -0.143593088 -0.0443615317 -0.0192474723 -0.1025948 -0.0425273813 -0.0607507825 -0.119230337 -0.0469930917 0.0191379059 -0.102305345 -0.0411539599 0.0190113895 -0.104358755 -0.0378624499 -0.0185507312 -0.116764642 -0.0406234041 -0.0199437849 -0.123865537 -0.0444596782 0.00100391707 -0.0229159389 -0.0468305685 -0.0132766208 -0.0254240911 -0.0401062369 -0.0193462372 -0.0229460727 -0.00766685978 0.0473265015 -0.00322212512 0.00806338433 0.0450836644 0.000498816604 0.00743699307 0.0476678573 -0.0259125698 -0.0290831234 -0.0644733161 -0.131725803 -0.0255933013 -0.0614425279 -0.139802113 -0.0358634777 -0.0321730077 -0.0255329683 -0.0290909652 -0.0333626457 -0.0229113158 -0.0308271181 -0.0182622485 -0.128734574 0.0101308562 -0.0431631617 0.00180768629 -0.00748374453 -0.0481333733 -0.0264981538 0.00898564886 -0.0449212641 -0.0239812899 0.0361723751 -0.0511554033 -0.0357360542 -0.0349480361 -0.0547786467 -0.0543573834 0.0349272154 -0.054699447 -0.0540662147 0.031779822 -0.0198522266 -0.134554878 0.0189217795 -0.0632245913 -0.142572582 -0.0224028192 -0.04297553 -0.0346734785 -0.0387351811 -0.0296088289 -0.0346666649 -0.0220740382 -0.042635072 -0.0253841989 -0.0129512958 -0.0417479239 -0.0225308966 -0.0194899272 -0.0186435264 -0.13797906 0.0351894721 -0.0634092018 -0.129797131 -0.000579866522 -0.0620978251 -0.147226512 -0.0100643551 -0.0597988442 -0.113677531 -0.0143108433 -0.0599193536 -0.0983512402 -0.0148857553 -0.0641261265 -0.108363882 -0.00968715362 -0.0619145259 -0.0902312398 0.0451097153 -0.0595416911 -0.0558366254 -0.0454836898 -0.0592615753 -0.0559160709 -0.0176440533 -0.0634715781 -0.0622783117 0.0406598598 0.0188852064 -0.104191139 0.0472108908 0.0192186888 -0.102158681 0.0470560081 -0.0190354753 -0.102244608 0.000398282835 -0.0639590621 -0.118832037 0.0090812305 -0.0597435758 -0.0905032307 -0.000102762351 -0.0641510859 -0.0862035528 0.0349650756 0.0547787771 -0.0543790348 -0.0362162814 0.0511409752 -0.0357502066 0.0351579227 0.0541655719 -0.0356715098 -0.00711923791 -0.04964922 -0.0342797413 0.00643800292 -0.0503966585 -0.0339824408 0.0481182449 0.045736514 -0.0545824878 0.0380368382 0.0467763096 -0.0355813876 0.0478058644 0.0449017659 -0.0355667248 -0.0401661806 0.018961953 -0.0229386911 -0.0463621244 0.0129226027 -0.0255052354 -0.04607163 0.0163493957 -0.0342946462 -0.0342218913 0.0187092982 -0.123848677 -0.0408728383 0.0156044932 0.0018782448 -0.0372402817 0.0309085827 -0.0255478788 -0.0476340726 0.045304697 -0.0356674269 -0.0385924354 0.0474235639 -0.0544105358 -0.0475393794 0.0579232685 -0.102874614 -0.0408812687 0.0198108628 -0.123712577 -0.0480578355 0.0540912002 -0.0567364283 -0.0420414545 0.0637998432 -0.1022669 -0.041684974 0.0606752448 -0.0823426545 -0.0418700241 0.0605103076 -0.0557828359 -0.0481560826 0.0458656624 -0.0547348075 -0.0430230759 0.0607421175 -0.117856212 -0.0373216085 0.0640503541 -0.0817874596 -0.0242477525 0.0183943789 -0.134973824 -0.0331153907 0.0353147164 -0.034493126 -0.0334183909 0.0630396605 -0.131609246 -0.0442735665 -0.00200552843 0.00153963361 -0.0238745306 0.0617565699 -0.06338121 -0.0183590818 0.0197293591 -0.143823713 -0.0221093185 0.0426794961 -0.0253773462 -0.0269858241 0.0355156288 -0.0229246244 -0.0319430344 0.029673215 0.00219486514 -0.0161657371 0.0403361022 0.00218820455 -0.0204255171 0.0617582835 -0.142243817 0.0481994562 -0.045803722 -0.0546837077 -0.00854061265 0.0642952397 -0.143193185 -0.0142574562 0.0642664284 -0.0633202493 -0.0121112205 0.0182833895 -0.141049594 0.0404248275 -0.0188666042 -0.102615371 0.0440372229 -0.0197008476 -0.116066314 -0.00847380981 0.0454897135 -0.0242396016 -0.0121931601 0.0470407419 -0.0346252285 -0.0149452742 0.0639890358 -0.108639874 -0.010852417 0.064164333 -0.0912099481 -0.00908115599 0.0597435944 -0.0905031413 -0.0130573446 0.059669245 -0.110930428 0.00354041881 0.0190148596 -0.143294632 0.00151498709 0.0618819818 -0.147315502 0.0123177124 0.0198005755 -0.146126285 -0.0074175531 0.0514041223 -0.0341906995 -0.000398694072 0.0639635473 -0.11883378 0.0100642955 0.0597988591 -0.113677733 0.00953071751 0.0641561896 -0.0890570879 -0.0380314998 -0.0468006358 -0.0355833769 -0.0349523425 -0.0542169511 -0.0356493816 0.0150769427 0.0623410158 -0.0600468554 -0.00896593556 -0.0443786159 0.000821850204 0.0125575205 -0.0640252829 -0.111892991 0.0130573642 -0.0596694015 -0.110930748 0.014664703 -0.062518537 -0.0608409271 0.031282939 -0.064121455 -0.0735296011 0.0150147192 -0.0641354099 -0.0974781588 0.0204540268 -0.0436270833 -0.0255719461 0.0275062602 -0.0403752737 -0.0345488191 0.0266061462 -0.0357740708 -0.0229388457 0.0211583823 0.0184705574 -0.137155354 0.0235484187 -0.0183300879 -0.135322019 0.0414663926 -0.0608556867 -0.0780670196 0.0370102264 -0.0311784111 -0.0254262704 0.038641762 -0.047551129 -0.0544815212 0.0362411253 -0.0184832346 -0.120933138 0.0473255031 -0.0575408638 -0.102582335 0.0417962782 -0.0640984103 -0.100783549 0.0427208953 -0.0602426007 -0.1192002 0.0273048095 0.0198403634 -0.138002336 0.0187674202 0.0623183101 -0.142945588 0.0349378139 0.0608543009 -0.131267354 -0.025813736 -0.0361169353 0.00158151344 -0.0394520499 -0.0199070778 0.00191172294 0.0484070219 -0.00557249878 -0.0255317315 0.0398072675 -0.0198174492 -0.0228997413 0.0443028435 0.00155787496 0.00168241351 0.0409579016 -0.0154922176 0.00187355734 0.044731319 -0.00013286958 -0.0230908506 -0.0478558354 -0.0451537445 -0.0356353894 -0.04816496 -0.0455848388 -0.0544792637 -0.038621515 -0.0475932099 -0.0544930063 0.0148830945 0.064120397 -0.108363852 0.012671832 0.059686143 -0.093555443 0.0257379506 0.041001115 -0.025538167 0.0267202929 0.0355525874 -0.0227531269 0.00710267108 0.0496331528 -0.0342745222 0.0224599019 0.0429036245 -0.0346644409 0.0317989513 0.0644319952 -0.127590492 0.0344372243 0.0640617907 -0.0766614899 0.0337255187 0.0183826908 -0.124891035 0.0376587622 0.0307024121 -0.0346427262 0.0315002874 -0.0304156598 0.00212047016 0.0424000509 0.0197960436 -0.12021219 0.0431198478 0.0218824949 -0.025231218 0.0402206704 0.0193577148 -0.0230495073 0.0386291295 0.0475292392 -0.0544823781 0.0468191095 0.0613591336 -0.107254952 0.041199699 0.0608075187 -0.0799774602 0.0454566404 0.0160653424 -0.0342763364 0.0431711413 0.0629030764 -0.102243356 0.0481406711 0.0542372242 -0.0566255376 0.0482710488 0.0540477708 -0.10043364 0.0410011336 0.0605827495 -0.0557683297 -0.0348855779 0.0546792485 -0.0540403575 -0.0474247411 -0.0106713548 -0.0346651077 0.0209478326 0.0383390039 0.00190331158 0.0139969122 -0.00822120812 0.00122437184 -0.00802961271 -0.0136452001 0.00112005812 0.0384150259 0.0223411694 0.00173167419 0.0107121235 0.010561144 0.000999153126 -0.00399329467 0.0151047157 0.00133676967 -0.0150621589 0.00302594318 0.0011412754</float_array>
          <technique_common>
            <accessor source="#positions_array" count="174" stride="3">
              <param name="X" type="float" />
              <param name="Y" type="float" />
              <param name="Z" type="float" />
            </accessor>
          </technique_common>
        </source>
        <source id="normals">
          <float_array id="normals_array" count="1155">-0.288141519 -0.957440674 0.0167873409 -0.799952984 -0.576791346 0.165489987 -0.846421063 -0.485184103 0.219471589 0.216132477 -0.0147736995 0.976252258 0.171679452 -0.0269408207 0.984784424 0.0510878898 -0.0530093014 0.99728632 0.0794469863 0.98341012 -0.163072661 -0.0653113425 0.979586422 -0.190118104 0.012239839 0.867175639 -0.497851968 -0.985001206 0.0249068644 -0.170740411 -0.808984935 -0.47507745 -0.346185982 -0.986892462 0.0205448028 -0.160066321 0.089099884 -0.0122005418 -0.995947957 -0.332009286 -0.0156492796 -0.943146288 -0.207803383 -0.00413236627 -0.978161871 -0.27719605 0.957472205 -0.080058001 -0.260696381 0.961469471 -0.0872576162 -0.2467563 0.960127175 -0.131404653 -0.702575088 0.016071789 0.711428106 -0.47717014 -0.121164963 0.870418131 -0.533079565 -0.292065084 0.794055521 -0.343545169 0.939124167 -0.00474156626 0.315944165 0.944965601 0.0849662349 0.231887266 0.972592294 0.0171048418 -0.328239709 -0.901945591 -0.280629367 -0.466681421 -0.479661375 -0.743056834 -0.113330722 -0.993470967 -0.0130993957 -0.410560578 -0.350693822 0.841696978 -0.368669033 -0.445462316 0.815871596 -0.308799684 0.893944204 -0.324817717 0.31233415 -0.945816159 0.0887644887 -0.0981894806 -0.978292048 0.182492331 0.234249249 -0.940952897 0.244407415 0.00765175978 -0.986637592 0.162750542 0.0361198001 -0.997766614 0.0561882518 0.000321907166 -0.98182112 0.189808205 -0.34898454 0.0341962948 -0.936504364 -0.873187363 0.0257149097 -0.48670581 0.6909796 0.00157285202 -0.722872496 0.437552512 -0.0310726557 -0.898655832 0.278646976 0.0167228878 -0.960247993 -0.496026635 -0.866569638 0.0549061224 -0.726267576 -0.685648322 0.0492118075 -0.797122598 -0.602016568 0.0466009751 -0.483220071 -0.874118745 0.0491405837 -0.243274525 -0.468167245 0.849492133 -0.192517608 -0.575844884 0.794568837 -0.105034932 0.977104068 -0.185027793 0.724666297 -0.0185165014 -0.688851178 -0.0258602612 -0.979916275 -0.197725385 0.770565748 -0.602199912 0.208767042 0.758964598 0.583594263 -0.288774073 -0.177217171 -0.62439096 0.760743022 0.130739093 -0.987111092 0.0922982097 -0.208885521 -0.966473818 0.149315596 -0.0292470772 -0.963426352 0.266372442 0.00799833424 -0.998822212 -0.0478567779 0.271208137 -0.00366297318 -0.962513745 0.296277016 0.00094580499 -0.955101609 0.0827801973 -0.037157096 -0.995874882 0.52390343 0.362664908 0.770713568 0.0327067152 -0.978242517 -0.204870448 0.0669567287 -0.981315613 -0.180378526 0.080858998 -0.777226269 -0.624004126 -0.0356419384 0.997643411 0.0586282946 -0.00886724144 0.983883142 0.178592712 -0.0423440635 0.998023629 0.0464306027 -0.224651664 -0.95838213 0.176168397 0.148606971 -0.92836237 0.340674788 0.186612785 0.981388271 0.0453069173 0.187499776 0.98119688 0.0457878038 0.188180774 0.98104918 0.0461570546 -0.552255392 0.272587866 0.787851393 -0.528592288 0.136517838 0.837826371 -0.981107652 0.189010412 0.0412648544 -0.948659718 0.311936885 0.052346088 -0.968712091 -0.247631133 0.0166058335 -0.64290446 0.0425971821 -0.764760971 -0.759991407 -0.0109221851 -0.649841309 -0.897099614 0.0229810812 -0.441230327 -0.859044969 0.020131262 -0.511504173 -0.999804378 0.0197633822 -0.000751442683 -0.930618167 0.364449233 0.0335646495 -0.90007621 0.435655802 0.00817886647 -0.394408554 0.317478985 0.862350821 -0.369786263 0.926190794 -0.0736802444 -0.452620864 0.883803368 -0.118431352 -0.270330369 0.962525368 -0.0215953141 -0.958298087 -0.0112883542 -0.285547465 -0.849009633 -0.0116011407 -0.528249979 -0.961283147 -0.0175757855 -0.275001556 -0.69978261 0.714188933 0.0154409558 -0.404619634 0.914331436 -0.0167630762 -0.72941643 0.68391645 -0.0144908829 -0.491613925 0.848538756 0.195698202 -0.128467187 0.163733497 0.978104055 -0.371005714 0.223749042 0.901271939 -0.146315068 0.132955685 0.980262578 -0.482918143 0.864536524 -0.139164388 -0.36563015 0.903589368 0.223250762 -0.164342389 -0.981970966 -0.0934053659 -0.159771666 -0.984122396 -0.0773056969 -0.26744011 -0.913721681 -0.305922359 -0.0551813357 -0.997593164 -0.0419862308 -0.0628335476 0.0667843893 0.995787024 -0.0378328301 0.0554430634 0.997744858 -0.432103544 0.0212945323 0.901572526 -0.0929897875 0.993860483 -0.0599518828 -0.90273571 -0.43019101 0.00197031582 -0.999011874 -0.0414007939 0.016164422 -0.016675923 -0.0241040699 -0.99957037 -0.271607161 0.910469234 0.311889827 -0.122128442 -0.952266395 -0.279773861 -0.203175545 0.438106865 0.875660896 -0.381116211 0.487492085 0.785558343 -0.626581252 0.778852403 0.028014468 -0.723862588 0.688245177 0.0483896509 -0.562643528 0.826052189 0.0327114947 -0.908532023 0.057087101 -0.413896888 -0.93421334 0.035370186 -0.354956925 -0.397612125 -0.021908978 -0.917291999 -0.723970652 0.0100404778 -0.689757645 -0.401120245 0.476873845 -0.782108605 0.373503715 -0.92729634 -0.0248281583 0.287719667 -0.953776836 -0.0867593214 0.454564065 -0.889937878 0.0371770374 -0.105509885 0.894674897 -0.434078962 -0.048345115 0.995608926 0.080159843 -0.0465011634 -0.924898148 -0.377360702 0.0647574067 0.996911108 -0.0444384441 0.028452374 0.998121202 -0.0542636588 0.157442018 0.986263454 -0.0499646664 -0.160370484 0.415679544 0.895260751 -0.451112032 0.892400503 0.0109203896 -0.368844569 0.890873194 0.265138835 -0.479382962 0.853727639 0.203324988 0.874084175 0.452499419 -0.176695094 0.917352974 0.332580358 -0.218755141 0.909541845 0.358569741 -0.210146099 0.866567671 0.469072849 -0.170385346 -0.0128370682 -0.950777411 -0.309608728 -0.00800240692 0.0612809993 -0.998088479 0.221273676 -0.0188782644 -0.975028992 0.0425571576 -0.977264702 -0.207707882 -0.00673984271 0.906852365 0.421394616 -0.064771466 0.860828578 0.504756153 0.191436023 0.941621363 0.276950389 0.564242363 -0.180579096 0.805618823 0.0606583394 0.833082616 0.549812675 0.0114727542 0.989620686 0.143245369 0.0177787188 0.985368729 0.169506416 0.104279079 -0.116143562 -0.987743139 -0.915306926 -0.402229995 0.0205964167 -0.899019361 -0.436279446 0.0377408676 -0.923466682 -0.38351211 0.0113020549 -0.085761413 0.305580527 0.94829613 0.0557588525 -0.98873353 0.138913393 -0.491753489 -0.133642986 0.860417366 0.0216716602 -0.949504912 0.313002765 0.0892110169 -0.994374871 0.057096377 -0.0114616361 -0.989639282 0.143117771 -0.017045008 -0.992554009 0.120606713 -0.0606151558 -0.833284557 0.549511254 -0.98285985 0.075646095 0.16811946 -0.542464316 0.421347529 -0.726772785 -0.688019872 -0.712737083 -0.13650851 0.290803701 -0.00994646922 -0.956731021 0.365453422 -0.774140477 0.516865909 0.589004159 -0.804801285 0.073273465 0.378820598 -0.512653232 0.770507336 0.171526954 -0.431357652 0.885725141 0.610247493 -0.791606963 0.0309262015 0.522139013 0.00198072731 -0.852858067 0.0720119551 -0.0188223943 -0.997226179 0.0994559452 0.00666319206 -0.995019674 0.193176493 0.961411953 -0.195882484 0.202749014 0.867193639 -0.454827428 0.481090665 -0.531452358 0.697215974 -0.900267661 0.0151412096 -0.435073406 0.685192943 -0.561486125 0.463943958 0.0566882081 -0.23552075 0.970214605 0.0703385323 -0.135972917 0.988212466 0.0914970487 -0.0629597828 0.993813038 -0.0468119346 -0.228583261 0.972398221 0.232861936 0.961931527 -0.143049091 0.716740668 -0.69583565 -0.0457779095 0.455669403 -0.890034974 -0.0142519241 0.576913416 -0.812676013 -0.0820284709 0.298968583 -0.951553226 0.0718625709 0.371035993 -0.927257717 0.0502532795 0.966976762 -0.00675714482 -0.254774898 0.922988415 0.00943592936 -0.38471207 0.976844907 0.00871198624 -0.213771269 0.623128355 -0.0145511907 -0.78198421 0.424023449 0.025499478 -0.905292153 0.757083654 0.0218037814 -0.652954042 -0.650492072 -0.759475172 -0.00758460211 -0.604923725 -0.79627651 -0.00331158214 -0.887170076 -0.460983336 0.0205824934 0.879063368 -0.107821219 0.464351386 0.646795571 -0.295727789 0.702994049 -0.651969254 0.680194855 0.335068792 0.998852551 0.039898742 0.0264888927 0.931222141 -0.362899154 0.0336077809 0.999949098 -0.00807974581 0.0060446444 -0.177632764 -0.983274817 0.0402144156 -0.205830574 -0.978248656 0.0257561002 -0.193411469 -0.980591118 0.0321406014 -0.524123728 -0.36292389 0.770441771 -0.101504877 0.669329405 -0.735999286 0.155110076 -0.952942073 -0.260465443 0.245159522 0.475932807 0.844621062 0.154029012 0.471587002 0.868263066 0.407898962 0.462708771 0.787095308 0.231661737 0.953325152 0.193659529 0.561965108 0.82599169 0.0439653769 0.490942419 0.871176064 0.00526842708 0.892170668 -0.00174638245 -0.451695144 0.107626013 0.964539349 -0.240999058 0.0704085007 0.926180303 -0.370449305 0.274034679 0.941216409 -0.197526321 -0.721846938 0.685167551 0.0973780006 -0.892064929 -0.378691167 -0.246603265 0.0472078286 0.986442029 0.157173753 0.140243039 0.989132166 0.0441520177 0.191612944 -0.954611242 -0.228039175 0.25175181 -0.948048532 -0.194486588 0.756417394 0.647373855 0.0934870318 0.893569589 -0.448892057 0.00541672157 0.704024911 -0.708381355 0.0504459627 0.180021137 -0.981273413 -0.0685189068 0.466827571 0.242205366 0.85053432 0.469262153 0.203650385 0.859255254 0.899212301 0.434232175 0.053475637 0.903130114 0.429095149 0.0152748926 0.92189765 0.385942072 0.0339621566 0.930710614 0.363144755 0.0436311476 0.469554096 0.79869467 -0.376305431 0.327915847 0.939372003 -0.100257091 0.558290482 0.449791551 0.697136521 0.609538734 0.0647163168 0.79011035 0.0888535678 -0.994939268 -0.0469137058 0.0660828725 -0.996586561 -0.0494806804 0.999601722 0.00218261173 0.028136773 0.962456763 0.258657426 0.0822999701 0.454489142 0.88715148 0.0800114498 0.470207334 0.875012279 0.115146056 0.921874702 0.387231499 0.0141002284 0.911576807 -0.00910636224 -0.411028981 0.97231847 -0.0181111041 -0.232956544 0.563983798 0.0110840909 -0.825711489 -0.00167258608 0.999998093 0.00100331684 0.00336581096 0.999980986 0.00516609196 0.999878585 0.00106240169 0.0155451084 0.999954224 0.00238583633 0.00926798396 0.998009324 -0.0624374636 0.00888492912 0.936300814 0.0138649466 -0.350925297 0.888751388 -0.014902967 -0.458147168 0.75963217 0.517879665 0.393395007 0.946727931 0.315373242 0.0651611537 0.308003843 0.22155571 0.92522794 0.102751695 0.154925689 0.982568145 0.123156324 0.137541756 0.982809663 0.887663603 -0.459605724 0.0285639185 0.0571313426 -0.0637994707 0.996326089 0.0478414781 -0.0620025359 0.996928751 0.0568802729 -0.0640014037 0.99632746 -0.0546652675 -0.139136106 0.988763273 -0.0687320679 -0.0808492824 0.994353712 -0.65767324 0.0441294573 -0.75200963 -0.0214252118 -0.108609416 0.993853569 -0.890753448 0.453904331 0.0230019763 0.843784451 0.015055703 -0.536471009 0.891803861 -0.00959699228 -0.452320397 0.578250587 -0.0169328488 -0.815683484 0.043022085 -0.998623788 0.0299931988 -0.027865028 -0.045878794 0.998558283 -0.0367675759 -0.0460781939 0.998260975 -0.0487738773 -0.0380550064 0.998084605 -0.0443970412 -0.0420313701 0.998129368 -0.0453012399 -0.0567540526 0.997359931 -0.0309017543 -0.109603301 0.993494928 -0.0491920598 -0.0142067354 0.998688281 -0.449905306 -0.0210649725 -0.892827809 -0.294910371 0.00402346952 -0.955516458 -0.988665164 -0.148562938 0.021685075 -0.609311998 -0.792872131 0.00962444488 -0.099054113 0.0792069435 0.991924644 -0.0834648237 0.192218557 0.977796316 -0.000478218193 0.981803656 0.189898178 -0.742552519 -0.667805314 0.0514951535 -0.504408002 -0.863393068 -0.0111794323 0.0378743 -0.0920234174 0.995036304 -0.0593944825 -0.0273356866 0.997860253 -0.0305238329 0.0456915796 0.998489141 -0.506493747 0.013543481 0.862137258 0.892763674 -0.442471147 0.0848076493 -0.161793604 0.986257672 0.0334455594 -0.719905853 0.694071412 -0.000705582963 0.665100396 0.746651173 0.0123874787 -0.9995175 0.00246135169 0.0309637822 -0.999718845 0.000480630377 0.0237074755 -0.943048894 0.00242971606 0.332645327 -0.66601789 0.745931387 -0.00255717151 -0.779893637 0.625911951 0.000357324607 -0.337576985 0.940667748 -0.0344384275 -0.0546698831 0.997429848 0.0463134758 0.0124480892 0.954514325 0.297905058 -0.0374478064 0.996498704 0.0747528672 0.0590648204 0.99690932 0.0517993644 0.0127117299 0.999892056 0.00736994529 0.00341831218 0.999993384 -0.00122076203 -0.0179972276 0.99981761 0.0063939523 -0.00399932917 0.999976277 -0.00560898939 0.573004663 0.817089438 0.063486807 0.643230975 0.765227437 0.0260946173 0.174064502 -0.971020103 -0.163772762 0.0286527947 -0.64400661 0.764483154 0.0261430983 -0.624012589 0.780976832 0.0715517774 0.162409693 0.984125733 -0.0536574684 -0.0406324081 0.997732341 -0.0363180377 -0.998467505 -0.0417565517 -0.0219053999 0.0230790246 0.999493599 -0.0156633239 0.0131587489 0.999790728 -0.0320839658 0.00787308346 0.999454141 0.00549920322 0.00494493544 0.999972641 -0.0364708193 0.846832216 0.530608237 -0.889770806 -0.454002768 0.0467914045 -0.0795014054 0.668774545 0.739202321 0.354890615 0.0129200183 0.934818566 0.0367710479 0.0507651903 0.998033464 0.303690612 0.0178869478 0.952602804 0.95682919 0.016856961 -0.29016158 0.974710524 -0.0153739955 -0.222941712 0.0660537183 0.997767866 0.00980549492 0.0315154307 0.0486845635 0.998316884 -0.0666787997 0.997758031 0.00573129253 -0.606821895 0.0131972861 -0.794728279 0.899837375 0.436225504 1.81483574e-05 0.854490578 0.51824224 0.0356491171 -0.0170336049 -0.012872627 0.999772072 -0.037478663 0.00818694104 0.999263883 -0.00650656829 -0.0122431535 0.999903858 -0.015875591 0.00236646994 0.999871194 -0.0182331912 0.0352622196 0.999211729 0.0151344622 -0.020141894 0.999682605 -0.0185036678 0.020637976 0.999615788 0.0424888097 -0.0132136568 0.99900955 0.0153466696 -0.0285570137 0.999474347 0.0139144491 -0.00966185611 0.999856532 0.0153618399 -0.0270391665 0.999516308 0.0131742386 0.00268000341 0.999909639 0.018562682 0.0113813877 0.999762893 0.0323426947 -0.00507208612 0.999463975 -0.0114091085 -0.00935440604 0.999891162 -0.165387735 -0.985134065 0.0464511737 -0.269588977 -0.959457338 -0.0822395459 -0.0178641435 0.999616623 -0.0211533587 0.024410706 0.15338403 0.98786509 0.0275673363 0.134659111 0.990508437 0.0471682325 0.0408183523 0.998052597 0.560927093 0.0111864023 -0.827789605 0.0161404591 -0.999794424 -0.0122696739 -0.0066104373 -0.999306202 0.0366521217 -0.0361662395 -0.999286592 -0.0108791655 -0.0621966347 -0.99776423 -0.0244565699 0.000862334971 -0.999994934 -0.00305460813 0.00765264593 -0.999660969 -0.0248875506 0.00594284805 -0.999779522 -0.0201393757 0.0349007957 0.0487267114 0.998202205 0.0445932783 0.0438841358 0.998040915 0.0547084399 -0.04198144 -0.99761945 0.892502606 0.451007634 0.00558322901 0.553496063 0.00287887361 -0.83284682 0.974309981 -0.222205207 0.0366722494 0.998866081 -0.0471374989 -0.00667456072 0.999969304 0.000147214596 0.00783179142 -0.999991715 0.00365162618 0.00178524293 -0.999901175 0.00939768367 -0.0104553048 -0.999922752 0.00275097229 -0.0121205933 -0.999414027 -0.0341821276 -0.00179976143 -0.980041087 -0.195765659 0.0345726013 -0.998486757 -0.0537075959 0.0118210055 0.0674198195 0.0856754035 0.994039357 0.185910508 0.981539071 0.044926215</float_array>
          <technique_common>
            <accessor source="#normals_array" count="385" stride="3">
              <param name="X" type="float" />
              <param name="Y" type="float" />
              <param name="Z" type="float" />
            </accessor>
          </technique_common>
        </source>
        <vertices id="vertices">
          <input semantic="POSITION" source="#positions" />
        </vertices>
        <triangles material="scout_333333" count="344">
          <input semantic="VERTEX" source="#vertices" offset="0" />
          <input semantic="NORMAL" source="#normals" offset="1" />
          <p>0 0 1 1 2 2 3 3 4 4 5 5 6 6 7 7 8 8 9 9 10 10 2 11 11 12 12 13 9 14 9 15 13 16 14 17 15 18 16 19 17 20 18 21 19 22 20 23 21 24 10 10 22 25 21 24 2 26 10 10 17 20 16 19 23 27 17 20 23 27 24 28 14 17 25 29 7 7 13 16 25 29 14 17 26 30 27 31 28 32 29 33 30 34 31 35 7 36 22 25 14 37 32 38 33 39 6 40 34 41 23 42 35 43 36 44 23 42 34 41 24 28 23 27 36 45 37 46 24 28 36 45 25 29 38 47 7 7 32 38 39 48 33 39 21 24 22 25 40 49 41 50 42 50 43 50 42 51 44 51 43 51 34 41 27 31 36 44 37 46 36 45 27 52 45 53 46 54 47 55 38 47 8 8 7 7 33 56 21 24 40 49 48 57 49 58 50 59 41 60 43 60 51 60 44 61 52 62 53 63 54 64 55 65 56 66 57 67 58 68 27 31 59 69 60 70 61 71 62 72 63 73 15 18 63 74 64 75 16 76 15 18 63 73 16 19 1 77 11 12 9 14 25 78 13 79 65 80 15 81 66 82 62 83 67 84 63 73 62 72 68 85 55 86 69 87 70 88 71 89 11 90 72 91 73 92 70 93 72 91 74 94 73 92 75 95 72 96 76 97 70 93 73 92 77 98 78 99 73 92 74 94 65 100 71 101 79 102 12 103 71 101 65 100 80 104 55 105 64 106 77 98 73 92 81 107 15 81 17 108 82 109 6 40 40 110 7 36 83 111 78 99 74 94 79 102 71 101 84 112 85 113 67 84 86 114 86 115 87 116 88 117 13 79 9 118 12 119 84 120 81 121 89 122 29 123 90 124 5 125 81 107 91 126 89 122 83 111 92 127 78 99 93 128 79 102 84 112 94 129 50 130 95 131 85 113 86 114 96 132 85 133 96 134 97 135 98 136 99 137 100 138 98 136 100 138 101 139 102 140 93 128 84 112 103 141 104 142 84 120 16 76 35 43 23 42 102 140 84 112 104 143 105 144 96 145 20 146 89 122 91 126 103 141 106 147 98 147 101 147 106 148 101 149 107 150 99 151 108 151 100 151 109 152 30 153 110 154 92 155 83 155 111 155 26 30 112 156 27 31 113 157 114 157 51 157 115 158 47 55 116 159 114 160 41 161 51 162 28 32 27 31 58 68 114 163 113 163 117 163 52 164 117 164 53 164 52 165 114 165 117 165 70 166 11 12 1 77 118 167 28 32 58 68 118 167 58 68 119 168 120 169 28 170 118 167 120 171 26 30 28 32 121 172 8 173 102 174 8 8 32 175 6 6 122 176 32 175 8 8 123 177 115 177 116 177 71 89 77 178 81 121 124 179 120 169 118 167 124 179 118 167 119 168 31 180 45 181 125 182 30 183 45 181 31 180 122 176 126 184 32 175 126 184 95 131 32 175 127 185 128 186 39 187 127 185 39 187 129 188 127 185 123 189 128 186 128 186 123 189 116 159 45 53 123 189 127 185 127 190 95 191 50 192 130 193 131 194 132 195 24 196 133 197 134 198 135 199 136 200 124 179 105 201 97 135 96 134 137 202 138 203 139 204 140 205 141 206 142 207 143 208 106 208 107 208 108 209 144 209 100 209 121 210 102 140 104 143 145 211 20 212 146 213 147 214 145 215 148 216 32 38 129 217 39 48 91 126 131 218 103 219 149 220 131 218 91 126 143 221 107 221 144 221 108 222 143 222 144 222 111 223 150 224 92 127 121 210 104 143 130 225 151 226 121 210 130 225 104 142 131 194 130 193 148 216 145 215 152 227 136 228 138 203 153 229 151 226 130 225 154 230 155 231 146 213 156 232 145 211 146 213 155 231 152 227 145 215 155 233 157 234 56 235 60 236 149 220 132 237 131 218 158 238 132 237 149 220 159 239 150 239 111 239 103 141 84 120 89 122 104 142 103 141 131 194 155 231 156 232 139 240 135 199 155 231 139 240 1 1 0 0 46 54 48 241 151 226 154 230 49 242 48 241 154 230 3 243 155 233 135 199 160 244 155 233 3 243 161 245 159 246 162 247 49 248 163 249 50 250 107 150 100 251 144 252 61 253 5 254 90 255 158 256 49 248 154 257 158 258 161 245 163 259 161 245 162 247 163 259 162 260 164 261 59 262 149 220 161 245 158 238 161 245 150 224 159 246 163 249 49 248 158 256 31 263 125 263 29 263 58 264 29 265 119 266 46 267 30 183 142 268 9 14 2 269 1 77 142 268 141 270 46 267 55 271 165 271 69 271 9 9 14 37 10 10 66 82 15 81 82 109 34 41 57 67 27 31 151 272 126 273 122 274 147 214 105 144 20 146 29 33 110 275 30 34 71 89 70 88 77 178 62 83 66 82 87 116 135 199 139 240 136 200 140 276 109 277 35 278 35 278 109 277 34 279 109 277 110 280 34 279 110 280 57 281 34 279 80 104 97 282 55 105 145 215 147 214 20 146 38 283 93 284 8 173 64 75 166 285 16 76 133 197 24 196 37 286 138 203 136 228 139 204 75 95 69 287 165 288 54 64 165 289 55 65 37 286 27 290 112 291 45 181 90 292 125 182 120 171 153 229 26 30 166 293 140 276 35 278 47 55 46 54 0 0 68 294 166 295 64 106 40 110 22 25 7 36 4 296 124 179 119 168 76 297 68 85 69 87 72 91 75 298 74 94 162 247 159 246 164 299 68 300 140 301 166 302 80 303 64 75 67 304 86 114 67 84 62 72 88 117 96 305 86 115 75 306 111 307 83 308 75 306 164 309 111 307 102 174 8 173 93 284 161 245 149 220 143 310 150 224 161 245 143 310 150 224 143 310 108 311 92 127 150 224 108 311 106 312 149 220 91 126 78 99 92 127 99 313 92 127 108 311 99 313 149 220 106 312 143 310 81 107 73 92 78 99 75 95 76 97 69 287 82 109 17 108 134 198 20 23 19 22 167 314 167 314 146 315 20 23 94 129 95 131 126 184 84 120 71 89 81 121 85 133 97 135 80 303 29 123 125 316 90 124 32 38 95 191 129 217 68 294 64 106 55 105 110 280 29 317 58 318 57 281 110 280 58 318 87 116 86 115 62 83 13 79 12 119 65 80 75 95 54 319 164 261 97 282 105 320 55 105 71 101 12 103 11 321 18 21 20 23 96 305 96 305 88 117 18 21 153 322 168 323 26 324 168 323 169 325 26 324 56 66 55 65 105 326 109 152 142 327 30 153 5 5 4 4 29 265 19 328 18 328 88 328 63 74 67 304 64 75 3 329 61 330 160 331 48 332 94 333 126 273 159 334 111 307 164 309 17 108 24 196 134 198 115 158 123 189 45 53 37 286 112 291 133 197 120 171 136 228 153 229 6 40 33 39 40 110 160 331 61 330 152 335 75 306 83 308 74 336 93 284 38 283 79 337 132 195 158 256 154 257 136 200 120 169 124 179 127 190 129 217 95 191 38 283 25 78 79 337 135 199 124 179 4 296 137 202 139 204 156 338 156 338 170 339 137 202 3 243 135 199 4 296 4 4 119 266 29 265 170 340 167 341 171 342 137 343 170 340 168 323 170 340 171 342 168 323 167 341 19 344 172 345 138 346 137 343 168 323 171 342 167 341 172 345 19 344 88 347 172 345 153 322 138 346 168 323 88 347 87 348 172 345 87 348 173 349 172 345 87 348 66 350 173 349 66 350 82 351 173 349 82 351 134 352 173 349 134 352 133 353 169 325 133 353 112 354 169 325 173 349 134 352 169 325 112 354 26 324 169 325 85 133 80 303 67 304 109 355 140 205 142 207 42 356 41 161 44 61 44 61 41 161 52 62 114 160 52 62 41 161 106 312 91 126 81 107 78 99 99 313 98 357 81 107 78 99 98 357 98 357 106 312 81 107 122 274 121 172 151 272 105 358 147 359 56 360 163 249 127 361 50 250 46 267 45 181 30 183 45 53 47 55 115 158 170 339 146 315 167 314 172 345 173 349 171 342 171 342 173 349 169 325 168 323 171 342 169 325 51 362 43 363 21 24 21 24 43 363 2 26 43 363 44 364 0 0 2 26 43 363 0 0 44 364 53 365 47 55 0 0 44 364 47 55 47 55 53 365 116 159 53 365 117 366 116 159 21 24 33 56 51 362 33 56 39 367 51 362 39 367 113 368 51 362 39 367 128 186 113 368 128 186 116 159 117 366 113 368 128 186 117 366 25 78 65 80 79 337 61 330 60 369 152 335 152 335 60 369 148 370 60 369 56 360 148 370 56 360 147 359 148 370 48 57 50 59 94 371 75 95 165 288 54 319 157 234 54 372 56 235 22 25 10 10 14 37 3 373 5 373 61 373 154 257 130 193 132 195 107 150 101 149 100 251 8 173 121 172 122 274 126 273 151 272 48 332 45 374 127 375 90 255 127 375 163 259 90 255 163 259 162 247 59 376 90 255 163 259 59 376 59 376 61 253 90 255 155 233 160 244 152 227 76 377 72 378 70 379 1 380 46 381 141 382 70 379 1 380 76 377 76 377 1 380 141 382 140 301 68 300 76 377 141 382 140 301 76 377 166 285 35 43 16 76 156 338 146 315 170 339 157 383 59 262 164 261 164 261 54 319 157 383 157 384 60 70 59 69</p>
        </triangles>
      </mesh>
    </geometry>
  </library_geometries>
  <library_visual_scenes>
    <visual_scene id="scene">
      <node id="pelvis">
        <instance_geometry url="#geometry">
          <bind_material>
            <technique_common>
              <instance_material symbol="scout_333333" target="#scout_333333" />
            </technique_common>
          </bind_material>
        </instance_geometry>
      </node>
    </visual_scene>
  </library_visual_scenes>
  <scene>
    <instance_visual_scene url="#scene" />
  </scene>
</COLLADA>