<?xml version='1.0' encoding='utf-8'?>
<COLLADA xmlns="http://www.collada.org/2005/11/COLLADASchema" version="1.4.1">
  <asset>
    <created>2026-09-14T00:00:00Z</created>
    <modified>2026-09-14T00:00:00Z</modified>
    <unit name="metre" meter="1" />
    <up_axis>Z_UP</up_axis>
  </asset>
  <library_effects>
    <effect id="scout_b2b2b2_effect">
      <profile_COMMON>
        <technique sid="common">
          <lambert>
            <emission>
              <color>0 0 0 1</color>
            </emission>
            <ambient>
              <color>0.35 0.35 0.35 1</color>
            </ambient>
            <diffuse>
              <color>0.7 0.7 0.7 1</color>
            </diffuse>
          </lambert>
        </technique>
      </profile_COMMON>
    </effect>
  </library_effects>
  <library_materials>
    <material id="scout_b2b2b2" name="scout_b2b2b2">
      <instance_effect url="#scout_b2b2b2_effect" />
    </material>
  </library_materials>
  <library_geometries>
    <geometry id="geometry" name="pelvis_contour_link">
      <mesh>
        <source id="positions">
          <float_array id="positions_array" count="522">-0.0519863814 0.0177548416 -0.0316855945 -0.0553812422 -0.0115678152 -0.045132231 -0.0517867804 -0.012448635 -0.0312818959 0.00843796227 0.0651703551 -0.0314528085 -0.0276065748 0.059149351 -0.0278950967 0.00667340728 0.0602098554 -0.0278210882 0.0379548296 0.0617702194 -0.0315512754 0.0226265602 0.0643396378 -0.0314052552 0.0338515975 0.058074113 -0.0278515276 -0.0287925024 0.0637756065 -0.031455785 -0.0375152454 0.0566570759 -0.0278926231 -0.0402469561 0.0606428683 -0.0316092968 0.0437504649 0.0573344603 -0.0313009359 0.0411225744 0.053597372 -0.0279106256 -0.045059517 0.0557632148 -0.0314268768 -0.0541886464 -0.0354354009 -0.0452947989 -0.057873141 -0.0171240568 -0.0676997527 -0.0562772043 -0.0419549569 -0.0741060525 -0.0214246791 0.0673825517 -0.04966712 0.0346431248 0.0644440651 -0.0402418599 0.0214956403 0.0676097423 -0.0544641092 -0.0368509367 0.0641753748 -0.0426061563 0.048190631 0.048246596 -0.0312781483 -0.046943415 0.0256058574 -0.0279165749 0.0448618904 0.0420212075 -0.0278395154 0.0428128727 0.0633800253 -0.0517709889 -0.0495902635 0.0429874249 -0.0312369298 -0.0429113619 0.0499862805 -0.0278163329 0.0470194407 0.0578516535 -0.0398842096 0.0476267934 0.0603806786 -0.0521799214 0.0312470272 0.0669144318 -0.0610438585 -0.030455891 0.067112051 -0.0603639185 0.0509743467 0.029981127 -0.031094132 0.051581271 0.0467758887 -0.0383492373 0.0412780382 0.0648215786 -0.062328428 -0.0489043668 0.0545507371 -0.0425344817 -0.0493800864 0.0601541102 -0.0653389692 0.0473663881 0.0174687747 -0.02793625 -0.0461625345 0.0626373738 -0.0638697594 -0.0402686484 0.0650932714 -0.0621689968 0.0542538278 0.048227746 -0.0520516038 0.0527481139 0.0546640567 -0.0604547113 -0.0539009348 0.0364403315 -0.0443581268 0.0546187609 0.0233827922 -0.0373138674 0.0581922606 0.029692322 -0.0523565821 0.0480503291 0.0613467582 -0.0649739951 0.0427212492 0.0356206074 -0.12409924 0.0330778323 0.0309924576 -0.136361375 0.0200811476 0.0277570076 -0.145127594 -0.0519588143 0.0562935174 -0.0677092299 -0.0536904335 0.0486492924 -0.058351282 0.0536449403 0.0534945428 -0.0695144385 0.00840802304 0.0263108891 -0.148690552 -0.0030177834 0.0260783769 -0.149236664 -0.0162832085 0.0270931479 -0.146687195 -0.0264736116 0.0291381404 -0.141364917 -0.036294613 0.0322273113 -0.133123204 -0.0449440815 0.0372291952 -0.119485505 0.0593311004 0.00839327835 -0.051805649 0.0579888448 0.0398321301 -0.0642852411 0.0597872026 -0.011250074 -0.0999477059 0.0594572686 -0.0312073994 -0.0868526548 0.0584803484 -0.0286174119 -0.0992507711 -0.0490995795 0.0425189883 -0.105244808 -0.0572806038 0.0258888286 -0.0637543947 0.0515161827 -0.0136300707 -0.0310670622 0.0457007401 -0.0383567847 -0.0278020315 0.0567426458 -0.0089981975 -0.0414619222 0.0489168502 0.0422451347 -0.106093563 0.0489425287 -0.0422122516 -0.10607104 0.0536790639 -0.053507328 -0.0683438033 0.0498474985 -0.0595428795 -0.0658286884 -0.0550884828 0.0469622537 -0.0736656785 -0.0531823561 0.000850662123 -0.123280019 -0.0550153553 -0.0229812283 -0.112892516 -0.053648293 0.0170747302 -0.120662682 0.0611282699 0.0203296337 -0.0758921281 -0.0480525866 0.0154638626 -0.129000038 -0.0470288657 -0.0062593366 -0.131243378 0.052829124 0.00890640914 -0.12327373 0.0545922332 0.0205535237 -0.118377753 0.0562165901 0.0231030658 -0.113720447 0.0588382222 0.0367124602 -0.0801414624 0.0358553082 -0.00654504262 -0.141425669 0.0462016426 -0.020440001 -0.129117936 0.0329238772 -0.0187152401 -0.1413095 0.0527261347 -0.038059175 -0.0363803953 0.0500068925 -0.0391872972 -0.0311741568 0.0615897141 -0.00988695677 -0.0749950111 0.0578721911 -0.0295043085 -0.0508468188 0.0587765165 0.029646866 -0.0958919898 -0.000338451209 -0.0650599524 -0.0314910151 0.0165192094 -0.0599845089 -0.0278573856 -0.0227444097 -0.0594533198 -0.027842097 -0.0544605516 0.0229027644 -0.115047961 -0.0565565005 0.0276013147 -0.0998931304 -0.0498672388 -0.0414493196 -0.0312286615 -0.0457609743 -0.0386794433 -0.0279044248 0.0475064851 -0.0505811423 -0.0314843766 0.060607817 0.0103112832 -0.0943198428 -0.0399082527 0.0206114631 -0.13601996 0.0385847241 0.0142734619 -0.138617948 0.0242797546 0.0188663732 -0.146080181 -0.0489261225 0.0246075317 -0.123879947 -0.0447842889 -0.0633315518 -0.0633755773 -0.0495205522 -0.0600559525 -0.0653453842 -0.046227809 -0.0383071415 -0.116645277 0.0418115743 -0.0518763103 -0.0278711282 -0.0280212983 0.0178736113 -0.144549087 -0.0141117321 0.0138515253 -0.15012674 0.0449486673 0.0192720667 -0.13085261 -0.0574275069 0.0306383725 -0.0855057538 0.0439222343 -0.0571273342 -0.0313549899 0.0370045491 -0.0570545532 -0.0278478917 0.0598399527 -0.0307606906 -0.0700013414 0.0529399849 -0.0485797785 -0.0457797423 0.00983039849 0.0125715304 -0.151276916 -0.00277247373 0.0178447254 -0.150868893 -0.041278664 -0.0529155061 -0.0278716497 0.0387177467 -0.0611531548 -0.0312807746 -0.0570055284 -0.0286549702 -0.0953608602 -0.0472966135 -0.051808279 -0.0317595042 0.0466651991 -0.0582102686 -0.0397753119 0.0572585091 -0.0421935171 -0.0620566979 -0.0255802814 -0.00221488392 -0.147290558 0.0220499597 0.00748354942 -0.148472413 0.0558908358 -0.0233399291 -0.113881864 -0.000389012392 0.00409333315 -0.152068079 0.00864991359 -0.00550867245 -0.151697084 0.032234747 0.00443934184 -0.14387174 -0.0534094423 -0.0488707684 -0.0567192808 -0.0436883941 -0.057866767 -0.0317695588 0.0276892837 -0.063917309 -0.0314245299 0.0493349656 -0.0589537472 -0.0544353612 0.0572366379 -0.0437063463 -0.0757069588 0.0183717441 -0.00925849099 -0.149602219 -0.0127367582 -0.00605239207 -0.150958925 -0.0383124352 0.0010683263 -0.139657125 0.0281166546 -0.0108246198 -0.14575249 -0.00433445768 -0.0146574266 -0.151262358 0.0410239398 -0.062051408 -0.0384331234 0.0458860211 -0.00572096836 -0.132445231 -0.0495314039 -0.0575181507 -0.0551513769 -0.0408258811 -0.0600192994 -0.0315049775 -0.0357672498 -0.0573838502 -0.027851712 0.0536791496 -0.0161446296 -0.121128142 -0.0197631996 -0.0183713734 -0.147862762 -0.0328749456 -0.0190800894 -0.141388059 -0.0411761664 -0.0200718958 -0.135076597 -0.0531450734 -0.0537297539 -0.0689621046 -0.035720095 -0.0622311607 -0.0312856175 0.0451463535 -0.0632425323 -0.0633115917 0.016409466 -0.0269726254 -0.14676027 0.00780917844 -0.0261532981 -0.148867443 0.000343714695 -0.0259054545 -0.149431765 -0.0498235822 -0.0445574932 -0.0993613899 0.0252492893 -0.028767122 -0.142315656 -0.0497918464 -0.0204129647 -0.125623316 0.0224044174 -0.0675789416 -0.053719312 0.0374015719 -0.0648931563 -0.0493357144 0.0449614935 -0.0374806598 -0.119035661 -0.00976942386 -0.0264266394 -0.14837876 -0.0537791774 -0.0187631678 -0.119926408 0.0373117663 -0.0324036367 -0.132303178 -0.0387230553 -0.0629358292 -0.0384428352 -0.0255702324 -0.0642432049 -0.0318178795 -0.000351705035 -0.0676840395 -0.0476834811 -0.0194176193 -0.027521193 -0.145411804 -0.0305836406 -0.067076996 -0.0602254383 0.0321636535 -0.0668412074 -0.0611573122 -0.0293181874 -0.0297745299 -0.139463991 -0.037802536 -0.0328498222 -0.131188303 -0.0388417877 -0.0653721988 -0.0620897822 -0.0471255779 -0.0105133625 -0.0278489012</float_array>
          <technique_common>
            <accessor source="#positions_array" count="174" stride="3">
              <param name="X" type="float" />
              <param name="Y" type="float" />
              <param name="Z" type="float" />
            </accessor>
          </technique_common>
        </source>
        <source id="normals">
          <float_array id="normals_array" count="639">-0.849680424 0.0264873281 0.526632309 -0.982869267 -0.0207788572 0.183128923 -0.9678846 -0.0348090604 0.24897328 0.0100479443 0.588916421 0.808131516 -0.0808728337 0.594257712 0.800198317 0.00181074906 0.317969829 0.948099077 0.243368998 0.546730578 0.801159918 0.0527509823 0.568409324 0.821053088 0.106867567 0.340636492 0.93410176 -0.0931276754 0.597896338 0.79614526 -0.18680276 0.320995718 0.92847538 -0.307100624 0.527900398 0.791839838 0.618266523 0.549553037 0.561905742 0.298163325 0.229477808 0.926519573 -0.700963676 0.485545725 0.522393823 -0.974790454 -0.120368041 0.187869892 -0.998345315 -0.0313889757 0.0481802709 -0.978702068 -0.202310592 -0.0348231345 0.0209764075 0.991415381 0.129056096 -0.059365239 0.994701087 0.0839378312 -0.139057457 0.973828733 0.17977941 0.20940572 0.965656221 0.153809488 0.0796596408 0.98957026 0.120020822 0.380717456 0.89754802 0.222400114 0.0476302058 0.998487413 0.0274629742 -0.302464098 0.942394018 0.142860174 0.761027455 0.25273627 0.597462595 -0.345930964 0.0239499826 0.937954247 -0.591093302 -0.0164013673 0.806436419 -0.510105848 0.838753998 0.190482974 0.323667556 0.0629561618 0.944074094 0.414844692 0.901726186 0.121629454 -0.810624599 0.171984524 0.559740186 -0.331391871 0.148268983 0.931770205 0.745309055 0.6202209 0.244622946 0.689805925 0.71103096 0.136391819 0.110984646 0.977594554 -0.178861052 -0.103256807 0.980103374 -0.169515103 0.765990615 0.0826455206 0.637517095 0.915110528 0.26647988 0.302590758 0.288738906 0.943952262 -0.159949854 -0.857054472 0.474654406 0.200401723 -0.695077419 0.713450372 -0.0886333212 0.344293773 0.00787024107 0.938829005 -0.469756067 0.874673605 -0.119479239 -0.26240465 0.952398062 -0.155183062 0.933857381 0.31692642 0.165734828 0.879959047 0.468725055 0.0772589892 -0.973801374 0.128581658 0.187556922 0.924755514 0.0609117448 0.375655442 0.976189911 0.118603393 0.181621745 0.582138181 0.79766345 -0.157633036 0.128613576 0.896546185 -0.423867375 0.0752050579 0.900750518 -0.427776426 0.0310693644 0.904497206 -0.425346345 -0.861947894 0.499873787 -0.0846877545 -0.960029483 0.253247201 0.119202383 0.853209376 0.506760478 -0.123400033 0.00717965234 0.906624556 -0.421877176 -0.00416084239 0.907035708 -0.421033114 -0.0212023146 0.905711889 -0.423363239 -0.0500538088 0.903355718 -0.425961375 -0.088630408 0.900534511 -0.425655007 -0.163921729 0.892382979 -0.42045483 0.98315686 0.0200556256 0.181659892 0.97295624 0.221609101 0.0651578307 0.985865474 -0.0326922797 -0.164318219 0.98069191 -0.176887378 -0.0833923221 0.940766573 -0.268510193 -0.207027748 -0.645743728 0.671379387 -0.36368227 -0.995059907 0.0607072078 0.0785522014 0.749646902 -0.0232102051 0.661430836 0.333906144 -0.0538147837 0.941068888 0.945213556 -0.0241377223 0.325559109 0.602256179 0.697691917 -0.387960643 0.611299813 -0.694991648 -0.378548831 0.872383654 -0.481973499 -0.0815369412 0.68638581 -0.71325779 -0.141907617 -0.954054475 0.289706796 -0.0764854401 -0.908321798 0.00229939236 -0.4182657 -0.946201146 -0.210946351 -0.24536711 -0.912487507 0.131249264 -0.387479275 0.997219384 0.073318243 0.0133405877 -0.753675997 0.144838735 -0.641088367 -0.744137049 -0.0444938131 -0.666543543 0.855486512 0.0448155701 -0.515882194 0.85569787 0.207491249 -0.47405538 0.895083845 0.261310756 -0.361305356 0.961354136 0.263004273 -0.0814061984 0.601549804 -0.0688388273 -0.795863748 0.717843711 -0.258023143 -0.6466254 0.550268829 -0.230246946 -0.802614868 0.924478173 -0.146966293 0.351768374 0.770197928 -0.123434044 0.625746906 0.999219835 -0.0323052332 0.0227164589 0.975519121 -0.108743273 0.191147476 0.945306242 0.268911988 -0.184614465 -0.00611236738 -0.578668952 0.815539658 0.0158736091 -0.337192982 0.941301703 -0.0296559688 -0.335638195 0.941524029 -0.930604398 0.224868804 -0.288807005 -0.970465422 0.18265751 -0.157585055 -0.57527107 -0.122884214 0.808679581 -0.58664763 -0.0910975859 0.804702282 0.765832067 -0.293755561 0.572021782 0.992117941 0.0327947289 -0.120940283 -0.467487156 0.314750522 -0.826067686 -0.629618883 0.240065739 -0.738883317 -0.623369098 0.379948944 -0.683410406 0.6238572 0.159421518 -0.765105903 0.398236066 0.211060897 -0.892670929 0.582854271 0.319247812 -0.747236073 0.358206928 0.265082181 -0.89522022 0.73289901 0.39701435 -0.552484095 -0.763089478 0.351519704 -0.542335987 -0.773255348 0.42057696 -0.474543154 -0.425976008 -0.896283925 -0.123367548 -0.691285133 -0.715467155 -0.101151228 -0.173172519 -0.89089787 -0.41989553 0.310465544 -0.171597391 0.934968174 -0.280873865 0.232918829 -0.931052446 -0.449108094 0.17889896 -0.875383973 -0.219752818 0.11559236 -0.968683183 0.716055214 0.232964322 -0.658021688 0.149416521 0.201067761 -0.968114913 -0.993184209 0.106836863 -0.0465947129 -0.960304379 -0.175759763 0.216619477 0.625708938 -0.537011385 0.565780044 0.169244394 -0.322159231 0.931434274 0.990982175 -0.126737788 0.0434948765 0.922859788 -0.323260993 0.209361315 0.147236884 0.11269024 -0.98266077 -0.0566955209 0.200975746 -0.977954149 -0.0424559712 0.149056435 -0.987916827 -0.490403563 -0.326875031 0.807871938 0.35387522 -0.771738768 0.528385878 -0.976090372 -0.175465271 -0.12829484 -0.557599902 -0.23212038 0.796995938 0.744618058 -0.625415564 0.233236492 0.963564396 -0.249706909 0.0958652198 -0.405334204 -0.0160116516 -0.914028347 0.334684014 0.062001016 -0.940288544 0.893538654 -0.246658206 -0.375164449 -0.0276232827 0.0254839119 -0.999293506 0.111685999 -0.0522976965 -0.992366433 0.509022117 0.0458703265 -0.85953033 -0.953331888 -0.268505722 0.138068736 -0.464900583 -0.396815866 0.791457295 0.0788192153 -0.566314518 0.820411682 0.75417012 -0.643136322 0.132676721 0.928271472 -0.354662269 -0.111922771 0.269465089 -0.0901035964 -0.958785653 -0.185184717 -0.0422971435 -0.981793046 -0.607239485 0.0114509156 -0.794436336 0.432858974 -0.116911419 -0.8938483 -0.0600580871 -0.120244294 -0.990926027 -0.906621635 -0.372075945 0.198989227 0.43403995 -0.877769053 0.202807188 0.732502878 -0.0472061858 -0.679125309 -0.00263087428 0.0129894372 0.999912202 -0.83047837 -0.532458305 0.163688332 -0.347903103 -0.480382502 0.805106282 -0.228978947 -0.534794033 0.813365877 0.865663588 -0.127835914 -0.484029502 -0.317112893 -0.17373018 -0.932339668 -0.515352428 -0.198061451 -0.833776653 -0.647460103 -0.233349025 -0.725495458 -0.899219155 -0.430548877 -0.0776695088 -0.7212556 -0.669615269 0.177216709 -0.157083184 -0.571902037 0.805141568 0.129939914 -0.978727043 0.158773422 0.411957026 -0.899800897 -0.143700376 0.303659946 -0.199975669 -0.931558013 0.136448652 -0.152971208 -0.978765309 0.00613178173 -0.16059427 -0.987001479 -0.690614879 -0.643814087 -0.329476088 0.458910942 -0.273886055 -0.845214307 -0.776584387 -0.257013083 -0.575205147 0.0564561486 -0.997758985 0.0359118134 0.264217675 -0.958173573 0.109965399 0.762104392 -0.41769436 -0.494700223 -0.169027105 -0.19654724 -0.965815187 -0.910905361 -0.165716797 -0.377874792 0.653470397 -0.338303775 -0.677146196 -0.80795157 -0.412324727 -0.420954406 -0.386145234 -0.908696473 0.158627048 -0.527395189 -0.828464329 0.188417584 -0.0666828305 -0.608317494 0.790887594 -0.00381158548 -0.99718821 0.0748405606 0.0049423012 -0.987395942 0.158192486 -0.354950011 -0.266522318 -0.896089494 -0.267033637 -0.941684127 0.204753652 -0.107199989 -0.985138834 0.134199813 -0.099678129 -0.983392775 -0.151667207 0.131316692 -0.974215806 -0.183465123 -0.506712496 -0.327525347 -0.797477007 -0.650031567 -0.393786639 -0.649916172 0.156409636 -0.893482745 -0.420980513 -0.222878247 -0.960550904 -0.166334927 0.0962017179 -0.898636341 -0.428016275 0.00753350835 -0.906319976 -0.422524959 0.0219937339 -0.904730916 -0.425415426 -0.099224031 -0.899698913 -0.425083995 -0.0602608249 -0.902742803 -0.425939083 -0.0346190892 -0.904703856 -0.424632072 -0.00770940725 -0.90737927 -0.420242071 0.00137412956 -0.907654107 -0.419716775 0.0453988053 -0.902899265 -0.427448153 -0.000171359221 0.000329717586 0.99999994 -0.000767412537 0.0023451522 0.99999696 -3.60801569e-05 0.00441707112 0.999990225 -0.590460539 -0.00941068865 0.807011664 0.000915761746 -0.00108994625 0.999998987</float_array>
          <technique_common>
            <accessor source="#normals_array" count="213" stride="3">
              <param name="X" type="float" />
              <param name="Y" type="float" />
              <param name="Z" type="float" />
            </accessor>
          </technique_common>
        </source>
        <vertices id="vertices">
          <input semantic="POSITION" source="#positions" />
        </vertices>
        <triangles material="scout_b2b2b2" count="344">
          <input semantic="VERTEX" source="#vertices" offset="0" />
          <input semantic="NORMAL" source="#normals" offset="1" />
          <p>0 0 1 1 2 2 3 3 4 4 5 5 6 6 7 7 8 8 4 4 9 9 10 10 9 9 11 11 10 10 12 12 6 6 13 13 11 11 14 14 10 10 15 15 16 16 17 17 3 18 18 19 9 20 19 21 7 22 6 23 7 22 19 21 3 18 19 21 20 24 3 18 18 19 21 25 9 20 22 26 12 12 13 13 23 27 0 0 2 28 7 7 5 5 8 8 21 25 11 29 9 20 24 30 22 26 13 13 6 23 25 31 19 21 14 14 26 32 27 33 12 12 28 34 6 23 28 34 29 35 6 23 30 36 20 24 19 21 20 24 31 37 18 19 31 37 21 25 18 19 32 38 22 26 24 30 33 39 28 34 22 26 28 34 12 12 22 26 29 35 25 31 6 23 25 31 34 40 19 21 35 41 14 14 11 29 36 42 35 41 11 29 37 43 32 38 24 30 31 37 20 24 30 36 38 44 11 29 21 25 39 45 38 44 21 25 32 38 33 39 22 26 40 46 28 34 33 39 28 34 41 47 29 35 35 41 42 48 26 32 26 32 23 27 27 33 32 38 43 49 33 39 43 49 44 50 33 39 41 47 28 34 40 46 41 47 45 51 29 35 34 40 46 52 30 36 46 52 47 53 30 36 47 53 48 54 30 36 49 55 50 56 35 41 36 42 49 55 35 41 42 48 35 41 50 56 44 50 40 46 33 39 51 57 45 51 41 47 52 58 53 59 30 36 53 59 31 37 30 36 53 59 54 60 31 37 54 60 55 61 31 37 55 61 56 62 31 37 56 62 39 45 31 37 56 62 57 63 39 45 42 48 0 0 26 32 58 64 44 50 43 49 44 50 59 65 40 46 59 65 41 47 40 46 60 66 61 67 62 68 63 69 36 42 38 44 63 69 49 55 36 42 50 56 64 70 42 48 0 0 23 27 26 32 65 71 37 43 66 72 67 73 58 64 43 49 45 51 68 74 34 40 68 74 46 52 34 40 69 75 70 76 71 77 63 69 39 45 57 63 63 69 38 44 39 45 49 55 72 78 50 56 73 79 74 80 75 81 44 50 58 64 76 82 73 79 77 83 78 84 43 49 32 38 65 71 59 65 51 57 41 47 68 74 45 51 51 57 79 85 80 86 81 87 59 65 44 50 76 82 67 73 43 49 65 71 76 82 82 88 59 65 82 88 51 57 59 65 72 78 49 55 63 69 83 89 84 90 85 91 86 92 67 73 65 71 87 93 86 92 65 71 88 94 76 82 58 64 86 92 89 95 67 73 82 88 90 96 51 57 91 97 92 98 93 99 94 100 95 101 63 69 95 101 72 78 63 69 16 16 1 1 64 70 2 28 96 102 97 103 98 104 87 93 66 72 89 95 58 64 67 73 88 94 99 105 76 82 90 96 68 74 51 57 90 96 81 87 68 74 55 106 100 107 56 108 101 109 102 110 47 111 102 110 48 112 47 111 68 74 80 86 46 113 56 108 103 114 57 115 104 116 105 117 106 118 107 119 98 104 66 72 89 95 88 94 58 64 76 82 90 96 82 88 54 120 108 121 55 106 108 121 54 120 109 122 108 121 100 107 55 106 80 86 110 123 46 113 110 123 47 111 46 113 110 123 101 109 47 111 102 110 52 124 48 112 100 107 103 114 56 108 111 125 16 16 64 70 1 1 96 126 2 2 112 127 107 119 113 128 89 95 114 129 88 94 86 92 115 130 89 95 81 87 80 86 68 74 116 131 53 132 52 124 116 131 117 133 53 132 53 132 109 122 54 120 77 83 103 114 100 107 116 131 52 124 102 110 103 114 94 100 57 115 94 100 63 69 57 115 15 15 96 126 1 1 96 102 118 134 97 103 112 127 98 104 107 119 119 135 112 127 113 128 98 104 86 92 87 93 88 94 60 66 99 105 109 122 53 132 117 133 77 83 75 81 103 114 94 100 103 114 75 81 95 101 120 136 111 125 120 136 16 16 111 125 121 137 118 134 96 102 112 127 122 138 98 104 98 104 115 130 86 92 61 67 88 94 114 129 61 67 60 66 88 94 115 130 123 139 89 95 123 139 114 129 89 95 81 87 90 96 99 105 124 140 108 121 109 122 125 141 116 131 102 110 75 81 74 80 94 100 74 80 95 101 94 100 99 105 60 66 81 87 62 68 126 142 60 66 127 143 117 133 116 131 128 144 127 143 116 131 129 145 102 110 101 109 130 146 15 15 17 17 131 147 118 134 121 137 132 148 119 135 113 128 122 138 133 149 115 130 123 139 134 150 114 129 135 151 116 131 125 141 135 151 128 144 116 131 127 143 109 122 117 133 136 152 124 140 109 122 137 153 100 107 108 121 124 140 137 153 108 121 137 153 77 83 100 107 73 79 75 81 77 83 80 86 79 85 110 123 79 85 101 109 110 123 129 145 125 141 102 110 129 145 138 154 125 141 138 154 135 151 125 141 74 80 120 136 95 101 136 152 127 143 139 155 121 156 96 126 15 15 3 3 5 5 7 7 140 157 122 138 112 127 140 157 112 127 119 135 70 76 123 139 115 130 133 149 70 76 115 130 134 150 61 67 114 129 126 142 81 87 60 66 136 152 109 122 127 143 79 85 141 158 101 109 141 158 83 89 101 109 83 89 129 145 101 109 121 156 15 15 130 146 4 159 10 10 27 33 113 128 92 98 132 148 70 76 134 150 123 139 64 70 50 56 72 78 78 84 77 83 137 153 83 89 138 154 129 145 130 146 142 160 121 156 143 161 118 134 131 147 143 161 144 162 118 134 18 19 3 18 20 24 133 149 71 77 70 76 62 68 61 67 134 150 126 142 145 163 81 87 128 144 139 155 127 143 136 152 146 164 124 140 147 165 137 153 124 140 147 165 148 166 137 153 85 91 138 154 83 89 120 136 149 167 17 17 149 167 142 160 130 146 142 160 131 168 121 156 143 161 150 169 144 162 132 170 140 157 119 135 140 157 151 171 122 138 151 171 133 149 122 138 151 171 71 77 133 149 134 150 69 75 62 68 62 68 69 75 126 142 152 172 135 151 138 154 152 172 153 173 135 151 153 173 128 144 135 151 153 173 154 174 128 144 154 174 139 155 128 144 146 164 147 165 124 140 148 166 78 84 137 153 145 163 141 158 79 85 145 163 84 90 141 158 120 136 155 175 149 167 138 154 156 176 152 172 157 177 73 79 78 84 74 80 155 175 120 136 105 117 142 160 149 167 158 178 159 179 132 170 132 170 159 179 140 157 159 179 151 171 140 157 69 75 134 150 70 76 69 75 160 180 126 142 138 154 85 91 156 176 154 174 161 181 139 155 161 181 146 164 139 155 148 166 157 177 78 84 157 177 162 182 73 79 163 183 85 91 84 90 106 184 74 80 162 182 106 184 155 175 74 80 164 185 143 186 131 168 165 187 91 97 93 99 166 188 158 178 91 189 158 178 132 170 91 189 84 90 145 163 126 142 161 181 167 190 146 164 157 177 106 184 162 182 105 117 149 167 155 175 105 117 131 168 142 160 143 186 164 185 150 191 165 187 144 162 150 169 166 188 165 192 168 193 158 178 169 194 159 179 169 194 151 171 159 179 151 171 69 75 71 77 48 54 52 58 30 36 167 190 147 165 146 164 163 183 156 176 85 91 164 185 131 168 105 117 158 178 168 193 169 194 160 180 163 183 84 90 170 195 147 165 167 190 170 195 148 166 147 165 170 195 171 196 148 166 148 166 171 196 157 177 171 196 106 184 157 177 104 116 164 185 105 117 165 192 166 188 91 189 168 193 158 178 166 188 151 171 160 197 69 75 105 117 155 175 106 118 164 185 165 192 150 191 104 116 172 198 164 185 172 198 168 193 164 185 168 193 165 192 164 185 169 194 160 197 151 171 169 194 163 199 160 197 169 194 153 200 152 201 172 198 171 202 168 193 171 202 170 203 168 193 170 203 167 204 168 193 167 204 161 205 168 193 161 205 154 206 168 193 154 206 169 194 168 193 154 206 153 200 169 194 152 201 156 207 169 194 156 207 163 199 169 194 172 198 104 116 106 118 106 118 171 202 172 198 15 15 1 1 16 16 34 40 25 31 45 51 91 97 132 148 92 98 36 42 11 29 38 44 93 99 92 98 97 208 92 98 5 5 97 208 97 208 118 209 93 99 93 99 118 209 144 210 122 138 115 130 98 104 45 51 25 31 29 35 3 3 9 9 4 4 65 71 32 38 37 43 74 80 73 79 162 182 6 6 8 8 13 13 83 89 141 158 84 90 2 28 97 103 173 211 173 211 23 27 2 28 146 164 136 152 139 155 99 105 90 96 76 82 31 37 39 45 21 25 66 72 37 43 5 5 92 98 66 72 5 5 37 43 24 30 8 8 24 30 13 13 8 8 8 8 5 5 37 43 92 98 113 128 66 72 107 119 66 72 113 128 26 32 14 14 35 41 130 146 17 17 149 167 1 1 0 0 42 48 27 33 23 27 5 5 23 27 173 212 5 5 173 212 97 208 5 5 5 5 4 159 27 33 145 163 79 85 81 87 42 48 64 70 1 1 111 125 64 70 72 78 84 90 126 142 160 180 34 40 30 36 19 21 165 187 93 99 144 162 111 125 72 78 95 101 17 17 16 16 120 136 27 33 10 10 14 14 87 93 65 71 66 72</p>
        </triangles>
      </mesh>
    </geometry>
  </library_geometries>
  <library_visual_scenes>
    <visual_scene id="scene">
      <node id="pelvis_contour_link">
        <instance_geometry url="#geometry">
          <bind_material>
            <technique_common>
              <instance_material symbol="scout_b2b2b2" target="#scout_b2b2b2" />
            </technique_common>
          </bind_material>
        </instance_geometry>
      </node>
    </visual_scene>
  </library_visual_scenes>
  <scene>
    <instance_visual_scene url="#scene" />
  </scene>
</COLLADA>