<?xml version='1.0' encoding='utf-8'?>
<COLLADA xmlns="http://www.collada.org/2005/11/COLLADASchema" version="1.4.1">
  <asset>
    <created>2026-09-14T00:00:00Z</created>
    <modified>2026-09-14T00:00:00Z</modified>
    <unit name="metre" meter="1" />
    <up_axis>Z_UP</up_axis>
  </asset>
  <library_effects>
    <effect id="scout_b2b2b2_effect">
      <profile_COMMON>
        <technique sid="common">
          <lambert>
            <emission>
              <color>0 0 0 1</color>
            </emission>
            <ambient>
              <color>0.35 0.35 0.35 1</color>
            </ambient>
            <diffuse>
              <color>0.7 0.7 0.7 1</color>
            </diffuse>
          </lambert>
        </technique>
      </profile_COMMON>
    </effect>
  </library_effects>
  <library_materials>
    <material id="scout_b2b2b2" name="scout_b2b2b2">
      <instance_effect url="#scout_b2b2b2_effect" />
    </material>
  </library_materials>
  <library_geometries>
    <geometry id="geometry" name="right_hip_yaw_link">
      <mesh>
        <source id="positions">
          <float_array id="positions_array" count="396">-0.125922978 -0.0128599619 -0.169667155 -0.125421092 -0.0103019634 -0.191061437 -0.116641916 -0.0166014098 -0.200828597 -0.11927285 -0.00966549572 -0.149988949 -0.114553705 -0.016612459 -0.151006594 -0.0835796893 0.0169373192 -0.226013809 -0.0649118423 -0.0158488881 -0.225583836 -0.094510369 -0.0162001383 -0.22309278 -0.112381965 -0.0106749116 -0.212534145 -0.0954733416 -0.0113056749 -0.130865782 -0.0889536887 -0.0166850127 -0.134835735 -0.0565878339 -0.0163078718 -0.13045302 -0.0593941025 -0.00801766012 -0.126144037 -0.0405626781 -0.0354501754 -0.159955755 -0.0420309305 -0.0333129056 -0.103281528 -0.043968197 -0.0169299953 -0.152929768 -0.0516478308 -0.0247155502 -0.0666470155 -0.0406941026 -0.0362546667 -0.00102720538 -0.0515913628 -0.0124956938 -0.00152630417 -0.0478588976 -0.0277371574 -0.0012706914 -0.0370493904 -0.0162765235 -0.204468012 -0.0298436321 -0.00377237215 -0.198339492 -0.0488658473 -0.0109551009 -0.116779268 -0.0419341959 -0.0171203781 -0.114267454 -0.046671886 -0.0103643686 -0.0932684541 -0.0549211279 -0.000143633137 -0.0572534688 -0.00512024853 -0.0308628082 -0.139475718 -0.0359189957 -0.0291271545 -0.191926822 -0.0928217545 0.029884439 -0.137216121 -0.105609596 0.0179255791 -0.146720588 -0.0800989419 0.0182231572 -0.135716856 -0.0385428928 -0.0168316755 -0.197396636 -0.0376899168 -0.017526716 -0.167535648 -0.00604264066 -0.0212026406 -0.160927102 -0.00119012885 -0.00285332394 -0.157884151 -0.0295946151 -0.0355275907 -0.074871093 -0.112972334 0.0354152918 -0.197683424 -0.100775264 0.0182381105 -0.211301848 -0.116676919 0.023409402 -0.189057708 -0.102307864 0.0336175859 -0.214720994 -0.0968192965 0.0282938089 -0.213963926 -0.119421713 0.0182736591 -0.170617744 -0.122652173 0.0337215587 -0.182845786 -0.124381714 0.0170176439 -0.15808782 -0.117317677 0.0292157382 -0.160142377 -0.104422651 0.0286284368 -0.145245641 -0.096013926 0.0170531869 -0.130101919 -0.112753369 0.0445090272 -0.169602275 -0.09935911 0.0446653888 -0.165768936 -0.113202721 0.0368763283 -0.170156166 -0.0984935984 0.0366445966 -0.164190367 -0.105298661 0.0366462506 -0.150454149 -0.106484927 0.0446656868 -0.15366295 -0.101169847 0.0356062055 -0.139496297 -0.118484281 0.0354184955 -0.158338651 -0.0893081501 0.0446348488 -0.180380672 -0.0796527267 0.0367938057 -0.139748588 -0.0831354409 0.0448558331 -0.140607759 -0.0817579851 0.0181033108 -0.218017101 -0.0667730719 0.029006144 -0.217175171 -0.0892249569 0.0346696489 -0.221097991 -0.0824787989 0.0363267772 -0.205675378 -0.0862316266 0.0439040922 -0.211082041 -0.0745299906 0.0398712046 -0.200392529 -0.0804809928 0.0447830409 -0.194036201 -0.0780472755 0.0359113999 -0.133133873 -0.0697163641 0.0299470779 -0.135464847 -0.0541349612 0.0351885036 -0.141084909 -0.0579313338 0.0169248022 -0.125965849 -0.0591985323 0.0185129549 -0.213499963 -0.0581952594 0.0173242167 -0.222136393 -0.0560346581 0.0182450339 -0.142725959 -0.0648721084 0.045172438 -0.21150212 -0.061189536 0.0367822424 -0.210706085 -0.0565012246 0.0354089886 -0.216624364 -0.0589604788 0.0432559587 -0.14657931 -0.0449631773 0.0292223431 -0.202092007 -0.0426246151 0.018463688 -0.197640225 -0.046274256 0.0311316121 -0.000759428076 -0.0499466062 0.0285289902 -0.0702625513 -0.0509033017 0.0176470689 -0.00253869011 -0.0491029173 0.0195369683 -0.12899369 -0.0464120619 0.0175728798 -0.108451098 -0.045148313 0.0333529003 -0.11090263 -0.0475744903 0.0302480664 -0.0785798058 -0.0442867316 0.0451840125 -0.192122236 -0.0431637689 0.0369844511 -0.190665051 -0.0448526554 0.0452733636 -0.162950575 -0.0454961956 0.036547143 -0.15764527 -0.044479195 0.0262822267 -0.150169864 -0.0392918922 0.0269933343 -0.162850365 -0.0443210676 0.0358186588 -0.147776246 -0.0495709889 0.0354041159 -0.131193995 -0.0323075019 0.0173407365 -0.1992369 -0.0354841687 0.0318042375 -0.189598858 -0.0378997885 0.0361272469 -0.193797901 -0.0376081653 0.0352607183 -0.16289252 -0.0308536571 0.0338182226 -0.169996679 -0.0313147008 0.0357213356 -0.0914263129 -0.0289235655 0.0413134843 -0.000795062631 -0.0164726619 0.0185327083 -0.178476438 -0.00809118524 0.0295183863 -0.149670884 0.00885483529 0.0438264199 -0.00115260936 0.0130445799 0.0215507038 -0.126993373 0.00282649952 0.0354550257 -0.0951804966 0.0317107253 -0.0283024721 -0.0722147599 0.0279233754 -0.0340948813 -0.0584586151 0.0309600681 -0.0412230603 -0.00117543561 0.0187309477 -0.0197925549 -0.115247123 0.00673695467 -0.0434627533 -0.00143209496 -0.00628193421 -0.035236463 -0.0920883119 0.0470697545 -0.032478746 -0.000850660959 0.0383874141 -0.0170910526 -0.0616145208 0.0520917252 -0.0137201296 -0.00206557708 0.0150147341 -0.0236204509 2.40881709e-05 0.0287956912 0.0342041329 -0.0597736873 0.0226977933 0.0263263788 -0.0990575179 0.0390077569 0.00785723515 -0.0637121946 0.0338170528 0.026286779 -0.0705316365 0.0361035094 0.0406221151 -0.00107928761 0.0463452823 0.0170588735 -0.0300206859 0.0418839604 0.0311064795 -0.0287436377 0.0498920344 0.0255136508 -0.000876050268 -0.109960519 0.0170622189 -0.215746075 -0.0778086632 -0.0170454197 -0.207399204 -0.125143781 0.0170917697 -0.192239061 -0.0266122594 -0.0414880961 -0.00160525541 -0.104970172 -0.0173418205 -0.17911756 -0.0758550316 -0.0173555017 -0.148695782 -0.0507991239 -0.0171724148 -0.179570436 0.0226299074 0.0154786101 -0.000298266765 -0.0149796195 0.0237316936 4.15014074e-06</float_array>
          <technique_common>
            <accessor source="#positions_array" count="132" stride="3">
              <param name="X" type="float" />
              <param name="Y" type="float" />
              <param name="Z" type="float" />
            </accessor>
          </technique_common>
        </source>
        <source id="normals">
          <float_array id="normals_array" count="804">-0.380492657 -0.924781084 -0.00228988519 -0.911416292 -0.336150587 -0.237325042 -0.496744245 -0.820911348 -0.281690747 -0.783077717 -0.256704658 0.566473305 -0.987521291 -0.06302277 0.144325614 -0.630235314 -0.55524838 0.542681098 -0.0891234577 -0.995864034 0.017659314 -0.117474876 0.0239292625 -0.99278754 0.290174484 -0.0164741185 -0.956831932 -0.294313818 -0.031690646 -0.955183268 -0.686543524 -0.303406417 -0.660759032 -0.51985538 -0.670871377 -0.528849602 -0.364858478 -0.397322088 0.842029393 -0.178340018 -0.715016007 0.675978541 -0.0741475672 -0.505464971 0.859655321 -0.0961009637 -0.253096491 0.962656081 -0.986278474 -0.0403465517 -0.160084113 -0.989349902 -0.0804745629 -0.121287555 -0.983295202 -0.0965209529 -0.154318795 -0.916078568 -0.390430599 -0.0914551318 -0.690965712 -0.722791851 -0.0117606986 -0.755745888 -0.654772341 0.0110142101 -0.991995156 -0.115184851 0.0517501645 -0.885740817 -0.463214606 0.0299246199 0.691123605 -0.121513821 -0.712448239 0.744852662 -0.0392646044 -0.666072667 -0.817402303 -0.356202483 0.452739805 -0.681854367 -0.227682412 0.695151269 -0.648051202 -0.510002077 0.565621376 -0.692631602 -0.67279011 0.260028839 -0.985705972 0.0656843036 -0.155142814 -0.999151587 -0.0176940858 -0.0371891074 -0.997290909 0.0155406287 -0.0718976781 0.431416988 -0.871593773 -0.232816964 0.162685841 -0.979586899 -0.118079551 0.602943361 -0.649721146 -0.462948918 -0.321484387 -0.160864756 0.933150768 -0.666360736 -0.134957701 0.733314216 -0.0568068288 -0.127263561 0.990240872 -0.955574274 -0.263065159 -0.132945716 -0.929589152 -0.296058476 -0.219575584 -0.989121854 -0.138453603 -0.049684424 -0.978643537 0.0146533344 -0.205041617 -0.678734064 -0.729828179 0.0816750973 0.755834758 -0.450261593 -0.475371808 0.861254215 -0.0188950673 -0.50782299 -0.0855044648 -0.995514929 -0.0404844321 -0.225718394 -0.973923743 0.0228848904 -0.80435878 -0.107182905 -0.584396064 -0.598288178 -0.040832676 -0.800239921 -0.820977807 -0.143684253 -0.552585125 -0.635370791 -0.70107311 -0.323729098 -0.562954366 -0.652513742 -0.507255554 -0.377094299 -0.627826989 -0.680906117 -0.640689015 -0.709686935 -0.293022186 -0.821324348 -0.143282771 -0.552174151 -0.115254179 0.991469026 0.0608735792 -0.104041129 0.988806427 0.106945343 -0.171650141 0.985073149 0.0129253734 -0.855084538 -0.279279739 0.436844736 -0.829059958 -0.295207053 0.4748815 -0.674999952 -0.135181278 0.725328207 -0.0557391532 0.994870961 0.0844091773 0.274175107 0.0535383672 -0.960188329 0.345078498 -0.0869268253 -0.934539735 0.308367342 -0.0123020029 -0.951187789 0.370201498 -0.140768692 -0.918223858 -0.929741204 0.0145222433 0.367927223 -0.928335965 0.0233553927 0.37100786 -0.927633941 0.0275828615 0.372470737 -0.930614948 0.00874622259 0.365895182 -0.529475451 -0.284062296 0.799352467 -0.839102328 -0.291391969 0.459345251 -0.0738457367 0.989389718 0.125119165 -0.150223449 0.979214132 0.136281103 -0.176560894 0.982997715 0.0504154153 -0.0454976037 0.995871544 0.0785481632 -0.808028758 -0.196501791 -0.55540669 -0.810129046 -0.19765161 -0.551928222 -0.808718801 -0.194851518 -0.554983556 -0.00754478574 0.999961555 -0.00446582772 0.0111691654 0.999933541 -0.00285102031 -0.00998404529 0.999932766 -0.00590128219 -0.00617977604 0.99146843 0.130200431 -0.194308996 0.980281651 -0.0359429494 -0.0747465491 0.995487154 -0.058466386 -0.402221084 -0.012118415 0.915462375 -0.472031623 0.26642558 0.840359211 -0.460952669 0.210419685 0.86211729 -0.4584952 0.0267158132 -0.888295233 -0.0917538404 0.0787644982 -0.992661774 -0.0577753149 -0.713029206 -0.6987499 -0.124836698 -0.670059323 -0.73173511 0.254949361 -0.0196189526 -0.966755331 -0.737747252 0.109880053 0.666074634 -0.846431196 -0.0403500609 0.530967116 -0.89926064 -0.152977198 0.409790605 -0.609015942 0.238191217 0.756547809 -0.0419649221 0.997871935 -0.0499055795 -0.328054428 0.935134411 -0.133805618 -0.164485991 0.981892347 -0.0939777792 -0.482117921 -0.851410091 0.206550717 -0.806399286 -0.249727488 -0.53605628 -0.800679743 -0.296131104 -0.520786285 -0.384003967 -0.067751579 0.92084235 -0.0980714113 -0.382011384 0.918939233 0.226688743 -0.104805224 0.968311965 0.017783463 0.991619051 0.127966434 0.0683924034 0.990939438 0.115591943 -0.107975654 -0.000769951206 0.994153261 -0.411135137 0.000734787434 0.911574125 0.491726577 -0.0184138622 -0.870554924 -0.0177406613 0.989844084 -0.141046047 0.0751793161 0.98899883 -0.127394825 0.0473457053 0.990406394 -0.129821256 0.333534092 -0.183785692 0.924650133 0.216348767 0.631283224 0.744764864 -0.0136058982 -0.1003609 -0.994858086 0.137204304 -0.135704994 -0.9812029 0.2060996 0.687957048 -0.695872128 0.0848165527 0.966620326 -0.241767094 0.175799742 0.757821441 -0.628331959 0.0734535605 0.983368814 -0.166103557 0.0792703852 0.593093097 0.801222086 0.111679994 0.530570328 0.840251565 0.215593398 0.293953687 0.931187809 0.247510314 0.207774311 0.946344793 0.363665104 -0.086583361 0.927497149 0.316665202 0.0727001056 0.945747256 0.747421086 -0.0628952459 -0.661366701 0.744576812 -0.110557608 -0.658317864 0.442461669 0.021066267 -0.896539927 -0.94666779 0.31995818 0.0380380787 -0.980507374 0.102611139 -0.167559594 -0.981461525 0.186147645 0.045632448 -0.0660246089 0.00543214334 0.997803211 -0.458569437 0.0402838439 0.887745023 -0.0584979504 0.00210177712 0.998285294 0.437465966 -0.648192525 -0.623273611 0.0947111771 0.989819109 -0.106244385 -0.901061058 0.0436425656 0.431490839 -0.893410146 0.0570093654 0.445609957 -0.952580094 0.0446726158 0.300990939 -0.15811196 0.983793318 0.0845653042 -0.256221145 0.962986887 0.0837077349 -0.0965079293 0.993054092 0.0673036352 -0.242282748 0.96228236 0.123740613 -0.99550432 0.0641449392 0.069688946 -0.990601122 0.0243547689 0.13459678 -0.985696793 0.0414291248 -0.163356766 0.667701125 0.225760847 -0.70937103 0.733192325 0.0278308168 -0.679451585 0.683316529 0.186607957 -0.705872476 0.743478537 -0.0169884283 -0.668543994 0.14272216 0.989108324 -0.0359876156 0.692318976 0.336900026 0.638116658 0.670975149 0.575570047 0.467452079 0.691482425 0.428637832 0.581482291 0.858068466 0.35514462 0.3709324 0.647494555 0.653871119 0.391412109 -0.049654074 0.998541176 0.0212121624 0.221791461 0.968356013 0.114433959 -0.0128020002 0.997091949 0.0751247555 0.993013859 0.0129720261 -0.117282763 -0.0137381153 0.999902189 0.00262532104 0.727961898 0.183692276 -0.660551727 0.906208932 0.125184208 -0.403874069 0.0916449353 0.990312517 -0.104318291 -0.0705245584 0.542375624 -0.83717078 0.775257885 -0.0355274305 -0.630644858 0.846559167 -0.0175201688 -0.532006204 0.141051233 0.989016771 -0.0441634692 0.991826296 0.111160733 0.0626407117 0.999408424 -0.0132352021 0.0317439176 0.986416042 0.147823498 0.0716354102 0.997902811 -0.0617077574 0.0195481014 0.17744875 0.983797967 0.0255637467 0.25926441 0.963157058 0.0714877397 0.928095698 0.277915984 -0.247792438 0.256542921 0.963846505 -0.072011508 0.538795769 -0.105468348 0.835808337 -0.911158502 0.158064529 -0.380533576 -0.913299322 0.18414776 -0.363282233 -0.908786356 0.136967286 -0.394141316 -0.906035841 0.117097966 -0.40667811 -0.377293706 0.912689447 0.156994894 -0.142696261 0.989763141 -0.00258830725 -0.228755608 0.965815067 0.121951289 -0.387112409 0.921944797 -0.0127196657 -0.279028237 0.959534228 -0.0379111804 -0.506118715 0.862445951 -0.0055533885 0.630515873 0.626518369 -0.458175212 0.77957195 0.330939889 -0.531738997 0.524128914 0.794305742 -0.307192653 -0.858620882 -0.502351165 0.102046505 0.0356472507 0.996010184 -0.081810683 0.831322968 0.377064139 -0.408319384 0.142223343 0.983709037 -0.109950192 0.758986294 -0.58878094 -0.277987123 0.415537536 -0.895087838 -0.161698356 0.300752521 -0.945825279 -0.12232136 0.851371467 -0.35157463 -0.389309466 0.0252354853 -0.995367467 -0.0927728936 0.0386104621 -0.997131526 -0.0650992692 0.77753526 -0.600918591 -0.185299024 0.947829306 -0.179900527 -0.263164252 0.973878443 -0.120904073 -0.192205712 0.0452463329 -0.0194581114 0.99878633 -0.00954532716 -0.0198932048 0.999756515 0.00609986065 -0.0624846518 0.998027265 0.464776546 0.866016924 -0.184384033 0.514930189 0.818964541 -0.253266573 0.925223649 0.15052481 -0.34828651 0.955330431 0.0518409945 -0.29095754 0.841575503 0.453190565 -0.293885976 0.451272488 0.886225522 -0.104677662 0.967069268 0.153655022 -0.202897027 0.787549317 0.588537216 -0.182729229 0.919424951 0.371189773 -0.129907325 -0.642068028 0.0023819413 -0.766644001 0.00765321637 -0.999021709 -0.0435553864 -0.00546728587 -0.999064684 -0.0428943075 0.0216422025 -0.997506142 -0.0671795309 0.00914178882 -0.999436319 -0.0323031768 -0.959963858 -0.00232434575 -0.280114323 -0.053018786 -0.998591244 -0.00212809956 -0.0190830529 -0.999605775 0.0205956046 -0.00634836266 -0.999859869 0.0154913366 -0.0819349289 0.989766657 -0.116827436 -0.108611427 0.992325068 -0.0591145456 -0.217536286 0.975573838 -0.0305549428 -0.787804008 -0.0539944917 0.613554716 -0.326239347 -0.943486035 -0.0583267584 -0.202883169 -0.976611435 -0.0711931512 -0.0305311456 -0.999531269 -0.00225577643 0.000798374414 -0.999707401 0.0241761506 -0.00161980931 -0.999967992 -0.00783729553 0.00979844946 0.00716391159 0.999926329 -0.00446842425 0.0112490831 0.999926746 -0.00275926571 -0.0164392777 0.999861062 -0.925107956 0.027808208 0.37868461 0.0285299364 0.0109407827 0.999533057 0.281745404 -0.0132915247 0.959397137 0.0041181976 0.0526005551 0.998607159 -0.00851746742 0.0386660844 0.999215901 -0.00596622005 -0.00273179146 0.999978483 0.0746505558 0.0911822096 0.993032277 -0.00735246902 -0.0701377988 0.997510195 -0.943919539 0.0178737231 0.32969135 -0.0120089008 -0.999243498 0.0369898863 -0.0342896022 -0.999380469 0.00792933907 0.0129851233 -0.999025166 -0.0421918035 -0.837355256 -0.539245009 0.0897276103 0.0427932702 0.998465419 -0.0351497419 -0.00737969996 0.999248385 0.0380559862 -0.029997712 0.998752415 0.0399221294 -0.00072766043 0.999813676 0.0192880649 -0.0240696371 0.999703407 -0.00370355253 -0.0124083208 0.999920547 0.00221661991 -0.059860047 0.99771744 -0.0312514603 -0.0284443405 0.999590456 -0.00313452398 -0.964251637 0.254864514 -0.072545886 -0.00510541024 0.996943891 0.0779536813 0.0109653147 0.0295160972 0.999504149 -0.0657052696 0.990934134 -0.117185175 -0.0807757452 0.992469728 -0.0920821056 -0.0918468907 0.995169461 -0.0346679315 -0.0224208049 0.990004301 -0.139243647</float_array>
          <technique_common>
            <accessor source="#normals_array" count="268" stride="3">
              <param name="X" type="float" />
              <param name="Y" type="float" />
              <param name="Z" type="float" />
            </accessor>
          </technique_common>
        </source>
        <vertices id="vertices">
          <input semantic="POSITION" source="#positions" />
        </vertices>
        <triangles material="scout_b2b2b2" count="260">
          <input semantic="VERTEX" source="#vertices" offset="0" />
          <input semantic="NORMAL" source="#normals" offset="1" />
          <p>0 0 1 1 2 2 3 3 0 4 4 5 4 6 0 0 2 2 5 7 6 8 7 9 2 2 8 10 7 11 1 1 8 10 2 2 9 12 3 3 4 5 9 12 4 5 10 13 11 14 9 12 10 13 12 15 9 12 11 14 13 16 14 17 15 18 16 19 14 20 17 21 18 22 16 19 19 23 19 23 16 19 17 21 20 24 6 8 21 25 22 26 12 27 11 28 22 26 11 28 23 29 24 30 23 31 25 32 25 32 16 19 18 22 26 33 13 34 27 35 28 36 29 37 30 38 31 39 20 40 27 41 32 42 27 41 13 16 24 43 22 26 23 29 26 33 27 35 33 44 33 44 27 35 20 24 21 25 34 45 33 44 35 46 14 47 13 34 36 48 37 49 38 50 36 51 39 52 40 53 41 54 38 54 37 54 42 55 36 48 38 50 43 56 29 57 41 58 44 59 41 60 29 37 45 61 44 59 29 37 46 62 29 57 43 56 47 63 48 64 49 65 48 64 50 66 49 65 51 67 47 68 49 69 52 70 47 68 51 67 53 71 44 59 45 61 53 71 54 72 44 59 53 73 51 74 54 75 29 57 46 62 30 76 28 36 45 61 29 37 48 77 55 78 50 79 52 80 48 81 47 82 53 73 56 83 51 74 53 71 45 61 28 36 49 84 36 85 54 75 57 86 52 87 51 88 40 89 58 90 37 49 59 91 40 53 60 92 40 89 59 93 58 90 61 94 62 95 60 96 63 97 62 95 61 94 50 98 63 99 61 100 63 101 64 101 62 101 55 78 63 102 50 79 55 78 64 103 63 102 57 86 51 88 56 104 65 105 53 71 28 36 66 106 65 105 28 36 65 107 67 108 56 83 68 109 46 110 12 15 59 93 69 111 58 90 58 112 69 113 70 114 71 115 66 106 30 38 46 116 71 116 30 116 72 117 73 117 62 117 60 118 74 118 59 118 62 119 73 120 60 121 60 121 73 120 74 122 67 123 75 124 56 125 75 124 57 126 56 125 67 127 65 128 66 106 69 111 76 129 77 130 6 8 70 131 21 25 78 132 79 133 80 134 78 135 80 136 18 137 59 93 76 129 69 111 76 138 59 138 74 138 69 113 77 139 70 114 67 140 71 141 81 142 68 143 81 144 71 145 82 146 81 144 68 143 83 147 82 148 84 149 72 150 85 151 73 152 85 151 86 153 73 152 73 120 86 154 74 122 87 155 75 156 88 157 88 158 89 158 90 158 75 156 67 159 88 157 67 160 91 161 88 162 88 163 91 163 89 163 67 160 92 164 91 161 70 131 93 165 21 25 76 129 94 166 77 130 77 139 93 167 70 114 94 168 93 168 77 168 74 169 95 170 76 129 86 154 95 171 74 122 95 170 94 166 76 129 85 172 88 173 86 174 88 173 85 172 87 175 88 176 96 177 86 154 95 170 97 178 94 166 96 177 97 179 95 171 96 180 88 180 90 180 96 181 90 182 89 183 91 184 96 181 89 183 92 164 96 177 91 161 83 185 98 186 92 164 98 186 83 185 84 187 84 187 79 188 98 186 79 188 99 189 98 186 78 190 99 189 79 188 94 191 100 192 93 165 97 179 101 193 94 191 44 59 54 72 42 194 99 189 102 195 98 186 100 192 101 193 103 196 104 197 101 193 97 179 105 198 106 199 26 33 107 200 26 33 106 199 108 201 26 33 33 44 105 198 26 33 108 201 109 202 110 203 107 200 105 198 111 204 106 199 111 204 107 200 106 199 108 201 112 205 105 198 112 205 111 204 105 198 112 205 113 206 111 204 111 207 114 208 107 209 104 197 115 210 101 193 101 193 115 210 116 211 116 212 117 213 103 196 116 212 118 214 117 213 119 215 115 210 104 197 104 197 102 195 119 215 117 213 118 214 120 216 118 214 115 210 121 217 118 214 121 217 120 216 120 216 122 218 113 206 119 215 121 217 115 210 119 215 122 218 121 217 121 217 122 218 120 216 7 9 8 10 123 219 124 220 7 221 20 222 7 221 6 223 20 222 125 224 123 219 1 1 113 206 117 213 120 216 23 31 14 17 25 32 23 225 11 226 15 227 39 228 61 100 60 229 61 100 39 228 36 85 61 100 36 85 50 98 42 230 54 75 36 85 50 98 36 85 49 84 14 17 23 31 15 18 68 231 22 26 82 148 17 232 14 47 35 46 31 39 27 41 32 42 35 46 126 233 17 232 25 32 79 133 84 149 32 42 13 16 15 18 97 179 96 177 92 164 13 34 26 33 110 203 127 234 124 220 128 235 128 235 124 220 129 236 20 24 21 25 33 44 22 26 24 30 82 148 56 83 53 73 65 107 110 203 35 46 13 34 130 237 131 238 126 239 130 237 126 239 114 208 25 32 80 134 79 133 125 224 1 1 43 240 1 1 0 4 43 240 0 4 3 3 43 240 8 10 1 1 123 219 80 134 25 32 18 22 46 110 3 3 9 12 36 48 40 89 37 49 6 8 5 7 70 131 9 12 12 15 46 110 122 241 111 207 113 242 102 243 99 244 131 238 99 244 78 135 131 238 131 238 78 135 18 137 19 245 131 238 18 137 131 238 19 245 126 239 126 239 19 245 17 246 114 208 126 239 109 247 24 30 25 32 84 149 83 147 81 142 82 148 92 248 81 142 83 147 71 115 67 127 66 106 10 249 4 6 128 235 4 6 2 2 127 234 11 226 10 249 128 235 15 227 11 226 128 235 2 2 7 221 124 220 32 250 15 227 129 236 31 251 32 250 129 236 20 222 31 251 124 220 129 236 124 220 31 251 127 234 128 235 4 6 124 220 127 234 2 2 128 235 129 236 15 227 96 177 95 171 86 154 16 19 25 32 14 17 101 193 100 192 94 191 104 197 97 179 92 164 92 164 98 186 104 197 39 52 60 92 40 53 3 3 46 110 43 240 38 252 44 59 42 194 34 45 21 25 100 192 123 219 5 7 7 9 34 45 100 192 103 196 35 46 109 202 126 233 51 74 49 84 54 75 52 80 57 253 48 81 75 254 87 255 55 256 48 81 75 254 55 256 48 81 57 253 75 254 64 257 55 256 85 258 87 255 85 258 55 256 62 259 64 257 72 260 64 257 85 258 72 260 100 192 21 25 93 165 103 196 117 213 108 201 41 261 44 261 38 261 110 203 26 33 107 200 110 203 109 202 35 46 103 196 101 193 116 211 46 262 68 143 71 145 33 44 34 45 108 201 67 140 81 142 92 248 117 213 113 206 112 205 122 241 130 237 111 207 102 243 131 238 119 263 131 238 130 237 119 263 119 263 130 237 122 241 130 237 114 208 111 207 114 208 109 247 107 209 98 186 102 195 104 197 30 38 66 106 28 36 108 201 34 45 103 196 112 205 108 201 117 213 68 231 12 27 22 26 24 30 84 149 82 148 118 214 116 211 115 210 37 264 58 112 123 265 41 58 37 264 125 266 5 267 58 112 70 114 5 267 123 265 58 112 125 266 43 56 41 58 123 265 125 266 37 264</p>
        </triangles>
      </mesh>
    </geometry>
  </library_geometries>
  <library_visual_scenes>
    <visual_scene id="scene">
      <node id="right_hip_yaw_link">
        <instance_geometry url="#geometry">
          <bind_material>
            <technique_common>
              <instance_material symbol="scout_b2b2b2" target="#scout_b2b2b2" />
            </technique_common>
          </bind_material>
        </instance_geometry>
      </node>
    </visual_scene>
  </library_visual_scenes>
  <scene>
    <instance_visual_scene url="#scene" />
  </scene>
</COLLADA>