<?xml version='1.0' encoding='utf-8'?>
<COLLADA xmlns="http://www.collada.org/2005/11/COLLADASchema" version="1.4.1">
  <asset>
    <created>2026-09-14T00:00:00Z</created>
    <modified>2026-09-14T00:00:00Z</modified>
    <unit name="metre" meter="1" />
    <up_axis>Z_UP</up_axis>
  </asset>
  <library_effects>
    <effect id="scout_b2b2b2_effect">
      <profile_COMMON>
        <technique sid="common">
          <lambert>
            <emission>
              <color>0 0 0 1</color>
            </emission>
            <ambient>
              <color>0.35 0.35 0.35 1</color>
            </ambient>
            <diffuse>
              <color>0.7 0.7 0.7 1</color>
            </diffuse>
          </lambert>
        </technique>
      </profile_COMMON>
    </effect>
  </library_effects>
  <library_materials>
    <material id="scout_b2b2b2" name="scout_b2b2b2">
      <instance_effect url="#scout_b2b2b2_effect" />
    </material>
  </library_materials>
  <library_geometries>
    <geometry id="geometry" name="right_hand_index_0_link">
      <mesh>
        <source id="positions">
          <float_array id="positions_array" count="138">0.0546159707 -0.00571413711 -0.0110518364 0.0548100583 -0.0100936741 0.0119609162 0.0538939498 -0.0116261467 -0.0129085314 0.0132867973 -0.00551637495 0.00925583299 -0.00367035926 -0.00439469283 0.012722522 -0.00437474763 -0.00412704889 0.00954600982 0.0411959328 -0.00582996476 -0.00959152542 0.041273769 -0.00616379036 -0.0127350455 0.0208096579 0.0143312886 -0.0100046657 0.0216946024 0.0144823026 0.00879820064 0.0413016789 0.0145561406 -0.00948636234 0.0196411833 -0.00519821607 -0.00913565233 0.0131572466 -0.00645957701 -0.0091291219 0.0188879035 -0.0125302104 -0.011872584 0.0186930075 -0.0125033185 0.0116437096 0.0184032395 -0.00737773068 0.0119781271 -0.00302529032 0.00648114877 -0.00962515734 0.00454393448 0.00650764676 -0.0108938767 -0.00499685714 0.00552122574 -0.0129045229 0.0397579409 -0.00693089701 0.0126127983 0.0377831273 -0.00244128378 0.00976955984 0.0376748629 0.00720334146 0.0127136167 0.0199957788 0.0125282006 0.00850087684 0.0197975226 0.0090820957 -0.0102593619 0.019833805 0.00794144813 0.00954079442 -0.00438236119 0.00401471788 0.0127102351 0.0190201066 0.00693369983 0.0126077738 0.0184246153 0.00591381826 -0.0096638063 0.0184253007 0.00592496665 -0.0128340973 0.0387960002 0.00812211074 -0.0128611177 0.0390168242 0.00865133107 -0.00993940979 0.0436270423 0.0132726338 -0.0102309454 0.0435791239 0.0135650449 0.00900700875 0.0444364361 0.00912738964 -0.00964401755 0.0441788025 0.00938956439 0.00911448058 0.0527214259 0.00673452625 0.0094425194 0.0196556132 -0.005197627 0.00910417829 0.0529329106 0.00648696721 -0.00940619875 -0.00545014907 -0.00529570132 -0.0129052605 -0.00744486647 5.8545811e-05 -0.00957308244 -0.00336605776 -0.00632983306 -0.00958967302 0.013485563 -0.0059945914 0.0126706408 0.0182842389 -0.00772160944 -0.0117577678 -0.00382475741 0.00444747601 0.00962800905 0.0382338203 0.00756058237 0.0097100772 0.0413612388 -0.00730459765 0.00962363556</float_array>
          <technique_common>
            <accessor source="#positions_array" count="46" stride="3">
              <param name="X" type="float" />
              <param name="Y" type="float" />
              <param name="Z" type="float" />
            </accessor>
          </technique_common>
        </source>
        <source id="normals">
          <float_array id="normals_array" count="378">0.999931097 0.00724475319 -0.00923385937 0.996290147 0.0856941491 0.00790575147 0.993266702 -0.111981608 -0.0296882745 -0.0909558684 -0.987947524 -0.125246421 -0.0808106959 -0.994003832 -0.0736618191 -0.0793307498 -0.994646788 -0.0662145913 -0.0201228466 0.994154751 -0.106072515 -0.0107814232 0.999913573 -0.00752346404 0.0136020007 0.999734044 0.0186229702 0.256022394 0.966653883 0.00572539819 -0.0813876018 0.996623158 -0.0108790947 -0.161221445 0.986161411 -0.0386432968 -0.190775022 0.980412364 -0.0489537455 -0.993317425 -0.115317456 0.00472723693 -0.998402178 -0.0559074022 -0.00821052957 -0.997856855 -0.0651398972 -0.00620493898 -0.0461213961 0.96584332 -0.254989326 0.0423369221 -0.998370767 0.0382542834 0.0665547401 -0.997781336 0.0016926761 0.0516730435 -0.998371243 0.0241828375 0.901204705 0.135753736 -0.411583453 -0.937351942 0.348086596 0.0143906185 -0.972583234 0.231675878 -0.0202011801 -0.995592892 0.093297869 -0.00950368121 -0.0571889654 0.957972646 0.281101048 -0.142401621 0.981498897 0.127990887 -0.0751805753 0.953084886 0.293218553 -0.756616771 0.653153241 0.0303639192 -0.917473912 0.397794187 0.00120040076 0.984980106 0.148970068 -0.0873044431 0.985773504 0.167935193 -0.00695590768 0.985261619 0.170940131 0.00624291785 0.0302121863 -0.0613808371 -0.997657061 -0.0044422159 0.0320381708 -0.99947679 0.0352745615 0.0499886386 -0.998126686 -0.999729693 0.0231060646 0.00257951953 0.0816495717 0.995719731 0.0433075204 0.480217099 0.877065718 -0.0121349096 0.297022611 0.954825878 -0.00922424998 0.297106355 0.954799473 -0.00926411338 0.297073275 0.954809904 -0.00924836379 -0.999925911 0.0120313801 0.00184830441 -0.99990809 0.0135342106 0.000790611084 0.990745842 0.135408521 0.00933783874 0.991606355 0.128580078 0.0135645736 -0.831787527 0.0348946042 -0.553996325 0.00806989428 0.00255509699 0.999964178 0.0302999392 0.0566607378 0.997933626 0.12400189 -0.000549948134 0.992281854 0.0187171102 0.0671042576 0.997570395 -0.0400263928 0.0810404271 0.99590677 0.00991637446 0.0485571325 0.998771191 0.127241001 0.0725843832 0.989212453 0.0250365585 0.983346224 -0.18000941 0.989842832 0.142165601 0.000304618588 0.988799632 0.149238616 0.00175397051 0.982590139 0.185557574 0.00922051258 -0.0924290046 -0.986821473 -0.132816613 -0.965871334 -0.258244693 0.020054929 -0.049985528 0.998749971 7.35835647e-06 -0.992169201 -0.124716893 0.00678114314 -0.015689332 0.0257117487 -0.999546289 -0.025469603 0.0335462838 -0.999112606 -0.0182056669 0.0300181545 -0.999383569 -0.00514718378 0.00989267789 -0.999937832 -0.00824210141 0.0161009356 -0.999836385 0.027558336 -0.997789562 0.0604693145 0.0176574346 0.0782362223 0.996778488 0.0540508032 0.145985633 0.987809062 0.0413429812 0.0798126832 0.995952129 -0.0927950442 0.139310554 0.985891283 -0.0740487278 0.133270442 0.988309562 -0.781572461 0.54034996 0.311715364 0.762323797 0.550665379 0.34004423 0.0158848912 0.989887893 0.14095971 0.0194223542 0.992383182 0.121648781 -0.0250366125 -0.037156567 -0.998995781 -0.0195265748 0.00603148062 -0.999791145 -0.0341093801 -0.0065353089 -0.999396741 -0.0649820417 -0.0777938217 -0.994849443 -0.0414540805 0.0104161128 -0.999086142 0.0763816237 0.207445994 -0.97525996 0.110479154 0.285485715 -0.951993823 0.120735966 0.0665516257 -0.990451276 0.0464210138 0.0366765074 -0.998248398 -0.070978947 0.648758709 -0.75767684 0.207057431 -0.00861018896 -0.978290915 -0.792257786 -0.506718516 0.339947045 0.0424299836 0.999093235 0.00352257863 0.24981536 0.0732413083 0.965519547 -0.144778401 0.983122766 0.111842856 0.29698962 0.954836309 -0.00920853298 -0.995709598 0.0327094756 -0.0865594223 -0.98351711 0.0646998063 -0.168843374 -0.990570903 -0.0504317284 0.127380878 -0.0510523692 0.0591814741 0.996940911 -0.143767342 0.1289915 0.981168747 -0.0459524393 0.0789557621 0.995818436 0.0459956266 0.00386818126 0.99893415 -0.403841227 0.215819016 0.889007568 -0.974422574 -0.0821961313 0.209151685 0.984186471 0.145677522 -0.100772277 -0.0282936823 0.0491482057 -0.998390675 -0.108427085 0.118173398 -0.98705554 -0.032376904 0.0458750986 -0.998422384 0.0544963777 -0.000833255937 -0.998513639 -0.00673478376 0.0680862591 -0.997656703 0.205103695 0.978662491 -0.0123392129 0.0568057783 -0.0196871199 0.998191118 0.0185977928 -0.0531779081 0.998411834 0.00564686069 -0.0208294857 0.999767125 -0.0242739394 -0.0815170705 0.996376276 -0.00439353334 -0.124914147 0.992157817 0.00370609621 -0.184917167 0.982747138 0.00318543264 0.00173079094 0.999993443 0.00350033585 0.00229291175 0.999991238 -0.00555852288 -0.00795179978 0.999952912 -0.194009125 -0.97680968 0.0905720517 -0.262331545 -0.964698017 0.0232360028 -0.162534282 -0.978447199 0.12737222 -0.267463088 -0.96325469 0.024574168 0.00081742357 -0.954496443 -0.298221231 -0.0173602793 -0.976373494 -0.215391308 0.98111999 0.193099484 0.0107761491 0.015815204 0.523014963 -0.852176726 0.983113587 -0.0432429351 0.177813604</float_array>
          <technique_common>
            <accessor source="#normals_array" count="126" stride="3">
              <param name="X" type="float" />
              <param name="Y" type="float" />
              <param name="Z" type="float" />
            </accessor>
          </technique_common>
        </source>
        <vertices id="vertices">
          <input semantic="POSITION" source="#positions" />
        </vertices>
        <triangles material="scout_b2b2b2" count="88">
          <input semantic="VERTEX" source="#vertices" offset="0" />
          <input semantic="NORMAL" source="#normals" offset="1" />
          <p>0 0 1 1 2 2 3 3 4 4 5 5 6 6 0 6 7 6 8 7 9 8 10 9 3 10 11 11 12 12 13 13 14 14 15 15 16 16 17 16 18 16 1 17 14 18 13 19 19 20 20 20 21 20 22 21 8 22 23 23 24 24 25 25 26 26 22 21 9 27 8 22 27 28 23 28 28 28 29 29 6 30 7 31 30 32 23 33 31 34 22 21 23 23 24 35 10 9 32 36 31 37 33 38 34 39 35 40 24 35 23 23 11 41 11 41 36 42 24 35 0 0 37 43 35 44 0 0 35 44 1 1 18 45 38 45 39 45 39 46 40 47 16 48 16 48 40 47 17 49 40 47 12 50 17 49 12 50 11 51 27 52 17 49 12 50 27 52 23 53 30 53 29 53 32 54 34 55 31 56 3 3 41 57 4 4 12 58 41 58 3 58 3 10 36 59 11 11 15 15 42 60 13 13 24 61 36 62 3 63 43 64 24 61 5 65 24 61 3 63 5 65 2 66 1 17 13 19 44 67 34 68 32 69 32 69 9 70 44 67 44 67 9 70 24 71 39 72 16 72 18 72 45 73 20 73 19 73 26 26 21 74 24 24 21 74 44 75 24 24 29 76 7 77 42 78 42 78 28 79 29 76 42 78 7 77 13 80 2 81 13 80 7 77 0 82 2 81 7 77 42 78 38 83 17 84 23 85 29 85 28 85 28 79 42 78 17 84 17 84 38 83 18 86 40 87 39 87 38 87 17 88 27 88 28 88 11 51 23 89 27 52 24 24 43 90 25 25 37 91 33 38 35 40 25 92 43 93 5 94 45 95 1 96 35 97 45 95 35 97 44 67 20 98 45 95 44 67 35 97 34 68 44 67 9 70 22 99 24 71 4 100 25 92 5 94 29 29 30 101 6 30 37 102 0 103 6 104 6 104 30 32 37 102 37 102 30 32 33 105 31 34 33 105 30 32 8 106 31 34 23 33 45 107 19 107 1 107 41 108 15 109 26 110 15 109 14 111 19 112 14 111 1 113 19 112 4 114 41 108 25 115 41 108 26 110 25 115 15 109 19 112 26 110 19 112 21 116 26 110 42 117 15 118 12 119 12 119 15 118 41 120 40 121 38 122 12 119 38 122 42 117 12 119 34 55 33 123 31 56 10 9 9 8 32 36 31 34 8 106 10 124 20 125 44 125 21 125</p>
        </triangles>
      </mesh>
    </geometry>
  </library_geometries>
  <library_visual_scenes>
    <visual_scene id="scene">
      <node id="right_hand_index_0_link">
        <instance_geometry url="#geometry">
          <bind_material>
            <technique_common>
              <instance_material symbol="scout_b2b2b2" target="#scout_b2b2b2" />
            </technique_common>
          </bind_material>
        </instance_geometry>
      </node>
    </visual_scene>
  </library_visual_scenes>
  <scene>
    <instance_visual_scene url="#scene" />
  </scene>
</COLLADA>