<?xml version='1.0' encoding='utf-8'?>
<COLLADA xmlns="http://www.collada.org/2005/11/COLLADASchema" version="1.4.1">
  <asset>
    <created>2026-09-14T00:00:00Z</created>
    <modified>2026-09-14T00:00:00Z</modified>
    <unit name="metre" meter="1" />
    <up_axis>Z_UP</up_axis>
  </asset>
  <library_effects>
    <effect id="scout_b2b2b2_effect">
      <profile_COMMON>
        <technique sid="common">
          <lambert>
            <emission>
              <color>0 0 0 1</color>
            </emission>
            <ambient>
              <color>0.35 0.35 0.35 1</color>
            </ambient>
            <diffuse>
              <color>0.7 0.7 0.7 1</color>
            </diffuse>
          </lambert>
        </technique>
      </profile_COMMON>
    </effect>
  </library_effects>
  <library_materials>
    <material id="scout_b2b2b2" name="scout_b2b2b2">
      <instance_effect url="#scout_b2b2b2_effect" />
    </material>
  </library_materials>
  <library_geometries>
    <geometry id="geometry" name="right_hip_roll_link">
      <mesh>
        <source id="positions">
          <float_array id="positions_array" count="279">-0.0199336819 -0.0289741009 -0.0979151055 -0.0278020557 0.007486986 -0.123698458 -0.0155789237 -0.0385528207 -0.123506285 0.00131275365 -0.0444203913 -0.0859207511 0.0342764556 0.0359493457 -0.0674024522 0.0346918553 0.0367341265 -0.0630678087 0.0325638652 0.0392902531 -0.0727275014 -0.0149108646 -0.0185984094 -0.0734124929 -0.0142339719 0.0226601735 -0.0735256523 -0.0121551733 -0.0203223675 -0.0786572844 0.00109444035 -0.0253042877 -0.0708456561 0.00493628159 -0.0370118469 -0.0753984302 -0.0213060509 0.0286093801 -0.0989700928 -0.0142267561 0.0391530469 -0.12356817 -0.00617669988 0.0279815365 -0.0902119055 -0.0143489987 0.0171463843 -0.0788549185 0.0217050891 0.0469455384 -0.0797118619 0.00173908519 0.0378366411 -0.0752298534 -0.000745114347 0.0439273268 -0.0878661647 0.0222224109 -0.0405957997 -0.0783349574 -0.00260381727 -0.0285810009 -0.0885008648 0.00496229483 -0.0286552794 -0.0676357448 0.0040704282 -0.0262624323 -0.0726927891 0.00156205869 -0.0265769809 -0.0631766096 0.00691761542 -0.0298040397 -0.0706583112 0.0105169099 -0.030650083 -0.0671027526 0.0102324625 -0.0313733369 -0.0696992278 0.0142501006 -0.0320138671 -0.0725469589 0.012145021 -0.0325430371 -0.0712756887 0.013344802 -0.0338732414 -0.0720378608 0.00997172762 -0.0317174979 -0.0631321147 0.0283301864 -0.0342213064 -0.0706475228 0.0175464377 -0.0341549143 -0.071568355 0.0224068779 -0.03531247 -0.063384831 0.0158972591 -0.033233352 -0.0675196573 0.0233829878 -0.0473940708 -0.075589411 0.0338680446 -0.0483112857 -0.0532592349 0.0261730775 -0.0454983711 -0.0798193514 0.0236414205 -0.0392503627 -0.122525983 0.0255333539 -0.0444341302 -0.123830646 0.0351668149 -0.0422566123 -0.121777974 0.0330422968 -0.0337807275 -0.0683358237 0.0343846418 -0.0373772681 -0.0722684786 0.0344527103 -0.0338613018 -0.0660180598 0.0348088406 0.0167081412 -0.0230409615 0.0352139175 0.0487344638 -0.00963669177 0.0527968146 -0.0476657636 -0.0161072202 0.0353155918 -0.0452108197 0.0088603599 0.0617105216 -0.0459957272 -0.0558683313 0.0659932345 -0.0388707072 -0.123191699 0.0726894736 -0.0335347317 -0.0151825659 0.0655578598 -0.0381512828 0.0130114257 0.0755460784 -0.0247073341 -0.123209529 0.0765629858 -0.0304468442 -0.0717985556 0.0134399524 0.0363409854 -0.0633034334 0.0169452522 0.0352844596 -0.0672487691 0.0353709757 -0.023749806 0.0417257585 0.0686872378 -0.0144804316 0.0294165518 0.00558332074 0.0310490578 -0.067266427 0.000436777336 0.0280006826 -0.063347213 0.00314218714 0.0304854419 -0.0713767782 0.00157254713 0.0271911845 -0.0675995871 0.003967728 0.0301380046 -0.0725469738 0.0143969543 0.0357961282 -0.0698709637 0.0176543724 0.0366944 -0.0707322359 0.0195785966 0.0377788208 -0.0718500912 0.0250870734 0.0427098498 -0.108374931 0.0348617248 0.0433414876 -0.104345821 0.0316318758 0.0366555825 -0.070789434 0.0317100585 0.0482913367 -0.0578620732 0.0610880964 0.0465957895 -0.0587172881 0.0666290075 0.0391506106 0.0106816916 0.0737909228 0.0364314876 -0.0479785837 0.0751702115 0.0278137885 -0.123239368 0.0807939768 0.00703430036 -0.0912711695 -0.0164606161 -0.00357122906 -0.0955861062 0.0764833316 0.0235217847 -0.0261385981 0.0608982183 0.0408278145 -0.123236857 0.0353262052 0.0398871042 0.0236515738 0.0353152566 0.0178853087 0.0442943573 0.0684631839 0.0187517162 0.0282105934 -0.00710135465 -0.0261143092 -0.122088477 -0.0113248164 0.0186708346 -0.122817874 0.00456159143 0.0343049355 -0.122310363 0.0272436403 0.0448423922 -0.12312711 0.0789182335 -0.00933051016 -0.0348759666 0.0343893543 -0.0177734643 -0.0211154707 0.0346101783 -0.0179836601 0.0210503712 0.03468851 0.0174005795 0.0224817675 0.0002899479 -0.0196711738 -0.123012446 9.35849093e-05 0.0205136351 -0.123012826 0.0496079847 -0.0218873974 -0.12263409 0.0491801165 0.0217612293 -0.122581564</float_array>
          <technique_common>
            <accessor source="#positions_array" count="93" stride="3">
              <param name="X" type="float" />
              <param name="Y" type="float" />
              <param name="Z" type="float" />
            </accessor>
          </technique_common>
        </source>
        <source id="normals">
          <float_array id="normals_array" count="798">-0.981962442 -0.18529132 0.0376415327 -0.992969751 0.0501035601 0.107241586 -0.964199543 -0.25627026 -0.0681529269 -0.640730858 -0.748454452 0.171113864 -0.964835167 -0.141068697 0.221794412 -0.953712106 -0.266345173 0.139619172 -0.965223312 -0.0596634336 0.25452736 -0.883375943 0.0132078119 -0.468478888 -0.99880743 -0.0465468056 -0.0147350226 -0.980726659 -0.0185227133 -0.194504872 -0.154300362 -0.184799641 0.97058773 -0.187528759 -0.0726308525 0.97957015 -0.316513002 -0.432226807 0.844393015 -0.681616962 -0.721647382 -0.120927036 -0.872779071 0.477319211 0.102093451 -0.825105071 0.564959764 0.00469900435 -0.609152019 0.744845271 0.272285342 -0.596799612 0.564041674 -0.570690095 -0.405007005 0.453973025 -0.793648422 -0.551182926 0.540024459 -0.636058927 -0.639111221 0.756225824 0.140211582 -0.383114338 0.440178454 -0.812075317 -0.235042259 -0.412552685 -0.880088329 -0.496864825 -0.839005291 0.221800491 0.461015582 0.830806971 0.311808318 -0.949462175 -0.313827604 0.00581296301 -0.989845335 -0.137083992 0.0376062281 -0.984926045 -0.171323597 0.0238509849 0.986419201 0.110126816 -0.12185742 -0.733780682 -0.220822826 0.642497599 -0.858260393 -0.0956679806 0.504218876 -0.850858033 -0.104699418 0.514857888 0.419053525 0.882318497 -0.214262083 0.420334131 0.906838715 0.0310273822 0.406320423 0.865554094 0.292779535 0.362896502 0.809132993 0.462179601 0.367912441 0.667598486 0.647265494 -0.0155019704 -0.664368391 0.747244537 -0.0498163775 -0.694695175 0.717577159 -0.0989344269 -0.590609848 0.800869524 0.0862694383 -0.747153461 0.659029007 0.54341048 -0.207695723 0.813368022 0.477305025 -0.598859847 0.643076003 -0.138737559 -0.720357299 -0.679586112 -0.0680652559 -0.649942517 -0.756929219 -0.234178692 -0.799771965 -0.552743256 -0.519257367 -0.854610741 -0.0035121867 -0.518872917 -0.85484159 -0.00409692572 -0.516079843 -0.85649997 -0.00833233912 -0.926029265 0.00636271434 0.377398014 0.346117496 0.929243624 -0.129263178 0.762953281 -0.646211684 -0.0176859032 0.786403716 -0.615043521 -0.0573641434 0.743950605 -0.66812849 0.0119054494 0.648911536 -0.748360395 0.137369826 0.0757024735 -0.396099001 -0.915081799 -0.0840006247 -0.993819654 -0.0725700334 -0.245975718 -0.966749907 0.0699322596 -0.1750945 -0.983922839 -0.0351812281 0.109103061 0.547257662 0.8298226 -0.0360137671 0.369039237 0.928715825 -0.0858684033 0.301784337 0.949501336 -0.873546779 -0.436422408 -0.215526059 -0.737030923 -0.67559433 0.0189120192 -0.811808765 -0.577225983 -0.088185221 -0.879347146 -0.415585637 -0.232458919 0.43631196 0.896700859 0.0745616555 -0.486783147 0.708300173 -0.511227012 0.788254619 -0.486836284 -0.376357734 -0.196592107 -0.977814436 0.0723217204 -0.103766985 -0.974957645 0.196697876 -0.332704604 0.922834158 0.194125727 -0.0855642334 0.987891972 0.129414693 -0.0524965972 0.992382348 0.111451276 0.941854537 0.333583444 0.0403999723 0.797544241 0.603218138 0.00714966794 0.930238903 0.36509493 0.0368961357 -0.195586547 0.980103791 0.033800099 -0.225830942 0.973796964 0.0268299878 0.691274464 0.368934572 0.621310592 -0.229980126 -0.755977929 0.612867475 -0.125615045 -0.633232296 0.763700008 -0.15072979 -0.726203322 0.670752764 0.0792018697 -0.99325937 -0.0846339986 0.105540209 -0.991196632 -0.0799407661 0.0986854881 -0.990622699 -0.0944875479 0.145587876 0.58785814 0.795755625 0.0711741671 0.953595281 -0.292558223 0.117044307 0.75243938 -0.648178637 0.0367067121 0.957294106 -0.286776304 0.0222336017 0.981322289 -0.191081688 0.032614857 0.999357045 0.0148933148 -0.999943435 0.0104656415 0.00188515394 -0.999914944 0.0113953482 0.0063409023 -0.999709189 0.023891611 0.00326973526 0.215739697 -0.972919106 0.0829743668 0.110741124 -0.935223341 0.336294025 0.0594062209 -0.997322857 -0.0426385365 0.428003907 -0.90347755 -0.0232595131 0.196316063 -0.971318424 -0.134165972 0.104207277 -0.989704251 -0.0981140733 0.880787015 -0.464077324 0.0940555185 0.60556525 -0.697463393 0.383191228 0.947306275 -0.306825846 -0.0920258313 0.901535511 -0.432528704 -0.0123543842 0.802896976 -0.592220187 -0.0680564046 0.205171257 0.975536585 -0.0789502561 0.191420987 0.980167985 -0.0512713641 0.119696759 0.986291528 0.113585576 0.336811006 -0.426741481 0.839315236 0.982919514 -0.0800563917 0.165711179 -0.572048724 0.815336049 0.0893724486 -0.52312845 0.851906359 -0.0243346971 -0.578797698 0.813137054 0.0616553202 -0.481177837 0.454129905 0.749822557 -0.349309325 0.571802795 0.742310286 -0.406437755 0.765536487 0.49876076 0.540433943 -0.811628044 -0.221790627 0.498522073 -0.829262614 -0.252585232 0.373449743 -0.865221441 -0.334555089 0.423523396 -0.887079477 -0.183624536 0.437704533 -0.888445735 -0.138126656 0.334023684 -0.847027957 -0.413487345 0.342848182 -0.835260928 0.429877132 0.323802769 -0.82003504 0.471904963 0.240044132 -0.666087866 0.706191063 -0.968690991 0.0490398891 -0.243377939 -0.950967729 0.132880822 -0.279290259 -0.95845896 0.0851878449 -0.272212088 0.779667914 0.473879188 0.409336656 -0.50618577 0.862403035 0.00607810635 -0.62841624 0.728265882 0.273352951 -0.0985790789 0.990561306 -0.0952387229 -0.0162273031 0.997902989 -0.0626599863 -0.125095323 0.989432335 -0.0733129233 -0.678940952 0.234990761 0.695570648 -0.496187776 0.326878011 0.804331064 0.229552135 -0.673641443 0.702504814 0.0300136656 0.955644369 0.29298982 -0.090593949 0.840581298 0.534056008 -0.0802380741 0.870411992 0.485741466 -0.0944593176 0.692732275 0.714982152 -0.109009877 0.800680995 0.589089811 0.205337361 -0.626748621 0.751679897 0.310158461 -0.830100954 -0.463394195 -0.64332366 -0.655144334 -0.396132082 -0.595197439 0.744575381 -0.302237481 0.596017778 0.801528037 -0.0481212102 -0.0403575413 -0.990225613 0.13350822 -0.0721283555 -0.991686106 0.106565058 0.00349706854 -0.989191055 0.14659065 -0.00494160922 -0.591408372 -0.806357026 0.00497587677 -0.970277905 -0.241942227 0.0282109175 -0.936210155 -0.350306541 -0.00354450266 -0.979488254 -0.201470211 -0.0151157239 0.595946133 0.802882135 -0.0484744199 0.626125753 0.778213859 0.012384478 0.993518651 0.112992786 0.156186372 0.981300414 -0.11249572 0.0792711154 0.98642844 0.143788055 0.111148454 0.991091192 -0.0733777583 -0.0199650098 0.988193095 0.151907131 0.0323548838 -0.928738475 -0.369320989 -0.50765121 -0.859666944 0.0571225546 -0.568755865 -0.821053445 0.0488677807 0.175270915 0.977228403 0.119602613 0.375616908 0.926153004 -0.0339486152 0.0559523366 0.99694556 -0.0544870794 0.694310427 -0.714124084 -0.0892174989 0.62299937 0.706411362 0.335938603 0.839203954 0.543688655 0.0118039278 0.897961497 0.429968387 -0.0937673673 0.997551024 0.0557472855 -0.0422390699 -0.786801577 -0.526964068 -0.321328759 -0.999895334 0.00793918595 0.012096338 -0.99992007 0.0112672364 -0.0057367729 0.976728618 0.190498009 0.0985478088 0.672230721 0.73722285 -0.0678851306 0.243042707 0.805234551 0.54085815 0.312532514 0.643798172 0.698460639 0.324457467 0.63309139 0.70279634 -0.372925669 0.292019188 0.880710661 -0.369131923 0.234286383 0.89936173 -0.388964236 0.0805971995 0.917720497 -0.504858613 0.0225423612 0.862907648 -0.485337526 -0.00296066306 0.874321878 -0.541553736 0.000473636552 0.840665996 -0.473311335 0.0225723498 0.880605936 -0.377865404 -0.00748475548 0.925830305 -0.448990226 0.0232467633 0.893234193 -0.33856526 -0.023053186 0.940660477 -0.979506552 -0.0563309416 0.193374544 -0.992595971 -0.057552997 0.106962226 0.0872496441 0.333230108 -0.938799858 0.0080297431 -0.00747638894 -0.999939799 0.103763953 0.0301298462 -0.994145453 0.0337131694 0.0243681427 -0.999134421 -0.0130805783 0.0680875629 -0.997593582 0.157909855 0.0595102534 -0.985658646 -0.049497027 0.136892289 -0.989348531 -0.0493592173 -0.629771173 -0.775210857 0.983721733 0.0854153931 0.15810065 0.424163342 -0.263930112 0.866271555 -0.092854552 0.595989764 0.797605336 -0.886519074 0.342017472 -0.311621487 0.0144976657 -0.995524049 -0.0933901891 0.0116742011 -0.997449338 -0.0704170018 -0.127358779 -0.988715768 -0.0788727179 -0.0772893578 -0.989787042 -0.119782977 0.0727078989 0.221985966 -0.972335219 0.0583370551 0.0737203211 -0.995571256 0.0315516777 0.0239362624 -0.999215484 0.049574621 0.114540517 -0.992180824 0.070519343 -0.00954021048 -0.997464776 0.0323640592 -0.0095011564 -0.999431014 0.0194224231 -0.0473266877 -0.998690605 0.0571259595 -0.048662968 -0.997180283 -0.00990876276 -0.0482733473 -0.998785019 -0.521543026 -0.853224993 -2.67110299e-05 -0.00891410466 0.00304341665 0.999955654 -0.00530236773 0.0030165168 0.999981403 -0.00379869435 0.00273301895 0.999989033 0.0601272136 0.0147133972 0.99808228 0.0166088864 -0.00693713315 0.999837995 0.118862934 0.021011686 0.992688298 0.142785922 0.431275487 0.890849948 0.994426012 -0.0679401085 0.0806290135 -0.0712462664 -0.814915121 0.575184584 -0.998695791 0.0496682748 0.0118215997 -0.999705076 0.0168812834 -0.0174575988 -0.999670029 -0.0229780935 0.0114841405 0.374629885 0.915833831 0.144571364 0.417816401 0.896841228 0.145276457 -0.0926930308 0.988447785 0.11991252 -0.999347687 0.0360758379 0.00166202092 -0.99998033 -0.00606840337 0.00158068619 -0.99968946 -0.0147651257 0.020074185 -0.999785721 0.0148558831 0.0144162579 -0.0307797212 -0.0625821501 -0.997565091 -0.00895851385 0.0289791096 -0.999539852 0.0179698728 -0.0547003187 -0.998341084 -0.0142680313 -0.0067236824 -0.999875605 -0.0303828046 0.00350455265 -0.999532163 -0.02213737 0.00567162875 -0.999738872 -0.0098409541 -0.00992365275 -0.999902308 -0.0230648201 -0.00960573368 -0.99968785 -0.0141671523 -0.0256469287 -0.999570668 0.435508817 0.0355773568 0.899481118 0.39673537 -0.0128421439 0.917843223 -0.0153662628 0.997446418 -0.069746539 -0.999696076 0.022871986 0.00919869822 -0.999562621 0.00771102635 0.0285493173 -0.999407887 -0.0149093261 0.0310092382 -0.463124186 -0.827740133 -0.316799968 -0.145312265 -0.501213014 0.853035688 0.0305938665 -0.033370845 0.998974681 -0.00328148017 0.030718049 0.999522686 -0.054154139 0.0384447239 0.997792244 0.178965673 -0.543000102 0.820440233 0.77920717 0.626754701 0.00382949132 0.117694974 0.989074349 -0.0887685269 -0.112490475 0.986593187 0.11823611 -0.256862164 -0.962176144 0.0907680392 0.162287399 -0.986741304 0.00208469457 -0.176343635 -0.981522202 0.0742771477 0.265464932 -0.963895619 -0.0208223555</float_array>
          <technique_common>
            <accessor source="#normals_array" count="266" stride="3">
              <param name="X" type="float" />
              <param name="Y" type="float" />
              <param name="Z" type="float" />
            </accessor>
          </technique_common>
        </source>
        <vertices id="vertices">
          <input semantic="POSITION" source="#positions" />
        </vertices>
        <triangles material="scout_b2b2b2" count="214">
          <input semantic="VERTEX" source="#vertices" offset="0" />
          <input semantic="NORMAL" source="#normals" offset="1" />
          <p>0 0 1 1 2 2 3 3 0 3 2 3 4 4 5 5 6 6 7 7 8 8 9 9 10 10 7 11 11 12 9 13 11 13 7 13 12 14 13 15 1 1 14 16 15 16 16 16 8 17 17 18 15 19 12 14 18 20 13 15 17 18 16 21 15 19 9 22 19 22 11 22 9 23 20 23 19 23 10 24 21 24 22 24 11 25 23 26 10 27 22 28 21 28 11 28 22 29 11 30 24 31 25 32 26 33 24 34 24 34 27 35 22 36 28 37 11 38 29 39 26 40 11 38 28 37 27 41 26 41 28 41 26 33 27 35 24 34 23 42 11 42 21 42 10 43 25 44 21 45 30 46 21 47 24 48 30 49 24 31 11 30 21 50 25 32 24 34 25 51 30 52 11 53 25 51 11 53 26 54 31 55 32 55 29 55 33 56 34 57 32 58 32 59 27 60 29 61 25 62 28 63 29 64 30 65 25 62 29 64 25 66 34 66 27 66 25 67 27 67 28 67 34 68 29 68 27 68 30 69 29 70 34 57 33 56 30 69 34 57 35 71 36 72 37 73 38 74 19 75 39 76 37 73 40 77 39 78 37 79 19 79 35 79 41 80 31 81 42 82 33 56 31 83 41 84 43 85 33 56 41 84 27 60 32 59 42 86 41 87 42 88 32 89 34 90 41 87 32 89 34 90 43 91 41 87 44 92 45 93 5 94 46 95 47 96 36 97 48 98 40 99 49 100 50 101 51 102 48 98 52 103 53 104 49 105 54 106 55 107 17 108 51 102 56 109 47 96 50 101 57 110 51 102 58 111 59 112 54 113 60 114 8 115 61 116 62 117 61 118 8 119 58 120 60 121 63 122 63 123 60 124 62 125 59 126 60 127 61 128 59 129 62 129 60 129 58 111 62 130 59 112 58 111 54 113 60 131 18 132 16 133 13 134 54 135 17 136 60 114 64 137 63 123 62 125 63 138 64 139 17 108 65 140 17 141 64 142 64 137 62 125 6 143 63 122 55 144 58 120 17 108 55 107 63 138 54 145 64 145 55 145 54 146 65 146 64 146 66 147 16 147 6 147 67 148 16 149 66 150 68 151 64 151 6 151 4 152 64 153 68 154 65 140 68 155 6 156 65 157 4 158 68 159 5 160 65 157 54 161 4 152 55 162 64 153 5 160 4 158 65 157 67 148 69 163 16 149 69 163 67 148 45 164 45 165 70 166 69 167 62 117 58 168 61 118 70 166 71 169 72 170 73 171 74 172 52 103 16 133 69 167 70 166 20 173 9 173 75 173 50 101 48 98 53 104 43 174 6 6 42 175 72 170 71 169 76 176 70 166 73 171 77 177 71 169 78 178 79 179 79 179 80 180 71 169 35 181 19 182 3 183 0 0 12 14 1 1 12 184 0 185 75 186 12 184 14 187 18 188 0 185 3 183 20 189 18 188 14 187 16 190 3 183 19 182 20 189 20 189 75 186 0 185 75 186 14 187 12 184 75 191 9 9 15 192 43 193 34 193 25 193 4 194 43 195 61 196 4 194 61 196 55 197 61 196 43 195 10 198 58 199 55 197 61 196 43 200 25 44 10 43 76 176 71 169 80 201 53 104 52 103 74 172 57 202 56 109 51 102 6 156 16 203 17 141 15 204 14 204 75 204 78 178 71 169 45 165 39 205 35 206 2 207 2 207 35 206 3 208 39 209 2 210 81 211 38 212 39 209 81 211 1 213 81 211 2 210 82 214 81 211 1 213 83 215 82 214 13 216 13 216 82 214 1 213 84 217 83 215 13 216 30 46 23 218 21 47 48 98 46 95 36 97 54 219 59 220 23 221 54 219 23 221 30 222 54 219 30 222 5 223 5 223 30 222 43 224 33 225 43 224 30 222 53 104 74 172 85 226 36 72 40 77 37 73 42 82 11 38 19 227 43 174 42 175 36 228 42 175 40 229 36 228 5 94 43 174 44 92 36 228 47 230 43 174 6 231 5 232 67 233 45 93 67 234 5 94 72 170 76 176 74 172 40 99 48 98 39 205 86 235 87 236 88 237 44 92 86 235 88 237 81 211 82 214 89 238 90 239 89 238 82 214 40 240 38 212 91 241 38 212 81 211 91 241 89 238 91 241 81 211 49 242 40 240 91 241 49 242 91 241 52 243 91 241 92 244 52 243 52 243 92 244 73 245 73 245 92 244 77 246 77 246 92 244 84 217 92 244 90 239 83 215 84 217 92 244 83 215 90 239 82 214 83 215 23 26 59 126 10 27 76 176 80 201 85 226 48 98 51 102 46 95 72 170 73 171 70 166 50 101 85 226 57 110 50 101 53 104 85 226 51 102 47 96 46 95 8 8 15 192 9 9 80 247 79 248 57 202 84 249 16 133 70 166 91 241 90 239 92 244 89 238 90 239 91 241 44 92 88 237 78 250 45 93 44 92 78 250 79 251 78 250 88 237 56 252 79 251 88 237 56 252 88 237 87 236 56 252 87 236 47 230 43 174 47 230 86 235 47 230 87 236 86 235 44 92 43 174 86 235 48 98 36 97 35 206 39 205 48 98 35 206 57 202 79 248 56 109 10 253 22 253 27 253 10 10 27 254 42 255 10 10 42 255 6 256 10 10 6 256 8 257 10 10 8 257 7 11 6 143 62 125 8 258 17 136 8 115 60 114 16 133 84 249 13 134 11 38 42 82 29 39 6 156 17 141 65 140 19 75 37 259 39 76 84 249 70 166 77 260 10 27 59 126 61 128 66 261 6 231 67 233 70 166 45 165 71 169 40 262 42 263 38 264 19 265 38 264 42 263 49 105 53 104 48 98 74 172 76 176 85 226 43 174 4 4 6 6 80 201 57 110 85 226 72 170 74 172 73 171 29 39 42 82 31 81 33 56 32 58 31 83</p>
        </triangles>
      </mesh>
    </geometry>
  </library_geometries>
  <library_visual_scenes>
    <visual_scene id="scene">
      <node id="right_hip_roll_link">
        <instance_geometry url="#geometry">
          <bind_material>
            <technique_common>
              <instance_material symbol="scout_b2b2b2" target="#scout_b2b2b2" />
            </technique_common>
          </bind_material>
        </instance_geometry>
      </node>
    </visual_scene>
  </library_visual_scenes>
  <scene>
    <instance_visual_scene url="#scene" />
  </scene>
</COLLADA>