<?xml version='1.0' encoding='utf-8'?>
<COLLADA xmlns="http://www.collada.org/2005/11/COLLADASchema" version="1.4.1">
  <asset>
    <created>2026-09-14T00:00:00Z</created>
    <modified>2026-09-14T00:00:00Z</modified>
    <unit name="metre" meter="1" />
    <up_axis>Z_UP</up_axis>
  </asset>
  <library_effects>
    <effect id="scout_b2b2b2_effect">
      <profile_COMMON>
        <technique sid="common">
          <lambert>
            <emission>
              <color>0 0 0 1</color>
            </emission>
            <ambient>
              <color>0.35 0.35 0.35 1</color>
            </ambient>
            <diffuse>
              <color>0.7 0.7 0.7 1</color>
            </diffuse>
          </lambert>
        </technique>
      </profile_COMMON>
    </effect>
  </library_effects>
  <library_materials>
    <material id="scout_b2b2b2" name="scout_b2b2b2">
      <instance_effect url="#scout_b2b2b2_effect" />
    </material>
  </library_materials>
  <library_geometries>
    <geometry id="geometry" name="right_hand_middle_1_link">
      <mesh>
        <source id="positions">
          <float_array id="positions_array" count="138">-0.00508251553 -0.00546985772 0.012839919 -0.00609561987 0.00471981196 0.00996162836 -0.00430383766 -0.00591118447 0.010001203 0.0199366603 -0.00795903895 -0.00935859513 0.00954844523 -0.00889515225 -0.00175265747 0.0103472052 -0.00604409678 -0.00951566268 0.0203216355 -0.00672931271 -0.0124196513 0.0367017798 -0.00655824738 -0.0111661367 0.0203650892 0.00127472286 -0.0118017029 0.0416561849 0.000378472178 -0.0103553291 0.0512834154 -0.00442615245 -0.00695193885 0.034569636 -0.00788333453 -0.00444843667 0.050005313 0.000971730275 -0.00604640227 0.0509110615 0.00060667604 0.00426605111 0.0512409322 -0.00437445147 0.00691811042 0.0357564948 -0.006896595 0.0113568967 0.0204357374 -0.00664317841 0.0125234276 0.0204955656 -0.00854059495 0.00777111994 0.0431893691 0.00557433069 -0.00237044715 0.037873745 0.00630297791 0.00657178322 0.0455668122 0.00441117911 0.00423632329 -0.00496515632 -0.00363423722 -0.0130114732 -0.00180230604 -0.00523592299 -0.00984122977 0.0351800472 0.00206465879 0.0108964043 0.0485901833 -0.0022754902 0.00855913665 -0.00192885101 0.00522079645 -0.0098511437 0.0186858792 0.00718368683 -0.0129986033 -0.00346774422 0.00459863292 -0.0129718473 0.0204185303 0.0024096421 0.0116836214 0.0197888017 0.00723036937 0.00912956521 0.020857431 0.00849895645 0.00547900237 0.0203957222 0.00770024583 -0.00905331783 0.0301867854 0.00622075889 -0.00918661989 0.0299965329 0.00827828329 -0.00307142152 0.0425614566 0.00420040078 -0.0079345433 0.0132314498 -0.00605198927 -0.0129441349 0.029496748 0.0062272069 0.00944803469 0.0437599048 0.00268753245 0.00873799622 0.0196358729 0.00679645967 0.0128494464 -0.00537352683 0.00532418536 0.0128321759 -0.00596922077 -0.000157349728 -0.00973493233 0.0126385251 -0.00515763555 0.00980337709 0.0137200374 -0.0047836192 -0.00966528337 0.0103164641 -0.00666856114 0.00977309421 0.0157483499 0.00533025526 0.00965141132 0.0159450863 0.00637156796 -0.00964884833</float_array>
          <technique_common>
            <accessor source="#positions_array" count="46" stride="3">
              <param name="X" type="float" />
              <param name="Y" type="float" />
              <param name="Z" type="float" />
            </accessor>
          </technique_common>
        </source>
        <source id="normals">
          <float_array id="normals_array" count="327">-0.976330817 -0.142924681 -0.162328765 -0.983369708 -0.0483188629 0.175069481 -0.957737029 -0.162304327 -0.237480611 -0.0218088627 -0.970060468 -0.241882309 -0.0735589787 -0.995028734 -0.0671333298 -0.155290514 -0.964100599 -0.215394646 -0.0102307629 -0.927426934 -0.373864353 0.126608923 -0.977984071 -0.165883556 0.0663394257 0.229163751 -0.971124649 0.130934328 0.024459362 -0.991089284 0.0752878264 0.0763507187 -0.994234562 0.251836717 0.221551836 -0.942068517 0.198470816 -0.979709685 -0.0278965272 0.117101617 -0.991442502 -0.0576969869 0.384438932 0.122145765 -0.915033937 0.422437668 0.290608495 -0.85854131 0.967300832 0.241852432 -0.0763971508 0.99415642 0.10690698 -0.0149637498 0.980176389 0.190878421 -0.0531007648 0.997710824 0.0675662383 0.00280408259 0.123088568 -0.988529086 0.0875182077 -0.0399826504 -0.935022831 0.352326185 -0.0137802754 -0.980572283 0.195673585 0.350279212 0.93077153 -0.104732335 0.198604003 0.894063473 0.401505888 0.454191327 0.862609327 0.222744972 -0.0726573542 -0.941023827 -0.33044669 -0.0495632738 -0.910488486 -0.410553545 0.142187923 0.0351728238 0.989214599 0.159652591 0.333220243 0.92923373 0.0626551583 0.0797927156 0.994840443 0.47036019 0.128630832 0.873049498 0.308466315 -0.312788546 0.898338377 0.621519864 0.689261198 0.372333288 0.684759378 0.377307475 0.623493135 -0.111385144 0.987234235 -0.113850288 -0.195617408 0.978583038 0.0641018301 -0.114935726 0.983542204 -0.139407784 0.0428054594 0.283989757 0.957871318 -0.478898495 0.87730372 0.0315346979 -0.778440177 0.62764281 -0.00976396073 -0.337422162 0.941262841 0.013061068 0.046826046 0.39264515 -0.918497205 0.0819194242 0.37024045 -0.925316811 0.03656758 0.987378061 -0.154101655 0.121668749 0.988147497 -0.0936012492 0.161305636 0.936884403 -0.310206592 0.284572035 0.463954031 -0.838907242 0.307235003 0.912829816 -0.268976569 0.521467388 0.845387578 -0.115721822 -0.155955434 -0.971979618 -0.175879225 0.0196267609 0.470071167 0.882410288 0.099961102 0.465048134 0.879623771 0.0849769935 0.933199584 0.34916684 0.108100273 0.975233316 0.192961976 0.0913798884 0.978037655 0.187328815 0.343639642 0.554000676 0.758284271 0.00823486783 -0.0173710287 0.999815226 -0.000731521461 0.000697616255 0.999999464 0.00298200548 -0.00678574713 0.999972522 0.0113142245 -0.0235763323 0.999657989 -0.881826699 0.162519321 -0.442683965 -0.545205235 0.838182569 -0.0141844479 -0.368213505 0.929387391 0.0256501716 -0.523684442 0.851863801 -0.00908957981 -0.348753452 0.936741531 0.029770676 -0.968156517 -0.0259230267 0.248999819 -0.974357963 0.224487573 -0.0152271232 -0.966556072 0.254482269 -0.031751059 -0.980681777 0.195609003 0.000557219202 -0.0779493451 -0.977355123 0.196725339 -0.957834899 0.283320874 -0.0477661826 -0.957138956 0.289522678 0.00784775428 -0.182247132 0.978497207 0.0965877324 -0.420415878 0.906234264 0.0446088612 -0.0481961966 -0.988358021 0.144310594 -0.0490390062 -0.988895476 0.14028883 0.982420266 0.143561542 0.119333357 0.896348357 0.042641487 0.441295028 0.928325057 0.0685158446 0.365401298 -0.0111207273 0.000813451537 0.999937832 0.00174226554 0.00442750473 0.999988675 -0.00616325298 0.00636054808 0.99996078 0.0484691039 -0.0111391786 0.998762548 -0.00182743242 0.0115504498 0.999931633 0.0270545855 0.00127515395 0.999633133 0.189620286 -0.981541991 0.0248889644 -0.702531397 -0.584904134 0.40538466 0.0292737298 -0.0147866374 -0.999462068 0.00423782365 0.00404230366 -0.999982834 0.00240523368 0.00116911018 -0.999996424 0.0223439801 -0.0133218765 -0.999661565 0.0705774277 -0.0331877321 -0.996954083 -0.768680632 0.583155036 0.262793124 0.876029015 0.156555489 -0.456139803 0.741420627 0.0756391361 -0.666763961 0.693845153 0.0516868718 -0.718266904 -0.0619343817 0.99394083 0.090806298 -0.100701213 0.978377104 -0.180658475 -0.0976233929 0.982677221 -0.157528326 -0.0584667213 0.991840184 0.113290429 -0.0120672183 -0.0188962612 -0.999748647 -0.00671555987 -0.251523405 -0.967827916 -0.00904509518 -0.17651245 -0.984256864 -0.0132777765 0.00183826149 -0.999910176 -0.0134774959 0.0407370366 -0.999078989 -0.0115355812 -0.00315302075 -0.999928474 0.895585239 0.171343252 -0.410570979 0.985330582 0.160067171 0.0591793358</float_array>
          <technique_common>
            <accessor source="#normals_array" count="109" stride="3">
              <param name="X" type="float" />
              <param name="Y" type="float" />
              <param name="Z" type="float" />
            </accessor>
          </technique_common>
        </source>
        <vertices id="vertices">
          <input semantic="POSITION" source="#positions" />
        </vertices>
        <triangles material="scout_b2b2b2" count="88">
          <input semantic="VERTEX" source="#vertices" offset="0" />
          <input semantic="NORMAL" source="#normals" offset="1" />
          <p>0 0 1 1 2 2 3 3 4 4 5 5 3 3 6 6 7 7 8 8 7 9 6 10 9 11 7 9 8 8 10 12 11 13 7 7 9 11 10 14 7 9 9 11 12 15 10 14 12 16 13 17 10 18 10 18 13 17 14 19 15 20 16 21 17 22 18 23 19 24 20 25 21 26 5 5 22 27 15 28 23 29 16 30 15 20 17 22 11 13 4 4 3 3 11 13 24 31 23 29 15 28 14 32 24 31 15 28 13 33 24 31 14 34 25 35 26 36 27 37 23 29 28 38 16 30 29 39 30 40 31 41 31 42 32 43 8 8 31 44 33 45 32 46 32 43 9 11 8 8 32 43 34 47 9 11 33 45 34 48 32 46 33 45 18 23 34 48 34 47 12 15 9 11 18 23 12 49 34 48 18 23 20 25 12 49 5 5 35 50 3 3 29 51 28 38 36 52 36 52 28 38 23 29 29 53 36 54 30 55 36 54 19 24 33 45 19 24 36 52 23 29 19 24 23 29 37 56 13 33 20 25 37 56 37 56 23 29 24 31 20 25 19 24 37 56 20 25 13 33 12 49 37 56 24 31 13 33 38 57 39 58 0 59 38 57 0 59 16 60 40 61 27 61 21 61 35 50 6 6 3 3 41 62 42 63 43 64 42 63 5 65 43 64 0 0 39 66 1 1 31 44 30 55 33 45 42 67 44 68 45 69 18 23 33 45 19 24 43 70 4 4 17 22 41 71 44 68 42 67 26 36 29 39 31 41 4 72 43 72 5 72 45 73 44 74 29 39 29 39 26 36 45 73 21 26 35 50 5 5 17 22 16 21 43 70 16 21 0 75 43 70 0 75 2 76 43 70 38 77 16 78 28 79 22 80 5 81 25 82 5 81 42 83 45 84 5 81 45 84 25 82 22 80 25 82 40 85 11 13 17 22 4 4 11 13 14 86 15 20 22 87 40 87 21 87 11 13 10 12 14 86 35 88 21 89 27 90 27 90 26 91 35 88 35 88 26 91 6 92 27 93 40 93 25 93 25 35 45 73 26 36 26 94 8 95 6 96 36 54 33 45 30 55 29 97 1 98 39 99 39 99 38 100 29 97 1 101 29 102 44 103 41 104 43 105 2 106 41 104 2 106 1 101 41 104 1 101 44 103 26 94 31 107 8 95 28 79 29 108 38 77 3 3 7 7 11 13</p>
        </triangles>
      </mesh>
    </geometry>
  </library_geometries>
  <library_visual_scenes>
    <visual_scene id="scene">
      <node id="right_hand_middle_1_link">
        <instance_geometry url="#geometry">
          <bind_material>
            <technique_common>
              <instance_material symbol="scout_b2b2b2" target="#scout_b2b2b2" />
            </technique_common>
          </bind_material>
        </instance_geometry>
      </node>
    </visual_scene>
  </library_visual_scenes>
  <scene>
    <instance_visual_scene url="#scene" />
  </scene>
</COLLADA>