<?xml version='1.0' encoding='utf-8'?>
<COLLADA xmlns="http://www.collada.org/2005/11/COLLADASchema" version="1.4.1">
  <asset>
    <created>2026-09-14T00:00:00Z</created>
    <modified>2026-09-14T00:00:00Z</modified>
    <unit name="metre" meter="1" />
    <up_axis>Z_UP</up_axis>
  </asset>
  <library_effects>
    <effect id="scout_b2b2b2_effect">
      <profile_COMMON>
        <technique sid="common">
          <lambert>
            <emission>
              <color>0 0 0 1</color>
            </emission>
            <ambient>
              <color>0.35 0.35 0.35 1</color>
            </ambient>
            <diffuse>
              <color>0.7 0.7 0.7 1</color>
            </diffuse>
          </lambert>
        </technique>
      </profile_COMMON>
    </effect>
  </library_effects>
  <library_materials>
    <material id="scout_b2b2b2" name="scout_b2b2b2">
      <instance_effect url="#scout_b2b2b2_effect" />
    </material>
  </library_materials>
  <library_geometries>
    <geometry id="geometry" name="right_hand_thumb_0_link">
      <mesh>
        <source id="positions">
          <float_array id="positions_array" count="117">-0.011395596 0.0193857085 0.00945206918 -0.0114267766 0.0193041842 -0.00945811439 -0.0114599504 0.000425626087 0.00946939271 -0.0112539278 0.0211929753 -0.00946333259 -0.0112521537 0.021229513 0.00946664158 -0.00887375604 0.0256252978 -0.00947397202 -0.00756401103 0.026692396 -0.0094713131 -0.00829704199 0.0259480141 -0.00949296914 -0.00551024545 0.0277337804 -0.00946400035 -0.00624820264 0.0273526963 -0.00948380586 -0.00702990824 0.0270075146 -0.00945642125 -0.00977108069 0.024522651 0.00944552291 -0.010195611 0.0238219034 -0.00946411025 -0.0106483437 0.022985477 0.00947739929 -0.0113255521 0.000198596681 -0.00944550429 -0.0109838462 1.06157622e-05 0.00947987102 0.0100254333 0.0257618967 -0.00947857369 0.00998227112 0.00019701448 0.00945669971 0.010007076 0.000260288158 -0.0094840629 -0.0101995105 0.0237900019 0.00949142408 -0.00967366435 0.0246092752 -0.00946241338 0.00754335942 0.0282428246 -0.00948013552 0.0100121116 0.0257697646 0.00948346686 -0.00322680315 0.0282208193 -0.00946095306 0.00753606157 0.0282409191 0.00948186126 -0.0109606627 0.0220811628 0.0094681317 -0.0106482683 0.0229661297 -0.0094640702 -0.0109796831 0.0220350698 -0.00946245342 0.00948728248 1.9342433e-05 -0.00946685299 -0.00889065396 0.0255960934 0.00947307236 -0.0075217546 0.0267156474 0.00949399173 -0.0068130861 0.027116254 0.00947264023 -0.00823935959 0.0261238329 0.00944361463 -0.00327608758 0.0282290559 0.00945217162 0.00895877741 0.0267857015 0.00949358102 -0.00477039581 0.0279684234 0.00947768986 -0.00572526036 0.0276521035 0.00947521813 0.00908271037 0.0266660396 -0.00949372072 -0.00473510241 0.027972864 -0.00947991665</float_array>
          <technique_common>
            <accessor source="#positions_array" count="39" stride="3">
              <param name="X" type="float" />
              <param name="Y" type="float" />
              <param name="Z" type="float" />
            </accessor>
          </technique_common>
        </source>
        <source id="normals">
          <float_array id="normals_array" count="246">-0.999153674 0.0411245152 0.000826766714 -0.99898386 0.0450635366 -0.000728208979 -0.999995768 -0.000981930643 -0.00273203128 -0.979555845 0.201172054 0.000332419091 -0.979259908 0.202608123 4.37560702e-05 -0.0511095896 0.0325621553 -0.998162091 0.0206326675 0.00877226703 -0.999748647 -0.0440434143 0.051661782 -0.997692943 -0.0912142172 0.227030545 -0.969606698 -0.153975978 0.322916836 -0.933818042 -0.100462109 0.157123879 -0.98245585 -0.824158609 0.566352844 -0.00265852432 -0.859998822 0.510294914 -0.00105731143 -0.910706997 0.413043916 -0.00273376051 -0.657134533 -0.753760636 0.00437793648 0.999999046 -0.000986049185 0.000948215835 0.999999046 -0.000902341562 0.00106122741 0.999998868 -0.000720153213 0.00130719389 -0.836123824 0.471327454 -0.280619562 -0.810124457 0.586256087 -0.00148807326 -0.712374449 0.701799512 -0.000195913948 0.706880927 0.707332492 0.000219410853 0.706468999 0.707743883 0.000326806941 0.706943274 0.707270265 0.000203158823 -0.0823763683 0.996601164 -0.000467370061 -0.0014082077 0.999998987 -0.00026111069 -0.00204299018 0.999997914 9.98403048e-05 -0.945614696 0.325288892 -8.11246719e-05 -0.915480196 0.402363032 -0.000183476892 -0.946491718 0.322728127 -0.000179579627 -0.999961138 -0.00530259218 -0.00704149529 0.214093804 -0.976812482 -0.00110122678 0.0168291815 -0.999818325 0.00894702598 -0.000393292517 -0.999999523 -0.000885525951 -0.00862197392 -0.999915063 -0.00977622811 -0.70543319 0.708776295 0.000463424454 -0.565736294 0.824586034 0.000550833764 -0.4671655 0.884169877 0.000272004807 -0.47066015 0.882314444 -0.000430899061 -0.57219857 0.82011497 0.000413769507 -0.632891715 0.774240136 0.000559080625 0.42048806 -0.907294691 -0.00248025591 0.999999046 -0.00116766174 0.000703026308 -0.00114988443 0.00692915637 0.999975324 0.00281733926 -0.00292827515 0.999991715 0.139106512 0.136473164 0.980828464 -0.000113071954 -0.00178918277 0.999998391 -0.00657392433 0.00129520765 0.999977529 -0.000102451988 0.000127135863 1 0.00153422961 -0.00125297601 0.999998033 -0.0211472269 0.000985250226 0.999775887 0.0158733428 -0.0152372951 0.999757886 -0.00319677475 -0.00229857303 0.999992251 0.00185037684 -0.00887794793 0.999958873 0.0328597687 -0.0123807406 0.999383271 0.0472477041 -0.0969799682 0.994164228 -0.0244620033 -0.0019563518 0.999698818 0.0797547325 -0.0476868786 0.995673239 -0.339585692 0.255306542 0.90526247 0.226019129 -0.351393223 0.908536255 -0.0338037685 0.00142618828 0.999427497 0.0232594218 -0.00971049163 0.999682307 -0.379164785 0.925329149 0.000188668171 -0.363228023 0.931700051 -0.000646956556 0.00119917525 -0.00193014974 -0.999997437 -0.0014320378 -0.0147542935 -0.999890149 -0.000341288163 -0.000417947624 -0.999999881 -0.00160735636 -0.0677946806 -0.997698009 -0.00180417183 -0.00115825387 -0.999997675 0.00130921218 -0.00323305838 -0.99999392 0.000200362701 0.00881108455 -0.999961138 0.169294998 0.163051307 -0.971984327 0.000250989047 -0.00229930971 -0.999997318 0.016256677 -0.00424986053 -0.999858797 0.00325119146 -0.00216787588 -0.999992371 0.0159694832 -0.0326976664 -0.999337673 0.00975196064 -0.00521300314 -0.999938846 -0.0672202483 0.0463848636 -0.996659338 -0.0870519429 0.996203721 -0.000283286266 -0.229016498 0.973422348 -0.000571359706 -0.243944898 0.969789088 0.000207926918 0.706406474 0.707806289 0.000343105436</float_array>
          <technique_common>
            <accessor source="#normals_array" count="82" stride="3">
              <param name="X" type="float" />
              <param name="Y" type="float" />
              <param name="Z" type="float" />
            </accessor>
          </technique_common>
        </source>
        <vertices id="vertices">
          <input semantic="POSITION" source="#positions" />
        </vertices>
        <triangles material="scout_b2b2b2" count="74">
          <input semantic="VERTEX" source="#vertices" offset="0" />
          <input semantic="NORMAL" source="#normals" offset="1" />
          <p>0 0 1 1 2 2 3 3 0 0 4 4 5 5 6 6 7 7 8 8 9 9 10 10 11 11 12 12 13 13 14 14 15 14 2 14 16 15 17 16 18 17 19 18 11 11 13 13 20 19 11 11 5 20 21 21 22 22 16 23 23 24 24 25 21 26 25 27 26 28 27 29 14 30 2 2 1 1 3 3 1 1 0 0 28 31 17 32 15 33 15 33 14 34 28 31 25 27 13 13 26 28 5 20 11 11 29 35 20 19 12 12 11 11 30 36 31 37 10 38 30 36 10 38 6 39 6 39 32 40 30 36 17 32 28 31 18 41 4 4 27 29 3 3 13 13 12 12 26 28 16 15 22 42 17 16 5 20 29 35 32 40 32 40 6 39 5 20 24 43 33 44 34 45 34 45 33 44 22 46 15 47 17 48 0 49 0 49 17 48 22 46 22 46 33 44 0 49 2 50 15 47 0 49 0 49 33 44 35 51 0 49 35 51 36 52 0 49 36 52 32 53 0 49 32 53 19 54 36 52 31 55 32 53 0 49 19 54 25 56 32 53 29 57 19 54 29 57 11 58 19 54 30 59 32 53 31 55 19 54 13 60 25 56 4 61 0 49 25 56 36 62 8 63 10 38 10 38 31 37 36 62 16 64 18 65 1 66 28 67 14 68 18 65 16 64 1 66 23 69 23 69 21 70 37 71 37 71 16 64 23 69 14 68 1 66 18 65 23 69 1 66 12 72 1 66 3 73 27 74 38 75 23 69 9 9 1 66 27 74 12 72 8 8 38 75 9 9 23 69 12 72 7 7 27 74 26 76 12 72 9 9 23 69 7 7 10 10 9 9 7 7 6 6 10 10 7 7 12 72 20 77 7 7 7 7 20 77 5 5 33 78 23 24 38 79 38 79 35 80 33 78 21 21 24 81 22 22 21 70 16 64 37 71 38 79 8 63 35 80 23 24 33 78 24 25 35 80 8 63 36 62 27 29 4 4 25 27 22 46 24 43 34 45</p>
        </triangles>
      </mesh>
    </geometry>
  </library_geometries>
  <library_visual_scenes>
    <visual_scene id="scene">
      <node id="right_hand_thumb_0_link">
        <instance_geometry url="#geometry">
          <bind_material>
            <technique_common>
              <instance_material symbol="scout_b2b2b2" target="#scout_b2b2b2" />
            </technique_common>
          </bind_material>
        </instance_geometry>
      </node>
    </visual_scene>
  </library_visual_scenes>
  <scene>
    <instance_visual_scene url="#scene" />
  </scene>
</COLLADA>