<?xml version='1.0' encoding='utf-8'?>
<COLLADA xmlns="http://www.collada.org/2005/11/COLLADASchema" version="1.4.1">
  <asset>
    <created>2026-09-14T00:00:00Z</created>
    <modified>2026-09-14T00:00:00Z</modified>
    <unit name="metre" meter="1" />
    <up_axis>Z_UP</up_axis>
  </asset>
  <library_effects>
    <effect id="scout_b2b2b2_effect">
      <profile_COMMON>
        <technique sid="common">
          <lambert>
            <emission>
              <color>0 0 0 1</color>
            </emission>
            <ambient>
              <color>0.35 0.35 0.35 1</color>
            </ambient>
            <diffuse>
              <color>0.7 0.7 0.7 1</color>
            </diffuse>
          </lambert>
        </technique>
      </profile_COMMON>
    </effect>
  </library_effects>
  <library_materials>
    <material id="scout_b2b2b2" name="scout_b2b2b2">
      <instance_effect url="#scout_b2b2b2_effect" />
    </material>
  </library_materials>
  <library_geometries>
    <geometry id="geometry" name="right_shoulder_pitch_link">
      <mesh>
        <source id="positions">
          <float_array id="positions_array" count="234">-0.0313664936 -0.0670192987 -0.0248230044 -0.0290935114 -0.0723575354 -0.0237771943 -0.0290381461 -0.0718325526 -0.00324507803 -0.0300731603 -0.00656963279 -0.0300316941 -0.0290757921 -0.0308833849 -0.0491778925 -0.0313906372 -0.0309251137 -0.0437185578 -0.0285855047 -0.0152608147 -0.041336108 -0.0313397385 -0.00886432733 -0.00432866393 -0.0294814855 -0.00520596467 0.000455306319 -0.0314252041 -0.0535266213 -0.0409839079 -0.0289857592 -0.0575490594 -0.0439986102 -0.0314546265 -0.0654176474 0.000378437748 -0.0285799615 -0.0598712638 0.0148842297 -0.0313724838 -0.0508615635 0.0141559485 -0.0276112687 -0.000601136126 -0.00650462741 -0.0209030807 -0.00455758628 -0.0207467228 0.030125076 -0.0675858408 0.00480748713 -0.00122274121 -0.0707076788 0.00459195068 0.0292353332 -0.0732009634 -0.00932780933 -0.00947305653 -0.000866629358 -0.0268321577 -0.00419610599 -0.00551966159 -0.0287234709 -0.0310808308 -0.0264263265 0.0142283589 -0.0293898974 -0.0475456417 0.0208282359 -0.0280755926 -0.00518776244 0.0357664898 -0.0252624173 -0.0004982588 0.0136209028 -0.0233928151 -0.00460490724 0.0173916463 -0.001151687 4.76005688e-08 -0.0278667249 0.000376580749 5.29398676e-08 -0.027866438 -0.000376580749 5.30126307e-08 -0.0278664362 0.0290723369 -0.0558733791 0.0168951135 0.0107259303 -0.00522270519 -0.0271470938 0.0284252614 -0.00960656349 -0.0361528881 0.0111194868 -0.00102076749 -0.0257933382 0.0207835454 0.000362334191 -0.019257756 0.00330450526 -0.0484923609 -0.0493224449 0.0298159663 -0.0430503823 -0.0491102338 0.0293914434 -0.0619238615 -0.0402998552 0.0288892593 -0.00546089001 -0.0261194743 0.0263560619 -0.000918738893 -0.009517706 0.00684120739 -0.074707441 -0.0179461986 0.0300495252 -0.0714112446 -0.0245670192 0.0280346908 -0.0284979232 -0.0488804206 0.0313758589 -0.0193898268 -0.0383937396 0.0234709084 -0.00461511919 -0.0170360096 0.02981098 -0.00550536113 -0.000842734764 0.031514205 -0.00696719019 -0.0176522657 -0.00892520417 -0.00466459058 0.0278906021 0.0133394068 -0.00464680139 0.0263479482 0.0043229959 -0.000715261034 0.0277908165 0.0283889808 -0.00514535885 0.0333434828 0.0109680369 -0.00525220018 0.0394257493 0.0287939738 -0.0324163139 0.026197074 0.0263866559 -0.00115520356 0.00951461121 0.01741823 -0.000140723598 0.0224826634 0.0263991188 -0.00445909007 0.0122424159 0.0314440802 -0.0433400832 0.0162938125 0.0280713961 0.000109602239 0.00427929824 0.000376580749 5.29398676e-08 -0.0278672725 0.00112974225 5.26342774e-08 -0.0278672334 0.00188290374 5.23141388e-08 -0.0278671607 0.00303639169 -3.63788502e-07 -0.0278672259 0.0278664809 4.87925753e-08 -0.000376580749 0.0278671477 4.84724332e-08 -0.00112974225 0.0278672036 4.87925753e-08 -0.000376580749 0.0278664753 4.91272658e-08 0.000376580749 0.027867185 4.91272658e-08 0.000376580749 0.0278671216 4.94619599e-08 0.00112974225 0.02786709 4.97821055e-08 0.00188290374 0.0278670695 4.98403452e-08 0.00263606524 -0.0153364316 -0.00547099486 0.0398169123 -0.0220264252 -0.00037744295 -0.0176622979 -0.0116062174 -0.00084823108 0.0257262867 0.000359918457 -0.0698328093 -0.032690376 -0.0306341927 -0.0125486162 -0.0260940529 0.00201654481 -0.0336693153 0.0293080118 0.0312857442 -0.0189672075 0.00967588089 0.0304960925 -0.0575770102 -0.0343214162 0.0307082292 -0.0605691411 0.00191249955</float_array>
          <technique_common>
            <accessor source="#positions_array" count="78" stride="3">
              <param name="X" type="float" />
              <param name="Y" type="float" />
              <param name="Z" type="float" />
            </accessor>
          </technique_common>
        </source>
        <source id="normals">
          <float_array id="normals_array" count="456">-0.959638298 -0.254968077 -0.118682921 -0.909107924 -0.4056485 -0.0947208181 -0.91248697 -0.398824453 0.091140382 -0.990280569 0.113976002 -0.0797110498 -0.91798389 0.0811401755 -0.388229132 -0.96800667 0.0811325759 -0.237446055 -0.958051383 0.152019143 -0.242956176 -0.972026646 0.230371222 0.0457521193 -0.966737449 0.229513779 0.112881213 -0.955197096 -0.12437401 -0.268569648 -0.88589257 -0.262637109 -0.382382065 -0.948844671 -0.272519648 0.159457996 -0.906027317 -0.284162521 0.31363374 -0.972504735 -0.105647527 0.207540765 -0.90705049 -0.195329875 -0.372968733 -0.909054816 -0.166771412 -0.381846279 -0.669647753 0.239798024 -0.70290029 0.079222098 -0.833281159 0.547143877 -0.00942909718 -0.880608261 0.473751217 0.0766310543 -0.98764497 0.136693448 -0.383379877 0.014795091 -0.923472226 -0.123246141 0.105731145 -0.986727595 -0.996028364 0.0223465879 0.0861867815 -0.0518352427 -0.638022542 0.768271029 -0.0317882486 -0.967292845 0.251662672 -0.957308948 -0.0581853762 0.283150226 -0.994848251 0.0533561967 0.0861982107 -0.861584902 0.498061836 0.0980096385 -0.933704257 -0.113178946 0.339686394 -0.0469512455 0.178446814 -0.982828736 0.0142423054 0.999118328 0.0394929126 0.000297832128 0.765080273 0.643934846 -1.45931654e-05 0.766517162 0.642223835 0.0585648306 -0.567276001 0.821442723 -0.0088121295 0.888191581 -0.459388733 0.0245659649 0.937743008 -0.346460074 0.0213262122 0.774855912 -0.631778002 0.359642565 0.206794262 -0.909886479 0.700788438 0.0940223709 -0.707145929 0.301505059 0.241945907 -0.92225641 0.00405098312 -0.273878038 -0.961755931 0.0464043356 -0.18780759 -0.981109023 0.0715565383 -0.665928543 -0.742575765 0.501484752 0.833985269 -0.230177343 -0.336621433 0.889303684 0.309556156 -0.0276287179 0.997458398 0.0656766966 -0.0304849371 0.999020696 0.0320679061 0.000363160332 -0.997080326 -0.0763588026 0.0925623551 -0.940736711 -0.326261699 0.896924078 0.149931252 -0.415990204 0.901051044 0.341700256 -0.267110407 0.939653814 0.188279837 -0.285659641 0.929644644 0.124061152 -0.346943378 0.816237867 0.139062524 -0.560729325 0.281081706 0.959645629 -0.00856132247 0.881626964 0.471016347 -0.0296234693 0.998093367 -0.0604087003 -0.0126667805 0.994287133 -0.0983362198 0.041509755 0.975043595 -0.22046192 0.0262027048 0.990637004 -0.0133201107 -0.135870919 0.0678448677 -0.202907652 0.976844668 0.321635604 -0.235550463 0.917096794 0.140621081 -0.318361878 0.937481403 0.163542315 -0.34311837 0.924945235 0.852384865 0.334834456 0.401653975 0.745667279 -0.0279104933 0.665733695 0.838014364 0.29082486 0.461684823 0.731849551 -0.0821652412 0.676494777 0.97708714 -0.0691616759 0.201289371 0.979590952 0.00223205355 0.200989068 0.947074711 -0.166039139 0.274737209 0.957364678 0.27822426 -0.0777438357 0.968343258 0.197453737 0.152719915 0.237935737 0.971237779 0.00914979167 0.0363133363 0.998703718 0.0356684662 0.302014381 0.953299999 0.0025236751 -0.0834887922 -0.535018504 -0.840704978 -6.50777001e-05 0.153334171 -0.988174379 8.43793023e-05 0.153210968 -0.988193512 1.94671811e-05 0.153279096 -0.988182962 0.180532217 -0.0845476016 -0.979928493 -0.297485262 0.954712689 0.00511624897 -0.564127386 0.825624406 0.0102280052 -0.578109384 0.815894485 0.0102820946 0.531233668 -0.847220361 -0.00290030451 -0.47347492 0.880807281 3.47494424e-05 -0.473459512 0.880815566 3.40081388e-05 -0.565068424 0.824902773 0.0152674122 -0.61531651 0.788280189 5.83113615e-06 -0.472494721 0.88133347 -1.26041568e-05 -0.472160041 0.881512821 -3.96262585e-05 -0.47239849 0.881385088 -2.00044869e-05 -0.54561609 0.838034511 0.00109286793 -0.294350743 -0.309720159 0.904118955 -0.0790839791 -0.41384238 0.906906962 -0.129951313 -0.344905615 0.929598212 0.00364783336 0.998718679 0.0504750945 0.0105195725 0.999060929 0.0420302823 -0.00668499246 0.99861604 0.0521663614 -0.00238562562 0.997804523 0.0661847144 -0.0792026445 0.996792972 0.0114339832 -0.0239831153 0.998963296 0.0386923812 0.00947899371 0.286453754 -0.958047152 -0.0453255251 0.160660878 -0.985968411 -0.0144569483 0.637773633 -0.770088196 -0.806712627 0.19486402 -0.557891309 -0.104648136 0.988316238 -0.110814236 -0.0645599067 0.926200151 -0.371463716 -0.174733371 0.983777821 -0.0406127572 -0.0587734878 -0.962972701 -0.263114423 -0.119849235 0.424712181 0.897360444 -0.00385478023 -0.845438957 -0.534058154 0.322715878 0.430805802 0.842769742 -0.996288955 0.0753511637 -0.0415990427 0.021784341 -0.404312611 0.914361417 0.0972717181 0.994656563 -0.0345902257 0.996062338 0.0574259982 0.0675433204 -0.108749665 0.994061828 0.0038173811 0.994399905 0.0434206948 0.0963504836 3.83207464e-07 0.999999881 0.000433921785 4.12183454e-07 0.999999881 0.000434166548 -2.50872176e-07 0.999959171 0.0090375999 0.000141514218 0.233787641 0.972287655 -2.5514322e-07 0.999959171 0.00903760735 -0.0179924238 0.863029242 0.50483346 5.43583883e-05 0.949349999 -0.314220577 5.56607229e-05 0.949349999 -0.314220607 8.86290363e-05 1 -4.36078125e-07 0.000188244507 1 -4.23744495e-07 -0.517607987 0.855617762 -0.000458606402 -0.000501861097 0.999999881 -5.264979e-07 -0.0278528556 0.999612033 -8.06139724e-07 0.000168865139 1 -3.61748278e-07 -0.000246487703 0.767531455 0.641011178 4.99099784e-08 0.999821842 -0.0188763235 -6.73515927e-08 0.999821842 -0.0188763533 0.000168844141 1 -3.61757714e-07 0.988995433 -0.0922303349 -0.115679078 0.996078491 -0.0603052527 -0.0647368431 0.998253644 -0.0590487719 0.00170953048 0.984053195 0.163158223 0.0708428174 -0.663351834 -0.0423109606 0.747110546 -0.567241609 0.341865242 0.749243021 -0.645296872 0.0738465562 0.76035428 -0.528906226 0.430676728 0.731283605 0.00594124524 0.999980867 -0.00172762608 0.00245314068 0.999910057 -0.0131845092 0.0157552008 0.999869168 0.00365729909 -0.0337158553 0.995854914 -0.0844763368 -0.016914947 0.997659385 0.0662540942 0.0335326865 0.999410748 0.00732840737 -0.040727932 0.999170184 -0.000354177493</float_array>
          <technique_common>
            <accessor source="#normals_array" count="152" stride="3">
              <param name="X" type="float" />
              <param name="Y" type="float" />
              <param name="Z" type="float" />
            </accessor>
          </technique_common>
        </source>
        <vertices id="vertices">
          <input semantic="POSITION" source="#positions" />
        </vertices>
        <triangles material="scout_b2b2b2" count="152">
          <input semantic="VERTEX" source="#vertices" offset="0" />
          <input semantic="NORMAL" source="#normals" offset="1" />
          <p>0 0 1 1 2 2 3 3 4 4 5 5 6 6 4 4 3 3 7 7 8 8 3 3 9 9 4 4 10 10 11 11 12 12 13 13 8 14 14 15 15 16 11 11 0 0 2 2 16 17 17 18 18 19 19 20 20 21 15 16 21 22 8 8 7 7 12 12 11 11 2 2 12 23 2 24 17 18 22 25 13 13 12 12 23 26 21 22 22 25 24 27 14 27 8 27 24 28 8 28 25 28 26 29 20 21 19 20 19 30 27 31 28 32 9 9 10 10 0 0 17 18 16 17 29 33 20 34 30 35 31 36 0 0 10 10 1 1 32 37 33 38 30 39 34 40 35 41 36 42 30 35 37 43 31 36 33 44 32 45 38 46 18 19 39 47 40 48 41 49 31 50 42 51 33 38 38 52 43 53 37 43 44 54 45 55 40 56 16 57 18 58 41 49 42 51 35 59 31 50 45 55 42 51 31 50 37 43 45 55 46 60 47 60 48 60 49 61 50 62 51 63 52 64 53 65 54 66 53 65 47 67 54 66 55 68 51 69 29 70 44 71 56 72 54 66 56 72 52 64 54 66 54 73 49 74 44 75 16 57 55 68 29 70 34 40 36 42 10 76 26 29 57 77 20 21 57 77 58 78 20 21 58 78 59 79 20 21 59 79 60 80 20 21 60 80 32 37 20 21 61 81 38 82 52 83 38 84 62 84 56 84 62 85 63 86 56 87 64 88 61 81 52 83 63 86 65 89 56 87 65 89 66 90 56 87 66 90 67 91 56 87 67 91 68 92 56 87 23 93 22 94 69 95 50 96 49 74 47 97 54 73 47 97 49 74 50 96 47 97 46 98 50 96 46 98 69 99 46 98 25 100 23 101 69 99 46 98 23 101 41 102 4 103 6 104 14 15 70 105 15 16 15 106 3 107 8 108 1 109 39 47 17 18 17 18 2 24 1 109 46 110 48 110 71 110 41 102 34 40 4 103 10 76 36 42 72 111 53 112 48 112 47 112 7 7 3 3 73 113 73 113 3 3 5 5 6 104 31 36 41 102 39 47 18 19 17 18 21 22 13 13 22 25 22 94 74 114 69 95 23 26 8 8 21 22 38 52 56 72 44 71 44 54 37 43 43 115 30 39 20 21 32 37 55 68 75 116 51 69 12 23 74 114 22 94 70 105 19 20 15 16 23 101 25 100 8 117 49 118 51 69 75 116 1 109 72 111 39 47 74 114 50 62 69 95 59 119 58 120 57 121 60 122 59 122 26 122 59 123 57 121 26 121 32 45 60 124 19 30 60 125 26 126 27 125 65 127 63 128 62 129 66 130 65 127 62 129 67 131 66 130 62 129 68 132 67 131 62 129 56 87 68 92 52 83 26 133 19 30 28 32 26 134 28 135 27 125 60 124 27 31 19 30 62 129 38 82 61 81 68 132 62 129 64 136 62 129 61 81 64 136 68 92 64 88 52 83 34 40 10 76 4 103 20 34 3 107 15 106 36 137 35 59 76 138 40 56 36 137 76 138 16 57 40 56 76 138 76 138 35 59 42 51 77 139 16 57 76 138 55 68 16 57 77 139 45 55 44 140 75 116 72 111 40 48 39 47 50 62 74 114 29 33 20 34 31 36 3 107 7 7 73 113 5 5 7 7 5 5 9 9 21 22 7 7 9 9 21 22 9 9 0 0 21 22 0 0 13 13 11 11 13 13 0 0 37 43 30 35 43 115 36 42 40 48 72 111 12 23 29 33 74 114 38 52 44 71 43 53 75 116 55 68 45 55 77 139 45 55 55 68 45 55 77 139 42 51 42 51 77 139 76 138 41 102 35 41 34 40 29 33 12 23 17 18 71 141 24 142 46 143 25 144 46 143 24 142 49 118 75 116 44 140 33 38 43 53 30 39 6 104 3 107 31 36 29 33 51 63 50 62 10 76 72 111 1 109 38 46 32 45 71 145 38 46 71 145 52 146 71 145 32 45 24 147 24 147 32 45 19 30 52 146 71 145 53 148 48 149 53 148 71 145 70 150 14 151 24 147 24 147 19 30 70 150 9 9 5 5 4 4</p>
        </triangles>
      </mesh>
    </geometry>
  </library_geometries>
  <library_visual_scenes>
    <visual_scene id="scene">
      <node id="right_shoulder_pitch_link">
        <instance_geometry url="#geometry">
          <bind_material>
            <technique_common>
              <instance_material symbol="scout_b2b2b2" target="#scout_b2b2b2" />
            </technique_common>
          </bind_material>
        </instance_geometry>
      </node>
    </visual_scene>
  </library_visual_scenes>
  <scene>
    <instance_visual_scene url="#scene" />
  </scene>
</COLLADA>