<?xml version='1.0' encoding='utf-8'?>
<COLLADA xmlns="http://www.collada.org/2005/11/COLLADASchema" version="1.4.1">
  <asset>
    <created>2026-09-14T00:00:00Z</created>
    <modified>2026-09-14T00:00:00Z</modified>
    <unit name="metre" meter="1" />
    <up_axis>Z_UP</up_axis>
  </asset>
  <library_effects>
    <effect id="scout_b2b2b2_effect">
      <profile_COMMON>
        <technique sid="common">
          <lambert>
            <emission>
              <color>0 0 0 1</color>
            </emission>
            <ambient>
              <color>0.35 0.35 0.35 1</color>
            </ambient>
            <diffuse>
              <color>0.7 0.7 0.7 1</color>
            </diffuse>
          </lambert>
        </technique>
      </profile_COMMON>
    </effect>
  </library_effects>
  <library_materials>
    <material id="scout_b2b2b2" name="scout_b2b2b2">
      <instance_effect url="#scout_b2b2b2_effect" />
    </material>
  </library_materials>
  <library_geometries>
    <geometry id="geometry" name="right_elbow_link">
      <mesh>
        <source id="positions">
          <float_array id="positions_array" count="237">-0.015051242 -0.031770356 -0.0136245368 -0.0284526907 -0.0243970454 -0.0115995184 -0.0158286877 -0.0244900417 -0.0260707233 -0.0016860934 -0.0247429963 -0.0310050771 -0.0282700807 -0.0247773211 0.0128119392 -0.0134516694 -0.0213838499 0.0216766689 -0.0233562645 -0.0206430275 0.00923681445 -0.0241422225 -0.0217130519 -0.00851021893 0.0465842411 -0.0151620731 -0.0325123295 0.0468471125 -0.017017765 -0.0409941934 0.0395665281 -0.0208689105 -0.0271955281 0.000491247803 -0.0322198272 0.0168740582 -0.0174419116 -0.0309161507 0.0119760158 -0.00736112893 -0.0348154455 0.00194032129 0.00641663326 -0.0256392155 0.029714385 -0.0123835402 -0.0250173099 0.0282398239 0.0390524976 -0.0312902629 -0.0316100009 0.0168216377 -0.0213131718 -0.0194355864 0.0247734822 -0.0220376551 -0.00682311971 0.0275100302 -0.0227920115 -0.0375933982 0.0374133289 -0.0224410929 0.0201341752 0.0153869046 -0.0251242891 -0.0358848274 0.044818949 -0.0231306218 -0.0408556722 0.0401583575 -0.0210448597 0.00865311362 0.0399645083 -0.00729284668 -0.0347157158 0.0477729775 0.012385725 -0.0403526463 0.0528018363 -0.000490484992 -0.047310669 0.0690289438 -0.0132045066 -0.0431241244 0.0684552863 -0.0283512715 -0.0338299237 0.0693194345 0.00923100766 -0.0422042646 0.0720363781 -0.0270762555 -0.0258623846 0.0687488243 -0.0349825323 -0.015052109 0.0723232925 -0.0313703418 -0.00858604256 0.0689558908 -0.0333465301 0.00257165008 0.0718593076 -0.0276753809 0.0045460728 0.0720837563 -0.0148731889 -0.0363411531 0.0720904842 0.00233791862 -0.0396244265 0.098533228 -0.0115709025 -0.0376123115 0.0984934568 -0.0249660853 -0.0286091082 0.0720947012 0.0112916017 0.016898416 0.0981429592 0.0193525888 0.0109771164 0.0722122937 0.0230657794 0.00576608395 0.0417932943 -0.0301640872 0.0116157783 0.0239049289 -0.0248832945 0.0245124698 0.0461541414 -0.0223335512 0.0195219088 0.0479713716 -0.0137026012 0.0206998922 0.046093531 -0.0167033318 0.0110807037 0.0681854859 -0.00851353351 0.0228397474 0.0684144944 -0.025180921 0.0164914168 0.0719624758 -0.0126529168 0.0183420964 0.0689664558 0.00676527945 0.0222111959 0.0985811502 -0.0126349535 0.0177017916 0.0984146446 -0.0254824888 0.00768745877 0.0466552861 0.0116601968 -0.0326284096 0.0400912724 0.0116375871 -0.0310861208 0.046783898 0.0136069721 0.0102008563 0.06932576 0.0257348064 -0.029131934 0.0721278489 0.0180170201 -0.0317184329 0.0721905082 0.0281112473 -0.0130496575 0.0692380667 0.0312533975 -0.0133299325 0.0686324239 0.0269666929 0.00731335022 0.098497048 0.0275535472 -0.00649644667 0.098609969 0.0226010997 -0.02685396 0.0465956479 0.00155080308 0.0161070675 0.0482624397 0.00602794858 0.022080401 0.0482394882 0.0233820453 0.0112281665 0.0985035896 0.00525587704 0.0185684953 0.0479515046 0.0301904082 -0.0022776674 0.0482017994 0.0290271435 -0.023633182 0.0994636938 0.0137267578 0.00508814119 0.099647291 -0.0153551856 0.00759233348 0.0981634855 -0.0313913561 -0.00848251209 0.0995353684 0.015688682 -0.0224659853 0.0994680077 -0.00656852592 -0.0309789702 0.0986243263 0.00558003644 -0.0385410264 0.00758330245 -0.0216878578 0.0246018656 0.0224301666 -0.0213903468 0.0121798757 -0.0107011488 -0.0215154644 -0.0238779802 0.0400836989 0.00980656408 0.012717152</float_array>
          <technique_common>
            <accessor source="#positions_array" count="79" stride="3">
              <param name="X" type="float" />
              <param name="Y" type="float" />
              <param name="Z" type="float" />
            </accessor>
          </technique_common>
        </source>
        <source id="normals">
          <float_array id="normals_array" count="453">-0.313236654 -0.915188611 -0.253599197 -0.493811399 -0.856874287 -0.148043036 -0.289766937 -0.833919287 -0.46969533 -0.155411243 -0.869379103 -0.469070643 -0.475494593 -0.865531445 0.157353789 -0.157053903 -0.985357642 0.0663656741 -0.697218359 0.695479155 -0.173767745 -0.466570616 0.884483695 0.00067908538 -0.280378908 0.959260881 0.0347308926 -0.0261543095 -0.944712341 0.3268556 -0.353990048 -0.909683526 0.217179567 -0.144292548 -0.98901391 0.0321116596 0.0431394652 -0.886255801 0.461182863 -0.19694069 -0.881358624 0.429443032 -0.0357576013 -0.895663321 -0.443292916 0.0191968009 0.996389031 -0.0827066675 0.0955940485 0.995247006 -0.018578155 -0.153630257 0.987879336 -0.0221840888 -0.147325799 0.946582437 0.286839336 -0.136594236 -0.862313807 -0.487603217 -0.0660597384 -0.397969037 -0.915017366 -0.177747518 0.199013814 -0.963742375 -0.102068909 -0.076713413 -0.991814971 -0.474002749 0.880501151 -0.00625062687 -0.266351908 -0.461064935 -0.846448898 -0.775026858 0.0381668322 -0.630774677 0.523576379 -0.254796773 -0.812986076 0.0932487994 -0.786557376 -0.610436022 0.0804813728 0.0716145039 -0.994180143 0.493493259 0.349426031 -0.796470881 0.872952998 -0.353895307 -0.33572495 0.805881083 -0.526313961 -0.271199644 0.784503162 -0.608876109 -0.117578305 0.733856857 -0.678751349 0.0273982231 0.812710226 -0.545193911 0.205586076 0.831822574 -0.475164026 0.286862999 0.841729224 -0.295579225 -0.451801807 0.788932145 0.0526735932 -0.612218559 0.026124185 -0.320443064 -0.946907461 0.0274639372 -0.794875205 -0.606151044 -0.0154989231 -0.434385896 -0.900593519 -0.99911809 0.038531065 0.0166836716 -0.999968827 0.00667818962 0.00420617778 -0.999831319 0.0157437604 0.00946124736 -0.0309412591 0.397568733 0.9170506 0.0314682722 0.727158844 0.685747564 -0.0268586501 0.859691441 0.5101071 0.0944319963 -0.891436338 0.44319725 0.2161396 -0.761173189 0.611472905 0.0708274543 -0.473796576 0.877781451 0.0284477919 0.833059907 0.552450776 -0.012586996 0.958738148 0.284011811 -0.0542172641 -0.108185433 0.992651224 0.0709206164 -0.1495336 0.986209929 -0.629523635 0.768161952 -0.116735853 -0.606895208 0.790666282 -0.0807776824 0.367419809 -0.11677099 0.922695637 0.47944057 -0.572796345 0.664861739 0.718938947 -0.214382902 0.661185861 0.84001857 0.0215861611 0.542128086 0.0193804521 -0.614815176 0.788433075 -0.0135223819 -0.655180812 0.755351126 0.0165962055 -0.802784204 0.59603864 -0.990753949 0.0838143677 -0.106685124 -0.990268826 0.0623364411 -0.124425791 -0.998143375 0.0276219547 -0.0542844422 -0.0140985968 0.998871207 -0.0453606993 -0.0619559027 0.997372985 -0.037531551 -0.447567046 0.893749714 0.0299189463 -0.0182153024 0.596590936 -0.802338719 0.00970214326 0.805338204 -0.592736244 0.780652404 0.40946883 -0.472140938 0.854138434 0.436397195 -0.282851547 -0.176794231 0.215411901 -0.960386157 0.75542593 0.654365122 -0.0337329321 0.72982496 0.682859123 -0.0325412974 0.3813878 0.78518784 0.487876415 0.0413999557 0.993019402 0.110446945 0.0357945375 0.819487274 -0.57197845 -0.0233763102 0.993256629 -0.113555558 -0.971830964 0.0353347361 0.233015001 -0.973521709 0.073755756 0.216369197 -0.983970046 0.132557824 0.119295478 -0.020593958 0.726773202 0.686568737 -0.0417836607 0.257425308 0.965394378 0.0666725859 0.359637916 0.930706918 0.851215303 0.0269005336 0.524126768 0.47504428 0.533051014 0.70013541 0.754948795 0.553017914 0.35245353 0.0175668728 0.207958668 0.977979839 -0.0215220489 0.0192595925 0.999582827 0.00399839412 -0.996337175 -0.0854180232 -0.0358213857 0.977819443 0.206363797 0.0186288916 0.997633338 -0.0661867633 -0.0454178043 0.912505865 -0.406534404 -0.982756793 0.113105252 0.146274656 0.995842993 0.0664909706 0.0622551367 0.98706007 0.117453381 0.109165348 0.996317327 0.0198262595 0.0834188536 0.996437728 -0.0572154075 0.0619534478 0.994295359 -0.0222704187 0.104310825 0.991139233 -0.120103739 0.0567280054 0.997200072 -0.0739329532 -0.0112217255 0.995344937 0.0948836133 0.0168997329 0.997658074 0.0572211966 -0.0374706164 0.993673265 0.0946684703 -0.0604260005 0.997335732 -0.034995053 -0.0640065074 0.995778322 0.0244234856 -0.0884816274 -0.111538745 0.14760451 -0.982737005 0.310525715 -0.00493627368 -0.950552166 0.23942633 0.0223771781 -0.970656633 0.193644807 0.892842829 0.406612068 0.0190092195 0.996979892 0.0752973482 -0.188750878 0.940952718 0.281035691 0.0479720384 0.998816788 -0.00798171479 -0.138722211 0.938778937 -0.315357327 -0.305946708 0.947869241 -0.0891096219 -0.0261981729 -0.965013981 0.260886282 -0.00799061544 -0.855881989 0.517109454 0.0240523685 -0.0482692607 0.998544693 -0.000877795625 -0.999869347 0.0161388218 0.0278352685 -0.999366283 0.0221865885 -0.00800074916 0.138546556 -0.990323603 -0.00213279435 -0.855863333 -0.517197669 0.0382604599 0.270443112 -0.961975396 -0.0222821869 0.684909284 -0.728287518 -0.999997139 -0.00238409895 -0.000272552774 -0.999989688 0.0025366568 0.00377436075 0.99975419 0.0102474596 0.0196620282 0.995725155 -0.0540416278 -0.0749058127 -0.133367375 0.967986286 -0.212639853 -0.00731487479 0.934031546 -0.357115626 -0.31576845 0.855907798 -0.409526736 -0.326147318 0.936053455 0.13202998 -0.17770794 0.838871598 0.514504015 0.127288342 0.770525634 0.624570251 0.48966825 0.632255793 0.600397944 -0.427366406 0.88709563 -0.174411237 0.038133461 0.96263957 0.268087417 -0.976538599 -0.0236271229 0.21404247 -0.979398489 -0.0281225797 0.199969217 -0.330770284 -0.209326923 0.920202851 -0.200411126 -0.254959971 0.945954978 -0.529718995 -0.125792921 0.838793099 -0.564359367 -0.109157532 0.818280578 -0.993998826 0.104783893 -0.0314105041 -0.996106267 0.0872462913 0.0126655865 -0.998755693 0.0322786123 -0.0380156673 -0.22539188 0.184913695 -0.956559181 -0.482635736 0.875060499 0.0364950709 0.088216275 0.437109947 0.895071387</float_array>
          <technique_common>
            <accessor source="#normals_array" count="151" stride="3">
              <param name="X" type="float" />
              <param name="Y" type="float" />
              <param name="Z" type="float" />
            </accessor>
          </technique_common>
        </source>
        <vertices id="vertices">
          <input semantic="POSITION" source="#positions" />
        </vertices>
        <triangles material="scout_b2b2b2" count="154">
          <input semantic="VERTEX" source="#vertices" offset="0" />
          <input semantic="NORMAL" source="#normals" offset="1" />
          <p>0 0 1 1 2 2 0 0 2 2 3 3 0 0 4 4 1 1 5 5 6 5 7 5 8 6 9 7 10 8 11 9 12 10 13 11 14 12 15 13 11 9 0 0 3 3 16 14 13 11 0 0 16 14 17 15 18 16 19 17 18 16 20 18 19 17 21 19 22 20 16 14 19 21 9 22 22 20 20 18 10 8 19 17 20 18 23 23 10 8 24 24 8 24 10 24 25 25 26 25 9 25 22 20 27 26 28 27 26 28 29 29 27 26 9 22 26 28 27 26 28 30 30 31 31 32 30 31 32 33 31 32 32 33 33 34 31 32 32 33 34 35 33 34 27 26 30 31 28 30 27 26 35 36 30 31 36 37 35 36 27 26 37 38 38 39 35 40 10 41 23 42 24 43 39 44 40 45 41 46 14 12 42 47 43 48 44 49 43 48 42 47 44 50 20 18 43 51 45 52 20 53 44 49 20 18 45 54 46 55 20 18 46 55 23 23 4 4 0 0 12 10 47 56 44 49 48 57 34 35 48 57 33 34 49 58 48 57 34 35 49 58 47 56 48 57 50 59 47 56 49 58 51 60 49 61 52 62 53 63 25 64 8 65 53 66 54 67 55 68 29 29 36 37 27 26 25 69 56 70 29 29 29 29 57 71 36 37 56 72 57 71 29 29 21 73 19 21 22 20 56 72 58 74 57 71 56 72 59 75 58 74 59 75 60 76 58 74 61 77 62 78 58 79 63 80 64 81 65 82 65 83 64 84 50 85 14 12 11 9 42 47 39 86 50 59 49 58 41 46 61 77 58 79 60 76 50 85 39 87 41 88 60 76 39 87 60 76 41 88 58 74 66 89 39 44 49 90 31 91 13 11 16 14 67 92 59 93 68 94 4 4 12 10 15 13 0 0 13 11 12 10 9 7 19 17 10 8 15 13 12 10 11 9 55 95 63 80 65 82 69 96 40 97 66 98 70 99 69 96 51 100 52 101 71 102 70 99 70 99 51 100 52 101 66 98 51 100 69 96 40 97 69 96 61 103 61 103 69 96 72 104 62 105 61 103 72 104 72 104 73 106 74 107 74 107 62 105 72 104 16 14 3 3 21 19 53 108 8 109 24 110 26 28 25 69 29 29 75 111 76 112 17 15 17 15 76 112 18 16 75 111 17 15 5 113 6 114 5 113 77 115 6 114 77 115 7 116 77 115 5 113 17 15 33 117 42 47 31 91 48 57 44 49 42 47 52 62 49 61 34 118 31 91 16 14 28 27 66 89 49 90 51 119 9 22 27 26 22 20 34 118 32 120 71 121 36 122 37 38 35 40 38 39 71 121 30 123 38 39 30 123 35 40 74 124 57 125 62 78 32 120 30 123 71 121 78 126 54 127 23 42 54 127 24 43 23 42 38 128 37 129 71 102 37 129 74 107 73 106 37 129 73 106 71 102 17 15 19 17 21 130 77 115 17 15 3 131 17 15 21 130 3 131 7 116 77 115 2 132 5 113 7 116 4 133 75 111 5 113 15 134 14 135 75 111 15 134 76 136 75 111 14 135 77 115 3 131 2 132 2 132 1 137 7 116 1 137 4 133 7 116 20 18 18 16 76 112 20 18 76 112 43 51 5 113 4 133 15 134 14 138 43 51 76 112 45 139 63 80 46 140 23 141 46 142 63 143 78 144 23 141 63 143 42 47 33 117 48 57 47 56 45 52 44 49 47 56 50 85 64 84 45 52 47 56 64 84 71 102 73 106 70 99 70 99 73 106 72 104 70 99 72 104 69 96 22 20 28 27 16 14 52 62 34 118 71 121 68 145 25 64 53 63 53 63 55 95 67 146 55 95 65 82 67 146 53 63 67 146 68 145 25 64 9 147 8 65 53 108 24 110 54 148 54 67 78 149 55 68 78 150 63 150 55 150 68 94 56 70 25 69 42 47 11 9 31 91 13 11 31 91 11 9 74 124 36 122 57 125 59 93 67 92 60 76 45 139 64 81 63 80 61 77 41 46 40 45 65 83 50 85 60 76 56 70 68 94 59 93 36 122 74 124 37 38 60 76 67 92 65 83 58 79 62 78 57 125 39 44 66 89 40 45</p>
        </triangles>
      </mesh>
    </geometry>
  </library_geometries>
  <library_visual_scenes>
    <visual_scene id="scene">
      <node id="right_elbow_link">
        <instance_geometry url="#geometry">
          <bind_material>
            <technique_common>
              <instance_material symbol="scout_b2b2b2" target="#scout_b2b2b2" />
            </technique_common>
          </bind_material>
        </instance_geometry>
      </node>
    </visual_scene>
  </library_visual_scenes>
  <scene>
    <instance_visual_scene url="#scene" />
  </scene>
</COLLADA>