<?xml version='1.0' encoding='utf-8'?>
<COLLADA xmlns="http://www.collada.org/2005/11/COLLADASchema" version="1.4.1">
  <asset>
    <created>2026-09-14T00:00:00Z</created>
    <modified>2026-09-14T00:00:00Z</modified>
    <unit name="metre" meter="1" />
    <up_axis>Z_UP</up_axis>
  </asset>
  <library_effects>
    <effect id="scout_b2b2b2_effect">
      <profile_COMMON>
        <technique sid="common">
          <lambert>
            <emission>
              <color>0 0 0 1</color>
            </emission>
            <ambient>
              <color>0.35 0.35 0.35 1</color>
            </ambient>
            <diffuse>
              <color>0.7 0.7 0.7 1</color>
            </diffuse>
          </lambert>
        </technique>
      </profile_COMMON>
    </effect>
  </library_effects>
  <library_materials>
    <material id="scout_b2b2b2" name="scout_b2b2b2">
      <instance_effect url="#scout_b2b2b2_effect" />
    </material>
  </library_materials>
  <library_geometries>
    <geometry id="geometry" name="right_hand_thumb_1_link">
      <mesh>
        <source id="positions">
          <float_array id="positions_array" count="138">-0.00553361326 -0.00498881331 0.0129033141 -0.0051805689 -0.0057103415 0.00961725041 0.00529568736 -0.00545013929 0.0129053211 -0.005429151 0.0404224657 0.012819903 0.00860286318 0.0390206985 0.00994286872 -0.00585604925 0.0411946066 0.00959175266 -0.00693288352 0.0396690667 -0.0126367947 -0.00824699923 0.0546808466 -0.0096630957 -0.00752825104 0.0417199358 -0.0096868379 0.00905727223 0.0197920743 0.010467683 -0.00520555722 0.0196506903 -0.00911231991 0.00797643978 0.0198484901 -0.0095391525 0.0065321913 0.00450658472 0.0111500919 0.00569287036 -0.00477889879 0.00958729908 -0.0117031196 0.0539016873 0.0129106939 -0.0125297653 0.0187339745 -0.0116768638 -0.0125171589 0.0188297722 0.0119971223 -0.00749692786 0.0188592114 0.00959182438 -0.00750214467 0.0185963195 0.0128085902 -0.00529707596 0.0541628562 0.0119509995 0.00433884282 -0.0037856847 -0.0127172275 -0.00397259416 -0.00456554024 -0.00959065743 -0.00409686193 -0.0042567607 -0.0127153005 0.00464816112 -0.00349222939 -0.0096118534 -0.00548555097 0.0132520301 -0.00932150241 0.01321242 0.0202091206 -0.00899506453 -0.00640264153 0.0131992307 0.00910566095 0.00933923665 0.0442083888 -0.00914075784 0.00921529345 0.0442407131 0.0097359512 0.0141411228 0.0433622561 -0.00881097931 0.014450578 0.0426976867 0.0100545641 0.0145641966 0.0229185782 -0.00832047127 0.0142350486 0.020597497 0.00999300927 -0.000961004291 0.0374752097 -0.0096622752 0.0071040499 0.0377944149 -0.0126759522 -0.0102323014 0.0546879508 -0.0127838776 0.00649488578 0.0528516993 0.00944161322 0.00648327451 0.0529403612 -0.00941767823 0.00777429156 0.0388418809 0.012876384 -0.0051910691 0.0196278356 0.0091435425 0.00579451118 0.0181698874 0.0128328754 -0.006052176 0.0135225859 -0.0126776434 -0.00739224348 0.0183957256 -0.0120196929 0.00686736638 0.0190388877 -0.0126310093 0.00593233062 0.0184377264 0.00971472915 0.00860342197 0.0375048779 -0.00969152246</float_array>
          <technique_common>
            <accessor source="#positions_array" count="46" stride="3">
              <param name="X" type="float" />
              <param name="Y" type="float" />
              <param name="Z" type="float" />
            </accessor>
          </technique_common>
        </source>
        <source id="normals">
          <float_array id="normals_array" count="390">-0.0416509695 -0.976812482 0.210006058 -0.0187332537 -0.990248024 0.138050228 0.0613261387 -0.991242349 -0.116951525 0.137675658 0.970341444 0.198702961 0.121928975 0.985934913 0.114305146 0.140221581 0.966992557 0.212751657 0.985440791 0.0543525554 0.16109696 0.0790332183 -0.996866047 0.00344728795 0.0136136254 -0.999903679 -0.00269645592 0.040535327 -0.999165535 -0.00500726374 0.989639938 -0.105790347 0.0970630422 -0.998264968 0.0476494618 -0.0345911942 -0.999007523 0.0387891978 -0.0218933132 -0.999730885 0.0231929086 0.000438511895 -0.0066093849 -0.999639332 -0.026029788 -0.012294773 -0.999606013 -0.0252317134 -0.0331890918 -0.996123612 -0.0814629644 0.990635812 -0.0180800054 -0.135328636 0.109144688 -0.993119895 0.0424299091 0.0708193704 -0.99567759 -0.0600895844 0.0554517768 -0.993403256 -0.100374512 0.98482734 -0.137307182 -0.106121883 0.944696248 -0.0533235595 -0.32358247 0.986440778 -0.140397206 -0.0849894062 0.123337932 -0.989038825 0.0811782628 -0.983937442 -0.105896056 0.143711925 -0.995095909 -0.0877672806 0.0456182212 -0.995889127 -0.0850361288 0.0312034246 0.082619898 -0.996574223 -0.00371573167 0.996396422 -0.0754469484 0.0387544632 0.987800896 -0.155408785 0.00987305027 0.997745931 -0.0452786982 0.0495265201 0.173571348 0.984821141 -0.00054678903 0.264212161 0.96415323 0.0245055091 0.1923237 0.981320739 0.00459945528 0.280957103 0.959276497 0.0291837901 0.97539705 -0.219653174 -0.0187892038 0.998497903 -0.053643778 0.0111470781 0.89800626 -0.438214958 -0.039400246 0.121293381 0.899444759 0.419865549 0.105204344 0.919427752 0.378925711 0.0209795926 0.986786246 0.160663575 0.999979913 0.00630683126 -0.000605577021 -0.0407977588 0.998768628 0.0282270089 -0.0367004462 0.998909533 0.0288593862 0.013794072 0.999677479 0.0213232543 0.111476116 0.993756473 0.00460377522 0.115378968 0.993298411 0.00678120833 0.03680823 0.999163628 0.0178086683 0.117945217 0.988601267 0.0935762525 0.830557585 0.17729035 -0.527960479 0.011643271 -0.999931395 -0.00126085395 -0.996552527 0.0619817451 -0.0551483594 0.60513705 -0.0596254617 0.79388535 -0.00383508601 -0.0627448335 0.998022258 -0.00346080866 -0.000737261318 0.999993742 -0.0378745161 -0.0133150192 0.999193788 0.0658470243 0.0227204096 0.997571051 -0.0154902209 -0.00638081832 0.999859631 0.0940238386 0.0370626599 0.994879842 -0.137134805 0.00727235805 0.990525723 0.145446509 0.0610474385 0.987480879 0.0801177099 0.0816218704 0.993438005 0.00717599178 0.172739983 0.984941304 -0.335043162 -0.942003548 -0.0193737578 -0.0540968627 -0.998360932 0.0186797213 -0.0642810389 -0.997709036 0.0210857801 -0.981923401 -0.18905808 -0.00913378783 -0.96772933 -0.251449883 -0.0165200084 -0.986418426 -0.13567397 -0.0925813541 -0.964693069 -0.262659669 -0.0194196571 -0.993513823 -0.0666995272 -0.0920946226 -0.992506564 -0.0685433745 -0.101155773 -0.985883176 -0.15049383 -0.0733887777 0.944583416 -0.065636389 -0.321642637 0.0833135918 -0.978628099 -0.188004866 0.0944056809 -0.0405394807 -0.994708061 0.0533895157 0.0198404975 -0.998376667 0.0834226012 0.173810855 -0.981239259 0.087398909 0.00445500715 -0.996163428 0.0791902095 0.0585164055 -0.995140553 -0.0170590002 0.167445824 -0.985733688 0.0328551196 -0.03409262 0.998878479 0.0217000321 -0.0172445495 0.999615788 0.0233337991 -0.0146370009 0.999620557 0.00979491603 -0.0114104981 0.99988693 0.00429374445 -0.0147397928 0.999882162 0.491738945 0.758319557 -0.427953511 -0.981643081 -0.108290367 0.157003179 0.0133880954 0.00726711517 -0.99988395 0.0169858802 0.00277351891 -0.999851882 0.0315083265 -0.00128175132 -0.999502659 0.0176989958 0.021901492 -0.99960345 0.0538469292 0.0378459729 -0.997831762 0.0860038027 0.0391869582 -0.99552387 0.104185723 -0.0122817745 -0.99448204 0.192477539 -0.0102908583 -0.981247425 0.126642331 0.0407077074 -0.991112828 0.952634454 0.304109454 0.00224657939 0.950385153 0.311023384 0.00570749212 0.951299965 0.30823651 0.00431128358 0.953537703 0.301272482 0.000829278433 0.999670684 0.020311391 -0.0156822857 0.465038985 -0.0116152279 -0.885213971 0.154756919 -0.987881243 0.0118710184 0.982700408 -0.185199454 -0.00101176626 0.997686565 0.0479269512 0.0482136682 0.0835822523 0.329911292 -0.940304518 0.0767436624 -0.0685001463 0.994695008 -0.0158118755 0.0211590696 0.999651074 0.0740677267 -0.0626446158 0.995283663 0.185032219 -0.183610961 0.965427399 -0.00780628668 0.0405213647 0.99914819 0.409100354 -0.910506189 -0.0601276383 -0.0312262271 0.0193043221 0.999325931 0.0867439657 0.0292287283 0.995801747 0.0684068501 0.0236271676 0.997377694 0.961428106 0.0301822592 0.273395419 -0.00278747198 0.995187461 0.0979495645 0.898569643 -0.0328079611 -0.437602788 0.891615272 -0.0355568714 -0.451395452 -0.0195971634 0.00561884232 -0.999792159 0.000570108241 0.00262927962 -0.999996364 -0.0200386122 0.0544317812 -0.998316407 -0.0530096851 0.0178759694 -0.998434007 -0.000344649365 0.00208012364 -0.999997795 -0.0690436512 -0.0272677932 -0.997240901 -0.0552631095 -0.0217695087 -0.998234451 -0.0738131031 -0.0259787012 -0.996933639 -0.00310444576 -0.00235705287 -0.99999243</float_array>
          <technique_common>
            <accessor source="#normals_array" count="130" stride="3">
              <param name="X" type="float" />
              <param name="Y" type="float" />
              <param name="Z" type="float" />
            </accessor>
          </technique_common>
        </source>
        <vertices id="vertices">
          <input semantic="POSITION" source="#positions" />
        </vertices>
        <triangles material="scout_b2b2b2" count="88">
          <input semantic="VERTEX" source="#vertices" offset="0" />
          <input semantic="NORMAL" source="#normals" offset="1" />
          <p>0 0 1 1 2 2 3 3 4 4 5 5 6 6 7 6 8 6 9 7 10 8 11 9 12 10 2 10 13 10 14 11 15 12 16 13 16 14 17 15 18 16 5 17 19 17 3 17 20 18 21 19 22 20 20 21 11 22 23 23 20 18 23 24 21 19 24 25 22 26 21 27 11 9 25 28 9 7 10 29 26 30 24 31 27 32 28 33 29 34 28 33 30 35 29 34 31 36 32 37 25 38 6 39 33 40 34 41 31 36 30 42 32 37 35 43 14 44 7 45 36 46 37 47 19 48 37 47 7 45 19 48 7 45 14 44 19 48 3 3 38 49 4 4 6 50 35 50 7 50 9 7 39 51 10 8 14 11 35 52 15 12 40 53 9 53 38 53 40 54 38 55 18 56 12 57 40 54 18 56 38 55 3 58 18 56 14 59 16 60 3 58 16 60 18 56 3 58 3 58 19 61 14 59 12 57 18 56 0 62 2 63 12 57 0 62 26 64 41 64 24 64 15 65 42 66 17 15 17 15 16 14 15 65 17 67 42 68 26 69 26 69 42 68 41 70 1 71 0 72 26 69 0 72 18 73 26 69 18 73 17 67 26 69 20 21 43 74 11 22 13 75 2 2 1 1 26 76 39 77 44 78 26 76 44 78 12 79 26 76 12 79 1 80 12 79 13 81 1 80 10 82 24 83 11 84 23 85 11 84 24 83 24 83 21 86 23 85 6 87 8 87 33 87 24 25 41 88 22 26 8 89 7 90 37 91 8 89 37 91 33 92 33 92 37 91 27 93 45 94 33 92 27 93 11 95 45 94 25 96 25 96 45 94 29 97 45 94 27 93 29 97 28 98 27 99 37 100 37 100 36 101 28 98 30 42 31 36 29 102 25 96 29 97 31 103 25 28 32 104 9 7 10 29 39 105 26 30 12 106 44 106 40 106 39 77 9 107 44 78 5 108 4 109 36 110 36 110 19 111 5 108 36 110 4 109 28 112 44 113 9 113 40 113 28 112 4 109 30 114 4 109 9 115 32 116 32 116 30 114 4 109 9 117 4 117 38 117 33 40 45 118 34 41 43 74 34 119 11 22 34 119 45 120 11 22 43 121 20 122 41 123 43 121 41 123 42 124 22 125 41 123 20 122 42 124 15 126 6 127 15 126 35 128 6 127 43 121 42 124 6 127 34 129 43 121 6 127</p>
        </triangles>
      </mesh>
    </geometry>
  </library_geometries>
  <library_visual_scenes>
    <visual_scene id="scene">
      <node id="right_hand_thumb_1_link">
        <instance_geometry url="#geometry">
          <bind_material>
            <technique_common>
              <instance_material symbol="scout_b2b2b2" target="#scout_b2b2b2" />
            </technique_common>
          </bind_material>
        </instance_geometry>
      </node>
    </visual_scene>
  </library_visual_scenes>
  <scene>
    <instance_visual_scene url="#scene" />
  </scene>
</COLLADA>