<?xml version='1.0' encoding='utf-8'?>
<COLLADA xmlns="http://www.collada.org/2005/11/COLLADASchema" version="1.4.1">
  <asset>
    <created>2026-09-14T00:00:00Z</created>
    <modified>2026-09-14T00:00:00Z</modified>
    <unit name="metre" meter="1" />
    <up_axis>Z_UP</up_axis>
  </asset>
  <library_effects>
    <effect id="scout_b2b2b2_effect">
      <profile_COMMON>
        <technique sid="common">
          <lambert>
            <emission>
              <color>0 0 0 1</color>
            </emission>
            <ambient>
              <color>0.35 0.35 0.35 1</color>
            </ambient>
            <diffuse>
              <color>0.7 0.7 0.7 1</color>
            </diffuse>
          </lambert>
        </technique>
      </profile_COMMON>
    </effect>
  </library_effects>
  <library_materials>
    <material id="scout_b2b2b2" name="scout_b2b2b2">
      <instance_effect url="#scout_b2b2b2_effect" />
    </material>
  </library_materials>
  <library_geometries>
    <geometry id="geometry" name="right_hand_thumb_2_link">
      <mesh>
        <source id="positions">
          <float_array id="positions_array" count="138">-0.00853397977 0.00965266582 -0.00353147835 -0.00831424538 0.0208822731 -0.00852304697 -0.006771354 0.0100628706 -0.00965475757 -0.00880694948 0.02917796 -0.000999139389 -0.00696745282 0.0339004248 -0.0116247432 -0.00677569164 0.0204737671 -0.0124023706 0.00473738508 0.0203905292 -0.0112499744 -0.00481828488 0.0500079393 -0.00770029658 -8.72611345e-05 0.0452737659 -0.00955609418 0.00372387492 0.0314291492 -0.01079694 -0.000987558742 0.0515177436 -0.00507459277 -0.00797865633 0.0190795138 0.00911403727 -0.00791704934 0.0102714766 0.00809735525 -0.00707673607 0.034862645 0.0111125959 -0.0056435368 0.0110025425 0.00982172135 -0.0071674441 0.0195235293 0.0125995772 0.000804617011 0.032050468 0.0112880059 -0.00539611839 0.0454834029 0.00984884519 0.00283382065 0.0467022434 0.00699308375 -0.00399355637 0.0515836179 0.00633370085 0.00170852174 0.0502170958 0.00257888087 0.00715731643 0.0187731944 -0.00913210493 0.00902325101 0.0209768191 0.00181413698 0.00730720675 0.0198585577 0.00886092614 0.00275557581 0.0154017918 -0.00863444712 0.00154845777 0.0151726427 -0.00865697581 -0.00423197821 0.0139151514 -0.00972118601 0.00368510466 0.0155788735 -0.00859857723 0.00421935832 -0.00424727798 0.012943984 0.00627309829 0.0159570277 0.00962394942 0.00727331685 0.0184214879 0.012990308 0.00382658024 0.0445324183 -0.0073108091 0.0058109439 0.0432390794 0.00211312226 -0.00432225736 -0.00397344027 0.0130029125 -0.00475409254 -0.00320384931 0.00988118257 0.00422673998 0.0156824496 -0.00857744832 0.00709658675 0.0340083763 -0.00682602404 0.00837948453 0.0283828173 0.00119723915 0.00681820558 0.0285061654 0.00902001373 0.00321888668 0.020330878 0.0114375949 0.00425921567 0.0388010144 0.00912959501 0.00362468418 -0.00491690217 0.00984600931 0.00468316115 -0.00616628397 -0.00996908452 -0.0058287154 -0.004346448 -0.00998859387 -0.00533360476 -0.00537142903 -0.0128056416 0.00546126068 -0.00508717773 -0.0128589803</float_array>
          <technique_common>
            <accessor source="#positions_array" count="46" stride="3">
              <param name="X" type="float" />
              <param name="Y" type="float" />
              <param name="Z" type="float" />
            </accessor>
          </technique_common>
        </source>
        <source id="normals">
          <float_array id="normals_array" count="297">-0.99478364 -0.0499664657 -0.0889316723 -0.973632634 -0.0190613382 -0.227323815 -0.969483733 -0.0730213523 -0.234028161 -0.996673405 0.0812233537 -0.00669700978 -0.983285904 0.114286602 -0.141730204 -0.93586123 -0.0445020311 -0.349547237 0.0866483003 0.0558730662 -0.994670928 0.0682832003 0.107943274 -0.991809309 0.0975142717 0.060344398 -0.993403018 -0.981245637 0.192287564 -0.0135086756 0.132425889 0.473652214 -0.870699108 0.249961451 0.360985816 -0.898447812 0.430221498 0.11375387 -0.895527542 0.601249456 0.626438856 -0.496057928 -0.985749722 -0.0576856881 0.15801838 -0.998120606 -0.0189398266 0.058279898 -0.988892198 0.114737757 0.0944852531 0.315676332 -0.948343337 0.0315173045 0.288106531 -0.957133293 0.0298412759 0.332358599 -0.942592084 0.0325263701 0.285511971 -0.957915366 0.0296830181 -0.581385016 -0.0973068476 0.807788849 -0.976150751 -0.0950861275 0.195162281 0.016211275 0.107439026 0.994079471 0.0722520128 0.0582673997 0.995682955 0.206354976 0.105568632 0.972765565 -0.979291677 0.199748516 0.0329903215 0.200676993 0.301039636 0.932257414 0.629719138 0.478714645 0.611789227 0.345263928 0.735800683 0.582571983 0.63113606 0.765417516 0.125711322 0.27380085 0.959477425 0.0666044578 0.75329572 -0.655933261 -0.0479278006 0.65567112 -0.753985345 0.0400194637 0.947606504 -0.318693608 -0.0218237378 0.181789309 -0.976559401 0.115258075 0.193903252 -0.978389621 0.0718006641 0.579009831 -0.814482868 -0.0369492061 0.178082123 -0.967741251 0.178223521 0.978380561 -0.126354873 -0.163725048 0.968051016 -0.224686727 -0.111324236 0.96911788 -0.203923658 -0.13865687 0.758984208 0.41019991 -0.505647182 0.936722398 0.338978946 0.087432079 -0.994299054 -0.0707847849 0.0797423795 -0.986212909 -0.135272384 -0.0953180343 -0.990637839 -0.0615125299 0.12187244 0.178115174 -0.967770576 0.178031296 0.197137788 -0.351182073 -0.915318429 0.805673361 0.0669422373 -0.58856535 0.687201977 0.0831858739 -0.721688032 0.903218567 0.166274846 -0.395662665 0.991830766 0.118016712 0.0484128818 0.997328997 0.0609426275 0.0402601771 0.42425558 0.0781878904 0.902160645 0.326801866 0.0404001139 0.944229007 0.270809382 0.199691206 0.941693008 0.534344912 0.0146680856 0.845139265 0.96528554 0.127983049 0.227693066 0.907734752 0.233590782 0.348501086 0.968512893 0.0502815098 0.243832931 -0.970215499 0.240375265 0.0300277602 -0.163442254 -0.979380906 -0.118742242 -0.196728408 -0.957935631 -0.208943307 -0.067399852 -0.989722908 0.126118213 -0.162631422 -0.936059058 0.312000722 0.834550738 -0.550500929 -0.0217662752 0.453695655 -0.885616064 -0.0992192775 0.33515504 -0.93843317 -0.083751142 0.302726299 0.899352789 0.31547001 0.109796815 0.756971717 0.644157171 0.229949132 0.859497666 0.456494391 -0.00534350891 0.0153031293 -0.999868631 0.0228340272 0.028783014 -0.999324858 -0.02978874 -0.975797892 0.216635928 0.717545867 -0.692962646 -0.070218876 0.0625537261 -0.501643121 0.862810075 0.187158436 -0.982311666 -0.00595444255 -0.985649824 -0.059572529 -0.15794155 -0.986617744 -0.0610402562 -0.151193589 0.969449103 -0.103636786 0.222323835 0.681562364 0.0653929189 -0.728832245 -0.31257996 0.945822775 -0.087823756 -0.0132610844 -0.0182287637 0.999745905 0.0196016915 -0.00552921323 0.999792576 -0.0130481543 -0.0226253159 0.999658883 -0.00593225425 -0.0235493332 0.999705076 -0.039013356 -0.0296497494 0.998798728 0.978939295 -0.125914052 -0.16069679 0.0230138078 -0.938585818 -0.344277591 0.00680403039 -0.00296008773 0.999972463 -0.0185299534 0.0101571614 0.999776721 -0.00457942672 0.00293401349 0.999985218 -0.0259761903 0.0140125323 0.99956435 -0.0128497761 -0.00900650956 -0.999876857 -0.00849735923 -0.00647272309 -0.999942958 -0.0109614357 -0.00790720526 -0.999908686 -0.00511893537 -0.00450592535 -0.999976754 0.0310034547 0.669419527 0.742237329</float_array>
          <technique_common>
            <accessor source="#normals_array" count="99" stride="3">
              <param name="X" type="float" />
              <param name="Y" type="float" />
              <param name="Z" type="float" />
            </accessor>
          </technique_common>
        </source>
        <vertices id="vertices">
          <input semantic="POSITION" source="#positions" />
        </vertices>
        <triangles material="scout_b2b2b2" count="88">
          <input semantic="VERTEX" source="#vertices" offset="0" />
          <input semantic="NORMAL" source="#normals" offset="1" />
          <p>0 0 1 1 2 2 3 3 4 4 1 1 1 1 5 5 2 2 5 6 4 7 6 8 3 3 7 9 4 4 7 10 8 11 4 7 4 7 9 12 6 8 4 7 8 11 9 12 7 10 10 13 8 11 11 14 3 3 12 15 12 15 3 3 0 0 13 16 3 3 11 14 2 17 12 18 0 19 14 20 12 18 2 17 14 21 11 21 12 21 13 16 11 14 15 22 13 23 15 24 16 25 3 3 13 16 17 26 17 27 13 23 16 25 3 3 17 26 7 9 18 28 19 29 17 27 19 29 20 30 10 31 21 32 22 33 23 34 24 35 25 36 26 37 27 38 24 35 26 37 28 39 29 40 30 41 8 11 31 42 9 12 10 13 31 42 8 11 10 13 20 30 31 42 20 30 32 43 31 42 33 44 14 45 34 46 35 47 27 38 26 37 35 48 26 48 21 48 9 12 21 49 6 50 36 51 21 49 9 12 36 51 32 43 37 52 31 42 36 51 9 12 31 42 32 43 36 51 21 49 36 51 22 53 36 51 37 52 22 53 38 54 16 25 39 55 40 56 17 27 16 25 18 28 17 27 40 56 20 30 18 28 32 43 19 29 18 28 20 30 38 54 39 55 23 57 38 58 32 43 40 59 32 43 38 58 37 52 40 56 16 25 38 54 22 53 38 58 23 60 18 28 40 59 32 43 19 61 7 9 17 26 33 62 34 63 41 64 37 52 38 58 22 53 42 65 43 65 44 65 2 66 26 37 14 67 29 68 14 67 26 37 23 69 39 70 30 71 44 72 5 6 45 73 5 6 6 8 45 73 41 64 28 74 33 62 35 75 21 32 29 40 24 76 27 76 35 76 24 35 35 77 25 36 35 77 29 68 25 36 26 37 25 36 29 68 44 78 43 79 2 2 44 78 2 2 5 5 4 4 5 5 1 1 0 0 3 3 1 1 42 80 45 80 21 80 45 81 6 50 21 49 7 82 19 82 10 82 39 55 16 25 15 24 26 83 2 84 42 85 2 84 43 86 42 85 42 85 21 87 26 83 28 39 41 88 29 40 33 44 15 22 14 45 42 89 44 89 45 89 28 90 30 91 33 92 15 93 33 92 30 91 21 32 23 34 29 40 29 94 41 95 14 96 14 96 41 95 34 97 15 22 11 14 14 45 30 41 29 40 23 34 30 71 39 70 15 98</p>
        </triangles>
      </mesh>
    </geometry>
  </library_geometries>
  <library_visual_scenes>
    <visual_scene id="scene">
      <node id="right_hand_thumb_2_link">
        <instance_geometry url="#geometry">
          <bind_material>
            <technique_common>
              <instance_material symbol="scout_b2b2b2" target="#scout_b2b2b2" />
            </technique_common>
          </bind_material>
        </instance_geometry>
      </node>
    </visual_scene>
  </library_visual_scenes>
  <scene>
    <instance_visual_scene url="#scene" />
  </scene>
</COLLADA>