<?xml version='1.0' encoding='utf-8'?>
<COLLADA xmlns="http://www.collada.org/2005/11/COLLADASchema" version="1.4.1">
  <asset>
    <created>2026-09-14T00:00:00Z</created>
    <modified>2026-09-14T00:00:00Z</modified>
    <unit name="metre" meter="1" />
    <up_axis>Z_UP</up_axis>
  </asset>
  <library_effects>
    <effect id="scout_333333_effect">
      <profile_COMMON>
        <technique sid="common">
          <lambert>
            <emission>
              <color>0 0 0 1</color>
            </emission>
            <ambient>
              <color>0.1 0.1 0.1 1</color>
            </ambient>
            <diffuse>
              <color>0.2 0.2 0.2 1</color>
            </diffuse>
          </lambert>
        </technique>
      </profile_COMMON>
    </effect>
  </library_effects>
  <library_materials>
    <material id="scout_333333" name="scout_333333">
      <instance_effect url="#scout_333333_effect" />
    </material>
  </library_materials>
  <library_geometries>
    <geometry id="geometry" name="right_hip_pitch_link">
      <mesh>
        <source id="positions">
          <float_array id="positions_array" count="291">-0.0424621515 -0.0613499284 0.000908922637 -0.0377187915 -0.0911088437 -0.0200862829 -0.0370128229 -0.07961943 -0.00171969563 -0.0309836138 -0.0797463432 -0.0640856549 -0.0299276561 -0.092093572 -0.0526128113 -0.0339767858 -0.0120888893 -0.0174984895 -0.0397879444 -0.0180509649 -0.0130429082 -0.0375202969 -0.0249994341 -0.00146317447 -0.0168305505 -0.0832189471 -0.0012018116 -0.0140773766 -0.0924346745 -0.0164765809 -0.0259780027 -0.0845941529 -0.065243274 -0.0279104616 -0.0591438413 -0.076485604 -0.0221091788 -0.072039254 -0.074549228 -0.0215648133 -0.051269874 -0.0795597509 -0.0297351256 -0.0268601794 -0.0687345117 -0.0213612113 -0.035238456 -0.0756521001 -0.015013502 -0.012164359 -0.0117597096 -0.0331779122 -0.012687658 -0.0475065559 -0.0234779064 -0.014855477 -0.0595040508 -0.0303064603 -0.0108912857 0.00073709467 -0.0255789645 -0.0118959453 -0.0154944528 -0.0123704616 -0.0114294505 -0.0299460534 -0.0224214401 -0.0137329204 -0.0329115987 -0.00926408637 -0.011754388 -0.0504731275 -0.0066969716 -0.0863898471 -0.0606313087 -0.00477088895 -0.0962445438 -0.0526505001 -0.0101567395 -0.0982469246 -0.0263512917 -0.0122178616 -0.0882702917 -0.000433131558 -0.00457890937 -0.0527096391 -0.0760797113 -0.0047973753 -0.0696536005 -0.0724218935 -0.00523221586 -0.0368567593 -0.0734435394 -0.00703816162 -0.0184798595 -0.0616217814 -0.0113405529 -0.0273787789 -0.0690722167 -0.0159170441 -0.00980526861 0.00295379781 -0.00668665301 -0.00950544514 -0.0132750506 -0.0131068174 -0.000189580751 -0.00852496922 -0.000878302497 -0.0789564177 -0.0735681355 0.00030974581 -0.0589295328 -0.080005005 0.00033814495 -0.0405474082 -0.0795074105 -0.00184776215 -0.0233120751 -0.0731100813 -0.00493068201 -0.00558833964 -0.0570278466 0.00821537152 -0.00960288756 -0.0129390089 -7.3614734e-05 -0.000230745776 -0.0156530347 -0.0388423279 -0.0583373755 0.00700883893 -0.0187629871 0.000457244954 0.0253940057 -0.027564913 -0.00021866626 0.0102246189 -0.0208646748 -0.0112972409 0.0212555137 -0.0191910993 -0.0639191419 0.00995794777 -0.0159009118 -0.0629445538 0.0168841109 -0.0185644422 -0.0336442925 0.0235855095 -0.0177570395 -0.0266842488 0.00329981884 -0.0190463793 -0.042161677 0.010048666 -0.0198552534 -0.00644315314 0.0292977262 -0.0393467136 -0.0396837592 0.00507527962 -0.0142073091 -0.000224312549 0.00621791696 -0.000532402832 -0.000122252008 0.0163077191 0.0129317082 -0.000142981051 -0.00873628445 0.0387242921 -0.0805053189 -0.0650994852 0.0359380431 -0.0900840834 -0.0561639443 0.0150245223 -0.0101001859 0.00455379114 0.0395019464 -0.0628222078 -0.0724919662 -0.000379785022 -0.00970540754 0.0150546907 0.0262983199 -0.0386365578 -0.0174419563 0.0303876847 -0.0422133952 -0.0125064775 0.0250100065 -0.0561914369 -0.0112600122 0.0281336419 -0.0654269755 -0.0167025812 0.0301015712 -0.0976482257 -0.0166549273 0.032574065 -0.0980287045 -0.0390788987 0.0342002138 -0.0398884453 -0.0333005302 0.0293323826 -0.0394955724 -0.0342546292 0.0334519334 -0.0517545417 -0.0404253565 0.0381631032 -0.0351787284 -0.0717234015 0.0388933048 -0.0216502771 -0.0648602247 0.0190273989 -0.00623567309 0.0370941274 0.0220786203 -0.00154142501 0.0342534855 -6.10362258e-05 -0.00591648417 0.0327254646 0.0224219672 -0.0576123409 0.0252968706 -0.0285248477 0.000104518622 -0.00987167656 -0.00908687618 -0.00188568444 -0.0336465985 0.032023605 -0.00304320827 -0.0241094958 0.0141199101 -0.000251588412 0.00648362981 0.00174053258 -0.000139604264 0.0310391802 0.0376048498 -0.0664522126 -0.0523405373 0.0330049992 -0.0831536204 -0.0269283913 0.0283760969 -0.0719925389 -0.00021073471 0.0356707163 -0.00517016929 -0.0487563312 0.0370535515 -0.0323033109 -0.0499269255 0.0262153763 -0.0895609558 0.0033742236 0.0246963874 -0.0803275481 0.0139653478 -0.00902727991 -0.00337164523 -0.0394011103 0.0084554404 -0.00381607818 -0.0309226122 0.0272677131 -9.36727884e-05 0.00278992858 0.0172978062 -0.00370015646 -0.0291414447 0.0206649583 -0.00341210607 -0.0346655585 0.0295507777 -0.0633981153 -0.0358751044 0.0332593396 -0.0683670416 -0.0277200155 0.0296714641 -0.0253288783 -0.00600581756</float_array>
          <technique_common>
            <accessor source="#positions_array" count="97" stride="3">
              <param name="X" type="float" />
              <param name="Y" type="float" />
              <param name="Z" type="float" />
            </accessor>
          </technique_common>
        </source>
        <source id="normals">
          <float_array id="normals_array" count="609">-0.96280688 -0.121789433 0.241185144 -0.989476919 -0.0903765932 -0.112993434 -0.560599744 -0.564888597 0.60549885 -0.837776721 -0.273613244 -0.472510308 -0.904874146 -0.328705549 -0.270472586 -0.110638551 0.948371887 0.297237128 -0.374391466 0.760932386 0.529917896 -0.182760447 0.625664055 0.758381903 -0.133203268 -0.724118948 0.676689506 -0.104570083 -0.95702821 0.270484984 -0.0424126834 -0.970027566 0.239264801 -0.611274302 -0.473290414 -0.634302735 -0.366833568 -0.163997084 -0.915717244 -0.162914872 -0.428746641 -0.888614118 -0.162099898 0.0426804721 -0.98585093 -0.971431196 0.00207213149 -0.237312227 -0.982156098 0.0117376195 -0.187700957 -0.527209222 0.190757722 -0.828047037 -0.487007558 0.212667927 -0.847110391 -0.139652774 0.763093352 0.631019473 -0.508939385 0.675513804 -0.53353709 -0.146921083 0.726213276 -0.671586514 -0.142071366 0.648840666 -0.747543633 -0.0648058578 -0.99764812 0.0223262366 -0.0427789018 -0.997867286 0.0493041016 -0.0547813736 -0.997898042 0.0346191861 0.101737507 0.447271526 -0.888593078 -0.0898390785 0.977997124 0.188283175 -0.198307857 0.976337552 -0.0862492397 -0.0536610819 0.996618271 -0.0622291453 -0.19693926 0.979710758 -0.037172731 0.102492362 -0.974422276 -0.199991226 0.157885715 -0.831649959 -0.532381833 -0.93155396 -0.298044145 -0.208271354 -0.690921366 -0.509090006 -0.513278663 -0.889114141 -0.377417803 -0.258905083 -0.938611805 -0.271452844 -0.212887734 -0.408863813 -0.752176046 0.516779959 -0.697138369 -0.541143835 0.470278084 -0.549989462 -0.790671349 0.268980294 -0.0846011713 -0.983936369 0.157199949 0.197911233 -0.0330378339 -0.979663014 0.173013762 -0.395644486 -0.901959896 0.193551704 0.351041615 -0.916137278 -0.730230451 0.465370595 -0.500193655 -0.518928468 0.682169259 -0.515129447 -0.8952474 0.3388111 -0.289377153 0.819721103 0.324143142 0.472216576 -0.759960711 -0.286411226 -0.583462358 -0.664839566 -0.1911062 -0.722126603 -0.585635126 0.0407464691 -0.809550047 -0.712923586 -0.102432087 -0.693720162 -0.712271214 0.151920289 -0.685266376 -0.714035451 0.0672764406 -0.696869552 -0.816802919 0.233791292 -0.527422607 0.175231099 0.584041893 -0.792583823 0.266211331 0.539862871 -0.79854846 -0.886386931 0.310266167 -0.343588531 -0.0200482979 0.261700511 0.964940906 -0.547596335 -0.118135341 0.828361213 -0.948578537 0.06019051 0.310766488 -0.938537657 -0.0168257151 0.344766527 -0.982691646 -0.0312904119 0.182586908 -0.875481308 -0.271674305 0.399656832 -0.544743896 -0.360940099 0.756951988 -0.969560981 -0.0857118592 0.229357675 -0.984566271 0.00528740324 -0.174932286 -0.983875871 0.0069301296 -0.178718388 -0.99372822 0.0835924149 0.0742737427 -0.968871593 0.118440598 0.217392981 0.584655046 0.16619958 -0.794075668 0.602815509 0.12827909 -0.787501097 0.594022751 0.146953061 -0.790911973 -0.46292904 -0.156788647 0.872418463 0.122088961 -0.558766067 -0.820289433 0.153544784 -0.552690268 -0.81911993 0.104569212 -0.807693362 -0.580255687 0.977296352 -0.199093372 0.0724818558 -0.173866808 -0.267827183 0.947649181 -0.727952182 0.684831142 -0.0330443382 -0.946070194 0.169579834 0.276032269 -0.890120745 0.286232859 0.354620695 -0.982272148 0.0384363644 0.183477715 0.173693955 -0.134192497 -0.975614071 0.185055196 -0.185634479 -0.965035975 0.61012429 0.112267874 -0.784311354 0.61522615 -0.30164203 -0.728360415 -0.671263695 0.194469437 -0.715252936 0.977255404 -0.181543335 0.109608114 0.980316281 -0.0861945525 0.177624598 0.978161991 -0.175824791 0.110836506 0.991308093 -0.0595745705 0.117299534 -0.205450401 -0.494233966 0.84470284 -0.177051589 -0.984145224 -0.0105314627 -0.46056965 -0.87297827 -0.160575777 -0.0872346535 -0.995568395 0.0351234563 -0.50891006 -0.840207279 -0.187249333 0.976566672 0.0530961342 -0.208562613 0.994541883 0.0285800099 0.100347817 0.99713397 -0.000195714339 0.0756560862 -0.558779061 0.0987652615 -0.823414505 -0.556884766 0.102667652 -0.824220061 -0.554778695 0.106978074 -0.82509172 -0.170912698 0.589039683 0.789823472 -0.162368327 0.531239688 0.831517279 -0.186945856 0.373683482 0.908521831 0.934495211 -0.050563667 0.352366269 0.755286157 -0.098868005 0.647894979 0.974809587 -0.0117069809 0.222731307 -0.847880423 0.0226272624 -0.529704392 -0.94425112 0.0496304817 -0.325463712 -0.75003165 0.0383531451 -0.660289049 -0.996391654 0.0527394004 -0.0664995536 -0.905516267 0.261436582 0.33420229 -0.997524559 0.0319285505 0.0626525804 0.0543579906 0.994200647 -0.0927919075 0.0192655139 0.995691657 -0.0907029137 0.019630393 0.994688749 -0.101039544 0.00879557896 0.999164104 -0.0399212353 0.0172801856 0.999651015 -0.0199825391 0.0260866173 0.999659657 4.92670843e-05 0.016698258 0.999819577 -0.00905507803 0.0399706662 0.99914813 0.0102644851 0.00674908562 0.999886215 -0.0134914629 -0.00295179337 0.999932349 -0.0112498477 0.103703596 0.992884994 -0.0585234463 0.0849072337 -0.755820751 -0.64925015 -0.160292283 0.505124092 0.848030686 -0.176139817 0.474936485 0.86221236 -0.177534878 0.326373369 0.928418994 -0.0420525558 0.998295426 -0.0404707529 0.988007605 0.00248619495 0.15438509 0.984967649 -0.0545357391 0.163904309 0.981941581 -0.037684828 0.185392901 0.987349391 0.0371175259 0.154153943 0.987262964 0.00360027398 0.159056112 0.973742783 -0.0759687796 0.214601234 0.97438556 -0.0365499146 0.221893758 -0.95145303 0.269266903 -0.149105564 -0.959586859 0.252613366 -0.124014512 -0.951876521 0.294217318 -0.085832499 -0.984621763 0.00492393319 -0.174630404 -0.0318741091 -0.979001999 0.201343343 -0.147052154 0.566764176 0.810650349 -0.184503138 0.216989353 0.958579242 0.476309896 -0.116151378 0.871572018 -0.197147146 0.274096042 0.94127804 0.0116599714 0.999618173 -0.0250507165 0.14752689 0.949402332 -0.27725631 0.185290784 0.671810627 -0.717173457 0.104880616 0.902249217 -0.418265998 0.0465779491 0.99836868 0.0330225714 -0.02835989 0.997897089 -0.058284808 -0.00253701513 0.996007383 -0.0892348588 0.0142079601 0.998366296 -0.0553432554 -0.0477122031 0.992910206 -0.108871132 0.149732381 0.987933278 -0.03959883 0.0360320173 0.995637357 -0.086069271 0.103397802 0.981397748 -0.161763176 0.00777094439 0.995762587 -0.0916320607 0.133830577 0.535958648 -0.833569229 0.177230164 0.254172355 -0.950781703 0.170194373 0.18609421 -0.967679083 -0.157132983 -0.33590436 0.928696692 -0.194339126 -0.207412675 0.958755612 0.983974278 -0.00950924307 0.178056598 0.984273314 0.0844994262 0.155131847 0.960178912 -0.0121693108 0.279120743 0.94449985 0.205415785 0.256367683 0.867186368 0.470822245 0.162216693 0.799351573 -0.033369083 0.599936247 0.984221578 0.0216818675 0.175607041 0.79174614 0.571440279 0.215856642 0.705756843 0.693832994 0.143189013 0.0106631732 0.999702394 -0.0219413321 0.00910833012 0.999925137 0.00816827361 0.00849450752 0.999935508 0.00753818965 0.00755237974 0.999678671 0.0241979975 0.0060431757 0.999741733 0.0219071228 -0.0788881034 -0.859530866 0.504958749 0.0336318612 -0.931413114 -0.362406492 0.0461782962 -0.980753601 -0.189710066 -0.176018417 -0.222453788 0.958922207 -0.204301015 -0.180792958 0.962068081 -0.161387384 -0.210151553 0.964256406 -0.674064636 0.4536587 0.582949936 -0.737994194 -0.00772456266 -0.674762845 -0.129460439 -0.615357757 0.777544141 -0.0720522851 -0.997310519 0.0134240184 0.971001446 0.00630691182 0.238990396 0.987503946 -0.0506285653 0.149240404 0.981210709 0.00938452128 0.192710862 0.991128862 -0.0259502213 0.130346477 0.994919121 -0.0876547545 -0.0495230742 -0.982488871 0.0353433192 -0.182938457 0.145902112 0.584184587 -0.798398972 0.134413972 0.705874383 -0.695466876 0.124094807 0.687493145 -0.715509355 -0.991399646 -0.106079832 0.0766405016 -0.552769601 0.111062728 -0.825900018 0.983059585 0.00782185979 0.183119312 0.988003075 0.0201074705 0.153119475 0.247315511 0.728120327 -0.639277577</float_array>
          <technique_common>
            <accessor source="#normals_array" count="203" stride="3">
              <param name="X" type="float" />
              <param name="Y" type="float" />
              <param name="Z" type="float" />
            </accessor>
          </technique_common>
        </source>
        <vertices id="vertices">
          <input semantic="POSITION" source="#positions" />
        </vertices>
        <triangles material="scout_333333" count="190">
          <input semantic="VERTEX" source="#vertices" offset="0" />
          <input semantic="NORMAL" source="#normals" offset="1" />
          <p>0 0 1 1 2 2 1 1 3 3 4 4 5 5 6 6 7 7 8 8 1 9 9 10 3 3 10 11 4 4 3 3 11 12 10 11 11 12 12 13 10 11 11 12 13 14 12 13 11 15 3 3 14 16 11 12 14 17 13 14 14 17 15 18 13 14 7 7 16 19 5 5 17 20 18 21 14 22 19 23 20 24 16 25 14 22 18 21 15 26 20 27 21 28 22 29 22 29 21 28 23 30 9 10 4 31 24 32 9 33 24 34 25 35 9 33 25 35 26 36 27 37 8 38 9 39 26 40 27 37 9 39 13 14 28 41 29 42 13 14 30 43 28 41 31 44 32 45 23 46 33 47 34 47 35 47 24 34 36 48 25 35 24 34 29 49 36 48 29 49 28 50 36 48 28 50 37 51 36 48 30 52 37 51 28 50 30 52 38 53 37 51 39 54 38 53 30 52 32 55 31 56 30 43 31 44 39 54 30 52 40 57 39 54 31 44 23 46 40 57 31 44 41 58 42 58 34 58 2 2 43 59 0 0 44 60 45 61 46 62 47 63 8 38 48 64 49 65 47 63 48 64 49 65 46 62 47 63 46 62 50 66 51 67 52 68 46 62 49 65 48 64 8 38 27 37 0 0 43 59 53 69 54 70 55 71 33 72 41 73 56 73 42 73 36 74 57 75 58 76 54 77 33 77 35 77 2 2 47 78 43 59 5 79 17 79 6 79 56 80 41 81 59 82 37 83 60 84 36 74 55 71 61 85 33 72 62 86 63 86 64 86 64 87 63 87 65 87 58 88 66 89 67 90 57 91 66 89 58 88 68 92 69 92 70 92 68 93 62 94 69 95 63 96 62 94 68 93 71 97 72 98 60 99 15 26 30 43 13 14 61 100 55 101 59 102 73 103 74 104 75 105 74 106 73 107 76 108 20 109 77 110 78 111 6 112 53 69 7 113 19 114 77 110 20 109 79 115 78 116 42 117 35 118 78 116 77 119 42 117 78 116 35 118 80 120 55 121 81 122 77 119 54 123 35 118 54 123 77 119 45 124 80 120 79 115 56 125 42 117 56 125 79 115 4 31 10 126 24 32 9 10 1 9 4 31 12 13 24 32 10 126 52 127 75 105 44 128 74 104 81 129 75 105 44 128 75 105 81 129 18 130 22 29 23 30 32 55 15 26 18 21 32 55 30 43 15 26 57 91 60 99 82 131 66 89 57 91 83 132 57 91 82 131 83 132 60 99 72 98 82 131 66 89 83 132 84 133 72 98 85 134 86 135 87 136 66 89 84 133 88 137 87 136 84 133 86 135 82 131 72 98 89 138 21 139 78 140 8 8 2 2 1 9 47 63 46 62 51 67 16 141 50 66 46 62 66 142 27 37 26 40 50 143 16 19 7 7 7 7 51 144 50 143 43 59 47 78 51 144 42 145 35 145 34 145 43 59 51 144 53 146 36 74 60 84 57 75 55 121 44 147 81 122 55 121 54 123 44 147 44 147 54 123 45 124 78 148 79 149 90 150 80 120 81 122 74 151 79 115 80 120 91 152 80 120 74 151 91 152 92 153 90 150 79 154 93 155 92 153 79 154 2 2 8 8 47 78 53 146 51 144 7 7 6 112 0 0 53 69 20 27 22 29 5 5 17 156 5 5 22 29 18 130 17 156 22 29 19 114 45 61 77 110 40 157 89 158 90 150 85 159 40 157 90 150 90 150 89 158 78 148 85 159 90 150 93 155 93 155 90 150 92 153 93 155 79 154 85 159 39 160 71 161 38 162 48 64 76 163 73 164 62 165 64 166 69 167 69 167 64 166 94 168 64 166 65 169 94 168 70 170 69 167 94 168 45 61 19 114 46 62 84 133 83 132 95 171 83 132 82 131 95 171 65 169 84 172 95 173 20 27 5 5 16 19 61 174 59 175 33 176 59 175 41 177 33 176 33 176 41 177 34 178 87 179 27 37 66 142 94 168 65 169 95 173 25 180 67 181 26 40 66 142 26 40 67 181 49 182 48 64 73 164 73 164 75 183 49 182 49 182 75 183 52 184 95 185 70 185 94 185 58 76 25 180 36 74 78 111 21 186 20 109 12 13 29 42 24 32 88 187 27 37 87 179 29 42 12 13 13 14 89 138 23 46 21 139 89 138 40 57 23 46 16 25 46 188 19 23 95 171 82 131 70 189 82 131 86 135 70 189 68 190 70 189 86 135 68 190 86 135 96 191 63 192 68 190 96 191 63 192 96 191 84 133 65 193 63 192 84 133 17 194 14 16 6 112 14 16 3 3 6 112 3 3 1 1 6 112 6 112 1 1 0 0 71 161 39 160 72 195 58 76 67 181 25 180 44 60 46 62 52 68 85 196 72 195 40 197 80 198 56 80 59 82 38 162 71 161 60 84 60 84 37 83 38 162 72 195 39 160 40 197 76 163 48 64 88 187 55 101 80 199 59 102 88 187 48 64 27 37 91 200 74 106 76 108 79 201 91 200 96 191 91 200 76 108 96 191 76 108 88 137 96 191 85 134 79 201 96 191 84 133 96 191 88 137 86 135 85 134 96 191 23 202 32 55 18 21</p>
        </triangles>
      </mesh>
    </geometry>
  </library_geometries>
  <library_visual_scenes>
    <visual_scene id="scene">
      <node id="right_hip_pitch_link">
        <instance_geometry url="#geometry">
          <bind_material>
            <technique_common>
              <instance_material symbol="scout_333333" target="#scout_333333" />
            </technique_common>
          </bind_material>
        </instance_geometry>
      </node>
    </visual_scene>
  </library_visual_scenes>
  <scene>
    <instance_visual_scene url="#scene" />
  </scene>
</COLLADA>