<?xml version='1.0' encoding='utf-8'?>
<COLLADA xmlns="http://www.collada.org/2005/11/COLLADASchema" version="1.4.1">
  <asset>
    <created>2026-09-14T00:00:00Z</created>
    <modified>2026-09-14T00:00:00Z</modified>
    <unit name="metre" meter="1" />
    <up_axis>Z_UP</up_axis>
  </asset>
  <library_effects>
    <effect id="scout_b2b2b2_effect">
      <profile_COMMON>
        <technique sid="common">
          <lambert>
            <emission>
              <color>0 0 0 1</color>
            </emission>
            <ambient>
              <color>0.35 0.35 0.35 1</color>
            </ambient>
            <diffuse>
              <color>0.7 0.7 0.7 1</color>
            </diffuse>
          </lambert>
        </technique>
      </profile_COMMON>
    </effect>
  </library_effects>
  <library_materials>
    <material id="scout_b2b2b2" name="scout_b2b2b2">
      <instance_effect url="#scout_b2b2b2_effect" />
    </material>
  </library_materials>
  <library_geometries>
    <geometry id="geometry" name="right_knee_link">
      <mesh>
        <source id="positions">
          <float_array id="positions_array" count="555">-0.00621087104 -0.017773496 -0.306459367 0.00306963758 -0.0188697055 -0.290623397 -0.00972068682 -0.0174285788 -0.31177181 -0.0104767205 -0.00669318438 -0.291651368 -0.00664909836 -0.00803090353 -0.309806317 -0.0290623922 -0.0180779286 -0.124496385 -0.0312978663 -0.00327879796 -0.110451415 -0.0356037095 -0.0256103352 -0.101701923 -0.0385621674 -0.0159724113 -0.00264846487 -0.0332775973 -0.0182844717 -0.0585031025 -0.030898314 -0.0321955197 -0.0323494337 -0.038921494 -0.0337735601 0.00995744299 -0.0305711403 0.0200893749 -0.140982285 -0.0278859194 -0.00220152177 -0.16234608 -0.0309171472 -0.00149376108 -0.172253028 -0.0347887389 0.0186569411 -0.103335984 -0.0334560983 -0.0178705808 -0.127479807 -0.0307052545 -0.0355605297 -0.0967247263 -0.0199163817 -0.0349603109 -0.13602452 -0.0223146789 -0.0306576919 -0.0907075107 -0.0243793391 -0.0328624845 -0.121080354 -0.0217454303 -0.0198333636 -0.171105877 -0.0150740687 -0.0192041975 -0.223579556 -0.0173501857 -0.0270538684 -0.174515799 -0.0247939453 -0.0267422665 -0.13199605 -0.0284020603 -0.0239961054 -0.1624358 -0.0159675442 -0.0301670078 -0.149745077 0.0294539351 -0.0272930786 -0.0529100932 0.0306264441 0.0259452164 -0.0532552265 0.043735344 -0.0338327885 -0.0484895185 -0.0253459606 -0.0147333471 -0.107593067 -0.027180627 -0.0233217254 -0.0685170814 -0.0369697325 -0.0284256525 -0.0597789288 -0.021615671 -0.0118073057 -0.0533498712 -0.000559378415 -0.0255486034 -0.0601835959 -0.0232093409 0.014904758 -0.112115853 -0.0201674029 -0.000128763699 -0.117498189 -0.00285356306 -0.0169662908 -0.110322863 -0.0320965759 0.000175318157 -0.0566207208 -0.00276932353 0.00172756589 -0.117186189 -0.00238476973 0.0314924158 -0.0952792391 -0.00388381537 0.0311948415 -0.141303062 -0.00562332664 -0.030448487 -0.165207446 -0.00299057574 -0.0303427391 -0.136182815 -0.00220023165 -0.0311960299 -0.0913448334 -0.0270628054 -0.0155200977 0.0309274755 0.0146305766 -0.0163167734 0.0378876477 -0.0127684865 -0.0333349258 0.037701983 -0.0119157117 0.0168209709 -0.303400457 0.0115548866 0.0111061018 -0.309309483 -0.00922261365 0.00787647814 -0.305891335 0.0089248959 0.0186631866 -0.307805061 -0.0091899056 0.0176875554 -0.302720279 -0.0138669638 0.00268236059 -0.281557947 -0.00174312352 0.0175297223 -0.29251501 -0.0159948003 0.0200672094 -0.207881257 -0.0331039652 0.0340672582 -0.0987123773 -0.0309429038 0.0315613486 -0.103540607 -0.0228112768 0.0228981394 -0.171153516 0.060975723 0.013297502 -0.00743379537 0.0595068336 0.00486662704 -0.0569090284 0.0628288612 -0.00834714342 0.017562557 -0.0247155167 0.0168135036 -0.125642091 -0.0226465762 0.0291030519 -0.0925489664 -0.0183561686 0.00817856938 -0.0520342216 -0.0220225416 0.0302207116 -0.0731465146 -0.00980856642 0.0307076871 -0.16830121 -0.0283859223 0.0300928913 -0.131731212 -0.0301092248 0.0139671257 -0.125442535 -0.0227634758 0.0340765044 -0.12981461 -0.0231689215 0.0312816836 -0.142742068 -0.0324387252 0.0259968806 -0.0801912993 -0.0289087519 0.0351474285 -0.053687837 0.0588348582 -0.0101864673 -0.0622839034 0.0586799905 -0.0184758417 -0.0692079887 0.0587377399 -0.00946950633 -0.0666213259 -0.00597051857 0.0254941061 -0.164507002 -0.0153236371 0.0346308425 -0.141613483 -0.00249292306 0.0317749307 -0.0552159622 -0.00256240065 0.030812433 -0.0759855583 -0.00188469887 0.0126507161 -0.0547277406 0.0118090045 -0.0186009854 -0.30243054 0.0124232443 -0.0107118199 -0.306670845 0.0324089862 -0.0168960597 -0.312528551 0.0083616944 -0.00835477002 -0.297474295 0.00850775559 -0.0051793037 -0.286787063 0.0190032423 -0.0136860833 -0.296648979 0.0145312902 0.0350867696 -0.0492881946 0.0315768197 -0.0171574522 -0.256807804 0.0293340068 -0.015978476 -0.207582265 0.030134121 -0.0124011822 -0.261179775 0.0593133047 -0.022984542 -0.0188026298 0.0626677349 -0.00726988725 -0.0229757912 0.060921859 -0.0119990781 -0.00768589554 0.0214157719 -0.00431968691 -0.234839499 0.0338724777 8.3404062e-05 -0.24659425 0.0357444622 -0.00820975285 -0.236119434 0.0262414869 7.95517044e-05 -0.204559177 0.0241884142 -0.020803446 -0.207783565 0.031115124 -0.0122358017 -0.192488447 0.0268865898 -0.0138838831 -0.186112627 0.0269792527 -0.0255195163 -0.183884561 0.0348766111 -0.0148988636 -0.142642632 0.0515661724 -0.0333569124 -0.0403389558 0.0383209735 -0.0342936628 -0.143747807 0.0384324528 -0.0340850465 -0.0983129442 0.0416769348 -0.0156464223 -0.198572189 0.040333394 -0.0214183405 -0.147434294 0.0369929038 -0.0126040578 -0.201047659 0.0446161963 -0.0218949765 -0.176583886 0.044464469 -0.0252563357 -0.161797464 0.0522391647 -0.0281716473 -0.119062394 0.0287103821 -0.026726475 -0.108408682 0.0287420973 -0.0282967016 -0.144275054 0.0364052095 -0.000134724047 -0.20545046 0.0437512025 -0.00138957705 -0.194853052 0.0392900109 -0.00675739534 -0.149401054 0.0432900265 0.00821952615 -0.190510884 0.0480960123 -0.00962957833 -0.170241401 0.0521533452 -0.00563370856 -0.157717615 0.0527690314 -0.0269767269 -0.0992098302 0.056428574 -0.0119043505 -0.0920413136 0.0562174805 -0.0199921597 -0.0709444284 0.0565325618 -0.0222229809 -0.064023003 0.0567612089 -0.00191466161 -0.127489895 0.0571241379 -0.0268803425 -0.0554780923 0.0573665425 -0.0160401799 -0.0865364373 0.0603874251 -0.014911782 -0.0485026911 0.0588083193 -0.0174846929 -0.0421607867 0.0581770167 -0.0197947435 -0.0323721468 0.0593068264 -0.0197290853 -0.0340377279 0.0600724183 -0.0132657373 -0.0143033536 0.0606984757 -0.0167929027 0.00307525368 0.0603943579 -0.0191713329 -0.00102395436 0.0503792576 0.00493089668 -0.172546849 0.0566291735 -0.00579807954 -0.101007864 0.0542233512 0.00611338811 -0.133698493 0.0564091988 0.00757422112 -0.0999132842 0.0568865053 0.0171675403 -0.0897503495 0.0582353659 -0.0045342776 -0.100835666 0.0599254221 0.00908011757 -0.0646603853 0.0198957939 -0.0317372568 0.0345412828 0.0269432869 0.0176289193 -0.182983145 0.0297478661 0.0141530065 -0.194799185 0.0362259224 0.011459982 -0.210271016 0.0378282368 -0.0331563875 0.0123682665 0.0388988182 -0.0157595854 0.0109665208 0.00970293488 0.00928552635 -0.295271307 0.0163947865 0.0171543639 -0.302093327 0.00960851181 0.0177756809 -0.287765145 0.0420697443 -0.0114530679 -0.041043736 0.0153099308 -0.0153623046 -0.0489196144 0.0232550334 0.0117083313 -0.284083813 0.0306393597 0.0181782022 -0.253453285 0.0316305421 0.0111339213 -0.254867107 0.030995395 0.0140918484 -0.30870381 0.0218400229 0.0194626227 -0.224010825 0.0266089253 0.0256633162 -0.18467024 0.0223244242 0.00239924318 -0.238117322 0.0344075561 0.004571917 -0.235957682 0.0463879891 0.0343517102 -0.0645982027 0.0363973379 0.0311467219 -0.0839358866 0.0286578611 0.0296827331 -0.142598718 0.036855787 0.0166984536 -0.19653599 0.0256676972 -5.60197695e-05 -0.0844506323 0.0393255576 0.0173919387 -0.217792138 0.0453036651 0.0228346698 -0.17404528 0.0371102132 0.00775749609 -0.14203544 0.0382601619 0.0236015897 -0.149435088 0.0466644987 0.0272804964 -0.149735823 0.0347444788 0.0335470997 -0.149350137 0.052084256 0.0304964446 -0.110814691 0.0535271056 0.0267189536 -0.0937556624 0.0451106094 0.0331678055 -0.0407185815 0.0579395294 0.0274083894 -0.0268999524 0.0607815124 0.0123992255 -0.0169878956 0.0604018234 0.0126961451 -0.0118279243 0.0604881197 0.0149044711 -0.000556976942 0.0619397424 0.0138660539 -0.00478566671 0.0620143823 0.011997303 -0.0146635976 0.0589890778 0.0214036033 -0.00995750353 0.0609277412 0.01705922 0.00424422882 0.0162909515 -0.0190205835 -0.267330468 0.0247528516 0.000211259859 -0.138116285 0.0232650191 6.00277453e-05 -0.159997761</float_array>
          <technique_common>
            <accessor source="#positions_array" count="185" stride="3">
              <param name="X" type="float" />
              <param name="Y" type="float" />
              <param name="Z" type="float" />
            </accessor>
          </technique_common>
        </source>
        <source id="normals">
          <float_array id="normals_array" count="1692">0.0163332839 -0.997010112 -0.0755253062 -0.110904723 -0.993819535 0.00478772353 -0.0492202789 -0.998408318 -0.0275354534 -0.913303673 0.344083488 -0.217905894 0.850575745 -0.136224002 -0.50790143 0.662523806 0.744220257 0.0848438889 0.979997754 -0.0374582112 0.195451617 0.989367008 -0.0169859994 0.144444942 0.964801431 -0.0890841857 0.247431114 -0.97363776 -0.156987071 -0.165482745 -0.948563933 -0.307070017 -0.0770354569 -0.957756817 -0.269699544 -0.0998197794 -0.975260019 -0.114305966 -0.189214334 0.902633309 0.349494934 -0.251209944 -0.997355402 0.0643345118 -0.033812616 -0.973699749 -0.165140063 -0.156963646 -0.960626543 -0.264163375 -0.0861064568 -0.821072638 -0.520942807 -0.233363092 -0.817066312 -0.528963625 -0.229347065 -0.443575978 0.889881492 -0.106542371 -0.283980072 0.946532011 -0.153076649 -0.161463886 0.985403657 -0.0539358296 -0.96844101 -0.205168545 -0.141520038 -0.996947527 -0.0322482139 -0.0711036474 -0.871864498 -0.475676835 -0.11654985 -0.519075692 -0.853819489 0.0394036137 -0.710072935 -0.703824639 0.020670576 -0.205273703 -0.932323813 -0.29771629 -0.451342046 -0.864627004 -0.220704421 -0.233507335 -0.898573101 -0.371538341 -0.0446935259 0.41820249 -0.907253623 0.290400028 -0.0125985164 -0.956822395 0.592631817 0.0659606457 -0.802768171 0.379989058 0.00958943926 -0.924941242 0.898423612 0.380194932 0.219742641 0.821859598 0.509661973 0.254541665 0.882494926 0.423744917 0.204066023 0.9141801 0.316428155 0.25327456 0.731182218 0.556982815 0.393881619 0.810580254 0.480458319 0.334842414 -0.111373946 -0.294703394 -0.949076235 -0.185027122 -0.327367127 -0.92660439 0.0826924667 -0.200625002 -0.976171911 -0.476010919 -0.860782325 0.180186957 0.0306094624 -0.751071215 -0.659511209 0.311652035 -0.662717164 -0.680939794 -0.0429488271 -0.656946778 -0.752712667 -0.572191834 0.752780259 -0.325451046 -0.664130986 0.654185534 -0.361899674 -0.193720445 0.977654934 -0.0816287696 -0.213748544 0.814252377 -0.539726377 -0.330919415 0.87565434 -0.351741165 -0.0654980391 0.891855061 0.447554022 -0.0214823913 0.132489398 -0.990951598 -0.645625234 -0.364842892 -0.67086339 -0.982022524 0.119383082 0.146217287 -0.97850579 0.107611813 0.175914958 -0.975739598 0.100057706 0.194732323 -0.15352343 -0.516785443 -0.842237115 -0.120786823 -0.690694511 -0.712987781 0.63951242 0.37055847 -0.673580229 -0.683446348 -0.438480288 0.583640456 -0.94232589 -0.194590852 0.272316486 -0.871559799 -0.354056209 0.339157343 -0.999406099 -0.0110988673 0.0326234996 -0.593576193 -0.609501421 0.525523841 -0.477313489 -0.82435751 -0.304313242 -0.632684052 -0.656148493 -0.411314964 -0.263328135 0.964392602 -0.0246003419 -0.198199451 0.979150772 0.0445060469 -0.252382427 0.933806777 0.253590316 -0.999894857 -0.0100196451 0.0104805166 -0.999924183 -0.0079431124 0.00940655265 -0.999588311 -0.0229786169 0.0171821211 -0.04037752 -0.80009079 -0.598518431 -0.186023012 -0.918552756 0.348792523 0.119023494 -0.540556669 0.832845688 0.0922383219 -0.520421088 0.848913431 0.0408947021 -0.642319024 0.765345573 -0.919549644 0.239300087 0.311711192 0.0248465203 -0.0508948751 0.998394907 -0.155398428 0.239734903 0.958320677 -0.0968954787 0.14525862 0.984637618 -0.196573526 0.187730938 -0.962349176 -0.0917052031 0.174079865 -0.98045212 -0.190377787 0.209754586 -0.959040821 0.272865266 -0.296699494 0.915157914 -0.976282895 -0.131254077 -0.172174647 -0.947979271 -0.221852839 -0.228290632 -0.997515678 -0.0319758393 -0.0627692193 0.795360744 0.18401289 -0.577529669 -0.170795351 0.88198483 -0.43923986 -0.0656318665 0.987595379 -0.142645806 -0.0367106088 0.999316335 -0.00438661035 -0.17669794 0.979029834 0.101382412 -0.99152112 0.0793401226 -0.102912463 -0.976495564 0.180283412 -0.118128359 0.802995443 -0.230598122 0.54956609 0.623341858 -0.17368111 0.762417078 0.589046896 -0.162999272 0.791489124 0.833307028 -0.240453094 0.497776806 0.128228605 0.00209270325 -0.991742432 -0.997519195 -0.0689359829 0.0142591316 -0.998751521 0.0398582444 0.0301111396 -0.99875778 0.024888115 0.0431674123 -0.983249426 -0.0247263182 -0.180580184 -0.994330049 0.00293010171 -0.106297269 -0.983717799 0.12673828 0.127423495 0.971574128 0.224008456 -0.0765763 0.159587622 -0.160153627 -0.974106073 -0.893687785 0.374982476 -0.246394619 -0.943353117 0.133866936 0.303586155 -0.110246807 0.973548412 -0.200122863 -0.483183712 0.861494482 -0.156079352 -0.163346395 0.373550296 0.913114488 -0.0410686955 0.14710708 0.988267601 -0.100586988 0.257973611 0.960901618 0.936342895 0.105216168 -0.33495006 -0.901661515 0.195222214 0.385868937 -0.898205876 -0.0730521232 -0.433462381 0.993468881 -0.113916464 -0.00653041946 -0.530800045 0.830476761 -0.168996036 -0.321256667 0.942012608 -0.0969865248 -0.532850742 0.8303985 -0.162813857 0.998373687 0.0565258004 -0.00740647083 0.999435186 0.00625441223 0.0330182537 0.999048591 0.0257160924 0.0352218375 -0.915978312 0.361352861 -0.174378455 0.444304883 0.339617491 -0.829007328 -0.4216564 0.900322974 -0.107816577 -0.471101254 0.868348002 -0.155033603 -0.524836183 0.825288653 -0.208436206 -0.350556821 0.935571313 -0.0426176339 -0.0922174901 0.995275855 -0.0303634144 -0.272330582 -0.961807847 0.0275993571 -0.493323714 -0.857251823 0.147482499 -0.300586611 -0.953754187 -0.00081882166 0.907349586 -0.402956337 -0.119761996 4.65574267e-05 0.999906182 -0.0136966771 -0.288029373 -0.952608883 0.0978538916 -0.215726539 -0.962026954 0.167231128 0.0974979028 -0.455957919 0.884644866 0.0231743567 -0.373107851 0.927498519 -0.41342628 -0.312173665 -0.855351567 0.0462486669 0.624182343 0.779908657 -0.0609604605 0.419086874 0.905897379 0.047730241 0.540324986 0.840101659 0.0625410154 0.671201944 -0.738631606 -0.0134561853 0.720560133 -0.693261921 0.178201705 0.581777692 -0.793586075 0.996234715 0.0236036442 -0.0834223628 0.996843636 -0.0737247914 -0.0294518322 0.992622375 -0.0582315326 0.106348269 -0.390128762 0.336529076 0.857057571 -0.0359432213 0.958373606 -0.283245742 -0.205778718 0.893077374 -0.400084853 -0.0853912905 0.94406414 -0.318514019 -0.293353111 0.840604901 -0.4553321 -0.171825707 0.799673617 -0.575324297 -0.999486983 -0.0316647179 0.00481083477 -0.778661966 -0.62361151 -0.0692398623 -0.0741836205 -0.15802902 0.984643877 -0.0367927738 -0.998501062 -0.0405208878 -0.880632401 0.473467708 0.0177442245 -0.790596247 0.561339855 0.244653106 -0.836354852 0.546618342 -0.0414597131 -0.193753093 0.310937166 0.930471838 0.180270851 0.144565672 -0.972935319 0.330520988 -0.466662139 -0.820354998 -0.372054875 -0.416803986 -0.829366982 -0.302220225 -0.408917874 -0.861074388 -0.803842783 0.0171636529 -0.594594121 -0.553976059 -0.506127834 0.661018252 0.0803544298 0.818791211 -0.56844002 0.0222064089 0.915154755 -0.402490526 -0.00400264468 0.966023266 -0.258424193 0.72762984 -0.437161833 0.528624952 0.129784629 0.972775161 -0.192001268 0.165301695 0.970462203 -0.175722793 0.423452437 0.905871809 -0.00918092951 0.554724693 0.823355794 -0.119857401 0.302251726 0.951960802 -0.0491379686 0.10874559 0.746286571 -0.656681657 -0.100712128 0.0215822514 0.994681478 -0.103232875 -0.00437474297 0.994647622 -0.181762025 0.01055793 0.983285844 -0.683021843 0.676841438 0.274530083 -0.272834212 -0.962002575 0.0106095886 -0.0128825838 -0.99964422 0.0233550277 -0.2939668 -0.955768466 0.00949743576 0.974352121 0.199028224 -0.105003335 0.981920063 0.0883956924 -0.167389199 0.952741325 0.303379267 0.0156519972 -0.838651776 0.544442832 -0.0156587865 -0.297902793 0.953584194 0.0439443365 0.981169701 -0.193147391 0.000295282371 0.999589384 -0.0279932898 -0.00612100679 0.989494979 -0.144566834 -0.000316450256 -0.262336284 -0.778832257 -0.569736779 0.988506138 -0.0972871706 -0.115718655 0.999339521 -0.0316523202 -0.0178498365 0.992081761 -0.0755379871 -0.100338288 -0.93277514 0.35985589 0.0208401475 -0.710647464 0.702833951 0.031697046 0.999615788 0.011451683 -0.0252423342 0.999871194 0.0114344461 0.0112616075 0.993460834 0.0290549174 0.11041443 -0.358632118 0.933472633 0.00344252354 -0.170752093 0.984951854 -0.0267124269 -0.581702113 0.793054104 -0.180797726 -0.711490035 -0.698962033 0.0723458827 -0.375762403 -0.925500095 0.0474576838 -0.532832623 -0.844125509 0.0595107973 -0.0705864206 0.995787144 0.0585275479 0.652976215 -0.757363141 0.00481501594 0.023972366 -0.99965179 0.0110258078 0.309909165 -0.94055903 -0.138942346 -0.0622927025 0.99805665 0.00157704158 -0.190725029 0.981157541 0.0308849085 -0.391243309 0.916096389 0.0877274647 0.00911273155 -0.999661803 0.0243576001 -0.737258077 -0.671536505 0.0740892366 0.515284657 -0.839949131 -0.170197412 0.0934988856 -0.969654799 -0.225892648 0.370449424 -0.89021343 -0.265117407 -0.158993989 0.980412841 0.11623925 -0.279507875 0.936872363 0.210108459 -0.188497066 0.972381055 0.1376369 0.960972548 -0.223609179 -0.162882596 0.805814683 -0.585017025 -0.0917485133 0.991404057 0.00651163328 -0.130673781 0.614337981 0.788106024 -0.0384408683 0.643961132 0.762336493 -0.0644754991 0.625111938 0.779812098 -0.0335874446 0.453282923 0.891331255 -0.00795201678 -0.976424456 0.0459820405 0.210905179 0.987175763 0.0637744814 -0.14634499 -0.998865545 -0.0361212455 0.0310306102 0.207056433 0.973171949 0.100319244 0.225487858 0.967645466 0.113214143 -0.56899488 -0.23475942 0.788119853 -0.465230167 -0.865881741 -0.183874041 -0.952784538 0.067777507 0.295986146 -0.846165657 0.249946564 0.470670193 -0.963690639 0.191307381 0.186284155 -0.801282644 0.165264741 0.575007558 -0.88375622 0.467748582 -0.013644293 -0.941517413 -0.142796516 0.305211514 0.996615887 0.0640076399 -0.051572971 -0.967081249 0.250102639 0.046931617 -0.960345566 0.118244879 0.25249657 -0.97303766 -0.137286291 0.185337886 0.742826402 0.140670568 0.654538572 0.982360601 -0.114330359 -0.147973672 -0.971618295 0.217880815 0.0921184123 -0.953382134 0.277017862 0.119681306 -0.931041658 0.334486544 0.145877302 -0.976783395 0.195544675 0.0875012428 -0.985624254 0.14657408 0.0840290412 -0.438302577 0.894767702 0.0853324905 -0.946134269 0.320053101 0.0489488989 0.867630005 0.471115887 0.158958912 0.874590039 0.459904611 0.153557792 0.945716977 0.313856035 0.0843431503 0.994321227 0.105834283 -0.0111519983 -0.700545847 -0.677734971 -0.223407447 -0.63591361 0.722725749 0.270705283 0.622328937 -0.733775079 -0.27254504 0.598990023 -0.745993257 -0.291041136 0.349744529 -0.822093666 -0.449266911 0.595304132 -0.788228095 -0.155915082 -0.906098127 0.420188993 0.0492686927 0.938192964 -0.345434487 -0.0216563735 0.951445162 -0.307792217 -0.00400487334 -0.940830827 0.335070938 0.0506437719 -0.979121923 0.200987473 0.0304021407 0.911360502 -0.411470264 -0.0106913801 0.885536253 -0.463962734 -0.0237505343 -0.708826125 -0.689871848 -0.147113234 0.296260625 0.925124943 0.237431109 -0.415115535 -0.853411794 -0.315225959 -0.941711545 0.321601629 0.0987509713 -0.93928951 0.34220472 -0.0251223594 -0.989667416 0.107549056 0.0948243663 0.993842423 -0.0807266012 -0.0758973211 0.840822339 -0.529287755 -0.113455914 -0.985209942 0.156440884 0.069911167 -0.997934639 0.0365162976 0.0528484955 -0.930162966 0.331786603 0.157208577 0.93570888 -0.10737095 -0.336036205 0.95526278 -0.227606803 -0.188860267 0.94214505 -0.299881309 -0.149779409 0.974552214 0.070900552 -0.212652579 0.992126822 0.0212143715 -0.123427354 -0.989786327 0.092711702 0.108293727 -0.996307671 0.0536868945 0.0669976622 -0.996869624 -0.0216962285 0.0760279447 0.999471188 -0.0325166956 0.000214509128 0.943290055 0.317108184 0.098215431 0.994829714 0.0949295759 0.0360866934 0.928327441 0.355461091 0.108883299 -0.978193939 -0.206646338 0.0208300482 -0.983697653 0.0294741616 -0.177398458 -0.998990178 0.0446683913 -0.00483196089 0.244342104 -0.42901659 0.869621575 0.178149879 -0.771893919 -0.610280633 -0.99049902 0.114465445 0.0762194246 -0.993442476 -0.0919207707 0.0679901689 -0.989788055 0.134289384 0.0478123464 0.993556321 -0.00390736945 -0.113272183 -0.996037006 -0.00665104529 0.088690646 0.883759618 -0.466938674 0.030614458 -0.983538985 0.160223648 0.083543323 0.998293936 -0.0105082877 -0.0574347526 -0.98823005 0.1331947 0.0752361864 -0.982374251 0.160792679 0.0953235701 -0.815950096 0.560137153 0.143079817 -0.796250761 -0.546298265 -0.259890229 0.568938136 -0.746214867 -0.345648348 0.103369318 -0.177101478 0.978749096 0.516803443 -0.780298769 0.352204472 0.490234166 -0.800571918 0.344608575 0.193859681 -0.949568629 0.246450365 0.0593050346 -0.991998553 0.111453131 0.0163366348 -0.999539196 0.0255835354 0.00491179619 -0.999848664 0.0166902747 0.933633685 0.000182541189 0.358229101 0.749251187 0.0790785477 0.657547891 0.920395792 -0.0252021756 0.390174866 -0.985654593 0.160826653 0.0511839651 0.0327810571 -0.865532637 0.499778599 0.999525964 -0.0307449959 0.00159138278 0.978891432 -0.20416835 -0.00931628235 0.134985507 -0.984733939 -0.109900117 -0.374446392 0.731143296 0.570280075 -0.498321265 -0.442614913 -0.745498478 -0.542472064 -0.537232935 -0.645836473 -0.418141007 -0.293078691 -0.859804034 0.818556011 -0.548671842 0.170074299 0.6683231 -0.488523364 0.560971618 0.737304986 -0.518645346 0.432883739 0.769611716 -0.638236642 0.0187581889 -0.277981877 0.00567664299 0.960569561 -0.192071885 -0.00475034723 0.981369376 0.00630158605 0.999979377 0.00123894983 0.183489755 0.982944489 -0.0123150945 0.119503506 0.992477 0.0266139712 -0.902755082 0.169794619 0.395225346 -0.885931671 0.225087911 0.405537307 -0.93361634 -0.205463156 0.29350546 -0.927162945 -0.252444506 0.276840389 -0.185712844 -0.982018054 0.0339312293 0.112472802 -0.992476702 -0.0483716913 0.147946611 -0.987775028 -0.0491151847 0.990126848 0.140117466 -0.00398275815 0.991244078 0.104909651 -0.0801817998 0.98839426 0.146865711 -0.038823992 -0.138701111 0.146704629 -0.979407847 0.000542945985 0.195423946 -0.980718732 0.173637405 0.982208788 -0.0715257525 0.180949152 0.981939316 -0.0552500337 -0.0176918246 0.996728718 -0.0788598806 0.067556113 0.971178889 -0.228577748 -0.737029791 0.674947321 0.0351166874 -0.0597545989 0.991170585 0.11836493 -0.158091903 0.981995642 -0.103399687 -0.132952929 0.985450685 -0.105879493 -0.0967744961 0.918736756 -0.382828206 0.982369363 0.127252087 -0.136957467 0.986489117 0.0540885665 -0.154640555 -0.144929633 -0.98930949 0.0161891133 0.4331747 -0.900594592 -0.0359029956 -0.0138718188 -0.991393864 0.130176172 -0.0186664741 0.990415931 0.136849642 0.0340039767 0.988068819 0.150212288 0.99581641 0.0467386879 -0.0785187334 0.802490652 0.154418051 0.576336503 -0.542429566 0.466754407 -0.698505938 -0.378980279 0.55094564 -0.743527293 -0.599110782 0.430618286 -0.675006807 0.993792653 -0.106553867 -0.0319752917 0.992602468 -0.0830574781 -0.0885536671 0.999544442 -0.0126318447 -0.0274105668 0.00332600554 -0.99812758 -0.0610757321 -0.0174497198 -0.977311969 -0.211084843 0.779993176 -0.6256001 0.0153338555 -0.937355042 -0.347965032 0.0169066768 -0.967695117 -0.245624021 0.0568770058 -0.987040222 -0.123927176 0.101949543 -0.912387311 -0.409249306 -0.00802706089 0.183144376 -0.952705145 0.242509782 0.968910575 -0.0692233294 -0.237529784 0.981545448 -0.0133111384 -0.190765247 -0.998369098 0.00805977639 0.0565171279 -0.997656524 0.0125379022 0.06726221 -0.983333886 -0.0750436038 0.165598616 -0.940148711 -0.139485434 0.310908616 -0.827793896 -0.314515352 0.46458295 0.915254772 -0.322515249 -0.241438672 0.753178239 0.648776889 0.108678952 -0.822241426 -0.266667575 0.50279963 0.866189599 0.292506993 -0.405160785 0.932635128 0.260810614 -0.24933818 0.918847919 0.0595061332 -0.390099376 0.996971846 -0.0758598745 -0.0170994066 0.99662441 -0.0801434293 -0.0178003181 0.997016728 -0.0752891302 -0.0170060098 -0.938711047 0.199436888 0.281152099 -0.97682631 -0.170744732 0.129060417 -0.994861126 0.0936141983 0.0385712162 -0.292775601 0.95609647 0.012726279 -0.194165915 0.979307115 0.057071764 -0.176775455 0.982121587 0.0647122189 -0.339017421 0.94073987 -0.00869899057 -0.100791015 0.98481822 -0.141330361 0.236998469 0.961508453 -0.139043793 0.347635061 0.905306935 -0.244067982 0.134248316 -0.951100528 0.278181821 0.0861136168 -0.963019907 0.255298167 -0.100043364 -0.984858751 0.141578645 0.319036365 0.946037471 -0.0568235666 -0.597867429 -0.799130559 0.0628081858 0.449505448 -0.891937315 -0.0489151962 0.488244534 -0.870920062 -0.055816561 0.0145097449 0.99973613 -0.0178074446 0.0480174012 0.997490823 0.0520224124 0.271796048 0.962354898 -5.44416343e-06 -0.224446654 -0.867626965 0.443674594 -0.974522114 -0.191019833 0.117550485 0.972961724 0.206219733 -0.104014188 0.621868908 -0.775273561 -0.110588945 -0.994657934 -0.0245693196 0.100259498 0.999375284 0.0308823045 -0.0171839092 0.994080245 0.0885886326 -0.0629010201 0.983853936 0.162783638 -0.0743837506 -0.947932959 0.316721708 0.0333243199 0.989948571 0.131159216 -0.0529067293 0.993399799 0.04132054 -0.107002355 0.983668506 0.176252425 -0.0364882015 0.988023579 0.150015309 -0.0361228324 0.993138254 -0.116541468 -0.00972027984 -0.310970724 -0.935341656 0.168621629 0.0424825512 0.973551154 -0.224484801 0.0289069749 0.975099683 -0.219874993 -0.0241165143 0.982035041 -0.187151089 -0.35635519 -0.933945179 0.0275207348 0.461685449 0.882225156 -0.0923326686 0.437435985 0.893902779 -0.0979163051 -0.13744837 -0.971828043 0.191463366 0.293789566 0.953454971 -0.0679067448 -0.994738758 0.102425314 0.00195934763 0.997612178 0.0645747855 0.0244959407 0.999473393 -0.00925270934 -0.0311014745 -0.959001005 -0.274262071 0.0713958144 -0.973232508 -0.226062492 0.0414037853 -0.986930192 -0.156831369 0.0370497815 -0.628167629 -0.77650404 0.0494660065 -0.992724538 -0.115284085 0.0347498208 0.98767823 0.151297703 -0.0400088131 -0.994622767 -0.0884078667 0.0539403595 -0.987606227 -0.155170798 -0.0235781651 -0.993838549 -0.0330006927 0.105810851 0.993856549 0.1064725 -0.0302129965 -0.79513222 -0.578173697 0.182975397 0.478494853 0.843335509 -0.244597495 -0.517802298 0.795748711 0.314109504 0.528645098 0.848824143 -0.00565029588 6.68269104e-06 -0.991371632 -0.131081119 0.766358435 0.578299046 -0.279758781 -0.920416653 0.304208755 0.245540693 -0.991891265 -0.110694468 -0.0624377169 -0.996888816 0.0309166107 0.0725041702 -0.645238459 -0.763038039 0.0379503593 0.00193724653 -0.967050076 0.254578948 -0.0658213347 -0.969789386 0.234896034 -0.192734987 -0.961766124 0.194574416 -0.243072987 -0.953668475 0.177290559 -0.975927651 0.213289246 0.0455299169 -0.960678041 0.251487046 -0.117694527 -0.909533858 0.28878063 0.298921287 0.785889626 -0.589008272 0.188272908 -0.352399945 0.895752668 0.271000922 -0.098388046 -0.0723095387 -0.992517591 -0.130795568 -0.111581646 -0.985110164 -0.0943236202 -0.067392908 -0.99325788 -0.0612191744 -0.0274184812 -0.99774766 -0.00411018124 -0.759367049 0.650649548 -0.0186621193 0.7131868 0.700725615 0.0230815019 0.735872746 0.676726341 -0.0670603663 0.684313118 0.726098061 0.00866308436 -0.999765396 -0.0198527463 -0.00581850577 -0.99992466 0.0108064627 -0.123286836 -0.0451522991 0.991343319 -0.0283227749 0.999379396 0.0209448598 -0.0283321515 0.999530792 0.0116384607 0.00270982459 0.999991715 -0.00304308743 0.957342029 -0.0440764278 -0.285575718 0.9582268 0.0404007621 -0.283141702 -0.994371951 -0.0817303732 0.0674130544 -0.998618603 -0.0272805113 -0.0449068472 0.071239233 0.759491861 0.6466043 -0.139184609 -0.982914746 0.120441787 0.202678844 0.41888839 0.885129273 -0.612108171 0.528685987 0.5880602 0.0370843597 -0.998246551 0.046136383 -0.0376056209 -0.991205335 0.126877025 -0.999982178 0.00542172277 0.00249369279 -0.589163125 -0.664090037 -0.460294664 0.0454160385 0.704971433 0.707780063 -0.0445300303 0.764634132 0.642924368 0.993481219 -0.107719004 -0.0373058654 -0.0335078351 -0.973827899 -0.22480312 0.737385213 0.107044384 0.666936696 0.890870154 -0.116309926 -0.439115405 0.85111773 -0.202339232 -0.484414488 -0.15750213 -0.978068292 -0.136291921 0.117457546 -0.993074536 0.00259528984 -0.252876163 -0.951173425 -0.176982507 -0.275343716 -0.93639195 -0.217614159 0.0807918906 -0.996724963 -0.00346907717 0.0538246706 -0.997864127 -0.037015032 0.224666193 0.974408388 -0.00730572455 0.00720616942 -0.999837458 0.0165248066 -0.00196710043 0.998499155 -0.0547318123 0.468787402 -0.162794426 -0.868179917 0.153076336 -0.987075269 -0.0474346541 -0.603832245 -0.282051086 -0.745542645 -0.716887414 0.340080321 -0.608619571 -0.164730161 0.983750105 0.0714126006 -0.029522622 0.997989714 0.0560795479 0.0135967825 0.999364793 0.0329409279 0.995690167 0.0436625294 -0.0818210989 0.997543633 0.0700399727 -0.00106544164 -0.690644026 -0.304760903 0.655844212 0.961822867 -0.0192430895 0.272995472 0.992179155 0.013957208 0.124039426 0.401094824 0.481787056 0.77910471 0.82308799 0.0282133427 -0.567212641 0.630391359 0.0766554698 -0.772483408 0.913997114 -0.0652059242 0.400446594 0.304087967 -0.827462196 -0.472055972 0.974395037 -0.200365454 -0.102019325 0.415386885 0.909637213 0.00372159155 0.52838254 -0.559040368 0.638972402 -0.237450838 -0.0299839992 -0.970936716 0.921051443 -0.25561744 0.293809503 0.993403494 -0.0946768522 0.0646976978 0.998095036 -0.058035057 -0.0209352355 -0.0102682645 -0.997098446 -0.0754273459 -0.214549705 -0.975795805 0.0423201807 -0.0257023945 0.998991489 -0.0368151404 0.99026686 -0.0492104962 -0.130191892 0.982592523 0.0910310894 0.16194202 0.983720481 -0.178444922 -0.0212476738 0.984663963 0.173179299 0.0211146623 0.809928954 0.396221519 0.432462245 -0.564452529 -0.581871212 0.585507751 -0.621376812 -0.782755494 -0.0344199203 0.996579051 -0.0806854814 -0.0178890061 -0.269169599 0.0113259908 0.963026166 0.898527622 -0.398672611 -0.183598086 0.999015033 0.00175892259 -0.0443384051 0.0210376047 0.03019288 0.999322653 0.991161168 0.111692183 0.0715847611</float_array>
          <technique_common>
            <accessor source="#normals_array" count="564" stride="3">
              <param name="X" type="float" />
              <param name="Y" type="float" />
              <param name="Z" type="float" />
            </accessor>
          </technique_common>
        </source>
        <vertices id="vertices">
          <input semantic="POSITION" source="#positions" />
        </vertices>
        <triangles material="scout_b2b2b2" count="458">
          <input semantic="VERTEX" source="#vertices" offset="0" />
          <input semantic="NORMAL" source="#normals" offset="1" />
          <p>0 0 1 1 2 2 3 3 4 3 2 3 4 4 1 4 0 4 4 5 3 5 1 5 5 6 6 7 7 8 8 9 9 10 10 11 8 9 10 11 11 12 12 13 13 13 14 13 15 14 16 15 7 16 17 17 7 16 18 18 17 19 19 20 20 21 21 22 22 23 23 24 24 25 16 26 25 27 26 28 24 25 25 27 26 28 25 27 21 29 7 16 16 15 18 18 16 30 24 30 18 30 27 31 28 32 29 33 24 34 20 35 18 36 5 37 7 38 17 39 17 39 20 35 24 34 30 40 7 41 6 42 19 43 31 43 7 43 19 44 7 45 30 46 32 47 31 48 19 20 33 49 31 50 9 51 32 52 34 52 31 52 9 53 34 53 32 53 14 54 21 54 25 54 35 55 5 56 30 57 36 58 37 59 30 46 35 60 37 60 36 60 33 61 38 62 31 63 39 64 40 64 41 64 42 65 21 65 23 65 42 66 26 28 21 29 26 28 42 66 18 67 18 68 43 69 26 70 37 71 43 72 44 73 44 74 19 44 37 59 9 75 31 75 34 75 43 76 5 77 24 78 45 79 8 79 11 79 46 80 45 81 47 82 48 83 49 84 50 85 51 86 52 86 50 86 48 87 50 88 53 89 50 90 52 90 54 90 52 91 51 91 48 91 55 92 54 93 48 94 15 14 12 95 16 15 15 14 56 96 12 95 57 97 15 98 6 99 57 97 56 100 15 98 14 101 58 101 21 101 59 102 60 103 61 104 58 105 55 106 21 22 35 55 62 107 5 56 36 108 62 108 35 108 6 42 35 109 30 40 63 110 35 110 6 110 64 111 65 111 33 111 66 112 55 92 58 113 67 114 68 115 62 116 67 117 62 117 12 117 69 118 12 118 62 118 67 119 70 119 68 119 70 120 69 120 62 120 67 121 69 122 70 123 12 124 57 125 68 126 56 96 67 127 12 95 15 128 63 128 6 128 71 129 63 130 15 131 71 129 65 132 63 130 56 133 69 122 67 121 63 134 56 135 57 136 5 137 36 137 30 137 69 122 56 133 72 138 65 139 56 135 63 134 65 139 72 140 56 135 39 141 36 142 5 77 35 143 39 143 37 143 62 144 36 145 39 146 35 147 40 148 39 149 73 150 74 151 75 152 66 153 58 153 76 153 58 154 70 155 76 156 77 157 76 156 70 155 63 158 40 148 35 147 78 159 79 159 80 159 76 160 77 160 66 160 41 161 77 161 70 161 81 162 0 0 2 2 12 163 68 164 70 165 4 166 0 166 81 166 4 167 82 167 2 167 2 168 82 168 81 168 82 169 83 169 81 169 3 170 84 170 1 170 84 171 81 171 1 171 84 172 4 172 81 172 3 173 85 174 84 175 85 176 1 176 81 176 84 175 82 177 4 178 85 174 82 177 84 175 82 179 85 180 86 181 3 173 53 182 85 174 72 183 64 184 87 185 88 186 86 186 81 186 88 187 89 188 86 189 90 190 88 191 83 192 86 181 89 193 90 194 91 195 92 196 93 197 94 198 95 198 96 198 94 199 97 200 98 201 99 202 96 203 89 193 100 204 101 205 89 206 100 207 99 208 98 209 102 210 100 211 89 212 102 213 99 208 100 207 6 7 68 126 57 125 103 214 29 215 104 216 29 217 103 218 105 219 106 220 89 188 88 187 107 221 102 210 89 212 108 222 107 222 89 222 104 216 101 223 109 224 110 225 109 226 101 227 106 228 111 229 109 230 109 224 111 229 104 216 112 231 105 232 113 233 112 231 29 234 105 232 95 235 90 235 96 235 95 236 88 191 90 190 114 237 96 237 108 237 99 208 108 238 96 239 99 208 102 213 108 238 108 240 89 240 106 240 109 241 108 241 106 241 115 242 108 243 109 244 114 245 108 243 115 242 102 246 116 246 108 246 109 244 117 247 115 242 108 248 116 248 107 248 110 249 118 250 109 244 119 251 117 247 118 250 116 252 102 252 107 252 106 228 119 253 111 229 120 254 119 255 110 256 111 229 103 214 104 216 121 257 120 254 122 258 103 218 120 259 105 219 123 260 122 258 120 254 124 261 122 262 125 263 122 262 123 264 125 263 126 265 122 265 124 265 121 266 122 266 74 266 121 267 74 268 123 269 74 270 122 270 126 270 123 260 120 254 103 271 127 272 128 273 74 151 129 274 123 260 103 271 129 274 128 275 123 260 128 273 91 276 125 277 128 278 130 278 91 278 129 279 130 279 128 279 127 280 130 280 129 280 131 281 127 282 129 274 131 281 129 274 91 283 127 284 91 195 130 285 132 286 91 283 133 287 110 256 119 255 106 288 106 289 118 290 110 291 134 292 118 290 106 289 134 292 119 253 118 290 119 253 124 293 111 229 135 294 136 295 120 254 103 271 91 283 129 274 137 296 136 295 135 294 135 297 121 298 124 299 121 257 135 294 120 254 121 298 126 300 124 299 138 301 139 302 121 303 138 304 135 304 139 304 139 305 126 305 121 305 75 306 138 301 121 303 60 307 138 301 75 306 73 308 75 306 121 303 73 150 127 272 74 151 127 272 73 150 60 309 127 310 60 307 75 306 131 311 128 273 127 272 60 103 73 308 128 275 60 103 128 275 131 312 140 313 92 196 127 284 55 106 53 89 22 23 92 196 91 195 127 284 93 314 131 312 133 315 132 286 92 316 131 281 93 317 92 317 132 317 92 318 133 318 131 318 46 80 47 82 141 319 142 320 143 321 144 322 141 323 47 324 145 325 146 326 141 327 145 328 61 104 93 314 132 329 61 330 132 330 133 330 61 331 133 332 92 196 147 333 50 333 49 333 51 334 50 334 147 334 54 335 147 336 53 337 148 338 149 339 147 340 148 338 147 340 49 341 150 342 87 185 151 343 149 344 148 345 51 346 54 93 149 344 51 346 148 347 49 348 152 349 153 350 148 347 152 349 154 351 152 352 155 353 155 354 153 355 154 356 51 357 155 358 49 84 148 345 153 359 155 360 87 185 64 184 151 343 156 361 55 92 157 362 17 39 24 34 5 37 153 363 152 363 143 363 110 225 113 364 105 219 158 365 159 366 95 367 156 368 97 200 158 369 160 370 161 371 162 372 97 373 114 374 159 366 156 368 157 375 97 200 157 376 142 376 163 376 157 377 163 378 143 379 117 247 109 244 118 250 162 380 28 381 164 382 18 383 42 384 104 216 50 385 54 385 53 385 159 386 154 387 95 388 159 386 143 389 154 387 153 355 95 236 154 356 144 322 143 321 159 390 153 355 165 391 106 392 144 393 159 394 114 395 163 396 144 393 114 395 166 397 163 396 114 395 165 398 117 398 114 398 165 399 163 399 117 399 163 400 115 242 117 247 163 401 166 402 115 403 163 404 167 405 144 406 115 403 134 292 106 289 166 402 134 292 115 403 168 407 142 407 167 407 169 408 117 247 119 251 169 408 166 409 117 247 143 410 165 411 153 412 143 410 163 413 165 411 142 414 168 414 163 414 157 362 170 415 166 416 162 372 142 417 166 418 169 419 162 372 166 418 170 415 171 420 166 416 160 370 162 372 169 419 172 421 160 370 169 419 161 371 173 422 28 423 87 424 173 425 160 426 172 427 119 427 136 427 172 428 169 408 119 251 171 429 119 253 134 292 138 301 136 295 137 296 124 430 139 430 135 430 140 431 137 296 135 294 124 293 137 432 139 433 124 293 138 434 137 432 137 432 140 313 139 433 101 435 99 202 89 193 138 434 140 436 135 437 174 438 175 439 140 436 60 440 140 436 175 439 59 441 176 441 60 441 177 442 178 443 59 444 175 445 179 445 176 445 175 446 59 444 179 447 178 448 177 448 176 448 176 449 179 449 140 449 176 450 140 450 60 450 59 444 178 443 179 447 178 451 61 331 179 452 161 371 160 370 173 422 166 402 171 429 134 292 172 453 136 295 138 301 175 454 180 455 60 307 171 429 138 434 124 293 171 429 174 438 138 434 174 456 160 370 172 421 138 434 174 438 140 436 174 457 60 307 180 455 174 438 181 458 175 439 177 459 180 455 176 460 181 461 180 455 177 459 181 458 59 462 175 439 181 463 176 463 59 463 181 464 178 464 176 464 174 465 180 465 181 465 160 426 174 466 171 420 177 459 59 102 61 104 181 461 177 459 61 104 1 1 98 467 2 2 53 468 3 468 2 468 110 225 101 227 113 364 9 469 32 469 10 469 53 89 2 470 22 23 38 62 71 471 7 16 71 471 15 14 7 16 31 63 38 62 7 16 39 141 5 77 43 76 93 314 60 103 131 312 17 472 10 472 32 472 6 7 5 6 68 126 114 473 97 474 96 475 97 474 94 476 96 475 13 477 12 163 58 478 14 479 13 477 58 478 12 163 70 165 58 478 12 480 69 480 57 480 52 481 48 94 54 93 131 281 91 283 132 286 80 482 64 483 72 484 72 484 78 485 80 482 81 486 86 486 85 486 80 487 65 488 64 489 11 490 145 325 47 324 29 215 145 325 10 491 145 325 11 490 10 491 64 184 33 492 151 343 146 493 8 494 45 495 157 375 98 201 97 200 182 496 149 497 158 369 149 497 156 368 158 369 12 95 14 498 25 499 25 499 16 15 12 95 65 488 80 487 79 500 26 28 43 501 24 25 103 214 125 277 91 276 22 23 21 22 55 106 33 502 65 502 38 502 73 308 123 260 128 275 120 259 110 225 105 219 71 503 38 503 65 503 65 139 79 504 78 505 78 505 72 140 65 139 48 87 53 89 55 106 37 71 39 506 43 72 147 336 54 335 51 507 140 313 75 152 74 151 41 508 70 509 62 144 93 197 133 510 91 195 42 384 23 511 98 467 46 512 141 327 146 326 85 513 182 496 1 514 63 134 57 136 41 515 40 516 63 134 41 515 57 136 69 517 41 515 77 518 41 515 69 517 83 519 88 519 81 519 182 520 98 467 1 1 83 521 82 179 86 181 90 194 83 521 86 181 104 216 17 522 18 383 42 384 98 467 101 223 77 523 69 122 72 138 72 138 87 424 160 426 136 295 119 255 120 254 166 524 142 524 157 524 49 84 48 83 51 357 127 284 75 152 140 313 157 362 55 92 66 112 124 293 125 277 111 229 170 415 66 112 77 523 155 353 152 352 49 525 104 216 42 384 101 223 155 360 51 346 148 345 149 344 55 92 156 361 158 526 95 526 94 526 98 201 182 496 94 199 94 199 182 496 158 369 98 527 157 377 143 379 146 493 150 528 151 529 8 494 146 493 151 529 151 529 33 49 8 494 8 494 33 49 9 51 45 495 46 530 146 493 27 531 112 532 164 382 164 382 112 532 162 380 28 381 27 531 164 382 11 533 47 533 45 533 150 534 146 326 29 535 145 328 29 535 146 326 30 46 37 59 19 44 106 536 165 536 114 536 106 289 114 537 115 403 29 33 28 32 173 538 29 535 173 539 150 534 157 362 66 112 170 415 74 268 125 540 123 269 74 151 128 273 125 277 19 20 17 19 32 47 126 541 139 433 74 151 74 151 139 433 140 313 27 542 29 234 112 231 39 146 41 508 62 144 149 497 182 496 85 513 10 491 17 522 29 215 147 340 149 339 53 543 140 313 61 331 92 196 54 93 55 92 149 344 85 544 53 544 149 544 143 545 142 546 98 547 142 546 100 204 98 547 23 511 22 548 98 467 104 216 29 215 17 522 170 415 77 523 72 138 153 355 106 392 95 236 106 392 88 191 95 236 111 229 125 277 103 214 143 549 152 352 154 351 43 69 18 68 20 21 43 69 20 21 44 550 44 550 20 21 19 20 158 365 97 373 159 366 183 551 184 552 142 553 162 380 183 551 142 553 98 467 22 548 2 2 121 303 123 260 73 308 160 426 170 415 72 138 60 307 172 453 138 301 162 380 112 532 183 551 112 532 113 554 183 551 113 554 142 555 184 552 183 551 113 554 184 552 114 395 117 556 166 397 119 253 171 429 124 293 144 557 167 557 142 557 167 405 163 404 168 558 161 371 28 423 162 372 87 185 150 342 173 559 170 415 160 426 171 420 96 203 90 194 89 193 101 560 98 560 99 560 142 546 113 561 101 205 175 454 176 460 180 455 61 331 140 313 179 452 142 546 101 205 100 204 174 457 172 453 60 307 93 314 61 104 60 103 5 562 62 116 68 115 178 451 181 563 61 331</p>
        </triangles>
      </mesh>
    </geometry>
  </library_geometries>
  <library_visual_scenes>
    <visual_scene id="scene">
      <node id="right_knee_link">
        <instance_geometry url="#geometry">
          <bind_material>
            <technique_common>
              <instance_material symbol="scout_b2b2b2" target="#scout_b2b2b2" />
            </technique_common>
          </bind_material>
        </instance_geometry>
      </node>
    </visual_scene>
  </library_visual_scenes>
  <scene>
    <instance_visual_scene url="#scene" />
  </scene>
</COLLADA>