<?xml version='1.0' encoding='utf-8'?>
<COLLADA xmlns="http://www.collada.org/2005/11/COLLADASchema" version="1.4.1">
  <asset>
    <created>2026-09-14T00:00:00Z</created>
    <modified>2026-09-14T00:00:00Z</modified>
    <unit name="metre" meter="1" />
    <up_axis>Z_UP</up_axis>
  </asset>
  <library_effects>
    <effect id="scout_b2b2b2_effect">
      <profile_COMMON>
        <technique sid="common">
          <lambert>
            <emission>
              <color>0 0 0 1</color>
            </emission>
            <ambient>
              <color>0.35 0.35 0.35 1</color>
            </ambient>
            <diffuse>
              <color>0.7 0.7 0.7 1</color>
            </diffuse>
          </lambert>
        </technique>
      </profile_COMMON>
    </effect>
  </library_effects>
  <library_materials>
    <material id="scout_b2b2b2" name="scout_b2b2b2">
      <instance_effect url="#scout_b2b2b2_effect" />
    </material>
  </library_materials>
  <library_geometries>
    <geometry id="geometry" name="right_wrist_yaw_link">
      <mesh>
        <source id="positions">
          <float_array id="positions_array" count="210">-0.0166590493 -0.00583788892 -0.022908086 -0.0175761301 -0.00695337309 -0.0245872475 -0.00857520755 -0.0157949589 -0.0233072191 -0.00783896074 -0.0036147607 -0.0284723304 -0.00563850021 -0.0172730051 -0.0248297937 -0.0114999115 0.000933380914 -0.0288625117 -0.00286800903 -0.0103003578 -0.0288927555 -0.0175615456 0.00290861423 0.0219674464 -0.015698472 -0.00755601376 0.0223195292 -0.01784027 -0.00447158003 0.0241391696 -0.00815565046 -0.0161303468 0.021688791 -0.00794441439 -0.0166833978 0.0245184358 -0.007171534 -0.00571508566 0.0292752385 -0.0061270711 -0.00638410961 0.0276524629 -0.0156642403 0.00969745684 -0.0235565994 -0.00897900015 0.0157350488 -0.0231532119 0.0411945097 -0.0240031201 -0.00323641161 0.0367070474 -0.0296189785 0.00563129596 0.0364670604 -0.026741283 -0.0152121335 -0.0033713344 0.0069736056 -0.0283532385 -0.0066894521 0.0166983865 -0.0250572711 0.0267088469 -0.0195426121 -0.0230768695 0.0365860164 -0.012112787 -0.0282649286 -0.0152096013 0.0109050199 0.022727726 0.0286643952 0.0215215515 -0.0102856997 0.0359959118 0.02006476 -0.0200216323 0.035716936 0.0225055777 0.00339401956 -0.0074531422 0.0161651596 0.0223797616 -0.00432140473 0.0173793938 0.024526326 -0.00661070133 0.00558890123 0.0295524132 0.027219912 0.0193241853 -0.0217990056 0.035462711 0.00887304079 -0.0282987822 0.0363984481 -0.0112355724 0.028524546 0.0284361541 -0.026872769 -0.00897991005 0.0285187047 -0.0282558296 -0.0107959192 0.0280990228 -0.0279591326 0.00779791549 0.0278116353 -0.0189130828 -0.0215313025 0.0412974134 -0.0131810186 -0.0198508743 0.0395429172 0.00315775932 -0.0240665469 0.0358385295 -0.0117210569 -0.0268460214 0.0395918489 -0.0195243098 -0.0145636844 0.0270220973 -0.0201878455 0.0221727863 0.0290041901 -0.0238458868 0.0153603358 0.0246124025 -0.0180441048 0.0215712301 0.035846889 0.019148292 0.0214547869 0.0395339578 0.00223092805 0.0243867282 0.0359038822 0.00541672902 0.0280676987 0.0409203172 0.00472068554 0.0231575593 0.0364539102 0.0122261783 0.0278457087 0.0356912501 -0.0117310379 0.0264797769 0.0357500613 -0.0267096031 0.0121002197 0.0365898721 -0.0238368567 0.0183280222 0.0411893129 -0.0166407973 0.0184047204 0.0396154337 -0.0202469621 0.0134921316 0.0262687355 0.0180171244 0.0214788876 0.0284172148 0.0237644557 -0.00552135846 0.0362672918 0.00342040323 -0.0305534583 0.0365033858 0.0162356328 -0.0259579457 0.0410567895 0.00301050558 -0.0243956819 0.0395388678 0.0168212187 -0.0156535693 0.0408530682 0.0176633298 -0.0137013765 0.0369367301 0.023203589 -0.0142299021 0.027524 0.0204524174 0.021866383 0.0286734775 0.0212924462 0.0119092232 -0.00632828521 0.00635914411 0.0276000127 0.0407706164 0.0173402205 0.0158358235 0.0365874879 0.0221082065 0.0181627534 0.035861589 -0.0263140015 -0.0123414043 -0.00312314346 0.00596807478 -0.0303326473 0.039499592 0.016771879 0.0157515313</float_array>
          <technique_common>
            <accessor source="#positions_array" count="70" stride="3">
              <param name="X" type="float" />
              <param name="Y" type="float" />
              <param name="Z" type="float" />
            </accessor>
          </technique_common>
        </source>
        <source id="normals">
          <float_array id="normals_array" count="390">-0.57954222 -0.496419579 0.646295965 0.178366795 0.393722206 0.901758313 0.259224415 0.126704738 0.957469881 0.49756515 0.1598441 0.852571845 -0.579895675 -0.659577727 -0.478203177 -0.460888058 -0.19917281 -0.864819288 -0.242686719 -0.495983571 -0.833728611 -0.406977266 0.044699654 -0.912343919 -0.130569518 -0.302551836 -0.944147229 -0.760717213 -0.156627506 -0.629902482 -0.747742295 -0.649812043 0.136476099 -0.716154397 -0.648902655 0.25699836 -0.773070931 -0.63272649 -0.0449286327 -0.774283886 -0.629467905 -0.0652276427 -0.520894289 -0.0410985388 0.852631211 -0.173890352 -0.402443945 0.898777485 -0.225283459 -0.190310478 0.955525637 0.457554251 0.202744961 -0.865758955 0.221245423 0.235253811 -0.946417511 0.191962138 0.4880611 -0.851438105 -0.484795958 0.272752255 -0.831010878 0.276669055 -0.185539946 0.942883432 0.16671291 -0.36572051 0.915672064 0.916602731 -0.39661929 -0.0503251925 0.838658273 -0.532459557 0.114625804 0.83348 -0.478651017 -0.276051313 0.176583543 -0.251214921 0.951687634 -0.60794723 0.698394358 -0.377684325 0.0183604136 -0.64653641 -0.762662113 0.0346613713 -0.40122661 -0.915322781 -0.00134976173 -0.876560807 -0.481289178 -0.510235488 0.287252694 0.810645163 -0.820016861 0.189852014 0.539933801 -0.00370076555 -0.994455934 0.105088778 0.00809265301 -0.988047719 0.153935745 0.0784489885 -0.996437013 -0.0309676267 -0.134127751 0.132818699 -0.982022882 -0.522978246 0.792006314 0.314991653 -0.148921147 0.43284288 0.889083564 -0.24258697 0.194162667 0.950501144 -0.0284464303 -0.543985367 0.838612378 -0.0272249095 -0.266251743 0.963518977 -0.112747476 -0.587354302 0.801438034 0.0290263295 -0.314829141 0.948704422 -0.0883034244 -0.794439971 0.600889027 -0.0977174267 -0.893005431 0.43930921 -0.0891629457 -0.803269148 0.588904619 -0.99804765 -0.0624190234 0.0021676016 -0.990080655 -0.129778177 0.0538321957 -0.993892074 -0.1047846 0.0346231945 -0.999285817 -0.0306752604 -0.0220655315 -0.787565053 0.501933515 0.357496858 0.937241435 -0.205548182 -0.281653017 0.825148821 -0.218683422 -0.520871401 -0.917370617 -0.0297369733 0.396921694 -0.47937113 0.340288132 0.808954477 -0.908649266 0.332933158 0.252015978 -0.0148609821 0.879115105 -0.476377726 0.00451966934 0.82099849 -0.570912421 -0.0597004779 0.98484844 -0.162817195 -0.678570747 -0.711022198 0.184361711 -0.822887182 -0.430653334 -0.370667458 -0.909763455 -0.0222323425 -0.414531231 -0.765771568 -0.149979323 -0.62537998 0.929354906 0.0514388643 0.36558646 0.827368915 0.227493376 0.513524532 0.833985627 -0.154677987 0.529662848 -0.00981856603 0.629006267 -0.777338266 -0.022830626 0.401548684 -0.915553093 -0.0345304906 0.910124242 -0.41289404 0.787822306 -0.507268786 0.34930557 0.918146908 -0.261555493 0.297649145 -0.911479414 0.336744845 -0.236237645 -0.833909094 0.528364062 -0.159458578 -0.856013119 0.219299048 -0.468134016 0.0445471033 -0.357319087 0.932919443 -0.989929676 -0.140772432 0.0149127431 -0.827009439 -0.523963511 0.203758746 -0.862497568 -0.473638415 0.178226233 0.789853573 0.0600582659 -0.610347688 0.859800577 0.307459533 -0.407690585 0.931950867 0.0553618409 -0.35833317 -0.82495892 -0.461268991 0.326609343 -0.819769263 -0.192760929 0.539278805 -0.919541299 -0.361457855 0.154246807 0.933006227 0.335236698 -0.130827352 0.809918404 0.566900432 -0.150519177 -0.193033606 0.411940187 -0.890529811 -0.883021057 0.465126514 -0.0626983568 0.199952722 -0.442453772 -0.874215961 0.242020398 -0.231799752 -0.942175686 0.483993381 -0.0922133848 -0.870199442 -0.0291060563 -0.960808933 -0.27567932 -0.0358989313 0.175059319 -0.98390317 -0.0365442559 0.66987586 0.741573215 -0.0056335195 -0.182904422 -0.983114541 0.0478146859 -0.966288507 -0.252982825 0.111267388 -0.948477089 -0.296666086 0.0339106992 -0.983463109 -0.177905619 0.00250830036 -0.439806521 -0.898089051 0.917628467 0.358102441 0.172396719 0.785221875 0.561375558 0.261312246 -0.0927549899 0.990526021 0.101265848 -0.0520106852 0.965725899 -0.25429976 -0.00205637142 0.999515653 -0.0310520455 0.0375851206 0.96902132 0.244100586 -0.430994868 0.839929819 0.329789788 -0.895407975 0.0756537914 0.438772202 -0.137808233 -0.953245759 0.268945009 -0.0979029238 -0.982238531 0.16007024 -0.0583854169 -0.817888558 0.572406709 0.0567561351 0.364483267 0.929478705 -0.0979310721 -0.895309687 0.434545785 0.010356986 0.0959922448 -0.995328188 -0.126483962 0.190306664 -0.973542571 0.0256031305 0.630775988 -0.775542498 -0.0206228495 0.852902412 -0.521662891 0.162486389 0.689453423 0.705869734 0.0653404072 0.632136166 0.772097468 -0.057941366 -0.980586529 -0.187330738 -0.0990879983 -0.370530218 -0.92351985 -0.806949139 -0.590497017 -0.012096215 -0.91182375 -0.377924532 -0.160469741 0.0460938811 -0.982275307 0.181688115 -0.400812775 -0.907884121 -0.122863822 -0.994144738 -0.108054243 -0.00070857536 -0.105381064 0.932618916 0.345132947 -0.0130602149 -0.672327101 0.740138948 -0.13297233 0.984458625 0.114715286 -0.118974917 0.928535938 -0.351661682</float_array>
          <technique_common>
            <accessor source="#normals_array" count="130" stride="3">
              <param name="X" type="float" />
              <param name="Y" type="float" />
              <param name="Z" type="float" />
            </accessor>
          </technique_common>
        </source>
        <vertices id="vertices">
          <input semantic="POSITION" source="#positions" />
        </vertices>
        <triangles material="scout_b2b2b2" count="136">
          <input semantic="VERTEX" source="#vertices" offset="0" />
          <input semantic="NORMAL" source="#normals" offset="1" />
          <p>0 0 1 0 2 0 2 1 3 2 0 3 2 4 1 5 4 6 5 7 6 8 1 5 7 9 8 9 9 9 9 10 8 11 10 12 9 10 10 12 11 13 9 14 11 15 12 16 8 17 13 18 10 19 14 20 5 7 1 5 14 21 0 3 3 2 15 22 14 21 3 2 16 23 17 24 18 25 3 2 19 26 15 22 15 27 20 27 14 27 21 28 22 29 18 30 23 31 7 32 9 14 24 33 25 34 26 35 23 36 27 36 7 36 23 37 28 37 27 37 28 38 23 31 29 39 30 40 31 41 25 42 32 43 12 16 11 15 4 44 21 45 2 46 33 47 21 48 34 49 33 47 34 49 35 50 36 51 21 51 33 51 37 52 18 25 22 53 38 54 39 55 40 56 41 57 42 58 35 59 43 60 42 60 41 60 44 61 45 62 46 63 47 64 48 65 32 66 43 67 49 68 50 69 51 70 17 24 52 71 53 72 50 73 49 74 51 70 52 71 32 66 53 72 49 74 45 62 6 8 22 29 4 6 27 75 54 75 44 75 55 76 30 77 24 78 56 79 57 80 58 81 25 82 31 83 59 84 59 84 31 83 38 54 57 80 60 85 58 81 60 85 57 80 61 86 14 20 20 87 5 7 62 88 63 88 54 88 27 89 64 90 7 91 21 28 18 30 34 92 27 93 62 93 54 93 39 55 2 1 36 94 13 18 46 95 49 68 44 96 54 97 63 98 64 90 44 99 46 95 65 100 48 65 47 64 66 101 48 65 65 100 43 67 50 69 42 58 66 102 61 103 55 104 1 5 6 8 4 6 33 105 35 59 67 106 17 24 16 23 52 71 0 107 14 107 1 107 35 108 17 109 51 110 30 40 15 22 31 41 29 39 48 111 28 38 17 109 34 92 18 30 29 39 9 14 12 16 22 53 58 81 37 52 12 16 32 43 29 39 2 46 21 45 36 112 56 113 6 8 68 114 65 100 61 86 66 101 39 55 31 41 3 2 57 115 30 116 61 103 18 25 37 52 16 23 5 7 68 114 6 8 67 106 39 55 36 94 35 59 50 69 67 106 40 56 50 73 53 72 39 55 67 106 40 56 10 19 13 18 49 68 29 39 32 43 48 111 48 111 66 117 62 118 10 119 43 119 11 119 43 120 41 120 11 120 13 18 8 17 7 91 26 121 69 122 44 61 53 72 45 62 69 122 53 72 69 122 59 84 53 72 59 84 38 54 40 56 53 72 38 54 33 105 67 106 36 94 42 58 50 69 35 59 24 33 30 123 25 34 62 124 55 124 63 124 55 76 24 78 63 125 35 108 34 92 17 109 6 8 56 113 22 29 31 83 39 55 38 54 61 86 65 100 60 85 20 87 57 115 68 114 45 62 49 74 46 63 46 95 13 18 64 90 20 126 15 126 30 126 48 111 62 118 28 38 24 33 26 35 63 98 57 115 20 87 30 116 32 43 11 15 41 127 55 104 61 103 30 116 4 6 22 29 21 28 31 41 15 22 19 26 64 90 13 18 7 91 52 71 47 64 32 66 35 108 51 110 41 127 2 1 39 55 3 2 37 52 60 85 52 71 60 85 65 100 47 64 60 85 47 64 52 71 16 23 37 52 52 71 55 104 62 128 66 102 27 129 28 129 62 129 3 2 31 41 19 26 58 81 22 53 56 79 60 85 37 52 58 81 56 113 68 114 57 115 44 99 64 90 27 89 68 114 5 7 20 87 29 39 23 31 9 14 26 121 25 82 59 84 49 68 43 67 10 19 26 35 44 96 63 98 50 73 40 56 67 106 26 121 59 84 69 122 51 110 32 43 41 127 45 62 44 61 69 122</p>
        </triangles>
      </mesh>
    </geometry>
  </library_geometries>
  <library_visual_scenes>
    <visual_scene id="scene">
      <node id="right_wrist_yaw_link">
        <instance_geometry url="#geometry">
          <bind_material>
            <technique_common>
              <instance_material symbol="scout_b2b2b2" target="#scout_b2b2b2" />
            </technique_common>
          </bind_material>
        </instance_geometry>
      </node>
    </visual_scene>
  </library_visual_scenes>
  <scene>
    <instance_visual_scene url="#scene" />
  </scene>
</COLLADA>