<?xml version='1.0' encoding='utf-8'?>
<COLLADA xmlns="http://www.collada.org/2005/11/COLLADASchema" version="1.4.1">
  <asset>
    <created>2026-09-14T00:00:00Z</created>
    <modified>2026-09-14T00:00:00Z</modified>
    <unit name="metre" meter="1" />
    <up_axis>Z_UP</up_axis>
  </asset>
  <library_effects>
    <effect id="scout_b2b2b2_effect">
      <profile_COMMON>
        <technique sid="common">
          <lambert>
            <emission>
              <color>0 0 0 1</color>
            </emission>
            <ambient>
              <color>0.35 0.35 0.35 1</color>
            </ambient>
            <diffuse>
              <color>0.7 0.7 0.7 1</color>
            </diffuse>
          </lambert>
        </technique>
      </profile_COMMON>
    </effect>
  </library_effects>
  <library_materials>
    <material id="scout_b2b2b2" name="scout_b2b2b2">
      <instance_effect url="#scout_b2b2b2_effect" />
    </material>
  </library_materials>
  <library_geometries>
    <geometry id="geometry" name="right_shoulder_roll_link">
      <mesh>
        <source id="positions">
          <float_array id="positions_array" count="285">0.0410199501 0.00773802539 -0.00145686208 0.0408780314 -0.00441435166 0.0100068385 0.0409837216 -0.00684976205 -0.00694400351 0.034015961 -0.0290786959 0.0183255672 -0.034025345 -0.0229723994 0.0249793194 -0.0340242051 -0.0302867461 0.0166554488 -0.0400981754 -0.0192784294 0.0068332199 -0.0401291437 -0.00592499413 0.0197536964 -0.0400261842 0.0160927474 0.0125562344 0.0399700664 -0.0109221414 0.0179340485 0.0399468616 0.00405506976 0.0206793752 0.00813082792 -0.0395660251 -0.0267433058 0.033793848 -0.0371255316 -0.00385149475 -0.0337860361 -0.0371240228 -0.00377767975 0.0402324907 -0.0159640405 -0.0107893236 0.0403287746 -0.000912087213 -0.0175703093 0.0341325104 -0.0346526988 0.00708732987 0.0334996171 -0.00406081462 -0.0676846802 0.0399663039 0.0159120839 -0.0134733701 0.0389825143 0.0240637399 0.00599288661 0.0401204489 0.0128158228 0.0145165613 0.0403986238 0.0171585176 -0.000852250552 0.0393866301 -0.0241066702 0.00388028752 0.0404337682 -0.0168632027 0.00460255332 0.0376622193 -0.0275675971 0.00974779483 0.0386666283 -0.0255855359 -0.00932400208 0.0325414911 -0.0157942716 -0.0678690821 0.0381561592 0.0069755814 0.0262175482 0.0382581018 -0.00884651672 0.025291428 0.0372616462 -0.0186204445 0.0222826004 0.0231822189 -0.0124516543 -0.103199996 0.0239251833 -0.00269611599 -0.10320276 -0.00305353059 -0.0302633457 -0.103201896 -0.0223408397 0.00307491212 -0.103204384 0.020784609 0.00576000055 -0.103199996 0.0341346301 0.0329165049 -0.00217507617 0.0381432213 0.0253746584 -0.00773159787 0.03409601 0.0316949226 0.0093391547 0.034055233 0.0104255239 0.0316113122 -0.0339991823 0.0179389045 0.0279635563 -0.0340488963 0.0103063546 0.0316529498 0.0361849181 -0.0331783108 -0.00903732423 0.0193717889 -0.0207723826 -0.103201382 0.0311624762 0.00582734821 -0.0676328167 0.0344600789 0.0302214436 -0.0116738519 0.0340585895 0.0259769838 0.0206612907 0.0382968672 0.0181573201 0.0190401915 0.0340052955 0.0180415865 0.0278957263 0.0340520144 0.00163509801 0.0333889052 0.0340302549 -0.022878252 0.0250600334 0.0291143339 -0.0247816835 -0.0675652623 0.0231064465 -0.0330416113 -0.0671873093 0.0143684689 0.0132156014 -0.1031987 0.0340371467 -0.0146352984 0.0302683748 0.0340402164 -0.0067672804 0.0327495448 0.0322825126 -0.0377891622 -0.0118703796 0.00930172857 -0.0286223777 -0.103201762 0.00576348184 0.0266379826 -0.0676360726 -0.0382538587 -0.00954574533 0.0251090955 -0.0340477675 0.00149549963 0.033397045 -0.0381909162 0.00206761877 0.0265702177 0.0131332008 -0.0385236591 -0.0674393997 0.00336918328 0.0177045297 -0.103201911 0.00427729171 -0.0399109386 -0.0674661621 -0.0340367816 0.0310495067 0.0111509049 -0.0340416878 0.0271436144 0.0188559406 -0.0344051421 0.0239100643 0.0227376428 -0.0341112278 -0.01500032 0.0300785098 -0.00909800455 -0.0395331234 -0.067357704 -0.00621165708 0.0169422198 -0.103199996 -0.00804930646 0.0260532182 -0.0674338862 -0.0342284553 0.0322045498 -0.00682671973 -0.0340344496 -0.00681759883 0.0327401273 -0.0176451765 -0.0365715995 -0.0674628913 -0.0145539055 -0.0255966689 -0.10320092 -0.00309924525 -0.0399168916 -0.0347650498 -0.014367938 0.0132159647 -0.1031987 -0.0241748951 -0.0316758193 -0.067675516 -0.0327965096 -0.0376944989 -0.0107870996 -0.0207846109 -0.0182400029 -0.103199996 -0.0401742868 -0.0160922185 -0.0118368911 -0.0335088819 -0.00954161398 -0.0678249896 -0.0378118679 -0.0299292561 -0.00687980372 -0.0303839091 -0.022578124 -0.0672348216 -0.0240154117 -0.00925682113 -0.103203163 -0.0323590413 0.00297959242 -0.067619361 -0.0381378978 0.0253744032 -0.00773135154 -0.0340716727 0.0327893682 0.00290636322 -0.0389767587 0.0240645446 0.00599309476 -0.0377146676 -0.0223728139 0.0175190307 -0.0371589623 -0.0297115706 0.00631651795 -0.0341026522 -0.0353673063 0.00457380945 -0.0388153829 0.0109021561 0.0227908269 -0.0401570909 0.00880158506 -0.0170579609 -0.0400767662 0.018443102 -0.00875870138</float_array>
          <technique_common>
            <accessor source="#positions_array" count="95" stride="3">
              <param name="X" type="float" />
              <param name="Y" type="float" />
              <param name="Z" type="float" />
            </accessor>
          </technique_common>
        </source>
        <source id="normals">
          <float_array id="normals_array" count="402">0.999306977 0.0365195982 -0.00720136985 0.998530388 -0.0160983875 0.0517486073 0.998923779 -0.0297091417 -0.0356186405 0.00243227929 -0.823363662 0.567508876 -0.00144038221 -0.650485754 0.759517074 -0.00324567943 -0.847384512 0.530969799 -0.987125933 -0.14757596 0.0616739616 -0.986307085 -0.0473599546 0.157972679 -0.977096558 0.16567114 0.133549377 0.9783445 -0.114907101 0.172158167 0.979600966 0.0362769552 0.197651133 0.0265607517 -0.998472393 0.0484497137 0.00573711377 -0.986862779 0.161458671 -0.00270836311 -0.988517404 0.151082918 0.989880621 -0.11615736 -0.0815098658 0.994262815 -0.000672511582 -0.106962837 0.00220369571 -0.942521036 0.334139645 0.976160288 0.0627391338 -0.20778583 0.976377487 0.17506671 -0.126643687 0.93389982 0.34676227 0.087103948 0.985772252 0.114947006 0.12263865 0.988030076 0.153619304 -0.0140583096 0.966720223 -0.250984788 0.0495846011 0.993405521 -0.108593144 0.0367830619 0.907921553 -0.379029006 0.178928643 0.965150654 -0.248436853 -0.0822392628 0.953118026 -0.216548532 -0.211359188 0.906895638 0.111974902 0.406204313 0.915503681 -0.112284154 0.386322796 0.896144867 -0.282055795 0.342591405 0.933039308 -0.238123715 -0.269693702 0.9543975 0.133507177 -0.267022878 -6.26050178e-06 -3.98510383e-05 -1 -6.79842879e-06 9.79189499e-05 -1 2.08324873e-05 0.000130282162 -1 0.862967193 0.504871249 -0.0198167227 0.917573988 0.381571084 -0.11163079 0.861268759 0.484975666 0.151706189 0.000227651588 0.320721239 0.947173595 -0.000212307525 0.553443432 0.832886755 -0.000225651995 0.317060947 0.948405147 0.886237144 -0.456400067 -0.0792633966 0.855280042 -0.419343859 0.304379314 0.758215308 -0.579373002 -0.299059242 0.830775976 0.485515743 -0.272186995 0.911378086 0.337243468 -0.235916913 0.652329087 0.720603526 -0.234940961 0.860573053 0.411729336 0.299821645 0.914900124 0.2858859 0.285003603 0.852536142 0.290465385 0.434525043 0.835885167 0.186473235 0.516259313 0.860600948 0.0119674709 0.509139299 0.834297299 -0.361842394 0.415954471 0.869797468 -0.477197051 0.125440359 0.854731739 -0.467201591 -0.226177767 0.638448954 -0.735568345 -0.226543888 0.55502224 0.787099302 -0.269118845 0.843670428 -0.222203165 0.488718688 0.856971562 -0.0848975629 0.508322835 0.868435025 -0.495247841 0.0234550387 0.468901366 -0.881367564 -0.0576428734 0.357779026 -0.882694662 -0.304703593 0.0555025004 0.998209357 -0.0223056711 0.150231749 0.966868162 -0.206388876 -0.911837876 -0.147027746 0.383320451 -0.856808305 0.0190986767 0.51528126 -0.913627625 0.0322224535 0.40527308 0.303178847 -0.934780896 -0.185114175 0.14823465 0.95549202 -0.25507161 0.0613750741 -0.987746894 -0.143489316 -0.113924339 -0.948525488 -0.295500726 0.0026853059 0.796305358 0.604888856 -0.000170760584 0.942526698 0.334130734 -0.000264042435 0.835326672 0.549753845 0.00108047854 0.561279118 0.827625871 -0.00184347562 0.714562833 0.699568808 -0.000591917662 -0.427741617 0.903900862 0.000329879578 -0.64044863 0.76800096 0.000255989347 -0.420791 0.9071576 -0.16688022 -0.973321557 -0.157467842 -0.244711637 0.936507404 -0.251137555 -0.196208641 0.957513273 -0.211353943 -0.52022171 0.84483391 -0.12500003 0.00024358822 0.0618370287 0.998086214 -0.00016785007 0.058259815 0.998301446 -0.000499370042 -0.195386559 0.980726182 -0.444903791 -0.870023429 -0.212414354 -0.557840645 -0.770351052 -0.308825195 -0.0229894463 -0.999473095 0.0229122061 -0.588284433 0.763293505 -0.267028838 0.000170003244 -0.189551502 0.98187077 -0.701837778 -0.672926128 -0.233654037 -0.513174832 -0.856975794 -0.0473719798 -0.831486642 -0.471839964 -0.293252379 -0.88566488 0.373526931 -0.275817633 -0.991952598 -0.103849024 -0.0724256858 -0.975925028 -0.0746927336 -0.204917803 -0.932283759 -0.357261449 -0.0566674694 -0.893693924 -0.39331159 -0.215910047 -0.95596081 -0.0969096795 -0.27703321 -0.938579321 0.260148853 -0.226696759 -0.902420998 0.410035759 -0.13231416 -0.864026189 0.502129912 0.0363906138 -0.93415761 0.345217347 0.09041325 -0.860799372 0.47624141 0.179495305 -0.880748093 0.408140928 0.240216091 -0.896091282 0.331786394 0.294852763 -0.912107646 -0.305225283 0.273673505 -0.850977302 -0.446623892 0.276341677 -0.859298229 -0.319692403 0.399253488 -0.858893037 -0.234005213 0.455570251 -0.904947937 -0.404613912 0.131745413 -0.859571159 -0.0816116035 0.504457116 -0.863134801 -0.492878497 0.109859571 -0.872972786 -0.487766176 0.00163883413 -0.935162544 0.166841537 0.312465906 -0.860138655 0.271117568 0.432037979 -0.856265128 0.166754082 0.488879412 -0.993809581 0.056871634 -0.0954366997 -0.982927024 0.164972991 -0.0814759433 0.00448124111 0.959057629 0.283175617 -0.00451077195 0.997254014 0.0739191025 -0.000111007044 0.000128088635 -1 0.00118703628 -0.00037308695 -0.999999225 0.000133132693 -9.79987744e-05 -1 8.31910074e-06 4.1562027e-05 -1 -5.03165757e-05 8.18246408e-05 -1 -0.000416558702 -0.000458594877 -0.999999821 -0.000390171859 0.000825372117 -0.999999583 -0.000205818185 0.000108436121 -1 6.87257343e-05 0.000139284777 -1 -0.000103075567 -0.000164177778 -1 0.000562332745 0.000655261567 -0.999999642 -0.000933307281 -0.954930484 0.296828091</float_array>
          <technique_common>
            <accessor source="#normals_array" count="134" stride="3">
              <param name="X" type="float" />
              <param name="Y" type="float" />
              <param name="Z" type="float" />
            </accessor>
          </technique_common>
        </source>
        <vertices id="vertices">
          <input semantic="POSITION" source="#positions" />
        </vertices>
        <triangles material="scout_b2b2b2" count="186">
          <input semantic="VERTEX" source="#vertices" offset="0" />
          <input semantic="NORMAL" source="#normals" offset="1" />
          <p>0 0 1 1 2 2 3 3 4 4 5 5 6 6 7 7 8 8 9 9 1 1 10 10 11 11 12 12 13 13 14 14 15 15 2 2 3 3 5 5 16 16 17 17 18 18 15 15 19 19 20 20 21 21 22 22 23 23 9 9 10 10 1 1 20 20 9 9 24 24 22 22 22 22 25 25 14 14 25 25 26 26 14 14 26 26 17 17 14 14 17 17 15 15 14 14 18 18 19 19 21 21 18 18 0 0 15 15 27 27 28 28 10 10 28 28 9 9 10 10 29 29 24 24 9 9 28 28 29 29 9 9 30 30 31 31 26 26 31 31 17 17 26 26 32 32 33 33 34 34 35 35 19 19 36 36 35 35 37 37 19 19 38 38 39 39 40 40 24 24 41 41 22 22 41 41 25 25 22 22 29 29 3 42 24 24 26 26 25 25 41 41 26 26 42 43 30 30 34 44 43 45 31 31 43 45 17 17 31 31 17 17 43 45 18 18 43 45 36 36 18 18 43 45 44 46 36 36 44 46 35 35 36 36 37 37 45 47 19 19 45 47 46 48 19 19 45 47 47 49 46 48 47 49 27 27 46 48 47 49 38 50 27 27 38 50 48 51 27 27 49 52 3 42 29 29 3 42 16 53 24 24 16 53 41 41 24 24 50 54 42 43 26 26 50 54 51 55 42 43 52 56 44 46 34 44 44 46 43 45 34 44 53 57 28 28 54 58 53 57 29 29 28 28 53 57 49 52 29 29 16 53 12 59 41 41 12 59 55 60 41 41 55 60 51 55 41 41 51 55 50 54 41 41 51 55 56 61 42 43 44 46 52 56 35 62 52 56 57 63 35 62 58 64 59 65 60 66 51 55 61 67 56 61 62 68 57 63 52 56 61 67 63 69 56 61 63 69 32 70 56 61 55 60 61 67 51 55 45 71 64 72 65 73 47 74 66 75 39 39 16 16 13 13 12 12 67 76 49 77 53 78 63 69 68 79 32 70 55 60 63 69 61 67 69 80 70 81 62 68 70 81 57 63 62 68 70 81 71 82 57 63 48 83 40 40 59 84 53 78 72 85 67 76 68 79 73 86 32 70 73 86 74 87 32 70 55 60 11 11 63 69 63 69 75 88 68 79 76 89 70 81 69 80 54 90 59 84 72 85 11 11 55 60 12 12 28 28 48 51 54 58 73 86 77 91 74 87 68 79 78 92 73 86 75 88 78 92 68 79 71 82 70 81 76 89 77 91 79 93 74 87 77 91 73 86 78 92 11 11 13 13 75 88 13 13 78 92 75 88 33 94 71 82 76 89 80 95 81 96 82 97 77 91 83 98 79 93 83 98 84 99 79 93 85 100 71 82 33 94 86 101 87 102 71 82 86 101 88 103 87 102 88 103 64 104 87 102 88 103 65 105 64 104 88 103 66 106 65 105 23 23 22 22 14 14 89 107 5 108 4 109 67 110 89 107 4 109 89 107 90 111 5 108 72 112 58 64 67 110 90 111 91 113 5 108 91 113 82 97 13 114 83 98 81 96 84 99 77 91 78 92 83 98 78 92 82 97 83 98 84 99 85 100 33 94 86 101 71 82 85 100 35 62 57 63 71 82 66 106 92 115 39 116 92 115 40 117 39 116 92 115 60 66 40 117 60 66 59 65 40 117 67 110 58 64 89 107 90 111 82 97 91 113 81 96 85 100 84 99 82 97 81 96 83 98 13 114 82 97 78 92 93 118 94 119 85 100 94 119 86 101 85 100 88 103 86 101 94 119 58 64 7 7 89 107 7 7 6 6 89 107 6 6 90 111 89 107 6 6 82 97 90 111 93 118 85 100 81 96 80 95 93 118 81 96 94 119 8 8 88 103 8 8 7 7 92 115 82 97 6 6 80 95 37 120 87 121 64 72 36 36 19 19 18 18 2 2 15 15 0 0 3 3 49 77 4 4 1 1 0 0 20 20 93 118 80 95 94 119 8 8 94 119 6 6 94 119 80 95 6 6 92 115 7 7 60 66 8 8 92 115 66 106 58 64 60 66 7 7 46 48 10 10 20 20 31 122 30 123 42 124 42 124 56 125 32 32 74 126 79 127 32 32 76 128 69 129 62 130 34 34 31 122 32 32 31 122 42 124 32 32 79 127 84 131 32 32 84 131 33 33 32 32 33 33 76 128 62 130 62 130 52 132 34 34 33 33 62 130 34 34 45 71 65 73 66 75 38 38 47 74 39 39 58 64 72 112 59 65 50 54 26 26 41 41 45 71 37 120 64 72 47 74 45 71 66 75 16 16 91 133 13 13 23 23 2 2 1 1 67 76 4 4 49 77 16 16 5 5 91 133 27 27 10 10 46 48 48 83 38 38 40 40 53 78 54 90 72 85 54 90 48 83 59 84 75 88 63 69 11 11 28 28 27 27 48 51 8 8 66 106 88 103 14 14 2 2 23 23 19 19 46 48 20 20 9 9 23 23 1 1 71 82 87 121 35 62 21 21 20 20 0 0 37 120 35 62 87 121 18 18 21 21 0 0</p>
        </triangles>
      </mesh>
    </geometry>
  </library_geometries>
  <library_visual_scenes>
    <visual_scene id="scene">
      <node id="right_shoulder_roll_link">
        <instance_geometry url="#geometry">
          <bind_material>
            <technique_common>
              <instance_material symbol="scout_b2b2b2" target="#scout_b2b2b2" />
            </technique_common>
          </bind_material>
        </instance_geometry>
      </node>
    </visual_scene>
  </library_visual_scenes>
  <scene>
    <instance_visual_scene url="#scene" />
  </scene>
</COLLADA>