<?xml version='1.0' encoding='utf-8'?>
<COLLADA xmlns="http://www.collada.org/2005/11/COLLADASchema" version="1.4.1">
  <asset>
    <created>2026-09-14T00:00:00Z</created>
    <modified>2026-09-14T00:00:00Z</modified>
    <unit name="metre" meter="1" />
    <up_axis>Z_UP</up_axis>
  </asset>
  <library_effects>
    <effect id="scout_b2b2b2_effect">
      <profile_COMMON>
        <technique sid="common">
          <lambert>
            <emission>
              <color>0 0 0 1</color>
            </emission>
            <ambient>
              <color>0.35 0.35 0.35 1</color>
            </ambient>
            <diffuse>
              <color>0.7 0.7 0.7 1</color>
            </diffuse>
          </lambert>
        </technique>
      </profile_COMMON>
    </effect>
  </library_effects>
  <library_materials>
    <material id="scout_b2b2b2" name="scout_b2b2b2">
      <instance_effect url="#scout_b2b2b2_effect" />
    </material>
  </library_materials>
  <library_geometries>
    <geometry id="geometry" name="right_hand_palm_link">
      <mesh>
        <source id="positions">
          <float_array id="positions_array" count="363">0.000695997849 -0.0106693693 -0.0230155829 0.0112580098 -0.00332985749 -0.0286328029 0.0119086457 -0.0137781966 -0.0259580575 0.000841494359 -0.0173386391 -0.0116825523 0.0701383799 0.0112873884 0.0176161174 0.0853276029 0.0102744931 0.0378188193 0.0854821503 0.0103334049 0.0189935993 0.0248686485 -0.0206222385 -0.0214447081 0.0815497637 -0.0106375786 0.0288735684 0.0844636187 -0.00851384457 0.0190353561 0.0850177482 -0.00758385938 0.0378833301 0.0289377254 -0.0137376087 -0.037177816 0.0373920985 -0.0183848608 -0.0315821953 0.00128667406 0.00791972503 -0.0247642938 0.0437103212 -0.0144170141 -0.0406826921 0.000768113881 -0.0147995017 0.0185367521 0.00412582094 -0.0194271039 0.00274514034 0.0692257881 -0.00916556641 -0.0418846086 0.0516884178 -0.0122078862 -0.039869383 0.06990242 -0.012870362 -0.0395535044 0.0756203681 -0.0202775039 -0.0294955932 0.0674053803 -0.0136973187 -0.0431952551 0.0699189156 -0.0104689663 -0.0381807834 0.0695908666 -0.0183852222 -0.0284283292 0.052994173 0.0182409566 0.0141251916 0.0674798265 0.018284861 0.0181599744 0.0674969926 0.0182749797 -0.00686323596 0.0546815097 0.0182420742 -0.00775417453 0.0742771924 -0.0114848549 -0.0376690254 0.0785502568 -0.0169821493 -0.0281785913 0.0699998215 -0.0124365492 -0.0435815975 0.076754868 -0.0110059967 -0.0378433466 0.0823376477 -0.0106886551 -0.0281122271 0.0678630322 0.0179317426 0.0356192514 0.0838865936 -0.0136162359 -0.0279350597 0.0813352615 -0.0161206704 -0.00409927964 0.0276448764 0.0169487949 -0.0288049337 0.0433002599 0.0182992723 -0.0194139313 0.0486821681 0.0173604544 -0.0345165804 0.0848959014 -0.00764635811 -0.0378918611 0.0839457363 -0.0117358891 0.0276252218 0.010886508 0.000673284812 0.0285909269 0.000842558802 -0.00463815266 0.0251394026 0.01021202 -0.00988343824 0.0269853361 0.0289726611 -0.0205261372 0.0237031281 0.0274929982 -0.0143083669 0.035834603 0.0316408239 -0.00355928577 0.0389772654 0.0385610797 -0.0152549688 0.0384907871 0.0444086865 -0.0123069277 0.0413917154 0.0701327771 0.0112369526 -0.0177420992 0.0854092017 0.0103636989 -0.0189936496 0.0853780508 0.010295352 -0.0377614759 0.0736492127 -0.0203586146 0.0297238417 0.0676262602 -0.0138722612 0.0428735018 0.0142652951 0.0181375742 -0.0235340055 0.0401680321 0.0203424338 -0.0159251355 0.0810249224 0.000520239177 -0.0108563779 0.0704027489 0.00383652444 -0.013285161 0.0793081522 0.00437997188 -0.0124638099 0.0693574026 -0.0130366478 0.0390156135 0.0705970526 -0.0186619312 0.0282305758 0.0698109865 -0.019652456 0.00415073475 0.0559994318 -0.0132135553 0.0398810357 0.0703763291 -0.0108175287 0.0416899994 0.0707727894 0.0102439364 0.04401692 0.0710812062 0.0087425774 0.0421218649 0.0497254618 -0.00833095796 0.0398750976 0.0794265717 -0.0166157465 0.0276841521 0.0764961466 -0.0119175157 0.0381087586 0.0714194104 -0.0103894733 0.0378205217 0.0693661794 -0.0107694799 0.0186857786 0.0824358463 -0.0162051693 0.0283816364 0.0809003487 -0.0188525077 0.00314503675 0.00327535486 0.0181289967 -0.0180661101 0.000108310065 0.0162103456 -0.0164560433 0.036069762 0.0106590977 0.0389739722 0.011853666 0.00929307193 -0.0281663369 0.0833757967 -0.00971682742 -0.011903543 0.0844148323 -0.00283746142 -0.0124261137 0.0840438455 -0.00240301783 0.0125541314 0.00783321168 0.0191184115 0.00719440775 0.00120046723 0.0181316081 0.0135328695 0.0123245241 0.0189157408 -0.0145948511 0.0297837909 0.0100537054 -0.036706876 0.0444055311 0.0146975201 -0.0385540538 0.0421073921 0.00941424072 -0.0406093486 0.0497244745 0.0201931167 -0.00400078669 0.0505672619 0.00745966798 -0.0401159823 0.0587102622 0.0127262864 -0.038872622 0.0489227772 -0.00172291766 -0.0385933369 0.0705909431 0.0111832237 -0.0440101139 0.0649158731 0.0183488373 -0.0231606476 0.0707958117 0.00996812247 -0.0417215489 0.0703771338 0.0172772072 -0.037264917 0.0833618641 -0.00968744233 0.0119835259 0.0785432309 0.00316380663 0.0113419723 0.0706779286 0.0124277072 -0.0388245955 0.0722047836 0.0159330703 -0.013040565 0.0828276575 -0.0027059936 0.0105344178 0.0707988963 0.0155795105 -0.010988269 0.0845487788 -0.00845242385 -0.0190573819 0.00175484957 0.013197748 0.0228178538 0.0160957333 0.0123268887 0.0289468393 0.0173286591 0.0187220201 0.0237648748 0.0180358347 0.0190399438 0.0177234598 0.0281326398 0.0170916561 0.0285620578 0.0468437374 0.0162050556 0.0367462486 0.0351723917 0.0193949174 0.0158680212 0.0434005 0.0201065857 0.0154841952 0.0433479361 0.0194396507 0.00421170192 0.0436052084 0.0184213687 0.0197394993 0.0714768842 0.0160374381 0.0408658311 0.07243523 0.0153131876 0.0129013536 0.0576588213 0.0125385905 0.0395834334 0.0499057993 0.00630219001 0.0399228446 0.0706086904 0.0122730061 0.0388737731 0.0702602863 0.00373734604 0.0130863748 0.0710661039 -0.021507116 0.000430309097 0.0693354383 -0.0108719692 -0.0186847989 0.0703472123 0.0153865442 0.0110560786 0.0335031636 0.0194142964 -0.0169580542</float_array>
          <technique_common>
            <accessor source="#positions_array" count="121" stride="3">
              <param name="X" type="float" />
              <param name="Y" type="float" />
              <param name="Z" type="float" />
            </accessor>
          </technique_common>
        </source>
        <source id="normals">
          <float_array id="normals_array" count="765">-0.375901669 -0.157892615 -0.913108885 -0.413946569 -0.0762193948 -0.907104671 -0.431844771 -0.248827353 -0.866945803 -0.245082527 -0.933345556 -0.262298793 -0.348406553 -0.809790194 -0.47207284 -0.305980057 -0.839510441 -0.44899708 0.0915215239 0.995623887 -0.0188923683 0.103639208 0.994218707 -0.0280733909 0.0617291629 0.998086333 0.00363020902 -0.149627134 -0.961568296 -0.230213106 0.357424766 -0.933935225 -0.00354818068 0.27273199 -0.953916669 -0.12514101 0.50338155 -0.858574927 0.0972424969 -0.210839167 -0.865748107 -0.453902036 -0.360889018 -0.0240883902 -0.932297647 -0.0954874754 -0.921314776 -0.37691012 -0.402020782 0.279982775 -0.871773481 -0.056974899 -0.898971975 -0.434284776 -0.303689152 -0.919682086 0.248913169 -0.703936636 -0.707909346 0.0577718876 -0.389749676 -0.919358253 0.0536247492 -0.0477128923 0.291500807 0.955379903 0.155253991 0.0891240761 0.983846068 -0.288358569 0.588065982 0.755663753 0.348142654 -0.886762738 -0.304053575 0.11616867 -0.866330624 -0.485773712 0.0500584207 0.126851112 -0.990657866 0.0330840647 0.495830804 -0.867788732 0.0186886936 0.0727896094 -0.997172177 0.999652505 -0.0136255017 0.0225659441 0.999782801 0.00585148158 0.0200041588 0.999657571 -0.0178196933 0.0191612337 0.0844425187 0.99543047 0.0445826985 0.230193481 0.973092377 0.010108917 0.164684877 0.986346245 0.000182383112 0.111700952 0.992920041 -0.0404068641 -0.516608179 0.574682593 0.634709299 -0.544347048 0.784790933 0.296292812 -0.156722993 0.958050013 0.239954278 0.401389152 -0.720635176 -0.565306723 0.684184015 0.456840158 -0.56849736 0.0260504335 -0.071743533 -0.997082889 0.0135100009 -0.403023422 -0.915089965 -0.191059873 0.981379807 -0.0197446626 0.0516113751 -0.993504643 0.101414114 -0.100830346 -0.989581108 0.102773756 -0.249307945 -0.924820006 0.287321299 0.166556984 0.97432667 0.151480317 0.607737541 -0.542171657 -0.580262899 0.662620723 -0.699418604 -0.267857015 -0.838839531 0.4613913 0.288905382 -0.984911203 0.17290467 -0.00734207546 -0.123588078 0.877348661 -0.463665098 0.0948678255 0.978190899 -0.184777319 -0.0556642525 0.954416156 -0.293242723 0.373952985 -0.90882951 -0.184900314 0.462738484 -0.873589575 -0.150712609 0.661140203 -0.747882724 -0.059707962 0.792727828 0.391131133 -0.467545807 0.85713172 0.436995 -0.272691369 0.870768189 0.448518246 -0.201479897 0.884202719 0.466803253 -0.0167395342 -0.399150103 0.044336237 0.915813029 -0.379762143 -0.183898196 0.906621277 -0.441688448 -0.283685446 0.851136804 -0.447749019 -0.45881182 0.767471552 -0.121860236 -0.966398299 0.22632809 -0.405646682 -0.149122611 0.901783347 -0.210221171 -0.88020587 0.425493389 -0.326707363 -0.00501116365 0.945112288 -0.160560295 -0.718278229 0.676976144 -0.143260926 -0.28858012 0.946677268 0.0922871903 0.99545604 0.0234583355 0.0567653365 0.998380601 -0.00373006123 0.106560886 0.993710577 0.0344102383 0.23990199 -0.922589421 0.302118778 0.175890431 -0.513777792 0.839699328 -0.296472311 0.653994679 -0.695985019 0.0613856241 0.986116946 -0.154289335 0.106958024 -0.341333598 -0.933836877 0.0958546847 -0.0700806975 -0.992925286 0.102898568 -0.220104903 -0.970033884 0.985174298 0.170441523 -0.0195255 0.955021679 0.293365955 -0.0432435535 0.999991179 -0.00214765733 0.00360229961 -0.0508722477 0.778011501 -0.626187027 -0.265628338 0.745186687 -0.611668527 -0.200324103 0.799521387 -0.566247106 0.488747567 -0.104426734 0.866152883 -0.092147842 0.253210247 0.963012636 0.043994233 -0.305400461 -0.951207161 0.0918777734 0.0367404744 -0.995092273 0.0983042046 0.0395821594 -0.994368911 -0.431105644 0.82488209 -0.365674019 -0.23322919 0.936122835 -0.263207465 0.440763593 -0.703035831 0.558093309 0.27428481 0.944942355 0.178470835 -0.116205215 -0.987745881 -0.104184553 -0.156553477 -0.976183355 -0.150190249 0.488344222 -0.10395053 0.866437674 0.77134496 -0.632533014 -0.0702065155 0.743073702 -0.588866472 0.317927361 0.607544005 -0.794275105 0.00416426454 -0.946970403 0.317908406 -0.0467044003 -0.937865078 0.343235463 -0.0509752035 -0.702715993 0.370429724 -0.607430696 0.927977562 -0.270046085 0.25677371 0.80394417 -0.1754269 0.568242192 0.0219510105 -0.0117023792 0.999690533 0.298496962 -0.0154923564 0.954284847 -0.0256872214 0.102238595 0.994428217 0.51687938 0.808817744 0.280445278 0.457245588 0.883686781 0.10012082 0.418839663 0.908046544 0.00497695338 -0.488038957 0.543265998 -0.683139801 -0.615119636 0.512762845 -0.598917425 -0.265138388 0.405688286 0.874710619 -0.373007149 0.294056356 -0.879998028 0.990272939 -0.13839756 0.014338267 0.98883152 -0.148034871 0.017259948 0.994618595 -0.103535049 0.00379295577 -0.0823123083 0.996488869 0.0153167844 -0.23869434 0.96994096 -0.0473234355 -0.194938138 0.964390934 0.178743601 -0.0466469787 0.997562826 -0.0518886745 -0.0426630266 0.995341837 -0.0864548534 -0.346280605 0.354193091 -0.868698418 -0.161413401 0.682857692 -0.71249634 -0.207226112 0.21332334 -0.954751551 0.178897128 0.983672976 -0.0195778217 0.276054114 -0.20514071 -0.938994884 0.0546485968 -0.0320104398 -0.997992396 -0.0804899335 0.0352675915 -0.996131301 -0.0904662907 0.376441389 -0.922012866 0.0573677383 0.997861147 -0.0313386954 0.0475635938 -0.404590517 0.913260221 0.106255285 -0.450183392 0.886591613 0.156412482 -0.0791234896 0.984517455 0.0163048673 0.920001447 -0.391575575 -0.263658106 -0.0507715717 0.963279128 -0.295552611 -0.0848402828 0.951551795 -0.508659303 -0.329399824 0.795463026 -0.169225723 -0.0119465515 -0.985504925 -0.0216194037 -0.762561381 0.64655447 0.8458516 -0.0739088729 0.528273165 0.997128963 0.0331711099 -0.0680696666 0.996880174 0.0332312323 -0.0715933666 0.994299233 -0.0267563555 -0.103213884 0.966591954 -0.198184147 -0.162551776 0.953900516 -0.23856087 -0.182105631 0.996310472 -0.0447848849 -0.0732102171 -0.945255935 -0.326226026 -0.00823166221 -0.825971603 -0.563297868 -0.0215951968 -0.921675682 -0.344028264 0.17932795 0.99755168 0.0686018541 -0.0135789774 0.999308646 -0.0363307819 0.00789006241 0.999301016 -0.0365984701 0.0076214103 0.999486744 -0.0269847009 0.0172658339 -0.368630588 0.549023986 0.750122786 -0.34554249 0.425878465 0.836198509 -0.185781583 0.870956898 0.454883814 -0.0347930267 0.998492479 0.0424524024 -0.251357824 0.689816833 0.678949177 -0.117444992 0.846039116 0.520023525 -0.011369938 0.999902606 0.00809102226 0.0247257072 0.973433554 0.22763069 0.0851714164 0.984297097 0.154612496 -0.00100327539 0.986816287 0.161841154 0.052122917 -0.998104274 0.0327279232 0.0739906058 0.971412301 0.225573897 0.474514067 0.880217731 0.00728805317 0.72056514 0.693376124 0.00392480521 -0.103633769 0.681677759 0.724275827 0.102034338 -0.27794227 -0.95516336 0.10903202 -0.0515619628 -0.99270004 -0.054017961 -0.679984689 -0.731233776 0.930823982 -0.315963 0.183668584 0.94399792 -0.294956028 0.14788121 0.996782362 -0.0398804992 0.0695301443 -0.274629951 0.961547911 -0.00201304746 0.998910964 0.00637133047 0.0462195463 0.991077363 0.0454248823 0.125308707 0.986289322 -0.160398021 -0.0388052873 0.204516813 -0.0227845851 0.97859782 -0.539726198 -0.368492365 0.756907523 0.999292076 -0.0363039188 -0.00986749958 0.999319851 -0.0356886722 -0.00928322319 0.998184264 -0.0540017597 -0.0266820211 0.11556834 -0.993296385 0.00250204862 -0.293712914 0.955893099 -0.00106944144 -0.993700206 0.0629000813 0.0927551538 -0.999719441 0.00926580373 0.0217991974 -0.999769628 0.0194816999 0.00900639966 -0.999465942 -0.0296638571 0.0137075223 -0.981145442 -0.18728435 0.0477305539 0.130947962 0.990187109 -0.0488073677 -0.999815822 0.0188489165 0.00361027382 -0.999950469 0.00941785146 -0.00321946875 -0.998835146 0.0348754041 0.0333468169 -0.456234336 -0.214184552 -0.863698542 0.999796748 -0.00355350785 -0.0198450964 0.999597132 -0.0268671084 0.00914827455 0.999783278 -0.00389594003 0.0204512458 0.999551117 0.00510672433 0.0295201559 -0.140402094 -0.0144469691 -0.989989161 -0.117821664 -0.017432576 -0.992881775 0.740870893 -0.671478093 -0.0150832245 0.544070244 0.0415223651 0.838011622 -0.976829946 -0.202705547 0.0686567649 -0.997077525 -0.0763948783 -0.000487586163 0.974022031 -0.221237764 -0.0483214967 0.0651920289 -0.00762888743 0.997843564 0.202862903 -0.00200663647 0.979205072 -0.816526711 -0.576111674 -0.037141446 -0.83012116 -0.557153404 -0.0218860935 -0.096717611 0.995107949 -0.0201473869 -0.895851314 -0.243732512 0.371543854 0.0718083084 0.00235710712 0.997415662 0.0269473549 -0.0206981935 -0.99942255 0.0728945583 0.00528881978 -0.997325659 0.0305313356 -0.0248043947 -0.999225974 -0.118390583 0.97748661 0.17465286 0.139090195 0.988494992 0.0594274923 0.836200535 0.548422575 -0.00115067489 0.838559628 0.544697702 -0.0110511305 0.586094975 0.810185552 0.00959725119 0.980799258 -0.0395603627 0.190965399 0.546042204 0.735681534 0.400762469 0.452364534 -0.883006871 0.125160575 0.995640457 -0.0932715684 0.000695463212 0.0914447457 0.0065123844 -0.995788872 0.816320062 0.577596068 0.00207807519 0.0308007784 0.00747578964 0.999497592 -0.00345360721 -0.00322035351 0.999988854 0.0436404161 0.00504160998 0.999034584 0.0505043492 0.00593844103 0.998706162 -0.271297038 -0.175936982 0.946279049 0.999873936 0.0157655254 0.00190120086 -0.0819481388 -0.0631771386 -0.994632185 0.99895525 -0.0456751175 -0.00149173243 0.0812483951 -0.00709117018 0.996668637 0.0597800128 -0.0228953585 0.997948945 0.0505008586 -0.0297115818 0.998281956 0.0314068198 -0.0437097363 0.998550475 -0.530760884 0.846801877 -0.0349213853 0.102363177 0.130334079 -0.986171782 0.158668622 -0.966856122 0.200033888 0.0640494749 -0.99555999 0.0689779893 -0.214219764 -0.166160479 -0.962549031 0.0676444918 -0.995388865 -0.068008773 0.0889801756 -0.00701530464 -0.996008694 0.0530204102 -0.0331761651 -0.998042166 0.0639592186 -0.0252331831 -0.997633457 0.0305083133 -0.049481675 -0.998308957 0.999816775 -0.0173186362 0.00815389119</float_array>
          <technique_common>
            <accessor source="#normals_array" count="255" stride="3">
              <param name="X" type="float" />
              <param name="Y" type="float" />
              <param name="Z" type="float" />
            </accessor>
          </technique_common>
        </source>
        <vertices id="vertices">
          <input semantic="POSITION" source="#positions" />
        </vertices>
        <triangles material="scout_b2b2b2" count="246">
          <input semantic="VERTEX" source="#vertices" offset="0" />
          <input semantic="NORMAL" source="#normals" offset="1" />
          <p>0 0 1 1 2 2 3 3 0 4 2 5 4 6 5 7 6 8 7 9 3 3 2 5 8 10 9 11 10 12 11 13 7 9 2 5 1 1 11 14 2 2 7 9 11 13 12 15 0 0 13 16 1 1 12 15 11 13 14 17 15 18 3 19 16 20 17 21 18 22 19 23 20 24 14 17 21 25 22 26 19 27 18 28 22 29 23 30 19 31 24 32 25 33 26 34 27 35 24 32 26 34 28 36 19 23 29 37 23 38 29 37 19 23 20 24 21 25 30 39 28 36 17 21 19 23 28 40 30 40 17 40 22 26 31 41 28 42 28 43 31 43 30 43 32 44 22 45 28 46 24 32 33 47 25 33 31 48 34 49 30 39 34 49 20 24 30 39 32 50 28 36 29 37 35 51 32 50 29 37 36 52 37 53 38 54 31 55 39 56 32 57 31 58 32 59 34 60 32 59 40 61 34 60 41 62 42 63 43 64 43 64 42 63 15 65 44 66 15 18 16 20 45 67 43 64 15 65 45 68 15 18 44 66 46 69 43 64 45 67 45 67 47 70 48 71 46 69 45 67 48 71 49 72 50 73 51 74 52 75 47 70 44 66 48 71 47 70 53 76 36 52 54 77 55 78 56 79 57 80 58 81 59 82 60 83 61 84 62 85 63 86 59 87 63 88 64 89 53 76 65 90 63 91 66 92 59 87 67 93 60 94 59 87 63 86 67 93 53 76 52 75 68 95 63 96 68 96 69 96 69 97 8 10 63 98 63 88 53 76 68 99 70 100 69 100 59 100 71 101 52 75 72 102 8 103 35 51 67 104 63 86 8 105 67 93 71 101 68 95 52 75 40 106 68 107 71 101 10 108 69 109 68 110 8 111 40 112 32 113 32 50 35 51 8 103 73 114 13 16 74 115 64 89 75 116 48 71 13 16 76 117 1 1 73 114 54 77 13 16 13 16 54 77 76 117 77 118 78 119 79 120 80 121 73 122 81 123 73 122 82 124 54 125 54 77 83 126 76 117 54 77 36 52 83 126 36 52 84 127 83 126 83 126 84 127 85 128 55 78 37 53 36 52 36 52 38 54 84 127 55 78 27 35 37 53 86 129 27 35 55 78 87 130 88 131 89 132 24 32 27 35 86 129 22 26 18 28 88 131 84 127 90 133 85 128 37 53 91 134 38 54 37 53 27 35 91 134 92 135 88 136 87 137 38 54 93 138 84 127 91 134 93 138 38 54 94 139 79 140 95 141 14 142 11 14 85 128 84 127 93 138 90 133 96 143 88 136 92 135 91 134 26 34 93 138 30 144 92 144 17 144 90 145 92 146 30 147 49 148 97 149 57 150 98 151 99 152 56 153 90 145 96 154 92 146 51 155 100 156 39 157 101 158 42 63 102 159 103 160 101 158 102 159 103 160 81 123 101 158 81 123 104 161 80 121 102 159 105 162 103 160 75 116 102 159 41 62 75 116 106 163 102 159 105 162 102 159 106 163 103 160 107 164 104 161 105 165 108 166 103 167 103 168 109 168 107 168 105 165 110 169 108 166 75 116 46 69 48 71 93 138 111 170 112 171 106 163 110 169 105 165 108 166 24 32 86 129 108 166 110 169 24 32 106 163 33 47 110 169 111 172 106 163 75 116 111 172 75 116 64 89 113 173 65 90 114 174 113 173 115 175 65 90 112 176 4 177 116 178 23 38 61 179 29 37 64 180 65 181 115 182 112 183 116 183 95 183 112 184 95 141 79 140 6 185 10 186 9 187 20 24 72 102 117 188 35 189 29 37 61 179 101 190 81 191 42 192 13 193 42 192 81 191 13 193 81 191 74 194 3 3 7 9 16 20 4 6 115 195 5 7 76 117 11 14 1 1 42 192 13 193 3 196 15 197 42 192 3 196 13 193 0 198 3 196 94 199 95 199 98 199 33 47 93 138 25 33 26 34 25 33 93 138 11 14 83 126 85 128 24 32 110 169 33 47 118 200 57 150 61 84 22 29 118 200 23 30 23 30 118 200 61 84 57 150 99 201 116 178 99 201 119 202 116 178 57 150 116 178 61 84 116 178 70 203 61 84 61 84 70 203 59 82 30 204 21 205 90 133 32 57 39 56 100 206 67 93 35 189 61 179 18 22 87 137 89 207 21 205 14 142 90 133 77 208 94 209 98 151 20 24 12 15 14 17 115 182 4 177 111 210 111 210 64 180 115 182 112 176 111 210 4 177 115 211 59 212 69 109 95 213 119 214 99 152 52 75 117 188 72 102 108 166 86 129 109 215 58 216 77 208 56 153 55 78 109 215 86 129 10 108 5 217 115 211 115 211 69 109 10 108 98 151 56 153 77 208 31 41 22 26 96 218 96 218 51 219 39 220 39 220 31 41 96 218 120 221 55 78 54 125 43 64 46 69 41 62 60 94 67 93 61 179 51 74 96 222 49 72 98 151 95 213 99 152 44 66 47 70 45 68 80 121 82 124 73 122 53 76 47 70 52 75 79 223 58 224 97 225 66 92 114 174 65 90 63 226 65 181 64 180 8 111 68 227 40 112 7 9 117 188 16 20 10 12 68 228 8 10 71 101 34 49 40 106 71 101 72 102 34 49 102 159 42 63 41 62 7 9 20 24 117 188 94 229 77 118 79 120 11 14 76 117 83 126 82 124 120 221 54 125 104 161 107 164 80 121 107 164 109 215 80 121 109 215 55 78 120 221 80 121 109 215 120 221 80 121 120 221 82 124 118 200 49 148 57 150 104 161 81 123 103 160 12 15 20 24 7 9 96 218 22 26 88 131 88 131 18 28 89 132 17 21 87 137 18 22 57 80 97 230 58 81 58 224 79 223 78 231 26 34 91 134 27 35 17 21 92 135 87 137 44 66 16 20 117 188 114 232 66 233 62 234 114 232 62 234 113 235 113 235 62 234 59 212 113 235 59 212 115 211 57 236 56 236 99 236 117 188 52 75 44 66 93 237 49 148 96 154 93 237 97 149 49 148 93 237 96 154 90 145 14 142 85 128 90 133 58 238 78 238 77 238 51 155 50 239 100 156 50 240 49 241 100 242 100 242 49 241 118 243 73 122 74 244 81 123 75 116 41 62 46 69 66 92 63 91 62 245 109 215 103 167 108 166 112 171 97 225 93 138 32 44 100 246 118 247 22 45 32 44 118 247 64 89 48 71 53 76 116 248 119 248 95 248 70 249 9 11 8 10 69 97 70 249 8 10 4 177 70 203 116 178 6 250 9 251 4 252 4 252 9 251 70 253 72 102 20 24 34 49 33 47 111 170 93 138 33 47 106 163 111 172 112 171 79 223 97 225 6 185 5 254 10 186</p>
        </triangles>
      </mesh>
    </geometry>
  </library_geometries>
  <library_visual_scenes>
    <visual_scene id="scene">
      <node id="right_hand_palm_link">
        <instance_geometry url="#geometry">
          <bind_material>
            <technique_common>
              <instance_material symbol="scout_b2b2b2" target="#scout_b2b2b2" />
            </technique_common>
          </bind_material>
        </instance_geometry>
      </node>
    </visual_scene>
  </library_visual_scenes>
  <scene>
    <instance_visual_scene url="#scene" />
  </scene>
</COLLADA>