<?xml version='1.0' encoding='utf-8'?>
<COLLADA xmlns="http://www.collada.org/2005/11/COLLADASchema" version="1.4.1">
  <asset>
    <created>2026-09-14T00:00:00Z</created>
    <modified>2026-09-14T00:00:00Z</modified>
    <unit name="metre" meter="1" />
    <up_axis>Z_UP</up_axis>
  </asset>
  <library_effects>
    <effect id="scout_b2b2b2_effect">
      <profile_COMMON>
        <technique sid="common">
          <lambert>
            <emission>
              <color>0 0 0 1</color>
            </emission>
            <ambient>
              <color>0.35 0.35 0.35 1</color>
            </ambient>
            <diffuse>
              <color>0.7 0.7 0.7 1</color>
            </diffuse>
          </lambert>
        </technique>
      </profile_COMMON>
    </effect>
  </library_effects>
  <library_materials>
    <material id="scout_b2b2b2" name="scout_b2b2b2">
      <instance_effect url="#scout_b2b2b2_effect" />
    </material>
  </library_materials>
  <library_geometries>
    <geometry id="geometry" name="right_shoulder_yaw_link">
      <mesh>
        <source id="positions">
          <float_array id="positions_array" count="312">-0.0320682041 0.00166555634 -0.0645194873 -0.0293465964 -0.0086468244 -0.0771287531 -0.027907541 -0.0129550584 -0.0402667932 -0.0135547509 0.0296660289 -0.0735156685 -0.0234011374 0.021686947 -0.0820471048 -0.022055747 0.0208947416 -0.0383988805 0.0417527631 0.0318883434 -0.0957707688 0.0331178196 0.0375452973 -0.101490714 0.0445215069 0.0369698741 -0.078993246 -0.0301446095 -0.0156414602 -0.00110248534 -0.0191236716 -0.0222391188 -0.0814982057 -0.0161333717 -0.02154967 -0.0956626236 -0.0219826382 -0.0186293293 -0.0410699062 -0.0228549503 -0.0257586632 -0.00676140422 -0.0267494153 0.00279641617 -0.0901968554 -0.016479535 -0.00230115163 -0.104669265 -0.0126767019 -0.0222452693 -0.0405161567 -0.0103165209 -0.0306549799 -0.0105689047 -0.00474453345 -0.0223883651 -0.107383847 -0.00621512858 -0.0213539898 -0.0927080289 0.0180908311 -0.0214239191 -0.106784262 0.00636708084 -0.0312325377 -0.0107450504 0.00328930025 -0.0225231368 -0.0432565436 0.0351001732 -0.0224575195 -0.0538995825 0.0215892084 -0.0217214059 -0.0551759973 0.0387768075 -0.0215230118 -0.0697420463 -0.0306808855 -0.0139993131 0.0309110563 -0.0194280613 -0.0158542991 0.031428732 -0.0200635772 -0.0283957887 0.0309795644 -0.00882531703 -0.0326989889 0.0307769589 -0.00677748071 -0.0212538671 -0.0692360252 -0.0202549621 -0.0134032173 0.000249679462 0.000361453305 -0.0252111498 0.000536682492 -0.0194262695 0.0148077756 -0.0978139564 -0.0315705538 0.008515439 -0.0169821549 -0.00768109458 0.026850298 -0.104678348 -0.0128562376 0.0305368267 -0.0898636952 -0.0112181939 0.0274691451 -0.0632939786 -0.0110980254 0.0256119911 -0.0345919915 -0.0108903432 0.0397971906 -0.0680580437 -0.0085514579 0.0406775624 -0.0967354253 -0.0220195185 0.0110992547 0.000421059172 -0.0235501546 0.00800192449 0.031456396 0.00831143744 0.0258335415 -0.113318861 0.00435213838 -0.0196207836 -0.112963662 0.00617563445 0.0259002447 -0.0354255922 0.00392948464 0.0268858075 -0.0492652841 0.0024001766 0.0313176997 -0.107638232 0.00747362524 0.037546508 -0.104552492 0.00495043397 0.0304168146 -0.0535206869 0.00477190968 0.0406981893 -0.0548078716 -0.0324713513 0.00575887552 0.0307656731 0.00969993882 0.0231576934 0.0315244943 -0.0110632973 0.0219125822 0.0314320177 -0.00601606397 0.0233366694 0.000425061589 -0.0203094967 0.0262261666 0.0312082246 0.00187873875 0.0324278325 0.0304961186 -0.0139061324 0.0300107207 -0.000684611325 0.00999164116 -0.0205778759 -0.0568617098 0.0126646096 -0.0188251268 -0.0407389104 0.0278814249 -0.0222578403 -0.111458428 0.0175045822 -0.01680094 -0.0260142908 0.0210254882 -0.0254494064 -0.00423704833 0.0300104581 -0.0136990072 -0.00375373685 0.0175254736 -0.00901515223 -0.0417747386 0.0180134941 0.0150666833 -0.0251934547 0.0315650366 0.00596478488 -0.00252634403 0.0373160429 0.027222706 -0.105316415 0.0422544964 -0.0222284365 -0.100348249 0.0253775343 0.0274829492 -0.111495435 0.0388601273 -0.021495793 -0.091090858 0.0481406078 -0.0222729426 -0.0855641216 0.0459440015 -0.0222900547 -0.0673971996 0.0162421726 -0.0307447221 0.0311513748 0.0213663634 -0.0131880045 0.0314636268 0.00116041396 -0.0249079634 0.0313996598 0.0162769612 0.0316615365 -0.110838361 0.0190914497 0.0219185371 -0.0449447408 0.00905684568 0.0305609945 -0.105908364 0.0124212299 0.0308148619 -0.0510331281 0.0112045202 0.0404849946 -0.0950991884 0.0159987584 0.0160936173 -0.0382923819 0.0346024409 0.0287969504 -0.0535674058 0.0264540128 0.0191394668 0.00138130737 0.0244576614 0.0384459198 -0.0536376387 0.0269060992 0.0395277366 -0.0771633908 0.0184496492 0.0409171209 -0.0693099648 0.0330779739 0.0307048447 -0.0564830489 0.0426398218 0.0304989461 -0.0656533316 0.034311451 0.0306313466 -0.0991545245 0.0353310816 0.0373509116 -0.0623246916 0.0117553361 0.0412735976 -0.052073665 0.0193672478 0.0264110174 0.0310616847 0.00815093424 0.030913977 -0.00242938567 0.0485131703 0.0264663212 -0.0870983079 -0.0267825183 0.0209899992 -0.00491650309 0.0461051837 0.0254987162 -0.0679888129 0.0235252883 0.00564011838 0.00103142997 0.0147188818 0.0195585303 0.000315970537 0.0206170324 -0.0128758987 0.000495383516 0.0323055871 0.00837451965 0.0307629928 0.0292389058 -0.01694021 0.031182183 0.0227625649 0.00936461613 0.0314490274 0.0241458528 0.0395956822 -0.0885590762</float_array>
          <technique_common>
            <accessor source="#positions_array" count="104" stride="3">
              <param name="X" type="float" />
              <param name="Y" type="float" />
              <param name="Z" type="float" />
            </accessor>
          </technique_common>
        </source>
        <source id="normals">
          <float_array id="normals_array" count="579">-0.996238708 0.0553851053 -0.0666406378 -0.927992284 -0.325515032 -0.181301609 -0.836972237 -0.542448699 -0.0722975731 -0.863422453 0.501204491 0.0574086718 -0.82605809 0.539036989 -0.164521009 -0.616298437 0.787501037 -0.0042807525 0.657389522 0.684221208 -0.315721959 -0.922636092 -0.385260731 -0.017798217 -0.446867853 -0.891052425 -0.0795911252 -0.79726702 -0.349209845 -0.4923594 -0.547862828 -0.833588302 -0.0705471858 -0.622618079 -0.777861655 -0.0853109658 -0.916174889 0.0282406174 -0.399782449 -0.653701007 -0.0633131191 -0.754099727 -0.193987831 -0.972974122 -0.125260234 -0.214096904 -0.964855313 -0.152370483 -0.565355241 -0.22296223 -0.794141889 0.0192721002 -0.999559641 0.0225640852 0.0285714492 -0.996057332 0.0839849338 0.00833998248 -0.992424905 0.122569405 0.228835642 -0.953859508 -0.194387048 0.0624418966 -0.979223788 -0.192929432 -0.0524560995 -0.995321333 -0.0811407864 -0.0348893516 -0.997579098 -0.0601559207 -0.0559284091 -0.998035431 -0.0282363743 -0.936572075 -0.350380421 0.0081450874 -0.037671309 -0.0291984826 0.998863518 -0.0533001944 -0.0149295125 0.998466909 -0.0106222536 -0.0352519862 0.999321997 -0.151474118 -0.988138437 -0.0252586603 -0.593712449 -0.80461663 -0.00987889245 0.0531357937 -0.998542249 -0.00948724989 0.495670646 0.866767764 0.0549935922 0.442022026 0.896930575 0.0114902165 0.459631711 0.887741864 0.0255541522 -0.774600685 0.300997049 -0.556232452 -0.950342059 0.308738708 -0.0391202495 -0.57639879 0.499605834 -0.646651745 -0.813376009 0.545303822 -0.202640668 -0.101584956 0.979547024 0.173689842 -0.0719455853 0.97163552 0.225273639 -0.200877666 0.978071749 -0.054989364 -0.970381916 0.226505876 0.083988525 -0.933687985 0.352075607 -0.0653416365 0.995866776 0.0713245496 0.0562334843 0.991529644 0.128851503 0.0163168944 0.993231237 0.112860158 0.0274652746 -0.171966314 0.257500798 -0.950852752 -0.199925527 -0.0384631082 -0.979055882 0.0686729178 0.99723649 -0.0283441935 0.0750158876 0.995452285 0.0587141961 -0.750539303 -0.121552132 -0.649550498 -0.464538723 0.807623088 -0.363247395 -0.258191526 0.589481652 -0.765407383 -0.35022366 0.760400236 0.54693228 -0.444680959 0.480121374 0.756136417 -0.527756035 0.385706842 0.756771982 -0.516553819 0.0975323394 0.850681841 -0.573571622 0.243508816 0.782124698 -0.979774535 0.197741702 0.0306604598 -0.0276269298 -0.999584615 0.00820864923 0.437598526 -0.899033189 -0.0157098155 0.237718493 -0.969809651 0.0543979183 -0.602925122 0.795426846 0.0614603087 0.0408385321 0.9989838 0.0190669131 -0.314893216 0.947181046 -0.0607477613 0.128108174 0.965583622 -0.226355061 0.675659657 -0.698797107 -0.234875947 -0.0618668385 -0.850319862 -0.522617102 0.18113701 -0.82435143 0.536315262 0.862288058 -0.425002664 -0.275376141 0.633623183 -0.751800835 -0.182529762 0.919497669 -0.316909254 -0.232578039 0.992189169 -0.122563913 -0.0232103206 0.896000206 0.325613379 -0.301926434 0.955906451 0.144253835 -0.255800009 0.522522151 -0.0538071766 0.85092622 0.4824799 -0.147911757 0.86332798 0.676441252 -0.019523235 0.736237824 0.701132476 0.0517484471 -0.711150765 0.798750222 -0.011978304 -0.601543486 0.357413679 -0.00526053319 -0.933931351 0.250629693 0.0532275289 -0.966618657 -0.0658761412 -0.996246278 0.0561578088 -0.0550917499 -0.998244941 0.0217230301 -0.0846864879 -0.996405423 0.00209435634 -0.0688305944 0.0153019829 0.997511029 -0.0897565708 -0.995216727 -0.0385668278 0.443421662 -0.895843685 -0.0290062055 -0.5094015 0.860452592 0.0114652729 -0.512508929 0.858562648 0.0143104773 -0.501739979 0.865006804 0.00449113827 0.0263485406 -0.0129287308 0.999569237 -0.00878727064 -0.0530491285 0.998553216 0.00821054261 -0.0299460031 0.999517798 -0.357539147 0.457781315 -0.814003706 -0.000623108179 0.392343134 -0.919818699 0.306645125 0.951653659 0.0180020649 0.0387735702 0.961667717 0.271462262 0.269716531 0.242033988 -0.932026029 -0.236481503 0.774866223 0.586224198 0.014594716 0.998166502 -0.058742512 0.0365370251 0.988105297 -0.149375275 0.0461929776 0.917925477 -0.394054532 0.775405765 0.250364244 0.579709947 0.924231648 0.135697499 0.356906205 0.618174851 0.426125526 0.660512567 0.0488130897 0.736156046 0.675049305 0.698031247 0.714222312 -0.0513696633 0.691672981 0.702660918 -0.166901752 0.680945098 0.0490874164 0.730687439 0.461828887 0.0672531053 0.884415686 0.776911974 0.613858819 -0.139947027 0.202260047 0.853837252 -0.479638159 0.159512863 0.72168535 -0.673591793 0.200651914 0.977479756 0.065361999 0.151745722 0.98838532 0.00822573248 0.0989936367 0.994956136 0.0162036736 0.126827717 0.165911198 0.97795105 0.255489409 0.864780426 0.432296246 0.134487614 0.859924555 0.492384821 0.247505069 0.864949584 0.436581552 0.223159134 -0.0193565488 0.974589825 -0.062779896 0.0612006187 0.996149182 0.254092455 -0.0715815425 0.964527428 0.369304866 0.854245543 0.36589399 0.317528874 0.512605488 -0.797753751 0.309777468 0.763727009 -0.566355884 0.916720033 0.260593802 0.302845269 0.4343566 -0.220138744 -0.873426199 0.659864604 0.441874355 0.607721746 0.615885198 0.391920418 0.683435261 0.706566632 0.521069825 0.478800416 0.594701588 0.407516599 0.693008125 -0.130503237 0.103392333 0.986042023 0.590171158 0.807179928 0.012592053 0.268164903 0.957548261 -0.105777621 0.83238101 0.235176668 -0.501830459 0.918311357 0.366832793 -0.148788169 -0.781042576 0.62345612 -0.0357066467 0.813860238 0.419720292 0.401828885 0.913682342 0.21713914 0.343562514 0.0598884374 0.885549963 -0.46066761 0.931234539 -0.361740321 -0.0441159979 0.610989392 0.791422248 0.0185145959 0.718607664 0.580480218 0.3829436 -0.101211153 -0.012902393 0.994781315 -0.0177366175 -0.00279723108 0.999838769 -0.02021336 0.00399179012 0.999787748 0.971710622 0.235742167 0.0142864008 -0.0128146494 -0.0516307689 0.998584032 -0.0185933542 0.0359120965 0.999181986 -0.0794874355 0.00919110328 0.996793509 -0.00138599705 0.0603642203 0.998175442 -0.00306087337 0.10056857 0.994925439 0.0121919736 0.0888746604 0.995968223 0.402443707 0.915238976 -0.0194091462 -0.519976079 0.853918016 0.0211877469 0.727320611 -0.68465507 -0.0474565439 -0.961803436 0.12055254 0.24576655 0.920337617 0.000314774603 0.391124725 0.655795455 -0.754288614 0.0313221477 -0.0397314243 -0.994755149 0.0942527428 0.0180778187 -0.999821305 0.00553223304 -0.0802682042 -0.995094001 0.0578358956 0.992225707 -0.0114852032 -0.123920299 0.0348699503 -0.0118631739 0.999321461 0.0735805035 0.0183021519 0.997121334 0.0661315545 0.0243513584 0.997513711 0.992705643 -0.120079882 0.0107831946 0.985315621 0.170266449 -0.0127464151 0.120008312 0.991430461 -0.0516101271 0.148123011 0.988961399 0.00385918678 0.148558989 0.98705405 0.0604528524 -0.0260833483 0.999659181 -0.00106937706 -0.0497235358 0.998255789 -0.0318270065 0.0546444505 0.998505712 0.000572424731 -0.995454192 0.0944600031 -0.0121780969 -0.992995918 0.11811953 0.00263422867 -0.98768121 0.154395252 0.0254547186 0.743804276 -0.667725861 -0.0299553685 -0.566871226 0.0313054547 -0.823211372 -0.178190187 -0.98036927 0.0844060034 0.00420055445 -0.00582032325 0.999974251 0.00435877824 -0.00650754757 0.999969304 -0.00180545007 0.00211094227 0.999996126 -0.00618511671 0.0135041839 0.999889672 0.0363865644 0.0541831814 0.997867823 -0.997560799 0.0617365204 -0.0325732641 -0.845256507 -0.532545149 0.0440128744 -0.765301347 -0.643541098 -0.0129881371 -0.808633804 -0.588084638 0.0163655281 -0.725663424 -0.687028885 -0.0374684297</float_array>
          <technique_common>
            <accessor source="#normals_array" count="193" stride="3">
              <param name="X" type="float" />
              <param name="Y" type="float" />
              <param name="Z" type="float" />
            </accessor>
          </technique_common>
        </source>
        <vertices id="vertices">
          <input semantic="POSITION" source="#positions" />
        </vertices>
        <triangles material="scout_b2b2b2" count="204">
          <input semantic="VERTEX" source="#vertices" offset="0" />
          <input semantic="NORMAL" source="#normals" offset="1" />
          <p>0 0 1 1 2 2 3 3 4 4 5 5 6 6 7 6 8 6 0 0 2 2 9 7 10 8 1 1 11 9 2 2 10 8 12 10 2 2 12 10 13 11 11 9 14 12 15 13 12 10 16 14 13 11 17 15 13 11 16 14 11 9 15 13 18 16 19 17 18 18 20 19 17 15 16 14 21 20 21 20 16 14 22 21 23 22 24 23 25 24 26 25 9 7 13 11 27 26 26 27 28 28 17 15 29 29 28 30 30 31 24 23 16 14 31 32 27 33 32 34 0 0 14 12 1 1 1 1 10 8 2 2 14 12 33 35 15 13 4 4 33 35 14 12 4 4 0 0 34 36 5 5 4 4 34 36 35 37 15 13 33 35 36 38 4 4 3 3 4 4 35 37 33 35 36 38 35 37 4 4 5 5 37 39 3 40 5 5 38 41 37 39 39 42 36 38 3 3 39 42 40 43 36 38 41 44 42 45 31 46 15 13 43 47 44 48 35 37 43 47 15 13 38 41 45 49 37 39 37 39 45 49 46 50 36 51 40 51 47 51 36 38 47 52 35 37 40 53 48 53 47 53 46 54 49 55 37 56 50 57 39 58 49 55 34 36 0 0 51 59 52 60 53 61 54 62 55 63 56 64 57 65 24 66 30 66 58 66 23 22 16 14 24 23 23 22 22 21 16 14 59 67 21 20 22 21 60 68 18 68 44 68 23 69 59 69 22 69 61 70 21 20 59 67 62 71 21 20 61 70 61 70 63 72 62 71 64 73 61 70 59 67 65 74 66 75 63 72 64 76 59 77 23 78 67 79 68 80 60 81 69 82 67 79 60 81 68 83 70 84 20 19 70 84 68 83 71 85 13 11 17 15 28 30 26 27 27 26 42 86 72 87 25 24 70 84 23 22 25 24 72 87 73 88 29 29 21 20 74 89 32 90 75 91 74 92 75 93 73 94 62 71 63 72 73 88 47 95 76 96 43 47 45 49 77 97 46 50 78 98 76 98 47 98 48 99 78 99 47 99 46 54 79 100 49 55 40 101 80 102 48 103 77 104 81 105 64 73 81 105 65 74 61 70 76 96 69 82 43 47 45 106 81 105 77 104 82 107 46 107 77 107 81 108 45 109 65 74 82 110 77 111 64 76 65 74 83 112 66 75 48 103 7 113 76 114 84 115 85 116 86 117 46 118 82 118 79 118 87 119 79 120 82 121 84 122 79 123 87 124 47 95 43 47 35 37 88 125 87 119 82 121 76 114 67 126 69 127 7 113 67 126 76 114 7 128 89 128 67 128 7 129 6 129 89 129 90 130 87 131 88 132 90 130 84 133 87 131 91 134 50 57 49 55 92 135 93 136 56 64 6 137 94 138 67 79 14 12 11 9 1 1 55 63 95 139 51 59 88 140 96 141 94 138 88 140 82 110 96 141 6 142 67 142 89 142 8 143 88 143 6 143 88 140 94 138 6 144 8 145 90 130 88 132 5 5 34 36 95 139 15 13 44 48 18 16 97 146 98 147 99 148 14 12 0 0 4 4 93 136 92 135 83 112 92 135 100 149 83 112 26 25 0 0 9 7 28 28 29 150 27 26 29 150 73 94 75 93 75 93 27 26 29 150 55 151 51 152 42 86 53 153 55 151 42 86 51 152 26 27 42 86 55 151 53 153 56 154 52 155 56 154 53 153 27 33 75 156 32 34 51 59 0 0 26 25 74 89 99 157 32 90 13 11 28 30 26 25 57 65 38 41 5 5 57 65 5 5 95 139 101 158 73 88 63 72 45 49 38 41 93 136 3 3 37 159 39 42 94 138 96 141 72 160 51 59 95 139 34 36 95 139 55 63 57 65 53 61 41 161 54 62 91 134 79 123 84 122 82 110 72 160 96 141 44 48 43 47 69 82 44 48 69 82 60 81 83 112 45 109 93 136 61 70 65 74 63 72 18 18 60 162 20 19 11 163 18 18 19 17 10 8 11 163 19 17 16 14 10 8 30 31 10 8 19 17 30 31 64 76 23 78 82 110 25 24 24 23 19 17 24 23 58 164 19 17 25 24 19 17 70 84 70 84 19 17 20 19 58 164 30 31 19 17 72 87 70 84 71 85 71 165 94 138 72 160 12 10 10 8 16 14 39 58 37 56 49 55 101 166 100 167 102 168 74 92 101 166 102 168 38 41 57 65 93 136 101 169 63 72 100 149 56 64 93 136 57 65 81 105 61 70 64 73 31 46 42 45 27 170 29 29 17 15 21 20 83 112 65 74 45 109 48 103 80 102 7 113 80 102 103 171 7 113 8 172 7 113 103 171 85 116 8 172 103 171 90 173 8 172 85 116 84 115 90 173 85 116 103 171 80 102 86 117 103 171 86 117 85 116 86 117 80 102 39 174 80 102 40 101 39 174 86 117 39 174 50 175 84 115 86 117 91 176 91 176 86 117 50 175 74 177 97 178 99 179 63 72 66 75 100 149 62 71 73 88 21 20 20 19 60 162 68 83 41 161 53 61 42 180 68 80 94 138 71 165 9 7 2 2 13 11 82 110 23 78 72 160 94 138 68 80 67 79 91 134 49 55 79 123 78 181 48 181 76 181 54 62 98 182 52 60 54 183 41 184 98 147 98 147 41 184 31 185 98 147 31 185 99 148 99 148 31 185 32 186 92 187 56 154 52 155 100 167 92 187 102 168 92 187 52 155 102 168 73 94 101 166 74 92 97 178 74 177 102 188 97 189 102 190 98 191 52 192 98 191 102 190 83 112 100 149 66 75</p>
        </triangles>
      </mesh>
    </geometry>
  </library_geometries>
  <library_visual_scenes>
    <visual_scene id="scene">
      <node id="right_shoulder_yaw_link">
        <instance_geometry url="#geometry">
          <bind_material>
            <technique_common>
              <instance_material symbol="scout_b2b2b2" target="#scout_b2b2b2" />
            </technique_common>
          </bind_material>
        </instance_geometry>
      </node>
    </visual_scene>
  </library_visual_scenes>
  <scene>
    <instance_visual_scene url="#scene" />
  </scene>
</COLLADA>