<?xml version='1.0' encoding='utf-8'?>
<COLLADA xmlns="http://www.collada.org/2005/11/COLLADASchema" version="1.4.1">
  <asset>
    <created>2026-09-14T00:00:00Z</created>
    <modified>2026-09-14T00:00:00Z</modified>
    <unit name="metre" meter="1" />
    <up_axis>Z_UP</up_axis>
  </asset>
  <library_effects>
    <effect id="scout_b2b2b2_effect">
      <profile_COMMON>
        <technique sid="common">
          <lambert>
            <emission>
              <color>0 0 0 1</color>
            </emission>
            <ambient>
              <color>0.35 0.35 0.35 1</color>
            </ambient>
            <diffuse>
              <color>0.7 0.7 0.7 1</color>
            </diffuse>
          </lambert>
        </technique>
      </profile_COMMON>
    </effect>
  </library_effects>
  <library_materials>
    <material id="scout_b2b2b2" name="scout_b2b2b2">
      <instance_effect url="#scout_b2b2b2_effect" />
    </material>
  </library_materials>
  <library_geometries>
    <geometry id="geometry" name="right_wrist_roll_link">
      <mesh>
        <source id="positions">
          <float_array id="positions_array" count="210">0.045573689 0.0289295763 -0.00808827206 0.0529705621 0.025133118 0.0106014181 0.0563285388 0.0238691922 -0.000309242867 0.00163784111 0.0274733473 0.0102733457 0.0453519039 0.0231337659 0.0160631221 0.0115246 0.0220319852 0.0183896758 0.00173645222 -0.0239259023 -0.0166460034 0.0136518292 -0.0216356628 -0.0178839397 0.00887665525 -0.0160726085 -0.023549052 0.00115271332 0.0272484068 -0.0149801848 0.0417366959 0.0306023173 0.00125643448 0.00170602032 -0.00917730201 -0.0272581223 0.00938973296 -0.00461203931 -0.0278242044 0.0115589239 -0.0228036605 -0.0196560454 0.00953361206 -0.00859273504 -0.0289309267 0.00970490184 0.00821145438 -0.0288229212 0.00900986325 0.0125750387 -0.0257029533 0.0405379124 -0.0271977149 -0.0091690002 0.0469535068 -0.0234333631 -0.014461508 0.00164044183 0.0190436095 -0.0217909086 0.0123958373 0.0224395208 -0.0182783939 0.000514643441 -0.00752096577 0.029369086 0.00956123043 0.00858425815 0.028947616 0.000607551425 0.00997913629 0.0284943078 0.0425447226 0.0251293425 -0.0170808882 0.0457321182 0.0231130086 -0.0162111484 0.0442609265 -0.0282157697 0.00304696523 0.0524888188 -0.0242246762 -0.00695077563 0.0426081233 -0.0208430272 -0.0169173721 0.0510464869 -0.0208991375 -0.0118035208 0.044585418 -0.0250390377 -0.016600972 0.0558145382 -0.0208816323 -0.00268981908 0.0542402901 -0.0249776579 -0.0071488563 0.0542539507 -0.021656489 0.00680677779 0.042085778 0.0254613925 0.0170392673 0.0107912654 0.0231105834 0.0198092014 0.000180250237 0.0147516392 -0.0264117438 0.00958597288 0.0199024491 -0.0229277015 0.00927868113 -0.0173828434 0.0224494394 0.0112136109 -0.0227532946 0.0196755603 0.0145643698 -0.0214565843 0.0176027305 0.00943204854 -0.0090466924 0.0289045591 0.009429547 -0.00736074289 0.0272607934 0.00935673993 0.0106984163 0.0264282431 0.0454042405 -0.0208111499 0.016292017 0.0490778349 -0.0234308746 0.0123803858 0.0415062085 -0.0246243775 0.0150688188 0.042996157 -0.0285309255 0.00969563797 0.0425426699 -0.0298565906 -0.00311810011 0.000652645424 -0.0255858917 -0.0159564242 0.000457435963 -0.0157113448 -0.0257514343 0.000447317347 0.0303472467 0.00453770906 0.00172196946 0.0203644652 0.0204887334 0.0515866168 0.0241502784 -0.0127573656 0.0455136001 0.0279614497 -0.00631171325 0.0546621792 0.0231068898 0.00530508999 0.000481316732 -0.0246873572 0.0178436209 0.000554419588 -0.0302289072 -0.0013376415 0.0433148369 0.0282031205 0.00686587673 0.000443351804 0.023287965 0.0197275598 0.000548357144 -0.00183409266 -0.0301645659 0.00179050269 -0.025824612 0.0124447532 0.00165018381 -0.0190930162 0.0213410687 0.00169933005 0.00681213289 -0.0278841238 0.0558873825 -0.0241473373 0.00546017243 0.0449327119 -0.0243150759 0.0168829896 0.00170041865 0.00920170266 0.027394142 0.00166111125 -0.00844589062 0.0273256544 0.00173548388 0.0276981499 -0.0100917062 0.00164566096 -0.0286911987 0.000613327895</float_array>
          <technique_common>
            <accessor source="#positions_array" count="70" stride="3">
              <param name="X" type="float" />
              <param name="Y" type="float" />
              <param name="Z" type="float" />
            </accessor>
          </technique_common>
        </source>
        <source id="normals">
          <float_array id="normals_array" count="432">0.264153451 0.935957074 -0.232824713 0.317242146 0.934566081 0.161070555 0.444476217 0.895213306 -0.0321566463 0.00867653359 -0.951992452 -0.305998564 -0.19096981 -0.873429954 -0.447940439 -0.0220770556 -0.774069548 -0.632715583 0.0222069528 0.829040945 0.558746815 -0.0478409752 0.656261027 0.753015757 0.0202911347 0.573485911 0.818964064 -0.00445218338 0.882654488 -0.47000137 0.158966139 0.985186756 0.0643178225 -0.0104175927 0.312327921 0.949917197 -0.0584875233 0.112154633 0.991968036 0.684392571 -0.141007707 -0.715348661 0.986477435 -0.00864213146 0.16366905 0.992364287 0.0015794005 0.123331375 0.991755784 0.000219985799 0.128141984 0.231938601 0.554614007 0.799129426 0.968012094 -0.0257804245 0.249575481 0.825912833 -0.234907106 0.512529671 -0.104382671 0.944066942 0.312796921 -0.16583778 0.856304288 0.48912248 0.0113721043 -0.641676068 0.76689142 -0.0402402133 -0.410815507 0.910830021 -0.00882350653 -0.793435335 0.608590543 -0.0104867322 -0.253587782 0.967255533 0.0106538627 0.273491323 0.961815476 -0.00434590969 0.328892112 0.944357514 0.0650813282 -0.306715727 -0.949573517 -0.234203532 0.967028797 -0.100019783 -0.427776784 0.899453998 0.0893839523 0.253736019 0.0467165522 -0.966144681 0.715871274 -0.107247956 -0.689946532 0.409524351 0.0362297855 -0.91157949 -0.517658651 -0.059161026 0.853539407 0.967284739 -0.145593435 -0.207756519 0.892160237 -0.0165508818 -0.451415807 -0.850898981 0.279776007 0.444630593 -0.71889466 0.455024898 0.525492966 -0.815252304 0.335355073 0.472123593 -0.533646941 0.836262703 -0.126038015 -0.674878359 0.736175835 -0.05083666 0.11279694 -0.747352719 0.65478301 0.0762944371 -0.306252033 0.948888242 0.113672055 -0.761901796 0.637639642 -0.0273531936 0.460102975 -0.887444139 0.0427820385 0.674928486 -0.736641824 0.0130051151 0.24175474 -0.970250249 0.571044505 -0.204854473 0.79494828 0.476250142 0.532864809 -0.699457586 0.999889374 -0.00959651545 -0.0113640213 0.999997914 -0.000459275703 -0.00199280749 0.999915838 -0.0058828271 -0.0115631055 0.946597457 -0.206075728 -0.247963786 -0.254046649 0.521074831 -0.814825952 -0.382101029 0.846098959 -0.371638656 -0.121587619 0.737833679 -0.663941205 0.186330423 -0.93936038 0.28789416 0.177983046 -0.979436457 -0.0950067192 0.333648264 -0.937129974 -0.102304481 -0.731499672 -0.00774608552 -0.681797802 0.00661639962 -0.739157736 -0.673499882 -0.0242970679 -0.861697912 -0.506839573 0.0114293797 -0.525519311 -0.850704908 -0.999922514 0.0112656849 -0.00529724499 -0.990125477 0.128436252 -0.0561758317 -0.999919474 -0.00553537393 0.0114177503 0.785500586 -0.272252619 0.555758297 0.806670189 0.152806416 -0.570905745 -0.0251895189 -0.677397132 -0.73518616 -0.0698290169 -0.348991305 -0.934520721 0.436186701 0.328089237 -0.837913275 0.431091756 0.846792161 -0.311613351 0.116074555 0.885662079 -0.449587941 -0.501774669 -0.781154692 0.371509701 -0.246931016 -0.94442153 0.217009336 -0.179902285 -0.880484641 0.438613683 0.237112507 -0.964991212 -0.112114154 -0.363454223 -0.9099769 -0.199607342 -0.246604905 -0.947853506 -0.201890543 0.992557824 -0.0407458432 -0.114755392 0.917993784 -0.263947278 -0.296005428 0.913645804 0.103975452 0.392989069 -0.0287154634 -0.809628367 0.586239994 -0.0156480391 -0.999650836 -0.0212928224 0.485600114 0.344442964 0.803462267 -0.191688374 -0.954485655 -0.228501081 0.511702955 -0.735134304 0.444677025 0.956274569 0.0416782834 0.289485484 -0.999972343 0.00525627751 -0.00525651267 -0.999991894 -0.00355948485 0.00187514676 -0.999973416 0.00514896959 -0.00515889283 -0.999976218 0.00507551944 -0.00466814218 -0.999982834 -0.0047234986 0.00346967601 -0.999983132 -0.00514946785 0.00268656085 -0.999988019 -0.00386858475 0.00300772581 -0.999993265 -0.0031145697 0.00193452626 -0.00224757637 0.736321509 -0.676628113 -0.0145801771 0.901941776 -0.431611389 -0.0165005866 0.667494297 -0.744432092 0.0136477277 -0.034886878 -0.999298096 0.0383666158 -0.291040093 -0.95594126 -0.0699767917 -0.18817234 0.979639947 0.961848259 -0.250878394 -0.10912361 0.18256861 -0.868743598 0.460383832 0.352081895 -0.929533839 0.109568402 0.722634852 0.0283154286 0.690649748 0.721458435 0.0196542554 0.692178786 0.729492128 0.0914124474 0.677853227 0.999782562 -0.0123327356 -0.0168159939 0.999995768 -0.00209463458 -0.00202295207 0.999975204 0.00632262276 0.00309263915 -0.0521011427 0.19798924 -0.978818536 -0.0240930337 0.255158335 -0.966599047 -0.0546958297 -0.254933953 -0.965410292 0.0180486925 -0.954111695 0.298906565 0.0605462827 0.65696764 -0.751483679 0.0097039612 0.666436255 0.745498896 -0.00541942613 -0.332318217 0.943151772 0.00910777319 -0.724569976 0.689141035 0.0751122758 -0.294179231 0.952794194 0.0385407098 0.161142588 0.986178339 0.0877523124 0.774552166 0.626393199 -0.00468395231 0.837479115 -0.546449304 0.0898655355 -0.0327117965 -0.995416582 -0.0151642337 0.989839613 0.14137733 0.087618269 0.940650165 0.327872485 -0.00825718977 0.753044963 0.657917261 0.864397883 0.469353169 0.180343673 -0.0404609367 0.613378346 -0.788752139 -0.0431206375 0.648335814 0.760132432 0.731363893 0.116313227 0.67199558 0.99999994 -0.000315328041 -2.1319649e-05 0.999988556 -0.0045932387 -0.00133100711 0.999996662 0.00213651638 0.00145043258 0.999999285 -0.00115679228 -0.000331694377 0.999996483 0.00165210385 0.00206079823 0.999998152 0.00131891598 0.00141801429 0.999994397 0.00317369797 -0.00107570214 0.99999547 -0.00281051104 0.00108323863 0.998198271 0.0543643609 -0.0253917985 0.116116315 -0.935617149 -0.33337298 0.00650204672 0.999974012 0.00310537103 -0.667806327 0.506403744 0.545518041</float_array>
          <technique_common>
            <accessor source="#normals_array" count="144" stride="3">
              <param name="X" type="float" />
              <param name="Y" type="float" />
              <param name="Z" type="float" />
            </accessor>
          </technique_common>
        </source>
        <vertices id="vertices">
          <input semantic="POSITION" source="#positions" />
        </vertices>
        <triangles material="scout_b2b2b2" count="136">
          <input semantic="VERTEX" source="#vertices" offset="0" />
          <input semantic="NORMAL" source="#normals" offset="1" />
          <p>0 0 1 1 2 2 3 3 4 4 5 5 6 6 7 7 8 8 0 0 9 9 10 10 8 8 11 11 6 6 11 11 8 8 12 12 8 13 7 13 13 13 12 14 8 15 14 16 14 17 8 17 13 17 15 18 12 14 14 16 15 18 16 19 12 14 6 6 17 20 18 21 19 22 16 23 20 24 21 25 22 26 23 27 20 28 24 28 25 28 26 29 27 30 17 20 17 20 27 30 18 21 28 31 29 32 30 33 29 34 28 34 18 34 29 32 31 35 32 36 31 37 29 38 27 39 33 40 31 41 27 30 5 42 34 43 35 44 36 45 37 46 15 47 38 48 39 48 40 48 38 49 41 49 39 49 38 50 42 51 41 52 43 53 41 52 42 51 44 54 45 55 46 56 46 56 45 55 26 29 47 57 48 58 32 59 26 29 45 55 33 40 44 60 33 60 45 60 26 29 33 40 27 30 13 61 49 62 50 63 51 64 9 65 36 66 15 18 37 67 16 19 37 68 20 68 16 68 52 69 5 5 43 70 24 71 53 71 25 71 0 0 53 72 24 73 2 74 54 75 25 76 0 0 10 10 1 1 53 77 2 77 25 77 0 0 2 2 53 72 55 78 54 75 2 79 41 52 43 53 22 80 43 53 35 81 22 80 5 82 35 82 43 82 56 83 57 84 47 57 52 69 3 3 5 5 1 85 34 85 4 85 55 78 4 4 58 86 1 87 4 87 55 87 2 88 1 88 55 88 56 89 23 90 57 91 23 90 56 89 21 92 57 91 23 90 49 93 49 93 23 90 59 94 49 93 59 94 50 95 50 95 59 94 60 96 60 96 59 94 51 64 60 96 51 64 36 66 40 97 61 98 62 99 60 100 14 101 50 63 63 102 11 11 12 12 64 103 32 36 31 35 65 104 47 57 64 105 44 106 65 107 64 108 52 109 66 110 3 111 12 12 16 23 63 102 18 21 7 7 6 6 46 56 61 98 40 97 42 112 67 113 66 114 66 114 43 70 42 112 68 115 25 76 54 75 9 9 24 73 20 116 3 3 58 86 4 4 23 27 22 26 35 117 41 118 56 83 39 119 49 62 48 58 57 84 29 32 32 36 30 33 37 46 36 45 9 9 5 42 4 120 34 43 58 86 54 75 55 78 44 121 40 121 65 121 65 122 40 122 39 122 37 46 9 9 20 116 7 123 28 123 13 123 28 31 30 33 13 124 13 61 50 63 14 101 58 86 68 115 54 75 60 100 15 47 14 101 10 10 51 125 34 126 59 127 34 126 51 125 31 128 33 128 64 128 48 58 47 57 57 84 40 97 62 99 38 129 56 83 47 57 39 119 18 21 28 130 7 7 0 0 24 73 9 9 64 105 47 57 32 59 64 108 33 131 44 106 22 26 21 25 41 118 19 132 68 133 66 110 63 134 19 132 67 135 19 132 66 110 67 135 68 133 3 111 66 110 6 136 11 137 62 138 11 137 63 134 62 138 6 136 62 138 69 139 62 138 61 140 69 139 63 134 67 135 62 138 10 10 9 9 51 125 15 47 60 100 36 45 49 62 30 141 48 58 68 115 19 22 20 24 69 142 17 20 6 6 26 29 69 142 46 56 46 56 69 142 61 98 20 24 25 76 68 115 38 129 67 113 42 112 38 129 62 99 67 113 59 127 23 27 35 117 39 119 47 57 65 104 52 69 43 70 66 114 18 143 27 39 29 38 32 59 48 58 30 141 19 22 63 102 16 23 68 115 58 86 3 3 13 61 30 141 49 62 44 54 46 56 40 97 69 142 26 29 17 20 21 25 56 83 41 118 1 1 10 10 34 126 34 126 59 127 35 117</p>
        </triangles>
      </mesh>
    </geometry>
  </library_geometries>
  <library_visual_scenes>
    <visual_scene id="scene">
      <node id="right_wrist_roll_link">
        <instance_geometry url="#geometry">
          <bind_material>
            <technique_common>
              <instance_material symbol="scout_b2b2b2" target="#scout_b2b2b2" />
            </technique_common>
          </bind_material>
        </instance_geometry>
      </node>
    </visual_scene>
  </library_visual_scenes>
  <scene>
    <instance_visual_scene url="#scene" />
  </scene>
</COLLADA>