<?xml version='1.0' encoding='utf-8'?>
<COLLADA xmlns="http://www.collada.org/2005/11/COLLADASchema" version="1.4.1">
  <asset>
    <created>2026-09-14T00:00:00Z</created>
    <modified>2026-09-14T00:00:00Z</modified>
    <unit name="metre" meter="1" />
    <up_axis>Z_UP</up_axis>
  </asset>
  <library_effects>
    <effect id="scout_b2b2b2_effect">
      <profile_COMMON>
        <technique sid="common">
          <lambert>
            <emission>
              <color>0 0 0 1</color>
            </emission>
            <ambient>
              <color>0.35 0.35 0.35 1</color>
            </ambient>
            <diffuse>
              <color>0.7 0.7 0.7 1</color>
            </diffuse>
          </lambert>
        </technique>
      </profile_COMMON>
    </effect>
  </library_effects>
  <library_materials>
    <material id="scout_b2b2b2" name="scout_b2b2b2">
      <instance_effect url="#scout_b2b2b2_effect" />
    </material>
  </library_materials>
  <library_geometries>
    <geometry id="geometry" name="right_ankle_pitch_link">
      <mesh>
        <source id="positions">
          <float_array id="positions_array" count="153">-0.0246127285 -0.000347136782 -0.0117741721 -0.019274855 0.000845103874 -0.0159215368 -0.0248390008 -0.00539630465 -0.0169997104 0.00518704299 -0.00565558998 -0.0151310796 -0.0060103205 -0.00554435048 -0.0144879306 -0.00497378316 -0.00616983604 -0.0239057094 -0.00272690225 3.3290089e-05 0.00471471297 0.00131765089 -0.00585571304 0.00513707055 -0.00364835095 -0.00575259002 0.00371380569 -0.0181472972 0.00625166064 -0.0156209366 -0.0177017506 0.00417529093 -0.0114851138 -0.0180891771 0.00458845077 -0.023062015 0.0108288359 0.00387765933 0.00686254725 0.00236556306 0.0039167041 0.0135820033 0.00915302895 -0.00413154159 0.0105144866 -0.0248400401 -2.68745916e-05 -0.0224757791 -0.00472382549 -0.00396556593 0.0115326075 0.00345578627 0.00576073164 -0.00439339736 0.00563088665 -0.00579036772 0.000332871423 0.0046082437 0.00563686527 0.00247923331 -0.00271936203 0.00503500365 -0.0087871803 0.00745961722 0.00593824172 -0.00569152553 0.00734615 0.00413660146 -0.00702432496 -0.00238940795 -0.00563095743 -0.00559121976 -0.0159528386 0.0038236978 0.00385802868 -0.00456056325 0.00563062727 -0.00328197982 0.0111353891 0.00595245091 -0.0177880172 0.0112262946 -0.0059296987 -0.0172754359 -0.0021918104 0.00553568499 0.00512620434 0.0034715212 -2.72980997e-05 0.00415601116 -0.0201092996 -0.00125347113 -0.0199798122 -0.0179351568 -0.00588590791 -0.0218312424 -0.0178499166 -0.00552474894 -0.0128577193 0.00745435059 -0.00528167142 -0.00607599691 0.00775265601 -0.00502829207 0.00555117894 -0.00114798371 -0.00542179076 0.00962001644 -0.00832129829 -0.00515965791 0.00387839414 -0.0165390763 -0.00402606186 0.00230384711 -0.0158096105 -0.00468950905 -0.00830065832 -0.00837883167 -0.004944338 -0.00424585771 -0.00248443685 -0.00521407463 -0.00913978368 -0.0245091617 0.00662166253 -0.01810335 0.00778635591 0.00493738428 0.00495426496 0.00545297237 0.00529604871 -0.0148398094 -0.00414722459 0.00476336433 -0.0153300287 -0.0118405027 0.00555536291 -0.0103284875 -0.00821239781 0.00497060874 -0.00411291188 0.000725149759 0.00485520577 0.00934703555 -0.00713280356 0.00504251895 0.00640188437 0.00544422586 -0.00654921588 -0.0239124335 -0.00173909985 0.0064486824 -0.0257136747</float_array>
          <technique_common>
            <accessor source="#positions_array" count="51" stride="3">
              <param name="X" type="float" />
              <param name="Y" type="float" />
              <param name="Z" type="float" />
            </accessor>
          </technique_common>
        </source>
        <source id="normals">
          <float_array id="normals_array" count="327">-0.568849802 0.603620946 -0.558615804 -0.654080272 0.649951756 -0.386964649 -0.637992799 0.642171323 -0.424948454 -0.0195878334 -0.997413516 0.0691564903 -0.00726460153 -0.996933103 0.0779202133 -0.0116049303 -0.997505188 0.0696325898 0.206333354 0.0717216581 -0.975849628 0.0858694986 0.0444178581 -0.99531579 0.275806069 0.12103375 -0.953562737 0.987185717 0.157200962 -0.0274264272 0.607050419 0.221027017 0.763306558 0.193039536 -0.980620742 -0.0334469602 0.134822294 -0.853340209 0.503620327 0.0660109967 -0.306280464 0.949649811 -0.119371749 -0.825636208 0.551430166 -0.979669869 -0.118128777 0.162149787 0.190629318 0.576029956 -0.794889867 -0.577676356 0.213572323 0.787830532 -0.500917077 0.122100964 0.85683918 -0.461134017 0.189355984 0.866890848 -0.573038101 -0.0188435726 0.819312036 0.997213304 0.0577324554 -0.0472500809 0.977769792 0.160949215 0.134393305 0.994776726 0.0179651566 -0.100481391 0.997804403 -0.0288994946 0.0595913865 0.990651369 -0.134731501 0.0213831309 0.997222006 0.0108085768 0.073698312 -0.199039131 -0.105777785 -0.974266112 -0.352847934 -0.199792102 -0.914101422 -0.280035049 -0.118952975 -0.952591479 -0.713900089 0.67101872 -0.200201333 -0.475537777 -0.628169537 -0.615846455 -0.0251417086 -0.998865604 0.0404403023 0.0128331454 -0.995990872 0.0885296389 -0.042395696 -0.998276412 0.0405806303 -0.0998758152 -0.113188729 -0.988540888 -0.106395222 -0.117581159 -0.987347305 -0.00639661076 -0.116790935 -0.993135929 0.196990013 -0.980341077 0.0112386923 0.0364545807 -0.999113441 0.0210564174 0.322070509 -0.944303095 0.0675447509 -0.0269298777 -0.929307163 0.368324608 -0.146045223 -0.98307997 0.11056453 -0.012799575 -0.996940553 0.0771083012 -0.128172666 -0.987458408 0.0921825692 0.0790317133 -0.993483245 0.0821282119 -0.0630297959 -0.997772217 -0.0218610726 -0.0286141131 -0.99958849 -0.00201386353 -0.999136448 0.035076037 0.0222722702 0.955445409 -0.0880314112 -0.281734854 0.844790816 -0.0422615446 -0.533425212 -0.41648069 0.513931155 -0.7499457 0.0507081226 -0.140688449 0.988754511 -0.449183702 -0.752575159 0.481523275 0.140083432 0.966528177 -0.214941531 -0.240803108 0.967399955 0.0784296393 -0.0717357993 0.988487065 0.133218765 -0.148975715 0.984899759 0.0881969929 0.0249732304 0.974588215 0.222607717 0.263017684 0.958178818 0.112761021 0.217755422 0.97250545 0.0825574175 -0.0495080464 0.987452686 0.149953708 0.0934293345 0.989672482 0.108717009 -0.0842814967 0.995342553 0.046795588 0.0253004599 0.997410893 -0.0673153996 -0.0760031641 0.996700883 0.02847578 -0.0154387597 0.978856206 0.203966141 -0.237433717 0.97034204 0.0454043597 -0.13341473 0.99016428 0.042133715 -0.110635012 0.992446184 0.053013362 0.369888812 0.926003456 -0.0754975975 -0.319821119 0.733279288 0.600013256 -0.335724086 0.717354894 0.610484421 -0.427791685 0.611168861 0.665933073 -0.00575143006 -0.140383199 -0.990080535 -0.0897495151 -0.122410588 -0.988413215 -0.093192853 -0.117764398 -0.988659024 -0.181216747 0.702185512 0.68854624 0.138010934 -0.173349917 0.975142419 -0.304359823 0.448131233 0.84056139 -0.14708215 0.952133119 0.267972589 -0.994514823 0.0173961911 0.103139065 -0.995060682 0.0584231801 0.08025603 -0.995032489 0.03588311 0.0928587168 -0.993568003 -0.000846321578 0.113234013 -0.127011314 0.989415884 -0.0701737478 -0.0221883971 0.998925507 0.0406885371 0.0122567238 0.992358267 0.122779809 -0.0379600823 0.991338372 0.125727132 0.157741368 0.985605359 0.0608257279 -0.0273953471 -0.994569004 0.100409001 0.754848182 -0.0225029048 -0.655513406 0.639411867 0.0833564401 -0.764332473 0.618318021 0.100384876 -0.779490709 0.521209121 0.172212899 -0.835873067 -0.0623111911 -0.994127631 -0.0884735882 0.0672212243 -0.990678728 0.118477829 -0.108156569 -0.992967963 0.0481333584 -0.126667589 0.880957663 0.455926418 -0.735484004 0.161016524 -0.658131361 -0.824029088 0.0646305382 -0.562848985 -0.779272377 0.116501719 -0.61576128 -0.0332245193 0.994586885 0.0984534547 -0.147108912 0.989116013 -0.00291766785 -0.611516714 -0.109480314 0.783620656 0.978306353 -0.207096636 -0.00526477071 0.998707592 -0.0376075879 -0.03418779 -0.857432127 0.0198510028 -0.514214039 -0.395433724 -0.651909411 0.647028863</float_array>
          <technique_common>
            <accessor source="#normals_array" count="109" stride="3">
              <param name="X" type="float" />
              <param name="Y" type="float" />
              <param name="Z" type="float" />
            </accessor>
          </technique_common>
        </source>
        <vertices id="vertices">
          <input semantic="POSITION" source="#positions" />
        </vertices>
        <triangles material="scout_b2b2b2" count="102">
          <input semantic="VERTEX" source="#vertices" offset="0" />
          <input semantic="NORMAL" source="#normals" offset="1" />
          <p>0 0 1 1 2 2 3 3 4 4 5 5 6 6 7 7 8 8 9 9 10 9 11 9 12 10 13 10 14 10 1 11 0 11 15 11 14 12 13 13 16 14 17 15 18 15 19 15 20 16 21 16 22 16 18 17 17 17 23 17 16 18 13 19 24 20 8 21 23 22 25 23 26 24 14 25 27 26 28 27 19 28 29 29 1 1 30 30 2 2 2 31 15 31 31 31 31 32 32 33 2 34 11 35 31 36 15 37 18 38 33 39 34 40 35 41 34 40 14 12 36 42 35 41 16 14 27 43 14 12 33 39 27 43 33 39 3 3 14 12 16 14 35 41 16 14 37 44 36 42 33 39 14 12 34 40 37 44 38 45 36 42 39 46 38 45 40 47 40 47 38 45 4 4 4 4 3 3 40 47 33 39 40 47 3 3 39 46 36 42 38 45 0 48 41 48 15 48 32 33 38 45 37 44 8 21 28 49 6 50 11 51 15 51 41 51 0 52 32 52 10 52 28 27 7 7 6 6 15 53 30 53 1 53 41 54 9 54 11 54 12 55 26 56 22 57 13 58 12 59 42 60 43 61 44 62 22 57 44 62 45 63 20 64 20 64 45 63 46 65 42 60 47 66 13 58 10 67 24 68 45 63 45 63 24 68 46 65 46 65 24 68 48 69 22 70 42 60 12 59 44 62 20 64 22 57 22 57 26 56 43 61 10 71 41 72 0 73 49 74 5 75 50 76 31 36 11 35 5 75 11 35 50 76 5 75 30 77 15 77 2 77 23 78 17 78 25 78 48 79 24 79 47 79 24 80 13 58 47 66 32 81 37 82 24 83 10 84 32 81 24 83 20 64 46 65 25 85 21 86 20 64 25 85 25 85 17 87 21 86 48 69 47 66 28 88 47 66 19 89 28 88 46 65 48 69 25 85 47 66 42 60 19 89 25 85 48 69 28 88 17 87 42 60 21 86 38 45 32 33 4 4 4 4 32 33 5 5 32 33 31 32 5 5 5 5 49 90 3 3 49 90 27 43 3 3 27 91 49 92 26 93 50 94 26 93 49 92 18 38 23 95 33 39 40 47 33 39 23 95 7 96 18 38 34 40 7 96 34 40 35 41 35 41 8 97 7 96 35 41 36 42 8 97 23 95 8 97 36 42 36 42 39 46 23 95 23 95 39 46 40 47 19 89 42 60 17 87 41 72 10 71 9 98 29 29 7 7 28 27 7 99 29 100 18 101 26 56 50 102 43 61 43 61 50 102 44 62 50 102 11 103 45 63 11 103 10 67 45 63 45 63 44 62 50 102 37 104 16 18 24 20 28 49 8 21 25 23 26 24 12 105 14 25 22 106 21 106 42 106 19 107 18 101 29 100 2 108 32 108 0 108</p>
        </triangles>
      </mesh>
    </geometry>
  </library_geometries>
  <library_visual_scenes>
    <visual_scene id="scene">
      <node id="right_ankle_pitch_link">
        <instance_geometry url="#geometry">
          <bind_material>
            <technique_common>
              <instance_material symbol="scout_b2b2b2" target="#scout_b2b2b2" />
            </technique_common>
          </bind_material>
        </instance_geometry>
      </node>
    </visual_scene>
  </library_visual_scenes>
  <scene>
    <instance_visual_scene url="#scene" />
  </scene>
</COLLADA>