<?xml version='1.0' encoding='utf-8'?>
<COLLADA xmlns="http://www.collada.org/2005/11/COLLADASchema" version="1.4.1">
  <asset>
    <created>2026-09-14T00:00:00Z</created>
    <modified>2026-09-14T00:00:00Z</modified>
    <unit name="metre" meter="1" />
    <up_axis>Z_UP</up_axis>
  </asset>
  <library_effects>
    <effect id="scout_b2b2b2_effect">
      <profile_COMMON>
        <technique sid="common">
          <lambert>
            <emission>
              <color>0 0 0 1</color>
            </emission>
            <ambient>
              <color>0.35 0.35 0.35 1</color>
            </ambient>
            <diffuse>
              <color>0.7 0.7 0.7 1</color>
            </diffuse>
          </lambert>
        </technique>
      </profile_COMMON>
    </effect>
  </library_effects>
  <library_materials>
    <material id="scout_b2b2b2" name="scout_b2b2b2">
      <instance_effect url="#scout_b2b2b2_effect" />
    </material>
  </library_materials>
  <library_geometries>
    <geometry id="geometry" name="right_wrist_pitch_link">
      <mesh>
        <source id="positions">
          <float_array id="positions_array" count="222">-0.0239006113 -0.0204321165 -0.00787613448 -0.0264510717 -0.0167661272 -0.0109565388 -0.0215084888 -0.0165957585 -0.0187932737 -0.0190950986 0.0187222622 0.0212909561 -0.0125373527 -0.0167605411 0.0259149596 -0.0101030963 0.0188081954 0.0266969483 0.000147980449 -0.0204524714 -0.0256214403 -0.015937889 -0.0204091277 -0.0191482827 -0.0140549606 -0.0168060251 -0.0249044113 -0.00196559099 -0.0166136082 -0.0286779553 -0.028615877 -0.0166837014 0.00180689979 -0.0233502071 -0.0204177238 0.00912844762 -0.0243273564 -0.0167354848 0.0152355842 -0.0164502822 -0.0203781091 0.0187226813 -0.00536660198 -0.0204040483 0.0245556831 0.00164753245 -0.0167786684 0.0285641514 -0.0277858563 0.0187196434 -0.00671016192 -0.024793949 0.0224442873 -0.0037568179 -0.0239055231 0.0187429078 -0.0156251267 -0.0186059289 0.0223400407 -0.016807016 -0.0174188558 0.0187959392 -0.0225480217 -0.00787923764 0.0224117022 -0.0238874387 -0.00695899222 0.0188343842 -0.0279241502 -0.0249152463 0.0187540166 0.0138083473 -0.0233823881 0.0224304106 0.00834174361 -0.0281555951 0.018617712 0.00553427124 -0.017026592 0.0224435683 0.0185462255 0.0057335645 0.0186088011 0.0284104049 0.0199426245 -0.0169277284 0.0222829748 0.00198139902 0.0224455055 0.0253236573 0.0743437186 -0.0045601516 0.0165354833 0.074548319 0.00315112295 -0.0187572017 0.0728463233 0.0101867868 0.0169093497 0.013482362 -0.0168493669 -0.0250810124 0.0251328722 -0.0179833677 -0.0225181114 0.0201887861 -0.020678632 -0.0189768616 0.0417169817 0.0286921356 -0.0184838809 0.0266028661 0.0231520478 -0.0187586043 0.0365227312 0.0266689509 0.0168997683 0.0380440317 -0.0274567418 -0.0187118035 0.0270431582 -0.022725299 0.0168031864 0.0399521738 -0.0282273404 0.0165363606 0.0358409099 0.0225844048 -0.0224069301 0.0709749237 -0.00412806077 -0.0224759206 0.0692185163 -0.0168411396 -0.0187057536 0.0632085726 -0.0181125458 -0.0224544592 0.0732455626 -0.00836474728 -0.0187540725 0.0151032582 -0.0203337222 0.0207983088 0.041863393 -0.0246562902 -0.0224114731 0.0319070704 -0.0210768003 0.0203625094 0.0463404581 0.0285987966 0.016562365 0.0632577613 -0.0182684474 0.0204384364 0.0489607602 -0.0249150414 0.0204001665 0.0561628044 -0.0267804675 0.0168586448 0.0687972009 -0.0177598335 0.0165781397 0.0705109388 -0.00485655433 0.0204120371 0.009377921 0.0224513579 -0.0227557104 0.0198089052 0.0187727474 -0.0230536759 0.00788516551 0.0187065117 -0.0274843201 0.0593966469 0.0255147014 -0.0188576747 0.066580385 0.0144853517 -0.0224511065 0.0518449023 0.0244208425 -0.0224611424 0.0700363889 0.0154869631 -0.0187268611 0.0597278662 -0.0250594169 -0.0187766943 0.0501770452 -0.0282854848 -0.0187202021 0.0541677438 -0.0234773271 -0.0224355534 0.0663043559 0.0200061388 0.0167165063 0.0570497625 0.0265315361 0.0166840982 0.0239693616 0.01884114 0.0210056454 0.0417938754 0.0247634146 0.0203907955 0.0225191265 0.0225501116 0.0173654612 0.0539932176 0.0234807264 0.020424962 0.0632762536 0.0181615092 0.0204013158 0.0696797669 0.00762944156 0.0204322077</float_array>
          <technique_common>
            <accessor source="#positions_array" count="74" stride="3">
              <param name="X" type="float" />
              <param name="Y" type="float" />
              <param name="Z" type="float" />
            </accessor>
          </technique_common>
        </source>
        <source id="normals">
          <float_array id="normals_array" count="420">-0.671463013 -0.712601781 -0.203312829 -0.654702961 -0.698411822 -0.289110601 -0.533085287 -0.723910928 -0.437918931 -0.664441943 0.00833769515 0.747293413 -0.429924577 -0.00344468746 0.902858257 -0.309929341 0.000308253948 0.95075953 0.029375596 -0.646515071 -0.762335479 -0.437099606 -0.731375277 -0.52348268 -0.300465316 -0.746972024 -0.593087971 -0.0560781322 -0.332248122 -0.941523492 -0.659930289 -0.750405014 0.0372075923 -0.679130912 -0.694757938 0.236838803 -0.314686775 -0.717203557 0.621764719 -0.594085395 -0.704287469 0.388640851 -0.491241217 -0.674561203 0.551043808 -0.127147689 -0.698231459 0.704490125 0.0716247559 -0.772223651 0.631300628 -0.690481305 0.699801505 -0.183066726 -0.703140736 0.703933299 -0.100354485 -0.586453557 0.731234968 -0.348378569 -0.519556999 0.720040739 -0.460001975 -0.413234293 0.718150616 -0.559908152 -0.195944473 0.728328943 -0.656614602 -0.110026151 0.735144436 -0.668922246 -0.605795741 0.717286766 0.344254553 -0.647078276 0.726692498 0.230667859 -0.687658489 0.716585755 0.11675074 -0.486433536 0.677399039 0.551826894 -0.290798217 0.898713946 0.328252435 0.1381118 -0.0113585703 0.990351498 0.0550412498 -0.00201728451 0.998482049 0.2509031 -0.00390686188 0.968004346 -0.209214851 0.779432535 0.590520203 0.00365637359 0.88098675 0.473126829 0.988439441 -0.150700107 0.0166431945 0.992991805 0.117245704 -0.014857918 0.93979764 0.341290712 0.0173520669 0.226544395 -0.381718457 -0.896085203 -0.142396674 -0.687681973 -0.711910605 -0.00817803293 -0.748628259 -0.662939548 -0.0941678658 0.915903807 -0.390195549 -0.187618285 0.982227981 0.00525402185 -0.251846701 0.967748165 0.0060614855 -0.184049293 -0.677226841 -0.712383091 -0.294305116 -0.955693007 -0.00594393769 -0.224494308 -0.97447139 -0.0027908925 -0.160223439 -0.905035019 0.394005179 -0.186173692 0.679736733 -0.709434569 -0.125115514 0.756487906 -0.641928434 0.702747166 -0.109815784 -0.702913105 0.556959569 -0.381230891 -0.737874687 0.494463623 -0.512275696 -0.702196121 0.682235062 -0.240807623 -0.690338373 0.125492498 -0.639852345 0.758182406 0.201163247 -0.655160189 0.728215933 -0.09755072 -0.708234251 -0.699205339 -0.153715864 -0.726687789 0.669549286 -0.220345482 -0.692938209 0.686501622 0.0132318269 0.999912024 0.000917452213 -0.933333933 -0.0112324273 -0.35883373 -0.835020244 0.0108409636 -0.550112426 -0.749275744 -0.00747748138 -0.662215889 0.959987164 -0.279947519 -0.00735373097 -0.870875418 0.00533886626 0.491474807 -0.984268129 0.00490312697 0.176613122 -0.841801643 -0.0195532814 0.539432704 0.478899926 -0.538025379 0.693673909 0.0696073398 -0.733905375 0.67567575 0.328893483 -0.85904789 0.392257273 0.56686902 -0.404349416 0.717747211 0.695334017 -0.141798928 0.704559207 0.711340308 -0.100532554 0.695620716 0.148712754 0.724948585 -0.67255789 0.123204559 0.632938385 -0.764336109 0.10314057 0.763651252 -0.637337267 -0.477797031 -0.0119511588 -0.878388941 -0.602884769 0.0119912075 -0.797738135 -0.224191993 0.0163909774 -0.974407136 0.42515853 0.811617613 -0.400645882 0.566328824 0.404499173 -0.718089223 0.149558619 0.728658497 -0.668348014 0.622691631 0.384775043 -0.68132472 0.636445999 0.107893035 -0.763737857 0.346210897 -0.615714312 -0.707837522 0.0862226486 -0.687024295 -0.721500695 0.218161583 -0.657142699 -0.721504688 0.781058848 -0.624342084 0.0120036751 0.798072219 -0.60253036 -0.00615864713 0.834120572 0.551283538 -0.0181469154 0.716454744 0.697541773 0.0113158422 0.381833851 0.924223185 -0.0037957537 -0.183282882 0.710820019 0.679074526 0.0377451777 0.712664664 0.700488627 -0.086844258 0.732200563 0.675529718 0.0442376956 0.70991677 0.702894926 0.254030973 0.642792881 0.722693264 0.180846468 0.684626937 0.706102371 0.490941256 0.514028966 0.703385353 0.525093794 0.505567551 0.684600592 0.641301572 0.234934956 0.730436802 0.666022539 0.174394593 0.725258946 0.193192616 -0.00671526138 0.981137872 0.0605713278 0.00454112096 0.998153567 0.0132958675 -0.00385865942 0.999904156 -0.975458264 0.0112014217 -0.219899267 0.129891917 -0.991479456 -0.0098274434 0.00130878808 -0.999998033 0.00148888689 0.0017534697 -0.999997437 0.00142033433 -0.0775328204 -0.996974587 -0.00550675998 0.00194191211 -0.999965012 -0.00813632645 0.00239319564 -0.999997139 0.000176130852 0.000572839926 -0.999998808 0.00144245673 -0.168278128 -0.985708892 0.00777308736 -0.00613620086 -0.999970913 0.00453494396 0.201656967 0.00257032202 -0.979452848 0.186794579 -0.00605214713 -0.982380331 -0.123489089 0.992333114 -0.00504034804 -0.0163757764 0.999861717 0.00290262257 -0.997480452 -0.0150854085 0.0693189874 -0.00465732813 0.999989152 7.68692116e-05 -0.00238430942 0.999991775 -0.00327793672 -0.00283390353 0.999995351 0.00115024298 -0.000504171359 0.999992371 -0.00388092315 0.146310955 0.701193154 0.697797477 0.0896328837 0.00475075841 -0.995963514 0.497373074 -0.867493153 -0.00869976263 -0.00241980562 -0.000160447016 0.999997079 -0.00400189497 -0.0114298202 0.999926686 0.000126483588 0.00200520805 0.999997973 -0.00128091034 0.000468251295 0.999999046 -0.000101876794 0.000618202146 0.999999821 -0.00203371467 -0.00089284766 0.999997556 0.0126594547 -0.000601126056 -0.999919713 -0.000343204418 -0.0168391988 -0.999858141 0.00144185568 -0.00740682194 -0.999971509 -0.000698315213 0.00178329181 -0.999998152 0.00166078552 -0.00325174094 -0.999993324 0.000861466164 0.000194949331 -0.999999583 0.000814103521 0.00102438696 -0.999999166 0.051956553 0.67398721 0.736913621</float_array>
          <technique_common>
            <accessor source="#normals_array" count="140" stride="3">
              <param name="X" type="float" />
              <param name="Y" type="float" />
              <param name="Z" type="float" />
            </accessor>
          </technique_common>
        </source>
        <vertices id="vertices">
          <input semantic="POSITION" source="#positions" />
        </vertices>
        <triangles material="scout_b2b2b2" count="144">
          <input semantic="VERTEX" source="#vertices" offset="0" />
          <input semantic="NORMAL" source="#normals" offset="1" />
          <p>0 0 1 1 2 2 3 3 4 4 5 5 6 6 7 7 8 8 8 8 9 9 6 6 10 10 0 0 11 11 4 12 12 13 13 14 14 15 4 12 13 14 12 13 10 10 11 11 15 16 4 12 14 15 0 0 2 2 7 7 16 17 17 18 18 19 19 20 20 21 18 19 21 22 20 21 19 20 20 21 21 22 22 23 23 24 24 25 25 26 3 27 26 28 23 24 23 24 26 28 24 25 27 29 15 30 28 31 3 27 5 32 26 28 5 32 29 33 26 28 30 34 31 35 32 36 6 6 9 9 33 37 34 38 35 39 33 37 36 40 37 41 38 42 34 38 39 43 35 39 40 44 39 45 41 46 36 40 42 47 37 48 43 49 44 50 45 51 46 52 44 50 43 49 28 53 15 16 47 54 34 38 48 55 39 43 28 53 47 54 40 56 49 57 28 53 40 56 50 58 36 40 38 42 1 1 0 0 10 10 7 7 2 2 8 8 49 57 40 56 41 46 1 59 18 60 2 61 30 34 46 62 31 35 23 63 25 64 12 65 3 3 23 63 12 65 51 66 52 67 53 68 54 69 51 66 53 68 55 70 51 66 54 69 30 71 55 70 54 69 56 72 57 73 58 74 8 75 2 61 20 76 56 72 37 48 57 73 22 77 8 75 20 76 37 48 42 47 57 73 59 78 60 79 61 80 62 81 31 82 60 79 45 51 44 50 63 83 64 84 48 55 65 85 54 86 44 87 46 62 30 34 54 86 46 62 62 88 66 89 32 36 36 40 67 90 59 78 38 91 68 92 69 93 38 91 70 94 68 92 67 95 71 96 72 97 66 98 72 97 32 99 66 98 67 95 72 97 32 99 72 97 73 100 68 101 49 102 69 103 18 60 1 59 16 104 53 68 41 46 64 105 13 106 11 107 47 108 13 106 47 108 14 109 11 107 0 110 47 108 47 108 0 110 7 111 35 112 47 108 6 113 47 108 7 111 6 113 33 37 58 114 57 115 15 16 14 15 47 54 70 116 37 41 56 117 20 76 2 61 18 60 16 104 1 59 10 118 29 33 70 116 26 28 70 116 56 117 21 119 70 116 21 119 19 120 26 28 70 116 24 121 70 116 19 120 17 122 24 121 70 116 17 122 58 114 33 37 9 9 27 123 29 33 5 32 19 20 18 19 17 18 4 4 15 30 27 29 56 72 22 23 21 22 22 77 9 9 8 75 10 118 12 65 25 64 25 26 24 25 17 18 12 65 4 4 3 3 57 115 34 124 33 37 17 18 16 17 25 26 52 67 41 46 53 68 33 37 35 39 6 6 9 9 22 77 58 114 56 72 58 74 22 23 70 94 27 123 68 92 55 70 32 99 73 100 65 85 63 83 64 84 63 125 54 86 53 68 48 55 64 84 39 43 10 118 25 64 16 104 4 4 27 29 5 5 62 88 59 78 66 89 13 14 12 13 11 11 35 112 40 44 47 108 69 103 49 102 52 126 71 127 69 103 72 128 69 103 52 126 51 129 51 129 55 130 69 103 69 103 55 130 73 131 72 128 69 103 73 131 36 40 61 80 42 47 28 31 68 101 27 29 49 57 41 46 52 67 34 124 57 115 42 132 48 133 34 124 65 134 34 124 42 132 61 135 65 134 34 124 45 136 45 136 34 124 43 137 61 135 60 138 34 124 60 138 43 137 34 124 44 87 54 86 63 125 37 41 70 116 38 42 43 49 60 79 31 82 69 93 50 139 38 91 49 102 68 101 28 31 29 33 27 123 70 94 59 78 62 81 60 79 32 36 31 35 62 88 59 78 61 80 36 40 64 105 41 46 39 45 50 139 69 93 67 95 67 90 36 40 50 58 65 85 45 51 63 83 64 105 63 125 53 68 39 45 40 44 35 112 67 90 66 89 59 78 67 95 69 93 71 96 46 52 43 49 31 82 32 99 55 70 30 71</p>
        </triangles>
      </mesh>
    </geometry>
  </library_geometries>
  <library_visual_scenes>
    <visual_scene id="scene">
      <node id="right_wrist_pitch_link">
        <instance_geometry url="#geometry">
          <bind_material>
            <technique_common>
              <instance_material symbol="scout_b2b2b2" target="#scout_b2b2b2" />
            </technique_common>
          </bind_material>
        </instance_geometry>
      </node>
    </visual_scene>
  </library_visual_scenes>
  <scene>
    <instance_visual_scene url="#scene" />
  </scene>
</COLLADA>