<?xml version='1.0' encoding='utf-8'?>
<COLLADA xmlns="http://www.collada.org/2005/11/COLLADASchema" version="1.4.1">
  <asset>
    <created>2026-09-14T00:00:00Z</created>
    <modified>2026-09-14T00:00:00Z</modified>
    <unit name="metre" meter="1" />
    <up_axis>Z_UP</up_axis>
  </asset>
  <library_effects>
    <effect id="scout_333333_effect">
      <profile_COMMON>
        <technique sid="common">
          <lambert>
            <emission>
              <color>0 0 0 1</color>
            </emission>
            <ambient>
              <color>0.1 0.1 0.1 1</color>
            </ambient>
            <diffuse>
              <color>0.2 0.2 0.2 1</color>
            </diffuse>
          </lambert>
        </technique>
      </profile_COMMON>
    </effect>
  </library_effects>
  <library_materials>
    <material id="scout_333333" name="scout_333333">
      <instance_effect url="#scout_333333_effect" />
    </material>
  </library_materials>
  <library_geometries>
    <geometry id="geometry" name="right_ankle_roll_link">
      <mesh>
        <source id="positions">
          <float_array id="positions_array" count="576">-0.0563969426 -0.0156480595 -0.00431222608 -0.063641645 -0.00899772812 -0.0226952843 -0.0616517179 -0.0160333402 -0.0349175967 -0.0510268919 -0.0241700243 -0.0143750142 -0.0662949905 0.00198877021 -0.0313094892 -0.063766025 0.0108263958 -0.0350899957 -0.0606438629 -0.00135289889 -0.00502382405 -0.040276397 -0.0301005524 -0.0348945074 -0.0549545363 -0.0231089573 -0.0348039232 -0.0395677984 -0.0291920733 -0.0160226729 0.00585080683 0.0248378441 -0.00533002382 -0.0329260752 0.0243926235 -0.00481414329 0.0121328542 0.0245901477 -0.013016928 -0.0504191257 -0.0159305092 -0.00622106204 -0.0551515222 -0.009952778 -0.00439218897 -0.0463722572 -0.0158082191 0.00552162481 -0.0442359783 -0.0213599652 -0.0047831405 -0.0524534546 -0.0108012566 -0.0144467922 -0.044247061 -0.0192513093 -0.0145487087 -0.0385725014 -0.0264409743 -0.00191195356 -0.0561152585 -0.000430605112 -0.0124344733 0.0805510581 -0.0105343927 -0.000403689948 0.104474552 -0.0222577136 -0.0127325011 0.106786914 -0.01204459 -0.0103594158 -0.0366651714 -0.0230395962 -0.0128409239 -0.0195092 -0.0222688746 -0.0145056397 -0.0344292633 -0.0203930102 0.00734107522 -0.0342105292 -0.0245262161 -0.00515406765 -0.0569340736 0.00120165804 -0.00434875535 0.00842066947 -0.0278819129 0.00254325964 -0.0110797863 -0.0277159084 -0.0347149298 -0.0174101423 -0.0295299068 -0.0342749842 -0.0198919494 -0.0236626491 0.0046654013 0.0130289318 -0.0257851277 -0.00333068357 0.0163018741 -0.0297210589 -0.033238329 -0.0106166126 0.0290316641 -0.034304332 -0.0188851114 -0.0142438272 -0.000309602765 -0.0262802858 -0.0144648775 -0.00307738408 -0.0189413652 -0.00843829941 -0.0123902317 -0.0269645732 -0.00731229922 -0.0138136744 -0.0259996671 -0.00516033871 -0.00429185759 -0.018920226 -0.00696353894 0.00111575203 -0.0189132504 0.000951776921 -0.00690037664 -0.00227063335 -0.0241231658 -0.00986603927 0.0110403392 -0.0238008741 0.00737407571 -0.0531110577 -0.00820053369 0.00755467173 -0.0440665036 -0.0157673415 0.0142541938 -0.0503611341 -0.00913494546 0.00643105246 -0.0436098389 -0.0100171706 0.0176714193 -0.0512247905 0.00385889527 0.0110125002 -0.0473296419 0.00821745396 0.0110333096 -0.0402945541 -0.0108663039 0.0164394584 -0.0242032632 -0.0247263648 0.00950715784 -0.025152877 -0.0144586293 0.0186939649 -0.0263079312 -0.00947249401 0.0213358514 -0.0410778709 0.00917240418 0.0189725086 -0.0109984539 -0.0223441385 0.00868531782 -0.0228311215 -0.0169644561 0.0135842552 -0.0204522144 -0.0203822907 0.0132726729 -0.0261157025 -0.00117059622 0.00679006474 -0.0189056452 0.00109694933 0.0142623205 -0.026334187 0.00431142887 0.0139286295 -0.0261563454 -0.0103448154 0.00986684859 -0.0186982621 -0.00978116691 0.0104605714 -0.0189156085 0.00461651385 0.00519894948 -0.0259857178 -0.00886838045 0.0191166848 -0.0599139854 0.0167479254 -0.0217529964 -0.0598231442 0.00965147559 -0.00724179158 -0.056676466 0.0216203276 -0.0349443592 -0.0538640507 0.0144414809 0.00242089527 -0.0519689508 0.0121008139 -0.0142321363 -0.0501748919 0.016222775 -0.00715646846 -0.0544945262 0.0123027293 -0.00451914081 -0.0509592034 0.023347754 -0.0123156058 -0.0472477451 0.0277963635 -0.0350244194 -0.0432089865 0.0270002261 -0.0105147809 -0.0460374877 0.0204917621 -0.00483036786 -0.041821897 0.0221515633 0.00478775613 -0.0373599306 0.0286815278 -0.011245898 -0.0298947785 0.021976823 0.00649799267 -0.0379267298 0.0299065877 -0.0347048491 0.137202591 0.0179418325 -0.0210378375 0.142350063 0.00440988783 -0.0209551267 0.13903448 0.0162893198 -0.0350548625 -0.0398435257 0.0218346231 -0.0142226554 -0.026139481 0.00696271984 -0.00116648595 -0.026135115 0.0138158398 0.00299090566 -0.0191471837 0.0139410915 -0.00149161648 -0.0262590665 0.00869821478 -0.0117568802 -0.0165968109 0.00961761922 -0.0148415435 -0.0186478514 0.00801679026 -0.0118781999 0.00510926824 0.0286307912 -0.011615674 0.0852362216 -0.0357806012 -0.0225585587 0.0950301439 -0.0372497737 -0.0344821364 0.106729902 -0.0333249494 -0.0212253872 0.0130797056 0.0227302853 -0.0148001863 0.0144847687 0.0235845242 0.00748314057 -0.0435856245 0.0145612294 0.0155302314 -0.0405414999 0.0125358012 0.015146981 -0.0257372577 0.0104995165 0.018428525 -0.0258748326 0.0113435304 0.0206680782 -0.0273215547 0.0238218065 0.00960462261 -0.0228729919 0.0168070272 0.0135821644 -0.0174920876 -0.0100569716 -0.0148581602 -0.0188105516 0.0115259858 0.0079576429 -0.00155663444 0.0264991857 0.00709035294 -0.0148435067 0.0216039866 0.00932007656 -0.0199760944 0.0214291681 0.0123846401 0.00490452908 0.0246049035 0.00875447504 0.0155193321 -0.0245064516 -0.0144369639 0.0409861729 -0.0282977074 -0.0113621261 0.0324677713 -0.0256395023 -0.0148161529 0.0396494791 -0.0331193097 -0.0152520416 0.0440580435 -0.0360528938 -0.0235675331 0.0392924659 -0.034911789 -0.0332963578 0.0445202142 -0.0372470282 -0.0350761786 0.0243096463 -0.0257208087 0.00897402503 0.043506369 0.0364490338 -0.034823738 0.0646849722 -0.0249205362 -0.0142810252 0.0644856393 -0.0260639377 -0.0113713583 0.0530206673 -0.030413013 -0.0110139064 0.0884069502 -0.0292528383 -0.0145171219 0.067235373 -0.0228672083 -0.000509931648 0.0881295651 -0.0206260867 -0.0148112336 0.0846231878 -0.023263501 -0.01130703 0.0948415846 -0.0195069984 -0.0119121019 0.0723896176 -0.0195483696 -0.00332734408 0.10218253 -0.0116965203 -0.0113871247 0.0720593557 -0.00295929238 0.000912484538 0.0728166625 -0.00990623422 -8.8013694e-05 0.114617579 -0.0337350667 -0.0351639055 0.10240446 -0.00463434821 -0.0146608511 0.108179599 0.00226827431 -0.00994925015 0.127210006 -0.0270894971 -0.0211207569 0.130518973 -0.0264453515 -0.0348722525 0.136191979 -0.0147498632 -0.0183255039 0.13730152 -0.0187915266 -0.0349889435 0.140295237 -0.012683617 -0.0207841303 0.142316893 -0.00528848451 -0.0349804796 0.137929142 0.0110712042 -0.0181843545 0.0250460878 -0.0175523721 0.0078989882 0.0202526487 -0.0177973714 0.0106834825 0.0215092208 -0.0177824292 0.00511144381 0.0378227793 -0.0174291376 0.0189216342 0.0277244672 -0.0214430336 0.0112500628 0.0372823142 -0.0179073308 0.0152982557 0.0524722375 -0.0191609319 0.00986197311 0.037146192 -0.00742722303 0.0213768668 0.0377747118 -0.0103437202 0.0229964145 0.0361387953 0.0129303876 0.0203590188 0.0389811285 0.00826939568 0.0235183667 0.0524629727 -0.0188320503 0.00632690219 0.0555989705 -0.00422864966 0.0127368839 0.118741721 0.0299256966 -0.0207866002 0.0970006138 0.013918953 -0.00767840305 0.123649217 0.0286861658 -0.0208900031 0.0501418971 -0.00340938545 0.013166016 0.0239079427 0.0175037626 0.0102355471 0.0699099153 0.0115339896 0.00413615583 0.0360939912 0.0278278347 -0.00842312723 0.0385939069 0.0262533706 -0.0144295301 0.0279566403 0.0317627341 -0.0332685784 0.0125891557 0.0290925205 -0.0333815701 0.04726151 0.0314728096 -0.0123071885 0.0278861765 0.0313538872 -0.0123332022 0.0242141616 0.0221246984 0.00983157475 0.0455951169 0.0370619446 -0.0279033724 0.0742443949 0.0250013955 -0.0122306515 0.06223258 0.0244228449 -0.0146945994 0.0550412685 0.0203884877 0.00744535308 0.0789325759 0.0247765444 -0.00692877779 0.0836198702 0.012907641 -0.00509629911 0.0575052127 0.0133487228 0.0066288868 0.086124599 0.0205406062 -0.0148815177 0.0625076145 0.019775413 -0.000241100453 0.0893755555 0.0219360795 -0.0117545817 0.102839641 0.0092573408 -0.0112019889 0.101720035 0.023187058 -0.012686857 0.0979738981 0.012805514 -0.0149033638 0.0978948995 0.0172905102 -0.0120064216 0.0942642614 0.0370087624 -0.0351234376 0.0890781581 0.0357384309 -0.0226967055 0.103089042 0.0338034965 -0.0215767492 0.114302725 0.0338279642 -0.0346904397 0.129285306 0.0270556845 -0.0349704437 0.0292593595 0.0233002752 0.0122153098 0.0188378468 0.0167045332 0.00952572469 0.0220344532 0.0178701337 0.00467101019 0.0396010317 0.0203436818 0.0155796828 0.0374035947 0.0174059514 0.0158176664 0.0500146411 0.0117021222 0.0144920191 -0.0279861595 0.00939151272 -0.0147073651</float_array>
          <technique_common>
            <accessor source="#positions_array" count="192" stride="3">
              <param name="X" type="float" />
              <param name="Y" type="float" />
              <param name="Z" type="float" />
            </accessor>
          </technique_common>
        </source>
        <source id="normals">
          <float_array id="normals_array" count="996">-0.775369704 -0.536026418 0.333882391 -0.944751918 -0.294267207 0.144397333 -0.84670186 -0.524999619 0.086436972 -0.564301431 -0.805454016 0.181129068 -0.988197386 0.0813788846 0.129782245 -0.754425108 -0.0635790974 -0.653299689 -0.934306979 -0.0402108319 0.354194254 -0.00536383316 -0.00979178119 -0.999937654 0.00340183079 -0.0118393721 -0.999924123 -0.0251460765 -0.039847929 -0.998889267 -0.207283497 -0.977166891 0.0466731526 -0.604008257 -0.793449342 0.074914746 -0.198445082 -0.973537445 0.113333337 0.0359761231 -0.998856723 -0.0314798281 0.165288895 -0.984671593 -0.0556905754 0.0674401373 -0.890750647 0.449460983 0.726168513 0.687515914 0.00108440907 0.910019934 0.397461236 -0.117848366 0.586885512 0.677939832 -0.44267711 0.491666555 0.866184831 -0.0893748999 0.834700882 0.503861547 0.222256586 0.560877204 0.802370489 0.204005897 -0.283173531 -0.908300877 0.307899833 0.98842144 -0.00610561809 0.151610494 0.37270698 -0.171103314 0.912037909 0.235840514 -0.448713332 0.861995161 0.29197681 -0.167025805 0.941728175 -0.00623439066 0.0384916589 0.999239445 0.0605157204 0.508365691 0.859012306 0.0229503885 0.0299679711 0.999287367 0.222495303 0.959892809 0.170591995 0.231015727 0.842474163 -0.486691922 0.163895279 0.984837353 -0.0568653755 0.975708723 -0.0743350387 -0.20607461 -0.0343063809 -0.974198759 0.223069072 0.0306417551 -0.154780835 -0.987473547 0.0333956368 -0.344115943 -0.938333094 0.0755991489 0.943296909 -0.323227048 0.0531354547 0.998096228 -0.0313145183 0.0133562498 -0.0124400211 -0.999833405 0.0315042287 0.00593899563 -0.99948597 0.186008126 -0.885256112 -0.42628935 0.118864 -0.873698592 -0.471722484 0.0496517159 -0.855902374 -0.514748275 -0.0186516456 -0.832630634 -0.553514481 -0.334788352 0.670650542 0.661924958 0.0396468826 0.982141376 0.183919594 0.001657638 0.930688918 0.365807801 0.00628946768 0.975010812 -0.222068429 -0.808332026 -0.22524327 0.543934524 -0.463347435 -0.610086918 0.642731011 0.795996845 0.265835106 -0.543802083 -0.457165241 -0.242450461 0.855697215 -0.770277977 0.0973139629 0.630239546 0.724733055 -0.256732941 -0.639413953 0.405776352 0.364647657 -0.838079751 -0.0602611974 -0.867030263 0.494597971 -0.125291973 -0.592975855 0.795412779 -0.172457531 -0.260389894 0.949976563 -0.367660731 0.198406354 0.908548594 0.0550104901 0.897844315 -0.436863154 0.104251072 0.727414906 -0.678232431 0.463953406 0.245325401 0.851212502 0.1724049 -0.725968003 0.665768027 0.0907966495 -0.695900321 0.712375402 0.858001888 0.491633117 0.148760453 0.934576154 0.17298682 0.310874522 0.82100898 0.562587917 0.0971549824 0.443843573 0.844598353 -0.299427032 -0.127513662 -0.284237206 0.950236559 -0.157615677 -0.265507638 0.951137722 -0.0901290178 -0.306867212 0.947475195 -0.0500659533 -0.33035481 0.942528069 -0.0052600489 -0.944113135 0.329579562 0.0478586853 -0.95193553 0.302536368 -0.0515897088 -0.93450129 0.352201343 -0.115539975 -0.916936338 0.381940216 -0.429654509 0.300433159 -0.851549745 0.999897897 0.0055949809 -0.0131493369 0.999954939 -0.00943512563 0.00104871613 0.999854147 0.0106861312 -0.0133207692 0.98127234 0.0566335768 0.184112087 0.985428929 0.0595988035 0.159304112 -0.828434944 0.542954087 0.137464106 -0.906129241 0.415925711 0.0770432204 -0.90654552 0.294874489 0.302033544 -0.689722061 0.722044945 0.0541718341 -0.755341589 0.496575981 0.427634656 0.0592507049 -0.000667614164 0.998242915 0.442427218 -0.0177636072 0.896628499 0.0455171168 -0.0182714667 0.998796463 0.840326428 -0.524931073 0.135273218 0.711626649 -0.692155957 0.120447598 0.593366146 -0.118175857 0.796210468 -0.57299298 0.787469804 0.227091029 -0.396726191 0.915124118 0.071806699 -0.362853944 0.904541194 0.223924696 0.520138264 -0.77888155 -0.350427955 0.778183639 -0.483280122 -0.401086628 0.695069313 -0.714937747 0.0757807195 0.176803708 -0.597518444 0.782120287 -0.386032224 0.835107207 0.391886473 -0.142896652 0.976251543 0.162829563 0.170341805 -0.883266568 -0.436833829 -0.109512724 0.99292326 0.0459387861 0.0170462318 0.0756888315 -0.996985793 0.00675627124 0.00630503241 -0.999957323 0.694770634 0.540269136 0.474766284 0.890644372 0.0805604681 0.447507113 0.890568137 0.454847872 0.00133343402 0.362226635 -0.927675962 0.0906042084 0.493262619 -0.211819872 0.843696833 -0.220578775 0.922038913 -0.318102628 -0.14089939 0.917820513 -0.371150762 -0.0300999563 0.898458779 -0.438024938 -0.492702037 -0.832860351 0.252167284 0.0547573566 0.896893263 0.438844055 -5.97287617e-05 0.958388448 0.285467356 0.084455736 0.851071954 0.51821214 0.0698695183 0.867954195 -0.491704911 0.0215525255 0.999764025 0.00272564497 -0.0605548061 0.996885836 0.050514929 0.0489961132 -0.926365554 0.373425037 0.0937553272 -0.982804596 0.159075722 0.18512398 -0.846948445 0.49840486 0.0565532371 -0.675827146 0.734887302 0.0256755166 -0.97938329 -0.200372592 -0.470855266 0.53409493 0.702166557 0.389563501 -0.737209678 -0.552052736 0.355314374 -0.0430788696 -0.933753669 0.211350113 -0.0374141671 -0.976694047 0.198157102 -0.0468232371 -0.979051232 -0.114071101 0.402947098 0.908086658 -0.117095366 0.843115568 0.524828315 0.103789486 -0.71816504 -0.688089192 0.0841960311 -0.630867183 -0.771309078 -0.99988997 -0.00212191558 -0.0146812676 -0.999917746 0.0018255529 0.0126951365 -0.997349203 0.0421530567 -0.0593103729 0.850228131 -0.0391324013 0.524957895 0.832805812 -0.033120811 0.552573502 0.95828563 -0.022704117 0.28490907 0.374171287 -0.647939861 -0.663452923 -0.01823668 0.798983276 0.601076663 0.0477275252 0.606853127 0.793379664 0.181775913 0.5075109 0.842253029 0.137175784 0.960858107 0.24069576 -0.0166653283 0.898435354 0.438789487 0.978210986 -0.181168333 0.101396583 0.98089081 -0.154361829 0.118429735 -0.0177644528 0.884722352 0.465779781 0.0560337454 -0.906439245 -0.418602496 0.512581527 -0.100320682 0.852757812 -0.0281785633 0.71961838 0.693797767 -0.087532118 0.477772176 0.87411207 0.851675391 -0.522385657 -0.0419789851 0.838320494 -0.541589797 -0.0624438003 0.15279457 -0.96766293 0.200704515 0.0830346495 -0.372189164 0.924435198 0.0947770476 0.983080447 0.156748831 -0.0548889078 0.986044645 0.157172471 0.0546170846 0.851870239 0.520897388 0.0440341309 -0.934727967 0.35262531 -0.0930198207 -0.981464565 0.16755493 -0.288536817 -0.957026899 0.0290864501 -0.167738527 -0.9812361 0.0950765833 0.0674416497 -0.926626444 0.369885117 -0.0455288514 0.00543108722 -0.998948276 -0.19123286 -0.00971513521 -0.981496632 -0.139507949 -0.00449774927 -0.990210712 -0.123879343 0.919558167 0.37291649 -0.120128788 0.923230529 0.364985615 0.0813677981 -0.886532366 0.455455393 0.138618112 -0.745618343 0.651796222 0.258293837 -0.692286432 0.673812926 -0.254327595 0.880579472 0.399871528 -0.161563158 0.859379828 0.485142916 -0.302909046 0.882083714 0.360796869 -0.361787349 0.417368382 -0.833614707 -0.325001687 0.418716043 -0.847968638 -0.255808204 0.684979796 -0.68217653 -0.345113188 0.133795649 -0.928975582 -0.429028183 -0.00140468404 -0.903290033 -0.390909791 0.208684936 -0.896459758 0.283422232 -0.949161828 0.13698037 -0.0956798494 0.0909223706 0.991250992 -0.440695554 0.382070571 0.812286556 -0.140255898 0.115951583 0.983302355 -0.420114577 0.338259488 0.842071414 0.279979736 0.012012857 0.959930778 0.453503489 -0.727113605 0.515403152 0.609808028 -0.78559953 0.104725726 0.470552206 -0.318490177 0.822888017 0.828904748 -0.555688322 0.0642447174 0.832472503 -0.326063305 0.447964549 0.992935002 -0.116565391 -0.0221951269 0.526842713 0.211644411 0.823190987 0.0224442538 0.727006674 0.686263442 0.0569282696 -0.99832654 0.0101613244 -0.623869419 0.0846403614 0.776931763 -0.24797456 0.93975389 -0.235310927 -0.124728411 0.935013175 -0.331953555 -0.316869736 0.945298254 -0.0774903074 0.317431509 -0.670386016 0.670686126 0.444004327 -0.400754809 0.801408589 -0.960184991 -0.0533363707 0.274226308 -0.981381297 -0.105745524 0.160339087 -0.98088491 -0.106353633 0.162952945 -0.966647506 -0.0896890759 0.239892557 -0.751420319 0.0219125785 0.659459829 -0.722649992 0.0274713263 0.690668046 -0.524208069 0.161514774 -0.836133301 -0.318150192 0.66774255 -0.672978759 -0.434582204 0.447641075 -0.781508625 0.495635778 -0.0857444033 0.864287615 0.464200079 0.246058047 0.850866437 0.505413711 -0.232880965 0.830857038 0.14979662 0.522053182 0.839655519 0.32257089 0.195780858 0.926076591 0.229444459 0.398609877 0.887955725 -0.521430671 0.0727232769 -0.85018903 0.503445029 -0.0411785878 0.863045454 0.423813134 0.225641534 0.877193451 -0.0329629257 -0.998010457 -0.0537451208 -0.000809963851 -0.96114099 0.276056767 -0.220696107 0.975337386 0.00320188887 -0.103690274 0.994503379 -0.0145367803 0.050096672 0.921763539 0.384502649 -0.0844946802 0.985136807 0.149552971 -0.101742558 -0.928783953 -0.356383055 -0.100257993 0.988791227 0.110635653 -0.1741772 0.984106719 -0.0345878229 -0.129429668 -0.991353393 0.0215962268 -0.111291401 -0.744951308 0.657770336 -0.0658621341 -0.851063251 0.520915985 0.168122813 0.886444688 0.431219846 0.186492682 0.678441346 0.710589826 -0.355186343 -0.244871646 -0.902153254 -0.461315632 -0.307599276 -0.832208276 -0.25171572 -0.74567616 0.616932929 -0.255598366 -0.726999283 -0.637292385 -0.273595572 -0.520317376 -0.808959424 -0.143304124 -0.848165751 -0.509979188 -0.317379773 -0.0924699083 -0.94377929 -0.319181204 -0.669785619 0.670455456 0.258134246 0.469694853 0.844247282 -0.604557753 -0.395706117 0.691322386 -0.318605602 -0.350706875 -0.880622029 -0.408777267 -0.500242949 0.763320506 0.0911320522 0.988464594 0.120965451 0.0595543049 0.932009816 0.357506663 0.16201365 0.869580567 0.466456056 -0.685603499 -0.214501232 0.695655882 -0.668834209 -0.159820229 0.726029098 0.264087468 0.9543401 0.139616534 0.441355705 0.887034595 0.135553762 0.0429750755 0.135998264 -0.989776552 0.00433299597 0.00833757408 -0.999955833 0.00111974415 0.00734989485 -0.999972343 0.582775235 0.808428049 0.0825659484 0.243064672 0.967798889 -0.0654585287 -0.104191363 0.431722105 0.895968854 -0.0792318955 -0.978856862 0.188577667 -0.39390707 -0.039196264 0.918314159 -0.273360163 -0.496905744 0.823625445 -0.302242339 -0.428973198 0.851252973 -0.171194538 0.977653623 0.122007258 0.0767194405 0.927653551 0.3654764 0.162333176 0.900292635 0.403882563 -0.263352603 0.211379021 0.941256762 -0.233824521 0.250996113 0.93932265 0.384446174 0.467898369 0.795784056 -0.0256794747 0.550116599 0.834692955 -0.731269538 0.576524496 0.364505738 -0.434638858 -0.564926505 -0.701389372 -0.508529842 -0.281889886 -0.813594162 0.494630605 0.283583283 0.821535826 -0.155482039 -0.910539806 -0.383069903 0.422744185 0.406997412 0.809716284 -0.109815992 0.891755641 -0.438990146 0.0097862538 -0.999060869 0.0422095023 0.011605192 0.00188452832 -0.999930859 0.000433790236 -0.000826211297 -0.999999583 -0.162761033 -0.35904637 0.919018269 -0.0164779276 0.971162736 0.237847432 -0.999985456 0.00325146993 -0.00430957461 -0.970752358 0.00518198311 0.24002713 -0.993133426 0.012865968 0.116277561 -0.99812758 0.00564905116 0.0609052144 -0.999311268 0.0251369458 0.0272970144 0.0234803502 -0.000952600618 -0.999723852 -0.0634143129 0.0115297595 -0.997920692 -0.202063039 -0.869144499 0.451396048 0.0704856664 0.581371605 -0.8105793 0.619643629 -0.0188217498 -0.784657538 0.932127297 0.0465230234 -0.359129936 0.662166238 -0.0119808782 -0.749261141 -0.865388989 -0.0261527617 0.500417709 -0.99950856 0.0313461795 -0.000138202711 0.999962032 0.00843922701 0.00217792625 0.999988616 0.00468643755 0.000917870551 0.957828343 -0.0182359219 0.286761761 0.999731243 -0.0189111363 0.0134072062 0.000524138683 -0.00517244777 0.99998647 0.00667938264 -0.0182702783 0.999810755 0.0358198658 0.0128604267 0.999275506 0.00893881731 0.0105022555 0.999904871 0.0019506939 -0.118592285 0.992941141 0.0036939003 -0.00885466207 0.999953985 0.00467851711 0.0070218849 0.999964416 0.00456617912 0.00235131197 0.999986827 -0.0046142051 0.0153832836 0.999871016 -0.00216285535 0.0033926263 0.999991894 0.017306678 -0.00882237498 0.999811292 -0.14282389 0.027342964 0.989370346 -0.999759972 -0.0162144583 0.0147336219 0.0601192713 0.0110983718 0.998129487 0.947480559 0.0517959595 -0.315591067 -0.966503859 0.00502724526 -0.256602734 -0.828185916 -0.0526845939 -0.557971716 -0.851403892 -0.0455501154 -0.522529066 -0.975442767 0.011653279 -0.219944641 0.02312354 -0.0180080459 -0.999570429 0.00518821226 -0.0132270809 -0.99989903 0.00302904658 -0.000274595019 -0.999995351 -0.0308188945 0.0120737618 -0.999452055 -0.0149808181 -0.00572567014 -0.999871373 0.0176808052 0.00301548862 0.999839127 0.0153082181 -0.0243503712 0.999586284 0.0113694584 -0.251110464 -0.967891634 0.999924362 0.00682649901 -0.0102326404 0.994858205 0.100814119 -0.00967515912</float_array>
          <technique_common>
            <accessor source="#normals_array" count="332" stride="3">
              <param name="X" type="float" />
              <param name="Y" type="float" />
              <param name="Z" type="float" />
            </accessor>
          </technique_common>
        </source>
        <vertices id="vertices">
          <input semantic="POSITION" source="#positions" />
        </vertices>
        <triangles material="scout_333333" count="380">
          <input semantic="VERTEX" source="#vertices" offset="0" />
          <input semantic="NORMAL" source="#normals" offset="1" />
          <p>0 0 1 1 2 2 0 0 2 2 3 3 1 1 4 4 2 2 4 5 5 5 2 5 6 6 4 4 1 1 6 6 1 1 0 0 2 7 7 8 8 9 7 10 3 3 8 11 9 12 3 3 7 10 10 13 11 14 12 15 13 16 14 17 15 18 15 18 16 19 13 16 17 20 13 16 18 21 19 22 0 0 3 3 13 16 16 19 18 21 20 23 14 17 17 20 21 24 22 25 23 26 18 27 24 28 25 29 19 22 3 3 9 12 16 19 24 30 18 21 16 19 26 31 27 32 16 19 27 32 24 30 20 23 28 33 14 17 29 34 19 22 9 12 30 35 31 36 7 8 32 37 33 38 27 32 34 39 30 35 35 40 36 41 37 42 38 43 37 42 39 44 38 43 40 45 41 45 42 45 34 39 31 36 30 35 33 38 43 46 27 32 24 30 43 46 25 47 32 37 44 48 33 38 45 49 6 6 0 0 46 50 0 0 19 22 28 33 47 51 14 17 47 51 15 18 14 17 46 50 45 49 0 0 48 52 45 49 46 50 49 53 45 49 48 52 47 51 50 54 51 55 51 55 15 18 47 51 52 56 46 50 19 22 51 55 26 31 15 18 32 37 27 32 26 31 53 57 46 50 52 56 48 52 54 58 55 59 54 58 48 52 46 50 54 58 46 50 53 57 26 31 56 60 32 37 26 31 57 61 56 60 52 56 19 22 29 34 57 62 58 62 56 62 56 63 58 64 52 56 58 64 53 57 52 56 57 65 53 66 58 67 59 68 41 68 40 68 60 69 61 70 62 71 60 69 62 71 63 72 63 73 62 74 37 75 63 73 37 75 36 76 59 77 64 77 41 77 41 78 64 79 63 80 65 81 54 82 53 66 65 81 53 66 57 65 56 60 44 48 32 37 66 83 5 84 4 4 67 85 66 83 4 4 67 85 4 4 6 6 68 86 5 84 66 83 69 87 66 83 67 85 70 88 20 89 17 90 70 91 28 33 20 23 70 91 71 92 28 33 71 93 72 93 28 93 73 94 74 95 68 86 73 94 75 96 74 95 73 94 66 83 69 87 76 97 72 98 71 99 69 87 75 96 73 94 76 100 71 100 11 100 77 101 78 102 75 96 79 103 76 97 11 14 74 95 78 102 80 104 80 105 35 40 74 106 81 107 82 108 83 109 71 92 84 110 11 14 85 111 40 111 42 111 86 112 87 113 88 114 64 115 85 115 42 115 89 116 88 117 90 118 88 114 87 113 90 119 35 120 80 104 91 121 92 122 93 123 94 124 84 110 95 125 12 15 17 20 14 17 13 16 96 126 11 14 10 13 57 61 26 31 51 55 69 87 67 85 6 6 69 87 6 6 49 53 28 33 50 54 47 51 72 98 50 54 28 33 97 127 69 87 49 53 97 127 49 53 55 59 76 97 98 128 72 98 98 128 50 54 72 98 97 127 77 101 69 87 77 101 75 96 69 87 79 103 98 128 76 97 50 54 98 129 51 55 98 129 99 130 65 131 98 129 65 131 51 55 100 132 55 59 54 58 97 127 101 133 77 101 77 101 101 133 78 102 101 133 97 127 100 132 98 128 79 103 102 134 100 132 97 127 55 59 99 135 98 128 102 134 61 136 85 137 59 138 103 139 89 140 38 141 85 142 64 142 59 142 104 143 61 144 60 145 104 143 87 146 86 147 65 81 100 148 54 82 99 149 100 148 65 81 101 133 105 150 78 102 106 151 102 134 79 103 106 152 107 152 102 152 101 133 107 153 108 154 101 133 108 154 105 150 107 153 101 133 100 132 99 149 102 155 100 148 102 155 107 156 100 148 79 103 11 14 96 126 108 157 107 157 106 157 106 151 79 103 96 126 108 158 106 158 96 158 43 46 109 159 25 47 3 3 2 2 8 11 110 160 111 161 109 159 112 162 29 34 113 163 113 163 114 164 115 165 116 166 29 34 112 162 34 39 117 167 114 168 114 168 117 167 115 169 110 160 118 170 111 161 113 163 115 165 93 123 110 160 119 171 118 170 92 122 120 172 112 162 121 173 120 172 92 122 122 174 120 172 121 173 119 171 123 175 118 170 119 171 124 176 123 175 94 124 121 173 92 122 21 24 122 174 22 25 122 174 121 173 22 25 124 176 125 177 123 175 126 178 125 179 124 180 126 178 127 181 125 179 128 182 127 181 129 183 129 183 127 181 126 178 94 124 93 123 130 184 22 25 121 173 94 124 123 185 127 186 131 187 127 186 123 185 125 188 132 189 21 24 23 26 133 190 94 124 130 184 134 191 133 190 130 184 135 192 23 26 22 25 135 192 22 25 133 190 136 193 137 194 134 191 137 194 133 190 134 191 137 194 135 192 133 190 132 189 23 26 135 192 138 195 137 194 136 193 138 195 82 108 137 194 82 108 139 196 135 192 82 108 135 192 137 194 116 197 44 197 52 197 116 166 52 56 29 34 44 48 110 160 33 38 140 198 141 198 142 198 143 199 144 199 116 199 145 200 144 201 143 202 143 203 116 166 122 174 143 203 122 174 146 204 147 205 145 206 143 207 148 208 147 205 143 207 149 209 147 205 148 208 150 210 149 209 148 208 147 211 151 212 145 213 152 214 150 215 148 216 153 217 154 218 155 219 116 166 112 162 120 172 144 201 151 212 110 160 156 220 129 183 151 212 148 216 143 203 146 204 147 211 156 220 151 212 152 214 148 216 146 204 129 183 126 178 151 212 140 221 157 221 141 221 156 220 128 182 129 183 21 24 158 222 152 214 146 204 122 174 21 24 21 24 152 214 146 204 96 126 10 13 159 223 12 15 95 125 160 224 91 121 161 225 162 226 163 227 164 228 105 150 165 229 96 126 159 223 166 230 161 225 164 228 166 230 117 231 161 225 163 227 166 230 164 228 34 232 114 164 113 163 167 233 159 223 160 224 167 233 160 224 168 234 169 235 170 236 163 227 171 237 128 182 172 238 154 218 158 222 21 24 167 233 168 234 173 239 174 240 171 237 172 238 175 241 174 240 167 242 171 237 176 243 127 181 164 228 91 121 105 150 175 244 167 233 173 239 171 237 174 240 175 241 177 245 170 236 158 222 177 245 158 222 154 218 175 244 173 239 178 246 175 241 179 247 171 237 179 248 175 244 178 246 180 249 181 250 182 251 170 236 182 251 181 250 84 110 71 92 70 91 179 248 178 246 176 252 176 252 178 246 131 253 182 251 183 254 180 249 182 251 155 255 183 254 182 251 170 236 177 245 139 196 154 218 132 189 183 256 184 257 180 258 122 174 116 166 120 172 155 255 184 259 183 254 182 251 153 260 155 255 155 219 154 218 139 196 184 259 155 255 81 107 81 107 155 219 139 196 184 259 81 107 83 109 81 107 139 196 82 108 108 154 185 261 105 150 185 262 108 262 96 262 185 263 96 264 165 265 186 266 157 266 187 266 105 150 185 267 163 227 104 143 86 147 61 144 185 267 188 268 163 227 189 269 185 263 165 265 188 270 185 263 189 269 188 271 149 272 150 215 188 273 189 273 149 273 189 274 172 238 149 275 149 275 172 238 156 220 190 276 150 215 152 214 189 277 165 229 159 223 189 274 174 240 172 238 174 240 189 277 159 223 174 240 159 223 167 242 188 271 150 215 190 276 169 278 188 271 190 276 188 268 169 235 163 227 26 31 16 19 15 18 172 238 128 182 156 220 158 222 190 276 152 214 169 278 190 276 158 222 170 236 169 278 158 222 124 180 151 212 126 178 151 212 124 180 119 279 11 14 84 110 12 15 29 34 9 12 31 280 78 102 74 95 75 96 2 7 5 281 7 8 7 8 5 281 68 282 30 35 74 106 35 40 30 35 7 8 74 106 7 8 68 282 74 106 116 283 144 283 44 283 35 120 91 121 162 226 144 201 145 200 151 212 88 117 89 116 191 284 85 137 61 136 86 285 86 285 88 286 85 137 88 286 39 287 85 137 85 137 39 287 40 288 39 287 37 289 40 288 162 290 161 291 34 39 161 291 117 167 34 39 162 290 34 39 35 40 38 292 39 292 103 292 65 293 57 61 51 55 142 294 187 295 140 296 159 223 10 13 12 15 49 53 48 52 55 59 151 212 119 279 110 160 68 86 66 83 73 94 39 287 88 286 191 297 45 49 49 53 6 6 131 298 127 298 176 298 59 138 40 288 37 289 37 289 61 136 59 138 60 299 63 80 64 79 104 300 60 299 64 79 90 301 104 300 64 79 64 79 42 302 90 301 34 232 29 34 31 280 83 109 82 108 138 195 38 141 89 140 90 301 95 303 89 304 103 305 95 303 103 305 109 306 160 307 95 303 168 308 168 308 95 303 111 309 168 308 111 309 173 310 173 310 111 309 118 311 123 185 173 310 118 311 173 310 123 185 178 312 131 187 178 312 123 185 103 305 39 313 25 29 39 313 70 88 17 90 39 313 17 90 18 27 109 306 111 309 95 303 18 27 25 29 39 313 109 306 103 305 25 29 34 232 113 163 29 34 144 201 110 160 44 48 12 15 160 224 159 223 110 160 109 159 33 38 113 163 92 122 112 162 141 314 157 314 186 314 109 159 43 46 33 38 22 25 94 124 133 190 61 136 37 289 62 315 132 189 135 192 139 196 44 316 56 316 52 316 140 296 187 295 157 317 141 318 186 319 187 320 142 321 141 318 187 320 153 217 177 245 154 218 91 121 78 102 105 150 127 181 128 182 171 237 176 243 171 237 179 247 113 163 93 123 92 122 182 251 177 245 153 217 166 230 180 249 117 231 9 12 7 10 31 280 164 228 161 225 91 121 134 322 130 323 138 324 136 325 134 322 138 324 184 257 130 323 180 258 130 323 184 257 138 324 83 326 138 324 184 257 130 323 115 169 180 258 117 167 180 258 115 169 181 250 180 249 166 230 181 250 166 230 163 227 181 250 163 227 170 236 70 88 39 313 191 327 84 328 70 88 191 327 95 303 84 328 191 327 95 303 191 327 89 304 21 24 132 189 154 218 27 32 43 46 24 30 130 323 93 329 115 169 63 80 36 330 41 78 38 141 90 301 42 302 36 330 38 141 41 78 42 302 41 78 38 141 147 211 149 275 156 220 87 331 104 300 90 301 80 104 78 102 91 121</p>
        </triangles>
      </mesh>
    </geometry>
  </library_geometries>
  <library_visual_scenes>
    <visual_scene id="scene">
      <node id="right_ankle_roll_link">
        <instance_geometry url="#geometry">
          <bind_material>
            <technique_common>
              <instance_material symbol="scout_333333" target="#scout_333333" />
            </technique_common>
          </bind_material>
        </instance_geometry>
      </node>
    </visual_scene>
  </library_visual_scenes>
  <scene>
    <instance_visual_scene url="#scene" />
  </scene>
</COLLADA>