<?xml version='1.0' encoding='utf-8'?>
<COLLADA xmlns="http://www.collada.org/2005/11/COLLADASchema" version="1.4.1">
  <asset>
    <created>2026-09-14T00:00:00Z</created>
    <modified>2026-09-14T00:00:00Z</modified>
    <unit name="metre" meter="1" />
    <up_axis>Z_UP</up_axis>
  </asset>
  <library_effects>
    <effect id="scout_b2b2b2_effect">
      <profile_COMMON>
        <technique sid="common">
          <lambert>
            <emission>
              <color>0 0 0 1</color>
            </emission>
            <ambient>
              <color>0.35 0.35 0.35 1</color>
            </ambient>
            <diffuse>
              <color>0.7 0.7 0.7 1</color>
            </diffuse>
          </lambert>
        </technique>
      </profile_COMMON>
    </effect>
  </library_effects>
  <library_materials>
    <material id="scout_b2b2b2" name="scout_b2b2b2">
      <instance_effect url="#scout_b2b2b2_effect" />
    </material>
  </library_materials>
  <library_geometries>
    <geometry id="geometry" name="waist_yaw_link_rev_1_0">
      <mesh>
        <source id="positions">
          <float_array id="positions_array" count="288">-0.0244539361 0.00542282825 -0.000201565519 -0.0419619493 -0.00674104085 0.0033004859 -0.0424998812 7.74306172e-05 0.00330062117 -0.0419370867 0.00689389603 0.00330074038 -0.0224457402 -0.010642427 -0.000201408853 -0.0419617742 -0.0067412653 0.0153004862 -0.0403372198 -0.0133849252 0.00330033782 -0.0403370447 -0.0133851487 0.0153003382 -0.019918127 -0.00303570856 0.05359767 -0.0424997061 7.72062485e-05 0.0153006213 -0.0199220758 -9.60807211e-06 0.0540082082 -0.0199182294 0.0030548207 0.05358788 -0.0419369116 0.00689367158 0.0153007405 -0.0402879715 0.0135315862 0.0153008411 -0.0402881466 0.0135318106 0.0033008405 0.0294880979 -0.0308013055 0.00329598784 0.0178781487 -0.0386982709 0.00330689154 0.0130682513 -0.0211506765 -0.000202358366 0.03298508 -0.0413509756 0.0219233166 -0.0038608273 -0.04238474 0.0152290706 -0.00128468615 -0.0425955169 0.00327679864 -0.0293848012 0.0307046715 0.00330100255 -0.0339294858 0.025593169 0.0153009733 -0.0293846261 0.030704448 0.0153010031 -0.0240787137 0.035020493 0.0153010059 -0.0240788888 0.0350207165 0.00330100581 0.0231872331 -0.00897080544 -0.000202713185 -0.0144090541 -0.0199618433 -0.000200484661 -0.0360291675 -0.0226944461 0.00329306722 -0.034022592 -0.0254698396 0.0153000206 -0.0376676098 -0.019682372 0.0153001817 -0.0199036337 -0.00641344581 0.0517619364 0.0382774509 -0.0311544202 0.0338730328 0.0392899103 -0.035013739 0.0309298672 0.0393861346 -0.030959364 0.0326102823 -0.0181493443 0.0384297371 0.00330098323 -0.0181491692 0.0384295136 0.0153009836 -0.011898607 -0.0408004522 0.00329941069 -0.0182891916 -0.0383636467 0.0152995493 -0.0182893667 -0.0383634232 0.00329954945 0.0393036194 0.0347190015 0.0310396571 0.0382129885 0.0313123167 0.0338190198 0.0393721871 0.0307921879 0.0325750932 -0.0199000891 0.00636516791 0.0517987609 -0.037595585 0.0198190324 0.0153009193 -0.0375957564 0.0198192559 0.00330091873 0.0423559286 -0.00349712651 0.00329931709 0.0404804014 -0.0133744255 0.00329440157 0.0232129563 0.00988120679 -0.00020854162 0.03587915 -0.0227803178 0.00329905096 0.0378337502 -0.0383221358 0.018990742 0.00842519943 -0.0416565947 0.00329909846 -0.00235087029 -0.0247391388 -0.000203987889 -0.024206439 -0.0349327959 0.00329969986 -0.0294965748 -0.0305974334 0.00329985796 -0.0339296609 0.0255933926 0.00330097321 0.0120782843 -0.00390102016 0.0532607399 -0.0173201151 0.0174871981 -0.000200264461 -0.00620247098 0.0240696184 -0.000202002746 -0.0117497416 0.0408434495 0.00330093503 -0.0011408556 0.0425966717 0.00327958842 0.00959024951 0.0229390468 -0.00020132224 0.0120483469 0.0408754684 0.00330584333 0.0241906568 0.0351143666 0.00329718227 0.0318630897 0.0281246006 0.00330006122 0.0378187709 0.0196188521 0.00328914449 0.0421549454 0.00616245205 0.00328420266 0.0151422853 -0.0358590968 0.0316164233 0.038261313 -0.0354923755 0.0319440216 0.0120330481 -6.38954407e-06 0.0540107973 0.01201028 0.00389904715 0.0532532632 0.0425511524 2.26114626e-05 0.0144130709 0.0391212814 -0.0355506651 0.0190029778 0.0359704122 -0.0400977656 0.0265329592 0.0354730375 -0.0404244177 0.0209209546 0.037972834 -0.0380399041 0.0283069685 -0.0118984319 -0.0408006757 0.0152994106 -0.0117495665 0.0408432223 0.0153009351 -0.0294964015 -0.0305976588 0.0152998585 -0.0242062639 -0.0349330232 0.0152997002 0.0323576629 0.0414909683 0.0251016282 0.0347836949 0.0408639461 0.0214079544 0.0377127603 0.0384119898 0.0189874675 0.0391056277 0.0355595499 0.0190062672 0.015512703 0.0357577577 0.0317000933 0.0381803922 0.0353695787 0.0320476182 0.0356696509 -0.0398713276 0.0276265014 0.0329022445 -0.0412671529 0.026190063 0.0211651139 -0.0413132831 0.0261466093 0.017881535 -0.0401008576 0.0274053961 0.0201178547 0.0411713868 0.0263289101 -0.00375289749 0.0423937328 0.0152483461 0.035673812 0.0403764322 0.026271591 0.0382719673 0.0375994146 0.0286095086 0.0331527814 0.0411048643 0.0263940804 0.036657948 0.0389282033 0.0285702553</float_array>
          <technique_common>
            <accessor source="#positions_array" count="96" stride="3">
              <param name="X" type="float" />
              <param name="Y" type="float" />
              <param name="Z" type="float" />
            </accessor>
          </technique_common>
        </source>
        <source id="normals">
          <float_array id="normals_array" count="390">-0.107010588 0.0230891556 -0.993989766 -0.184474096 -0.0284888148 -0.982424378 -0.189882502 -0.00221730117 -0.981804311 -0.19380717 0.0311404876 -0.980545282 -0.0982988775 -0.0448422432 -0.994146109 -0.953954816 -0.153335199 0.257795483 -0.999998331 0.00182423717 1.46227549e-05 -0.987341046 -0.15861176 1.14565291e-05 -0.182629973 -0.0614752397 -0.981257915 -0.916292131 -0.305094182 0.259473115 -0.849387288 -0.145241812 0.507391453 -0.966231227 0.00175320311 0.257670522 -0.863796055 0.00024580225 0.503841579 -0.849268436 0.145659998 0.507470548 -0.953378081 0.156826481 0.257828802 -0.915157259 0.308417439 0.259549409 -0.184469774 0.0634103864 -0.980790496 0.130729854 -0.135853469 -0.982065976 0.081078738 -0.174039826 -0.981395125 0.0572492965 -0.0924533904 -0.994069874 0.203107789 -0.975360572 -0.0861335695 -0.121017776 -0.970316172 0.209383056 -0.0473463424 -0.998744965 -0.0163347442 -0.691408277 0.722464263 2.34701656e-05 -0.766138017 0.582173467 0.27222535 -0.659299135 0.69575417 0.285045147 -0.535464227 0.788929939 0.301442593 -0.566562951 0.824018419 2.34795025e-05 0.101833127 -0.0378190316 -0.994082332 -0.0617985912 -0.0862143189 -0.994358122 -0.160455287 -0.103762999 -0.98157388 -0.846081018 -0.532917559 -0.0120729022 -0.76613462 -0.581710935 0.273221761 -0.855231762 -0.445325315 0.265073508 -0.443343699 -0.508012116 0.738491714 0.55441016 -0.230925113 0.799564242 0.89205426 -0.342980981 0.294284225 0.903586745 -0.101262093 0.416265488 -0.427044302 0.904230714 2.3250017e-05 -0.427044302 0.904230714 2.31237682e-05 -0.267739236 -0.963474154 -0.00576866698 -0.430339277 -0.902667224 -1.05311146e-05 -0.430338591 -0.902667522 -1.04003457e-05 0.897528946 0.316120088 0.307424575 0.553450584 0.233039871 0.799615443 0.901613355 0.0854224563 0.424024045 -0.443036795 0.507452667 0.739060342 -0.852382481 0.451437801 0.263909042 -0.163595423 0.0896783993 -0.982443035 0.184122354 -0.0128818564 -0.982818902 0.183194712 -0.0598460175 -0.981253386 0.101935461 0.043770209 -0.993827641 0.158132493 -0.103667021 -0.981960952 0.709630668 -0.637990177 -0.298986405 0.333589017 -0.840477407 -0.426984966 0.550389409 -0.600260258 -0.580309451 0.0392830484 -0.183338732 -0.982264578 -0.00886693876 -0.107384846 -0.994177997 -0.0052711349 -0.191631645 -0.981452763 -0.0535802916 -0.182301372 -0.981781721 -0.0796478689 -0.170680851 -0.982101977 -0.109207407 -0.157978103 -0.981385052 -0.13444683 -0.133788913 -0.981847525 -0.151429906 0.110624269 -0.98225826 -0.00164647645 -0.309715897 0.950827718 0.196085602 -0.326252252 0.924721539 -0.132632822 0.138900712 -0.981384277 -0.0755198747 0.0751667172 -0.99430716 -0.105439365 0.156141192 -0.98209089 -0.0256810859 0.104900494 -0.994151056 -0.0829966962 0.170464978 -0.981862128 -0.0519982539 0.187640205 -0.980860531 -0.00137844007 0.188615978 -0.982049942 0.0440154001 0.0999521539 -0.994018197 0.0526205376 0.184682563 -0.981388509 0.107735045 0.151293889 -0.982600272 0.134794191 0.125128239 -0.98294121 0.17481102 0.089976646 -0.980482161 0.186006293 0.0249119382 -0.98223269 -0.945606053 -0.325254619 -0.0062194299 -0.107006341 -0.679468751 0.725859344 0.423510373 -0.572259188 0.702252388 0.278800547 0.00169830816 0.960347533 0.191471115 0.329706192 0.924463451 -0.00150303775 0.309356779 0.950944841 0.998075962 -0.000154671754 0.0620026328 0.997671187 -0.0599505529 -0.0325281471 0.93221432 -0.306479275 -0.1924759 0.941238105 -0.231399581 -0.246018365 -0.947957218 0.31839776 1.98516973e-05 -0.986755908 0.162211969 1.74261186e-05 0.742752373 -0.427165896 -0.515604675 0.516499519 -0.846026957 0.132161304 0.450635672 -0.873824477 -0.182642594 0.727888882 -0.646463037 0.228611723 0.136064351 -0.976711154 -0.165896922 -8.11103382e-05 0.00072876527 0.999999702 -0.276819557 -0.907452703 0.316070497 -0.273734987 0.908111215 0.31686455 -0.264272392 0.964430273 -0.00585682737 -0.569564283 -0.8219468 -7.3176634e-06 -0.661947846 -0.693426013 0.284579247 -0.701813996 -0.712333143 -0.00621932466 -0.538450658 -0.787106574 0.300888777 0.122589312 0.987754226 0.0965062827 0.377024114 0.911379993 -0.165043533 -0.0404587016 0.99879235 -0.0278738867 0.189565837 0.951764762 -0.241264582 0.692211747 0.655135691 -0.302721202 0.438601881 0.725427449 -0.530455828 0.620143473 0.52972877 -0.578627229 0.929166436 0.312850863 -0.196911424 0.837244034 0.344159782 -0.42494297 0.992759585 0.101159759 -0.064769581 -0.328412056 -0.717553973 0.614216447 -0.10650222 0.684544683 0.721148968 0.421099246 0.566364408 0.708453774 -0.32545498 0.718047917 0.615212321 0.260430038 -0.814236283 0.518840551 0.128769219 -0.927831709 0.350066811 -0.0195928216 -0.905903339 0.423030972 -0.106724545 -0.79273206 0.600154757 -0.054305207 0.88853997 0.455573976 -0.120874368 0.971015334 0.206200302 0.482367694 0.858045042 0.176295668 0.779541075 0.591803133 0.205145866 0.129014999 0.893345714 0.430451572 -0.884607077 0.466337144 2.15549735e-05 -0.798346102 0.602198839 2.27680084e-05 0.338713139 0.788042486 0.51406461</float_array>
          <technique_common>
            <accessor source="#normals_array" count="130" stride="3">
              <param name="X" type="float" />
              <param name="Y" type="float" />
              <param name="Z" type="float" />
            </accessor>
          </technique_common>
        </source>
        <vertices id="vertices">
          <input semantic="POSITION" source="#positions" />
        </vertices>
        <triangles material="scout_b2b2b2" count="188">
          <input semantic="VERTEX" source="#vertices" offset="0" />
          <input semantic="NORMAL" source="#normals" offset="1" />
          <p>0 0 1 1 2 2 3 3 0 0 2 2 4 4 1 1 0 0 5 5 2 6 1 7 4 4 6 8 1 1 7 9 8 10 5 5 8 10 9 11 5 5 10 12 11 13 9 11 11 13 12 14 9 11 8 10 10 12 9 11 11 13 13 15 12 14 14 16 0 0 3 3 15 17 16 18 17 19 18 20 19 21 20 22 21 23 22 24 23 25 21 23 24 26 25 27 26 28 27 29 0 0 4 4 28 30 6 8 28 31 29 32 30 33 31 34 8 10 7 9 30 33 31 34 7 9 32 35 33 36 34 37 35 38 24 26 36 39 37 40 38 41 39 42 40 43 41 44 42 45 43 46 13 15 11 13 43 46 44 47 13 15 45 48 0 0 14 16 46 49 47 50 26 28 48 51 46 49 26 28 47 50 49 52 26 28 49 52 15 17 26 28 15 17 17 19 26 28 50 53 16 54 15 55 16 18 51 56 17 19 51 56 52 57 17 19 51 56 20 58 52 57 20 58 37 59 52 57 37 59 39 60 52 57 39 60 27 29 52 57 39 60 53 61 27 29 53 61 54 62 27 29 55 63 0 0 45 48 8 64 31 34 56 65 55 63 21 66 57 67 21 66 25 68 57 67 25 68 58 69 57 67 25 68 35 70 58 69 35 70 59 71 58 69 59 71 60 72 58 69 60 72 61 73 58 69 60 72 62 74 61 73 62 74 63 75 61 73 63 75 48 51 61 73 63 75 64 76 48 51 64 76 65 77 48 51 65 77 66 78 48 51 66 78 46 49 48 51 6 79 30 33 7 9 56 65 67 80 68 81 29 32 31 34 30 33 56 65 69 82 8 64 41 44 70 83 69 82 70 83 11 84 69 82 56 65 32 35 69 82 70 83 43 46 11 84 43 46 22 24 44 47 71 85 33 36 46 86 33 36 72 87 46 86 72 87 47 88 46 86 12 14 14 89 3 90 72 87 50 53 47 88 50 53 49 91 47 88 50 53 15 55 49 91 73 92 74 93 50 53 74 93 16 54 50 53 75 94 73 92 50 53 74 93 51 95 16 54 18 20 20 22 51 95 74 93 18 20 51 95 1 7 7 9 5 5 11 84 10 96 69 82 37 40 19 21 76 97 35 38 77 98 59 99 53 100 78 101 54 102 54 102 29 32 28 31 39 42 79 103 53 100 80 104 81 105 60 106 81 105 62 107 60 106 81 105 82 108 62 107 82 108 63 109 62 107 82 108 64 110 63 109 54 62 4 4 27 29 82 108 83 111 65 112 83 111 66 113 65 112 83 111 40 43 66 113 40 43 71 85 66 113 29 32 78 101 31 34 78 101 79 103 31 34 79 103 38 114 31 34 38 114 76 97 31 34 76 97 67 80 31 34 68 81 32 35 56 65 70 83 84 115 43 46 85 116 70 83 41 44 84 115 77 98 43 46 77 98 36 117 43 46 36 117 24 26 43 46 24 26 23 25 43 46 23 25 22 24 43 46 34 37 33 36 71 85 33 36 50 53 72 87 40 43 42 45 71 85 42 45 34 37 71 85 33 36 75 94 50 53 75 94 86 118 73 92 33 36 68 81 75 94 68 81 86 118 75 94 73 92 87 119 74 93 87 119 18 20 74 93 87 119 88 120 19 21 88 120 89 121 19 21 89 121 76 97 19 21 89 121 67 80 76 97 84 115 90 122 77 98 90 122 91 123 77 98 80 104 92 124 81 105 90 122 80 104 91 123 92 124 82 108 81 105 92 124 93 125 82 108 93 125 83 111 82 108 93 125 40 43 83 111 80 104 90 122 94 126 45 127 22 24 55 128 3 90 9 11 12 14 86 118 87 119 73 92 13 15 45 127 14 89 88 120 87 119 67 80 94 126 92 124 80 104 94 126 95 129 92 124 95 129 93 125 92 124 85 116 40 43 93 125 95 129 85 116 93 125 59 99 91 123 60 106 5 5 9 11 2 6 18 20 87 119 19 21 21 23 55 128 22 24 21 23 23 25 24 26 52 57 27 29 17 19 57 67 58 69 0 0 48 51 26 28 61 73 26 28 17 19 27 29 27 29 4 4 0 0 0 0 58 69 61 73 61 73 26 28 0 0 32 35 68 81 33 36 35 38 25 27 24 26 8 64 69 82 10 96 32 35 41 44 69 82 37 40 76 97 38 41 40 43 85 116 41 44 55 63 57 67 0 0 6 79 28 31 30 33 56 65 31 34 67 80 84 115 85 116 90 122 95 129 94 126 85 116 94 126 90 122 85 116 12 14 13 15 14 89 1 7 6 79 7 9 37 40 20 22 19 21 35 38 36 39 77 98 53 100 79 103 78 101 54 102 78 101 29 32 39 42 38 41 79 103 80 104 60 106 91 123 54 62 28 30 4 4 34 37 42 45 32 35 42 45 41 44 32 35 85 116 84 115 70 83 82 108 65 112 64 110 45 127 44 47 22 24 3 90 2 6 9 11 13 15 44 47 45 127 86 118 68 81 87 119 68 81 67 80 87 119 89 121 88 120 67 80 71 85 46 86 66 113 59 99 77 98 91 123</p>
        </triangles>
      </mesh>
    </geometry>
  </library_geometries>
  <library_visual_scenes>
    <visual_scene id="scene">
      <node id="waist_yaw_link_rev_1_0">
        <instance_geometry url="#geometry">
          <bind_material>
            <technique_common>
              <instance_material symbol="scout_b2b2b2" target="#scout_b2b2b2" />
            </technique_common>
          </bind_material>
        </instance_geometry>
      </node>
    </visual_scene>
  </library_visual_scenes>
  <scene>
    <instance_visual_scene url="#scene" />
  </scene>
</COLLADA>