<?xml version='1.0' encoding='utf-8'?>
<COLLADA xmlns="http://www.collada.org/2005/11/COLLADASchema" version="1.4.1">
  <asset>
    <created>2026-09-14T00:00:00Z</created>
    <modified>2026-09-14T00:00:00Z</modified>
    <unit name="metre" meter="1" />
    <up_axis>Z_UP</up_axis>
  </asset>
  <library_effects>
    <effect id="scout_b2b2b2_effect">
      <profile_COMMON>
        <technique sid="common">
          <lambert>
            <emission>
              <color>0 0 0 1</color>
            </emission>
            <ambient>
              <color>0.35 0.35 0.35 1</color>
            </ambient>
            <diffuse>
              <color>0.7 0.7 0.7 1</color>
            </diffuse>
          </lambert>
        </technique>
      </profile_COMMON>
    </effect>
  </library_effects>
  <library_materials>
    <material id="scout_b2b2b2" name="scout_b2b2b2">
      <instance_effect url="#scout_b2b2b2_effect" />
    </material>
  </library_materials>
  <library_geometries>
    <geometry id="geometry" name="waist_roll_link_rev_1_0">
      <mesh>
        <source id="positions">
          <float_array id="positions_array" count="147">-0.00962498318 -0.00650870614 -0.00930471253 -0.0089918701 -0.0100290719 -0.00558818271 -0.00961708277 -0.00961175561 0.0060054455 -0.016472673 -0.00292731519 0.00395082356 -0.0169074833 -0.00414774055 -0.00283422507 -0.0101194056 -0.00540450308 -0.000778701331 -0.0165338833 0.00338838552 -0.00360029424 -0.0101236124 0.0051524234 -0.00125256088 -0.0101086237 0.000117477197 -0.00571595784 -0.00983200036 0.0052985833 -0.00915616192 -0.00810759328 2.44042349e-05 -0.0120602781 -0.00796144549 0.00853647292 -0.00873482414 -0.00999334175 0.009986341 -0.00171008531 -0.00648824032 -0.00992046949 0.00107446022 -0.00247914135 0.00994500518 -0.00576949539 -0.00598559296 0.00992702506 -0.00129282428 -0.0101336818 0.00343299285 0.00417187717 -0.00896308757 0.0100073265 0.00571347121 -0.00964249671 0.00234664069 0.0112434328 -0.00846455432 0.00695344526 0.00964161847 0.00794980489 0.00780020515 0.00951395929 0.00958450139 -0.00464507798 -0.0103912884 0.00898848381 -0.00984407775 -0.00641102577 0.00648848992 0.00992092397 0.00107411598 0.00247868244 -0.00994357746 -0.00576961227 0.00652299402 -0.00992724113 0.00180026854 -0.00857903715 -0.00447790744 0.0110639818 0.00855385326 -0.00373248919 0.0115293702 0.00141550961 0.00995127205 0.00596842589 -0.000706545194 -0.00995617639 0.00621742615 -0.00450209621 0.00995877665 0.00452173362 0.00988810509 0.00191319245 0.0104224691 0.0095944982 -0.00980732217 0.00564206857 0.00865604263 0.0070617469 -0.00943246949 0.00956420135 0.00984292105 -0.0054655252 0.00945733115 0.00144460471 -0.0113593396 0.0166704115 -0.004375319 -0.00270541082 0.0101498859 -0.00342008378 -0.0041604517 0.0101585779 0.00371848466 -0.00397433853 -0.0031948376 -0.00995531306 -0.00525880791 0.00985663105 0.00988228992 0.00339368824 -0.0166712925 0.00392327411 0.00313364086 -0.0101269325 -0.00265925773 0.00456186431 0.010258236 0.00336815882 0.00459884247 0.0167866498 0.00430905167 -0.0027130465 0.00319514656 0.00995548163 -0.0052582887 0.0164739862 0.00292208511 0.00395200634 0.0166839007 -0.0029362638 0.0037658175 0.010145681 -0.00480329664 0.00258359523</float_array>
          <technique_common>
            <accessor source="#positions_array" count="49" stride="3">
              <param name="X" type="float" />
              <param name="Y" type="float" />
              <param name="Z" type="float" />
            </accessor>
          </technique_common>
        </source>
        <source id="normals">
          <float_array id="normals_array" count="396">-0.987089276 -0.086788483 -0.134620041 -0.973989904 -0.222173393 -0.0445274003 -0.990329266 -0.108795926 0.0860891715 -0.132674202 -0.94005692 0.314150482 -0.233198404 -0.954357028 0.186604172 -0.124569818 -0.937859297 0.323886216 0.0910423696 0.660754621 -0.745060146 -0.966813445 0.149985313 -0.206824079 -0.866842568 -0.00892665051 -0.498502076 -0.796556234 0.503687263 -0.334361047 -0.990567565 0.134222433 -0.0275717434 -0.106587335 0.35708794 -0.927969456 -0.0358334705 0.00217793207 -0.999355376 -0.396400124 0.339977056 -0.852808595 0.871117651 -0.0066352929 0.491029501 0.811207294 0.037335407 0.583565593 0.786017358 0.0535520241 0.615880549 -0.999581575 0.0256774798 -0.0133171743 -0.995803356 0.058939904 0.0700127855 -0.963740766 0.207013384 0.168372169 -0.984520853 0.0512979962 0.167592376 -0.854958534 0.351301134 0.381619424 -0.0228266306 0.566665173 0.823631883 0.048410926 0.6551947 0.753907382 -0.00917174853 0.95851475 0.284895331 0.0272266399 -0.400120169 -0.916058183 0.00813010428 -0.629029334 -0.777339041 -0.0154681429 -0.572227776 -0.819948852 -0.885681987 0.0189571381 0.463905185 -0.883050084 0.0166767258 0.468982279 -0.881917357 0.0157038365 0.471142441 -0.00412717881 0.152799532 0.988248587 -0.0258236621 -0.0302981529 0.999207258 0.0337727368 0.134310305 0.990363657 0.237267613 -0.0374334864 -0.970722854 0.597259045 0.0456493497 -0.800748289 0.698810637 -0.0370305181 -0.714347601 -0.560620904 0.0294783767 -0.827547729 -0.520978689 0.0448726602 -0.852389395 -0.654223382 -0.00952296425 -0.756241441 0.983540416 0.0324416906 0.177752078 0.932290852 -0.156382799 0.326156735 0.991582215 -0.1080373 0.0713624284 0.0095495861 -0.696943462 0.717062473 0.00742172264 -0.700595558 0.71351999 0.00630954653 -0.702495754 0.711659908 0.886524379 0.25817284 -0.383954883 0.988965154 0.102773398 -0.106703334 0.989739716 0.0498603359 -0.13390024 0.204787254 0.0113159744 -0.978741109 0.221230149 0.0251476783 -0.974897325 0.201437771 0.00850775652 -0.979464352 0.058432918 0.0145602673 0.998185158 -0.0584954843 -0.0145876165 0.998181105 0.0896022692 0.0223301686 0.995727241 -0.694142163 -0.0275229756 -0.719311595 0.0724546984 0.175376207 0.981831729 -0.925765514 -0.153348073 0.345604599 0.989856124 0.120457493 0.0753311962 0.857986152 0.341683209 0.383552343 -0.999703825 0.0152059877 0.0190006774 -0.998601258 0.0470536873 -0.0241145156 -0.999668777 0.0127045102 0.0223823413 -0.99748975 -0.0208475161 0.0676726252 0.101754151 -0.663185954 -0.741505504 -0.236501336 0.968187571 -0.0817308053 -0.125011206 0.988040805 0.0902641043 -0.106906399 0.987349629 0.117097065 -0.00645164913 -0.88936317 0.457155973 -0.147574678 0.112930223 0.982582569 -0.124226332 0.0894644782 0.988212466 -0.124183238 0.0894211978 0.988221824 -0.0983107984 0.0634649172 0.993129969 -0.0965530053 0.994451463 0.0417586975 -0.00160085433 0.992000818 0.126221284 -0.0215887558 0.993849635 0.108612992 0.0189590156 0.831863105 0.554656982 0.88698715 -0.0200601462 0.461358219 0.006970922 0.999868512 -0.0146396291 -0.0244329646 0.995472312 -0.0918580666 -0.0543308817 0.959398329 -0.276772469 0.0252717584 0.994529307 -0.101354979 -0.0493754819 0.936205268 -0.347968042 0.0598358698 0.910538733 0.4090707 -0.886964798 0.0200790539 0.4614003 0.00838546641 -0.997700751 -0.0672521368 0.0193905924 -0.999786198 -0.00717880344 0.0256820619 -0.999649405 0.00644185627 0.0242414232 -0.999636233 0.01182165 0.0154970186 -0.999702871 0.018814642 0.0304567646 0.960866272 -0.275333196 0.0477445088 0.812709033 -0.580710351 0.995097756 -0.0642521679 -0.0751809329 0.987333775 -0.15084137 -0.0491819158 -0.00252298918 -0.999836922 0.0178826973 0.0095446948 -0.99840802 0.0555905774 -0.0329262689 -0.998987377 0.0306598507 -0.0415711924 -0.998481929 0.0361337513 -0.0394870266 -0.998517692 0.0374584645 0.997965753 0.0340456218 0.0539002381 0.999712527 0.0064671929 0.0230866857 0.999633372 0.00873949472 0.02562657 0.999910057 -0.0133824758 0.000891718024 -0.0104157282 -0.141414359 0.989895701 -0.107024588 -0.23668085 0.965674818 -0.0212635119 -0.152235553 0.988115489 -0.0896650106 -0.0223575346 0.995720983 0.0242109988 0.0939458534 -0.995282888 -0.0110604856 0.323042035 -0.946319997 0.0107059032 -0.694949746 0.718978584 0.0231530368 0.995331049 0.0937017277 -0.112128012 0.977421165 0.179095373 0.0137844924 0.993177176 -0.115797356 0.736706972 0.0434157588 -0.674816906 -0.997403085 -0.0115441401 -0.0710900724 -0.992421627 -0.120729432 -0.0228842665 -0.996106803 -0.0426876359 0.0771299303 0.0705429763 -0.997488797 0.00630950183 0.233017147 -0.949386775 0.210636526 0.0681093335 -0.997672439 0.00329241576 0.187229499 -0.00336968247 -0.982310414 -0.347307116 -0.077779144 -0.934520304 0.967621624 -0.0539159551 -0.246579632 -0.0238753967 -0.727827549 -0.685344458 0.998205841 0.0362157151 0.0476812497 0.99559629 -0.0828251317 0.0439093113 0.992794335 -0.0984679908 -0.0682894737 0.99583292 0.0610138439 -0.0677797943 0.0234885067 0.952981055 0.302118242 -0.0981830508 -0.974862754 -0.200006858 0.101478659 -0.0279690158 0.994444489 0.0914434418 0.974060774 0.206987232</float_array>
          <technique_common>
            <accessor source="#normals_array" count="132" stride="3">
              <param name="X" type="float" />
              <param name="Y" type="float" />
              <param name="Z" type="float" />
            </accessor>
          </technique_common>
        </source>
        <vertices id="vertices">
          <input semantic="POSITION" source="#positions" />
        </vertices>
        <triangles material="scout_b2b2b2" count="98">
          <input semantic="VERTEX" source="#vertices" offset="0" />
          <input semantic="NORMAL" source="#normals" offset="1" />
          <p>0 0 1 1 2 2 3 3 4 4 5 5 6 6 7 6 8 6 9 7 10 8 0 0 11 9 9 7 12 10 11 11 10 12 9 13 13 14 14 15 15 16 12 10 7 17 16 18 17 19 12 10 18 20 19 21 17 19 18 20 19 22 20 23 17 24 21 25 22 26 0 27 23 28 24 29 25 30 18 31 26 32 27 33 28 34 29 35 30 36 25 37 29 38 28 39 31 40 27 41 32 42 32 43 26 44 2 45 33 46 34 47 35 48 36 49 37 50 38 51 24 52 14 53 39 54 25 37 28 39 23 55 31 56 20 23 27 33 2 2 26 57 18 20 40 58 20 59 31 40 41 60 6 61 4 62 4 62 3 63 41 60 4 64 8 64 5 64 6 65 41 66 7 67 21 25 0 27 10 12 5 5 42 68 3 3 41 69 3 70 16 71 3 70 42 72 16 71 38 73 43 74 44 75 32 76 2 76 29 76 13 14 39 77 14 15 30 78 15 79 17 24 11 80 12 81 15 79 14 82 11 80 15 79 12 81 17 24 15 79 17 24 28 83 30 78 27 33 20 23 18 31 23 28 45 84 24 29 24 85 22 86 25 87 22 86 32 88 25 87 29 89 25 87 32 88 11 80 34 90 33 91 21 92 32 42 22 93 1 94 24 85 39 95 1 94 39 95 13 96 2 97 1 94 13 96 13 96 29 98 2 97 34 90 11 80 14 82 46 99 47 100 44 101 44 101 47 100 36 102 43 103 48 104 47 105 14 53 24 52 45 106 10 12 11 11 35 107 11 11 33 108 35 107 32 43 27 109 26 44 17 24 20 23 28 83 20 23 23 110 28 83 40 111 23 110 20 23 23 110 40 111 34 90 45 112 23 110 34 90 34 90 14 82 45 112 29 35 13 113 30 36 8 114 7 17 12 10 5 115 8 114 0 0 0 0 8 114 9 7 9 7 8 114 12 10 0 0 2 2 5 115 42 116 5 115 2 2 2 2 18 20 42 116 16 18 42 116 18 20 12 10 16 18 18 20 36 117 47 118 48 119 44 120 36 49 38 51 4 121 6 121 8 121 30 36 13 113 15 122 22 26 1 123 0 27 19 22 18 31 20 23 31 40 32 42 43 124 32 42 48 125 43 124 32 42 21 92 37 126 40 58 31 40 43 124 21 92 35 48 37 126 37 126 35 48 38 127 34 47 40 58 43 124 34 47 38 127 35 48 37 126 48 125 32 42 43 124 38 127 34 47 1 94 22 86 24 85 35 107 21 25 10 12 16 128 7 67 41 66 48 119 37 129 36 117 47 105 46 130 43 103 46 131 44 75 43 74</p>
        </triangles>
      </mesh>
    </geometry>
  </library_geometries>
  <library_visual_scenes>
    <visual_scene id="scene">
      <node id="waist_roll_link_rev_1_0">
        <instance_geometry url="#geometry">
          <bind_material>
            <technique_common>
              <instance_material symbol="scout_b2b2b2" target="#scout_b2b2b2" />
            </technique_common>
          </bind_material>
        </instance_geometry>
      </node>
    </visual_scene>
  </library_visual_scenes>
  <scene>
    <instance_visual_scene url="#scene" />
  </scene>
</COLLADA>