<?xml version='1.0' encoding='utf-8'?>
<COLLADA xmlns="http://www.collada.org/2005/11/COLLADASchema" version="1.4.1">
  <asset>
    <created>2026-09-14T00:00:00Z</created>
    <modified>2026-09-14T00:00:00Z</modified>
    <unit name="metre" meter="1" />
    <up_axis>Z_UP</up_axis>
  </asset>
  <library_effects>
    <effect id="scout_333333_effect">
      <profile_COMMON>
        <technique sid="common">
          <lambert>
            <emission>
              <color>0 0 0 1</color>
            </emission>
            <ambient>
              <color>0.1 0.1 0.1 1</color>
            </ambient>
            <diffuse>
              <color>0.2 0.2 0.2 1</color>
            </diffuse>
          </lambert>
        </technique>
      </profile_COMMON>
    </effect>
  </library_effects>
  <library_materials>
    <material id="scout_333333" name="scout_333333">
      <instance_effect url="#scout_333333_effect" />
    </material>
  </library_materials>
  <library_geometries>
    <geometry id="geometry" name="head_link">
      <mesh>
        <source id="positions">
          <float_array id="positions_array" count="276">-0.0589776039 -0.0433817729 0.326677889 -0.0503160618 -0.0649912208 0.329756975 -0.0365969911 -0.0235048961 0.358173221 -0.0314392559 0.0105421701 0.3757101 0.0431166179 -0.0422560163 0.45264098 0.0224215798 -0.0413528346 0.453811258 0.0440654121 0.0400846414 0.454950541 -0.0249490943 -0.077354826 0.334024966 -0.0201659296 -0.045982372 0.349176913 -0.0243648067 0.0778710842 0.333777755 0.00470908731 -0.079349108 0.334398836 -0.020995805 -0.0220532659 0.39480722 -0.0278765894 0.00539124152 0.390671849 -0.0122925714 -0.0309808217 0.366221935 0.0100725787 -0.0323936157 0.354578078 0.00724807801 -0.0295756198 0.397702962 -0.0649986938 -0.0230582319 0.475122333 -0.0552303679 -0.0423681661 0.465361774 -0.05067233 -0.0471245311 0.473178804 -0.0509901717 -0.0262625497 0.506210983 -0.0604032166 0.0028259852 0.501296163 -0.0413524061 -0.0450585932 0.494612098 -0.0357114673 0.00595746981 0.523832381 0.012225044 -0.0529872216 0.498195469 -0.0224531032 -0.032602489 0.520267963 0.0275282301 -0.0336902961 0.520626128 0.0162308626 -0.0564490668 0.461935282 -0.0291792415 0.00740204938 0.463181376 -0.0233428329 -0.00476685166 0.446921974 -0.0187404174 -0.0202411134 0.461243182 0.000839514832 -0.0153449755 0.442277521 0.0172649529 -0.0159577951 0.458245635 0.000548353943 0.00577869592 0.532560408 -0.00810560212 0.0120182391 0.43843931 -0.048883047 0.0663498864 0.330232829 -0.0296307858 0.0476965755 0.347597599 -0.0590476282 0.0438740738 0.327488482 -0.0236537661 0.0267825518 0.367772818 0.0260266345 -0.0369070992 0.402030855 0.0330681987 -0.0499315262 0.425275683 0.0306394752 -0.0351790302 0.42083928 -0.0181791056 0.023033658 0.397454351 0.0105850939 0.030802913 0.396622866 0.00198138994 0.0313383788 0.365699023 -0.0534319095 0.0446335711 0.474333316 -0.0359615609 0.0492190979 0.464655817 -0.063562423 0.0261418447 0.468787968 -0.0564790405 0.0342564099 0.490923256 -0.0340573937 0.0289713927 0.517330825 -0.0303697847 0.0498602316 0.495249957 -0.0199675784 0.0546429865 0.471949905 -0.0165582206 0.0193247311 0.458723813 0.0114507861 0.0208112411 0.460355103 0.00601082621 0.0401260518 0.517671525 0.0171854496 0.0545140617 0.460528195 0.0519105084 0.0543256961 0.483832598 0.020886926 -0.0200822372 0.383677363 0.0488066636 0.0317495689 0.409927279 0.0474154912 0.0384843908 0.402148187 0.045254115 0.0482155383 0.461604595 0.0283819661 -0.0702759847 0.331682175 0.0219680797 -0.0138080735 0.355090052 0.0447699986 -0.0430190451 0.327694952 0.024486905 -0.0227581784 0.400409102 0.047278177 -0.037188895 0.400033563 0.0493742675 -0.029604746 0.406776398 0.0444990881 -0.0150362225 0.378839403 0.0454174206 -0.0477180332 0.461647511 0.0529400408 -0.00669158716 0.382026404 0.0515077673 -0.000304763613 0.389020741 0.0226487145 0.0134609221 0.381519407 0.0425173491 -0.055339653 0.471671045 0.0134374909 -0.00428778213 0.444931149 0.0142873889 0.0774657503 0.334036469 0.0442162901 0.0139246183 0.521330833 0.0665811971 -0.0413601138 0.494706959 0.0630064681 -0.0439068079 0.480770797 0.075538002 -0.00451310817 0.497645378 -0.0135175921 -0.00886827614 0.395009726 0.0288717095 0.0259066764 0.403085113 0.0157023426 0.0372786075 0.348402947 0.0198424142 0.019890314 0.356514573 0.0392727144 0.0575031415 0.328909785 0.032161057 0.0426611602 0.409230739 0.0364592336 0.054538127 0.455980539 0.0444258377 0.0191352591 0.380229682 0.0532079153 -0.027395796 0.512135148 0.0317648426 0.0461301468 0.506782234 0.023657294 0.0427302718 0.452151895 0.0672790483 0.0350684486 0.497681767 0.0679330528 0.0400476716 0.485043854 0.0471529812 0.0279112309 0.326314241</float_array>
          <technique_common>
            <accessor source="#positions_array" count="92" stride="3">
              <param name="X" type="float" />
              <param name="Y" type="float" />
              <param name="Z" type="float" />
            </accessor>
          </technique_common>
        </source>
        <source id="normals">
          <float_array id="normals_array" count="594">-0.777512789 -0.150001228 0.610715508 -0.512552023 -0.363381565 0.777974427 -0.668576062 -0.298019707 0.681315124 -0.904358208 -0.0906109437 0.417044193 -0.055187881 0.0286305342 -0.998065412 -0.70168066 0.0324721523 -0.711751282 0.044205524 -0.0707540289 -0.996513784 -0.162322059 -0.43978712 0.883311272 -0.0684371144 -0.507292509 0.859052181 0.065617919 -0.000929205969 -0.997844398 -0.042364791 0.000979181146 -0.999101758 0.0748765171 -0.00186995603 -0.997191072 -0.937186837 -0.10546308 0.332503259 -0.963599026 -0.218343809 0.154281721 0.0993744954 -0.415308535 0.904236436 -0.411316663 -0.581576288 0.701845884 -0.297701925 -0.933293641 0.200839683 -0.343885005 -0.921018124 0.1829447 -0.209360763 -0.967049062 0.144859001 0.248769149 -0.781172872 0.572610617 0.293841809 -0.439059407 0.849048793 -0.178082809 -0.971902788 0.153920248 -0.0301041175 -0.997545898 0.0632129237 -0.912434697 -0.301241666 0.276977152 -0.839411199 -0.513961911 0.176725581 -0.80050981 -0.531829238 0.276299983 -0.691344142 -0.386564314 0.610418916 -0.868992329 0.0507732891 0.492213726 -0.414450258 -0.817537785 0.399828732 -0.45819208 0.0569982082 0.887023807 0.00372059038 -0.922094822 0.386946142 -0.180533335 -0.961489677 -0.20723249 -0.23902978 -0.531439483 0.812672615 0.19267799 -0.00156304671 -0.981260777 0.189494491 -0.505316794 0.841871023 -0.00973235536 -0.999936163 -0.00574310217 -0.194590122 -0.884240389 -0.424562871 -0.9345963 -0.347650975 -0.0752894804 -0.414019793 -0.681558013 -0.603379011 -0.36080572 -0.47152698 -0.804662347 -0.107870087 -0.310548127 -0.944417238 0.10490445 -0.983756781 -0.145662844 -0.00199308014 0.0721700117 0.99739033 -0.0858122483 -0.165853545 -0.982409716 -0.129804179 0.431515604 0.892717838 -0.464696288 0.296951562 0.834192514 -0.271981269 0.515211463 0.812762737 -0.562290311 0.323417246 0.761072218 -0.685432851 0.551928639 0.474928021 -0.438564777 0.611563027 0.658522248 -0.851693332 0.451996535 0.265174687 -0.966441035 -0.0793823376 0.244315818 -0.978493929 -0.13520053 -0.155789644 -0.987386107 -0.137344167 0.0787737295 -0.888373256 0.405622244 0.2150895 -0.252595752 0.95305717 0.166965291 -0.215564907 0.968989015 0.120797493 -0.20993036 0.971068501 0.113820739 0.10665977 0.823195159 0.557649851 -0.517011106 0.493067652 -0.69970268 -0.77005595 0.48839125 0.410472691 -0.95747143 0.235897243 0.166135162 -0.608232141 0.771882832 0.185069203 -0.414674014 0.481679082 0.772030234 -0.274358928 0.879569709 0.388695687 -0.129852355 0.986781478 -0.0969574153 -0.260983855 0.955403745 -0.13817057 -0.71492672 0.459503382 -0.527007043 -0.71128118 0.46047157 -0.531079054 -0.757284701 0.446667433 -0.476453692 -0.655008256 0.473092318 -0.58919251 -0.0749086067 0.41781497 0.905438781 0.0116272382 0.661156178 0.750158191 -0.0293429773 0.936461389 -0.349541247 -0.0328370742 0.991220713 -0.128074989 0.226239517 0.906822801 0.355651617 -0.0841748416 -0.796571195 -0.598655879 -0.143473491 -0.74919796 -0.646620274 -0.0686043203 -0.727171361 -0.683019221 0.855630219 -0.516133547 0.0387695916 0.630659819 -0.770627141 0.0916622132 0.782313645 -0.622279108 -0.0274613164 0.987440169 0.156286791 -0.0231602564 0.979819894 0.178495809 -0.0899567604 0.92629528 -0.0520360321 -0.373187959 0.393394232 -0.348659396 0.850692451 0.69883275 -0.0873768032 0.709928215 0.65957427 -0.16516538 0.733268201 0.967167854 -0.248434439 -0.0535408594 -0.762920082 -0.0605959669 -0.643646717 -0.966654599 -0.0772068352 0.244167894 -0.0452688634 -0.790369153 -0.610956073 -0.0562863871 -0.878180265 -0.475006551 -0.00570291746 0.946367264 0.323042601 -0.0194082092 0.787946045 0.615438342 -0.0445279106 0.412836909 0.909715891 -0.000306959089 -0.691321969 -0.722546816 0.69267267 -0.669166982 -0.269109875 0.551446557 -0.822858095 -0.137154162 0.526748538 -0.840373755 -0.127702579 0.830349386 0.544575989 0.118139051 0.997511864 0.0557845794 0.043106433 0.969564438 -0.244577095 0.0112602143 0.966718435 -0.255505413 -0.0131307505 0.951592505 -0.303899974 0.0460051484 -0.0413900241 -0.00103961257 0.999142528 0.675184429 -0.463956147 -0.5734725 0.955902457 0.293670207 0.00288031623 0.0911279544 -0.986837864 -0.133591473 0.344276398 -0.938354552 -0.0310557522 0.586097062 -0.518307328 -0.622774243 0.187735632 0.357161492 0.914981425 0.400432706 0.18163909 0.898142993 0.464708865 -0.69808507 0.544722736 0.500116706 -0.865070045 -0.0392061695 0.991200387 -0.131026894 -0.0188095532 0.86010927 -0.00105083245 -0.510108769 0.9682706 -0.00414856197 -0.249869555 0.847947836 -0.0434408076 -0.528296709 0.954608679 -0.215663478 -0.205454573 0.838386476 -0.0699489936 -0.540569365 0.0558079965 -0.183116123 0.98150599 0.0278524812 0.0100462167 0.999561548 -0.0905511528 -0.530456603 0.84286195 0.19219327 0.871230602 0.451684594 0.618951738 0.448244154 0.644962013 0.665313244 0.222151563 0.712746084 0.33537963 0.417588055 0.844476581 0.693107188 0.719939709 -0.0359048955 0.890024245 0.448977858 -0.0792192072 0.490566641 0.862885296 -0.121545486 0.529723704 0.272776753 0.803109944 0.0279948153 0.901644707 -0.4315705 0.259498149 0.952610791 -0.158724368 0.0446253307 0.856956482 -0.513453186 -0.106335431 0.705996752 -0.70018667 -0.0573016554 0.40698871 -0.911634088 0.318789959 0.0392129347 -0.947013915 0.00048098687 -0.000543437956 -0.999999762 -0.122649729 -0.549401641 0.826507628 0.893302321 0.269464612 -0.359721899 0.987789989 0.0499940999 0.147551849 -0.864209652 0.0877927095 -0.495413065 0.665462852 0.685011983 -0.296509236 0.636177182 -0.0325640775 0.770855486 0.489437312 -0.296112657 0.820224643 0.250678241 -0.0536350608 -0.96658355 0.559192836 0.465735614 -0.685852587 0.18088229 0.759911835 0.624352157 0.976955175 0.162428021 -0.138476342 -0.548419654 -0.00752602331 -0.836169362 -0.664354026 0.0923963562 -0.741684973 -0.516516328 -0.0325856805 -0.855657101 0.531205237 0.520611107 0.668419838 0.641874433 0.668335855 -0.375931472 0.63224715 0.677632034 -0.375603914 0.617854536 0.720131636 0.315699488 0.970636487 0.202411681 0.129978254 -0.381629288 -0.251343757 0.889486015 0.33125031 9.42550396e-05 -0.943542898 0.16297695 0.00296025956 -0.986625433 -0.33168593 0.0622749031 -0.941332161 -0.144788876 0.0030450162 -0.989457905 -0.217387244 -0.00397646846 -0.976077318 -0.238371417 -0.00129929685 -0.971173167 -0.336541444 -0.00702379737 -0.941642463 -0.0700173676 -0.0026282242 -0.997542322 -0.150528938 0.0195296556 -0.988412678 -0.109863147 0.0163021591 -0.993813038 -0.122997023 0.0231740642 -0.992136419 -0.107411593 -0.0147298621 -0.994105518 -0.079260543 0.0186051708 -0.996680319 -0.0782467723 0.0203043427 -0.996727228 -0.0896950811 -0.0420274399 -0.99508214 -0.0684128478 -0.0850772485 -0.994022906 -0.0721547604 -0.0886817351 -0.993443131 -0.131761223 0.574293494 0.807976425 -0.869390309 -0.00528786192 0.494097739 -0.695067644 0.121907078 -0.708533466 -0.0688077211 0.00484028552 0.997618198 -0.138645634 -0.042166993 0.989443958 0.010857787 0.976959646 0.213147774 0.0538503528 0.978977919 0.196729153 -0.189535335 -0.0531202704 -0.980435908 -0.162474573 0.298372507 -0.940518916 0.731583834 0.0644466653 0.67869854 0.241622493 0.00920803659 -0.970326662 -0.169577494 0.983422935 0.0642089471 -0.555749238 -0.0140840709 0.83123064 0.738719285 -0.00904683396 -0.67395246 -0.948358834 0.255258471 -0.188304573 0.0882468298 -0.949973226 0.29960525 -0.0668418184 -0.97462225 0.21364373 0.157216161 -0.928932726 0.335212022 -0.148998201 -0.975006104 0.164810792 0.120247349 -0.115476675 -0.986004949 -0.189611509 0.0914175734 0.977594137 -0.910539925 -0.372274488 -0.179801881</float_array>
          <technique_common>
            <accessor source="#normals_array" count="198" stride="3">
              <param name="X" type="float" />
              <param name="Y" type="float" />
              <param name="Z" type="float" />
            </accessor>
          </technique_common>
        </source>
        <vertices id="vertices">
          <input semantic="POSITION" source="#positions" />
        </vertices>
        <triangles material="scout_333333" count="184">
          <input semantic="VERTEX" source="#vertices" offset="0" />
          <input semantic="NORMAL" source="#normals" offset="1" />
          <p>0 0 1 1 2 2 3 3 0 0 2 2 4 4 5 5 6 6 2 2 1 1 7 7 2 2 7 7 8 8 9 9 10 10 7 11 11 12 3 3 2 2 12 13 3 3 11 12 10 14 8 8 7 7 13 15 2 2 8 8 11 16 2 17 13 18 13 19 8 8 14 20 11 16 13 18 15 21 15 21 13 18 14 22 16 23 17 24 18 25 19 26 16 23 18 25 19 26 20 27 16 23 19 26 18 25 21 28 22 29 20 27 19 26 23 30 21 28 18 31 24 32 19 26 21 28 1 33 9 9 7 11 25 34 24 32 23 30 26 35 18 31 17 36 23 30 18 31 26 35 24 32 21 28 23 30 27 37 28 37 29 37 29 38 28 39 30 40 31 41 29 41 30 41 32 42 24 32 25 34 28 39 33 43 30 40 22 29 24 32 32 42 9 44 34 45 35 46 35 46 36 47 3 48 37 49 3 48 12 50 36 47 35 46 34 45 35 46 3 48 37 49 38 51 39 52 40 53 41 54 37 49 12 50 41 55 42 56 37 57 37 49 43 58 35 46 44 59 45 59 46 59 47 60 46 61 20 27 47 60 44 62 46 61 48 63 47 60 20 27 22 29 48 63 20 27 47 60 48 63 49 64 47 60 49 64 44 62 44 62 50 65 45 66 28 67 51 68 33 69 51 68 28 67 27 70 27 71 52 71 51 71 48 63 53 72 49 64 51 73 52 73 33 73 22 29 32 42 48 63 53 72 48 63 32 42 45 66 50 65 54 74 49 64 55 75 50 65 14 20 8 8 10 14 38 76 15 77 56 78 56 79 15 80 14 81 57 82 58 83 59 84 14 20 10 14 60 85 60 85 61 86 14 20 62 87 61 86 60 85 61 88 56 79 14 81 17 89 16 89 46 89 40 53 63 90 38 51 38 76 56 78 64 91 39 92 38 76 64 91 40 93 65 94 63 95 66 96 64 91 56 78 67 97 39 98 64 99 64 100 4 100 67 100 68 101 65 102 64 103 65 102 4 104 64 103 69 105 63 95 65 94 68 106 64 106 66 106 61 88 70 107 56 79 26 35 39 108 71 109 72 110 31 110 30 110 73 111 9 44 35 46 74 112 32 42 25 34 67 97 71 109 39 98 71 109 75 113 23 30 67 97 76 114 71 109 75 113 25 34 23 30 6 115 67 116 4 117 6 115 59 84 67 116 75 113 71 109 76 114 77 118 75 119 76 120 69 105 41 121 78 122 79 123 41 121 69 105 35 46 43 58 80 124 43 125 81 126 80 127 42 128 81 129 43 130 81 129 70 107 61 88 80 127 81 126 82 131 83 132 84 133 58 134 83 132 58 134 42 135 85 136 68 137 66 138 57 139 79 123 69 105 85 140 58 83 68 101 58 83 57 82 69 141 58 83 69 141 68 101 5 5 39 52 26 142 84 133 59 143 58 134 75 113 77 144 86 145 33 43 72 146 30 40 33 147 52 147 72 147 87 148 55 75 49 64 50 65 84 133 54 74 72 149 52 149 31 149 52 150 88 151 31 152 53 72 32 42 74 112 87 148 53 72 74 112 67 116 59 84 76 120 89 153 87 148 74 112 59 84 6 115 57 82 84 133 55 154 59 143 55 154 90 155 59 143 55 75 89 153 90 156 55 75 87 148 89 153 90 157 89 157 77 157 87 148 49 64 53 72 83 158 42 158 79 158 23 30 26 35 71 109 65 102 68 101 69 141 46 61 16 23 20 27 19 26 24 32 22 29 0 159 34 160 1 33 50 65 55 75 84 133 5 5 31 161 6 6 60 162 82 163 62 164 91 165 62 164 82 163 73 166 10 10 9 9 46 167 45 168 27 169 17 170 46 167 27 169 45 168 54 171 52 172 17 170 27 169 29 173 26 174 17 170 29 173 29 173 31 175 26 174 52 172 27 169 45 168 50 65 44 62 49 64 1 33 34 160 9 9 41 176 79 176 42 176 81 129 42 128 70 107 73 166 60 162 10 10 36 177 0 0 3 3 52 150 54 178 88 151 39 52 5 5 40 53 78 122 11 179 63 95 63 95 11 179 15 180 65 94 40 93 4 181 4 181 40 93 5 182 66 138 56 183 70 184 81 126 61 86 62 87 63 95 69 105 78 122 74 112 77 144 89 153 81 126 62 87 91 185 5 5 26 142 31 161 0 159 36 186 34 160 11 179 78 122 41 121 43 187 37 57 42 56 86 145 25 34 75 113 41 188 12 188 11 188 25 34 86 145 74 112 90 189 76 120 59 84 74 112 86 145 77 144 76 120 90 189 77 118 73 111 35 46 80 127 60 162 73 166 82 163 80 127 82 131 73 111 70 184 85 136 66 138 85 136 70 184 42 135 85 136 42 135 58 134 83 190 79 190 88 190 57 191 88 192 79 193 57 191 6 194 88 192 91 185 82 131 81 126 31 161 88 195 6 6 38 196 63 95 15 180 83 132 54 74 84 133 88 197 54 197 83 197</p>
        </triangles>
      </mesh>
    </geometry>
  </library_geometries>
  <library_visual_scenes>
    <visual_scene id="scene">
      <node id="head_link">
        <instance_geometry url="#geometry">
          <bind_material>
            <technique_common>
              <instance_material symbol="scout_333333" target="#scout_333333" />
            </technique_common>
          </bind_material>
        </instance_geometry>
      </node>
    </visual_scene>
  </library_visual_scenes>
  <scene>
    <instance_visual_scene url="#scene" />
  </scene>
</COLLADA>