<?xml version='1.0' encoding='utf-8'?>
<COLLADA xmlns="http://www.collada.org/2005/11/COLLADASchema" version="1.4.1">
  <asset>
    <created>2026-09-14T00:00:00Z</created>
    <modified>2026-09-14T00:00:00Z</modified>
    <unit name="metre" meter="1" />
    <up_axis>Z_UP</up_axis>
  </asset>
  <library_effects>
    <effect id="scout_b2b2b2_effect">
      <profile_COMMON>
        <technique sid="common">
          <lambert>
            <emission>
              <color>0 0 0 1</color>
            </emission>
            <ambient>
              <color>0.35 0.35 0.35 1</color>
            </ambient>
            <diffuse>
              <color>0.7 0.7 0.7 1</color>
            </diffuse>
          </lambert>
        </technique>
      </profile_COMMON>
    </effect>
  </library_effects>
  <library_materials>
    <material id="scout_b2b2b2" name="scout_b2b2b2">
      <instance_effect url="#scout_b2b2b2_effect" />
    </material>
  </library_materials>
  <library_geometries>
    <geometry id="geometry" name="left_shoulder_yaw_link">
      <mesh>
        <source id="positions">
          <float_array id="positions_array" count="87">0.00329951104 0.0218746625 -0.0520214587 -0.0158719048 0.0220529493 -0.105803281 -0.0189643838 0.0256282445 -0.0272523742 -0.0309464615 -0.0106032491 -0.075778015 -0.0088088382 -0.0300894789 -0.0599869154 -0.0156797059 -0.02970553 -0.0123433145 -0.0353172421 0.00388042396 0.03231024 -0.0187076181 0.0181043427 -0.000141439057 -0.0154528003 -0.0284166336 0.0321457386 0.000863915484 -0.0299305134 -0.00101054541 -0.0103074964 0.030960286 0.0321752168 0.0116682444 -0.0214348324 -0.0384232476 0.00693411147 -0.0318832509 -0.0524937399 0.0367439277 -0.0319902636 -0.0562878288 0.0210194401 -0.0272425096 0.0296830386 0.0160085782 0.012275313 -0.0396459065 0.0323679484 -0.00351167214 -0.00242601824 0.0308100469 -0.00853471737 0.0315758102 0.0449696891 0.0233651865 -0.0623301677 0.0262670293 0.0259271823 0.0310834665 -0.00986294448 -0.0373899527 -0.0966365114 0.00273804087 0.0237138737 -0.112952754 0.0423638187 0.0231068376 -0.100468211 0.0483281575 -0.0320135094 -0.0814448744 0.0238274019 -0.0406524241 -0.0810387135 0.0372444093 -0.033992175 -0.103773683 0.00976739824 -0.0333613306 -0.111398645 0.0201762393 0.0275649577 -0.00922990125 0.0183441266 0.0172583349 0.000360327598</float_array>
          <technique_common>
            <accessor source="#positions_array" count="29" stride="3">
              <param name="X" type="float" />
              <param name="Y" type="float" />
              <param name="Z" type="float" />
            </accessor>
          </technique_common>
        </source>
        <source id="normals">
          <float_array id="normals_array" count="210">0.0780368224 0.994383752 0.0714930892 -0.0384971946 0.9991135 0.0170350149 0.0462642424 0.995773554 -0.0793388486 -0.721467912 -0.690228641 0.0553933606 -0.423113167 -0.90379554 0.0642561987 -0.767487049 -0.640897691 0.0146188373 -0.846688092 -0.531387269 0.0273277275 0.850123286 0.339088619 0.402876258 -0.883780837 0.463900536 -0.061054606 -0.924464405 0.377485186 -0.0535768159 -0.918883562 0.389335603 -0.0638029054 -0.796095252 0.605166614 0.00239446643 -0.733734071 0.677873552 0.0460628048 0.387119949 -0.797819674 0.462192565 0.567005634 -0.741099656 0.359549612 0.0301839449 -0.957825303 0.285761446 0.147875264 -0.935190678 0.321793884 0.0961245894 -0.995039403 -0.0256241038 0.143230408 -0.987404883 -0.0672063157 0.190722242 -0.975531816 -0.109374017 0.972046494 -0.0841238722 -0.219200268 0.886148334 -0.130225673 -0.444727302 0.856323123 -0.469881028 -0.214295551 0.88337028 -0.304285884 -0.356464624 0.851242781 -0.518294811 -0.0821959823 -0.386563241 0.892864764 -0.23100093 0.0711276755 -0.137184605 0.987988472 -0.00619434705 0.992931426 0.118527867 0.378209502 0.878197908 0.292790025 0.508652806 0.850007594 0.136964962 0.132379159 0.985331595 -0.107691251 0.0609151758 0.996769726 -0.0523392558 -0.543331563 -0.123701349 -0.830354631 -0.662895679 -0.179117888 -0.726970494 -0.79386729 -0.170273691 -0.58376497 -0.034933649 0.998924911 0.0304744393 -0.0105551137 0.999801159 0.0169175752 0.332851827 -0.942220807 0.0378102213 0.0838857144 -0.995514274 0.0437546261 0.174771875 -0.967938125 -0.180417731 0.0299366321 -0.968680859 -0.246497765 0.955941439 0.255219728 -0.145047724 0.885029972 0.263125807 -0.384040087 0.913165748 0.297170073 -0.278959274 0.971736073 0.234292775 -0.0289121009 -0.527362764 -0.159741029 -0.83448869 0.920388401 0.0133229978 0.390778273 0.628207624 -0.0527298637 0.776256919 0.597812653 -0.0166858379 0.801462173 0.768713117 -0.0445847549 0.63803792 -0.851577222 -0.52386564 0.019520225 -0.0503160879 0.998731434 0.00195025909 -0.352413297 -0.068816267 -0.933310866 -0.285233736 -0.957861185 0.0338172354 0.00655100355 -0.00106411614 0.999977946 0.998488188 -0.0427800529 -0.0345130041 -0.0140811009 -0.0238235816 0.999616981 0.0341027193 -0.999004185 0.0287683662 0.280773044 0.0236479882 -0.959482789 0.29088369 0.0172543153 -0.956602812 0.26793918 0.0317201689 -0.962913513 0.886806726 -0.4613204 -0.0275183786 0.300635755 0.0110583557 -0.953674912 0.984668136 0.0487420075 -0.167489991 0.896296024 -0.0548861213 -0.440046549 -0.0262384601 -0.926495135 0.375390917 -0.662745476 -0.685394347 -0.301666975 -0.791219354 0.277257442 0.545069039 0.989223301 0.131331131 0.0647257864 0.0323811211 0.0185453966 0.99930352</float_array>
          <technique_common>
            <accessor source="#normals_array" count="70" stride="3">
              <param name="X" type="float" />
              <param name="Y" type="float" />
              <param name="Z" type="float" />
            </accessor>
          </technique_common>
        </source>
        <vertices id="vertices">
          <input semantic="POSITION" source="#positions" />
        </vertices>
        <triangles material="scout_b2b2b2" count="54">
          <input semantic="VERTEX" source="#vertices" offset="0" />
          <input semantic="NORMAL" source="#normals" offset="1" />
          <p>0 0 1 1 2 2 3 3 4 4 5 5 6 6 3 3 5 5 7 7 8 7 9 7 2 8 1 9 3 10 2 8 3 10 6 11 6 11 10 12 2 8 11 13 5 14 12 15 11 13 12 15 13 16 14 17 5 18 11 19 7 20 10 20 8 20 15 21 16 22 11 23 16 22 14 24 11 23 9 25 8 25 17 25 17 26 8 26 14 26 18 27 0 0 15 28 0 0 16 29 15 28 10 30 19 31 2 2 1 32 20 33 3 34 21 35 0 0 22 36 0 0 18 27 22 36 23 37 13 16 24 38 25 39 23 37 24 38 26 40 25 39 24 38 16 41 0 42 27 43 27 43 19 44 16 41 1 32 26 45 20 33 0 0 21 35 1 1 18 46 15 47 11 48 13 49 18 46 11 48 5 5 8 50 6 6 0 0 2 2 27 51 26 45 1 32 21 52 4 4 20 53 24 38 12 15 4 4 24 38 13 16 12 15 24 38 20 53 26 40 24 38 10 54 6 54 8 54 13 49 23 55 18 46 4 4 3 3 20 53 4 4 12 15 5 5 28 56 7 56 9 56 5 18 14 17 8 57 26 58 22 59 25 60 17 61 14 24 16 22 26 58 21 62 22 59 18 46 23 55 22 63 23 55 25 64 22 63 7 65 28 65 10 65 2 2 19 31 27 51 28 66 17 66 10 66 17 67 28 67 9 67 17 68 16 41 19 44 10 69 17 69 19 69</p>
        </triangles>
      </mesh>
    </geometry>
  </library_geometries>
  <library_visual_scenes>
    <visual_scene id="scene">
      <node id="left_shoulder_yaw_link">
        <instance_geometry url="#geometry">
          <bind_material>
            <technique_common>
              <instance_material symbol="scout_b2b2b2" target="#scout_b2b2b2" />
            </technique_common>
          </bind_material>
        </instance_geometry>
      </node>
    </visual_scene>
  </library_visual_scenes>
  <scene>
    <instance_visual_scene url="#scene" />
  </scene>
</COLLADA>