<?xml version='1.0' encoding='utf-8'?>
<COLLADA xmlns="http://www.collada.org/2005/11/COLLADASchema" version="1.4.1">
  <asset>
    <created>2026-09-14T00:00:00Z</created>
    <modified>2026-09-14T00:00:00Z</modified>
    <unit name="metre" meter="1" />
    <up_axis>Z_UP</up_axis>
  </asset>
  <library_effects>
    <effect id="scout_b2b2b2_effect">
      <profile_COMMON>
        <technique sid="common">
          <lambert>
            <emission>
              <color>0 0 0 1</color>
            </emission>
            <ambient>
              <color>0.35 0.35 0.35 1</color>
            </ambient>
            <diffuse>
              <color>0.7 0.7 0.7 1</color>
            </diffuse>
          </lambert>
        </technique>
      </profile_COMMON>
    </effect>
  </library_effects>
  <library_materials>
    <material id="scout_b2b2b2" name="scout_b2b2b2">
      <instance_effect url="#scout_b2b2b2_effect" />
    </material>
  </library_materials>
  <library_geometries>
    <geometry id="geometry" name="left_ankle_pitch_link">
      <mesh>
        <source id="positions">
          <float_array id="positions_array" count="63">-0.0184153598 -0.00678325351 -0.0202206057 -0.023939224 0.000361109007 -0.0230580159 -0.0214354824 0.00518392352 -0.0207054671 -0.00291959429 0.00478732446 0.0102472221 -0.0167424344 -0.000624108419 0.00451907329 -0.00058308302 -0.00459408527 0.0109704006 -0.000588957279 0.00657362491 -0.0256452002 0.00986546185 0.00592235848 -0.0156855565 0.00585297681 -0.00729995826 -0.024187943 0.00785939675 0.00478322897 0.00750788627 -0.0085678203 0.00591016561 0.000629112299 0.00362168951 0.0038635619 0.00378068234 -0.00480145728 -0.00537104253 0.00482781185 0.00286789914 0.00625244435 -0.00866089761 -0.0152222794 0.00528216502 -0.0109328702 -0.00619039685 -0.00497971475 -0.00784762949 -0.0154869482 -0.00539150788 -0.010297874 0.00472564949 -0.00500177173 -0.0154000688 0.00428474834 -0.00610367628 -0.00663437136 0.00747305248 -0.00581250945 0.0044298158 -0.0224999879 -0.00181067816 -0.0126937348</float_array>
          <technique_common>
            <accessor source="#positions_array" count="21" stride="3">
              <param name="X" type="float" />
              <param name="Y" type="float" />
              <param name="Z" type="float" />
            </accessor>
          </technique_common>
        </source>
        <source id="normals">
          <float_array id="normals_array" count="177">0.561664104 0.108513668 -0.820218384 -0.375354201 -0.0220551584 0.926618993 0.677202582 0.241438523 -0.695056856 0.992539287 -0.120763257 -0.0167922787 0.9724347 -0.231636226 0.0267477166 0.94239831 -0.328037173 0.0653993338 0.194970369 -0.284279913 -0.938707352 0.0770220384 -0.181421712 -0.980384529 0.0927141905 -0.195278138 -0.976355731 -0.00277573639 0.999954045 -0.00917515345 -0.139422223 0.988520205 0.0582170747 -0.321440071 0.924836159 0.203357622 0.0168227199 0.999502361 0.0266830754 -0.499694228 0.809163868 0.309127033 -0.124549583 0.974451303 0.186901316 -0.263770878 -0.947341681 0.181572735 -0.0792766437 -0.995279849 0.0559748858 -0.266596347 -0.948489368 0.171155691 -0.125958458 -0.96630609 0.224470586 0.0288213827 -0.991299987 0.128427669 -0.977635205 -0.196887642 -0.0739235952 -0.0966139212 -0.991722047 -0.0845759362 -0.109959513 -0.992254138 0.057798706 0.686868429 0.309761524 0.657464445 0.665254831 0.335232705 0.66712445 0.775514007 0.187784478 0.602756143 0.556083918 0.446547687 0.700974882 -0.825655937 0.474761605 0.304784596 -0.906022131 0.371057719 0.20356822 -0.767370462 0.530058384 0.360805511 -0.293194324 0.0640198439 0.953907013 -0.0352057852 -0.0808381066 -0.996105313 -0.647242904 -0.748680055 0.143369198 -0.7871207 -0.616478622 -0.0198767073 -0.423746139 -0.897001684 0.125806004 -0.190086514 0.970716655 0.146888509 0.0579144135 -0.973168314 0.222686738 -0.201898292 -0.125050098 -0.971390545 -0.223469347 -0.0956968665 -0.970001817 -0.180576295 -0.153551742 -0.971500933 -0.162454978 -0.177387252 -0.970640063 0.440324962 -0.0657988191 0.895424187 0.244106278 0.134824857 0.960330367 0.430291146 -0.0546947867 0.901031613 -0.995702207 0.0193013474 -0.0905791521 -0.681874275 0.593501985 0.427554458 -0.133883432 -0.967543304 0.214325011 0.998254895 -0.0202880539 -0.055457551 0.588419676 -0.245273381 0.770456493 -0.90101862 -0.340612292 0.268605053 -0.96235311 -0.224350974 0.153437823 -0.96557653 -0.215874687 0.1451208 -0.023588229 0.997663736 0.0641142428 -0.0598742776 0.997812152 0.0280360244 0.0260041822 0.994563103 0.10083665 0.268667459 0.818708658 -0.507478058 -0.370086342 0.907923579 0.196750805 -0.993425727 -0.107425421 0.0395615324 -0.0308207422 -0.988770008 0.146232441</float_array>
          <technique_common>
            <accessor source="#normals_array" count="59" stride="3">
              <param name="X" type="float" />
              <param name="Y" type="float" />
              <param name="Z" type="float" />
            </accessor>
          </technique_common>
        </source>
        <vertices id="vertices">
          <input semantic="POSITION" source="#positions" />
        </vertices>
        <triangles material="scout_b2b2b2" count="42">
          <input semantic="VERTEX" source="#vertices" offset="0" />
          <input semantic="NORMAL" source="#normals" offset="1" />
          <p>0 0 1 0 2 0 3 1 4 1 5 1 6 2 7 2 8 2 9 3 8 4 7 5 10 6 11 7 12 8 13 9 14 10 10 11 7 12 14 10 13 9 14 10 4 13 10 11 3 14 10 11 4 13 4 15 15 16 12 17 4 15 16 18 15 16 16 18 17 19 15 16 17 20 8 20 18 20 15 16 17 19 18 21 8 22 19 22 18 22 13 23 12 24 18 25 12 24 13 23 10 26 2 27 1 28 20 29 20 30 16 30 14 30 11 7 19 31 12 8 20 32 1 33 0 34 9 35 7 12 13 9 8 36 17 19 16 18 0 34 8 36 16 18 0 37 2 38 6 39 0 37 6 39 8 40 9 41 3 42 5 43 4 44 14 44 16 44 2 27 20 29 14 45 5 46 4 15 12 17 9 3 19 47 8 4 9 41 5 43 19 48 19 49 11 50 18 51 0 34 16 18 20 32 6 52 2 53 14 10 14 10 7 12 6 52 3 14 9 54 10 11 10 55 9 55 11 55 11 56 9 35 13 9 13 57 18 51 11 50 12 17 19 58 5 46 18 21 12 17 15 16</p>
        </triangles>
      </mesh>
    </geometry>
  </library_geometries>
  <library_visual_scenes>
    <visual_scene id="scene">
      <node id="left_ankle_pitch_link">
        <instance_geometry url="#geometry">
          <bind_material>
            <technique_common>
              <instance_material symbol="scout_b2b2b2" target="#scout_b2b2b2" />
            </technique_common>
          </bind_material>
        </instance_geometry>
      </node>
    </visual_scene>
  </library_visual_scenes>
  <scene>
    <instance_visual_scene url="#scene" />
  </scene>
</COLLADA>