<?xml version='1.0' encoding='utf-8'?>
<COLLADA xmlns="http://www.collada.org/2005/11/COLLADASchema" version="1.4.1">
  <asset>
    <created>2026-09-14T00:00:00Z</created>
    <modified>2026-09-14T00:00:00Z</modified>
    <unit name="metre" meter="1" />
    <up_axis>Z_UP</up_axis>
  </asset>
  <library_effects>
    <effect id="scout_b2b2b2_effect">
      <profile_COMMON>
        <technique sid="common">
          <lambert>
            <emission>
              <color>0 0 0 1</color>
            </emission>
            <ambient>
              <color>0.35 0.35 0.35 1</color>
            </ambient>
            <diffuse>
              <color>0.7 0.7 0.7 1</color>
            </diffuse>
          </lambert>
        </technique>
      </profile_COMMON>
    </effect>
  </library_effects>
  <library_materials>
    <material id="scout_b2b2b2" name="scout_b2b2b2">
      <instance_effect url="#scout_b2b2b2_effect" />
    </material>
  </library_materials>
  <library_geometries>
    <geometry id="geometry" name="left_wrist_roll_link">
      <mesh>
        <source id="positions">
          <float_array id="positions_array" count="75">0.044497814 0.0248811673 -0.0163578428 0.0141627071 0.0224728044 -0.0180068873 0.000230843929 0.0264433511 -0.0149296438 0.00534734596 -0.0230336189 -0.0199483708 0.000438641408 -0.0275615063 -0.0131925028 0.000498564914 -0.0115234125 -0.0286908317 0.00165019708 0.0309083648 -0.00319596916 0.0418224595 0.0294391103 -0.00178454723 0.0502440371 0.0232441835 0.014734244 0.00167290354 -0.0267402027 0.013254188 0.0508368611 -0.0242685452 0.0143021485 0.0504916869 -0.0256457906 -0.0123348404 0.0439676605 0.029868111 0.00462531811 0.0543899946 0.0235028435 -0.00741154701 0.0438830294 -0.0315420777 -0.000442481163 0.00544441305 0.0127690164 -0.027781833 0.000761639152 0.0292478707 0.0106779682 0.000635528995 0.00074044877 0.0325163864 0.00049779861 -0.0290554557 0.012385576 0.00943754427 -0.00471228454 -0.0299215969 0.00164078153 0.000771148247 -0.0310386159 0.0113066006 0.0216495004 0.0194647238 0.00953153148 -0.00117171381 0.0303702001 0.00168908061 0.00618764944 0.0310048312 0.0104397591 -0.021737596 0.0196703896</float_array>
          <technique_common>
            <accessor source="#positions_array" count="25" stride="3">
              <param name="X" type="float" />
              <param name="Y" type="float" />
              <param name="Z" type="float" />
            </accessor>
          </technique_common>
        </source>
        <source id="normals">
          <float_array id="normals_array" count="186">-0.00447422825 0.602719307 -0.797940731 0.00970176701 0.633597255 -0.773602247 0.0279311221 0.671728134 -0.740270972 -0.160807505 -0.761866808 -0.627455115 -0.0765762478 -0.922737479 -0.377745509 -0.330549985 -0.655201793 -0.679299116 0.138842613 -0.897511959 -0.418563038 -0.185956657 -0.982287705 -0.0230419319 -0.183404118 -0.945372641 -0.269505948 0.114597186 0.910094738 -0.398239911 -0.0475067347 0.992545843 -0.112231307 -0.016702516 0.999801159 0.0108951731 0.304052889 0.948370576 -0.0902501047 0.618115902 0.776119709 0.124783397 0.417487055 0.901355922 -0.115161248 0.693303049 -0.720092356 0.0282476954 0.111115426 -0.820281208 0.561063349 0.0733822435 -0.861851573 0.501823545 0.189082623 -0.776007056 0.601714849 -0.155135199 -0.939519227 0.305346847 -0.398281336 -0.914199412 0.07490924 0.110530749 0.973330259 -0.201025367 -0.999650359 0.0187246241 0.0186700691 -0.978967667 -0.182765409 -0.0906593651 -0.99821651 -0.00469081523 -0.0595134497 -0.998702109 -0.0265996344 -0.0434347242 -0.99698925 0.0723312646 -0.0279404614 -0.984009326 0.16382581 0.0699050128 -0.999976397 0.00632834155 0.00268237642 0.273114145 -0.506249726 -0.817997456 0.182237148 0.438403696 0.880108953 -0.0513516665 0.685705781 0.726065159 0.170815691 0.457530409 0.872632742 0.294647336 0.393270195 0.870931387 0.0406190008 -0.998980463 -0.0197011624 -0.0608027354 -0.898064137 0.435641795 0.998326302 0.0494488217 0.0299898665 0.968527257 0.211754918 0.130823761 0.991696715 -0.0340654776 0.124004699 0.999999702 0.000141643803 -0.000790836988 0.997865438 -0.044482436 0.0478108935 0.0663746223 -0.883585751 0.463541359 0.350203007 0.444407046 -0.824536383 0.165886194 0.654931068 -0.737256467 -0.259494781 -0.17551598 0.949661314 0.0418706313 -0.896686792 -0.440680861 0.287460238 -0.837512791 -0.464692324 0.513851702 -0.694992959 -0.502932608 0.0379988402 0.692022026 -0.720875621 -0.1279836 -0.606948853 0.784368098 0.0189568885 -0.546255529 0.837404072 -0.071119532 0.722268581 0.68794626 0.00878544897 0.989308 -0.145576373 0.834179819 -0.374378771 0.404950023 0.0792263821 -0.55831939 0.825834513 -0.192459106 0.075793758 -0.978373528 -0.411613792 -0.366684586 -0.834335983 0.0315288268 0.993491054 -0.109459803 0.0571482889 0.837833762 0.542926013 0.350326002 0.444421411 -0.824476421 0.0380380265 0.992634296 0.115022682 0.060679581 0.851742744 0.520434678</float_array>
          <technique_common>
            <accessor source="#normals_array" count="62" stride="3">
              <param name="X" type="float" />
              <param name="Y" type="float" />
              <param name="Z" type="float" />
            </accessor>
          </technique_common>
        </source>
        <vertices id="vertices">
          <input semantic="POSITION" source="#positions" />
        </vertices>
        <triangles material="scout_b2b2b2" count="46">
          <input semantic="VERTEX" source="#vertices" offset="0" />
          <input semantic="NORMAL" source="#normals" offset="1" />
          <p>0 0 1 1 2 2 3 3 4 4 5 5 6 6 7 7 8 8 9 9 10 10 11 11 12 12 8 13 13 14 10 15 14 15 11 15 1 16 6 17 15 18 7 7 0 19 13 20 0 21 12 12 13 14 16 22 2 23 17 24 17 24 2 23 15 25 18 26 17 24 15 25 18 26 15 25 5 27 18 26 5 27 4 28 3 29 5 29 19 29 19 30 20 30 3 30 21 31 17 32 22 33 4 4 14 34 18 35 9 36 3 37 20 38 9 36 20 38 23 39 20 38 6 40 23 39 14 34 10 41 18 35 6 17 0 19 7 7 9 9 23 42 24 43 20 44 19 44 15 44 4 4 11 45 14 34 21 46 23 47 6 6 2 2 1 1 15 48 11 45 4 4 3 3 24 49 22 50 18 35 17 32 21 31 16 51 16 52 12 12 0 21 15 53 6 40 20 38 22 50 17 54 18 35 19 55 5 55 15 55 23 56 21 56 22 56 0 21 2 57 16 52 8 8 21 46 6 6 16 51 21 31 8 58 1 16 0 19 6 17 10 41 24 49 18 35 24 43 23 42 22 59 11 11 3 60 9 9 8 8 7 7 13 20 24 43 10 10 9 9 12 61 16 51 8 58</p>
        </triangles>
      </mesh>
    </geometry>
  </library_geometries>
  <library_visual_scenes>
    <visual_scene id="scene">
      <node id="left_wrist_roll_link">
        <instance_geometry url="#geometry">
          <bind_material>
            <technique_common>
              <instance_material symbol="scout_b2b2b2" target="#scout_b2b2b2" />
            </technique_common>
          </bind_material>
        </instance_geometry>
      </node>
    </visual_scene>
  </library_visual_scenes>
  <scene>
    <instance_visual_scene url="#scene" />
  </scene>
</COLLADA>