<?xml version='1.0' encoding='utf-8'?>
<COLLADA xmlns="http://www.collada.org/2005/11/COLLADASchema" version="1.4.1">
  <asset>
    <created>2026-09-14T00:00:00Z</created>
    <modified>2026-09-14T00:00:00Z</modified>
    <unit name="metre" meter="1" />
    <up_axis>Z_UP</up_axis>
  </asset>
  <library_effects>
    <effect id="scout_b2b2b2_effect">
      <profile_COMMON>
        <technique sid="common">
          <lambert>
            <emission>
              <color>0 0 0 1</color>
            </emission>
            <ambient>
              <color>0.35 0.35 0.35 1</color>
            </ambient>
            <diffuse>
              <color>0.7 0.7 0.7 1</color>
            </diffuse>
          </lambert>
        </technique>
      </profile_COMMON>
    </effect>
  </library_effects>
  <library_materials>
    <material id="scout_b2b2b2" name="scout_b2b2b2">
      <instance_effect url="#scout_b2b2b2_effect" />
    </material>
  </library_materials>
  <library_geometries>
    <geometry id="geometry" name="left_shoulder_roll_link">
      <mesh>
        <source id="positions">
          <float_array id="positions_array" count="84">0.0408042073 0.02088066 -0.00465464545 0.0394724943 -0.000492797117 0.025303971 0.0404473878 -0.0213676859 -0.00044993448 0.0267532766 0.00607479597 -0.102436498 0.0313959643 0.0215265416 -0.0673721731 0.0345651172 0.0251041614 0.0242617894 0.0342811942 -0.0297014453 0.0158142094 0.0340788998 -0.00776115665 0.0335923582 -0.0342303291 -0.0257715564 0.0208571944 0.0152321421 0.0262757875 -0.103216618 0.0347431786 -0.0325818025 -0.0045980541 0.0339909084 0.0374574587 -0.00360117853 0.00248605385 -0.0200042613 -0.102217779 0.0164384302 0.038102787 -0.0666873381 -0.0401389562 -0.0231506657 -0.000707991247 -0.0396640226 0.00291451137 0.0251690298 -0.00630950229 0.0299905036 -0.103206553 -0.00845435355 0.0405397303 -0.0641487315 -0.0337030776 0.0375954583 -0.0055388459 -0.0340531878 0.0291924831 0.0192808695 -0.0341006331 0.00900081545 0.0327534378 -0.0348516963 -0.0333374403 0.00227160915 -0.0247905385 0.0119499126 -0.103313826 -0.0256222393 0.031064352 -0.0668936074 -0.0134103419 -0.0157389492 -0.1032371 -0.0400833972 0.0254005753 -0.000907235604 -0.0327097587 0.00543074682 -0.0759334043 -0.0340428762 -0.0126017174 0.0313102081</float_array>
          <technique_common>
            <accessor source="#positions_array" count="28" stride="3">
              <param name="X" type="float" />
              <param name="Y" type="float" />
              <param name="Z" type="float" />
            </accessor>
          </technique_common>
        </source>
        <source id="normals">
          <float_array id="normals_array" count="150">0.979832351 0.199381605 -0.0132478913 0.930972099 0.0136910696 0.364833504 0.967997968 -0.250765383 -0.00983148348 0.941145122 -0.105684929 -0.321055412 0.904410839 0.375932783 -0.201780885 0.941926599 0.239057466 0.235851273 0.924751282 -0.315197438 0.213273719 0.033870846 -0.210079044 0.977097511 -0.00241135526 -0.793820143 0.60814786 0.0196553562 -0.871287167 0.490379751 0.798632503 0.527179718 -0.290288925 0.881816685 -0.14129594 0.449927479 0.883898854 -0.452173322 -0.119424187 0.908541381 0.417233437 -0.0216519088 0.694015741 -0.648423374 -0.312872499 0.720651686 0.659156084 -0.214882284 -0.955513 -0.291979223 -0.0417499617 -0.93639648 -0.256738007 0.239263982 -0.941902816 0.0242097545 0.33501184 -0.258485943 0.904262781 -0.339843899 0.0974609479 0.984867215 -0.143310428 0.161489367 0.937315583 -0.308805317 -0.169997543 0.974177122 -0.14859274 -0.0517375655 0.983924925 0.170923993 -0.0129242912 0.796486497 0.604518175 0.0217640903 0.971969306 0.23409833 0.0347429626 0.661563635 0.749083757 -0.0157373827 0.2584185 0.965904891 -0.022788316 -0.990935564 0.132391095 0.0119771007 -0.999863803 0.011355659 -0.774042666 0.553169191 -0.307996333 -0.728034437 0.6483441 -0.22274591 -0.163349003 -0.969617426 -0.182096586 -0.24111934 -0.948131025 -0.207144916 -0.962630272 0.270095289 0.019785028 -0.968964219 -0.0730210915 -0.236169875 -0.870440602 -0.358687699 -0.337159097 -0.864087164 -0.408548892 -0.294008791 -0.888393641 -0.458738297 -0.0177749749 -0.893000841 0.446849138 -0.0536223352 -0.915208936 0.3177571 0.247836709 -0.853502929 0.163694322 0.494708955 -0.912123084 -0.185826987 0.365376264 -0.00439869892 -0.375126392 0.92696321 -0.00789654534 -0.0430843979 -0.999040246 0.0195710454 -0.0208020657 -0.999592066 0.0108234808 -0.010342421 -0.999887943 0.0493776985 -0.0543108545 -0.997302473 0.0272156633 -0.0197423548 -0.99943459 0.00607211236 -0.000274998631 -0.999981523</float_array>
          <technique_common>
            <accessor source="#normals_array" count="50" stride="3">
              <param name="X" type="float" />
              <param name="Y" type="float" />
              <param name="Z" type="float" />
            </accessor>
          </technique_common>
        </source>
        <vertices id="vertices">
          <input semantic="POSITION" source="#positions" />
        </vertices>
        <triangles material="scout_b2b2b2" count="52">
          <input semantic="VERTEX" source="#vertices" offset="0" />
          <input semantic="NORMAL" source="#normals" offset="1" />
          <p>0 0 1 1 2 2 3 3 0 0 2 2 4 4 0 0 3 3 5 5 1 1 0 0 6 6 2 2 1 1 7 7 8 8 6 9 9 10 4 4 3 3 1 1 7 11 6 6 10 12 3 3 2 2 0 0 11 13 5 5 6 6 10 12 2 2 10 12 12 14 3 3 13 15 4 4 9 10 11 13 0 0 4 4 5 5 7 11 1 1 11 13 4 4 13 15 14 16 8 17 15 18 16 19 13 20 9 21 17 22 13 20 16 19 18 23 19 24 11 25 17 22 11 25 13 20 5 26 20 27 7 7 6 9 21 28 10 29 22 30 23 31 16 19 23 31 17 22 16 19 12 32 21 28 24 33 18 23 17 22 23 31 25 34 23 31 26 35 26 35 23 31 22 30 26 35 22 36 24 37 21 38 26 35 24 37 25 34 18 39 23 31 18 39 25 34 19 40 25 34 15 18 19 40 15 18 20 41 19 40 15 18 8 17 27 42 14 16 21 38 8 17 15 18 27 42 20 41 21 38 14 16 26 35 14 16 25 34 26 35 5 26 11 25 19 24 17 22 18 23 11 25 7 7 27 43 8 8 6 9 8 8 21 28 19 24 20 27 5 26 9 44 3 45 16 46 3 45 12 47 24 48 24 48 22 49 16 46 3 45 24 48 16 46 20 27 27 43 7 7 12 32 10 29 21 28 14 16 15 18 25 34</p>
        </triangles>
      </mesh>
    </geometry>
  </library_geometries>
  <library_visual_scenes>
    <visual_scene id="scene">
      <node id="left_shoulder_roll_link">
        <instance_geometry url="#geometry">
          <bind_material>
            <technique_common>
              <instance_material symbol="scout_b2b2b2" target="#scout_b2b2b2" />
            </technique_common>
          </bind_material>
        </instance_geometry>
      </node>
    </visual_scene>
  </library_visual_scenes>
  <scene>
    <instance_visual_scene url="#scene" />
  </scene>
</COLLADA>