<?xml version='1.0' encoding='utf-8'?>
<COLLADA xmlns="http://www.collada.org/2005/11/COLLADASchema" version="1.4.1">
  <asset>
    <created>2026-09-14T00:00:00Z</created>
    <modified>2026-09-14T00:00:00Z</modified>
    <unit name="metre" meter="1" />
    <up_axis>Z_UP</up_axis>
  </asset>
  <library_effects>
    <effect id="scout_333333_effect">
      <profile_COMMON>
        <technique sid="common">
          <lambert>
            <emission>
              <color>0 0 0 1</color>
            </emission>
            <ambient>
              <color>0.1 0.1 0.1 1</color>
            </ambient>
            <diffuse>
              <color>0.2 0.2 0.2 1</color>
            </diffuse>
          </lambert>
        </technique>
      </profile_COMMON>
    </effect>
  </library_effects>
  <library_materials>
    <material id="scout_333333" name="scout_333333">
      <instance_effect url="#scout_333333_effect" />
    </material>
  </library_materials>
  <library_geometries>
    <geometry id="geometry" name="left_hip_pitch_link">
      <mesh>
        <source id="positions">
          <float_array id="positions_array" count="87">-0.0428379551 0.0455434583 0.00733348168 -0.029239675 0.0141207362 -0.0631071553 -0.0302198734 0.0105054202 -0.0133553632 -0.0115924496 0.0159177035 -0.0583429076 -0.00241896673 0.0377532057 -0.0774644166 -0.00503896503 0.00639952254 -0.0584851056 -0.0175363086 0.0733512565 0.00994400866 -0.0391839594 0.0889700353 -0.012821747 0.0245030746 0.0809904188 0.0165604819 -0.0133432448 0.0939351842 -0.0130614555 -0.0200818963 0.00678619137 0.0286871213 -0.0256351456 0.0551610552 -0.0806118548 -0.0192834157 0.0432979986 0.010924276 -0.0154438233 0.0127383647 -0.00880969036 -0.0293450914 0.0904940963 -0.0585007593 -0.00300920568 0.0771319568 -0.0736863017 0.0398636833 0.0744218007 -0.0713937134 -0.00676086824 0.0965115055 -0.0486835875 0.0381351262 0.0143235577 -0.0614357889 -0.0088654859 0.00882009417 -0.0353678502 0.0297492631 0.00274439994 -0.0277318377 0.0216941182 0.00193550496 0.0350805447 0.0324470401 0.099833183 -0.032762561 0.0152034955 0.00871661678 0.00612364477 -0.0158814657 0.00897157099 0.00461875508 0.00602351921 0.00779330544 -0.0156295132 0.0321855918 0.0422367752 -0.0391385294 0.0300440006 0.0679894537 -0.0289690699 0.0270681735 0.0497883335 -0.00780157512</float_array>
          <technique_common>
            <accessor source="#positions_array" count="29" stride="3">
              <param name="X" type="float" />
              <param name="Y" type="float" />
              <param name="Z" type="float" />
            </accessor>
          </technique_common>
        </source>
        <source id="normals">
          <float_array id="normals_array" count="192">-0.984482884 -0.094328247 -0.147971749 -0.984255731 -0.0791509897 -0.158037186 -0.947625279 -0.316652894 -0.0416801199 -0.577520907 -0.386896729 -0.718874454 -0.281763732 0.47477442 0.833785594 -0.324223638 0.607534111 0.725107849 -0.331460714 0.215355828 0.918561757 -0.127895653 0.643550694 0.754642487 -0.146010414 0.932497501 0.330347389 -0.144309953 0.243448853 0.959117949 0.0919797868 -0.254592091 -0.962664306 0.0525798835 -0.822974443 -0.565639853 0.0540028214 -0.107471928 -0.992740393 -0.146780059 0.0407698229 0.988328636 -0.187507942 0.973444104 0.131329387 -0.999218345 0.0326758511 0.0222485065 -0.990780711 -0.0411297716 -0.129080996 -0.994989336 -0.0252980348 -0.0967277586 -0.995001137 0.0604362004 0.0794999748 -0.979714453 0.00881243404 -0.200204834 -0.98074019 0.00506986864 -0.195251107 -0.97737819 0.0285211839 -0.209567264 0.110571101 0.096560888 -0.989166319 0.177744687 -0.0421878919 -0.98317194 0.117232956 0.821357727 -0.55823642 -0.0361788943 0.70713371 -0.706153691 0.0891727507 0.809044421 -0.580943465 -0.0715792999 0.68397522 -0.72598511 0.178613424 -0.325948298 -0.928361416 0.219634876 -0.839564264 -0.496882617 -0.113571338 -0.993358076 -0.0184733383 -0.176864997 -0.549512029 0.816550851 -0.17497173 -0.54847455 0.817655504 -0.17212896 -0.546911776 0.819304049 0.984757185 -0.000184630131 0.173934758 0.988444209 -0.0159459841 0.150743991 0.991871238 -0.00546066789 0.127128586 0.984897435 -0.0107214404 0.172806352 0.985035777 0.0292966943 0.169841856 0.972198546 0.00208773464 0.234148666 0.969294012 0.0128105683 0.245570749 -0.098662883 -0.993583024 -0.0553025454 -0.1707616 -0.973082542 -0.154760778 -0.237680361 -0.968095541 -0.0793669894 -0.0337523222 -0.996672213 -0.0741973519 -0.110001631 -0.992312193 0.0567111671 -0.821745872 -0.564641893 -0.076898098 0.0370614752 -0.519753158 -0.853512228 -0.0269572735 0.97312963 0.228674591 -0.196404979 0.979912937 0.034578342 0.978441536 0.00246359827 0.206509322 0.981447518 0.00594123546 0.191638798 -0.962507427 -0.123502791 -0.241508916 0.992044032 -0.00322879036 0.125850052 -0.0769998953 -0.991646707 -0.103478454 -0.0841891095 -0.995638728 -0.0401964411 -0.169964239 -0.545717776 0.820551217 0.153969571 -0.945609272 -0.286559641 -0.0254822616 -0.995659769 -0.089511618 0.142006174 0.839286923 -0.524815857 -0.228752926 0.499042213 -0.835840285 -0.234885588 0.971980333 0.00910910405 -0.188757524 0.981992006 -0.00789320935 -0.121001296 0.230490595 0.965521991</float_array>
          <technique_common>
            <accessor source="#normals_array" count="64" stride="3">
              <param name="X" type="float" />
              <param name="Y" type="float" />
              <param name="Z" type="float" />
            </accessor>
          </technique_common>
        </source>
        <vertices id="vertices">
          <input semantic="POSITION" source="#positions" />
        </vertices>
        <triangles material="scout_333333" count="54">
          <input semantic="VERTEX" source="#vertices" offset="0" />
          <input semantic="NORMAL" source="#normals" offset="1" />
          <p>0 0 1 1 2 2 3 3 4 3 5 3 6 4 7 5 0 6 8 7 9 8 6 4 8 7 6 4 10 9 4 10 1 11 11 12 0 6 12 13 6 4 2 14 10 14 13 14 12 15 13 16 10 17 6 18 12 15 10 17 11 19 7 20 14 21 7 20 11 19 1 1 7 20 1 1 0 0 15 22 16 23 4 10 16 24 15 25 17 26 15 25 14 27 17 26 4 10 16 23 18 28 1 11 3 29 19 30 12 31 0 32 13 33 20 34 8 35 21 36 16 37 22 38 8 35 16 39 20 34 18 40 20 41 21 42 23 43 21 42 24 44 23 43 19 30 20 41 25 45 25 45 20 41 23 43 5 46 19 46 3 46 4 10 18 28 5 47 4 10 3 29 1 11 9 8 22 48 17 49 4 10 11 12 15 22 22 48 9 8 8 7 6 4 9 8 7 5 26 50 20 34 16 39 26 50 16 39 27 51 28 52 27 52 16 52 28 53 16 37 8 35 28 53 8 35 20 34 20 34 26 50 28 53 10 54 24 44 21 42 24 44 10 54 2 55 25 45 24 44 2 55 19 30 25 45 2 55 2 56 13 33 0 32 18 57 20 41 5 58 5 58 20 41 19 30 19 30 2 55 1 11 17 26 22 59 16 24 11 60 14 27 15 25 24 44 25 45 23 43 9 8 17 49 14 61 9 8 14 61 7 62 21 63 8 7 10 9 26 50 27 51 28 53</p>
        </triangles>
      </mesh>
    </geometry>
  </library_geometries>
  <library_visual_scenes>
    <visual_scene id="scene">
      <node id="left_hip_pitch_link">
        <instance_geometry url="#geometry">
          <bind_material>
            <technique_common>
              <instance_material symbol="scout_333333" target="#scout_333333" />
            </technique_common>
          </bind_material>
        </instance_geometry>
      </node>
    </visual_scene>
  </library_visual_scenes>
  <scene>
    <instance_visual_scene url="#scene" />
  </scene>
</COLLADA>