<?xml version='1.0' encoding='utf-8'?>
<COLLADA xmlns="http://www.collada.org/2005/11/COLLADASchema" version="1.4.1">
  <asset>
    <created>2026-09-14T00:00:00Z</created>
    <modified>2026-09-14T00:00:00Z</modified>
    <unit name="metre" meter="1" />
    <up_axis>Z_UP</up_axis>
  </asset>
  <library_effects>
    <effect id="scout_b2b2b2_effect">
      <profile_COMMON>
        <technique sid="common">
          <lambert>
            <emission>
              <color>0 0 0 1</color>
            </emission>
            <ambient>
              <color>0.35 0.35 0.35 1</color>
            </ambient>
            <diffuse>
              <color>0.7 0.7 0.7 1</color>
            </diffuse>
          </lambert>
        </technique>
      </profile_COMMON>
    </effect>
  </library_effects>
  <library_materials>
    <material id="scout_b2b2b2" name="scout_b2b2b2">
      <instance_effect url="#scout_b2b2b2_effect" />
    </material>
  </library_materials>
  <library_geometries>
    <geometry id="geometry" name="left_hand_thumb_1_link">
      <mesh>
        <source id="positions">
          <float_array id="positions_array" count="72">0.0132615492 -0.0431390889 -0.0104799289 0.0145076867 -0.0216362998 -0.0100872079 0.0142784351 -0.0208435263 0.00894159358 0.00437735673 0.00368202198 0.0127244871 0.0041732369 0.00435623387 0.00961285643 -0.00459637772 0.00446440792 0.011078259 -0.00653947378 -0.0155371204 -0.0089204153 0.00811712258 -0.019539658 -0.0109626735 0.00855547003 -0.0387842283 -0.0109309219 0.0134029258 -0.0434400775 0.0087709045 0.00648354227 -0.05294016 0.00941774808 0.00683927676 -0.0190283582 0.0126361065 -0.00724352663 -0.0550205521 -0.0129035665 -0.0101833073 -0.054800462 0.0121293636 -0.00758177275 -0.0164712239 0.011217257 -0.00909815356 -0.0186749585 -0.0119458111 -0.00605119765 -0.0410009064 -0.0109873908 -0.00553885661 0.00497771893 -0.0129043432 0.0065321764 -0.00450659776 -0.0111500956 0.00552876061 0.00585883204 -0.0108928541 -0.00580462301 0.00465544127 -0.00960822869 0.00649490207 -0.0528516807 -0.00944162346 -0.00571512384 -0.0383071899 0.0106832478 0.00733477296 -0.0377348922 0.0113052586</float_array>
          <technique_common>
            <accessor source="#positions_array" count="24" stride="3">
              <param name="X" type="float" />
              <param name="Y" type="float" />
              <param name="Z" type="float" />
            </accessor>
          </technique_common>
        </source>
        <source id="normals">
          <float_array id="normals_array" count="171">0.94829917 -0.317368895 -0.00237510679 0.998205483 -0.0581123009 0.0144470641 0.998787642 -0.0490611196 0.00402600877 0.0469049215 0.976878166 0.208587974 0.229985461 0.972967386 0.021002356 0.244159281 0.969642878 0.0133766355 0.282883346 0.958834827 -0.0247553326 0.0532342903 -0.0410418659 -0.997738302 0.0797114968 -0.00184602244 -0.996816278 0.131674424 0.00306789228 -0.991288245 0.315947801 0.948104918 -0.0356933065 0.942264736 -0.334648222 -0.0121521931 0.812279522 -0.583172739 -0.0105581461 0.470785588 0.165703967 0.866546631 0.194301203 0.0225926675 0.980681717 0.441045672 0.0314731561 0.896932602 -0.998342097 0.0239809044 -0.0523254462 -0.991042078 0.0644823238 -0.116951473 -0.99997139 -0.00704159727 -0.00276889419 -0.996139109 -0.0526810922 0.0702247843 0.276228338 0.107050262 -0.955111563 0.628917873 0.0525327586 -0.775694966 0.34396109 0.0154348612 -0.938857019 0.0579463243 -0.0237397626 -0.998037398 0.131861269 -0.0155008156 -0.991146982 0.10721612 -0.0157796424 -0.994110525 0.175471663 0.0413969643 -0.983613729 -0.770088315 0.637854576 -0.0102712493 -0.996459186 0.0336385705 -0.077055715 -0.824934661 0.146263555 0.545975983 0.13726759 -0.990502477 0.00790043175 0.157051906 -0.987579942 -0.00453873631 0.128207654 -0.991654396 0.0135793975 0.114463307 -0.993179977 0.0221739542 0.136793151 0.0170023553 0.99045372 0.114044286 -0.0136130862 0.993382394 0.131536573 0.0102981851 0.991257846 0.145358935 0.0276554096 0.988992393 0.145062789 0.0280131549 0.989025831 -0.120201819 -0.0086297309 -0.992711961 -0.164588317 0.0169222672 -0.986217201 -0.138193682 0.00170266919 -0.990403771 -0.106757782 -0.0163283776 -0.994150996 -0.0951551422 0.991451919 0.0892669633 0.0975877941 -0.0211231615 -0.995002747 0.0351116136 -0.0653321445 -0.997245669 0.201402754 0.977918625 0.055785872 0.149293348 -0.0302841179 0.988329053 0.177200884 0.0382210314 0.983432233 0.122865044 0.0166099835 0.992284358 0.170349509 -0.0969809219 0.980599701 0.128117248 -0.19332777 0.972733438 -0.0914565548 -0.015747685 0.995684564 -0.177658573 0.0318641514 0.983576179 -0.149549276 0.0148048988 0.988643408 0.820394814 -0.571793318 -0.00218836893 0.993289411 0.107840203 -0.0417925119</float_array>
          <technique_common>
            <accessor source="#normals_array" count="57" stride="3">
              <param name="X" type="float" />
              <param name="Y" type="float" />
              <param name="Z" type="float" />
            </accessor>
          </technique_common>
        </source>
        <vertices id="vertices">
          <input semantic="POSITION" source="#positions" />
        </vertices>
        <triangles material="scout_b2b2b2" count="44">
          <input semantic="VERTEX" source="#vertices" offset="0" />
          <input semantic="NORMAL" source="#normals" offset="1" />
          <p>0 0 1 1 2 2 3 3 4 3 5 3 6 4 2 5 7 6 8 7 7 8 1 9 7 6 2 5 1 10 0 0 9 11 10 12 4 13 11 14 2 15 9 11 0 0 2 2 12 16 13 17 14 18 15 19 12 16 14 18 12 20 15 21 16 22 16 22 15 23 8 7 8 7 15 23 7 8 15 23 17 24 18 25 7 8 15 23 18 25 19 26 18 25 17 24 15 27 14 27 6 27 20 28 17 28 6 28 17 29 15 29 6 29 12 30 21 31 10 32 12 30 10 32 13 33 18 34 19 35 20 36 7 37 18 34 6 38 18 34 20 36 6 38 14 39 5 40 4 41 14 39 4 41 2 42 20 43 19 43 17 43 16 22 8 7 21 44 21 44 12 20 16 22 21 44 8 7 0 45 6 4 14 46 2 5 1 9 0 45 8 7 22 47 13 48 10 49 22 47 10 49 9 50 23 51 22 47 9 50 9 50 2 15 23 51 14 52 13 48 22 47 5 53 14 52 3 54 3 54 14 52 11 14 11 14 14 52 22 47 11 14 22 47 23 51 10 12 21 55 0 0 4 56 3 56 11 56 23 51 2 15 11 14</p>
        </triangles>
      </mesh>
    </geometry>
  </library_geometries>
  <library_visual_scenes>
    <visual_scene id="scene">
      <node id="left_hand_thumb_1_link">
        <instance_geometry url="#geometry">
          <bind_material>
            <technique_common>
              <instance_material symbol="scout_b2b2b2" target="#scout_b2b2b2" />
            </technique_common>
          </bind_material>
        </instance_geometry>
      </node>
    </visual_scene>
  </library_visual_scenes>
  <scene>
    <instance_visual_scene url="#scene" />
  </scene>
</COLLADA>