<?xml version='1.0' encoding='utf-8'?>
<COLLADA xmlns="http://www.collada.org/2005/11/COLLADASchema" version="1.4.1">
  <asset>
    <created>2026-09-14T00:00:00Z</created>
    <modified>2026-09-14T00:00:00Z</modified>
    <unit name="metre" meter="1" />
    <up_axis>Z_UP</up_axis>
  </asset>
  <library_effects>
    <effect id="scout_b2b2b2_effect">
      <profile_COMMON>
        <technique sid="common">
          <lambert>
            <emission>
              <color>0 0 0 1</color>
            </emission>
            <ambient>
              <color>0.35 0.35 0.35 1</color>
            </ambient>
            <diffuse>
              <color>0.7 0.7 0.7 1</color>
            </diffuse>
          </lambert>
        </technique>
      </profile_COMMON>
    </effect>
  </library_effects>
  <library_materials>
    <material id="scout_b2b2b2" name="scout_b2b2b2">
      <instance_effect url="#scout_b2b2b2_effect" />
    </material>
  </library_materials>
  <library_geometries>
    <geometry id="geometry" name="left_hand_palm_link">
      <mesh>
        <source id="positions">
          <float_array id="positions_array" count="117">0.00158910302 -0.0157722458 -0.0237153862 0.0551511347 -0.018598048 -0.0143584125 0.0241675284 -0.0190318488 -0.0232101958 0.0712097809 -0.0153403673 -0.0424398445 0.0413137414 -0.0132628214 -0.0398997851 0.0347791463 0.0140310414 -0.0396956913 0.0753169209 -0.00947448332 -0.0117819309 0.0848663896 0.00556881446 -0.0124746868 0.0723532066 -0.014329507 -0.015269462 0.0412798636 -0.0174610484 0.0365102328 0.0018248657 -0.00763943978 0.0252132546 0.0063506905 -0.0195770822 0.0189094972 0.0322615318 0.0120278466 0.0400682762 0.083779335 0.00973307714 -0.0217780415 0.08735127 -0.0112653449 -0.03021539 0.0838419646 0.0156400297 -0.0314307436 0.0271880217 0.0205990728 -0.0236876681 0.00113981485 0.0170380827 -0.0184645839 0.0271840189 0.0207155198 0.0229592081 0.045098085 -0.0202816948 0.0114004081 0.0698212832 0.002537288 0.0444471352 0.0711042657 -0.0174178984 0.0380204618 0.0521789528 -0.0108796051 0.0396838896 0.0844265446 0.00446189754 0.011698029 0.0723085999 -0.0105911074 0.0136670815 0.000647375069 0.0141919367 0.0201317612 0.0669816509 0.0152775822 -0.0412163734 0.0734252408 0.0212989431 -0.0260816719 0.0713808611 0.0104396734 -0.0378150456 0.0694173127 0.0191206429 -0.0243493356 0.0694505721 0.0129680764 -0.0390858911 0.0799943507 0.0173685402 -0.0251377951 0.0846214592 0.00930542033 0.0233764071 0.0723021254 0.0148918452 0.0425750874 0.0756593496 0.0201613624 0.0298085213 0.0496040285 0.0114080664 0.0394269861 0.0757150799 0.0165173188 0.0331335291 0.0703789964 0.0155763496 0.0363428444 0.0518012941 -0.0105353529 -0.0397345051</float_array>
          <technique_common>
            <accessor source="#positions_array" count="39" stride="3">
              <param name="X" type="float" />
              <param name="Y" type="float" />
              <param name="Z" type="float" />
            </accessor>
          </technique_common>
        </source>
        <source id="normals">
          <float_array id="normals_array" count="339">0.134027839 0.849217594 -0.510750413 0.000763440388 -0.993387818 -0.114804648 0.0554525331 -0.995171845 -0.080981493 -0.0439824313 -0.982427776 -0.181387022 -0.0650237352 0.0125724794 -0.997804523 -0.210656881 -0.0431319959 -0.976608038 -0.284001768 0.00689548207 -0.958798945 -0.834630847 0.550242305 -0.0249955859 -0.844125807 0.536114514 0.00573709887 -0.844514072 0.534856856 -0.0269091967 -0.211785316 -0.249133691 0.945028782 -0.429839075 -0.20046711 0.880370021 -0.35308966 -0.538040161 0.765402138 -0.284023762 -0.0907298625 0.954514861 0.99931854 0.0282425508 0.0237665251 0.987271011 0.132729426 0.0876292363 0.99529624 0.0796249881 0.0551839694 -0.116700187 0.965944827 -0.230936557 -0.182796702 0.980602086 -0.0707451403 -0.144465908 0.956674397 0.252791733 0.00117225479 -0.999832571 0.0182607044 0.00367029198 -0.993681073 0.112180553 -0.0430066995 -0.999050856 0.00691573927 0.588358283 -0.788749814 0.178068087 -0.0886578485 -0.0609306544 0.994196773 0.0310813487 -0.99943161 0.0130517185 0.000310604926 -0.999748349 0.0224307608 -0.466953576 0.0465280972 -0.883056879 0.142579585 0.159326404 -0.976875722 0.0227331258 0.30779466 -0.951181173 0.139539212 0.163250089 -0.976666868 -0.047652211 -0.308976084 0.949875295 -0.80718118 0.589172125 -0.0365336873 -0.78144902 0.620558918 -0.0651466697 -0.521141589 0.127906382 -0.84383142 -0.0909622312 0.905432224 -0.414630353 -0.517665029 0.167377785 0.839051604 0.0380638465 0.919480324 -0.391288966 0.207985878 0.961821735 -0.177878559 -0.996417046 -0.0825233608 0.0185180772 -0.920348585 -0.385064304 0.0684392005 -0.984074771 -0.176218584 0.0233202912 0.496061355 0.055698745 -0.866499186 0.533085108 0.0501823351 -0.844572067 0.498890698 -0.146853432 -0.854132414 -0.7682693 -0.219796821 0.601208448 -0.763658285 -0.288258165 0.577696443 -0.76851362 -0.137635812 0.624854565 -0.150237605 -0.9764961 0.154544726 -0.123231277 -0.915867865 0.382099658 -0.140732035 -0.980458796 0.137459397 0.745378375 0.214598671 -0.631156445 -0.766847551 -0.10125415 0.633792102 0.417613417 0.883813679 -0.21088475 0.998949885 -0.0416799672 -0.0190250352 -0.865698397 -0.500565529 -0.000627463101 -0.898080647 -0.439650804 0.0125851706 -0.688112617 -0.723544836 -0.0546245091 -0.142116278 0.864920974 0.481367439 -0.252752423 0.951030314 0.177925602 -0.0531675629 0.917303264 0.394623816 0.902133465 -0.425581843 -0.0709596127 0.823570073 -0.567052364 -0.0135617079 0.839761972 -0.542807639 0.0126357833 0.453541219 0.850940943 0.26495257 -0.0484263487 0.0332029983 -0.998274744 -0.0711693391 -0.609181643 -0.789830804 -0.203925118 0.977581024 -0.0524389371 0.921971142 -0.232106879 -0.30999285 0.710226595 0.349453092 0.611114383 -0.784139633 -0.155595258 -0.600762129 0.849910796 0.089961499 0.519190311 0.872954249 0.385149151 0.299350947 -0.998183846 -0.0577940568 -0.0169973578 -0.999653578 -0.026306089 0.000816074898 0.81422621 -0.0844466984 -0.574373126 0.440366089 -0.307401896 -0.843553066 -0.110409193 0.110167563 -0.987761557 -0.00164554606 0.261830509 0.965112448 0.713066936 -0.153569266 0.68407023 -0.0583175905 -0.99697268 -0.0514252596 -0.140924841 -0.987369955 -0.0723932758 0.10552521 0.0528101288 0.993013382 0.125269741 0.0390175059 0.991355181 0.118376814 0.0438409783 0.992000461 0.141341358 0.0277359094 0.989572287 0.248184323 0.0175087601 -0.968554556 0.596516192 0.0415986367 -0.801522315 0.546687603 0.0821120068 -0.833300829 0.225606084 -0.973851621 0.0267373007 0.818506956 -0.573180258 0.0388683751 0.77794081 -0.628167748 -0.0146097019 0.937568069 -0.347696096 -0.00857778918 0.866519868 -0.490108252 -0.0945366472 0.132861227 -0.0212486628 0.990906835 0.657485485 0.128814787 -0.742374241 0.727485359 0.620096147 -0.293676525 0.595485628 0.711968243 -0.372153312 0.551279128 0.735538483 -0.393794984 0.029341463 -0.998121202 -0.0537880212 -0.0176181216 -0.980588078 -0.195285991 0.825401306 0.5216254 -0.215915933 0.996492326 0.0829656646 -0.0109446393 0.990873754 0.131908938 0.0277341977 0.985623062 0.161095664 0.0509443656 0.959504724 0.252681732 0.124509685 -0.0733058751 0.163787365 0.983768225 -0.38831225 0.586975515 -0.710403681 0.117623076 -0.993002236 -0.0105506098 0.172663942 -0.984979331 -0.00170852395 -0.666943133 -0.742702842 -0.0598276705 0.821831048 -0.109291099 0.559150457 -0.95571053 -0.00604695175 0.294246227</float_array>
          <technique_common>
            <accessor source="#normals_array" count="113" stride="3">
              <param name="X" type="float" />
              <param name="Y" type="float" />
              <param name="Z" type="float" />
            </accessor>
          </technique_common>
        </source>
        <vertices id="vertices">
          <input semantic="POSITION" source="#positions" />
        </vertices>
        <triangles material="scout_b2b2b2" count="82">
          <input semantic="VERTEX" source="#vertices" offset="0" />
          <input semantic="NORMAL" source="#normals" offset="1" />
          <p>0 0 1 0 2 0 3 1 1 2 4 3 3 4 4 5 5 6 6 7 7 8 8 9 9 10 10 11 11 12 12 13 10 11 9 10 13 14 14 15 15 16 16 17 17 18 18 19 19 20 9 21 11 22 1 23 9 23 19 23 20 24 12 13 9 10 21 25 9 26 1 2 4 5 0 27 5 6 20 28 21 29 22 30 20 24 9 10 21 31 23 32 6 7 24 33 17 34 5 6 0 27 16 17 5 35 17 18 12 13 25 36 10 11 26 37 16 17 27 38 0 39 11 40 10 41 15 42 28 43 26 44 26 45 28 46 13 47 29 48 30 49 31 50 31 51 30 51 26 51 31 52 26 45 13 47 27 38 15 53 26 37 15 16 32 54 13 14 31 55 13 56 32 57 12 58 18 19 25 59 12 58 33 60 18 19 21 61 3 62 8 63 34 64 18 19 33 60 26 65 3 4 5 6 35 66 36 66 20 66 36 67 35 67 37 67 20 68 37 68 33 68 20 69 32 69 37 69 20 70 36 70 32 70 34 64 33 71 32 72 25 73 17 74 10 41 10 41 17 74 0 39 8 75 29 75 6 75 38 76 26 76 30 76 38 77 30 77 3 77 29 78 8 78 13 78 14 79 13 79 8 79 2 80 11 22 0 81 21 82 37 83 22 84 22 84 37 83 35 85 35 86 20 28 22 30 15 42 14 87 3 88 3 88 28 43 15 42 8 89 3 89 14 89 7 90 23 91 24 92 24 92 8 63 7 90 8 63 24 92 21 61 24 92 32 93 21 61 34 64 27 38 18 19 27 38 16 17 18 19 16 17 26 37 5 35 26 94 38 94 3 94 30 95 28 43 3 88 28 96 29 97 13 98 19 20 2 80 1 99 11 22 2 80 19 20 21 25 1 2 3 1 18 19 17 18 25 59 0 100 4 3 1 2 29 97 28 96 30 101 37 102 24 103 29 104 29 104 24 103 6 105 33 106 12 13 20 24 32 72 15 53 34 64 37 107 32 107 24 107 29 48 31 50 37 108 31 50 36 109 37 108 31 55 32 57 36 110 34 64 15 53 27 38 33 71 21 111 32 72 37 112 21 112 33 112 23 32 7 8 6 7</p>
        </triangles>
      </mesh>
    </geometry>
  </library_geometries>
  <library_visual_scenes>
    <visual_scene id="scene">
      <node id="left_hand_palm_link">
        <instance_geometry url="#geometry">
          <bind_material>
            <technique_common>
              <instance_material symbol="scout_b2b2b2" target="#scout_b2b2b2" />
            </technique_common>
          </bind_material>
        </instance_geometry>
      </node>
    </visual_scene>
  </library_visual_scenes>
  <scene>
    <instance_visual_scene url="#scene" />
  </scene>
</COLLADA>