<?xml version='1.0' encoding='utf-8'?>
<COLLADA xmlns="http://www.collada.org/2005/11/COLLADASchema" version="1.4.1">
  <asset>
    <created>2026-09-14T00:00:00Z</created>
    <modified>2026-09-14T00:00:00Z</modified>
    <unit name="metre" meter="1" />
    <up_axis>Z_UP</up_axis>
  </asset>
  <library_effects>
    <effect id="scout_b2b2b2_effect">
      <profile_COMMON>
        <technique sid="common">
          <lambert>
            <emission>
              <color>0 0 0 1</color>
            </emission>
            <ambient>
              <color>0.35 0.35 0.35 1</color>
            </ambient>
            <diffuse>
              <color>0.7 0.7 0.7 1</color>
            </diffuse>
          </lambert>
        </technique>
      </profile_COMMON>
    </effect>
  </library_effects>
  <library_materials>
    <material id="scout_b2b2b2" name="scout_b2b2b2">
      <instance_effect url="#scout_b2b2b2_effect" />
    </material>
  </library_materials>
  <library_geometries>
    <geometry id="geometry" name="left_hand_thumb_0_link">
      <mesh>
        <source id="positions">
          <float_array id="positions_array" count="63">-0.0103042061 -0.0237428024 0.00946816709 -0.0111171994 -0.0218157303 -0.00947120041 -0.010168219 -0.0239352193 -0.00946594402 0.00998227391 -0.000197015572 -0.00945669785 0.00997640844 -0.0258162823 0.00948152691 0.0100121144 -0.0257697608 -0.00948346779 -0.00441418868 -0.0280939043 0.0094540799 -0.00716449087 -0.026960345 -0.00946666207 -0.00525010144 -0.027839819 -0.00949034002 -0.00883226935 -0.0256229844 -0.00946039613 -0.00884517375 -0.0256326161 0.00945937261 0.0075433515 -0.028242832 0.00948013552 0.007618431 -0.0281766299 -0.00947811175 0.00996224117 -0.000187144164 0.00947449543 -0.0113428896 -0.000200425275 -0.00944811758 -0.0113923056 -0.0193920378 -0.00945170317 -0.0114279678 -0.019304378 0.00945420284 -0.0113156596 -0.000184338976 0.00944369566 -0.0111906128 -0.021483209 0.00947255641 -0.00327181257 -0.0282281134 -0.00945693348 -0.00701567112 -0.0270480569 0.00946737453</float_array>
          <technique_common>
            <accessor source="#positions_array" count="21" stride="3">
              <param name="X" type="float" />
              <param name="Y" type="float" />
              <param name="Z" type="float" />
            </accessor>
          </technique_common>
        </source>
        <source id="normals">
          <float_array id="normals_array" count="150">-0.869524777 -0.493888617 0.000854295271 -0.964534879 -0.263948143 -0.00195054593 -0.854577601 -0.519322991 -0.000860183209 0.999998689 0.000801163202 0.0013935403 0.999998391 0.000916616991 0.00154972053 0.999997556 0.00116489874 0.00188558362 -0.195893571 -0.980625033 -0.000510875892 -0.523079753 -0.852280259 0.00243915385 -0.310627133 -0.950531363 0.000957689306 -0.709664345 -0.704539955 -0.0001360514 -0.707920849 -0.706291735 7.75678418e-05 0.708717167 -0.705492675 0.000259431807 0.706486344 -0.707726598 -0.000322042324 0.709046781 -0.705161393 0.000345504232 -0.00143347669 -0.999992967 0.003458475 -0.0124459593 -0.999916255 -0.00354100647 -2.479262e-05 0.999999762 -0.000673948729 -0.000160100899 0.999999881 -0.0005216063 -2.6412431e-06 0.999999762 -0.000698888849 -0.998465419 -0.0553474426 -0.00186949363 -0.998640418 -0.0521219 -0.000811506878 -0.999991 0.00423672469 -0.00021897268 -0.999981701 0.00587452296 0.00143633655 -0.971307218 -0.237827301 0.000681007688 -0.00081408734 0.000646299624 -0.999999464 -0.00149630732 0.000279396743 -0.999998868 0.00143424678 0.00130079512 -0.999998152 -0.00194336846 -0.000292640791 -0.999998093 0.00066280301 0.00460428139 -0.999989152 -0.000402354985 0.000187867248 -0.999999881 0.00303212507 0.00337114674 -0.999989748 0.0384431668 0.110420637 -0.993141174 0.00805304199 0.0170541219 -0.99982214 0.0133442683 0.00672961771 -0.999888301 0.0314705856 0.0116120288 -0.999437213 -0.0910268202 -0.995847225 0.00156877923 0.999999285 0.00055304484 0.00105789816 -0.496554971 -0.868005276 -0.000118118689 0.706159532 -0.708052695 -0.000407068146 -0.00154630339 0.000310177304 0.999998748 -0.00131126866 0.000405687577 0.999999046 0.00114562619 0.00179659692 0.999997735 9.91903944e-05 9.3609684e-05 1 -0.0014474116 0.000558038941 0.999998808 -0.00215928536 0.00159157033 0.999996424 0.0105380658 0.00825519301 0.999910414 0.0051136096 0.00271776761 0.999983251 -0.00356822088 -0.00379178813 0.99998647 -0.0197990239 -0.0199345127 0.999605238 0.000133068475 0.999999642 -0.00085168326</float_array>
          <technique_common>
            <accessor source="#normals_array" count="50" stride="3">
              <param name="X" type="float" />
              <param name="Y" type="float" />
              <param name="Z" type="float" />
            </accessor>
          </technique_common>
        </source>
        <vertices id="vertices">
          <input semantic="POSITION" source="#positions" />
        </vertices>
        <triangles material="scout_b2b2b2" count="38">
          <input semantic="VERTEX" source="#vertices" offset="0" />
          <input semantic="NORMAL" source="#normals" offset="1" />
          <p>0 0 1 1 2 2 3 3 4 4 5 5 6 6 7 7 8 8 9 9 10 10 0 0 5 11 11 12 12 13 6 6 12 14 11 15 13 16 3 17 14 18 15 19 16 20 14 21 17 22 14 21 16 20 18 23 16 20 15 19 18 23 15 19 1 1 3 24 5 25 15 26 12 27 19 28 5 25 15 26 5 25 19 28 14 29 3 24 15 26 15 26 19 28 9 30 19 28 8 31 7 32 19 28 7 32 9 30 15 26 9 30 2 33 15 26 2 33 1 34 6 6 8 8 19 35 3 3 13 36 4 4 0 0 2 2 9 9 7 7 6 6 20 37 5 11 4 38 11 12 6 6 19 35 12 14 4 39 13 40 16 41 4 39 16 41 6 42 17 43 16 41 13 40 11 44 4 39 6 42 6 42 16 41 18 45 6 42 18 45 20 46 20 46 18 45 0 47 20 46 0 47 10 48 1 1 0 0 18 23 9 9 7 7 10 10 7 7 20 37 10 10 14 18 17 49 13 16</p>
        </triangles>
      </mesh>
    </geometry>
  </library_geometries>
  <library_visual_scenes>
    <visual_scene id="scene">
      <node id="left_hand_thumb_0_link">
        <instance_geometry url="#geometry">
          <bind_material>
            <technique_common>
              <instance_material symbol="scout_b2b2b2" target="#scout_b2b2b2" />
            </technique_common>
          </bind_material>
        </instance_geometry>
      </node>
    </visual_scene>
  </library_visual_scenes>
  <scene>
    <instance_visual_scene url="#scene" />
  </scene>
</COLLADA>