<?xml version='1.0' encoding='utf-8'?>
<COLLADA xmlns="http://www.collada.org/2005/11/COLLADASchema" version="1.4.1">
  <asset>
    <created>2026-09-14T00:00:00Z</created>
    <modified>2026-09-14T00:00:00Z</modified>
    <unit name="metre" meter="1" />
    <up_axis>Z_UP</up_axis>
  </asset>
  <library_effects>
    <effect id="scout_b2b2b2_effect">
      <profile_COMMON>
        <technique sid="common">
          <lambert>
            <emission>
              <color>0 0 0 1</color>
            </emission>
            <ambient>
              <color>0.35 0.35 0.35 1</color>
            </ambient>
            <diffuse>
              <color>0.7 0.7 0.7 1</color>
            </diffuse>
          </lambert>
        </technique>
      </profile_COMMON>
    </effect>
  </library_effects>
  <library_materials>
    <material id="scout_b2b2b2" name="scout_b2b2b2">
      <instance_effect url="#scout_b2b2b2_effect" />
    </material>
  </library_materials>
  <library_geometries>
    <geometry id="geometry" name="left_shoulder_pitch_link">
      <mesh>
        <source id="positions">
          <float_array id="positions_array" count="78">-0.0261187367 0.00712619629 0.0370244943 -0.0307136979 0.00374520198 -0.0028341366 -0.0278670657 -4.79194604e-08 -0.00263606524 -0.0278670862 -4.80067719e-08 -0.00188290374 -0.0278671179 -4.81086353e-08 -0.00112974225 -0.0278670955 -4.84724296e-08 0.00188290374 -0.0278670695 -4.85742966e-08 0.00263606524 -0.0278670508 -4.867616e-08 0.00338922674 -0.0278670397 -4.87634715e-08 0.00414238824 -0.0278670304 -4.8850783e-08 0.00489554973 -0.0278670099 -3.25962937e-08 0.00527264783 -0.0205882322 0.00211227243 0.0211977474 -0.0278664846 -4.82978066e-08 0.000376580749 -0.0278664846 -4.82104952e-08 -0.000376580749 -0.0310233515 0.0652486011 0.011733612 0.0281932056 0.00188151584 -0.0170093141 -0.0107340394 0.00269996352 -0.026496999 -0.0293199029 0.00793343596 -0.0352223888 0.0256322566 0.00197923952 0.019511465 0.0298338886 0.0496950634 0.0211637709 0.0278268848 0.00513391197 0.0356489941 -0.0309905037 0.0680577829 -0.0333134122 -0.0298892241 0.0371423475 -0.0514076464 0.0280539729 0.0711395666 -0.0315002836 0.031029664 0.069813773 0.00661167642 0.0307816807 0.0375461504 -0.0512789972</float_array>
          <technique_common>
            <accessor source="#positions_array" count="26" stride="3">
              <param name="X" type="float" />
              <param name="Y" type="float" />
              <param name="Z" type="float" />
            </accessor>
          </technique_common>
        </source>
        <source id="normals">
          <float_array id="normals_array" count="186">-0.989230335 -0.0823216289 0.121022858 -0.970677495 -0.228375763 0.0750316978 -0.791701972 -0.594252467 0.14167577 -0.97120738 0.238235563 8.45289651e-06 -0.971163929 0.238412783 -2.63312904e-05 -0.971162677 0.238417819 -2.71903646e-05 -0.971146822 0.238482311 -3.79068879e-05 -0.971208215 0.238232344 8.96636539e-06 -0.971236348 0.23811762 3.29471186e-05 -0.971228182 0.23815088 2.35182506e-05 -0.971218705 0.238189533 1.41573883e-05 -0.971209347 0.238227725 1.42092722e-05 -0.971255183 0.23804079 4.27417835e-05 -0.0847094953 -0.985039771 0.150069863 0.125994503 -0.992030919 1.79611345e-06 0.140864581 -0.990028858 -3.24109242e-05 -0.0735917836 -0.957836986 0.277727515 0.22081542 -0.974902511 0.0283842776 -0.999417841 -0.0187508408 0.0285024215 0.152532503 -0.687402368 -0.710078716 0.168021441 -0.645485401 -0.745061994 0.07694868 -0.584440053 -0.807780147 0.996070027 -0.0871655345 -0.0157050975 0.997998357 -0.0614766032 0.0148312273 0.989496052 -0.0830326527 -0.118335061 -0.999419928 -0.0339365043 -0.00284508755 -0.999583006 -0.0207012221 -0.0201313626 -0.0636758283 0.996776342 0.0488083996 -0.0598708503 0.996744275 0.0540034734 -0.0700157136 0.996737957 0.0401398093 -0.0539246909 0.996611476 0.0621107146 0.996982455 -0.0663634241 0.0402727015 0.999991357 -0.00340772606 -0.00238409336 0.999982476 0.000310388394 -0.00591647206 0.989678621 0.123328559 -0.0729815215 0.00508004939 -0.484601527 -0.874720275 0.104139119 -0.629058838 -0.770350575 -0.0708899647 -0.996387422 -0.046761848 -0.00907468144 -0.995896578 0.0900427625 -0.101971261 -0.993667185 -0.0471952632 -0.0213081259 -0.999772251 0.00118103251 0.00711680576 0.456316888 0.889788866 -0.00863941293 0.359081089 0.933266401 0.0356018059 0.307494491 0.950883627 0.278496444 -0.960437238 -7.16480863e-05 0.770162821 0.570260823 -0.285747886 0.000282458495 -0.99999994 -1.18508972e-07 -0.000282435649 -0.99999994 -1.12456512e-07 -0.000376764656 -0.99999994 -1.49941712e-07 -0.00037658072 -0.99999994 -1.08034094e-07 0.000753160333 -0.999999702 -1.22934551e-07 0.860237002 -0.509894431 -1.07341011e-05 0.100755155 -0.994911253 1.22483207e-05 -0.997714281 -0.0465756655 -0.0489584766 -0.00154882891 0.507266879 -0.861787617 -0.000486832811 0.505920589 -0.862579942 -0.000976180308 0.506541133 -0.862215221 -0.209683314 -0.968507111 -0.134264424 0.000137347772 0.505128503 -0.863044143 -0.00301432796 -0.976756513 0.214330643 -0.02506724 0.444745183 0.895306289 0.0238807276 0.584971189 0.810702384</float_array>
          <technique_common>
            <accessor source="#normals_array" count="62" stride="3">
              <param name="X" type="float" />
              <param name="Y" type="float" />
              <param name="Z" type="float" />
            </accessor>
          </technique_common>
        </source>
        <vertices id="vertices">
          <input semantic="POSITION" source="#positions" />
        </vertices>
        <triangles material="scout_b2b2b2" count="48">
          <input semantic="VERTEX" source="#vertices" offset="0" />
          <input semantic="NORMAL" source="#normals" offset="1" />
          <p>0 0 1 1 2 2 0 3 2 4 3 5 0 3 3 5 4 6 0 3 5 7 6 8 0 3 6 8 7 9 0 3 7 9 8 10 0 3 8 10 9 11 0 3 9 11 10 12 11 13 12 14 13 15 0 16 10 17 11 13 0 0 14 18 1 1 15 19 16 20 17 21 18 22 19 23 20 24 21 25 22 26 14 18 14 18 22 26 1 1 23 27 14 28 24 29 14 28 23 27 21 30 15 31 19 23 18 22 24 32 25 33 23 34 22 35 25 36 17 21 11 13 1 37 18 38 1 37 16 39 18 38 18 38 16 39 15 40 19 41 0 42 20 43 11 13 13 15 2 44 11 45 2 45 1 45 0 3 4 6 5 7 4 46 3 47 5 48 5 48 3 47 6 49 3 47 2 44 6 49 7 50 6 49 2 44 10 51 9 51 8 51 8 52 7 50 2 44 10 17 8 52 13 15 8 52 2 44 13 15 10 17 13 15 12 14 10 17 12 14 11 13 17 53 1 1 22 26 25 54 22 55 23 56 16 39 1 37 17 57 21 58 23 56 22 55 17 21 25 36 15 19 19 23 25 33 24 32 15 31 25 33 19 23 0 16 11 13 20 59 11 13 18 38 20 59 14 60 0 42 19 41 19 41 24 61 14 60</p>
        </triangles>
      </mesh>
    </geometry>
  </library_geometries>
  <library_visual_scenes>
    <visual_scene id="scene">
      <node id="left_shoulder_pitch_link">
        <instance_geometry url="#geometry">
          <bind_material>
            <technique_common>
              <instance_material symbol="scout_b2b2b2" target="#scout_b2b2b2" />
            </technique_common>
          </bind_material>
        </instance_geometry>
      </node>
    </visual_scene>
  </library_visual_scenes>
  <scene>
    <instance_visual_scene url="#scene" />
  </scene>
</COLLADA>