<?xml version='1.0' encoding='utf-8'?>
<COLLADA xmlns="http://www.collada.org/2005/11/COLLADASchema" version="1.4.1">
  <asset>
    <created>2026-09-14T00:00:00Z</created>
    <modified>2026-09-14T00:00:00Z</modified>
    <unit name="metre" meter="1" />
    <up_axis>Z_UP</up_axis>
  </asset>
  <library_effects>
    <effect id="scout_b2b2b2_effect">
      <profile_COMMON>
        <technique sid="common">
          <lambert>
            <emission>
              <color>0 0 0 1</color>
            </emission>
            <ambient>
              <color>0.35 0.35 0.35 1</color>
            </ambient>
            <diffuse>
              <color>0.7 0.7 0.7 1</color>
            </diffuse>
          </lambert>
        </technique>
      </profile_COMMON>
    </effect>
  </library_effects>
  <library_materials>
    <material id="scout_b2b2b2" name="scout_b2b2b2">
      <instance_effect url="#scout_b2b2b2_effect" />
    </material>
  </library_materials>
  <library_geometries>
    <geometry id="geometry" name="left_wrist_pitch_link">
      <mesh>
        <source id="positions">
          <float_array id="positions_array" count="78">0.0530820005 -0.0272603016 0.01946784 0.0580027141 -0.0253833942 -0.0204825848 0.0713571608 -0.0123940939 0.0185676031 0.0727811828 0.0111348368 -0.0200690087 0.072005935 0.00872200634 0.0192591287 -0.0159524754 -0.0212628618 0.0222541932 0.00013356928 0.0180821531 0.0292176791 -0.0216963757 0.0193372667 0.0168351121 -0.0277820192 0.019179767 -0.00245853281 -0.000137837225 0.0192515254 -0.0277794003 -0.0224592146 0.0172676872 -0.0191063024 0.0603772178 0.023887489 0.0187532008 0.0711046979 -0.0120180249 -0.0208404176 0.0407197662 -0.0272852741 -0.0205917545 -0.0272098705 -0.0209064726 -0.00727711944 -0.0181594044 -0.01871497 -0.0227020681 0.041535005 0.0272402242 -0.0210287236 0.0417425521 0.0276440755 0.0185116436 0.0613637753 0.0235044882 -0.0205690097 -0.00313557894 -0.0212643091 -0.0275864713 -0.0257443301 -0.0208334532 0.0106460731 0.0207441468 0.0196436141 -0.0217486154 0.0230185892 0.0199036505 0.020175267 0.0250191018 -0.0219951142 0.0191964675 0.0215764586 -0.0211324282 -0.0216901824 0.00199879915 -0.020567663 0.0279526636</float_array>
          <technique_common>
            <accessor source="#positions_array" count="26" stride="3">
              <param name="X" type="float" />
              <param name="Y" type="float" />
              <param name="Z" type="float" />
            </accessor>
          </technique_common>
        </source>
        <source id="normals">
          <float_array id="normals_array" count="186">0.246736154 -0.968206048 0.0412113518 0.445557654 -0.895165801 -0.012510566 0.655506253 -0.754711568 0.0268693268 0.998247147 -0.0591786243 0.000753257249 0.999352276 -0.0312868468 0.0177800581 0.998940825 -0.0450464487 0.00938530732 -0.560571611 -0.0178006198 0.827914655 -0.441099614 0.0215507057 0.897199392 -0.778849483 0.042408362 0.625775576 -0.00861600786 0.999625802 -0.0259621218 -0.0300186444 0.999526083 -0.00682183867 -0.148768112 0.9758991 -0.159652591 0.751456439 0.659363985 0.0235018749 0.777646899 0.62726903 0.0424126536 0.791592956 0.608750165 0.0529517196 0.713911772 -0.700145185 -0.011255051 -0.116736151 -0.993161976 0.00140899664 -0.978288174 -0.0285947844 -0.205267042 -0.932658434 0.00428403495 -0.360735178 -0.858141363 -0.051498197 -0.510824203 -0.999588907 0.028662743 0.000719628704 -0.0875118673 0.996116102 -0.00971465372 -0.096670948 0.995315969 0.000913131924 0.188892305 0.981954932 -0.0091756694 -0.348865271 0.0311854668 -0.936653912 -0.0279818047 0.00816582516 -0.999575078 -0.0469286963 0.012046407 -0.99882561 -0.923556685 -0.0122510409 0.383266181 -0.178718954 0.983864009 0.00843645819 -0.217722952 0.975993633 0.00575819751 -0.140436143 -0.990014076 0.0122392131 0.0382069126 0.0211200304 0.999046624 0.195262492 0.00786276069 0.980719507 0.0213539135 0.00795744546 0.999740303 0.125716507 -0.0141622666 -0.991965115 0.145778626 0.00155788136 -0.989315987 -0.299510628 0.059367694 -0.952244103 0.155818626 -0.0181025062 0.987619817 0.363406509 -0.00729136774 0.93160212 0.354756117 -0.0134777641 0.93486172 -0.300638527 -0.0456889272 0.952643156 -0.14154166 -0.989922166 0.00447958522 -0.00213029864 -0.999942243 0.0105357561 0.00323268422 -0.999994755 -0.000207310746 -0.0386469252 -0.998854578 -0.0282122139 -0.0378099754 -0.998714745 -0.0337529592 -0.0130704017 -0.99986577 -0.00988249574 0.0273879468 0.00236880081 -0.999622047 0.997380733 -0.0719830319 -0.00707654376 0.0192027651 -0.117508233 -0.992886245 0.026189873 -0.059063673 -0.997910619 0.0151398825 0.010946407 -0.999825478 0.0310831126 -0.00260074483 -0.999513447 0.0260614511 0.00886631478 -0.999621034 0.197670847 0.98025769 -0.0045883772 0.0754087046 0.996641636 -0.0319216549 -0.0168377161 0.999847174 0.00470228773 0.00830546487 0.00754076475 0.999937057 -0.0388964526 -0.0227463041 0.998984337 -0.00737557234 0.0276916921 0.999589324 0.734535694 0.678467095 0.0118204653 -0.247648939 -0.928347707 -0.277201355</float_array>
          <technique_common>
            <accessor source="#normals_array" count="62" stride="3">
              <param name="X" type="float" />
              <param name="Y" type="float" />
              <param name="Z" type="float" />
            </accessor>
          </technique_common>
        </source>
        <vertices id="vertices">
          <input semantic="POSITION" source="#positions" />
        </vertices>
        <triangles material="scout_b2b2b2" count="48">
          <input semantic="VERTEX" source="#vertices" offset="0" />
          <input semantic="NORMAL" source="#normals" offset="1" />
          <p>0 0 1 1 2 2 3 3 4 4 2 5 5 6 6 7 7 8 8 9 9 10 10 11 3 12 11 13 4 14 12 15 2 2 1 1 13 16 1 1 0 0 14 17 10 18 15 19 14 17 8 20 10 18 16 21 17 22 18 23 10 24 9 25 19 26 20 27 7 8 8 20 21 28 22 29 17 22 0 0 23 30 13 16 17 31 22 32 0 33 24 34 9 25 21 35 15 36 10 24 19 26 7 8 20 27 5 6 23 37 6 38 25 39 8 20 14 17 20 27 25 40 6 7 5 6 24 41 23 30 25 42 25 42 5 43 24 41 19 44 24 41 14 45 5 43 20 46 24 41 24 41 20 46 14 45 16 47 24 34 21 35 2 5 12 48 3 3 13 16 23 30 24 41 13 49 24 34 1 50 1 50 24 34 12 51 24 34 16 47 18 52 18 52 3 53 24 34 24 34 3 53 12 51 22 32 6 38 23 37 18 23 17 22 11 54 7 55 6 56 8 9 6 56 21 28 9 10 9 10 8 9 6 56 0 33 2 57 17 31 17 31 2 57 4 58 4 58 11 59 17 31 11 13 3 12 18 60 22 29 21 28 6 56 22 32 23 37 0 33 21 28 17 22 16 21 19 26 9 25 24 34 19 44 14 45 15 61</p>
        </triangles>
      </mesh>
    </geometry>
  </library_geometries>
  <library_visual_scenes>
    <visual_scene id="scene">
      <node id="left_wrist_pitch_link">
        <instance_geometry url="#geometry">
          <bind_material>
            <technique_common>
              <instance_material symbol="scout_b2b2b2" target="#scout_b2b2b2" />
            </technique_common>
          </bind_material>
        </instance_geometry>
      </node>
    </visual_scene>
  </library_visual_scenes>
  <scene>
    <instance_visual_scene url="#scene" />
  </scene>
</COLLADA>