<?xml version='1.0' encoding='utf-8'?>
<COLLADA xmlns="http://www.collada.org/2005/11/COLLADASchema" version="1.4.1">
  <asset>
    <created>2026-09-14T00:00:00Z</created>
    <modified>2026-09-14T00:00:00Z</modified>
    <unit name="metre" meter="1" />
    <up_axis>Z_UP</up_axis>
  </asset>
  <library_effects>
    <effect id="scout_b2b2b2_effect">
      <profile_COMMON>
        <technique sid="common">
          <lambert>
            <emission>
              <color>0 0 0 1</color>
            </emission>
            <ambient>
              <color>0.35 0.35 0.35 1</color>
            </ambient>
            <diffuse>
              <color>0.7 0.7 0.7 1</color>
            </diffuse>
          </lambert>
        </technique>
      </profile_COMMON>
    </effect>
  </library_effects>
  <library_materials>
    <material id="scout_b2b2b2" name="scout_b2b2b2">
      <instance_effect url="#scout_b2b2b2_effect" />
    </material>
  </library_materials>
  <library_geometries>
    <geometry id="geometry" name="left_elbow_link">
      <mesh>
        <source id="positions">
          <float_array id="positions_array" count="81">0.0219047796 0.0255799629 -0.0385646857 0.0469120853 0.0182381812 -0.0419733413 0.0414571539 0.0200530495 -0.0287809446 0.0699767321 -0.00102920271 -0.0438069254 0.0481055193 -0.0278654937 -0.0274358783 0.0459833853 -0.0102760065 -0.0379173718 0.0720458105 -0.0223687906 0.0120743653 0.0701150149 -0.0301540475 -0.0207894184 0.0984332114 -0.0277444907 -0.00426767813 0.0451832563 0.0212721918 0.0194486491 0.0421407111 0.0202605017 0.00948830042 0.0705470964 0.0335059501 -0.0265003424 -0.0295334291 0.0245846529 -0.0103257252 -0.0219971091 0.0241593979 0.0230311621 -0.00759916799 0.0341098309 0.0126249352 0.0678429976 0.0301808063 0.00839292817 0.0723978281 0.0330417193 -0.00702394126 0.0983306244 0.0254718717 -0.0313679725 0.0184549224 0.0234358758 0.0257283747 0.0714126378 0.0126273064 0.0193682518 -0.0139018176 0.0274353847 -0.0268214364 0.0480139405 -0.0281351209 0.00425208313 0.0980055556 0.0224607605 0.0135982828 0.046602767 -0.0112280641 0.017883664 0.0981139317 -0.0186099485 -0.0325937904 0.0982140154 -0.0122237271 0.0165090337 0.0209231023 0.0223419834 -0.0178666357</float_array>
          <technique_common>
            <accessor source="#positions_array" count="27" stride="3">
              <param name="X" type="float" />
              <param name="Y" type="float" />
              <param name="Z" type="float" />
            </accessor>
          </technique_common>
        </source>
        <source id="normals">
          <float_array id="normals_array" count="201">-0.277999401 -0.960493565 0.0129790138 -0.279592633 -0.959977686 0.0164542086 -0.277944297 -0.960511148 0.0128589403 -0.0561882108 -0.451638311 -0.890430093 0.102987148 -0.577834725 -0.809629977 -0.080862537 -0.377681553 -0.922397912 -0.18790254 -0.132316723 -0.973234236 0.10262347 -0.935865581 0.337081701 -0.0141861448 -0.990547359 0.136435792 0.0721241236 -0.907037079 0.414827436 -0.948366702 -0.102618419 0.300116748 -0.837116957 -0.456080616 0.302035898 -0.934516013 -0.277903616 0.222372249 0.0617429353 -0.618682504 -0.783211172 -0.27670002 -0.96090275 0.0101513816 -0.0388977528 0.899891794 -0.434375048 0.0492782854 0.808812082 -0.585998833 0.165278748 0.564049184 -0.809031188 -0.355388999 0.933496594 -0.047777649 -0.501775146 0.85602361 0.124279149 -0.16754356 0.949485838 0.265340984 0.255629241 0.271841973 -0.927769184 0.0943185017 0.880358815 0.464835912 -0.382026643 0.922311485 0.0582854077 0.155878738 0.278105825 -0.947817981 0.0694213063 0.802867234 0.592102051 0.225911334 0.478449792 0.848557532 0.183012858 0.547685683 0.816423118 0.865547657 0.379995435 0.326237231 -0.150115192 0.974527597 -0.166617438 0.0621057525 -0.988959134 0.134546295 -0.100802384 -0.994867921 -0.00875659566 -0.159564167 0.783727705 0.60025847 -0.985191047 -0.101785727 -0.13797918 -0.992382467 -0.114424944 0.0456506498 -0.991464257 -0.117284842 -0.0569467843 -0.996762514 -0.0803229958 -0.00356410909 -0.994059384 -0.108619429 0.00691360189 0.253019273 -0.919932246 -0.299509436 -0.925006092 -0.0238125455 -0.379205406 0.382893771 0.023798015 -0.923485816 0.0148061486 -0.317703635 0.94807446 -0.0997390151 -0.629566967 0.770517707 -0.011607429 -0.323328793 0.94621551 0.312348247 0.949224532 0.0375686474 0.312624246 0.9491207 0.0378949381 0.277228236 0.960797906 -0.00344237755 0.0276998281 -0.0847224817 0.996019483 0.0603568144 -0.0776711628 0.995150387 0.999983191 0.00564924581 0.00130254158 0.999780893 0.0203989111 -0.00469086086 0.99999696 0.00113660377 -0.00218610675 -0.0844066739 -0.970927417 -0.223998815 0.0277282391 -0.994434536 -0.101641849 -0.0456433371 -0.996429682 -0.0710250363 -0.0519088395 -0.998532772 0.0154217808 -0.017293185 -0.999811411 -0.00883906055 -0.0292058438 -0.987349629 -0.15584521 -0.0404185653 -0.999180019 -0.00236781081 0.204130679 -0.783238709 0.587254465 0.999997616 -0.000358866935 0.00215293909 0.999948382 0.00665481528 0.00767436996 -0.0312297884 0.743635714 0.667855203 -0.0747525394 -0.618529677 -0.782197595 -0.0129759898 -0.0486586466 0.998731196 0.335654795 0.939715266 0.065353334 0.18178241 0.0833183601 0.979802608</float_array>
          <technique_common>
            <accessor source="#normals_array" count="67" stride="3">
              <param name="X" type="float" />
              <param name="Y" type="float" />
              <param name="Z" type="float" />
            </accessor>
          </technique_common>
        </source>
        <vertices id="vertices">
          <input semantic="POSITION" source="#positions" />
        </vertices>
        <triangles material="scout_b2b2b2" count="50">
          <input semantic="VERTEX" source="#vertices" offset="0" />
          <input semantic="NORMAL" source="#normals" offset="1" />
          <p>0 0 1 1 2 2 3 3 4 4 5 5 5 5 1 6 3 3 6 7 7 8 8 9 9 10 0 11 10 12 4 4 3 3 7 13 10 14 0 0 2 2 0 15 11 16 1 17 12 18 13 19 14 20 1 17 11 16 3 21 15 22 16 23 11 16 3 21 11 16 17 24 15 22 11 16 14 20 18 25 9 26 15 22 15 22 9 26 19 27 16 28 15 28 19 28 0 15 20 29 11 16 7 8 21 30 4 31 20 29 12 18 14 20 19 32 22 32 16 32 10 12 2 33 23 34 2 33 5 35 23 34 9 10 10 12 23 34 21 36 23 34 4 37 23 34 5 35 4 37 7 38 24 38 8 38 5 35 2 33 1 39 14 20 11 16 20 29 3 21 17 24 24 40 23 41 21 42 6 43 16 44 17 45 11 46 6 43 25 47 19 48 6 7 21 30 7 8 25 49 8 50 24 51 20 52 26 53 12 54 26 53 18 55 12 54 12 54 18 55 13 56 0 57 9 58 26 53 0 57 26 53 20 52 26 53 9 58 18 55 25 59 6 7 8 9 17 60 22 61 25 49 17 60 25 49 24 51 14 20 13 62 18 25 15 22 14 20 18 25 24 63 7 13 3 3 19 48 9 64 23 41 23 41 6 43 19 48 16 44 22 65 17 45 22 66 19 48 25 47</p>
        </triangles>
      </mesh>
    </geometry>
  </library_geometries>
  <library_visual_scenes>
    <visual_scene id="scene">
      <node id="left_elbow_link">
        <instance_geometry url="#geometry">
          <bind_material>
            <technique_common>
              <instance_material symbol="scout_b2b2b2" target="#scout_b2b2b2" />
            </technique_common>
          </bind_material>
        </instance_geometry>
      </node>
    </visual_scene>
  </library_visual_scenes>
  <scene>
    <instance_visual_scene url="#scene" />
  </scene>
</COLLADA>