<?xml version='1.0' encoding='utf-8'?>
<COLLADA xmlns="http://www.collada.org/2005/11/COLLADASchema" version="1.4.1">
  <asset>
    <created>2026-09-14T00:00:00Z</created>
    <modified>2026-09-14T00:00:00Z</modified>
    <unit name="metre" meter="1" />
    <up_axis>Z_UP</up_axis>
  </asset>
  <library_effects>
    <effect id="scout_b2b2b2_effect">
      <profile_COMMON>
        <technique sid="common">
          <lambert>
            <emission>
              <color>0 0 0 1</color>
            </emission>
            <ambient>
              <color>0.35 0.35 0.35 1</color>
            </ambient>
            <diffuse>
              <color>0.7 0.7 0.7 1</color>
            </diffuse>
          </lambert>
        </technique>
      </profile_COMMON>
    </effect>
  </library_effects>
  <library_materials>
    <material id="scout_b2b2b2" name="scout_b2b2b2">
      <instance_effect url="#scout_b2b2b2_effect" />
    </material>
  </library_materials>
  <library_geometries>
    <geometry id="geometry" name="left_hip_yaw_link">
      <mesh>
        <source id="positions">
          <float_array id="positions_array" count="96">-0.120410666 -0.0193050001 -0.192151532 -0.0890309662 -0.0345314704 -0.221922562 -0.12150111 -0.0371824466 -0.171706796 -0.0977349654 -0.0240747444 -0.140103266 -0.0850431472 -0.0383860134 -0.136573777 -0.076002039 -0.0425885916 -0.200293094 -0.097055465 -0.0398684926 -0.165755793 -0.075541012 -0.0170766115 -0.225828588 -0.0496121608 -0.0362048596 -0.208074018 -0.0538284667 -0.0362144075 -0.143007979 -0.0403800681 -0.0332594179 -0.162338421 -0.0382438898 -0.0358919539 -0.185251638 -0.0302530695 -0.016755566 -0.198768273 -0.0526633747 -0.0156796798 -0.128150836 -0.0418135822 -0.0348237865 -0.108047873 -0.053978838 -0.0183687117 -0.0592483021 -0.0465100966 0.0148671139 -0.122873574 -0.032469701 -0.0413692258 -0.0012386475 0.030120993 -0.0249169338 -0.0896596909 -0.0436954647 0.0323485807 -0.0946337432 -0.0462014973 0.0361860655 -0.00108201639 0.00586165953 0.0208993442 -0.142664045 -0.0341748782 0.0318654589 -0.183637321 -0.034079913 0.0167057086 -0.201143771 0.0441970862 0.0395087339 -0.00126102741 0.0467344671 -0.0384629741 -0.00200437312 0.0361774378 0.0220537148 -0.0725686029 -0.114210434 -0.0169865713 -0.136919156 -0.112640001 0.0152917216 -0.138607278 -0.122434013 0.0158208571 -0.194919348 -0.0506301746 -0.022321783 -0.00121102238 -0.0879458115 0.0165453441 -0.227898628</float_array>
          <technique_common>
            <accessor source="#positions_array" count="32" stride="3">
              <param name="X" type="float" />
              <param name="Y" type="float" />
              <param name="Z" type="float" />
            </accessor>
          </technique_common>
        </source>
        <source id="normals">
          <float_array id="normals_array" count="234">-0.708838701 -0.511829138 -0.485364407 -0.782490849 0.488817751 0.385700971 -0.640585065 -0.40759927 0.650779188 -0.0307281632 -0.990615845 -0.133176774 -0.0598569587 -0.997913957 0.0241850261 -0.112823099 -0.964160264 -0.240137368 -0.584867835 0.281807214 -0.760601282 -0.64210552 -0.0730990469 -0.763123214 -0.598262191 -0.0446956679 -0.800052881 0.416141778 -0.140722364 -0.898344696 0.464610666 -0.175775245 -0.867893994 0.28595826 -0.414352477 -0.864025414 0.162801236 0.369958431 0.914672911 0.36346209 -0.924915493 0.111475013 0.14609386 -0.989248514 0.00662944093 0.160464346 -0.986372113 0.0363489427 0.726744235 -0.233105108 -0.646146178 -0.927905738 -0.312674761 0.20304057 -0.927428722 -0.183262169 0.326022953 -0.878892481 -0.47310704 0.0609736741 -0.106566422 -0.5788638 0.808430731 -0.126615822 -0.344933748 0.930047929 -0.102140792 -0.590938389 0.800224364 -0.987888634 0.155134723 -0.00304073421 -0.96579504 0.251527488 -0.0630385503 -0.979882836 0.199274018 -0.0109306024 0.182190701 -0.982982039 -0.0235137325 -0.734740913 -0.678338945 0.0034734488 -0.771859288 -0.63563329 0.0142671932 0.631043375 -0.689709902 -0.355083853 0.741552174 -0.565085053 -0.361634105 -0.906168044 -0.421377003 -0.036068663 0.81749332 -0.47513923 -0.325495541 -0.977481544 0.20753634 -0.0381897949 -0.992259979 0.122960113 0.0173482038 0.786796093 0.452403933 -0.419860154 0.63535881 0.627383888 -0.45023185 0.681591809 0.163283065 -0.713282049 -0.0367815718 0.998442829 -0.0419413149 -0.0460843742 0.998386323 -0.0331801921 -0.0599008389 0.998001039 -0.0201451033 0.101991214 -0.991363287 -0.0824416503 0.516237915 0.817677557 -0.254758447 0.520520985 0.814001858 -0.257796109 -0.988485217 -0.0114923976 0.150880516 -0.99255693 0.0539997257 0.109154947 -0.99115324 0.0194207728 0.131293759 -0.98435688 -0.0432434604 0.170796722 0.181080714 -0.967003047 -0.179206371 0.0337995254 -0.998749971 0.0368245617 -0.0988130644 -0.994183898 -0.042829033 -0.186077833 -0.155897215 0.970088184 -0.380577534 -0.92116046 0.0813891143 -0.168014631 -0.0762782916 0.982828915 -0.9952057 0.0751929879 0.0625434592 0.00162784616 -0.00173137698 0.999997199 -0.000733227353 -0.00214942615 0.999997437 0.00402277848 -0.00433376245 0.999982536 -0.723751187 -0.690041125 -0.00524120079 -0.036270462 -0.999333978 -0.00400851574 0.0100046899 -0.00920707453 0.999907553 0.00606335606 -0.00547094364 0.999966681 -0.686847329 -0.096329309 -0.720389724 -0.615213156 -0.202578202 -0.761888981 -0.00920692366 0.999892056 0.0114526711 -0.00463643484 0.999848425 0.0167827401 -0.00524167623 0.999852002 0.0163857061 0.441971272 0.108240202 -0.890474856 -0.971761584 0.185963333 -0.145248279 -0.97418946 0.168001696 -0.150765851 0.0359722562 -0.997284532 -0.0642621145 -0.0678119287 0.997617662 -0.0126689468 0.968987048 -0.0017210372 -0.247105584 0.000801435905 0.999720871 0.0236110371 -0.00913954154 0.999881268 0.0124076586 0.98884809 -0.00114593224 -0.148923129 -0.23063767 0.0620068349 0.971062005 0.992237866 0.03343172 -0.11977616</float_array>
          <technique_common>
            <accessor source="#normals_array" count="78" stride="3">
              <param name="X" type="float" />
              <param name="Y" type="float" />
              <param name="Z" type="float" />
            </accessor>
          </technique_common>
        </source>
        <vertices id="vertices">
          <input semantic="POSITION" source="#positions" />
        </vertices>
        <triangles material="scout_b2b2b2" count="60">
          <input semantic="VERTEX" source="#vertices" offset="0" />
          <input semantic="NORMAL" source="#normals" offset="1" />
          <p>0 0 1 0 2 0 2 1 3 1 0 1 3 2 2 2 4 2 5 3 6 4 1 5 1 6 0 7 7 8 7 9 8 10 1 11 9 12 3 12 4 12 10 13 9 14 11 15 7 9 12 16 8 10 13 17 9 18 14 19 9 20 13 21 3 22 15 23 16 24 13 25 14 26 9 14 10 13 17 27 15 28 14 19 12 16 11 29 8 30 14 31 10 31 11 31 12 16 18 32 11 29 19 33 15 23 20 34 21 35 18 32 12 16 22 36 21 35 23 37 20 38 24 39 19 40 18 32 25 41 11 29 7 9 23 37 12 16 22 36 26 42 21 35 24 43 26 42 22 36 0 44 27 45 28 46 28 46 29 47 0 44 8 48 11 15 5 3 5 3 1 5 8 48 5 3 11 15 6 4 6 4 11 15 9 14 9 14 4 49 6 4 2 50 6 4 4 49 3 22 13 21 27 51 0 52 3 52 27 52 13 21 16 53 27 51 30 54 20 34 15 23 13 17 14 19 15 28 20 55 30 56 17 57 30 58 15 28 17 27 14 59 11 29 25 41 25 60 24 61 17 57 29 62 31 63 0 7 29 64 28 65 23 66 23 37 7 9 31 67 15 23 19 33 16 24 12 16 23 37 21 35 20 55 17 57 24 61 16 24 19 33 22 68 23 69 16 24 22 68 14 59 25 41 17 70 19 40 24 39 22 71 26 72 18 32 21 35 23 66 28 65 16 73 23 66 31 74 29 64 2 50 1 5 6 4 26 72 25 75 18 32 27 51 16 53 28 76 25 75 26 72 24 77 7 8 0 7 31 63</p>
        </triangles>
      </mesh>
    </geometry>
  </library_geometries>
  <library_visual_scenes>
    <visual_scene id="scene">
      <node id="left_hip_yaw_link">
        <instance_geometry url="#geometry">
          <bind_material>
            <technique_common>
              <instance_material symbol="scout_b2b2b2" target="#scout_b2b2b2" />
            </technique_common>
          </bind_material>
        </instance_geometry>
      </node>
    </visual_scene>
  </library_visual_scenes>
  <scene>
    <instance_visual_scene url="#scene" />
  </scene>
</COLLADA>