<?xml version='1.0' encoding='utf-8'?>
<COLLADA xmlns="http://www.collada.org/2005/11/COLLADASchema" version="1.4.1">
  <asset>
    <created>2026-09-14T00:00:00Z</created>
    <modified>2026-09-14T00:00:00Z</modified>
    <unit name="metre" meter="1" />
    <up_axis>Z_UP</up_axis>
  </asset>
  <library_effects>
    <effect id="scout_333333_effect">
      <profile_COMMON>
        <technique sid="common">
          <lambert>
            <emission>
              <color>0 0 0 1</color>
            </emission>
            <ambient>
              <color>0.1 0.1 0.1 1</color>
            </ambient>
            <diffuse>
              <color>0.2 0.2 0.2 1</color>
            </diffuse>
          </lambert>
        </technique>
      </profile_COMMON>
    </effect>
  </library_effects>
  <library_materials>
    <material id="scout_333333" name="scout_333333">
      <instance_effect url="#scout_333333_effect" />
    </material>
  </library_materials>
  <library_geometries>
    <geometry id="geometry" name="left_ankle_roll_link">
      <mesh>
        <source id="positions">
          <float_array id="positions_array" count="213">-0.0605159812 -0.00841210503 -0.00353851938 -0.0605058409 -0.0181715433 -0.0349423215 -0.0439642295 -0.0256389529 -0.00140912179 -0.0539377034 -0.0130511457 -0.0147347227 -0.0548704602 -0.0115202218 -0.00215586717 -0.0424338169 -0.0233521033 -0.00602783263 0.0168774743 -0.0283052363 0.00108228298 -0.0423290655 -0.0303220842 -0.0344041102 0.0218607001 -0.0257124659 -0.0137946708 -0.0303244069 -0.0226684846 -0.0139881754 -0.0180333033 -0.0124782817 0.000273667945 -0.0264040232 -0.0102896728 -0.0127997529 -0.018611297 -0.00816139579 -0.0136566758 -0.0258018244 -0.00352906459 -0.00663733063 -0.0181503985 0.00579510303 -0.012795263 -0.0121491896 -0.0290171523 -0.0345221795 0.018484015 -0.0297319777 -0.0332545415 0.0169028137 -0.0237333998 0.0074715144 -0.0430040658 -0.0132872388 0.018246958 -0.0415645279 -0.0110198306 0.0157591123 -0.0477351733 0.0140165007 0.0134677505 -0.0140654687 -0.0230604559 0.00970243011 -0.0252456553 -0.0130626988 0.0186281018 -0.0255838204 0.0106770676 0.0205151532 -0.022204604 -0.00735085644 0.0139002055 -0.0270002782 0.00399387022 0.0123187164 -0.0204256568 0.00643756101 0.00130977412 -0.0567074716 0.0167080518 -0.00557334907 -0.0659485981 0.00611453597 -0.0346979126 -0.0556627102 0.0104584675 -0.00356563996 -0.0487404726 0.0288730972 -0.0349238813 -0.0466591492 0.0197486002 -0.0146061014 -0.0404829271 0.0239494666 -0.00457070256 -0.0263719857 0.0109732132 -0.0130227515 -0.0184991136 0.0153666716 0.00288307248 0.0399957038 0.0268448815 -0.0143671669 -0.0234229416 0.0258257259 0.00802311394 0.0147713814 0.0277498215 0.00463279057 -0.0410159528 0.0287263598 -0.0103683565 -0.0432196967 0.0109459665 0.0152459312 0.00276593678 0.0284317676 -0.0329754576 -0.0191393495 0.0218083113 0.0106689315 0.0133154616 0.0251972321 0.00473265955 0.0972884223 -0.035110604 -0.0224451143 0.0457964018 -0.0378694534 -0.0344216451 0.0873791426 -0.0235367864 -0.0134797366 0.0457516573 -0.0278479513 -0.0110743297 0.0830393508 -0.0222762991 -0.00607877085 0.0388756543 -0.0169021972 0.0147269769 0.0709423497 -0.0115882978 0.000256391533 0.103251263 -0.0126656964 -0.0127036143 0.133828223 -0.0238796324 -0.020007303 0.115576386 -0.035894841 -0.0348928347 0.0939944163 -0.0035067352 -0.00552201504 0.141926572 0.00845707301 -0.0192752238 0.0377770774 -0.0177908633 0.0201286916 0.0646512657 -0.00123228715 0.00760326209 0.0426399447 0.0361352861 -0.0345046148 0.0416199975 0.0352669917 -0.0189974289 0.0914536566 0.0228185095 -0.0137987658 0.100432493 0.0370046757 -0.0347897969 0.0692093596 0.0179240555 -0.000350928516 0.144101754 -0.00317854225 -0.0351746902 0.0893306211 0.0207357984 -0.0073682596 0.100012317 0.0348953716 -0.0224754885 0.0392812602 0.0187931322 0.0167180616 0.129661992 0.0248785801 -0.0199768133 0.10070584 0.0133580761 -0.0115883769 0.129219487 0.0285992622 -0.0347429924 0.0367399417 0.017434679 0.0171730127 0.0386129729 0.00512178196 0.0238104258</float_array>
          <technique_common>
            <accessor source="#positions_array" count="71" stride="3">
              <param name="X" type="float" />
              <param name="Y" type="float" />
              <param name="Z" type="float" />
            </accessor>
          </technique_common>
        </source>
        <source id="normals">
          <float_array id="normals_array" count="459">-0.898207903 -0.256704777 0.356826633 -0.816260099 -0.566474676 0.113251567 -0.386765063 -0.861173034 0.329839081 0.68249619 0.729888976 -0.0382233001 0.626044273 0.739249706 -0.24815008 0.382541865 0.923937619 -0.00101795862 -0.02590652 -0.940730155 0.338165075 -0.285941303 -0.953812242 0.0920854807 0.0668344572 0.995529175 -0.0667440295 0.114913203 0.959499359 0.257208049 0.221037045 -0.928930104 -0.297037959 -0.0537930988 0.580654442 0.812371075 0.0245404225 -0.999698818 -1.73782191e-05 -0.160242736 -0.986509204 0.0334933251 -0.023463469 0.987269819 -0.157314405 -0.681734204 -0.603986859 0.412841767 0.34231618 0.797491074 -0.496817529 -0.839614153 0.0700224265 0.538651049 -0.782023728 -0.0265129004 0.622684479 0.0944961533 0.971826136 -0.215926886 -0.105143219 -0.795115769 0.597273707 -0.000714427792 -0.846689224 0.532087266 0.202883899 0.768565476 -0.606749713 0.244032815 0.0327147692 -0.969215035 0.182356372 0.0804914683 -0.979932308 0.225767538 0.0470077954 -0.973046422 -0.0866213739 -0.880367756 0.466314673 -0.490778029 -0.854295194 0.171221167 0.806115568 0.565735519 -0.173554182 -0.848121464 -0.0785661936 -0.52394402 -0.798160732 0.524037898 0.29719308 -0.973745883 0.20051375 0.107764356 0.972126305 -0.0385429487 0.231268018 0.891691148 -0.139196739 0.430710047 0.996799767 0.0403567478 0.0690037608 -0.718478918 0.689597249 0.0907943472 0.832436204 -0.186770558 0.521695971 0.33409819 -0.938153684 -0.0908077732 0.627617955 -0.726941824 -0.278659761 0.658060431 -0.747302055 -0.0921743736 -0.895721078 0.149199814 0.418835491 -0.940809786 0.104916722 0.322287798 -0.982220531 -0.031060908 0.185143456 0.968130052 -0.235468969 0.0853146687 0.811707199 -0.562689066 0.156564444 0.872910023 -0.460280061 0.16177243 0.97303164 -0.22136794 0.0648506135 0.0756602883 -0.935528874 0.34505257 -0.0518026128 -0.9882195 -0.144009233 -0.0768826157 0.843091905 0.532245398 -0.15202117 0.869899571 0.469216645 -0.277832717 0.940313101 0.196520403 0.834102511 -0.00531372149 -0.551583827 0.818153858 0.0208025891 -0.574622929 0.818540335 0.0201925784 -0.574094057 0.801306248 0.0464453436 -0.59644872 0.375814915 -0.771603227 -0.513216913 -0.338795662 0.609171152 0.717027187 -0.152731508 0.358457893 0.92096746 -0.147602499 0.0136926835 0.988951981 -0.0685618073 0.996922076 0.0380210541 0.286262512 -0.000814578612 -0.958150864 0.138901725 -0.913761973 -0.381766051 0.191582739 -0.710170567 -0.677461267 -0.0895903185 -0.959656 -0.26652196 -0.717425108 0.675978959 0.168385535 0.481767893 0.317512304 0.816753089 0.074221544 0.602494776 0.794664204 0.0428771377 0.580999792 0.812773526 -0.0132991988 -0.990165293 -0.139269084 0.112414166 -0.89894855 0.423384666 -0.0799623877 -0.979631305 0.18419683 -0.0256544463 0.664443016 0.746898472 0.271395147 -0.537802815 0.798193455 -0.432738811 0.356586635 -0.827999473 -0.43220368 0.168096811 -0.885970354 -0.331317842 0.478840888 -0.812982082 -0.360910028 0.18129392 -0.914809525 0.281995237 -0.406230688 0.869169354 0.192499623 -0.920219541 0.340793014 0.333065927 -0.0356715284 0.942228556 -0.0203850009 -0.079511188 0.996625543 0.280266076 0.0555393323 0.9583143 -0.0582175776 -0.811756968 0.581086338 -0.0793530792 0.933985114 -0.34838897 0.0983784944 -0.912950337 0.396034479 -0.236913443 0.965213656 0.110610195 -0.17870757 0.980686188 -0.0794870257 -0.0991970599 0.98490411 0.141858339 0.475867331 -0.152633414 0.866171658 0.439426541 0.0754371658 0.895105302 0.304970443 0.790067852 0.531776071 -0.105266549 0.992708027 0.0587346517 -0.0705266148 0.976903498 0.201706573 -0.307387561 -0.633616686 -0.709959745 0.145877227 0.975883484 0.162392139 -0.326496929 -0.50448513 -0.799308777 0.923553407 -0.23809883 0.300596088 0.32877785 0.373610348 0.867364049 0.168895259 0.885198295 0.433472455 0.165409878 0.631615222 0.75743103 0.293862253 0.602171659 0.742316842 -0.368071318 -0.17956081 -0.912294567 -0.29896605 -0.0700265914 0.951690912 -0.0743929222 -0.00657355273 0.997207344 -0.0844938904 0.00266046426 0.996420443 0.290360957 0.933037817 0.21244058 0.792146027 0.597036123 0.126698419 0.875911415 0.470474064 -0.106926762 0.848962784 0.528369129 -0.00939661264 -0.386269599 0.254998207 0.886437654 -0.139828295 0.523137093 0.840699494 -0.965522885 -0.00659210654 0.260234803 -0.0890510008 0.462094545 0.882348299 0.186369523 -0.0679524541 0.980126977 -0.487300307 -0.0702395365 -0.870404959 -0.150084481 -0.940660894 -0.304354548 -0.472105116 -0.0875025317 -0.877188742 0.545811713 0.122357152 0.828925967 0.00844250526 0.999958873 0.00331947743 0.889023721 0.41886279 -0.184907421 0.485376388 0.750992656 -0.447682709 -0.991447687 -0.0278954916 0.127488524 0.980350912 0.0481841192 0.191286176 0.961260378 0.107675649 0.253740817 -0.0246848334 0.0108157666 0.999636769 -0.00115582126 0.0130045498 0.999914765 -0.00388758047 0.0122333132 0.999917626 -0.00922941137 -0.0625275522 0.998000562 0.0270439424 -5.54541002e-05 0.999634266 0.0635769144 -0.0741125271 0.995221257 -0.0329197794 0.0813631117 0.996140718 -0.0574023575 0.047227338 0.99723345 0.0242381133 -0.0749156326 0.996895254 -0.0692518279 -0.0130481618 0.99751389 -0.942092299 -0.318229735 0.105791837 -0.921738267 -0.376910597 0.0913069248 -0.11741028 0.902583659 -0.414195091 -0.00684179971 0.00121964177 -0.99997586 -0.0228895303 -0.00209712982 -0.999735773 -0.0145760998 0.0042908811 -0.999884546 -0.00223394204 0.000949335226 -0.999997079 -0.00311184162 0.00298161362 -0.999990702 -0.0165618435 0.00582649466 -0.999845862 -0.0203916039 0.00549156964 -0.999776959 0.0168020744 0.00585838594 -0.99984169 0.0165949743 -0.00375830987 -0.99985522 0.0134837572 -0.00270544249 -0.999905407 -0.0125688286 0.0301721916 -0.999465704 0.00661797728 -0.00806337595 -0.999945581 0.998269737 -0.0298395678 -0.0506669283 0.70063144 -0.614012241 -0.363462001 0.00329247559 -0.0201821811 -0.999790907</float_array>
          <technique_common>
            <accessor source="#normals_array" count="153" stride="3">
              <param name="X" type="float" />
              <param name="Y" type="float" />
              <param name="Z" type="float" />
            </accessor>
          </technique_common>
        </source>
        <vertices id="vertices">
          <input semantic="POSITION" source="#positions" />
        </vertices>
        <triangles material="scout_333333" count="142">
          <input semantic="VERTEX" source="#vertices" offset="0" />
          <input semantic="NORMAL" source="#normals" offset="1" />
          <p>0 0 1 1 2 2 3 3 4 4 5 5 6 6 2 2 7 7 5 5 8 8 9 9 10 10 11 10 12 10 13 11 10 11 14 11 6 6 15 12 16 13 17 14 8 8 5 5 18 15 0 0 2 2 19 16 5 5 4 4 20 17 0 0 18 18 19 16 21 19 5 5 22 20 18 21 2 2 19 16 22 22 21 19 23 23 22 24 19 25 21 19 17 14 5 5 6 6 21 26 2 2 10 27 24 27 11 27 25 28 10 28 13 28 25 29 26 29 10 29 0 0 27 30 28 31 20 17 27 30 0 0 3 32 29 33 4 34 30 35 28 31 27 30 31 36 29 33 3 32 32 37 29 38 31 39 26 40 33 41 13 42 26 43 13 44 14 45 34 46 26 43 14 45 32 37 31 47 35 48 36 49 37 50 38 51 29 52 39 53 4 54 39 53 19 55 4 54 32 37 39 56 29 38 27 30 20 57 38 51 23 58 20 57 18 59 40 60 38 51 37 50 39 61 23 23 19 25 41 62 39 56 32 37 20 57 36 49 38 51 41 62 23 63 39 56 33 64 26 64 25 64 25 65 34 65 33 65 34 66 25 66 24 66 41 67 36 49 23 58 36 49 41 67 37 68 42 69 41 62 32 37 43 70 6 6 44 71 45 72 8 72 46 72 47 73 6 6 43 70 48 74 49 75 45 76 1 1 0 0 28 31 49 75 50 77 45 76 51 78 47 73 43 70 51 78 43 70 52 79 53 80 47 73 51 78 22 81 23 58 18 59 54 82 53 80 51 78 17 83 21 26 6 6 17 14 46 84 8 8 55 85 17 83 6 6 55 86 48 87 17 14 55 85 6 6 47 73 55 86 49 88 48 87 53 80 55 89 47 73 53 80 56 90 55 89 3 91 5 5 9 9 6 6 16 13 44 71 37 50 57 92 40 60 57 92 37 50 58 93 38 51 30 35 27 30 59 94 42 69 35 48 58 93 60 95 57 92 61 96 42 69 59 94 54 97 51 97 62 97 48 87 46 84 17 14 63 98 64 99 65 100 66 101 63 98 54 82 65 100 64 99 58 93 67 102 61 96 59 94 63 98 56 90 53 80 67 103 59 104 50 105 64 99 68 106 60 95 64 99 63 98 66 101 64 99 66 101 68 106 66 107 54 108 68 109 37 50 42 110 69 111 70 112 69 112 55 112 70 113 65 100 69 111 69 111 65 100 37 50 37 50 65 100 58 93 42 114 37 114 41 114 49 75 55 115 61 96 69 116 42 69 61 96 69 117 61 96 55 115 65 100 70 118 56 90 63 98 65 100 56 90 61 96 67 102 49 75 38 51 40 60 30 119 49 75 67 102 50 77 21 26 22 20 2 2 68 109 54 108 62 120 14 121 33 121 34 121 33 41 11 122 13 42 70 118 55 89 56 90 36 49 20 57 23 58 34 46 24 123 26 43 26 43 24 123 10 124 64 99 60 95 58 93 45 125 35 126 8 127 35 126 9 128 8 127 59 104 35 126 45 125 35 126 14 129 12 130 35 126 12 130 9 128 14 129 35 126 33 131 35 126 31 132 33 131 50 105 59 104 45 125 12 130 11 133 9 128 11 133 33 131 3 134 33 131 31 132 3 134 3 134 9 128 11 133 11 122 24 135 13 42 13 42 24 135 25 136 48 87 45 137 46 84 52 138 44 139 57 140 57 140 60 141 52 138 52 138 60 141 68 142 52 138 68 142 62 143 1 1 7 7 2 2 28 144 30 145 1 146 15 147 30 145 40 148 15 147 7 149 30 145 7 149 1 146 30 145 10 150 12 150 14 150 51 151 52 151 62 151 57 140 44 139 16 152 40 148 57 140 15 147 57 140 16 152 15 147 44 71 52 79 43 70 53 80 54 82 63 98 32 37 35 48 42 69 15 12 6 6 7 7</p>
        </triangles>
      </mesh>
    </geometry>
  </library_geometries>
  <library_visual_scenes>
    <visual_scene id="scene">
      <node id="left_ankle_roll_link">
        <instance_geometry url="#geometry">
          <bind_material>
            <technique_common>
              <instance_material symbol="scout_333333" target="#scout_333333" />
            </technique_common>
          </bind_material>
        </instance_geometry>
      </node>
    </visual_scene>
  </library_visual_scenes>
  <scene>
    <instance_visual_scene url="#scene" />
  </scene>
</COLLADA>