<?xml version='1.0' encoding='utf-8'?>
<COLLADA xmlns="http://www.collada.org/2005/11/COLLADASchema" version="1.4.1">
  <asset>
    <created>2026-09-14T00:00:00Z</created>
    <modified>2026-09-14T00:00:00Z</modified>
    <unit name="metre" meter="1" />
    <up_axis>Z_UP</up_axis>
  </asset>
  <library_effects>
    <effect id="scout_b2b2b2_effect">
      <profile_COMMON>
        <technique sid="common">
          <lambert>
            <emission>
              <color>0 0 0 1</color>
            </emission>
            <ambient>
              <color>0.35 0.35 0.35 1</color>
            </ambient>
            <diffuse>
              <color>0.7 0.7 0.7 1</color>
            </diffuse>
          </lambert>
        </technique>
      </profile_COMMON>
    </effect>
  </library_effects>
  <library_materials>
    <material id="scout_b2b2b2" name="scout_b2b2b2">
      <instance_effect url="#scout_b2b2b2_effect" />
    </material>
  </library_materials>
  <library_geometries>
    <geometry id="geometry" name="left_wrist_yaw_link">
      <mesh>
        <source id="positions">
          <float_array id="positions_array" count="75">-0.00464034546 -0.0173796341 0.023870131 -0.00736153824 -0.0012815115 0.0300792158 -0.0193785522 -0.00186171627 0.0227960218 -0.00605684519 0.00267422548 0.0289153662 -0.00912360381 0.016367184 -0.0240767263 -0.00583597412 0.00109461322 -0.0311212968 -0.0160062797 -0.00186576124 -0.027040951 0.0276605561 0.0197518896 -0.021695476 0.0368078575 0.00259685586 -0.0300191902 0.0377348177 0.0301185306 -0.000299752777 -0.00831818022 0.0162913427 0.02408804 0.027639851 -0.0196081083 0.0210694727 0.0369695574 -0.0176923107 0.0236699078 -0.00733724516 -0.017000908 -0.0241042785 0.0376440659 0.00760158803 0.0303378291 0.0284077544 -0.0222572479 -0.0180944838 0.0382119641 -0.0209515579 -0.0210370123 0.0281242486 0.0298881754 -0.000542721711 0.0373989902 0.00448492123 -0.0310790557 0.0386370383 -0.0204378832 0.0209806953 0.0376582928 -0.0201297887 -0.0197529048 0.0270566288 0.0197573137 0.0212515295 0.0368073322 0.0113015287 0.0263278428 0.0381705575 0.0268171094 0.0118517773 0.0386942662 0.0264478549 -0.0135666756</float_array>
          <technique_common>
            <accessor source="#positions_array" count="25" stride="3">
              <param name="X" type="float" />
              <param name="Y" type="float" />
              <param name="Z" type="float" />
            </accessor>
          </technique_common>
        </source>
        <source id="normals">
          <float_array id="normals_array" count="195">-0.0935858563 -0.362188458 0.927394867 -0.197927892 -0.381688774 0.902850032 -0.464453012 -0.385944337 0.797076166 0.398067266 0.0653502122 -0.915025592 0.187973142 -0.0512591749 -0.980835676 0.102571905 0.249502331 -0.962926567 -0.14283514 0.41053167 -0.900589764 -0.222148135 0.368544877 -0.902676523 -0.429194748 0.30049032 -0.851761401 -0.587180912 -0.584697962 0.559773982 -0.510404587 0.252474099 0.822036505 -0.294132769 0.294036567 0.909411013 -0.195943072 0.352279454 0.915153265 0.00312057137 0.799718976 -0.600366414 0.0551479794 0.0136321522 0.998385131 -0.00874364842 0.0654881299 0.997815013 0.0530006513 -0.241371021 0.968984485 -0.0530963987 -0.357878089 -0.932257473 -0.267580867 -0.328983575 -0.905632555 -0.0882561207 -0.353760988 -0.931162715 0.046801541 -0.323866874 0.944944382 0.138229027 -0.310451031 -0.940485477 0.0213383213 -0.952704787 -0.303147346 -0.0398130491 -0.857400477 -0.513107598 0.0954120532 -0.988111198 -0.120552137 0.0106966421 -0.901845872 0.431925505 0.0631627291 0.532313108 -0.844187915 0.101019293 0.566929996 -0.817548454 0.0410495773 -0.314976692 0.948211253 -0.0429055691 -0.997704685 0.05238818 0.00419360772 0.28027007 0.959912002 0.0304930639 -0.365491241 -0.930315197 0.030868005 -0.366179824 -0.930032015 -0.185269773 0.980974317 -0.0580042005 -0.227317914 0.971429408 -0.0682015494 -0.19154264 0.979677439 -0.0595270954 -0.0763350427 -0.883327127 -0.462499857 -0.142921105 -0.649479926 -0.746826231 0.0323567353 -0.906946659 -0.42000097 -0.133851856 -0.346064746 -0.928613424 0.032289736 0.695084751 0.718202353 0.04889521 0.576547086 0.81559962 -0.105310552 0.850941956 0.514594495 -0.0568325408 0.134720132 -0.989252508 -0.999334693 -0.00225457968 -0.0364016965 -0.999885201 0.0150243705 -0.00195416459 -0.999946117 -0.00192438159 -0.0102034938 -0.999985039 -0.00537968846 0.000978707219 -0.998966217 -0.0434372462 -0.0134064378 0.999757648 -0.00747126201 0.0207070298 0.999341965 0.0178591516 0.031570565 0.999957502 0.0016540176 -0.00906645879 0.999895334 0.0077721253 0.0122044822 0.999584973 -0.00572150899 -0.0282330047 -0.0754579753 -0.996634603 -0.0320241675 0.997101665 0.0018412827 -0.0760583505 0.202299312 0.603224516 -0.771488965 -0.0756426156 -0.993835032 -0.0810565725 -0.0171569809 -0.443859428 0.895932138 -0.227082893 0.880177557 -0.416798234 -0.235512167 0.969333768 -0.070185788 0.300950766 0.95360899 -0.00765247038 -0.224223256 0.887879372 0.401738942 0.0678887442 0.412833929 0.908272684 -0.0261573996 0.439600497 0.897812426</float_array>
          <technique_common>
            <accessor source="#normals_array" count="65" stride="3">
              <param name="X" type="float" />
              <param name="Y" type="float" />
              <param name="Z" type="float" />
            </accessor>
          </technique_common>
        </source>
        <vertices id="vertices">
          <input semantic="POSITION" source="#positions" />
        </vertices>
        <triangles material="scout_b2b2b2" count="46">
          <input semantic="VERTEX" source="#vertices" offset="0" />
          <input semantic="NORMAL" source="#normals" offset="1" />
          <p>0 0 1 1 2 2 2 3 3 4 0 5 4 6 5 7 6 8 7 9 8 9 9 9 2 10 1 11 10 12 11 13 0 13 12 13 6 14 8 15 4 16 13 17 6 18 5 19 14 20 1 1 0 0 10 21 3 4 2 3 15 22 13 23 16 24 7 25 9 25 17 25 18 26 4 6 7 27 19 28 14 20 0 0 16 24 19 29 15 22 4 6 18 26 5 7 8 15 6 14 13 30 13 17 18 31 16 32 12 33 20 34 11 35 9 36 21 37 17 38 21 37 9 36 22 39 21 40 14 41 23 42 21 40 10 12 14 41 0 5 3 4 12 43 22 44 9 45 12 46 9 45 8 47 12 46 12 46 8 47 20 48 23 49 14 50 24 51 24 51 14 50 19 52 24 51 19 52 16 53 11 54 15 22 19 29 24 51 16 53 18 55 12 43 3 4 22 39 5 19 18 31 13 17 22 39 3 4 21 37 18 26 7 27 24 56 19 29 0 57 11 54 4 16 8 15 7 58 7 59 17 59 24 59 20 34 15 60 11 35 3 4 10 21 21 37 10 12 1 11 14 41 17 61 23 61 24 61 17 62 21 40 23 42 20 63 8 15 15 64 8 15 13 30 15 64</p>
        </triangles>
      </mesh>
    </geometry>
  </library_geometries>
  <library_visual_scenes>
    <visual_scene id="scene">
      <node id="left_wrist_yaw_link">
        <instance_geometry url="#geometry">
          <bind_material>
            <technique_common>
              <instance_material symbol="scout_b2b2b2" target="#scout_b2b2b2" />
            </technique_common>
          </bind_material>
        </instance_geometry>
      </node>
    </visual_scene>
  </library_visual_scenes>
  <scene>
    <instance_visual_scene url="#scene" />
  </scene>
</COLLADA>