<?xml version='1.0' encoding='utf-8'?>
<COLLADA xmlns="http://www.collada.org/2005/11/COLLADASchema" version="1.4.1">
  <asset>
    <created>2026-09-14T00:00:00Z</created>
    <modified>2026-09-14T00:00:00Z</modified>
    <unit name="metre" meter="1" />
    <up_axis>Z_UP</up_axis>
  </asset>
  <library_effects>
    <effect id="scout_b2b2b2_effect">
      <profile_COMMON>
        <technique sid="common">
          <lambert>
            <emission>
              <color>0 0 0 1</color>
            </emission>
            <ambient>
              <color>0.35 0.35 0.35 1</color>
            </ambient>
            <diffuse>
              <color>0.7 0.7 0.7 1</color>
            </diffuse>
          </lambert>
        </technique>
      </profile_COMMON>
    </effect>
  </library_effects>
  <library_materials>
    <material id="scout_b2b2b2" name="scout_b2b2b2">
      <instance_effect url="#scout_b2b2b2_effect" />
    </material>
  </library_materials>
  <library_geometries>
    <geometry id="geometry" name="left_hand_thumb_2_link">
      <mesh>
        <source id="positions">
          <float_array id="positions_array" count="72">-0.00690325489 -0.0336822905 -0.0114754159 0.000468418206 -0.0428967811 -0.0101187155 -0.00484325364 -0.0510544255 -0.00728111342 -0.00942541845 -0.00990494899 -0.00151307671 -0.00584658235 -0.0114028929 -0.0100843925 -0.00698030926 -0.0197424553 -0.0123988297 0.00310953869 -0.048396498 -0.00540766865 -0.0039018956 -0.0520822331 0.00677553611 0.00361312088 -0.0204708967 -0.0114393318 -0.0073071029 -0.0346042439 0.0111925108 -0.00658139773 -0.0117836287 0.0102146333 0.000944582571 -0.0392377786 0.010829078 -0.00650594151 -0.0203396995 0.0127483997 0.00689500151 -0.0349640213 -0.00736958301 0.00782391615 -0.0205835905 -0.0086789038 0.00806590077 -0.0304773096 0.00438756682 0.00742472988 -0.0201956108 0.00962727051 0.00475160405 -0.0429118015 0.00751353335 0.00714828027 -0.0162288938 -0.0112199299 0.00473767938 0.00420254655 -0.0118379556 -0.00304525951 0.00603654701 -0.0111314738 0.00638634618 -0.0161647126 0.00969165657 -0.00532883033 0.00604762463 0.0114767458 0.00533842668 0.00600709626 0.0113052316</float_array>
          <technique_common>
            <accessor source="#positions_array" count="24" stride="3">
              <param name="X" type="float" />
              <param name="Y" type="float" />
              <param name="Z" type="float" />
            </accessor>
          </technique_common>
        </source>
        <source id="normals">
          <float_array id="normals_array" count="156">0.0501165539 -0.103333756 -0.993383348 0.288339078 -0.283058017 -0.914734244 0.142607361 -0.406733394 -0.902347565 -0.998658061 0.0268397294 -0.044290673 -0.958716273 0.189239025 -0.212253749 -0.970026612 0.0459728464 -0.238610193 0.73481518 -0.677976251 0.0198694393 0.591769755 -0.80006355 0.098523654 0.334881067 -0.937855721 -0.0910015553 0.278486013 -0.116724215 -0.95332104 0.0813289508 -0.0202554129 -0.996481478 -0.994869471 -0.0965114534 0.0303355213 -0.974478185 0.048291225 0.219226301 -0.988704264 -0.149459168 0.0112185581 -0.977807879 -0.203296706 0.050617855 0.245464802 -0.213247955 0.945659757 -0.0436119847 -0.15507783 0.986939132 0.106756434 -0.335645348 0.935919464 0.163136974 -0.0303799752 0.986135602 -0.985914469 0.039437484 0.162533984 0.452290237 0.89125675 0.0330894701 0.352412254 0.935639799 0.019589182 0.370278686 0.928409398 0.0308175441 0.477060169 -0.428296208 -0.76744771 0.546392083 -0.152776122 -0.823477447 0.996088922 0.0883205757 -0.00252643274 0.982194602 -0.117120393 0.146889493 0.982245982 -0.184899226 -0.0317040458 0.529983163 -0.224951759 -0.81762737 0.770775795 0.0532247983 0.63487941 0.769974351 -0.405797064 0.49241066 -0.994981766 -0.0987241641 -0.0162721686 0.102500901 0.0421559662 0.993839264 0.101238348 0.0430226512 0.993931532 0.102001533 0.0424987897 0.99387604 0.100486659 0.0435385294 0.993985355 -0.985444546 0.153966665 -0.0720645934 0.98351723 0.179576084 0.0211268552 0.967940986 0.248796523 0.0345042944 -0.100105971 -0.041881144 -0.994094968 0.195634514 -0.109272495 -0.974569976 -0.0325211138 -0.010918363 -0.999411404 0.320376843 0.947249591 0.00876596943 0.338901132 0.940564334 0.022017993 -0.97615236 0.0536819994 0.210344523 0.0162386708 0.047406923 0.998743653 0.0792123824 0.0189834591 0.996676981 -0.010298091 0.0720145479 -0.997350395 0.259827346 0.0823011175 -0.962141514 0.181317911 0.0799027607 -0.980173111 -0.0158998445 0.07178846 -0.997293115 -0.0157625861 0.0716972128 -0.997301877</float_array>
          <technique_common>
            <accessor source="#normals_array" count="52" stride="3">
              <param name="X" type="float" />
              <param name="Y" type="float" />
              <param name="Z" type="float" />
            </accessor>
          </technique_common>
        </source>
        <vertices id="vertices">
          <input semantic="POSITION" source="#positions" />
        </vertices>
        <triangles material="scout_b2b2b2" count="44">
          <input semantic="VERTEX" source="#vertices" offset="0" />
          <input semantic="NORMAL" source="#normals" offset="1" />
          <p>0 0 1 1 2 2 3 3 4 4 5 5 6 6 7 7 2 8 0 0 8 9 1 1 5 10 8 9 0 0 9 11 10 12 3 3 9 11 2 13 7 14 11 15 9 16 7 17 11 15 12 18 9 16 10 12 9 11 12 19 3 20 10 21 4 22 2 2 1 1 6 23 8 9 13 24 1 1 13 24 6 23 1 1 14 25 15 26 13 27 14 28 13 24 8 9 15 26 14 25 16 29 6 6 17 30 7 7 17 30 11 15 7 17 12 18 11 15 16 29 13 27 17 30 6 6 16 29 11 15 17 30 15 26 16 29 17 30 9 11 3 3 2 13 2 13 3 3 0 31 17 30 13 27 15 26 18 32 19 33 4 34 4 34 19 33 20 35 3 3 5 5 0 31 20 36 5 5 4 4 16 29 14 25 18 37 18 37 21 38 16 29 19 39 18 40 20 41 5 10 20 41 18 40 21 42 18 43 10 21 18 43 4 22 10 21 5 10 18 40 8 9 18 40 14 28 8 9 12 19 22 44 10 12 22 45 12 18 23 46 12 18 16 29 23 46 23 47 16 48 21 49 23 47 21 49 10 50 22 51 23 47 10 50</p>
        </triangles>
      </mesh>
    </geometry>
  </library_geometries>
  <library_visual_scenes>
    <visual_scene id="scene">
      <node id="left_hand_thumb_2_link">
        <instance_geometry url="#geometry">
          <bind_material>
            <technique_common>
              <instance_material symbol="scout_b2b2b2" target="#scout_b2b2b2" />
            </technique_common>
          </bind_material>
        </instance_geometry>
      </node>
    </visual_scene>
  </library_visual_scenes>
  <scene>
    <instance_visual_scene url="#scene" />
  </scene>
</COLLADA>