<?xml version='1.0' encoding='utf-8'?>
<COLLADA xmlns="http://www.collada.org/2005/11/COLLADASchema" version="1.4.1">
  <asset>
    <created>2026-09-14T00:00:00Z</created>
    <modified>2026-09-14T00:00:00Z</modified>
    <unit name="metre" meter="1" />
    <up_axis>Z_UP</up_axis>
  </asset>
  <library_effects>
    <effect id="scout_b2b2b2_effect">
      <profile_COMMON>
        <technique sid="common">
          <lambert>
            <emission>
              <color>0 0 0 1</color>
            </emission>
            <ambient>
              <color>0.35 0.35 0.35 1</color>
            </ambient>
            <diffuse>
              <color>0.7 0.7 0.7 1</color>
            </diffuse>
          </lambert>
        </technique>
      </profile_COMMON>
    </effect>
  </library_effects>
  <library_materials>
    <material id="scout_b2b2b2" name="scout_b2b2b2">
      <instance_effect url="#scout_b2b2b2_effect" />
    </material>
  </library_materials>
  <library_geometries>
    <geometry id="geometry" name="left_hip_roll_link">
      <mesh>
        <source id="positions">
          <float_array id="positions_array" count="90">0.0794136301 0.00914215855 -0.0338600539 0.0770363137 -0.0238525271 -0.122796275 0.0795412809 0.0181544703 -0.0973201618 0.0690066442 -0.0337511599 0.0141912419 0.074305363 0.0301846489 -0.123864166 0.0717883185 0.0387567952 -0.0509650558 0.0710706636 -0.0397824682 -0.0531994738 0.0367095061 0.049500376 -0.0237760935 0.0252879355 0.0451280959 -0.123667814 -0.0111037185 0.0404285602 -0.123686276 0.0680643693 0.0333046801 0.016313551 0.0682845563 0.0209308993 0.0274324231 0.0688337535 -0.0119355517 0.0298187919 0.0669481829 -0.0384757593 -0.123907015 -0.0164387878 -0.0374580063 -0.123768061 0.0247689411 -0.0454338714 -0.123668119 -0.00029612286 -0.0442478657 -0.0867684036 0.0601187795 0.0448492877 -0.00541723194 -0.0266301408 -0.0109880688 -0.123718508 0.0556249656 -0.0475867465 -0.0557058938 0.0617091805 -0.0438793227 1.07015858e-05 0.035256166 -0.0498983003 -0.0236938559 0.059881229 0.0415464416 -0.123283878 0.0350441895 0.0366586372 0.0303803831 0.0347305275 -0.00409052894 0.0483889058 -0.0181988422 -0.0318025835 -0.0951127186 -0.019448705 0.0312568247 -0.0988561362 -0.0237997491 0.0254181493 -0.123675577 -0.0189268645 0.00382993999 -0.071575664 0.0350572392 -0.0392083041 0.0262084287</float_array>
          <technique_common>
            <accessor source="#positions_array" count="30" stride="3">
              <param name="X" type="float" />
              <param name="Y" type="float" />
              <param name="Z" type="float" />
            </accessor>
          </technique_common>
        </source>
        <source id="normals">
          <float_array id="normals_array" count="147">0.996191621 0.0520823486 0.069926396 0.954845905 -0.292658091 -0.0511913151 0.986712694 0.156528354 -0.0435535461 0.962502599 -0.251909912 0.100648783 0.870027781 0.481792033 -0.10453739 0.747598469 0.664014041 0.0134886699 0.799256861 -0.600785017 0.0156802386 -0.154094711 0.982698917 0.102750368 -0.0212157797 0.998921633 -0.0412972234 -0.480892599 0.876337409 0.027840443 0.705222189 0.601000011 0.37611258 0.983349621 0.0800134689 0.163160548 0.987628877 -0.031896662 0.153531104 0.541211426 -0.836706161 -0.0837434381 -0.665945828 -0.745960653 -0.00767049938 -0.0175651573 -0.996499062 -0.081737645 -0.390358686 -0.917387187 0.0775941163 0.392416656 0.905278981 0.162724063 0.0254981257 -0.00377469743 -0.999667764 -0.000978392432 0.000557522406 -0.999999344 -0.00181126397 0.00204725424 -0.999996245 0.257373661 -0.965829492 -0.0305327754 0.421038359 -0.885938883 0.194522336 -0.00329653872 -0.00638167839 -0.999974191 -0.145164147 -0.982762039 0.114481814 0.371258736 0.926524401 -0.0609879866 0.129825354 0.771331429 0.623051524 0.378538907 0.240879044 0.893692136 0.378176689 0.401182711 0.834287047 -0.847019792 -0.495069355 0.193555728 -0.987075388 -0.111569777 0.115040936 -0.965708256 0.16513136 0.200347662 -0.98500222 0.0763962492 0.154706761 0.489604741 0.0712796524 0.869026124 -0.947853863 0.0324617662 0.317047715 -0.914082706 -0.0307427254 0.404360861 -0.890556991 0.20842284 0.404311955 -0.563846409 0.817564845 0.116897076 -0.763395727 0.645678461 -0.0180639736 0.335195631 -0.51913166 0.786222756 0.322479993 -0.695358694 0.642248333 0.295846909 -0.554727852 0.777657747 -0.317819089 -0.714633405 0.623129308 0.000468938291 0.014677017 -0.999892175 0.0188107807 0.0748016983 -0.997021019 0.0105026532 0.0126382792 -0.999864995 -0.00246348581 0.00137070264 -0.999996006 0.128202066 -0.0131182997 -0.99166131 0.00301217986 0.00303177093 -0.99999088</float_array>
          <technique_common>
            <accessor source="#normals_array" count="49" stride="3">
              <param name="X" type="float" />
              <param name="Y" type="float" />
              <param name="Z" type="float" />
            </accessor>
          </technique_common>
        </source>
        <vertices id="vertices">
          <input semantic="POSITION" source="#positions" />
        </vertices>
        <triangles material="scout_b2b2b2" count="56">
          <input semantic="VERTEX" source="#vertices" offset="0" />
          <input semantic="NORMAL" source="#normals" offset="1" />
          <p>0 0 1 1 2 2 3 3 1 1 0 0 1 1 4 4 2 2 5 5 0 0 2 2 3 3 6 6 1 1 4 4 5 5 2 2 7 7 8 8 9 9 10 10 11 11 0 0 12 12 3 3 0 0 6 6 13 13 1 1 14 14 15 15 16 16 17 17 10 10 5 5 13 18 18 19 9 20 19 21 6 6 20 22 20 22 6 6 3 3 12 12 0 0 11 11 19 21 13 13 6 6 15 23 18 19 13 18 19 21 15 15 13 13 19 21 21 24 15 15 22 25 5 5 4 4 22 25 17 17 5 5 23 26 24 27 11 28 25 29 18 30 14 14 18 30 26 31 27 32 7 7 22 25 8 8 23 26 10 10 17 17 23 26 11 28 10 10 24 27 12 33 11 28 28 34 24 35 23 36 16 16 25 29 14 14 26 37 9 9 27 38 7 7 17 17 22 25 7 7 23 26 17 17 26 31 28 34 23 36 26 31 18 30 28 34 24 39 3 40 12 41 24 39 29 42 3 40 21 24 29 42 16 16 29 42 25 29 16 16 28 34 18 30 25 29 9 9 26 37 7 7 26 37 23 26 7 7 25 29 24 35 28 34 25 29 29 42 24 35 29 42 21 24 20 22 20 22 21 24 19 21 0 0 5 5 10 10 8 43 22 44 4 45 4 45 9 20 8 43 18 19 27 46 9 20 16 16 15 15 21 24 29 42 20 22 3 40 9 20 4 45 13 18 4 45 1 47 13 18 15 23 14 48 18 19</p>
        </triangles>
      </mesh>
    </geometry>
  </library_geometries>
  <library_visual_scenes>
    <visual_scene id="scene">
      <node id="left_hip_roll_link">
        <instance_geometry url="#geometry">
          <bind_material>
            <technique_common>
              <instance_material symbol="scout_b2b2b2" target="#scout_b2b2b2" />
            </technique_common>
          </bind_material>
        </instance_geometry>
      </node>
    </visual_scene>
  </library_visual_scenes>
  <scene>
    <instance_visual_scene url="#scene" />
  </scene>
</COLLADA>