<?xml version='1.0' encoding='utf-8'?>
<COLLADA xmlns="http://www.collada.org/2005/11/COLLADASchema" version="1.4.1">
  <asset>
    <created>2026-09-14T00:00:00Z</created>
    <modified>2026-09-14T00:00:00Z</modified>
    <unit name="metre" meter="1" />
    <up_axis>Z_UP</up_axis>
  </asset>
  <library_effects>
    <effect id="scout_b2b2b2_effect">
      <profile_COMMON>
        <technique sid="common">
          <lambert>
            <emission>
              <color>0 0 0 1</color>
            </emission>
            <ambient>
              <color>0.35 0.35 0.35 1</color>
            </ambient>
            <diffuse>
              <color>0.7 0.7 0.7 1</color>
            </diffuse>
          </lambert>
        </technique>
      </profile_COMMON>
    </effect>
  </library_effects>
  <library_materials>
    <material id="scout_b2b2b2" name="scout_b2b2b2">
      <instance_effect url="#scout_b2b2b2_effect" />
    </material>
  </library_materials>
  <library_geometries>
    <geometry id="geometry" name="left_knee_link">
      <mesh>
        <source id="positions">
          <float_array id="positions_array" count="144">0.0126032401 0.0319959 0.037090227 0.0101425005 0.0178137477 0.0389046296 0.0638339967 0.00537039759 0.0166893825 0.0628610402 -0.014189017 0.0149716632 0.0608604439 0.00996842422 -0.0557357259 0.057121817 -0.0146666914 -0.105852075 0.0557949468 0.00497535896 -0.134818345 0.0627071261 0.0147904251 0.0138040623 0.0573276542 0.0294299498 -0.0341157205 -0.00560853397 0.0296714045 0.0396221355 -0.00523923431 0.0169741865 0.0399194919 0.0581150912 -0.0280747078 -0.0338660888 0.0282827783 0.0342493914 0.0210312214 0.0528007783 0.0287706573 -0.108403504 -0.0154812792 0.0341449678 0.0321011357 0.0498460904 -0.0343125276 -0.0391788706 0.0501893722 -0.0300469082 -0.126778305 0.0317497291 -0.0170990359 -0.310483277 -0.0056180032 0.0174962711 -0.310967833 0.0265450701 0.0178174507 -0.314848334 -0.00599717023 -0.0173249822 -0.310934663 -0.0243733637 0.0170923192 0.0321716815 -0.022431368 -0.0352741443 -0.051875744 0.0321103744 0.0178490821 -0.309389263 -0.0197385736 0.0357600972 -0.124295279 0.0482011028 0.0342971645 -0.0444774851 0.0486896522 0.0327522308 -0.111024916 -0.0218293834 0.0299034882 0.0330728292 -0.0326620601 -0.0347864106 -0.0591609553 0.0509969778 -0.0326703489 -0.0822029859 0.0391194038 -0.0342520326 -0.130165279 -0.0340011679 0.00614009565 -0.171469226 -0.0389597379 0.0177312922 0.0119331973 -0.0394477472 0.0299234726 0.00374840549 0.0383306816 0.0344821997 -0.126473799 -0.0337101668 0.0340241864 0.00890287291 -0.017350398 -0.0360237807 -0.123811722 0.00128552271 -0.0187308658 -0.311618567 0.0245865304 -0.0172100402 -0.315035522 -0.0340769701 0.0294561572 0.0209282301 -0.0321679562 -0.0344546139 -0.0997510031 0.00561823463 0.0190801304 -0.309576303 -0.0342760496 0.034232311 -0.0885275677 -0.0113895601 0.0165046193 -0.3046543 -0.0354082584 -0.0343838967 -0.0734246746 -0.0113977361 -0.0165544935 -0.304592729 -0.0332909338 0.0229759105 -0.160168096 -0.0352457613 -0.028740745 -0.108539484</float_array>
          <technique_common>
            <accessor source="#positions_array" count="48" stride="3">
              <param name="X" type="float" />
              <param name="Y" type="float" />
              <param name="Z" type="float" />
            </accessor>
          </technique_common>
        </source>
        <source id="normals">
          <float_array id="normals_array" count="213">0.324799985 0.191647708 0.926162064 0.190454379 -0.182729885 0.964539766 0.417654604 0.0615872182 0.906516194 0.0791834593 -0.68972975 0.719724119 0.996827185 -0.0657951683 -0.0447950549 0.99394244 0.0957164466 -0.0540070981 0.99897331 0.0219674092 -0.0396201797 0.981314301 -0.176513731 -0.0765844807 0.991730571 0.0682736859 -0.108669981 0.991120696 0.128218502 -0.0352107584 0.54057622 0.60256362 0.587106884 0.756777406 0.652649224 0.0365649909 -0.141783401 0.0376609564 0.989181042 -0.174415156 -0.416604102 0.892199755 0.818555653 -0.572402656 0.0481860824 0.303868264 0.907345474 0.290496558 0.87606436 0.475550443 -0.0797682777 -0.193504825 0.892140448 0.408217192 0.0324583501 0.97129035 0.235672489 0.270534366 -0.952185452 0.141964704 0.73567152 -0.669717312 -0.101321928 0.990713477 -0.0275780354 -0.133139983 -0.119785063 0.00035861865 -0.992799759 -0.1258654 0.00607407093 -0.992028713 -0.127280027 -0.0162969641 -0.991732955 -0.533941627 -0.412792206 0.737908483 -0.17350848 -0.943132758 0.283540815 0.603019834 0.784555852 -0.144357875 -0.171566546 0.982488215 -0.072676152 0.261509567 0.965094864 0.0143039897 0.488568038 0.870162249 -0.0641786307 -0.527870119 0.0451640747 0.848123431 -0.810476005 -0.511025786 0.286323786 0.533287108 -0.84484899 -0.0428371578 0.197902933 -0.977903545 -0.0673727319 0.0659386367 -0.993824482 -0.089246653 0.560348809 -0.0199874043 -0.828015566 0.677842736 0.00913453847 -0.735150158 0.700139582 0.0151212057 -0.713845849 -0.992670715 -0.0235044733 -0.11854282 -0.904106379 -0.26463443 0.335499972 -0.902133346 0.424460113 0.0773884878 0.150995359 0.986474812 -0.063779965 -0.396083653 0.909300506 0.127633825 -0.0626129061 -0.998030543 0.0038210894 -0.117823213 -0.990732193 -0.0675829276 -0.0579738282 -0.99324733 -0.100492477 0.0557367653 -0.996430039 -0.0634077489 0.536462247 -0.0254883803 -0.843539298 0.0467461087 0.992135644 -0.116110511 -0.75130409 0.438997865 0.492770821 -0.50458169 -0.86057204 -0.0693761334 -0.0505412929 0.96275872 -0.265595973 -0.157016814 0.987506211 -0.0133138178 -0.166733086 0.974456191 -0.150450036 -0.299516708 0.947086453 -0.1153991 -0.990210533 -0.138538584 0.0170333665 -0.0974523425 -0.995196521 -0.00932162162 -0.0739582181 0.811440587 0.579736471 -0.129524246 -0.198344067 -0.971536458 -0.132915169 0.00499691628 -0.991114795 -0.770358443 -0.532493055 -0.350712091 -0.218106315 -0.969690979 -0.110132195 -0.626460195 0.768639743 -0.129385605 -0.938625753 -0.334267914 -0.0851274431 -0.97813338 0.202975631 -0.0453424491 -0.992615938 0.0961667672 -0.0739292204 -0.757679522 0.000384976243 -0.652626693 -0.897056699 0.00885510352 -0.441826701 -0.73863399 0.00740088848 -0.674066067 -0.417007595 0.743795812 0.522371948</float_array>
          <technique_common>
            <accessor source="#normals_array" count="71" stride="3">
              <param name="X" type="float" />
              <param name="Y" type="float" />
              <param name="Z" type="float" />
            </accessor>
          </technique_common>
        </source>
        <vertices id="vertices">
          <input semantic="POSITION" source="#positions" />
        </vertices>
        <triangles material="scout_b2b2b2" count="92">
          <input semantic="VERTEX" source="#vertices" offset="0" />
          <input semantic="NORMAL" source="#normals" offset="1" />
          <p>0 0 1 1 2 2 1 1 3 3 2 2 3 4 4 5 2 6 3 4 5 7 4 5 6 8 4 5 5 7 7 9 2 6 4 5 7 10 0 0 2 2 4 5 8 11 7 9 9 12 1 1 0 0 9 12 10 13 1 1 10 13 3 3 1 1 11 14 5 7 3 4 12 15 0 0 7 10 13 16 8 11 4 5 6 8 13 16 4 5 12 15 14 17 0 18 15 19 11 14 3 3 16 20 5 7 11 14 5 7 17 21 6 8 8 11 12 15 7 10 18 22 19 23 20 24 21 25 22 26 10 13 22 26 3 3 10 13 22 26 15 19 3 3 23 27 6 8 17 21 5 7 16 20 17 21 24 28 12 15 25 29 23 27 13 16 6 8 26 30 13 16 23 27 27 31 21 25 9 12 21 25 10 13 9 12 28 32 22 26 21 25 25 29 8 11 26 30 29 33 16 20 11 14 15 19 29 33 11 14 16 20 30 34 17 35 17 36 19 37 23 38 13 16 26 30 8 11 31 39 32 40 33 41 34 42 26 30 23 27 35 43 14 17 24 28 32 40 28 32 21 25 30 34 29 33 15 19 22 26 28 44 36 45 30 34 37 46 17 35 37 46 38 47 17 35 17 36 38 48 19 37 34 42 25 29 26 30 19 49 34 42 23 27 35 43 39 50 14 17 21 25 27 31 39 50 28 44 40 51 36 45 29 33 30 34 16 20 41 52 34 42 19 49 42 53 35 43 24 28 41 52 24 28 34 42 18 54 43 55 24 28 32 40 21 25 39 50 32 40 44 56 28 32 28 44 44 57 40 51 9 58 0 18 14 17 36 45 37 46 30 34 37 59 20 24 38 60 20 24 19 23 38 60 42 53 33 41 35 43 41 52 18 54 24 28 43 55 42 53 24 28 33 41 32 40 39 50 45 61 36 45 40 51 45 61 20 62 36 45 18 54 41 52 19 49 46 63 42 53 43 55 47 64 44 56 32 40 47 64 40 51 44 56 40 51 47 64 45 61 20 62 37 46 36 45 42 65 46 66 33 41 31 39 45 61 47 64 20 67 43 68 18 69 45 61 31 39 43 68 31 39 46 66 43 68 45 61 43 68 20 67 8 11 25 29 12 15 24 28 14 17 12 15 25 29 34 42 24 28 30 34 15 19 36 45 33 41 39 50 35 43 31 39 47 64 32 40 36 45 15 19 22 26 31 39 33 41 46 66 39 50 27 70 14 17 14 17 27 70 9 58</p>
        </triangles>
      </mesh>
    </geometry>
  </library_geometries>
  <library_visual_scenes>
    <visual_scene id="scene">
      <node id="left_knee_link">
        <instance_geometry url="#geometry">
          <bind_material>
            <technique_common>
              <instance_material symbol="scout_b2b2b2" target="#scout_b2b2b2" />
            </technique_common>
          </bind_material>
        </instance_geometry>
      </node>
    </visual_scene>
  </library_visual_scenes>
  <scene>
    <instance_visual_scene url="#scene" />
  </scene>
</COLLADA>