<?xml version='1.0' encoding='utf-8'?>
<COLLADA xmlns="http://www.collada.org/2005/11/COLLADASchema" version="1.4.1">
  <asset>
    <created>2026-09-14T00:00:00Z</created>
    <modified>2026-09-14T00:00:00Z</modified>
    <unit name="metre" meter="1" />
    <up_axis>Z_UP</up_axis>
  </asset>
  <library_effects>
    <effect id="scout_b2b2b2_effect">
      <profile_COMMON>
        <technique sid="common">
          <lambert>
            <emission>
              <color>0 0 0 1</color>
            </emission>
            <ambient>
              <color>0.35 0.35 0.35 1</color>
            </ambient>
            <diffuse>
              <color>0.7 0.7 0.7 1</color>
            </diffuse>
          </lambert>
        </technique>
      </profile_COMMON>
    </effect>
  </library_effects>
  <library_materials>
    <material id="scout_b2b2b2" name="scout_b2b2b2">
      <instance_effect url="#scout_b2b2b2_effect" />
    </material>
  </library_materials>
  <library_geometries>
    <geometry id="geometry" name="pelvis_contour_link">
      <mesh>
        <source id="positions">
          <float_array id="positions_array" count="150">0.0325357653 0.0639726073 -0.031319309 -0.039988488 0.0560165681 -0.0276996512 0.0373042747 0.0580566525 -0.0277083889 0.0471617021 0.0544756614 -0.0321465619 -0.0370260738 0.0626723766 -0.0316869244 -0.0476830006 0.0520470925 -0.0312831253 -0.0386782326 0.0666626841 -0.0598004647 0.0499476641 0.0295915306 -0.0291493088 0.0468833894 0.0627225637 -0.0627650246 0.0358664058 0.0668971241 -0.060519211 -0.0526509248 0.0563149378 -0.0674155429 0.054416731 0.0533007681 -0.0661999658 -0.0509133115 0.000808689336 -0.029384505 0.0600489043 4.37929157e-05 -0.0493552461 0.0469678529 0.0383517966 -0.116661288 0.0266055297 0.0288350824 -0.142201662 -0.0578784645 0.0397504754 -0.0709850341 0.00261432468 0.0245388672 -0.15080975 -0.0191456638 0.0261406358 -0.147097409 -0.0347291902 0.0298297536 -0.137027577 -0.0479944907 0.0397581533 -0.112507328 0.0598827302 0.0350392461 -0.0786974952 0.0456866808 -0.0357856676 -0.122503608 0.0583654717 -0.0426722504 -0.0759960786 0.0480667427 -0.061869286 -0.063940458 0.0492910631 -0.0370954424 -0.0290982891 0.0619421154 -0.00421085022 -0.0883291066 -0.0534798391 0.0178185962 -0.121920966 0.0554480851 0.0219164919 -0.116349272 0.0480981134 0.01186796 -0.131058007 0.0185090229 0.0088306712 -0.150736108 -0.0391980633 -0.065937385 -0.0615192428 -0.0530027933 -0.0561642572 -0.0671173781 -0.0480003022 -0.0397309773 -0.112568624 0.0376299247 -0.0576230139 -0.0277413223 0.0474598184 -0.0549149066 -0.0332049541 -0.0564881898 -0.0346575789 -0.054562822 -0.0472158119 -0.0483784042 -0.0291259289 0.036037676 -0.0627154112 -0.0312683657 -0.0551257282 -0.0207230691 -0.117211714 0.054491818 -0.02048699 -0.119279765 0.0328252576 -0.00917588454 -0.143838719 -0.00989851262 -0.0253754258 -0.14983286 -0.0232898574 -0.00984217878 -0.148185939 -0.041230388 -0.0144095803 -0.137252629 -0.0405989699 -0.0609904304 -0.0316590779 -0.0289521217 -0.0630995706 -0.0292001106 0.0117309894 -0.0265061129 -0.149020255 0.0274344012 -0.0682057068 -0.0574571937 -0.0343393311 -0.0311968997 -0.135582775</float_array>
          <technique_common>
            <accessor source="#positions_array" count="50" stride="3">
              <param name="X" type="float" />
              <param name="Y" type="float" />
              <param name="Z" type="float" />
            </accessor>
          </technique_common>
        </source>
        <source id="normals">
          <float_array id="normals_array" count="219">-0.013481467 0.513293862 0.85810703 -0.117472358 0.165390164 0.979206979 0.110783972 0.171983197 0.978850722 0.795907199 0.545852721 0.261871129 0.286377311 0.933309317 0.216614336 0.487636775 0.70629096 0.513189435 -0.661084116 0.696739554 0.278427452 -0.85364908 0.449782848 0.262637883 -0.57055217 0.593811393 0.567325532 -0.300498754 0.948961318 -0.0957752019 -0.0192482267 0.989735425 0.141609758 0.152258441 0.0176064 0.988183856 0.452172041 0.156391144 0.878112912 0.557942629 0.823861361 -0.0997620597 0.168718159 0.976398826 -0.134831324 -0.777671456 0.621578097 -0.0941691473 0.885578036 0.46344915 -0.0310877729 -0.44718197 0.0612579063 0.892342865 -0.0365524031 -0.00262887217 0.999328256 0.943468511 0.108311638 0.313266307 0.970062017 -0.00110759807 0.242854685 0.557686329 0.68113625 -0.474383205 0.0167068653 0.905569911 -0.423867911 -0.984252989 0.176719368 -0.00403518416 -0.00773208216 0.906592965 -0.42193526 -0.0225749593 0.904873788 -0.425080925 -0.0768487975 0.898394942 -0.432412803 -0.161475524 0.890248537 -0.425891012 -0.974828482 0.0154584553 0.222419456 0.967106223 0.246311843 -0.0635301024 0.746156931 -0.386140645 -0.542351604 0.932350934 -0.353197485 -0.0772873387 0.591169298 -0.79767108 -0.119330317 0.95318377 -0.126223341 0.274787933 0.996020377 -0.0262392797 -0.0851757973 -0.878947079 0.168460354 -0.446176112 -0.872131884 0.361209124 -0.330021113 0.894928753 0.229614601 -0.382595897 0.736800194 0.129919007 -0.66351074 0.277777493 0.0715532452 -0.957976937 0.508551836 0.253345519 -0.82291621 -0.630458236 0.179952547 -0.755075812 -0.291294217 -0.948378623 -0.125402078 -0.809610784 -0.579964697 -0.0903955027 -0.194957659 -0.885806084 -0.421116531 0.252941847 -0.352629781 0.900928795 0.759288788 -0.461335599 0.458966255 0.18324542 -0.0392579548 0.982282996 0.00997661799 0.0872349367 -0.996137798 -0.984770834 -0.113046236 0.132086977 -0.920264006 -0.297237515 0.254487723 0.268212169 -0.829370499 0.490108997 -0.914196014 -0.19072561 -0.357588321 0.873527408 -0.198647335 -0.444397479 0.537152112 -0.135746166 -0.832490623 -0.172304407 -0.101411797 -0.979809582 -0.34660989 -0.0558723398 -0.936343908 -0.351789623 0.0562189817 -0.934389353 -0.64860189 -0.13650848 -0.74878633 -0.250347912 -0.315205038 0.915407956 -0.0600732006 -0.0986060128 0.993311644 -0.0563468859 -0.0561292768 0.996832252 -0.555789173 -0.809458971 0.189405784 0.237404987 -0.164562851 -0.957370341 -0.83534807 -0.404163867 -0.37261942 0.110116154 -0.987976134 -0.108524404 -0.0941887945 -0.986428916 0.134485915 -0.590470254 -0.328436702 -0.737207055 0.0935717225 -0.90130192 -0.422964782 -0.0559965186 -0.902512014 -0.427008778 -0.0318183228 -0.904227853 -0.425863296 0.00921851769 -0.906093955 -0.422976136 -0.0142098246 0.518501282 0.854958773</float_array>
          <technique_common>
            <accessor source="#normals_array" count="73" stride="3">
              <param name="X" type="float" />
              <param name="Y" type="float" />
              <param name="Z" type="float" />
            </accessor>
          </technique_common>
        </source>
        <vertices id="vertices">
          <input semantic="POSITION" source="#positions" />
        </vertices>
        <triangles material="scout_b2b2b2" count="96">
          <input semantic="VERTEX" source="#vertices" offset="0" />
          <input semantic="NORMAL" source="#normals" offset="1" />
          <p>0 0 1 1 2 2 3 3 0 4 2 5 4 6 5 7 1 8 0 4 6 9 4 10 7 11 3 12 2 2 3 3 8 13 0 4 8 13 9 14 0 4 10 15 5 7 4 6 3 3 11 16 8 13 5 17 12 18 1 1 7 19 13 20 3 3 14 21 15 22 9 14 16 23 5 7 10 15 13 20 11 16 3 3 17 24 6 9 9 14 17 24 18 25 6 9 18 25 19 26 6 9 19 26 20 27 6 9 16 23 12 28 5 7 13 20 21 29 11 16 20 27 10 15 6 9 8 13 14 21 9 14 22 30 23 31 24 32 14 21 8 13 11 16 13 20 7 19 25 33 26 34 21 29 13 20 27 35 16 23 20 36 16 23 10 15 20 36 21 29 14 21 11 16 21 29 28 37 14 21 29 38 30 39 15 40 19 41 27 35 20 36 31 42 32 43 33 44 34 45 35 46 25 47 28 37 29 38 14 21 29 38 15 40 14 21 30 39 17 48 15 40 36 49 37 50 12 28 13 20 23 31 26 34 25 33 35 46 13 20 38 51 35 46 34 45 39 52 36 49 16 23 35 46 23 31 13 20 28 37 21 29 26 34 39 52 16 23 27 35 23 31 40 53 26 34 41 54 30 39 29 38 42 55 43 56 18 57 44 58 19 41 18 57 43 56 44 58 18 57 44 58 27 35 19 41 24 32 23 31 35 46 40 53 28 37 26 34 42 55 18 57 17 48 36 49 32 43 37 50 45 59 46 60 37 61 6 9 0 4 9 14 30 39 42 55 17 48 32 43 45 62 37 50 38 51 24 32 35 46 23 31 22 30 40 53 47 63 30 39 41 54 47 63 42 55 30 39 39 52 33 64 32 43 39 52 27 35 44 58 48 65 24 32 38 51 22 30 41 54 40 53 48 65 38 51 46 66 48 65 46 66 31 42 15 22 17 24 9 14 42 55 44 58 43 56 22 30 47 63 41 54 49 67 44 58 42 55 44 58 49 67 39 52 49 67 33 64 39 52 31 42 45 62 32 43 31 42 46 66 45 62 48 65 22 68 24 32 49 69 42 70 31 42 42 70 47 71 31 42 47 71 48 65 31 42 47 71 22 68 48 65 33 44 49 69 31 42 46 60 38 51 34 45 10 15 4 6 6 9 46 60 34 45 37 61 34 45 2 2 37 61 0 0 4 72 1 1 41 54 29 38 40 53 25 47 7 11 2 2 34 45 25 47 2 2 36 49 12 28 16 23 1 1 12 18 2 2 12 18 37 61 2 2 40 53 29 38 28 37 32 43 36 49 39 52</p>
        </triangles>
      </mesh>
    </geometry>
  </library_geometries>
  <library_visual_scenes>
    <visual_scene id="scene">
      <node id="pelvis_contour_link">
        <instance_geometry url="#geometry">
          <bind_material>
            <technique_common>
              <instance_material symbol="scout_b2b2b2" target="#scout_b2b2b2" />
            </technique_common>
          </bind_material>
        </instance_geometry>
      </node>
    </visual_scene>
  </library_visual_scenes>
  <scene>
    <instance_visual_scene url="#scene" />
  </scene>
</COLLADA>