<?xml version='1.0' encoding='utf-8'?>
<COLLADA xmlns="http://www.collada.org/2005/11/COLLADASchema" version="1.4.1">
  <asset>
    <created>2026-09-14T00:00:00Z</created>
    <modified>2026-09-14T00:00:00Z</modified>
    <unit name="metre" meter="1" />
    <up_axis>Z_UP</up_axis>
  </asset>
  <library_effects>
    <effect id="scout_333333_effect">
      <profile_COMMON>
        <technique sid="common">
          <lambert>
            <emission>
              <color>0 0 0 1</color>
            </emission>
            <ambient>
              <color>0.1 0.1 0.1 1</color>
            </ambient>
            <diffuse>
              <color>0.2 0.2 0.2 1</color>
            </diffuse>
          </lambert>
        </technique>
      </profile_COMMON>
    </effect>
  </library_effects>
  <library_materials>
    <material id="scout_333333" name="scout_333333">
      <instance_effect url="#scout_333333_effect" />
    </material>
  </library_materials>
  <library_geometries>
    <geometry id="geometry" name="pelvis">
      <mesh>
        <source id="positions">
          <float_array id="positions_array" count="150">-0.0327716209 -0.0637511835 -0.0683376417 -0.0477727838 -0.0558984429 -0.101762235 -0.039100863 -0.0637978613 -0.128579617 0.0486710966 0.0107481051 -0.0304563418 0.0339038782 -0.0351118557 -0.0293807648 0.0438212156 -0.0474408232 -0.0356190167 -0.0445991941 -0.0532317571 -0.0554207787 0.0448495373 -0.0540558323 -0.0556993671 -0.00154582725 -0.0511624776 -0.0309235621 -0.0346922874 -0.0321817696 -0.0239099283 -0.0471566431 -0.015903227 -0.0307293627 0.0187858846 -0.0193242375 -0.144050375 0.0391289294 -0.0626368821 -0.125883475 0.00892529357 -0.0628282204 -0.147176847 -0.0418168642 0.0194134023 -0.113972284 -0.0443615317 -0.0192474723 -0.1025948 -0.0464003906 0.00578073738 0.00331593282 -0.0388802215 0.0296550356 -0.0279482622 -0.0302019343 -0.0186322592 -0.135430023 0.00147229992 0.0478584245 0.000424648926 0.00777017884 0.0635467321 -0.147081077 0.0268730391 0.0189712532 -0.139340237 -0.0180249177 0.0185567867 -0.140795097 0.0306603126 -0.0346104056 0.00322768791 -0.0175080635 -0.0410036594 0.00213800906 -0.0458655842 0.0623799674 -0.0994379371 0.0360312462 -0.0194097422 -0.125239193 0.0479463376 -0.0197400581 -0.105107099 0.036696624 -0.0630610138 -0.0719777569 0.0454567038 -0.0621965453 -0.103066497 0.044703193 0.0625839755 -0.117746547 0.0432893857 0.0137123093 0.00188238989 0.00137753063 0.0520111546 -0.0324096084 0.0359345339 0.0313871913 -0.0237344746 -0.0335927047 0.0623588115 -0.134501874 0.0412488654 0.0186969358 -0.103646226 0.00858706515 0.0622333214 -0.117393866 -0.0171258785 0.0602373295 -0.0999078602 0.0123851541 0.0617733784 -0.0918571278 0.0435543843 0.0475987904 -0.0464079492 -0.0429013334 -0.0482226163 -0.0356204361 -0.0409548469 0.0487292036 -0.0356435291 -0.0451949202 0.0545704998 -0.0560525954 0.0407550633 0.0599324964 -0.0594433434 -0.00498745218 0.0634286106 -0.0575634055 0.0164094996 -0.00054723589 -1.16067713e-05 -0.0137974098 0.000456395966 -0.00200255355 0.0158811547 -0.0618014298 -0.107697859 -0.00402023224 -0.0599360317 -0.0860583931 -0.00858821534 -0.0622369274 -0.117395341</float_array>
          <technique_common>
            <accessor source="#positions_array" count="50" stride="3">
              <param name="X" type="float" />
              <param name="Y" type="float" />
              <param name="Z" type="float" />
            </accessor>
          </technique_common>
        </source>
        <source id="normals">
          <float_array id="normals_array" count="360">-0.600002289 -0.79575038 0.0823318511 -0.571642935 -0.8179726 0.0643832088 -0.564518929 -0.82324028 0.059948314 0.422558486 -0.114981771 0.899012506 0.29130736 -0.234894156 0.927342832 0.263042778 -0.258698016 0.929453492 -0.00546328956 -0.952949166 0.303080857 0.0017799713 -0.912709057 0.408606112 0.00717453519 -0.91803956 0.396423876 -0.487796217 -0.627664208 -0.606706262 0.711170971 0.0396189205 -0.701901793 0.815913498 -0.00693950988 -0.578132391 0.57501626 -0.071762763 -0.814988613 -0.00102554401 -0.790371954 0.612626433 0.990553796 -0.0944532678 -0.0994072482 -0.978392124 0.183550924 -0.0951733589 -0.811506033 -0.484530598 0.326631308 -0.73015213 -0.634287059 0.254082263 -0.800290763 -0.492307633 0.342297882 -0.109698169 0.0630492494 -0.991963267 -0.261919469 0.024547318 -0.964777529 -0.234171972 -0.0283020921 -0.971783161 -0.56363678 0.765429437 0.31053403 -0.593412042 0.702173769 0.393464327 -0.527844787 0.818908632 0.225318819 -0.879072547 0.0725374073 -0.471136749 -0.923400879 0.0356996059 -0.382173151 -0.890468001 -0.00346464501 -0.455032676 -0.139614135 -0.0580649525 -0.988502085 0.0324897021 -0.0113667436 -0.999407411 -0.381993145 -0.0260449741 -0.923798084 0.277755201 -0.940846026 0.194064036 0.115998559 -0.932335615 0.342482984 0.233997643 -0.943058491 0.236401707 -0.985806465 0.0196388029 -0.166733086 -0.999914646 0.00255647185 0.0128112249 0.409865022 -0.910500288 0.0547709391 0.0364573821 -0.998613954 -0.0379614159 0.589857399 -0.794543505 0.144114271 0.839777589 -0.00505986903 -0.54290694 0.618708909 0.130618811 -0.7746858 0.780395508 -0.00949021429 -0.625214219 -0.663227558 -0.723209798 0.192605451 0.952759027 -0.243965343 0.180917367 0.950892627 -0.280665547 0.130499363 0.952089906 -0.266012669 0.150870994 0.489368379 0.528034389 -0.694044888 -0.692977726 -0.0226577912 -0.72060287 -0.607301772 -0.789689839 0.087031737 -0.811797559 -0.119729735 -0.571532607 -0.0184745286 0.998857558 0.0440711938 0.014952071 0.999796391 -0.0135482606 0.0178264007 0.99981612 -0.00706478115 0.997770071 0.0651747957 -0.0143941185 0.999996006 0.00282687298 0.000170231375 0.999594629 0.00845709909 0.0271845087 0.916223884 -0.0229333676 -0.400009841 0.125451878 -0.365720958 0.922231019 -0.927857757 0.0999915376 -0.359279454 -0.941274047 0.0801575333 -0.32799077 0.00873680599 -0.969599307 0.244542047 -0.122836769 -0.164290383 0.978733778 -0.0989247486 0.363031089 0.926510811 -0.491940349 -0.870117068 0.0298502408 0.947872102 -0.302900642 0.0989428759 -0.00780860474 0.774919748 0.632011414 0.038229581 0.943201184 0.330015182 0.0467454046 0.962873816 0.26587373 -0.841684222 0.120778769 0.526289046 -0.358969271 -0.0704329759 -0.930688024 -0.706647456 0.0140187182 -0.707426906 -0.472932875 0.873963892 0.111899845 0.0401556157 -0.0118615944 0.999123037 0.0439089499 0.998970032 0.011442136 -0.00926252827 0.998957872 0.0446922518 -0.0269756634 0.999538422 0.0139729874 -0.012772711 0.998925686 0.0445452556 -0.00349253556 0.999464571 0.0325324573 0.531088233 0.824459076 0.195480138 0.679445028 0.703015089 0.210057661 0.489342511 0.865373969 0.108036131 0.863711476 0.0645521134 -0.499835521 0.00737580098 -0.817133129 -0.57640183 -0.0179982837 0.724336565 0.689211607 -0.0717757717 0.0242041983 0.997127056 0.0594665445 0.0120057045 0.998158097 -0.0639090836 0.0773217455 0.994955778 -0.0396473818 0.912526488 -0.407091469 -0.205446839 0.962629974 0.176451504 0.961666226 -0.0691457689 -0.265361845 0.726755083 0.644956708 0.236342758 0.860825837 0.499477535 0.0974732861 -0.0738416538 0.00673738681 0.997247219 0.00294748181 -0.0498630553 0.9987517 0.159645215 -0.00848359335 0.987137973 0.0323008336 0.0964597464 0.994812608 -0.0221829582 -0.999276817 0.0308821369 0.0339122266 -0.998243272 -0.0485829562 0.0352374017 -0.998803794 0.0339016058 0.0127498209 0.998775065 0.0478099585 -0.73036319 0.0754576921 0.678878248 0.0334342979 -0.881541491 0.470921218 0.0739030018 -0.995943546 -0.0513301343 0.0462561697 -0.998842299 0.013208434 -0.0341017619 -0.998040438 -0.0524631217 0.00746597815 -0.999678314 0.0242381506 -0.0100037446 -0.999613345 0.0259428453 -0.0123720802 -0.999903619 -0.00629747054 0.325492263 0.413319081 0.850424647 0.849678576 0.167061105 -0.500136912 0.843065143 0.056038186 -0.534884036 0.919193983 -0.041870784 -0.391572863 0.735026836 -0.0723015517 -0.674172163 0.999906003 0.00739644514 0.011545917 0.998716116 0.0446864031 0.0238582306 0.951272488 0.298327029 0.0779846534 -0.995063305 0.0131926881 0.0983613655 -0.997036576 -0.00505983084 0.0767620727 -0.99496454 -0.00228330167 0.10020142 -0.97776711 0.0196802318 0.208768159</float_array>
          <technique_common>
            <accessor source="#normals_array" count="120" stride="3">
              <param name="X" type="float" />
              <param name="Y" type="float" />
              <param name="Z" type="float" />
            </accessor>
          </technique_common>
        </source>
        <vertices id="vertices">
          <input semantic="POSITION" source="#positions" />
        </vertices>
        <triangles material="scout_333333" count="96">
          <input semantic="VERTEX" source="#vertices" offset="0" />
          <input semantic="NORMAL" source="#normals" offset="1" />
          <p>0 0 1 1 2 2 3 3 4 4 5 5 5 6 6 7 7 8 8 9 9 9 10 9 11 10 12 11 13 12 7 8 6 7 0 13 1 14 14 14 15 14 10 15 16 15 17 15 10 16 9 17 16 18 11 19 13 20 18 21 17 22 16 23 19 24 18 25 15 26 14 27 20 28 21 29 22 30 23 31 24 32 8 33 25 34 14 27 1 35 4 36 23 31 8 33 26 37 27 37 11 37 7 38 28 38 29 38 21 39 20 40 30 41 9 17 24 42 16 18 31 43 23 44 3 45 32 46 33 46 3 46 20 28 22 30 34 47 1 1 0 0 6 48 35 49 30 49 27 49 36 50 37 51 38 52 39 53 5 54 7 55 30 41 35 56 21 39 8 57 5 5 4 4 15 26 2 58 1 59 15 26 18 25 2 58 5 6 40 60 6 7 14 27 25 34 34 47 10 61 40 61 8 61 17 62 32 62 41 62 18 21 22 30 11 19 24 42 9 17 8 63 23 44 4 64 3 45 39 65 42 66 41 67 41 68 10 68 17 68 13 20 2 69 18 21 41 70 40 70 10 70 19 24 32 71 17 22 42 72 43 72 44 72 21 29 11 19 22 30 43 73 30 74 36 50 43 73 36 50 38 52 44 75 43 73 38 52 36 50 30 74 20 76 25 77 44 75 37 51 44 75 38 52 37 51 19 78 33 79 32 80 22 30 14 27 34 47 11 10 27 81 12 11 40 82 5 82 8 82 42 66 39 65 43 83 45 84 46 85 23 86 39 87 41 87 32 87 42 88 44 75 25 77 29 89 12 11 27 81 31 90 3 91 33 79 31 92 19 93 45 84 23 86 31 92 45 84 45 84 19 93 46 85 19 93 16 94 46 85 16 94 24 95 46 85 24 95 23 86 46 85 47 96 48 97 49 98 36 50 20 76 34 99 34 99 25 77 37 51 37 51 36 50 34 99 30 100 29 100 27 100 7 8 0 13 28 101 31 90 33 79 19 78 49 98 48 97 0 102 2 103 49 98 0 102 0 102 48 97 28 104 48 97 47 96 28 104 2 103 13 105 49 98 13 105 12 106 49 98 12 106 47 96 49 98 12 106 29 107 47 96 29 107 28 104 47 96 18 25 14 27 22 30 3 108 39 108 32 108 35 56 27 109 26 110 3 111 5 54 39 53 11 112 21 39 26 110 26 110 21 39 35 56 29 113 30 114 7 55 30 114 43 115 39 53 7 55 30 114 39 53 25 34 1 35 42 116 42 116 1 35 6 117 40 118 41 119 42 116 6 117 40 118 42 116</p>
        </triangles>
      </mesh>
    </geometry>
  </library_geometries>
  <library_visual_scenes>
    <visual_scene id="scene">
      <node id="pelvis">
        <instance_geometry url="#geometry">
          <bind_material>
            <technique_common>
              <instance_material symbol="scout_333333" target="#scout_333333" />
            </technique_common>
          </bind_material>
        </instance_geometry>
      </node>
    </visual_scene>
  </library_visual_scenes>
  <scene>
    <instance_visual_scene url="#scene" />
  </scene>
</COLLADA>