<?xml version='1.0' encoding='utf-8'?>
<COLLADA xmlns="http://www.collada.org/2005/11/COLLADASchema" version="1.4.1">
  <asset>
    <created>2026-09-14T00:00:00Z</created>
    <modified>2026-09-14T00:00:00Z</modified>
    <unit name="metre" meter="1" />
    <up_axis>Z_UP</up_axis>
  </asset>
  <library_effects>
    <effect id="scout_b2b2b2_effect">
      <profile_COMMON>
        <technique sid="common">
          <lambert>
            <emission>
              <color>0 0 0 1</color>
            </emission>
            <ambient>
              <color>0.35 0.35 0.35 1</color>
            </ambient>
            <diffuse>
              <color>0.7 0.7 0.7 1</color>
            </diffuse>
          </lambert>
        </technique>
      </profile_COMMON>
    </effect>
  </library_effects>
  <library_materials>
    <material id="scout_b2b2b2" name="scout_b2b2b2">
      <instance_effect url="#scout_b2b2b2_effect" />
    </material>
  </library_materials>
  <library_geometries>
    <geometry id="geometry" name="right_hip_yaw_link">
      <mesh>
        <source id="positions">
          <float_array id="positions_array" count="99">-0.0355358161 -0.0341848135 -0.181182742 -0.0397648178 -0.034181729 -0.109717429 -0.0410456955 -0.0166414436 -0.160642862 -0.0545144528 -0.0202801134 -0.057477951 -0.0475330576 -0.0339082964 -0.0018379417 0.0268032607 -0.0286442749 -0.0918897986 -0.0284023788 -0.0178639442 -0.19810015 -0.125609204 0.0341832079 -0.17512989 -0.0715486109 0.0172973312 -0.226354256 -0.123247392 0.0186853744 -0.168813556 -0.0929766521 0.0169923939 -0.13202475 -0.0984092653 0.0377660729 -0.139108732 -0.0978416279 0.0340946801 -0.21750316 -0.0596818216 0.0339692421 -0.217258662 -0.0761401877 0.0411833264 -0.199586049 -0.0782568976 0.0427704118 -0.215085149 -0.0494224802 0.0159293674 -0.125624135 -0.0451608635 -0.0150977354 -0.122440852 -0.0552957281 0.0352297388 -0.137597814 -0.0429025404 0.0370319746 -0.157326967 -0.0756738782 -0.0157289393 -0.229726851 -0.0323528014 0.024874622 -0.194556743 -0.0401569083 0.0375533551 -0.189110518 -0.0434133448 0.033863049 -0.100771464 0.0301185343 0.0260927062 -0.0905388147 -0.0456881747 0.0375002623 -0.00180885918 0.0406674445 0.0413473919 -0.00125872565 0.0505487956 -0.0281484313 -0.00107124983 0.0216347426 -0.043114759 -0.00153967435 -0.119690023 -0.015049261 -0.203731269 -0.118901871 0.0171268564 -0.208630949 -0.102688268 0.0400492139 -0.164565161 -0.114332333 -0.0157512743 -0.140454859</float_array>
          <technique_common>
            <accessor source="#positions_array" count="33" stride="3">
              <param name="X" type="float" />
              <param name="Y" type="float" />
              <param name="Z" type="float" />
            </accessor>
          </technique_common>
        </source>
        <source id="normals">
          <float_array id="normals_array" count="243">-0.968623459 -0.0136747351 -0.248156339 -0.919844091 -0.372066826 -0.124310687 -0.97565639 -0.184461489 -0.118611105 -0.971144915 -0.235627577 -0.0368406586 -0.780460596 -0.622814417 -0.0546211526 0.621744454 -0.678068042 -0.391991854 -0.688717306 -0.426647514 -0.586208522 -0.63256526 -0.620960057 -0.46289289 -0.698624074 -0.358765692 -0.619040906 -0.774361551 0.0976353958 0.625165224 -0.752758205 0.196094573 0.628412306 -0.766997099 0.172514558 0.618024468 -0.797886133 -0.00309943547 0.60280019 0.0071803201 0.387175143 -0.921978235 0.00719136605 0.409090847 -0.912465334 0.00719960313 0.474959821 -0.879978061 -0.0648567975 0.997400343 0.0314023048 -0.12858969 0.991477489 0.0209052134 -0.26645726 0.962105691 -0.0579064973 -0.134220034 0.259375662 0.956404328 -0.142934144 0.156373248 0.977301002 -0.188415125 0.0125351204 0.98200947 -0.0865605399 0.45039624 0.88862282 0.00703194458 0.253710538 -0.967254639 0.0704661533 0.996789277 0.0380222276 -0.0345113613 0.994188666 0.101970181 -0.00376865314 0.996058226 0.0886214375 0.556479692 0.0153227346 -0.830719888 0.594566345 0.0346458629 -0.803299785 0.747850716 0.0815559179 -0.658838332 0.633076191 -0.0285859741 -0.773561478 0.728311837 0.338908911 -0.595569134 0.419409335 0.871447742 -0.254312158 0.416448087 0.819713771 -0.393243253 -0.120683312 0.992074072 0.0349942446 0.303565264 0.935922086 -0.178599924 -0.0442342982 0.998309255 -0.0377081707 0.0391795561 0.99686718 -0.0687081069 0.4581047 -0.881432533 -0.114964254 0.203110173 -0.975161612 -0.0883522555 0.155442134 -0.981896937 -0.108241118 0.939501107 0.0333817787 -0.340915471 0.980401099 0.139023006 -0.139593452 0.980989099 0.0727307126 -0.179918468 -0.409486473 0.046265427 -0.911142349 -0.50633949 -0.11768245 -0.854266465 -0.45362252 -0.0248348806 -0.890847802 -0.975889862 -0.205701932 -0.0729774684 -0.228204802 0.971985579 -0.0562726147 -0.146608889 0.988334596 0.0412376709 -0.943684816 0.0795942843 -0.321128786 0.0816016644 -0.99665314 0.00487179542 0.0522861928 -0.997946322 -0.0370032378 0.000934189593 -0.999999523 0.000154338573 -0.0257707741 -0.999656498 0.00476991991 -0.0175224785 -0.99978745 0.0108656576 -0.0798787326 -0.996442139 0.0268773884 -0.00787014514 -0.000897769118 0.999968648 -0.00635960093 -0.000242956987 0.999979734 -0.0054879901 -0.00126453373 0.999984145 -0.00866936427 -0.0013726441 0.999961495 -0.993394017 0.102994226 0.0506012104 -0.997074485 0.0477976054 0.0596478917 -0.99403429 0.0077822064 -0.108789757 -0.996430218 -0.0812114924 -0.0230553821 -0.992138326 -0.12377131 0.0184997004 -0.979048371 -0.186900616 0.0808236897 -0.99110359 0.025552595 0.130616799 -0.585428238 -0.715011239 -0.382142216 -0.250355124 -0.0850125626 0.964414418 -0.0545703657 -0.99840945 0.0141655998 -0.0209408794 -0.999737263 -0.00931841601 -0.72551316 0.315749884 0.611500323 -0.347607315 0.138125122 -0.927410722 -0.131906867 -0.991237521 -0.00698607648 -0.947906256 -0.101035573 0.30210191 -0.94819957 -0.100095049 0.301493913 0.93145752 -0.0475125164 -0.360734582 -0.016388407 0.000367085275 0.999865651 -0.0144196795 0.319343805 0.947529197 -0.0190075748 0.998971105 -0.041175805</float_array>
          <technique_common>
            <accessor source="#normals_array" count="81" stride="3">
              <param name="X" type="float" />
              <param name="Y" type="float" />
              <param name="Z" type="float" />
            </accessor>
          </technique_common>
        </source>
        <vertices id="vertices">
          <input semantic="POSITION" source="#positions" />
        </vertices>
        <triangles material="scout_b2b2b2" count="62">
          <input semantic="VERTEX" source="#vertices" offset="0" />
          <input semantic="NORMAL" source="#normals" offset="1" />
          <p>0 0 1 1 2 2 3 3 1 1 4 4 5 5 0 5 6 5 7 6 8 7 9 8 7 9 9 10 10 11 11 12 7 9 10 11 12 13 13 14 8 15 14 16 15 17 12 18 16 19 10 20 17 21 16 19 18 22 10 20 12 13 15 23 13 14 19 24 11 25 18 26 20 27 8 28 6 29 13 30 21 31 8 28 15 17 22 32 13 33 8 28 21 31 6 29 13 33 22 32 21 31 23 34 19 24 18 26 19 24 24 35 22 32 25 36 26 37 23 34 26 37 24 35 19 24 27 38 28 39 5 40 24 41 26 42 27 43 20 44 29 45 30 46 17 47 1 1 3 3 14 16 12 18 7 48 14 16 7 48 31 49 1 1 17 47 2 2 6 50 0 0 2 2 0 51 5 40 1 52 32 53 20 54 17 55 17 55 20 54 2 56 26 57 25 58 4 59 26 57 4 59 28 60 3 3 25 61 23 62 30 63 29 64 9 65 29 64 32 66 9 65 25 61 3 3 4 67 7 6 12 68 8 7 32 69 17 21 10 20 17 47 3 3 23 62 2 56 20 54 6 70 20 54 32 53 29 71 24 41 21 31 22 32 26 37 19 24 23 34 32 72 10 11 9 10 30 46 8 73 20 44 6 29 21 31 24 41 1 52 28 39 4 74 11 25 31 49 7 48 31 49 19 24 14 16 31 49 11 25 19 24 19 24 22 32 14 16 14 16 22 32 15 17 1 52 5 40 28 39 18 75 16 76 23 62 24 41 27 43 5 77 26 57 28 60 27 78 10 20 18 22 11 79 5 77 6 29 24 41 17 47 23 62 16 76 9 80 8 80 30 80</p>
        </triangles>
      </mesh>
    </geometry>
  </library_geometries>
  <library_visual_scenes>
    <visual_scene id="scene">
      <node id="right_hip_yaw_link">
        <instance_geometry url="#geometry">
          <bind_material>
            <technique_common>
              <instance_material symbol="scout_b2b2b2" target="#scout_b2b2b2" />
            </technique_common>
          </bind_material>
        </instance_geometry>
      </node>
    </visual_scene>
  </library_visual_scenes>
  <scene>
    <instance_visual_scene url="#scene" />
  </scene>
</COLLADA>