<?xml version='1.0' encoding='utf-8'?>
<COLLADA xmlns="http://www.collada.org/2005/11/COLLADASchema" version="1.4.1">
  <asset>
    <created>2026-09-14T00:00:00Z</created>
    <modified>2026-09-14T00:00:00Z</modified>
    <unit name="metre" meter="1" />
    <up_axis>Z_UP</up_axis>
  </asset>
  <library_effects>
    <effect id="scout_b2b2b2_effect">
      <profile_COMMON>
        <technique sid="common">
          <lambert>
            <emission>
              <color>0 0 0 1</color>
            </emission>
            <ambient>
              <color>0.35 0.35 0.35 1</color>
            </ambient>
            <diffuse>
              <color>0.7 0.7 0.7 1</color>
            </diffuse>
          </lambert>
        </technique>
      </profile_COMMON>
    </effect>
  </library_effects>
  <library_materials>
    <material id="scout_b2b2b2" name="scout_b2b2b2">
      <instance_effect url="#scout_b2b2b2_effect" />
    </material>
  </library_materials>
  <library_geometries>
    <geometry id="geometry" name="right_knee_link">
      <mesh>
        <source id="positions">
          <float_array id="positions_array" count="144">0.0628521591 0.0141705694 0.0149903782 0.0101424847 -0.0178137589 0.0389046445 0.0643060878 -0.00641549472 0.0161714852 0.0113719767 -0.0294507556 0.0381572954 0.0569440499 0.00935092196 -0.118881598 0.0189880896 -0.0338662378 0.031346269 0.0627061203 -0.0147799486 0.0138142314 0.0558572002 -0.0123218941 -0.122415587 0.0581432469 0.0280188713 -0.0337692238 -0.00523895258 -0.0169741549 0.0399195142 -0.00564448163 -0.027348537 0.0399217904 0.0567615293 -0.0296593104 -0.0322876535 0.0554593615 -0.0273532756 -0.0876436681 0.0501447879 0.0341257006 -0.0386035293 -0.0201348942 -0.0338758118 0.0301677659 -0.00501725217 -0.0332166217 0.0365062803 0.0498079322 -0.0322714783 -0.109003007 0.0526218191 0.0309289172 -0.0991670713 -0.0218864977 0.035298422 -0.0517722331 -0.0241543576 -0.0170334391 0.0322695673 -0.0265381467 -0.027621638 0.0304516163 -0.0338688046 -0.00834366865 -0.172959954 -0.0389610566 -0.0178243592 0.0119797196 -0.0352352224 0.0290895253 -0.10772749 -0.0195570104 -0.0357493944 -0.124625467 0.0309226904 -0.0341980383 0.0160182435 0.0321106911 -0.0178485308 -0.309388965 0.0317497179 0.0170990359 -0.310483307 -0.0325850397 0.0348180383 -0.0589917526 0.026544638 -0.0178151652 -0.314849108 0.0442954227 0.0323783904 -0.13826558 -0.035277497 -0.033847563 0.00651793601 0.0384045281 -0.0338820107 -0.1343721 0.0434021465 -0.0349456631 -0.0857034251 0.0495685637 -0.0337317772 -0.0386683792 0.0245779101 0.0172128286 -0.315036863 -0.00342369569 0.0183240287 -0.311537147 0.0310434215 0.0350155048 -0.126352176 -0.0195155088 0.0356789939 -0.1267277 -0.035259027 0.0345692709 -0.0785330832 -0.0354187526 -0.0302336868 0.0175921749 -0.034290798 -0.034230236 -0.0882474259 -0.0113064758 -0.0164998639 -0.304819912 -0.00560795981 -0.0174878631 -0.310972601 0.00553851342 -0.0190804005 -0.309563875 -0.03966197 -0.0282517839 0.00373080163 -0.010756542 0.0170018934 -0.306198567 -0.0333221518 -0.0239444859 -0.155174717</float_array>
          <technique_common>
            <accessor source="#positions_array" count="48" stride="3">
              <param name="X" type="float" />
              <param name="Y" type="float" />
              <param name="Z" type="float" />
            </accessor>
          </technique_common>
        </source>
        <source id="normals">
          <float_array id="normals_array" count="207">0.0616073906 0.661958456 0.74700439 0.189239129 0.201096043 0.961118579 0.421972871 -0.0787515789 0.903181672 0.235825285 -0.40546602 0.88316685 0.987908721 0.122225568 -0.0953793749 0.99542135 0.0832709074 -0.0469283722 0.997785687 -0.0452527031 -0.0487432852 0.286182404 -0.827618599 0.482853025 0.536981523 -0.595924795 0.597096682 0.983318448 -0.151319444 -0.100932151 0.984038889 0.170416191 -0.0512427203 -0.171958208 0.427606761 0.887458622 -0.163686916 -0.245969489 0.95535624 0.981826246 -0.183779553 -0.0473530218 0.748636603 -0.661401212 0.0457349941 0.903981447 -0.423639834 -0.0578517765 0.554218769 0.82323736 0.122970715 0.274654895 0.950998545 0.142008826 0.522883177 0.83191359 0.185776502 -0.283896744 -0.833575368 0.473872066 -0.0856444836 -0.810711086 0.579148173 0.595856547 -0.798822641 -0.0826880261 0.733653545 0.67623806 -0.0667422116 -0.163375139 0.94600153 0.279981494 -0.336627901 0.79853946 0.499015361 -0.637177408 -0.26241973 0.724665999 -0.992288709 -0.00866289251 -0.123645142 -0.900439501 0.266168714 0.344039172 -0.922629476 0.37547189 -0.0881796926 -0.171530694 -0.982479095 -0.0728840157 0.288552821 -0.937360704 0.195172131 0.991429031 -0.0193502828 -0.129205376 0.990683675 0.0411912128 -0.129804403 -0.835710526 0.482850641 0.261616439 -0.588531077 0.00796254724 0.80843538 0.677800298 -0.00911641307 -0.735189497 0.560067058 0.0200663581 -0.828204215 0.700158358 -0.015120782 -0.713827491 0.404430389 0.909381807 -0.0972665176 -0.483153075 -0.871020496 0.0888051465 0.179276988 -0.980868697 -0.0758703202 0.167843044 -0.985749662 -0.0112384316 0.301329315 -0.953157485 0.0262962226 0.092315048 -0.991270542 -0.0941311941 0.536126614 0.0255793259 -0.84374994 0.0357261337 0.998871148 -0.0313054658 -0.0625311434 0.993161321 -0.0985926241 0.0396588631 0.995943248 -0.080772832 0.0796811357 0.995891571 -0.0430222005 -0.190245703 0.978883147 -0.0747954547 -0.0514887162 0.998669744 0.00275890669 0.0466918573 -0.992053628 -0.11683102 -0.13571848 0.990598917 -0.0171531029 -0.772734404 -0.473294079 0.422935337 -0.142324656 -0.989732563 -0.0131590189 -0.298048824 -0.947570264 -0.115228027 -0.167982876 -0.974158943 -0.150983915 -0.0512781367 -0.962554753 -0.266193241 -0.350093007 0.00534385908 -0.936699688 -0.124489404 -0.0123077706 -0.992144585 -0.121782929 -0.0100298217 -0.992506087 -0.99520421 0.0966262817 0.0152279241 -0.955489933 -0.287853837 0.064646095 -0.73645246 0.520502746 -0.432104945 -0.991327584 -0.113884233 -0.0655743554 -0.977122247 -0.208176106 -0.0435290188 -0.611636758 -0.780581117 -0.128816247 -0.897904456 -0.0110721039 -0.440051138 -0.439515144 -0.00927978195 -0.89818722</float_array>
          <technique_common>
            <accessor source="#normals_array" count="69" stride="3">
              <param name="X" type="float" />
              <param name="Y" type="float" />
              <param name="Z" type="float" />
            </accessor>
          </technique_common>
        </source>
        <vertices id="vertices">
          <input semantic="POSITION" source="#positions" />
        </vertices>
        <triangles material="scout_b2b2b2" count="92">
          <input semantic="VERTEX" source="#vertices" offset="0" />
          <input semantic="NORMAL" source="#normals" offset="1" />
          <p>0 0 1 1 2 2 1 1 3 3 2 2 4 4 0 5 2 6 5 7 6 8 3 3 6 8 2 2 3 3 7 9 4 4 2 6 4 4 8 10 0 5 0 0 9 11 1 1 9 11 10 12 1 1 10 12 3 3 1 1 6 13 11 14 12 15 12 15 7 9 2 6 8 16 13 17 0 18 14 19 5 7 15 20 15 20 5 7 3 3 11 14 16 21 12 15 17 22 8 10 4 4 13 17 18 23 0 0 0 0 18 23 9 11 18 23 19 24 9 11 14 19 10 12 20 25 21 26 22 27 23 28 24 29 25 30 5 7 25 30 6 8 5 7 26 31 4 4 7 9 26 31 27 32 4 4 17 22 4 4 27 32 17 22 13 17 8 16 28 33 19 24 18 23 19 34 10 12 9 11 19 34 20 25 10 12 12 15 2 6 6 13 11 14 6 8 25 30 12 15 26 31 7 9 12 15 16 21 26 31 29 35 27 36 26 37 30 38 17 22 27 32 28 33 22 27 19 24 14 19 31 39 24 29 24 29 32 40 33 41 34 42 33 41 16 21 33 41 32 40 16 21 16 21 32 40 26 43 35 44 27 36 29 35 35 45 36 46 27 47 36 46 37 48 27 47 37 48 30 38 27 47 30 38 13 17 17 22 30 38 37 48 13 17 38 49 18 23 13 17 38 49 28 50 18 23 33 41 34 42 25 30 32 40 29 51 26 43 11 14 25 30 34 42 39 52 28 50 38 49 20 25 22 27 40 53 20 25 19 34 22 27 31 39 41 54 24 29 42 55 43 56 24 29 44 57 29 51 32 40 24 29 44 57 32 40 36 58 35 59 29 60 38 49 37 48 36 46 22 27 28 33 39 61 45 62 40 53 22 27 41 54 42 55 24 29 43 56 44 57 24 29 44 57 43 56 29 51 5 7 14 19 24 29 46 63 39 52 38 49 39 61 23 28 22 27 47 64 41 65 45 62 41 65 31 39 45 62 47 66 42 55 41 54 36 46 46 63 38 49 23 28 39 52 46 63 46 63 21 26 23 28 47 64 21 26 42 67 46 63 42 67 21 26 42 67 46 63 43 68 43 68 46 63 36 58 14 19 15 20 10 12 21 26 45 62 22 27 43 68 36 58 29 60 38 49 13 17 37 48 47 64 45 62 21 26 31 39 14 19 40 53 33 41 25 30 24 29 45 62 31 39 40 53 34 42 16 21 11 14 10 12 15 20 3 3 20 25 40 53 14 19</p>
        </triangles>
      </mesh>
    </geometry>
  </library_geometries>
  <library_visual_scenes>
    <visual_scene id="scene">
      <node id="right_knee_link">
        <instance_geometry url="#geometry">
          <bind_material>
            <technique_common>
              <instance_material symbol="scout_b2b2b2" target="#scout_b2b2b2" />
            </technique_common>
          </bind_material>
        </instance_geometry>
      </node>
    </visual_scene>
  </library_visual_scenes>
  <scene>
    <instance_visual_scene url="#scene" />
  </scene>
</COLLADA>