<?xml version='1.0' encoding='utf-8'?>
<COLLADA xmlns="http://www.collada.org/2005/11/COLLADASchema" version="1.4.1">
  <asset>
    <created>2026-09-14T00:00:00Z</created>
    <modified>2026-09-14T00:00:00Z</modified>
    <unit name="metre" meter="1" />
    <up_axis>Z_UP</up_axis>
  </asset>
  <library_effects>
    <effect id="scout_b2b2b2_effect">
      <profile_COMMON>
        <technique sid="common">
          <lambert>
            <emission>
              <color>0 0 0 1</color>
            </emission>
            <ambient>
              <color>0.35 0.35 0.35 1</color>
            </ambient>
            <diffuse>
              <color>0.7 0.7 0.7 1</color>
            </diffuse>
          </lambert>
        </technique>
      </profile_COMMON>
    </effect>
  </library_effects>
  <library_materials>
    <material id="scout_b2b2b2" name="scout_b2b2b2">
      <instance_effect url="#scout_b2b2b2_effect" />
    </material>
  </library_materials>
  <library_geometries>
    <geometry id="geometry" name="right_wrist_pitch_link">
      <mesh>
        <source id="positions">
          <float_array id="positions_array" count="75">-0.0290593021 -0.0166198071 -0.00499671418 -0.0207434241 -0.0192968491 -0.019052973 -0.0232374016 -0.0190833751 0.0146259228 0.0047442806 0.0205573179 0.0277949423 -0.00668226089 -0.0180544984 0.0280035548 0.0230931137 -0.0196662433 0.0200366154 0.0732267052 -0.000188920007 0.0195111968 0.0726012588 0.0103020519 -0.0204767603 0.0709062815 0.0131681506 0.0189598761 0.0443626307 0.0277679618 -0.0211560391 0.0207875706 0.0211455524 -0.0221402626 0.0428583622 0.0280307196 0.0187523328 0.0482378714 -0.0294710454 -0.0201336872 0.0475910194 -0.0291489288 0.017853355 -0.0248464849 0.0187943634 -0.0157582574 0.0709379092 -0.0122782439 -0.0215200763 -0.0152803361 0.02075422 0.0235425271 -0.0275612157 0.0210793559 0.00531328889 -0.0112686884 0.021076981 -0.0256593954 0.0593966469 0.0255147014 -0.0188576747 0.0674993694 -0.0182760656 0.018217029 0.0610526726 0.0250039324 0.0166772865 0.0221695378 0.0215492379 0.0203362256 0.0202407837 -0.01922209 -0.0219156481 -0.000940699305 -0.0192107037 -0.0274800137</float_array>
          <technique_common>
            <accessor source="#positions_array" count="25" stride="3">
              <param name="X" type="float" />
              <param name="Y" type="float" />
              <param name="Z" type="float" />
            </accessor>
          </technique_common>
        </source>
        <source id="normals">
          <float_array id="normals_array" count="168">-0.3350977 -0.941994905 -0.0188437216 -0.069369331 -0.99757272 -0.0060474975 -0.0644150898 -0.997622371 0.0245015845 0.122351438 0.0121885166 0.992411971 -0.213396281 -0.0433872677 0.976001799 0.176522419 -0.025932312 0.983954966 0.99774003 -0.063672699 0.0214633569 0.952550411 0.303460777 -0.023648534 0.908704042 0.417349845 0.00872453582 -0.0683757141 0.997639537 -0.00633780006 -0.132081568 0.991185486 -0.0102825714 -0.0836681649 0.996489465 -0.0029029185 -0.173497841 -0.984731019 0.0142570939 -0.350317359 -0.936584711 0.00931986421 -0.360844523 -0.93262434 0.00176367012 -0.992049396 -0.0258503966 -0.123165734 -0.846133888 0.0295047443 -0.53215313 -0.649917722 -0.0479040369 -0.758493304 0.990670502 -0.135410056 -0.0153646572 -0.567990243 0.0387551859 0.822122335 -0.967533529 0.0437159576 0.248933181 -0.829006314 -0.0298324861 0.55844295 -0.262058765 0.0259098765 -0.964704037 0.183942765 0.260535121 -0.947779775 0.0371589176 0.0557093397 -0.997755349 0.0559364371 0.0402932949 -0.99762094 0.951957226 -0.304050177 0.0364824198 0.765127957 0.643657148 -0.0168709867 0.160213813 0.987081289 0.00143644458 0.147117257 0.989091694 0.00736080948 0.158842251 0.31283617 0.936430812 0.0524905957 0.032461755 0.998093665 0.0384775959 0.086514242 0.9955073 0.224331692 -0.00205713813 0.97451067 -0.0250515025 -0.99389559 0.107442878 -0.149951622 -0.988693297 -0.000272161589 0.000924960885 -0.999949038 -0.0100543825 -0.0122367619 0.994536102 0.10367354 -0.138137698 0.990353763 0.0108368639 -0.0178249832 0.999059618 0.0395243801 -0.0556185171 0.997926712 -0.0323864035 -0.0498444401 0.998645544 -0.0149186654 0.0945713669 0.01812304 -0.995353103 0.12945278 -0.0149164991 -0.991473377 -0.0556954965 -0.0110289482 -0.99838686 -0.26071173 0.955615699 -0.137215436 0.561791599 -0.826264024 -0.0409624167 0.528854668 -0.84852314 -0.0179222915 0.479041845 -0.87765348 0.0155994529 0.753585815 0.656847775 -0.0256778691 0.0374332555 -0.0126114292 0.999219537 -0.0297688004 -0.0273911245 0.999181449 -0.049393639 -0.0263053142 0.998432934 0.0228617452 -0.11030931 -0.993634343 0.00629651733 0.0109919757 -0.999919772 0.599687994 -0.797300994 -0.0684503615</float_array>
          <technique_common>
            <accessor source="#normals_array" count="56" stride="3">
              <param name="X" type="float" />
              <param name="Y" type="float" />
              <param name="Z" type="float" />
            </accessor>
          </technique_common>
        </source>
        <vertices id="vertices">
          <input semantic="POSITION" source="#positions" />
        </vertices>
        <triangles material="scout_b2b2b2" count="46">
          <input semantic="VERTEX" source="#vertices" offset="0" />
          <input semantic="NORMAL" source="#normals" offset="1" />
          <p>0 0 1 1 2 2 3 3 4 4 5 5 6 6 7 7 8 8 9 9 10 10 11 11 5 12 12 13 13 14 0 15 14 16 1 17 6 6 15 18 7 7 16 19 17 20 2 21 18 22 1 17 14 16 19 23 7 24 9 25 6 6 20 26 15 18 7 7 21 27 8 8 9 9 21 28 19 29 21 30 11 31 8 32 22 33 5 5 11 31 2 2 5 12 4 34 2 2 1 1 5 12 23 35 5 12 24 36 5 12 1 1 24 36 3 37 22 38 16 39 22 38 10 10 18 40 16 39 22 38 17 41 22 38 18 40 17 41 10 42 23 43 24 44 18 40 14 45 17 41 18 22 24 44 1 17 0 15 2 21 17 20 2 21 4 4 16 19 24 44 18 22 10 42 12 46 20 47 13 48 0 15 17 20 14 16 4 4 3 3 16 19 7 7 19 49 21 27 11 31 5 5 13 50 11 31 13 50 20 51 20 51 6 52 11 31 8 32 11 31 6 52 5 5 22 33 3 3 23 43 10 42 9 25 12 53 23 43 15 54 9 25 7 24 23 43 7 24 15 54 23 43 15 55 20 47 12 46 10 10 22 38 11 11 21 28 9 9 11 11 12 13 5 12 23 35</p>
        </triangles>
      </mesh>
    </geometry>
  </library_geometries>
  <library_visual_scenes>
    <visual_scene id="scene">
      <node id="right_wrist_pitch_link">
        <instance_geometry url="#geometry">
          <bind_material>
            <technique_common>
              <instance_material symbol="scout_b2b2b2" target="#scout_b2b2b2" />
            </technique_common>
          </bind_material>
        </instance_geometry>
      </node>
    </visual_scene>
  </library_visual_scenes>
  <scene>
    <instance_visual_scene url="#scene" />
  </scene>
</COLLADA>