<?xml version='1.0' encoding='utf-8'?>
<COLLADA xmlns="http://www.collada.org/2005/11/COLLADASchema" version="1.4.1">
  <asset>
    <created>2026-09-14T00:00:00Z</created>
    <modified>2026-09-14T00:00:00Z</modified>
    <unit name="metre" meter="1" />
    <up_axis>Z_UP</up_axis>
  </asset>
  <library_effects>
    <effect id="scout_b2b2b2_effect">
      <profile_COMMON>
        <technique sid="common">
          <lambert>
            <emission>
              <color>0 0 0 1</color>
            </emission>
            <ambient>
              <color>0.35 0.35 0.35 1</color>
            </ambient>
            <diffuse>
              <color>0.7 0.7 0.7 1</color>
            </diffuse>
          </lambert>
        </technique>
      </profile_COMMON>
    </effect>
  </library_effects>
  <library_materials>
    <material id="scout_b2b2b2" name="scout_b2b2b2">
      <instance_effect url="#scout_b2b2b2_effect" />
    </material>
  </library_materials>
  <library_geometries>
    <geometry id="geometry" name="right_wrist_roll_link">
      <mesh>
        <source id="positions">
          <float_array id="positions_array" count="75">0.00925600715 -0.0114333322 -0.0269995127 0.00151153712 0.00492344797 -0.03058137 0.00555786397 -0.0214396734 -0.020762926 0.0470140427 -0.0252815913 0.0142729636 0.0564669371 -0.0235305671 0.00223959796 0.048478283 -0.0246028583 -0.0148428334 0.000748575083 -0.0300060064 -0.00931385439 0.000236840686 -0.0102011515 -0.0291368291 0.0558940247 0.0243808609 0.00655374769 0.0435162634 0.0298778322 -0.000227103636 0.0476791933 0.0239278618 -0.0161077864 0.044217106 0.0306412689 -0.0026639807 0.000481316732 -0.0246873572 0.0178436209 0.0408639833 -0.0305881966 0.00456932792 0.0425022505 0.0245449319 0.0171924382 0.000417411939 -0.000576923951 0.0311941206 0.000133557507 0.0287797414 0.0128538366 0.000722765399 0.0230180919 -0.0221402477 0.0110605005 -0.0212858189 0.0196218323 0.00176395464 -0.0287049226 0.00686546555 0.00160270126 -0.00619235402 0.0307272132 0.00954719167 0.0186881386 -0.0232597888 0.00173548388 0.0276981499 -0.0100917062 0.00518839993 0.0227059014 0.0201636478 0.00943691563 0.00115522393 0.0306904316</float_array>
          <technique_common>
            <accessor source="#positions_array" count="25" stride="3">
              <param name="X" type="float" />
              <param name="Y" type="float" />
              <param name="Z" type="float" />
            </accessor>
          </technique_common>
        </source>
        <source id="normals">
          <float_array id="normals_array" count="180">0.401167482 0.373134524 0.83656162 -0.0876842439 0.994240046 -0.0616298616 -0.163934782 0.986360908 0.0147492075 -0.0674896464 0.994160712 0.0842000172 -0.165671885 -0.720011175 -0.67389667 -0.0612354353 -0.962349653 -0.264827162 -0.0183979534 -0.602971435 -0.797550619 -0.355701983 -0.928831875 -0.103669837 -0.181960449 -0.983038962 0.0229090769 -0.167537749 -0.922745347 0.347090989 0.595102489 0.7697016 -0.231111467 0.00499407621 -0.78262037 0.62247926 0.159397468 -0.97963047 0.122133546 -0.0687233433 -0.952806532 -0.295697212 -0.999940395 0.00313895219 -0.0104552219 -0.999968886 -0.00736640114 -0.00282330508 -0.999944746 -0.00987647846 0.0035979168 -0.999989867 -0.00259524607 -0.00368098496 -0.999984562 -0.0050797523 0.00225601904 -0.999624252 0.0188198593 -0.0199296493 0.185296938 0.784758151 -0.591455519 0.0761110336 0.976976395 -0.199309245 0.337416083 0.685851991 -0.644792616 0.216521725 -0.907791197 0.359212399 0.412241459 -0.911074162 0.000927024987 -0.576415241 -0.0951909646 0.811593592 0.116777457 -0.950711668 0.287246078 0.0187849402 0.285993606 -0.95804739 0.105611362 0.445146739 -0.88920784 0.0665290654 0.33545354 -0.939704657 0.0740466341 -0.976135612 -0.20414795 -0.110672884 0.443943083 0.889194071 -0.0329419598 0.433414876 0.900592208 -0.456798702 0.455583125 0.764054298 0.104252405 -0.471456945 0.875705302 0.0560779981 -0.633198977 0.771954834 0.11885076 -0.556455135 -0.822333395 0.198092803 0.13369754 -0.971022248 0.244127721 0.117156371 -0.962640166 0.0729366392 0.997068942 -0.0231032018 -0.0328809209 0.97511673 0.219240099 0.122812741 0.934779644 0.333322704 0.0389211886 0.897945404 -0.438382447 -0.0692702681 0.971741736 -0.225653842 0.19697316 -0.944147944 -0.264170945 0.99683404 0.078482233 0.0127472756 0.998103201 -0.0489220507 -0.0373714529 0.999342144 -0.0357037447 -0.0063672415 0.97513485 -0.172052994 -0.13967742 0.994302154 0.0950662494 0.0482251793 0.988422871 -0.106969126 0.107600532 0.428945541 -0.606500328 0.669449866 0.241450101 -0.728163123 0.641467333 0.0354576744 0.965304434 0.258708477 -0.369236857 0.389467895 -0.843788385 -0.513574243 0.451049775 0.729928493 0.333450913 -0.359897822 -0.871369064 0.140432552 -0.479332 0.866325319 0.252640307 0.918611467 0.303851694 0.0123702977 0.77326411 0.633963406</float_array>
          <technique_common>
            <accessor source="#normals_array" count="60" stride="3">
              <param name="X" type="float" />
              <param name="Y" type="float" />
              <param name="Z" type="float" />
            </accessor>
          </technique_common>
        </source>
        <vertices id="vertices">
          <input semantic="POSITION" source="#positions" />
        </vertices>
        <triangles material="scout_b2b2b2" count="46">
          <input semantic="VERTEX" source="#vertices" offset="0" />
          <input semantic="NORMAL" source="#normals" offset="1" />
          <p>0 0 1 0 2 0 3 1 4 2 5 3 2 4 6 5 7 6 8 7 9 8 10 9 11 10 8 10 10 10 12 11 6 5 13 12 8 7 14 13 9 8 12 14 15 15 6 16 6 16 15 15 16 17 6 16 16 17 7 18 7 18 16 17 17 19 18 20 19 21 20 22 3 23 13 12 4 24 0 25 21 25 1 25 3 1 19 21 18 20 22 26 10 9 9 8 17 27 10 28 21 29 23 30 9 8 14 13 15 31 24 32 23 33 24 34 12 11 18 35 2 4 7 6 0 36 7 37 21 29 0 38 11 39 16 40 14 41 12 11 13 12 18 35 11 39 10 42 17 43 4 24 13 12 5 44 1 45 22 46 20 47 22 46 23 48 20 47 2 49 1 45 20 47 2 49 20 47 19 50 11 39 17 43 16 40 21 29 7 37 17 27 6 5 5 44 13 12 22 26 1 51 21 52 19 21 5 3 2 53 21 52 10 9 22 26 18 54 20 54 24 54 16 55 15 31 23 33 18 35 13 12 3 23 23 56 24 56 20 56 22 26 9 8 23 30 2 4 5 44 6 5 19 21 3 1 5 3 15 57 12 11 24 34 8 58 11 39 14 41 14 41 16 40 23 59</p>
        </triangles>
      </mesh>
    </geometry>
  </library_geometries>
  <library_visual_scenes>
    <visual_scene id="scene">
      <node id="right_wrist_roll_link">
        <instance_geometry url="#geometry">
          <bind_material>
            <technique_common>
              <instance_material symbol="scout_b2b2b2" target="#scout_b2b2b2" />
            </technique_common>
          </bind_material>
        </instance_geometry>
      </node>
    </visual_scene>
  </library_visual_scenes>
  <scene>
    <instance_visual_scene url="#scene" />
  </scene>
</COLLADA>