<?xml version='1.0' encoding='utf-8'?>
<COLLADA xmlns="http://www.collada.org/2005/11/COLLADASchema" version="1.4.1">
  <asset>
    <created>2026-09-14T00:00:00Z</created>
    <modified>2026-09-14T00:00:00Z</modified>
    <unit name="metre" meter="1" />
    <up_axis>Z_UP</up_axis>
  </asset>
  <library_effects>
    <effect id="scout_b2b2b2_effect">
      <profile_COMMON>
        <technique sid="common">
          <lambert>
            <emission>
              <color>0 0 0 1</color>
            </emission>
            <ambient>
              <color>0.35 0.35 0.35 1</color>
            </ambient>
            <diffuse>
              <color>0.7 0.7 0.7 1</color>
            </diffuse>
          </lambert>
        </technique>
      </profile_COMMON>
    </effect>
  </library_effects>
  <library_materials>
    <material id="scout_b2b2b2" name="scout_b2b2b2">
      <instance_effect url="#scout_b2b2b2_effect" />
    </material>
  </library_materials>
  <library_geometries>
    <geometry id="geometry" name="right_wrist_yaw_link">
      <mesh>
        <source id="positions">
          <float_array id="positions_array" count="75">-0.0193825327 0.00234823581 0.0227260832 -0.00800225418 -0.0166115873 0.0231891442 -0.00661820313 0.000390617992 0.0306943748 -0.00507605122 2.80712247e-05 0.0293432791 -0.0116920937 0.0151280994 -0.0238059033 -0.00756893819 0.00412210682 -0.0303704794 -0.0127736572 -0.0137544833 -0.0254740305 -0.00597059308 0.000185237601 -0.0296850763 0.0283789411 -0.0233249757 -0.0188628826 0.0384412445 -0.012579293 -0.0271336362 0.0382416137 -0.0272704214 -0.0125502376 -0.0056884815 0.0170867108 0.0235448405 0.0388827994 -0.0150459008 0.0256429072 0.0279764608 -0.0231323205 0.0182180852 0.0371913239 -0.00427879253 0.0292236749 0.037270993 -0.0252028275 0.0131129799 0.0276624933 0.0199027434 0.0209739916 0.036873389 0.0206501316 0.0189952701 0.0366964899 -0.00119936897 -0.030502703 0.0384601168 0.0188501459 0.0241685379 0.0388632789 0.0221936349 -0.0138180554 0.033004716 0.0226721223 -0.0187792927 0.0375791974 -0.0240730215 -0.0142494999 0.0368449613 -0.0282980427 0.0120902322 0.0375628993 0.00911283121 -0.0293827783</float_array>
          <technique_common>
            <accessor source="#positions_array" count="25" stride="3">
              <param name="X" type="float" />
              <param name="Y" type="float" />
              <param name="Z" type="float" />
            </accessor>
          </technique_common>
        </source>
        <source id="normals">
          <float_array id="normals_array" count="204">-0.537631631 -0.303490639 0.786667407 -0.190759391 -0.416590542 0.88885498 -0.252822489 -0.000592570461 0.967512488 0.414669305 -0.0362956636 -0.909248054 0.184451506 -0.0079557756 -0.982809424 0.157099441 0.355110139 -0.921529472 -0.792602003 0.0646974817 -0.606297255 0.622575223 -0.0683379918 0.779570401 0.0687981099 -0.648148835 -0.758399606 0.017252909 -0.389797688 -0.920738876 0.168753251 -0.695549846 -0.698378682 -0.170544833 0.395886362 0.902323902 -0.449609548 0.372652292 0.811776757 0.0603615828 -0.380391985 0.92285341 -0.152473509 0.552765071 -0.819269598 -0.0785246044 0.497903138 -0.86367029 -0.287137538 0.583697319 -0.759506106 -0.0530197807 0.938757479 0.340475112 -0.0338040218 0.984262526 0.173448905 -0.0859361589 0.996015787 -0.0238240194 0.0770348385 -0.318391562 -0.94482404 -0.0932877436 0.46041131 0.882790387 0.00506015681 0.354562819 0.93501848 -0.186405659 0.511394441 0.838885367 -0.0498502105 -0.365081519 -0.929639935 -0.0413069203 -0.379719913 -0.924178839 0.046289131 0.987577438 0.150160283 0.00704574725 0.996117532 0.0877506956 0.0243228022 0.996037066 0.085548915 0.0831681117 0.996526361 -0.00427475851 0.199511856 0.979416549 0.0306312088 0.105272152 0.994440734 0.00232323445 0.978904009 -0.198795229 0.0471948273 0.998782218 -0.0493271314 -0.000979517354 0.999043107 -0.042702347 0.00945275463 -0.0258129183 -0.443881571 0.895713627 -0.00619494868 -0.395130128 0.918604255 -0.018702196 -0.426355451 0.904362381 0.089403823 0.13073428 0.98737812 -0.478674799 -0.87793386 -0.0101298401 -0.390109807 -0.919851124 -0.0410879552 -0.338370293 -0.939202309 -0.0583483204 -0.0120750079 -0.142592311 -0.989707828 0.0186426714 -0.302931547 -0.952829957 0.0517119467 -0.277796328 -0.959247112 0.102197058 0.618686259 -0.778962791 0.278725088 0.647995174 -0.708812058 0.53358537 0.624975741 -0.569817483 -0.343489498 0.535141289 0.771776378 0.239550024 0.96994251 0.0427475274 -0.998684943 -0.0473380648 0.0196851213 -0.999924779 -0.00964307133 0.00757919112 -0.996868014 -0.0185078569 0.0768872723 -0.996876359 -0.0769288838 0.0178723615 -0.992961645 -0.108798742 -0.0467971154 -0.998762488 -0.047942616 -0.0132294102 -0.503826141 -0.863804519 -0.000980609679 -0.0311577953 0.530338407 -0.847213268 -0.0365729518 0.501771092 -0.864226937 0.0678622797 -0.995873392 -0.0602570362 0.0153607167 -0.687413931 0.726103365 0.00603101682 -0.36411792 0.931333303 0.0273893289 0.276801288 0.960536778 0.99959439 -0.00580544025 -0.0278815869 0.999689937 0.00557193859 -0.024269633 0.999846697 0.0129796965 0.0117540527 0.993781447 0.0290958155 -0.107479483 0.0606157891 -0.718215942 0.693174958</float_array>
          <technique_common>
            <accessor source="#normals_array" count="68" stride="3">
              <param name="X" type="float" />
              <param name="Y" type="float" />
              <param name="Z" type="float" />
            </accessor>
          </technique_common>
        </source>
        <vertices id="vertices">
          <input semantic="POSITION" source="#positions" />
        </vertices>
        <triangles material="scout_b2b2b2" count="46">
          <input semantic="VERTEX" source="#vertices" offset="0" />
          <input semantic="NORMAL" source="#normals" offset="1" />
          <p>0 0 1 1 2 2 0 3 3 4 1 5 4 6 5 6 6 6 4 7 6 7 7 7 8 8 9 9 10 10 11 11 0 12 2 2 12 13 2 2 1 1 13 14 14 15 15 16 11 17 16 18 17 19 11 20 3 4 0 3 18 21 6 22 8 23 3 4 17 24 14 25 19 26 20 27 21 28 8 29 13 30 22 31 23 32 10 33 12 34 21 35 4 36 18 37 2 2 19 38 11 11 23 39 8 40 10 41 24 42 6 43 5 44 24 45 21 46 20 47 22 48 18 21 8 23 13 30 15 49 22 31 1 5 3 4 14 15 2 2 12 13 19 38 15 50 14 51 17 52 15 50 17 52 21 53 15 50 21 53 18 54 22 55 15 50 18 54 13 56 8 40 23 39 6 43 24 42 9 9 4 57 24 45 5 58 19 26 16 18 11 17 21 59 17 59 16 59 24 45 4 57 21 46 12 13 1 1 13 60 6 43 9 9 8 8 18 37 4 36 7 61 6 22 18 21 7 62 9 63 20 64 12 34 20 64 19 65 12 34 10 33 9 63 12 34 21 28 16 18 19 26 20 64 9 63 24 66 17 24 3 4 11 20 14 15 13 14 1 5 23 67 12 13 13 60</p>
        </triangles>
      </mesh>
    </geometry>
  </library_geometries>
  <library_visual_scenes>
    <visual_scene id="scene">
      <node id="right_wrist_yaw_link">
        <instance_geometry url="#geometry">
          <bind_material>
            <technique_common>
              <instance_material symbol="scout_b2b2b2" target="#scout_b2b2b2" />
            </technique_common>
          </bind_material>
        </instance_geometry>
      </node>
    </visual_scene>
  </library_visual_scenes>
  <scene>
    <instance_visual_scene url="#scene" />
  </scene>
</COLLADA>