<?xml version='1.0' encoding='utf-8'?>
<COLLADA xmlns="http://www.collada.org/2005/11/COLLADASchema" version="1.4.1">
  <asset>
    <created>2026-09-14T00:00:00Z</created>
    <modified>2026-09-14T00:00:00Z</modified>
    <unit name="metre" meter="1" />
    <up_axis>Z_UP</up_axis>
  </asset>
  <library_effects>
    <effect id="scout_b2b2b2_effect">
      <profile_COMMON>
        <technique sid="common">
          <lambert>
            <emission>
              <color>0 0 0 1</color>
            </emission>
            <ambient>
              <color>0.35 0.35 0.35 1</color>
            </ambient>
            <diffuse>
              <color>0.7 0.7 0.7 1</color>
            </diffuse>
          </lambert>
        </technique>
      </profile_COMMON>
    </effect>
  </library_effects>
  <library_materials>
    <material id="scout_b2b2b2" name="scout_b2b2b2">
      <instance_effect url="#scout_b2b2b2_effect" />
    </material>
  </library_materials>
  <library_geometries>
    <geometry id="geometry" name="right_hand_thumb_2_link">
      <mesh>
        <source id="positions">
          <float_array id="positions_array" count="72">-0.00867233519 0.00922658388 0.00511034299 -0.00765752327 0.0232120492 -0.012430816 -0.00664835656 0.0113120349 -0.0102727357 -0.00880694948 0.02917796 -0.000999139389 -0.00411030697 0.0520998947 -0.00686188322 0.0047232178 0.0420841724 -0.00906096958 0.00668942276 0.0193255041 -0.0108513255 -0.00726162549 0.0199377052 0.0122078145 -0.00615847437 0.0429098383 0.0105000027 -0.0056435368 0.0110025425 0.00982172135 0.00346484664 0.0364625752 0.0104611563 0.00419876492 0.0473832972 0.00492632715 -0.00399355637 0.0515836179 0.00633370085 0.0090381857 0.0213727448 0.00163283711 0.00718936324 0.020246204 0.0101058641 0.00275557581 0.0154017918 -0.00863444712 0.00154845777 0.0151726427 -0.00865697581 0.00368510466 0.0155788735 -0.00859857723 0.00422673998 0.0156824496 -0.00857744832 0.00710356515 0.016122045 0.0110717444 -0.00584694929 -0.00531060295 -0.0112790167 0.00528176967 -0.00609747926 -0.0114610987 -0.0047301692 -0.00403908268 0.0119141443 0.00416572159 -0.00497116055 0.0110775596</float_array>
          <technique_common>
            <accessor source="#positions_array" count="24" stride="3">
              <param name="X" type="float" />
              <param name="Y" type="float" />
              <param name="Z" type="float" />
            </accessor>
          </technique_common>
        </source>
        <source id="normals">
          <float_array id="normals_array" count="174">-0.999733746 -0.0230284911 -0.00145267462 -0.993005753 0.00570725137 -0.117927812 -0.996335506 -0.0782168433 0.0346081331 -0.996184349 0.0851782039 -0.0190103408 -0.978432059 0.201419055 -0.045836851 -0.026151849 0.192322895 -0.980983198 0.0158716869 0.165659755 -0.986055255 0.0848007202 0.0679998323 -0.994074881 0.121847317 0.0468703285 -0.991441607 -0.988141298 0.0447018817 0.146896467 -0.984111071 0.172391519 0.0425036475 0.42316702 -0.905371368 -0.0351048894 0.551432252 -0.833240509 -0.0404076651 0.432068497 -0.899966359 -0.0581145473 -0.749718249 -0.294079214 0.592823744 0.21847719 0.279986829 0.934812844 0.100450329 0.0362340957 0.994282067 0.14985688 0.171302423 0.973754764 0.304523885 0.382060051 0.872522414 0.326607496 0.341755211 0.88120991 0.460191101 0.887290895 0.0306438264 0.831639946 0.555301368 0.00392497284 0.625945568 0.768303394 -0.133798525 0.589884281 -0.807204425 0.0213906951 0.0608592406 -0.488598049 0.870383859 0.0856554955 -0.53392005 0.841185212 0.0728035644 -0.510595083 0.856733501 0.0605657734 -0.493020684 0.867906868 0.922589362 0.359993905 -0.138684005 0.058579158 -0.48438561 0.872891188 0.367008477 -0.658309102 -0.657216847 0.989673197 0.140885264 0.0264253337 0.974733651 0.0999263674 -0.199772373 0.949945569 0.156315774 0.270497233 0.856695592 0.186223522 0.481033802 -0.967963874 0.250417262 0.0183618665 0.373103559 -0.926841021 -0.0419457704 -0.0192830022 -0.0415635593 -0.998949766 0.0213158634 -0.0236583203 -0.999492824 0.793169796 -0.600278914 -0.102697931 0.185500383 -0.981563985 0.0460621752 0.187136635 -0.982320309 -0.00516236806 0.343672305 -0.937677741 -0.0514758341 -0.987163484 -0.0566332117 0.149334967 0.140279353 0.122867979 0.982458711 0.0469366238 -0.0359758735 0.998249829 0.0120998416 -0.0598405041 0.998134613 0.0321701244 -0.046106372 0.998418391 0.0596501194 -0.0272362847 0.997847736 -0.954232574 -0.0972835645 -0.282800376 0.092314288 -0.0125829624 0.995650411 0.106155999 0.0967165083 0.989634693 0.0871129557 -0.00950898323 0.996153057 0.99940151 -0.0261064786 -0.0226941463 0.103422128 -0.014678725 -0.994529247 -0.0176022258 -0.0891034603 -0.995866835 0.0487213619 -0.0485138446 -0.997633517 -0.107542388 -0.143386424 -0.983806372</float_array>
          <technique_common>
            <accessor source="#normals_array" count="58" stride="3">
              <param name="X" type="float" />
              <param name="Y" type="float" />
              <param name="Z" type="float" />
            </accessor>
          </technique_common>
        </source>
        <vertices id="vertices">
          <input semantic="POSITION" source="#positions" />
        </vertices>
        <triangles material="scout_b2b2b2" count="44">
          <input semantic="VERTEX" source="#vertices" offset="0" />
          <input semantic="NORMAL" source="#normals" offset="1" />
          <p>0 0 1 1 2 2 3 3 4 4 1 1 4 5 5 6 1 7 1 7 5 6 6 8 7 9 3 3 0 0 8 10 3 3 7 9 9 11 0 12 2 13 9 14 7 14 0 14 8 15 7 16 10 17 3 3 8 10 4 4 11 18 12 19 8 15 12 20 11 21 4 22 6 23 13 23 14 23 15 24 16 25 2 26 17 27 15 24 2 26 4 22 11 21 5 28 18 29 17 27 2 26 18 30 2 30 6 30 5 28 11 21 13 31 6 32 5 28 13 31 11 18 8 15 10 17 14 33 11 21 10 34 11 21 14 33 13 31 12 35 4 4 8 10 19 36 9 11 2 13 20 37 1 7 21 38 1 7 6 8 21 38 18 39 6 39 19 39 15 24 17 27 18 29 15 40 18 41 16 42 18 41 19 36 16 42 2 13 16 42 19 36 20 43 2 2 1 1 0 0 3 3 1 1 14 44 10 17 7 16 2 45 20 46 21 47 21 47 6 48 2 45 22 49 7 49 9 49 23 50 19 51 22 52 7 16 22 52 19 51 6 53 14 53 19 53 19 54 23 55 9 56 9 56 23 55 22 57 19 51 14 44 7 16</p>
        </triangles>
      </mesh>
    </geometry>
  </library_geometries>
  <library_visual_scenes>
    <visual_scene id="scene">
      <node id="right_hand_thumb_2_link">
        <instance_geometry url="#geometry">
          <bind_material>
            <technique_common>
              <instance_material symbol="scout_b2b2b2" target="#scout_b2b2b2" />
            </technique_common>
          </bind_material>
        </instance_geometry>
      </node>
    </visual_scene>
  </library_visual_scenes>
  <scene>
    <instance_visual_scene url="#scene" />
  </scene>
</COLLADA>