<?xml version='1.0' encoding='utf-8'?>
<COLLADA xmlns="http://www.collada.org/2005/11/COLLADASchema" version="1.4.1">
  <asset>
    <created>2026-09-14T00:00:00Z</created>
    <modified>2026-09-14T00:00:00Z</modified>
    <unit name="metre" meter="1" />
    <up_axis>Z_UP</up_axis>
  </asset>
  <library_effects>
    <effect id="scout_b2b2b2_effect">
      <profile_COMMON>
        <technique sid="common">
          <lambert>
            <emission>
              <color>0 0 0 1</color>
            </emission>
            <ambient>
              <color>0.35 0.35 0.35 1</color>
            </ambient>
            <diffuse>
              <color>0.7 0.7 0.7 1</color>
            </diffuse>
          </lambert>
        </technique>
      </profile_COMMON>
    </effect>
  </library_effects>
  <library_materials>
    <material id="scout_b2b2b2" name="scout_b2b2b2">
      <instance_effect url="#scout_b2b2b2_effect" />
    </material>
  </library_materials>
  <library_geometries>
    <geometry id="geometry" name="right_shoulder_pitch_link">
      <mesh>
        <source id="positions">
          <float_array id="positions_array" count="78">-0.001151687 4.76005688e-08 -0.0278667249 0.0304531995 -0.0183752477 -0.0481152497 -0.0217705686 -0.00255763112 -0.0201987699 0.000376580749 5.29398676e-08 -0.027866438 -0.000376580749 5.30126307e-08 -0.0278664362 0.0280713961 0.000109602239 0.00427929824 -0.023026485 -0.00524503458 0.0357248224 0.0273956973 -0.006466622 0.0352434367 0.030669136 -0.0725298002 -0.029335402 -0.0310975537 -0.0666495934 -0.0380542874 0.000376580749 5.29398676e-08 -0.0278672725 0.00112974225 5.26342774e-08 -0.0278672334 0.00188290374 5.23141388e-08 -0.0278671607 0.00303639169 -3.63788502e-07 -0.0278672259 0.0211997945 -0.00172824413 -0.0200516805 0.0278664809 4.87925753e-08 -0.000376580749 0.0278671477 4.84724332e-08 -0.00112974225 0.0278672036 4.87925753e-08 -0.000376580749 0.0278664753 4.91272658e-08 0.000376580749 0.027867185 4.91272658e-08 0.000376580749 0.0278671216 4.94619599e-08 0.00112974225 0.02786709 4.97821055e-08 0.00188290374 0.0278670695 4.98403452e-08 0.00263606524 -0.0309276916 -0.0146781467 -0.0439880826 0.0304197688 -0.0626805574 0.0152377523 -0.0309282951 -0.0649390519 0.0118584773</float_array>
          <technique_common>
            <accessor source="#positions_array" count="26" stride="3">
              <param name="X" type="float" />
              <param name="Y" type="float" />
              <param name="Z" type="float" />
            </accessor>
          </technique_common>
        </source>
        <source id="normals">
          <float_array id="normals_array" count="189">-0.293325663 0.434095919 -0.85177505 0.0897552446 0.785517514 -0.612295866 -0.364707112 0.331521899 -0.870104551 -0.0189421177 0.995795786 0.0896211937 0.000215874461 0.948429704 0.316987425 -7.98936344e-06 0.988539219 0.150964081 -0.0944780111 0.994888067 0.0356592499 -0.0282098167 0.99588269 0.0861504227 0.0256758798 0.977745831 0.208215907 0.0241243578 -0.233354867 -0.97209233 0.101697788 -0.32558009 -0.940029323 0.00949190278 -0.215603262 -0.976434886 -0.000174078275 0.740389645 -0.672177911 4.63212673e-05 0.740552783 -0.671998143 0.000106071173 0.740598798 -0.671947479 0.0841485783 0.791958034 -0.604749084 0.265442491 0.865086496 -0.425635546 -0.0681445301 0.997597218 -0.0124961156 -0.0696079731 0.996481895 0.0466750376 0.594234049 -0.797059655 -0.107618652 0.220380098 -0.975347042 0.0114328275 0.650558472 -0.748732209 -0.127176285 -0.47347492 0.880807281 3.47494424e-05 -0.473459512 0.880815566 3.40081388e-05 -0.0512456708 0.998686075 3.40491238e-06 -0.472494721 0.88133347 -1.26041568e-05 -0.472160041 0.881512821 -3.96262585e-05 -0.47239849 0.881385088 -2.00044869e-05 -0.29038626 0.95686698 -0.0090198284 -0.807387829 0.589932621 0.0102170687 -0.0296702031 -0.993680179 0.10825596 -0.122408152 -0.969246745 0.21348767 -0.0550339743 -0.989015162 0.137187019 0.0348916017 -0.998808801 0.0341114104 -0.0377063602 -0.366668284 0.929587305 -0.0213142466 -0.353424013 0.935220361 -0.0186258312 -0.351236612 0.936101437 0.680780113 -0.719384611 -0.137928322 0.989109576 0.146376565 0.0153680481 0.987220824 0.159340456 0.00236987858 0.837225318 0.544823825 -0.0471250713 0.000872659613 -0.335243165 0.942131221 3.83207464e-07 0.999999881 0.000433921785 4.12183454e-07 0.999999881 0.000434166548 -2.50872176e-07 0.999959171 0.0090375999 0.000141514218 0.233787641 0.972287655 -2.5514322e-07 0.999959171 0.00903760735 -0.0172478929 0.963915408 0.265649289 5.43583883e-05 0.949349999 -0.314220577 -0.000122986909 0.948720992 0.316114604 8.86290363e-05 1 -4.36078125e-07 0.000188244507 1 -4.23744495e-07 -0.250306875 0.96816653 -0.0002221123 -0.000501861097 0.999999881 -5.264979e-07 -0.0278528556 0.999612033 -8.06139724e-07 -0.0734260604 -0.112894066 -0.990890265 0.0224648714 0.887268722 -0.460705519 0.999390543 0.0283566024 0.0203582849 -0.99628675 0.0688680336 0.0516716577 -0.995186329 0.01432175 0.0969488695 -0.996430397 0.0615397878 0.0577864982 -0.991291702 0.131679371 -0.00115118595 0.999975264 0.00550552271 0.00437788619</float_array>
          <technique_common>
            <accessor source="#normals_array" count="63" stride="3">
              <param name="X" type="float" />
              <param name="Y" type="float" />
              <param name="Z" type="float" />
            </accessor>
          </technique_common>
        </source>
        <vertices id="vertices">
          <input semantic="POSITION" source="#positions" />
        </vertices>
        <triangles material="scout_b2b2b2" count="48">
          <input semantic="VERTEX" source="#vertices" offset="0" />
          <input semantic="NORMAL" source="#normals" offset="1" />
          <p>0 0 1 1 2 2 2 3 3 4 4 5 5 6 6 7 7 8 1 9 8 10 9 11 0 0 10 12 1 1 10 12 11 13 1 1 11 13 12 14 1 1 12 14 13 15 1 1 13 15 14 16 1 1 15 17 14 18 6 7 14 19 16 20 5 21 16 22 17 23 5 6 18 24 15 17 6 7 17 23 19 25 5 6 19 25 20 26 5 6 20 26 21 27 5 6 21 27 22 28 5 6 2 29 23 29 6 29 9 30 8 31 24 32 24 32 25 33 9 30 25 34 24 35 6 36 14 19 5 21 7 37 7 38 1 39 14 40 24 35 7 41 6 36 12 42 11 43 10 44 13 45 12 45 0 45 12 46 10 44 0 44 14 18 13 47 2 3 13 48 0 49 3 48 19 50 17 51 16 52 20 53 19 50 16 52 21 54 20 53 16 52 22 28 21 54 16 52 5 6 22 28 6 7 0 49 2 3 4 5 0 49 4 5 3 48 13 47 3 4 2 3 16 52 14 18 15 17 22 28 16 52 18 24 16 52 15 17 18 24 22 28 18 24 6 7 1 9 9 11 23 55 1 56 23 56 2 56 1 39 7 38 24 57 6 58 23 59 9 60 6 58 9 60 25 61 1 39 24 57 8 62 6 7 14 18 2 3</p>
        </triangles>
      </mesh>
    </geometry>
  </library_geometries>
  <library_visual_scenes>
    <visual_scene id="scene">
      <node id="right_shoulder_pitch_link">
        <instance_geometry url="#geometry">
          <bind_material>
            <technique_common>
              <instance_material symbol="scout_b2b2b2" target="#scout_b2b2b2" />
            </technique_common>
          </bind_material>
        </instance_geometry>
      </node>
    </visual_scene>
  </library_visual_scenes>
  <scene>
    <instance_visual_scene url="#scene" />
  </scene>
</COLLADA>