<?xml version='1.0' encoding='utf-8'?>
<COLLADA xmlns="http://www.collada.org/2005/11/COLLADASchema" version="1.4.1">
  <asset>
    <created>2026-09-14T00:00:00Z</created>
    <modified>2026-09-14T00:00:00Z</modified>
    <unit name="metre" meter="1" />
    <up_axis>Z_UP</up_axis>
  </asset>
  <library_effects>
    <effect id="scout_b2b2b2_effect">
      <profile_COMMON>
        <technique sid="common">
          <lambert>
            <emission>
              <color>0 0 0 1</color>
            </emission>
            <ambient>
              <color>0.35 0.35 0.35 1</color>
            </ambient>
            <diffuse>
              <color>0.7 0.7 0.7 1</color>
            </diffuse>
          </lambert>
        </technique>
      </profile_COMMON>
    </effect>
  </library_effects>
  <library_materials>
    <material id="scout_b2b2b2" name="scout_b2b2b2">
      <instance_effect url="#scout_b2b2b2_effect" />
    </material>
  </library_materials>
  <library_geometries>
    <geometry id="geometry" name="right_hand_palm_link">
      <mesh>
        <source id="positions">
          <float_array id="positions_array" count="117">0.0280956347 -0.0169326942 -0.0358024873 0.00163563865 -0.0193022937 -0.00564856688 0.00122432504 -0.0115380585 -0.0221118387 0.00188142876 0.00658368226 -0.0249065198 0.0809623152 -0.017804347 -0.0342230685 0.0697289407 -0.0127623538 -0.0434691049 0.0703466237 -0.015347342 -0.0360603742 0.0693791881 -0.0118284244 -0.0412892662 0.0458524376 -0.00595797738 -0.0398660749 0.0427956842 0.0191075504 0.0137218153 0.0706574246 0.0169737339 0.0422553755 0.0573446602 0.018426368 -0.00835188664 0.0810482353 -0.0160975698 -0.0269649606 0.0832683146 -0.010019741 -0.0214544795 0.00482344115 0.0194425453 -0.017634267 0.039794825 0.0194146559 -0.0154104391 0.0402312018 0.0139282336 -0.0394359976 0.0839152187 -0.0101934196 0.0226120651 0.0335834995 -0.0155930063 0.0391807295 0.000250375393 -0.0124726351 0.0220503379 0.0693574026 -0.0130366478 0.0390156135 0.0773756057 -0.0177654754 0.0287465882 0.0701386854 -0.0193636082 0.0340714157 0.0519251786 -0.0121424524 0.0399295837 0.0703763291 -0.0108175287 0.0416899994 0.0708782673 -0.0134569239 0.0427903719 0.0788437054 -0.0206640549 0.027387334 0.0902310684 -0.000219392809 0.0385445692 0.0359068774 0.0131770493 0.0380823277 0.0702509582 0.0158575084 -0.0418876819 0.0842213109 -0.00536179682 0.0117491195 0.0730588511 0.0100649809 -0.0125449449 0.0844876617 -0.00497242901 -0.0117221624 0.087248601 0.0116523551 -0.0269681141 0.00470552314 0.0190640297 0.0197628289 0.0725189969 0.0143129602 0.0148764336 0.0718902573 0.00921280775 0.0129812537 0.0720292255 0.014563757 -0.0153029552 0.0518000871 0.0105382204 0.0397465006</float_array>
          <technique_common>
            <accessor source="#positions_array" count="39" stride="3">
              <param name="X" type="float" />
              <param name="Y" type="float" />
              <param name="Z" type="float" />
            </accessor>
          </technique_common>
        </source>
        <source id="normals">
          <float_array id="normals_array" count="333">-0.0558442734 -0.98750186 -0.147382051 -0.146532863 -0.987703443 -0.0544983149 -0.367807269 -0.84457314 -0.389119595 -0.424176008 0.207210779 -0.881554544 -0.296917826 -0.0125027625 -0.954821169 -0.469490707 -0.117920287 -0.875027597 -0.0106170224 -0.98234731 -0.186764553 -0.000178801056 -0.878038645 -0.478589684 0.237002164 0.825735629 0.511850238 0.00960269384 0.996287286 0.0855538249 -0.0111850286 0.995172918 0.0974973515 0.0908773243 0.994980156 -0.0419023857 0.579924762 0.778379917 -0.240441248 -0.424500942 0.712840259 0.558263183 0.162420109 0.935775042 0.31296137 0.634174526 -0.712060153 -0.301318854 -0.827828705 -0.179492429 0.531490445 0.00451205298 0.998280942 -0.0584359802 0.0569901168 0.991372347 -0.118038066 0.00236398401 0.985235929 -0.171185851 0.971879005 -0.233098865 -0.0334080569 0.918741465 -0.356093913 0.170620158 0.967686057 -0.249666363 -0.0353610143 -0.0871869251 -0.977295518 0.193111002 -0.204646066 -0.95270288 0.224671364 -0.208380029 0.753307641 -0.623783112 -0.523470163 0.541306615 -0.658001602 -0.591625214 0.449795067 -0.669076979 0.00586971501 0.768455744 -0.639876008 -0.095923461 0.783673644 -0.613721669 0.938205361 0.0348724909 -0.344317615 0.909158647 -0.000723309873 -0.416449368 0.972389996 0.0963016674 -0.212564483 0.115744375 0.00487620942 -0.993267059 0.0935868248 0.0193039831 -0.995423973 0.109345771 0.00904842839 -0.993962586 0.979484856 0.118237324 -0.16318509 0.728146374 -0.467278451 0.501451612 -0.782467842 0.622023344 -0.0288276616 -0.916907132 0.399062663 0.0054989527 -0.768951654 0.638526797 -0.0315746628 -0.796086192 0.236099988 -0.557228506 0.83987087 -0.1720099 0.514810145 0.899886549 -0.285511553 0.329677701 -0.572595119 0.700485051 -0.425975978 -0.943541169 0.330908418 0.015155592 -0.108506531 0.0297124721 0.993651628 -0.296242923 0.0733580217 0.95229131 -0.291898161 0.0534682497 0.95495373 -0.387942791 0.519372284 -0.761415005 -0.199307382 0.0133991446 -0.979845405 0.109224148 -0.182148337 -0.977185786 0.0821854398 -0.182705775 -0.979726553 0.0938692391 -0.182481602 -0.978718042 -0.0141605502 0.996549308 -0.0817859322 0.98510313 -0.0273491889 0.169775739 -0.777389109 -0.627657831 -0.0413748063 -0.782366097 -0.621813357 -0.0353765823 -0.795504212 -0.605647743 -0.0190744847 0.979149997 -0.194630593 -0.0581739396 -0.48344174 0.131074697 0.865507662 -0.469821632 0.105296053 0.876459002 0.265483648 0.963663101 0.0295278057 0.664720654 0.746590793 -0.0273598544 0.770637929 0.637111902 -0.0143394349 -0.0495943651 0.97355932 0.222985864 0.012945544 0.995900571 0.0895237774 0.0213382784 0.998133302 0.0572239645 -0.16332157 0.986290932 0.0235842094 0.00979715772 0.998428524 0.0551769026 -0.270333052 -0.305893391 0.912879646 0.842114151 0.23900485 -0.483446419 -0.993632615 0.112553231 0.00509877829 -0.996600866 0.0823727101 -0.00118809228 -0.987589896 0.155916393 0.018875502 -0.974711478 0.223465696 -0.0008115815 0.656606197 0.753691077 -0.0286016036 -0.999602139 -0.0101008331 -0.0263352189 -0.99804014 0.0431749746 0.0452964641 0.99654901 -0.0764588118 -0.0323131233 0.995848715 -0.00665935595 -0.0907795802 0.997124076 -0.0752974302 0.0085935872 0.99791652 -0.0643724874 -0.0043426943 -0.204494774 0.978739798 0.0158208571 -0.186377674 0.0575941019 -0.980788589 -0.143007353 0.000178944843 -0.989721596 0.968436062 -0.0678444132 0.239851534 -0.764550924 -0.642087758 -0.0564369224 -0.00794750173 -0.219603255 0.97555691 0.126715004 -0.181715026 -0.975152791 0.664913595 0.0417751782 -0.745751143 0.212364316 0.976622224 0.0333224647 0.627458513 0.77863133 0.00539142638 0.0103172194 -0.903646588 0.428154647 -0.0173967797 -0.989026546 0.146709874 0.851771295 0.523909926 0.00200808677 0.841460884 0.540001035 0.0185069833 0.134312615 -0.00725812418 -0.990912437 0.5834077 -0.772075236 0.252062142 0.972830355 0.0925460085 -0.212217674 -0.624456346 -0.507105708 -0.594052315 0.0652202964 0.0195106324 0.997680128 -0.0468897335 -0.0658223629 0.996729016 0.0527835339 0.00835179072 0.998571038 -0.0128138382 -0.0405178852 0.999096632 -0.096670568 -0.102687985 0.990005016 0.616385043 0.0859338492 0.782741845 -0.587589145 -0.438759178 0.679874539 -0.0972757638 0.0167890247 0.995115876 0.993253171 -0.101831526 -0.0554839559 -0.38593623 -0.436084628 -0.812947392</float_array>
          <technique_common>
            <accessor source="#normals_array" count="111" stride="3">
              <param name="X" type="float" />
              <param name="Y" type="float" />
              <param name="Z" type="float" />
            </accessor>
          </technique_common>
        </source>
        <vertices id="vertices">
          <input semantic="POSITION" source="#positions" />
        </vertices>
        <triangles material="scout_b2b2b2" count="82">
          <input semantic="VERTEX" source="#vertices" offset="0" />
          <input semantic="NORMAL" source="#normals" offset="1" />
          <p>0 0 1 1 2 2 3 3 0 4 2 5 4 6 0 0 5 7 6 8 7 8 8 8 9 9 10 10 11 11 5 12 7 12 12 12 6 13 12 13 7 13 6 14 4 14 5 14 13 15 6 15 5 15 13 16 5 16 12 16 14 17 15 18 16 19 13 20 17 21 4 22 18 23 19 24 1 1 20 25 21 26 22 27 23 28 24 29 20 25 24 30 10 31 25 32 10 33 24 34 23 35 20 25 24 29 21 26 24 30 25 32 22 36 22 37 17 37 24 37 17 38 12 39 21 40 24 41 17 41 21 41 17 21 25 42 26 43 27 44 22 44 25 44 13 45 12 39 17 38 10 46 28 47 18 48 14 49 16 50 3 3 6 51 8 52 29 53 15 18 11 11 16 19 11 11 29 54 16 19 5 55 29 55 7 55 30 56 31 57 32 58 33 59 13 20 4 22 34 60 19 61 28 47 29 62 10 63 35 64 28 65 9 9 34 66 28 65 10 10 9 9 6 67 22 68 12 69 35 70 36 70 30 70 35 71 27 71 17 71 3 72 19 73 34 74 3 72 34 74 14 75 35 64 10 63 27 76 19 73 3 72 1 77 3 72 2 78 1 77 11 11 10 10 29 54 6 79 31 80 22 81 31 80 36 82 22 81 21 83 12 69 22 68 5 84 0 4 29 85 10 86 20 86 22 86 30 56 36 87 31 57 15 18 9 9 11 11 10 88 22 88 27 88 4 89 6 51 29 53 29 90 33 90 4 90 19 61 18 48 28 47 33 91 29 62 37 92 25 93 18 23 26 94 30 95 32 96 37 92 23 35 38 97 10 33 0 0 26 94 1 1 27 98 25 98 17 98 26 43 4 22 17 21 0 0 4 6 26 94 0 4 3 3 16 50 34 66 9 9 15 18 34 66 15 18 14 17 6 79 37 99 31 80 31 100 37 100 32 100 7 101 29 101 8 101 18 23 1 1 26 94 38 102 23 103 20 104 38 102 20 104 10 105 0 4 16 50 29 85 33 106 37 106 13 106 13 107 37 107 6 107 35 64 37 92 29 62 10 46 18 48 25 108 35 109 22 81 36 82 35 110 17 110 22 110 35 64 30 95 37 92</p>
        </triangles>
      </mesh>
    </geometry>
  </library_geometries>
  <library_visual_scenes>
    <visual_scene id="scene">
      <node id="right_hand_palm_link">
        <instance_geometry url="#geometry">
          <bind_material>
            <technique_common>
              <instance_material symbol="scout_b2b2b2" target="#scout_b2b2b2" />
            </technique_common>
          </bind_material>
        </instance_geometry>
      </node>
    </visual_scene>
  </library_visual_scenes>
  <scene>
    <instance_visual_scene url="#scene" />
  </scene>
</COLLADA>