<?xml version='1.0' encoding='utf-8'?>
<COLLADA xmlns="http://www.collada.org/2005/11/COLLADASchema" version="1.4.1">
  <asset>
    <created>2026-09-14T00:00:00Z</created>
    <modified>2026-09-14T00:00:00Z</modified>
    <unit name="metre" meter="1" />
    <up_axis>Z_UP</up_axis>
  </asset>
  <library_effects>
    <effect id="scout_333333_effect">
      <profile_COMMON>
        <technique sid="common">
          <lambert>
            <emission>
              <color>0 0 0 1</color>
            </emission>
            <ambient>
              <color>0.1 0.1 0.1 1</color>
            </ambient>
            <diffuse>
              <color>0.2 0.2 0.2 1</color>
            </diffuse>
          </lambert>
        </technique>
      </profile_COMMON>
    </effect>
  </library_effects>
  <library_materials>
    <material id="scout_333333" name="scout_333333">
      <instance_effect url="#scout_333333_effect" />
    </material>
  </library_materials>
  <library_geometries>
    <geometry id="geometry" name="right_ankle_roll_link">
      <mesh>
        <source id="positions">
          <float_array id="positions_array" count="213">-0.0551620647 -0.019930983 -0.00807682611 -0.0624543652 -0.00626796298 -0.0102206618 -0.0595298149 -0.0193836298 -0.0350041203 -0.0647230223 0.0132878413 -0.0345474072 -0.040276397 -0.0301005524 -0.0348945074 -0.039970912 -0.0282594524 -0.00846209843 0.0289807059 0.0265881997 -0.00373086915 -0.0406478234 0.0237213578 -0.00485123135 0.0368266776 0.025938578 -0.0145289963 -0.041221831 -0.0238465369 -0.00344936992 -0.0573886856 -0.00472322991 -0.00567416893 -0.0436349586 -0.0116976779 0.0150180105 0.0672273859 -0.00809828937 0.00537903188 0.136122525 -0.0222243965 -0.0208520684 0.106824502 -0.00537359063 -0.00938091334 -0.0184649695 -0.0229666866 0.0109377922 0.00722687179 -0.0253364518 -0.00528877461 -0.0187764429 -0.0142903514 0.00643619103 -0.0264251884 -0.0154682836 0.00295101292 -0.0219872668 -0.00888363179 -0.0129729295 -0.0259996671 -0.00516033871 -0.00429185759 -0.02328486 -0.0030262596 0.00522977998 -0.0180121828 0.00512388721 -0.0112006459 0.0199614279 -0.0236993432 0.00778161222 -0.0472008772 -0.0119931158 0.0158545636 -0.0256111361 -0.0112449033 0.0203458983 -0.0425305292 0.0129205994 0.0179671235 0.0133546516 -0.0277870912 0.00595165137 -0.0180888548 0.00174441538 0.0123694763 -0.026334187 0.00431142887 0.0139286295 -0.0568677485 0.013245672 -0.00180463691 -0.0462318994 0.0200599767 -0.014566944 -0.0461325832 -0.0204346851 -0.0146151092 -0.0533486083 0.0138999578 -0.00439021131 -0.0433118604 0.0282015037 -0.0124320425 -0.0430951379 0.0296118483 -0.0348952562 -0.026139481 0.00696271984 -0.00116648595 -0.0264439043 0.00797119178 -0.0135633769 -0.0220292769 0.0148547422 0.00334835658 0.00643027201 0.0281305742 -0.0328856893 0.00702084787 0.0272685774 0.00633206172 0.0195568595 0.0233988166 0.00816104002 -0.0434478633 0.0111852717 0.0148060927 -0.0361201353 0.0222147387 0.00991592184 -0.0210523885 0.0212332588 0.0114971148 -0.0252830088 0.0117896777 0.0193519723 0.0388705656 -0.0283466075 -0.0134025849 0.000113896313 -0.0287466273 -0.0329102129 0.0454973057 0.0378220938 -0.0344467498 0.0498217233 -0.0387746282 -0.0334016494 0.0983150303 -0.0349008329 -0.0213427655 0.0718202516 -0.0234629195 -0.00295404741 0.0603279397 -0.0196759682 0.00141225872 0.10413646 -0.00998942833 -0.0124531854 0.0881137028 -0.0235865768 -0.0132101588 0.0641744807 -0.00692724762 0.00434783474 0.106199622 -0.036455173 -0.0349722691 0.134180531 -0.0235606376 -0.0349509642 0.143520728 0.00761972927 -0.0350676887 0.141326532 0.0114107765 -0.019396456 0.0371558107 -0.0150193563 0.0206865873 0.0371024236 0.013733916 0.0214981623 0.04726151 0.0314728096 -0.0123071885 0.0923646241 0.02251173 -0.0136713646 0.102305077 0.0103825461 -0.0115062827 0.059698008 0.0166775677 0.00434181187 0.112177126 0.0341604017 -0.0226658788 0.0682880953 0.0222139396 -0.000788494828 0.0887169912 0.0164348949 -0.00549350306 0.117510125 0.0348995887 -0.0350154303 0.0402141809 0.0197387766 0.0174417663</float_array>
          <technique_common>
            <accessor source="#positions_array" count="71" stride="3">
              <param name="X" type="float" />
              <param name="Y" type="float" />
              <param name="Z" type="float" />
            </accessor>
          </technique_common>
        </source>
        <source id="normals">
          <float_array id="normals_array" count="489">-0.687981427 -0.675162911 0.266151398 -0.953551531 -0.150428742 0.260980129 -0.802908242 -0.594355643 0.0456038602 -0.996550858 -0.0138209863 0.0818255767 -0.238657385 -0.968687534 0.0684621111 -0.256064713 -0.938877821 0.230085388 -0.0570805147 -0.984611332 -0.165173545 0.312847108 -0.945359647 -0.0917703658 -0.0299866982 -0.998434484 0.0472167619 0.394534171 0.91150552 -0.116191775 0.754953802 0.610331535 -0.239875197 0.464928836 0.737838805 -0.489320993 0.423235685 -0.128906697 0.896802425 0.398238808 -0.596485019 0.696858287 0.318440944 0.00534565561 0.947927654 0.111838855 0.944529653 -0.308797359 0.054586716 0.996142089 -0.0687116235 0.277311116 -0.912701964 -0.300122738 -0.868771672 0.474617869 0.141328111 -0.899191499 0.405006319 0.165603414 -0.763058305 0.642120302 0.0736448914 -0.0390832536 0.969001293 -0.243944705 -0.629716992 -0.489147007 0.603483021 -0.135980263 -0.873747528 0.4669846 -0.129419237 -0.667465627 0.733307779 -0.201965094 -0.045099061 0.978353798 -0.154099032 -0.0106365299 0.987998128 -0.137018993 0.00157485472 0.990567148 -0.0130496062 -0.970324218 0.241455212 -0.0615988895 -0.455983579 0.88785392 0.0142381461 -0.485268176 0.874249399 -0.242692739 -0.372574002 0.89570576 -0.353954256 -0.311177194 0.881977975 0.787873507 0.059256766 -0.612979591 0.790834367 0.0513779968 -0.609869897 0.715560615 0.215223879 -0.664568782 -0.893126786 0.101964496 0.438095629 0.768968284 -0.120920449 0.627746761 0.677141666 -0.0412061736 0.734697998 0.622488618 0.000595697493 0.782628596 0.856839299 -0.218090042 0.467186421 -0.359300226 0.915260792 0.182211369 -0.601387262 0.797729552 0.044283133 -0.6374228 0.763718843 0.102106474 -0.603177071 0.74262464 0.291008592 0.583629608 -0.767220378 -0.265987426 0.609696507 -0.790903091 -0.0523683764 0.753388226 -0.155997485 0.638804317 -0.371971846 -0.918676615 -0.1329294 0.394944578 0.810310602 -0.432915181 -0.105223037 0.994172454 0.0234360937 0.00940767117 0.998927295 0.0453409925 -0.00489890249 0.867452681 0.497495621 0.763920784 0.629095912 -0.143747389 -0.0560155995 -0.953267932 -0.296888113 0.852814019 -0.0837445334 -0.515456259 0.849559844 -0.0717005953 -0.522596538 0.830891967 -0.0119454525 -0.556305528 0.868703067 -0.156043261 -0.470112205 -0.804608762 0.101217598 0.585115135 0.360030323 -0.77790767 -0.515012443 -0.546720982 0.730926037 0.40846464 -0.240399301 0.820910394 0.517990649 0.135149434 -0.916038096 -0.377635777 0.261318505 -0.0304758437 -0.96477139 0.24393855 -0.0452750288 -0.968733251 0.266464204 -0.026067974 -0.963492215 0.283717632 -0.0111995218 -0.958842456 -0.0770850852 0.0440769605 0.996049762 -0.0168550666 0.66128099 0.749948859 -0.0281832758 0.654535115 0.755506098 0.199617758 -0.677916527 -0.707518101 -0.947107792 -0.313773632 -0.0673272237 0.836264789 -0.105557591 -0.538069487 0.32508871 0.600436509 0.730611563 -0.0269776285 0.689327419 0.723947406 0.0410511717 0.532550097 0.84540236 -0.0773465931 0.952774286 -0.293664217 0.0475684442 0.970162213 0.23774457 0.0126128858 -0.0045064888 -0.999910295 -0.0178020764 -0.00929798372 -0.999798298 -0.0157215409 -0.00936390273 -0.999832571 0.146031618 -0.88153398 0.448968381 0.195731089 -0.689451635 0.697385013 -0.00525933364 -0.950177491 0.311664969 -0.457683504 0.348085582 -0.818145573 -0.383410364 0.168676391 -0.908044457 -0.359056383 0.468061775 -0.807463109 -0.459216416 0.123802528 -0.879655182 0.233815745 -0.951252341 0.201119751 0.418342978 -0.907844424 0.0284192357 0.975750923 -0.190741077 0.107368417 0.967139184 -0.252772748 -0.0273438767 0.95262897 -0.285752237 -0.104133293 0.971948385 -0.157922387 0.174289644 0.0620952919 -0.489691436 0.869681835 -0.554511249 0.809099734 0.194614589 0.140354782 -0.849185824 0.509101093 0.538167894 0.127459764 0.833144248 0.468047738 -0.0890748352 0.879202485 -0.112002939 0.914044142 -0.389844328 -0.536959231 0.102023505 -0.837416291 -0.0485888161 0.97780937 0.203784108 0.0620886534 0.934301257 0.351035774 -0.326576918 -0.578457355 -0.747485518 -0.383832216 -0.159300745 -0.909558177 -0.351919472 -0.559710383 -0.750251293 -0.293915272 -0.0707281232 0.953211069 -0.06266471 0.00259829685 0.998031259 -0.0894129053 0.00494537689 0.995982349 0.164145827 0.825484157 0.540029645 0.224976644 0.76972872 0.597413778 0.332620114 0.273236036 0.9026106 0.297549337 0.112654835 0.948036551 0.613626361 0.76135391 0.209291533 0.568033397 0.769702733 0.291368842 0.699281096 0.714794278 0.00866289716 0.72212708 0.688653886 -0.0654851347 -0.322965741 -0.868331432 0.376422256 0.134983271 0.902465582 0.409066528 -0.226051927 0.62300092 0.748846054 -0.552454174 -0.0324955471 -0.832909644 0.537291944 0.162790984 0.827536404 -0.18810761 -0.898281395 -0.397122175 0.0667902902 -0.945730805 0.318012953 -0.0709111914 -0.995736659 0.0589929149 0.0147784119 0.0163246449 -0.999757528 -0.0102909338 0.00220124726 -0.999944627 0.0302065238 0.00472196192 -0.999532521 0.0204401091 -0.00122958759 -0.999790311 -0.00556269335 0.0010489258 -0.999983966 -0.153462365 0.902453244 -0.402526379 -0.898993552 0.433818698 0.0600998029 -0.899675786 0.431806713 0.0642374977 -0.899288595 0.432956666 0.0618751496 -0.898548126 0.435097247 0.057459712 -0.966796517 -0.255530298 0.00295399036 -0.954513013 -0.139017344 -0.263778567 -0.978472412 -0.154160529 -0.13720867 -0.912362039 -0.0315390378 -0.408167541 -0.919233859 -0.20024161 -0.338987321 0.191319972 0.682671607 -0.705234826 -0.0863022208 0.909267426 -0.4071666 -0.953298867 0.198997378 0.22720319 -0.794476628 0.297490567 -0.529439509 0.946815193 0.318073511 0.0486851446 0.00548390625 0.00918270461 0.99994278 0.119428635 -0.157910839 0.980204582 -0.00952696707 -0.0553654619 0.998420715 -0.00112851267 0.0100721586 0.999948621 -0.0218994245 0.0120211402 0.99968791 -0.0375917815 0.032349091 0.998769462 -0.0529175475 -0.0312839188 0.998108745 0.00288488436 -0.00460760482 -0.999985218 -0.0180038735 0.00168658793 -0.999836504 -0.00125171605 -0.00110496965 -0.999998629 -0.0108931912 -0.00431478303 -0.999931335 0.0410380661 0.996159256 0.0773474425 -0.0314437412 0.0964734256 0.994838774 -0.0385119021 0.188356578 0.981345296 -0.107495502 0.426793814 0.897937536 0.929054618 0.366319597 -0.0516480617 0.94411242 -0.28817001 0.160030678</float_array>
          <technique_common>
            <accessor source="#normals_array" count="163" stride="3">
              <param name="X" type="float" />
              <param name="Y" type="float" />
              <param name="Z" type="float" />
            </accessor>
          </technique_common>
        </source>
        <vertices id="vertices">
          <input semantic="POSITION" source="#positions" />
        </vertices>
        <triangles material="scout_333333" count="142">
          <input semantic="VERTEX" source="#vertices" offset="0" />
          <input semantic="NORMAL" source="#normals" offset="1" />
          <p>0 0 1 1 2 2 1 1 3 3 2 2 4 4 0 0 2 2 5 5 0 0 4 4 6 6 7 7 8 8 9 9 10 10 11 11 12 12 13 13 14 14 15 15 16 16 9 9 17 17 18 17 19 17 20 18 21 19 22 20 15 15 23 21 16 16 24 22 1 1 0 0 24 22 0 0 5 5 15 23 24 22 5 5 25 24 24 22 15 23 24 25 25 26 26 27 15 23 5 5 27 28 28 29 29 30 18 31 28 29 18 31 17 32 21 33 28 34 17 35 30 36 3 3 1 1 31 37 10 38 32 39 31 37 33 40 10 38 34 41 35 42 3 43 34 41 3 43 30 44 33 45 31 46 7 7 36 47 20 47 22 47 28 48 36 48 22 48 37 49 38 49 22 49 39 50 35 51 40 52 32 53 10 10 9 9 41 54 7 7 6 6 15 15 9 9 11 11 30 36 1 1 24 22 10 55 42 56 11 57 33 58 42 56 10 55 26 59 30 36 24 22 7 7 42 60 33 45 26 61 43 62 30 44 43 62 34 41 30 44 44 63 42 60 7 7 42 64 45 65 25 66 42 64 25 66 11 67 45 68 26 27 25 26 43 62 26 69 45 70 42 60 44 63 45 71 29 72 36 72 21 72 36 73 28 34 21 33 38 74 29 74 28 74 43 62 40 52 34 41 43 62 44 75 40 52 44 75 43 62 45 70 44 63 7 7 41 54 40 52 44 75 41 76 16 16 46 77 32 78 47 79 48 80 49 81 50 82 51 83 49 84 12 12 51 83 13 13 52 85 53 86 54 87 55 88 53 86 52 85 13 13 51 83 50 82 13 13 50 82 56 89 57 90 13 13 56 89 58 91 13 92 57 93 58 91 59 94 13 92 27 95 23 95 15 95 23 21 46 77 16 16 60 96 23 96 27 96 60 97 27 28 51 83 12 12 61 98 60 99 27 28 49 84 51 83 23 21 52 100 46 77 60 101 55 88 52 85 12 12 60 99 51 83 48 102 39 50 40 52 62 103 48 102 40 52 63 104 6 6 8 8 64 105 55 88 65 106 64 105 65 106 63 104 64 107 63 108 53 109 66 110 67 111 68 112 59 113 68 112 14 14 66 110 68 112 59 113 69 114 66 115 59 116 69 114 59 116 58 117 70 118 40 118 41 118 40 52 70 119 62 103 61 120 70 120 41 120 61 121 65 106 55 88 70 122 61 98 12 12 61 123 41 54 6 6 65 106 61 123 6 6 65 106 6 6 63 104 70 119 67 111 62 103 68 112 70 122 12 12 67 111 70 119 68 112 7 7 31 124 8 8 27 28 5 5 47 125 2 126 3 127 4 128 47 79 35 129 39 130 47 79 4 128 35 129 4 128 3 127 35 129 23 21 60 131 52 100 36 132 29 133 38 134 38 134 37 135 36 132 37 136 19 137 36 138 36 138 19 137 20 139 19 137 18 140 20 139 39 130 48 80 47 79 25 141 15 15 11 11 52 100 54 142 46 77 21 19 20 18 18 143 18 144 29 144 21 144 22 145 38 145 28 145 8 146 22 147 19 148 8 146 19 148 46 149 8 146 46 149 63 108 63 108 46 149 54 150 53 109 63 108 54 150 19 148 31 151 32 152 46 149 19 148 32 152 47 125 49 84 27 28 14 14 13 13 59 113 53 86 55 88 64 105 49 84 56 89 50 82 5 5 4 4 47 125 57 153 56 154 58 155 56 154 69 156 58 155 56 154 49 81 69 156 48 80 69 156 49 81 66 110 69 157 48 102 66 110 48 102 62 103 66 110 62 103 67 111 31 151 19 148 37 158 8 159 31 151 37 158 8 159 37 158 22 160 12 12 14 14 68 112 9 9 16 16 32 78 17 161 19 161 21 161 22 162 21 162 19 162 60 101 61 121 55 88 35 51 34 41 40 52</p>
        </triangles>
      </mesh>
    </geometry>
  </library_geometries>
  <library_visual_scenes>
    <visual_scene id="scene">
      <node id="right_ankle_roll_link">
        <instance_geometry url="#geometry">
          <bind_material>
            <technique_common>
              <instance_material symbol="scout_333333" target="#scout_333333" />
            </technique_common>
          </bind_material>
        </instance_geometry>
      </node>
    </visual_scene>
  </library_visual_scenes>
  <scene>
    <instance_visual_scene url="#scene" />
  </scene>
</COLLADA>