<?xml version='1.0' encoding='utf-8'?>
<COLLADA xmlns="http://www.collada.org/2005/11/COLLADASchema" version="1.4.1">
  <asset>
    <created>2026-09-14T00:00:00Z</created>
    <modified>2026-09-14T00:00:00Z</modified>
    <unit name="metre" meter="1" />
    <up_axis>Z_UP</up_axis>
  </asset>
  <library_effects>
    <effect id="scout_b2b2b2_effect">
      <profile_COMMON>
        <technique sid="common">
          <lambert>
            <emission>
              <color>0 0 0 1</color>
            </emission>
            <ambient>
              <color>0.35 0.35 0.35 1</color>
            </ambient>
            <diffuse>
              <color>0.7 0.7 0.7 1</color>
            </diffuse>
          </lambert>
        </technique>
      </profile_COMMON>
    </effect>
  </library_effects>
  <library_materials>
    <material id="scout_b2b2b2" name="scout_b2b2b2">
      <instance_effect url="#scout_b2b2b2_effect" />
    </material>
  </library_materials>
  <library_geometries>
    <geometry id="geometry" name="right_shoulder_roll_link">
      <mesh>
        <source id="positions">
          <float_array id="positions_array" count="84">0.0401908495 0.0222468991 -0.00242433697 0.0399537235 -0.0183893796 0.0168449059 0.0406754129 -0.0135389827 -0.0122336671 0.034034688 -0.0265395809 0.0219550952 -0.0340368375 -0.0191621725 0.0281730946 -0.0347174853 -0.0323029272 0.0133701758 -0.039855212 -0.0249636862 -0.00441978918 -0.0397237279 -9.82688289e-05 0.0246228147 -0.040409483 0.0222927798 -0.00123750442 -0.0180773102 -0.0403454714 -0.0566894785 0.0344758667 -0.0372759663 -0.00194735953 -0.0334635265 -0.0376056023 -0.00716091786 0.0318238921 -0.00915219355 -0.0822772458 -0.00900342129 -0.0296888463 -0.103212953 -0.0258376487 -0.00509486953 -0.103166796 0.0243257377 0.00301851425 -0.103352092 0.0350629762 0.03249906 -0.00404995959 0.0341355614 0.0297920816 0.0157122444 0.0151035842 -0.0262252968 -0.103217609 0.0396269783 0.0106888404 0.0218827035 0.034015853 0.0146809947 0.0301424954 0.0341199897 -0.00629301136 0.0337271988 0.016475616 -0.0389341339 -0.0661434084 -0.00170266535 0.0198235605 -0.102668948 -0.0353456587 0.0332113877 0.00189272105 -0.0341073684 0.0204532593 0.0273686871 -0.0340511613 -0.00173656084 0.0336498693 -0.0330227129 -0.0161283668 -0.068024762</float_array>
          <technique_common>
            <accessor source="#positions_array" count="28" stride="3">
              <param name="X" type="float" />
              <param name="Y" type="float" />
              <param name="Z" type="float" />
            </accessor>
          </technique_common>
        </source>
        <source id="normals">
          <float_array id="normals_array" count="159">0.962944627 0.266990393 -0.0381284617 0.947916746 -0.223991111 0.226454839 0.98891443 -0.126877248 -0.0771387815 0.0216999445 -0.743519604 0.668361902 -0.0163956042 -0.545769036 0.83777523 -0.0125449784 -0.882640064 0.469882011 -0.969518304 -0.244662836 -0.0132045764 -0.948908567 0.00365758152 0.315530002 -0.963888347 0.264352709 -0.0322001912 0.00722000096 -0.998414516 -0.055824019 0.0183228552 -0.971164107 0.237706855 -0.0074910596 -0.987084031 0.160028264 0.955011666 -0.149299279 -0.256246895 -0.0023224249 -0.00188755861 -0.99999553 -0.00526741007 0.00973014068 -0.999938786 -0.00435091974 0.0096827466 -0.999943674 0.901674867 0.424959123 -0.0799514353 0.907247245 0.366797745 0.205819979 0.934381604 -0.352956861 -0.0485025793 0.843643308 -0.426990628 -0.325491965 0.847609341 -0.269399226 -0.457145959 0.947007596 0.144585401 0.286830366 0.853063047 0.233113065 0.466842234 0.902818024 -0.0701687485 0.424259245 0.848545969 -0.396743536 0.350091785 0.8159495 -0.536792994 -0.214661762 0.946106136 0.267977029 -0.181855768 0.512830794 0.806280017 -0.29481706 0.357877851 0.899932802 -0.249087021 0.0613045618 0.997943163 -0.018740993 0.0349830054 -0.990494609 -0.133028612 0.0670366883 -0.956304789 -0.284582525 0.134393632 -0.93584609 -0.325776637 0.0169763491 0.893746078 0.448251843 -0.0205735806 0.983179092 0.181481794 -0.0144341225 0.627000391 0.778885245 0.000902325264 -0.163003743 0.986625016 -0.00125949306 -0.00187157129 0.999997437 -0.774569154 -0.580816507 -0.250389308 -0.77068305 -0.563051343 -0.298363566 -0.792729318 -0.542088628 -0.278783321 -0.806676984 0.522796392 -0.275601566 -0.893459439 0.448935866 -0.0136659751 -0.68116951 0.665835261 -0.304420054 -0.927593768 -0.285470515 -0.240990415 -0.925728559 0.239521623 0.292670578 -0.848171234 -0.0200936757 0.529340863 -0.926294982 -0.219251201 0.306441754 -0.943296492 -0.285262436 0.169755906 -0.881526291 -0.464668244 -0.0836347789 0.000489757804 -0.00475306856 -0.999988556 -0.00820806064 0.0279207285 -0.999576449 3.96437972e-05 0.433506757 0.901150286</float_array>
          <technique_common>
            <accessor source="#normals_array" count="53" stride="3">
              <param name="X" type="float" />
              <param name="Y" type="float" />
              <param name="Z" type="float" />
            </accessor>
          </technique_common>
        </source>
        <vertices id="vertices">
          <input semantic="POSITION" source="#positions" />
        </vertices>
        <triangles material="scout_b2b2b2" count="52">
          <input semantic="VERTEX" source="#vertices" offset="0" />
          <input semantic="NORMAL" source="#normals" offset="1" />
          <p>0 0 1 1 2 2 3 3 4 4 5 5 6 6 7 7 8 8 9 9 10 10 11 11 3 3 5 5 10 10 12 12 0 0 2 2 13 13 14 14 15 15 16 16 17 17 0 0 10 18 2 2 1 1 12 12 2 2 10 18 12 12 18 19 15 20 12 12 16 16 0 0 17 17 19 21 0 0 17 17 20 22 19 21 20 22 21 23 19 21 3 24 10 18 1 1 12 12 22 25 18 19 16 16 12 12 15 26 21 23 3 24 1 1 22 25 12 12 10 18 15 27 23 28 16 29 22 30 13 31 18 32 17 33 24 34 25 35 4 4 3 3 21 36 22 30 9 9 13 31 21 36 25 35 26 37 21 36 26 37 4 4 10 10 9 9 22 30 9 38 14 39 13 40 14 41 24 42 23 43 9 38 27 44 14 39 8 8 25 45 24 42 26 46 7 7 4 47 5 48 6 6 11 49 9 38 11 49 27 44 11 49 6 6 27 44 16 29 23 28 24 34 7 7 26 46 25 45 4 47 7 7 5 48 8 8 24 42 14 41 7 7 6 6 5 48 8 8 14 41 27 44 6 6 8 8 27 44 1 1 0 0 19 21 8 8 7 7 25 45 15 15 18 50 13 13 14 14 23 51 15 15 20 52 17 33 25 35 10 10 5 5 11 11 21 36 20 52 25 35 1 1 19 21 21 23 17 33 16 29 24 34</p>
        </triangles>
      </mesh>
    </geometry>
  </library_geometries>
  <library_visual_scenes>
    <visual_scene id="scene">
      <node id="right_shoulder_roll_link">
        <instance_geometry url="#geometry">
          <bind_material>
            <technique_common>
              <instance_material symbol="scout_b2b2b2" target="#scout_b2b2b2" />
            </technique_common>
          </bind_material>
        </instance_geometry>
      </node>
    </visual_scene>
  </library_visual_scenes>
  <scene>
    <instance_visual_scene url="#scene" />
  </scene>
</COLLADA>