<?xml version='1.0' encoding='utf-8'?>
<COLLADA xmlns="http://www.collada.org/2005/11/COLLADASchema" version="1.4.1">
  <asset>
    <created>2026-09-14T00:00:00Z</created>
    <modified>2026-09-14T00:00:00Z</modified>
    <unit name="metre" meter="1" />
    <up_axis>Z_UP</up_axis>
  </asset>
  <library_effects>
    <effect id="scout_333333_effect">
      <profile_COMMON>
        <technique sid="common">
          <lambert>
            <emission>
              <color>0 0 0 1</color>
            </emission>
            <ambient>
              <color>0.1 0.1 0.1 1</color>
            </ambient>
            <diffuse>
              <color>0.2 0.2 0.2 1</color>
            </diffuse>
          </lambert>
        </technique>
      </profile_COMMON>
    </effect>
  </library_effects>
  <library_materials>
    <material id="scout_333333" name="scout_333333">
      <instance_effect url="#scout_333333_effect" />
    </material>
  </library_materials>
  <library_geometries>
    <geometry id="geometry" name="right_hip_pitch_link">
      <mesh>
        <source id="positions">
          <float_array id="positions_array" count="87">-0.0228628647 -0.0525216535 -0.0818787515 -0.0306471623 -0.0909310505 -0.0575613678 -0.0300976392 -0.0149064446 -0.0610480756 -0.0410430878 -0.0261696409 -0.00147529354 -0.016003523 -0.018601587 0.00104981079 -0.0265179873 -0.0115147112 -0.0131052779 -0.0143081117 -0.093750909 -0.0103709167 -0.00590126775 -0.0954822674 -0.0525561906 -0.00647720182 -0.0268323664 -0.0698330551 -0.00169996149 -0.0531791262 -0.080035165 -0.000878302497 -0.0789564177 -0.0735681355 -0.00369821652 -0.0109685855 -0.0645912588 -0.00868532248 -0.00677009299 -0.0380300395 0.0389240496 -0.0793769583 -0.0677404627 0.0291890223 -0.00191962859 -0.0273949038 0.00159508165 -0.00855538994 -0.0159765091 -0.0143923769 -0.00865583215 0.00907060597 0.0165052339 -0.00746048754 0.000841748202 0.0207796916 -0.00443260511 0.0364335254 -0.0205788631 -0.00749187358 0.0279594101 -0.0411468595 -0.0797783434 -0.000987885986 0.0351729169 -0.00554843433 -0.0490157269 0.0392122231 -0.0274361875 -0.0689788535 -0.018000111 -0.0691960528 0.0116439844 0.0247015469 -0.0807324573 0.0151929148 0.0321551822 -0.0328832045 -0.0201624688 0.0260847099 -0.0621364042 -0.0133853946 0.0325761214 -0.0638110191 -0.0377318859 0.0323911645 -0.0998762548 -0.025559729</float_array>
          <technique_common>
            <accessor source="#positions_array" count="29" stride="3">
              <param name="X" type="float" />
              <param name="Y" type="float" />
              <param name="Z" type="float" />
            </accessor>
          </technique_common>
        </source>
        <source id="normals">
          <float_array id="normals_array" count="192">-0.948806286 -0.00762380427 -0.315766573 -0.975729823 -0.00248462334 -0.218963817 -0.97506392 -0.0031291428 -0.221902058 -0.287422627 0.753807604 0.590899587 -0.215255529 -0.909940839 0.354503542 -0.27341193 -0.961176276 0.0372301862 -0.0377211012 -0.976076901 -0.214128539 0.0194005724 0.414294451 -0.90993613 -0.0977703407 0.383659095 -0.918284655 0.131391108 0.151822418 -0.979635835 -0.944334745 -0.10805805 -0.310733557 0.0699878782 0.467212021 -0.881370902 -0.947315931 0.237104744 -0.215345979 -0.441063046 0.897441745 -0.00785863586 -0.460678756 0.887113631 -0.0283625815 -0.70903039 0.705171287 0.00305214827 0.228160247 -0.100675054 -0.968404591 0.138298154 -0.236851767 -0.96165216 -0.156172559 0.987243235 -0.0309994854 -0.171984673 0.984440923 -0.0360188037 -0.0669566244 0.995084763 0.0729596764 -0.0734615847 0.995640218 -0.0574805178 -0.242016226 0.970196605 -0.0121108387 -0.130396172 0.989046097 -0.0691709667 -0.061820697 0.99475044 -0.0815457329 -0.432926238 -0.89626658 0.0963385999 0.0596400686 -0.546572864 -0.835285068 0.0653501227 -0.544811904 -0.836007953 0.0692091584 -0.543610215 -0.836479545 -0.0898247659 0.469222039 -0.878499985 0.981290877 0.0472667366 0.186638743 0.980700254 0.0234865081 0.194101647 0.979989588 -0.000691273191 0.199047536 -0.985605597 0.00350174238 -0.169024631 -0.410489053 0.138689563 0.901256859 -0.536596239 0.193177894 0.821429729 -0.249569967 0.0704029873 0.965794086 -0.103096433 0.00924267899 0.994628429 -0.0933305174 -0.672377706 0.734300733 -0.17250666 -0.509505212 0.842998147 -0.0732106939 0.981991231 -0.174164861 -0.063756749 0.981169283 -0.18232356 0.179398954 0.362304598 -0.914631844 -0.120004974 -0.634036839 0.763934612 -0.166821957 -0.263760775 0.950052977 0.958225608 0.0653271377 0.278453022 0.964923203 -0.0374400169 0.259848982 0.978608847 0.00317822769 0.205705047 0.975029469 0.0665105283 0.211881638 0.0389028713 -0.999225438 0.00592418946 -0.175513193 -0.258509606 0.949930489 0.147246242 -0.86391449 -0.481632888 0.0801052451 -0.792709172 -0.60431391 0.0557021424 -0.547775388 -0.83476907 -0.697186291 -0.696665645 0.169080764 -0.827768087 0.0421587825 -0.559484243 -0.983374476 -0.000594877638 -0.181588173 -0.983201325 0.000243637551 -0.182524323 0.188783169 0.680550277 -0.707963407 0.968857348 0.105777539 0.223889485 0.991255403 0.0144368382 0.131165281 0.981988847 0.0108122779 0.188629121 0.981555283 -0.0119147971 0.190806732 0.230325401 0.830172122 -0.507705092</float_array>
          <technique_common>
            <accessor source="#normals_array" count="64" stride="3">
              <param name="X" type="float" />
              <param name="Y" type="float" />
              <param name="Z" type="float" />
            </accessor>
          </technique_common>
        </source>
        <vertices id="vertices">
          <input semantic="POSITION" source="#positions" />
        </vertices>
        <triangles material="scout_333333" count="54">
          <input semantic="VERTEX" source="#vertices" offset="0" />
          <input semantic="NORMAL" source="#normals" offset="1" />
          <p>0 0 1 1 2 2 3 3 4 3 5 3 6 4 1 5 7 6 0 7 8 8 9 9 7 10 9 10 10 10 11 11 9 9 8 8 12 12 11 12 8 12 5 13 2 14 3 15 9 9 13 16 10 17 14 18 12 19 15 20 16 21 12 19 5 13 15 20 12 19 16 21 17 22 16 21 18 23 16 21 5 13 19 24 15 20 17 22 14 18 6 4 20 25 1 5 0 26 7 27 1 28 2 14 5 13 12 19 8 8 0 7 2 29 21 30 13 31 22 32 23 33 19 33 4 33 20 34 23 35 4 36 20 34 4 36 3 37 16 21 19 24 18 23 17 22 18 23 14 18 20 38 6 4 23 39 11 40 12 19 14 18 21 41 11 40 14 18 11 11 22 42 9 9 23 39 24 43 18 44 25 45 26 46 27 47 28 48 13 31 27 47 26 46 28 48 27 47 17 22 15 20 16 21 24 43 6 4 28 49 7 6 28 49 6 4 19 50 23 39 18 44 13 51 7 6 10 52 0 26 9 53 7 27 4 54 19 54 5 54 13 31 21 30 27 47 25 45 27 47 21 30 26 55 25 55 28 55 2 2 1 1 3 56 1 1 20 57 3 56 13 51 28 49 7 6 21 58 22 42 11 11 9 9 22 42 13 16 24 43 23 39 6 4 14 59 18 60 24 61 14 59 24 61 25 45 21 30 14 59 25 45 28 62 25 45 24 61 12 63 8 63 2 63</p>
        </triangles>
      </mesh>
    </geometry>
  </library_geometries>
  <library_visual_scenes>
    <visual_scene id="scene">
      <node id="right_hip_pitch_link">
        <instance_geometry url="#geometry">
          <bind_material>
            <technique_common>
              <instance_material symbol="scout_333333" target="#scout_333333" />
            </technique_common>
          </bind_material>
        </instance_geometry>
      </node>
    </visual_scene>
  </library_visual_scenes>
  <scene>
    <instance_visual_scene url="#scene" />
  </scene>
</COLLADA>