<?xml version='1.0' encoding='utf-8'?>
<COLLADA xmlns="http://www.collada.org/2005/11/COLLADASchema" version="1.4.1">
  <asset>
    <created>2026-09-14T00:00:00Z</created>
    <modified>2026-09-14T00:00:00Z</modified>
    <unit name="metre" meter="1" />
    <up_axis>Z_UP</up_axis>
  </asset>
  <library_effects>
    <effect id="scout_b2b2b2_effect">
      <profile_COMMON>
        <technique sid="common">
          <lambert>
            <emission>
              <color>0 0 0 1</color>
            </emission>
            <ambient>
              <color>0.35 0.35 0.35 1</color>
            </ambient>
            <diffuse>
              <color>0.7 0.7 0.7 1</color>
            </diffuse>
          </lambert>
        </technique>
      </profile_COMMON>
    </effect>
  </library_effects>
  <library_materials>
    <material id="scout_b2b2b2" name="scout_b2b2b2">
      <instance_effect url="#scout_b2b2b2_effect" />
    </material>
  </library_materials>
  <library_geometries>
    <geometry id="geometry" name="right_shoulder_yaw_link">
      <mesh>
        <source id="positions">
          <float_array id="positions_array" count="87">-0.0296797808 -0.0023262382 -0.0926322415 -0.0215095598 -0.0230677705 -0.0302489065 -0.035279762 -0.00211490155 0.0299623311 -0.0180173591 -0.0230205636 -0.0886325687 0.0125295501 -0.0237274431 -0.115122721 0.0223175008 -0.0270798095 -0.0101829255 0.0125025064 -0.0201986525 -0.0382253155 0.0392048322 -0.0218555499 -0.0563786849 -0.0199880917 0.0269244704 -0.077755399 -0.0223094523 0.0240592379 -0.0282130614 -0.00449673878 0.0385531113 -0.10176824 -0.00354217598 0.0405993611 -0.0576221943 -0.0181377921 0.0184730347 -0.000204651049 -0.0205356739 0.0239208546 0.0325201787 -0.0112745771 -0.0248985887 -7.83047744e-06 0.00860182475 0.0293122195 -0.112541944 0.00359669491 0.0257231425 -0.0495062992 0.0294264555 0.0132500622 0.0319144912 0.0108508132 0.033052776 0.0296054631 0.0132163921 0.0181946531 -0.0385867134 0.0300010834 0.0142710684 -0.00134606217 0.0448898636 0.0319578983 -0.0982139185 0.0472889207 -0.022480363 -0.0916267782 -0.0146784661 -0.030572854 0.0323056504 0.0213615876 -0.0277218577 0.0323017947 0.0415893719 0.0290562212 -0.0586438142 0.0283412393 0.0364146717 -0.0566624738 0.041233357 0.0368637703 -0.0806037039 0.0281809736 0.00584951369 0.00012355599</float_array>
          <technique_common>
            <accessor source="#positions_array" count="29" stride="3">
              <param name="X" type="float" />
              <param name="Y" type="float" />
              <param name="Z" type="float" />
            </accessor>
          </technique_common>
        </source>
        <source id="normals">
          <float_array id="normals_array" count="246">-0.870291352 -0.490096837 -0.0489696078 -0.8706972 -0.490817904 -0.0313724726 -0.828958154 -0.559287846 0.00504490547 -0.587812304 -0.459900439 -0.665558577 -0.54762733 -0.145871997 -0.823908806 -0.518969893 -0.13684462 -0.843767583 0.00892218668 -0.991710782 -0.128180236 0.00929601397 -0.997021377 -0.076563254 0.107870862 -0.988673925 0.10434413 0.0146379732 -0.999767721 0.0158184245 0.0254907999 -0.99899292 0.0369245186 -0.865647852 -0.497926623 -0.0521810539 -0.837468326 0.530549169 -0.131012768 -0.913021445 0.379099429 -0.15058361 -0.88951391 0.456800103 0.00993221253 -0.906567812 0.421880633 -0.0123094246 -0.7565732 0.627414465 -0.184249952 -0.62254113 0.782254934 -0.0227978025 0.98661983 0.156334862 0.0462680645 0.987716258 0.135383353 0.0780250207 0.987690091 0.122840017 0.0968430713 -0.516698599 0.0893567875 -0.85149157 -0.556789398 0.16087544 -0.814926207 -0.124102302 0.991878092 -0.0278644878 -0.0606645197 0.998149395 0.00419103773 -0.0173300803 0.998228371 0.056919504 -0.237663656 -0.951101184 0.197287887 -0.204931617 -0.967811048 0.146098778 -0.224055573 -0.958566904 0.175922066 -0.278467715 0.960390151 0.0103212902 -0.237954259 0.97116679 -0.0145904366 0.921203017 -0.0563441589 -0.384981036 0.972705662 -0.141429514 -0.183960184 0.972622812 -0.118122965 -0.200129598 0.449741244 0.00983301364 -0.893104792 0.56028533 -0.0751215294 -0.824886143 0.486246705 -0.0172885191 -0.873650551 -0.138590351 -0.0187942889 0.990171432 0.0788515881 -0.9967978 -0.0132900216 0.0213664379 -0.997757971 -0.0634227991 -0.0777684748 0.983310282 0.164477661 0.0543715917 0.843817055 0.533869326 0.570886195 0.00322329788 0.821022868 0.578021944 -0.0030664918 0.816015422 0.5684762 0.0053345277 0.82268244 0.119885564 0.963644981 -0.238779932 0.147465736 0.942312241 -0.300502092 0.149577126 0.833015859 -0.532645524 0.184168458 0.215617105 0.958953202 0.0707625002 0.436546713 0.896894455 0.220305279 0.136579156 0.965821803 -0.870968044 0.490621537 0.0265554339 0.938002646 0.331120819 0.102518708 0.996411324 0.0110475859 0.0839195028 0.988836825 0.0706051588 0.13121219 0.157814965 0.98694998 -0.0320035964 0.222178876 0.970345378 0.095217362 0.497698128 0.819750369 0.283382952 0.668782532 0.742546856 -0.0367973633 0.726971745 0.685844183 0.0336130634 0.633918345 0.767652154 -0.0941154212 0.0456734523 0.157859623 0.986404717 -0.506840527 0.647941411 0.568581164 -0.810605168 -0.585307181 0.0182966739 0.985850275 0.0247406475 0.16579248 0.0385054499 0.492746532 0.869320512 0.361749977 0.0720151886 -0.929489493 0.667486191 0.718614817 -0.19507657 0.942062914 -0.0206683166 -0.334798932 0.56263274 0.0104264366 0.826641202 0.00945606269 -0.999619842 0.0258982088 0.0100174667 -0.999219298 0.0382155366 0.972591639 0.0697028711 0.221826553 -0.767894566 -0.0191838555 0.640288889 0.981026828 -0.192923054 0.0191577226 0.981863081 -0.188978225 0.015237256 0.986836672 0.105586983 0.122494102 0.771102786 0.568005085 -0.287698984 0.13142103 0.990127921 -0.0487356558 -0.257488102 -0.938841939 0.228638813 -0.00611253083 0.00357063045 0.999974966 -0.981163502 0.193069577 -0.00650499575</float_array>
          <technique_common>
            <accessor source="#normals_array" count="82" stride="3">
              <param name="X" type="float" />
              <param name="Y" type="float" />
              <param name="Z" type="float" />
            </accessor>
          </technique_common>
        </source>
        <vertices id="vertices">
          <input semantic="POSITION" source="#positions" />
        </vertices>
        <triangles material="scout_b2b2b2" count="54">
          <input semantic="VERTEX" source="#vertices" offset="0" />
          <input semantic="NORMAL" source="#normals" offset="1" />
          <p>0 0 1 1 2 2 3 3 0 4 4 5 5 6 1 7 6 8 3 9 7 10 1 7 0 0 3 11 1 1 8 12 0 13 2 14 9 15 8 12 2 14 8 12 10 16 0 13 11 17 10 16 8 12 12 18 13 19 14 20 0 4 15 21 4 5 10 22 15 21 0 4 9 23 16 24 8 25 17 26 13 27 12 28 13 29 18 30 9 23 7 10 6 8 1 7 19 31 20 32 5 33 21 34 22 35 4 36 2 37 23 37 13 37 24 38 23 39 5 6 24 40 14 40 23 40 25 41 16 41 19 41 25 42 19 43 6 44 10 45 21 46 15 47 26 48 16 49 25 50 13 51 9 15 2 14 27 52 25 53 21 54 27 55 26 56 25 57 18 58 17 59 20 60 17 61 18 61 13 61 24 62 28 62 14 62 1 1 23 63 2 2 16 24 9 23 18 30 21 54 25 53 7 64 11 65 16 49 26 48 4 36 15 66 21 34 20 60 16 67 18 58 6 68 19 31 5 33 6 44 7 69 25 42 22 70 7 10 3 9 22 70 3 9 4 71 22 72 21 54 7 64 11 73 8 73 16 73 24 74 5 33 17 75 14 20 13 19 23 76 23 39 1 7 5 6 20 60 19 77 16 67 10 45 27 55 21 46 27 55 10 45 26 56 26 56 10 45 11 78 5 33 20 32 17 75 12 28 28 79 17 26 28 80 12 80 14 80 28 81 24 81 17 81</p>
        </triangles>
      </mesh>
    </geometry>
  </library_geometries>
  <library_visual_scenes>
    <visual_scene id="scene">
      <node id="right_shoulder_yaw_link">
        <instance_geometry url="#geometry">
          <bind_material>
            <technique_common>
              <instance_material symbol="scout_b2b2b2" target="#scout_b2b2b2" />
            </technique_common>
          </bind_material>
        </instance_geometry>
      </node>
    </visual_scene>
  </library_visual_scenes>
  <scene>
    <instance_visual_scene url="#scene" />
  </scene>
</COLLADA>