<?xml version='1.0' encoding='utf-8'?>
<COLLADA xmlns="http://www.collada.org/2005/11/COLLADASchema" version="1.4.1">
  <asset>
    <created>2026-09-14T00:00:00Z</created>
    <modified>2026-09-14T00:00:00Z</modified>
    <unit name="metre" meter="1" />
    <up_axis>Z_UP</up_axis>
  </asset>
  <library_effects>
    <effect id="scout_b2b2b2_effect">
      <profile_COMMON>
        <technique sid="common">
          <lambert>
            <emission>
              <color>0 0 0 1</color>
            </emission>
            <ambient>
              <color>0.35 0.35 0.35 1</color>
            </ambient>
            <diffuse>
              <color>0.7 0.7 0.7 1</color>
            </diffuse>
          </lambert>
        </technique>
      </profile_COMMON>
    </effect>
  </library_effects>
  <library_materials>
    <material id="scout_b2b2b2" name="scout_b2b2b2">
      <instance_effect url="#scout_b2b2b2_effect" />
    </material>
  </library_materials>
  <library_geometries>
    <geometry id="geometry" name="right_ankle_pitch_link">
      <mesh>
        <source id="positions">
          <float_array id="positions_array" count="63">-0.0207417328 0.00344405719 -0.0122382212 -0.0187200829 0.000130058179 -0.0175328404 -0.0219235998 -0.00551888486 -0.0193351023 0.00990152266 -0.00583343487 -0.0157437548 -0.0152383959 -0.00560865784 -0.0108779985 -0.00112380856 -0.00650297105 -0.0256850161 -0.022788642 0.00429062685 -0.0211935006 0.00773953833 -0.00462106522 0.0081909867 0.00554834632 0.0044261408 0.0104054073 -0.00484808953 -0.00525324978 0.00979841314 0.00410178537 -0.00407840032 0.00351007353 0.00749995699 0.00583187863 -0.00393124716 -0.00482732803 -0.00610986352 -0.00723796384 -0.0169217736 0.00203889608 0.00405012071 -0.00260335696 -0.00351996277 0.00449432665 -0.00544233434 0.00610242644 -0.0062169428 0.0101270927 0.00569923501 -0.0159697179 -0.00520834653 0.0060786251 0.00537182204 0.00745435059 -0.00528167142 -0.00607599691 -0.00601014262 0.00508948835 -0.0146546187 -0.00173909985 0.0064486824 -0.0257136747</float_array>
          <technique_common>
            <accessor source="#positions_array" count="21" stride="3">
              <param name="X" type="float" />
              <param name="Y" type="float" />
              <param name="Z" type="float" />
            </accessor>
          </technique_common>
        </source>
        <source id="normals">
          <float_array id="normals_array" count="168">-0.621538579 0.535035849 -0.572211921 0.0170052536 -0.998835146 0.0451571383 -0.0354769677 -0.999147177 0.0211245641 -0.00734244566 -0.998550951 0.0533112809 -0.758125544 -0.642319918 0.112564355 0.134099916 -0.204835594 0.969566703 -0.679381907 0.575129688 0.455703914 -0.288055003 0.251449227 0.924011707 -0.289197534 0.347300321 0.89204669 -0.289186507 0.350050569 0.890974581 0.979977608 0.164875001 -0.111624844 0.977600873 0.065941982 -0.199870542 0.980499923 0.155448511 -0.120231517 0.991596699 0.0585989095 0.115335084 0.977450609 0.141280547 0.15693976 0.995708525 -0.0176956803 0.0908369869 -0.553334653 -0.370449483 -0.746048212 -0.0783480033 -0.996481776 -0.0297606066 -0.00223080767 -0.997213185 0.0745715201 -0.0603042729 -0.996343374 -0.0605251826 -0.680247068 -0.680652857 0.271984518 -0.775545061 -0.519701421 0.358385623 -0.595611691 -0.740191936 0.312029809 -0.017569242 -0.999722064 0.0157189183 -0.0654701963 -0.996599495 0.0500307307 -0.140781268 0.0521758683 -0.988664925 0.961762667 0.208964378 0.177049339 0.787943244 0.593112826 0.165416405 -0.0353157558 0.998931646 0.0298050679 -0.0867867619 0.9954198 0.0400927179 -0.0141012566 0.998580277 -0.0513669476 -0.092323035 0.989526868 0.11096409 -0.248431936 0.968106508 0.0324252844 -0.226259381 0.970559597 -0.0825878382 -0.326884419 0.945025742 0.00854101125 -0.294679433 -0.202894658 -0.933808208 -0.266924083 -0.1389274 -0.953651249 -0.23396185 -0.0659605563 -0.970005691 -0.208753854 -0.0120810531 -0.977893591 -0.610276461 0.09517508 0.786450505 -0.175037175 -0.090779461 0.980367839 -0.280295938 0.556939423 0.781826496 -0.821844697 -0.446436673 0.353928834 0.100154631 0.988807023 0.110588282 -0.0406818204 -0.998939633 0.0215545055 0.670321047 -0.0276404843 -0.741556227 0.650181413 0.00542224711 -0.759759605 0.654869437 -0.00210121088 -0.755739152 0.635428369 0.0284797382 -0.771634459 -0.0560852587 -0.963998139 -0.259926915 -0.129459739 -0.925058126 -0.357082039 0.665811062 -0.74513787 0.0382779911 -0.0522744805 0.993419647 0.101905949 -0.0882437006 0.990504861 0.105418749 0.964478076 0.263483644 -0.0189325511 -0.733887255 -0.359551698 0.576309025</float_array>
          <technique_common>
            <accessor source="#normals_array" count="56" stride="3">
              <param name="X" type="float" />
              <param name="Y" type="float" />
              <param name="Z" type="float" />
            </accessor>
          </technique_common>
        </source>
        <vertices id="vertices">
          <input semantic="POSITION" source="#positions" />
        </vertices>
        <triangles material="scout_b2b2b2" count="42">
          <input semantic="VERTEX" source="#vertices" offset="0" />
          <input semantic="NORMAL" source="#normals" offset="1" />
          <p>0 0 1 0 2 0 3 1 4 2 5 3 1 4 0 4 6 4 7 5 8 5 9 5 10 6 11 6 12 6 9 7 8 8 13 9 14 10 12 11 15 12 16 13 7 14 3 15 17 16 11 16 10 16 10 17 18 18 7 19 3 1 7 19 18 18 13 20 4 21 9 22 4 2 3 1 12 23 18 18 12 23 3 1 12 23 9 24 4 2 17 25 10 25 14 25 8 26 16 13 11 27 16 28 19 29 11 30 0 31 13 32 19 29 19 29 13 32 15 33 15 33 13 32 17 34 19 29 15 33 11 30 2 35 6 36 5 37 6 36 20 38 5 37 1 39 6 39 2 39 12 40 11 40 15 40 17 41 13 9 8 8 0 42 4 21 13 20 8 43 11 43 17 43 4 2 2 44 5 3 3 45 5 46 16 47 20 48 16 47 5 46 10 17 12 23 18 18 10 17 7 19 9 49 9 49 14 50 10 17 12 51 14 51 9 51 16 28 20 52 19 29 20 52 6 53 19 29 6 53 0 31 19 29 17 54 14 10 15 12 16 13 8 26 7 14 2 55 4 21 0 42</p>
        </triangles>
      </mesh>
    </geometry>
  </library_geometries>
  <library_visual_scenes>
    <visual_scene id="scene">
      <node id="right_ankle_pitch_link">
        <instance_geometry url="#geometry">
          <bind_material>
            <technique_common>
              <instance_material symbol="scout_b2b2b2" target="#scout_b2b2b2" />
            </technique_common>
          </bind_material>
        </instance_geometry>
      </node>
    </visual_scene>
  </library_visual_scenes>
  <scene>
    <instance_visual_scene url="#scene" />
  </scene>
</COLLADA>