<?xml version='1.0' encoding='utf-8'?>
<COLLADA xmlns="http://www.collada.org/2005/11/COLLADASchema" version="1.4.1">
  <asset>
    <created>2026-09-14T00:00:00Z</created>
    <modified>2026-09-14T00:00:00Z</modified>
    <unit name="metre" meter="1" />
    <up_axis>Z_UP</up_axis>
  </asset>
  <library_effects>
    <effect id="scout_b2b2b2_effect">
      <profile_COMMON>
        <technique sid="common">
          <lambert>
            <emission>
              <color>0 0 0 1</color>
            </emission>
            <ambient>
              <color>0.35 0.35 0.35 1</color>
            </ambient>
            <diffuse>
              <color>0.7 0.7 0.7 1</color>
            </diffuse>
          </lambert>
        </technique>
      </profile_COMMON>
    </effect>
  </library_effects>
  <library_materials>
    <material id="scout_b2b2b2" name="scout_b2b2b2">
      <instance_effect url="#scout_b2b2b2_effect" />
    </material>
  </library_materials>
  <library_geometries>
    <geometry id="geometry" name="right_hip_roll_link">
      <mesh>
        <source id="positions">
          <float_array id="positions_array" count="90">0.0786533207 0.00970239751 -0.0335969739 0.0767181963 -0.0253923852 -0.0279838443 0.077580303 0.0194921065 -0.123409376 0.0753869936 -0.0289291125 -0.123597965 0.0764454082 0.0331365168 -0.0662206858 0.0684956685 0.0324556977 0.0167772528 0.0726315752 -0.0376086682 -0.0554098114 0.0166815333 -0.0449500158 -0.123804405 0.0646285042 0.0395019017 -0.123882033 0.0680207908 -0.0313142538 0.019324122 0.0688363016 0.00342258532 0.0321933068 0.0440764055 -0.0494931601 -0.02563053 0.002736266 -0.0446089953 -0.0860527381 0.0614968725 -0.0444888324 -0.0050567342 0.00512332562 0.0444614515 -0.123764746 -0.0210859682 0.031944599 -0.123843864 0.0626106411 0.0454004332 -0.00934668258 0.0419425257 0.0495283417 -0.0536294915 0.038550552 0.0489938743 -0.0106416028 0.0599811897 -0.0415427424 -0.123262107 -0.0189013686 0.0291197598 -0.0939368308 -0.00468823593 0.0431258455 -0.0900354385 -0.0272453148 -0.0105583267 -0.12337774 0.03474731 0.00391188031 0.0484399162 0.0349696912 -0.0337627977 0.0331388637 0.035070084 -0.0478349775 -0.00359161757 -0.0173300169 -0.0359372571 -0.12360812 -0.0194483995 -0.0312559456 -0.098853536 0.0350528136 0.0389003679 0.0266225282 -0.0189266335 -0.00382967712 -0.0715749785</float_array>
          <technique_common>
            <accessor source="#positions_array" count="30" stride="3">
              <param name="X" type="float" />
              <param name="Y" type="float" />
              <param name="Z" type="float" />
            </accessor>
          </technique_common>
        </source>
        <source id="normals">
          <float_array id="normals_array" count="153">0.995358586 0.0663368329 0.069718726 0.96290797 -0.256932706 0.0824247971 0.971212745 0.231180578 -0.0574577861 0.902163148 -0.429243684 -0.043028798 0.870265901 0.492505133 -0.00871408265 0.967827857 0.213454112 0.133216277 0.75061214 -0.660711169 -0.00649142358 0.00967481919 -0.0107899206 -0.999894977 -0.000976666342 -0.00459807971 -0.999988973 0.00854423642 -0.00026899876 -0.999963462 0.961219192 -0.229625747 0.152740568 0.987368703 0.00430627214 0.158380732 0.0396986492 0.00209345622 -0.999209523 -0.0848955736 -0.994161785 -0.0665962398 0.0871438161 -0.996118605 0.0123944506 -0.359740019 -0.930469692 0.0693779588 0.509773016 0.853365064 -0.109085105 0.479272664 -0.858858109 0.180722132 -0.00122970552 0.00889526866 -0.999959707 -0.00498519698 -0.00130431692 -0.999986708 0.498815954 0.854780257 0.143294528 0.0757655129 0.996692419 -0.0293907933 -0.137007028 0.977756083 0.158814549 0.371026874 -0.926110864 -0.068247512 -0.185694292 0.979466021 -0.0785105675 -0.887400329 0.415563822 0.199568003 -0.475252181 0.873980284 0.101458333 -0.535483539 0.844320118 -0.019516727 -0.0138529399 -0.00528913131 -0.999890029 0.337060481 0.704948187 0.624049962 0.360841542 0.468128741 0.806628048 0.392487437 0.434926748 0.810427248 0.393400431 -0.335798651 0.855847776 0.392770767 -0.336428016 0.855889797 0.402867496 -0.326264203 0.855131269 0.383569509 -0.345560789 0.856424093 0.237341344 -0.879779637 0.411894292 0.189192519 -0.903292298 0.38505736 -0.265298843 -0.930899143 0.251084208 -0.381983638 -0.924122393 -0.00928648468 -0.83210212 -0.528654158 0.167722508 -0.991023719 -0.0876917019 0.100906931 -0.931414902 -0.363795668 -0.0109091643 -0.98589617 0.14381066 0.0855995715 0.294869035 0.723246574 0.624473095 -0.845579445 0.397846252 0.355968714 -0.913709223 0.0348653644 0.404870182 -0.946470499 -0.0331553034 0.321083009 -0.868606746 -0.313064605 0.384074092 0.0161545426 -0.0463250354 -0.998795807 -0.00375494338 0.00761052594 -0.999963999</float_array>
          <technique_common>
            <accessor source="#normals_array" count="51" stride="3">
              <param name="X" type="float" />
              <param name="Y" type="float" />
              <param name="Z" type="float" />
            </accessor>
          </technique_common>
        </source>
        <vertices id="vertices">
          <input semantic="POSITION" source="#positions" />
        </vertices>
        <triangles material="scout_b2b2b2" count="56">
          <input semantic="VERTEX" source="#vertices" offset="0" />
          <input semantic="NORMAL" source="#normals" offset="1" />
          <p>0 0 1 1 2 2 1 1 3 3 2 2 2 2 4 4 0 0 5 5 0 0 4 4 6 6 3 3 1 1 3 7 7 8 8 9 9 10 1 1 10 11 10 11 1 1 0 0 2 12 3 7 8 9 7 13 11 14 12 15 2 2 8 16 4 4 5 5 10 11 0 0 1 1 9 10 6 6 9 10 13 17 6 6 14 18 8 9 15 19 8 16 16 20 4 4 16 20 5 5 4 4 16 20 17 21 18 22 19 23 3 3 6 6 17 21 8 16 14 24 19 23 6 6 13 17 19 23 11 14 7 13 20 25 21 26 15 27 21 26 14 24 15 27 22 28 15 19 7 8 5 29 23 30 10 31 23 32 9 33 10 34 23 32 24 35 9 33 9 36 24 37 13 17 24 37 25 38 13 17 13 17 11 14 19 23 12 15 26 39 7 13 27 40 22 41 26 42 20 25 15 43 22 41 18 22 17 21 21 26 16 20 8 16 17 21 16 20 28 44 5 29 28 44 23 30 5 29 28 45 20 25 23 46 20 25 29 47 23 46 29 47 24 48 23 46 25 38 11 14 13 17 27 40 25 38 24 48 29 47 27 40 24 48 11 14 25 38 12 15 12 15 27 40 26 39 29 47 22 41 27 40 29 47 20 25 22 41 28 45 21 26 20 25 28 45 18 22 21 26 28 44 16 20 18 22 27 40 12 15 25 38 19 49 7 8 3 7 15 19 8 9 7 8 17 21 14 24 21 26 26 50 22 28 7 8</p>
        </triangles>
      </mesh>
    </geometry>
  </library_geometries>
  <library_visual_scenes>
    <visual_scene id="scene">
      <node id="right_hip_roll_link">
        <instance_geometry url="#geometry">
          <bind_material>
            <technique_common>
              <instance_material symbol="scout_b2b2b2" target="#scout_b2b2b2" />
            </technique_common>
          </bind_material>
        </instance_geometry>
      </node>
    </visual_scene>
  </library_visual_scenes>
  <scene>
    <instance_visual_scene url="#scene" />
  </scene>
</COLLADA>