<?xml version='1.0' encoding='utf-8'?>
<COLLADA xmlns="http://www.collada.org/2005/11/COLLADASchema" version="1.4.1">
  <asset>
    <created>2026-09-14T00:00:00Z</created>
    <modified>2026-09-14T00:00:00Z</modified>
    <unit name="metre" meter="1" />
    <up_axis>Z_UP</up_axis>
  </asset>
  <library_effects>
    <effect id="scout_b2b2b2_effect">
      <profile_COMMON>
        <technique sid="common">
          <lambert>
            <emission>
              <color>0 0 0 1</color>
            </emission>
            <ambient>
              <color>0.35 0.35 0.35 1</color>
            </ambient>
            <diffuse>
              <color>0.7 0.7 0.7 1</color>
            </diffuse>
          </lambert>
        </technique>
      </profile_COMMON>
    </effect>
  </library_effects>
  <library_materials>
    <material id="scout_b2b2b2" name="scout_b2b2b2">
      <instance_effect url="#scout_b2b2b2_effect" />
    </material>
  </library_materials>
  <library_geometries>
    <geometry id="geometry" name="right_elbow_link">
      <mesh>
        <source id="positions">
          <float_array id="positions_array" count="81">-0.00843705516 -0.034803316 0.00872641057 -0.0221451335 -0.0262335595 -0.0237035416 0.0415131003 -0.0286774617 -0.0383558832 0.0274426546 -0.0206180867 -0.00740634743 0.0436656252 -0.021242965 0.0155962026 0.0227866471 -0.0234003998 -0.0378339328 0.0426380634 -0.0190040674 -0.0311328992 0.0493831597 0.00263393251 -0.0459962003 0.0715622902 0.0103266938 -0.0393219031 0.0709485933 -0.0226618126 -0.037099991 0.0980736166 -0.00155860861 -0.0405510105 0.0984934568 -0.0249660853 -0.0286091082 -0.00457083387 -0.0244568512 0.0315077752 0.0430553481 -0.0271458235 0.0167796779 -0.0297093019 -0.0231721811 0.00827389117 0.0706158727 -0.00120053755 0.0238744915 0.0691092983 -0.0300401896 0.0131783728 0.07068564 -0.0345118158 -0.0083139101 0.0986631662 -0.00528915599 0.0208144449 0.0988445729 -0.0305951927 0.000355358934 0.0468361042 0.0259059668 -0.0275744386 0.070909977 0.0288484618 -0.0219050776 0.0979203284 0.0257332623 0.00416618073 0.0981161743 0.0224351753 -0.0268540215 0.048147954 0.0278965812 0.00611134944 0.0461183786 0.00989362784 0.017558204 0.0709668845 0.0213311594 0.0122313416</float_array>
          <technique_common>
            <accessor source="#positions_array" count="27" stride="3">
              <param name="X" type="float" />
              <param name="Y" type="float" />
              <param name="Z" type="float" />
            </accessor>
          </technique_common>
        </source>
        <source id="normals">
          <float_array id="normals_array" count="204">-0.215322345 -0.962816775 0.163156971 -0.224925965 -0.961322367 -0.158957839 0.023862252 -0.972024024 -0.233666271 0.0427012742 0.997714341 -0.0523703881 -0.0489904545 0.998189509 0.0348955318 -0.112301819 0.992993772 -0.036765568 -0.232521713 0.971219003 0.0516464375 0.215760425 -0.155101836 -0.96404922 0.125744119 -0.068997018 -0.989660442 0.131768674 -0.218090057 -0.96699208 0.0937913209 -0.258197457 -0.961528599 0.0705118924 -0.24860844 -0.966034114 0.230963394 -0.438872039 -0.86835897 0.299857974 0.15763551 0.940869927 -0.476703256 -0.865962446 0.151205197 -0.11888507 -0.142419592 0.982640803 -0.064071767 -0.199331298 0.977835298 0.0899281651 -0.350453943 0.932252645 0.992222726 -0.0854142085 0.0905453637 -0.00681258133 -0.62871629 0.777604878 -0.0612569861 -0.658782482 0.749835491 -0.0838664621 -0.670412362 0.737233758 -0.993299603 0.101369746 -0.0554978624 -0.959778249 0.127291262 -0.250245154 -0.983745754 0.150953442 -0.0972489193 0.0458703712 0.655263424 -0.754006445 0.0420405604 0.667886376 -0.743074954 0.0415157005 0.642960489 -0.764773309 0.0388074964 0.996133208 0.0788204819 0.210621059 0.972227871 -0.102038153 0.0444665477 0.99793148 0.0464278385 -0.0378650576 0.499220192 0.865647376 0.0242066514 0.534454167 0.844850719 0.078287527 0.471106261 0.878595412 -0.112662241 -0.897363067 0.426669359 0.0507090203 -0.939162076 0.339710534 0.0628199503 0.974693775 0.214535996 0.172428176 0.460201949 0.870909095 0.0321102515 0.463839382 0.885337174 0.115160264 -0.9797225 -0.163957044 0.095334135 0.989230037 0.111064315 -0.108505353 0.992604554 -0.0544309542 0.141580537 0.58164835 -0.801024437 0.999877691 0.0135489199 -0.00781088043 0.999865055 0.0164252613 -0.000282905297 0.999773502 0.0172481816 -0.0124694342 -0.197580844 -0.626578271 -0.753897548 0.11353606 0.99120158 -0.0680366531 -0.0391446538 0.999232769 0.00125124562 -0.0477213599 0.998113692 -0.0386227928 -0.0812600926 -0.976968527 0.197305158 -0.123727724 -0.689677238 0.713468075 0.160741255 -0.929245114 -0.332664698 -0.0233932193 -0.981418073 -0.190450251 0.116911359 -0.950355828 -0.288367093 0.178941876 0.487522632 -0.854576766 0.111037433 0.584278047 -0.80392158 -0.995656371 0.0918854848 0.0150152622 -0.995030582 0.0842274949 -0.0531022884 0.999868989 0.0130433971 -0.00958579965 0.999881148 0.00788260531 -0.0132493144 -0.992147565 0.0839950144 -0.0926716104 -0.249548525 0.000282921625 0.968362272 0.999923646 0.0117084058 -0.00394896697 -0.99086237 0.131306425 0.0308284461 -0.968482971 0.211210757 -0.132025406 0.105969198 0.624272525 -0.773986042 0.182209641 0.468331784 0.864560604</float_array>
          <technique_common>
            <accessor source="#normals_array" count="68" stride="3">
              <param name="X" type="float" />
              <param name="Y" type="float" />
              <param name="Z" type="float" />
            </accessor>
          </technique_common>
        </source>
        <vertices id="vertices">
          <input semantic="POSITION" source="#positions" />
        </vertices>
        <triangles material="scout_b2b2b2" count="50">
          <input semantic="VERTEX" source="#vertices" offset="0" />
          <input semantic="NORMAL" source="#normals" offset="1" />
          <p>0 0 1 1 2 2 3 3 4 4 5 5 4 4 6 6 5 5 7 7 8 8 9 9 2 10 7 7 9 9 10 11 11 12 9 9 12 13 13 13 4 13 14 14 1 1 0 0 15 15 13 16 16 17 15 18 16 18 17 18 18 19 15 20 19 21 20 22 7 23 6 24 7 25 21 26 8 27 22 28 23 29 21 30 24 31 25 32 15 33 12 34 0 0 13 35 26 36 22 28 21 30 18 37 26 38 15 33 17 39 0 0 2 2 24 40 21 30 20 41 14 14 0 0 12 34 2 42 5 42 6 42 19 43 22 44 18 45 2 46 1 46 5 46 14 47 12 48 1 49 1 49 12 48 3 3 16 50 13 35 17 39 19 21 15 20 17 51 17 39 2 2 9 52 8 8 10 11 9 9 11 53 19 54 9 52 10 55 8 27 23 56 17 39 9 52 19 54 25 57 20 22 4 58 20 22 6 24 4 58 11 59 10 60 19 43 3 3 5 5 1 49 12 48 4 4 3 3 13 61 25 57 4 58 13 16 15 15 25 62 19 43 10 60 23 63 19 43 23 63 22 44 20 22 25 57 24 64 7 23 2 65 6 24 20 66 21 26 7 25 13 35 0 0 17 39 21 30 24 40 26 36 24 31 15 33 26 38 21 26 23 56 8 27 26 38 18 37 22 67</p>
        </triangles>
      </mesh>
    </geometry>
  </library_geometries>
  <library_visual_scenes>
    <visual_scene id="scene">
      <node id="right_elbow_link">
        <instance_geometry url="#geometry">
          <bind_material>
            <technique_common>
              <instance_material symbol="scout_b2b2b2" target="#scout_b2b2b2" />
            </technique_common>
          </bind_material>
        </instance_geometry>
      </node>
    </visual_scene>
  </library_visual_scenes>
  <scene>
    <instance_visual_scene url="#scene" />
  </scene>
</COLLADA>