<?xml version='1.0' encoding='utf-8'?>
<COLLADA xmlns="http://www.collada.org/2005/11/COLLADASchema" version="1.4.1">
  <asset>
    <created>2026-09-14T00:00:00Z</created>
    <modified>2026-09-14T00:00:00Z</modified>
    <unit name="metre" meter="1" />
    <up_axis>Z_UP</up_axis>
  </asset>
  <library_effects>
    <effect id="scout_b2b2b2_effect">
      <profile_COMMON>
        <technique sid="common">
          <lambert>
            <emission>
              <color>0 0 0 1</color>
            </emission>
            <ambient>
              <color>0.35 0.35 0.35 1</color>
            </ambient>
            <diffuse>
              <color>0.7 0.7 0.7 1</color>
            </diffuse>
          </lambert>
        </technique>
      </profile_COMMON>
    </effect>
  </library_effects>
  <library_materials>
    <material id="scout_b2b2b2" name="scout_b2b2b2">
      <instance_effect url="#scout_b2b2b2_effect" />
    </material>
  </library_materials>
  <library_geometries>
    <geometry id="geometry" name="right_hand_middle_0_link">
      <mesh>
        <source id="positions">
          <float_array id="positions_array" count="72">0.0208096579 0.0143312886 -0.0100046657 0.0208897684 0.014376807 0.00878102332 0.0428115018 0.0144543629 -0.00999871083 0.0548100583 -0.0100936741 0.0119609162 0.0163092334 -0.00749799004 0.011277508 0.0186820664 -0.00909070671 -0.011849531 0.0196883269 0.0078434106 -0.0112270769 0.019833805 0.00794144813 0.00954079442 -0.00440851599 0.00462070946 0.0112710344 0.0190201066 0.00693369983 0.0126077738 0.0387751535 0.00862234458 -0.0109191285 0.0486604944 0.00813342538 -0.009507576 0.0438794196 0.0116876494 0.00932890829 0.0527214259 0.00673452625 0.0094425194 0.0154917529 -0.0065718838 -0.00894353166 0.0553166084 -0.00838398747 -0.0127053373 -0.00485663861 0.00613252027 -0.0117246788 -0.00545014907 -0.00529570132 -0.0129052605 -0.00726530422 -0.00360954227 -0.00943716243 0.00454393448 0.00650764676 -0.0108938767 -0.00456751371 -0.00459265197 0.0110993227 0.0379373953 0.00730001228 0.0109126382 0.0411633179 -0.00621678121 -0.0113280807 0.0393096283 -0.00663886871 0.0110148648</float_array>
          <technique_common>
            <accessor source="#positions_array" count="24" stride="3">
              <param name="X" type="float" />
              <param name="Y" type="float" />
              <param name="Z" type="float" />
            </accessor>
          </technique_common>
        </source>
        <source id="normals">
          <float_array id="normals_array" count="189">-0.00559306331 0.999981463 -0.00239913096 0.0487501211 0.996945083 0.0610235743 0.0612056591 0.995261371 0.0755560696 -0.013271654 -0.999670506 -0.0219718181 -0.0682266057 -0.995767772 0.0615766831 -0.0376646481 -0.999176919 0.015060883 -0.986453235 0.163943589 0.00570047786 -0.985503256 0.169614166 0.00379164214 -0.974245489 0.22543706 0.00488089211 -0.0397328138 0.95235765 0.302384287 -0.110229023 0.952543974 0.2837421 -0.0614350997 0.952954412 0.296822488 0.06271521 0.0817164704 -0.994680464 -0.00227318075 0.0804578811 -0.996755421 0.0873153582 0.0995491371 -0.991194248 -0.977703452 0.20905076 0.01984418 0.669317544 0.742378294 0.0298081376 0.556474209 0.830720246 -0.0155028356 0.488719463 0.87150526 -0.0403960049 -0.965635002 0.258827418 0.0236087479 -0.972484231 0.227597252 0.0497385934 0.957473993 0.277911782 -0.0775151253 0.903461814 0.395897657 -0.164383143 0.970139742 0.23763983 -0.0485407077 0.991419375 0.127418473 0.0291916896 -0.861897945 0.0961940661 -0.497874171 -0.0951297581 0.249785513 0.963616908 -0.0420269184 0.190279722 0.980829954 -0.0192972459 0.170835614 0.985110581 0.003498242 0.150346577 0.988627136 0.00814218912 0.154142365 0.988015115 -0.0738837719 0.0198576562 -0.99706912 -0.0256622005 -0.0740021467 -0.996927857 -0.0496792868 -0.0274275001 -0.998388529 -0.00685769506 -0.110231891 -0.993882239 0.017635731 -0.99747628 -0.0687756985 0.0794621259 0.241481349 0.967146575 -0.0552619249 0.163565531 0.984983444 0.0598489232 0.147576436 0.987238228 -0.0704135746 0.128344044 0.989226818 0.00980048813 0.94920963 0.31449163 -0.00799285341 0.226756334 -0.973918736 0.0140307304 0.0683317631 -0.997563958 -0.0648203641 0.198205844 -0.978014708 0.0702435002 0.109483838 -0.991503477 0.0422384478 0.089247182 -0.995113492 0.0837257206 0.0980932042 -0.991648972 0.0242119953 0.142523021 0.989495337 -0.0248534344 0.158768967 0.987002909 0.0485579707 0.112034231 0.992517233 0.0775477439 0.0872269198 -0.993165553 -0.000770412735 0.185285315 -0.982684493 -0.0142962243 -0.0675085858 0.997616291 -0.0110993544 -0.0184413809 0.999768317 -0.0251169205 -0.0424057133 0.998784721 0.00293964823 -0.0676794201 0.997702777 -0.625477016 -0.780172706 -0.0104449419 -0.127535969 -0.91660893 0.378896683 -0.129904062 -0.910094738 0.393513024 -0.151643023 -0.832052946 0.53356564 -0.153428569 -0.823850513 0.545646429 0.730567992 0.680453479 0.057039205 0.111952305 0.984535158 0.134748742</float_array>
          <technique_common>
            <accessor source="#normals_array" count="63" stride="3">
              <param name="X" type="float" />
              <param name="Y" type="float" />
              <param name="Z" type="float" />
            </accessor>
          </technique_common>
        </source>
        <vertices id="vertices">
          <input semantic="POSITION" source="#positions" />
        </vertices>
        <triangles material="scout_b2b2b2" count="44">
          <input semantic="VERTEX" source="#vertices" offset="0" />
          <input semantic="NORMAL" source="#normals" offset="1" />
          <p>0 0 1 1 2 2 3 3 4 4 5 5 1 6 0 7 6 8 7 9 8 10 9 11 10 12 6 13 2 14 1 6 6 8 7 15 11 16 12 17 13 18 7 15 6 8 14 19 14 19 4 20 7 15 15 21 11 22 13 23 15 21 13 23 3 24 16 25 17 25 18 25 16 26 18 27 19 28 18 27 14 29 19 28 19 28 14 29 6 30 8 31 7 32 20 33 7 32 4 34 20 33 15 35 3 3 5 5 12 36 1 37 21 38 21 38 1 37 7 39 9 11 21 40 7 9 10 12 22 41 5 42 5 42 6 13 10 12 15 43 5 42 22 41 5 42 17 44 19 45 6 13 5 42 19 45 19 45 17 44 16 46 23 47 3 48 13 49 23 47 13 49 21 38 13 49 12 36 21 38 11 50 15 43 22 41 22 41 10 12 11 50 2 14 11 50 10 12 0 51 2 14 6 13 4 52 3 48 23 47 20 53 4 52 8 54 4 52 9 55 8 54 4 52 23 47 9 55 23 47 21 38 9 55 5 56 4 56 14 56 18 57 17 58 14 59 17 58 5 60 14 59 12 17 11 16 2 61 2 2 1 1 12 62</p>
        </triangles>
      </mesh>
    </geometry>
  </library_geometries>
  <library_visual_scenes>
    <visual_scene id="scene">
      <node id="right_hand_middle_0_link">
        <instance_geometry url="#geometry">
          <bind_material>
            <technique_common>
              <instance_material symbol="scout_b2b2b2" target="#scout_b2b2b2" />
            </technique_common>
          </bind_material>
        </instance_geometry>
      </node>
    </visual_scene>
  </library_visual_scenes>
  <scene>
    <instance_visual_scene url="#scene" />
  </scene>
</COLLADA>