<?xml version='1.0' encoding='utf-8'?>
<COLLADA xmlns="http://www.collada.org/2005/11/COLLADASchema" version="1.4.1">
  <asset>
    <created>2026-09-14T00:00:00Z</created>
    <modified>2026-09-14T00:00:00Z</modified>
    <unit name="metre" meter="1" />
    <up_axis>Z_UP</up_axis>
  </asset>
  <library_effects>
    <effect id="scout_b2b2b2_effect">
      <profile_COMMON>
        <technique sid="common">
          <lambert>
            <emission>
              <color>0 0 0 1</color>
            </emission>
            <ambient>
              <color>0.35 0.35 0.35 1</color>
            </ambient>
            <diffuse>
              <color>0.7 0.7 0.7 1</color>
            </diffuse>
          </lambert>
        </technique>
      </profile_COMMON>
    </effect>
  </library_effects>
  <library_materials>
    <material id="scout_b2b2b2" name="scout_b2b2b2">
      <instance_effect url="#scout_b2b2b2_effect" />
    </material>
  </library_materials>
  <library_geometries>
    <geometry id="geometry" name="torso_link_rev_1_0">
      <mesh>
        <source id="positions">
          <float_array id="positions_array" count="513">-0.0599185452 -0.0770293549 0.245152831 -0.0456525125 -0.0905820951 0.14247404 -0.0513926595 -0.0769680142 0.0562872477 0.0599299222 -0.000161076634 0.0738295168 0.00831940118 -0.00664556911 0.0796836317 -0.00360289752 -0.00163641584 0.063141115 -0.0524853505 -0.05755575 0.00538872881 -0.0440100841 -0.0580317639 0.0146172121 -0.0445659347 0.086468339 0.0717652291 -0.0442706198 0.0630254969 0.0122804549 -0.0596932955 0.0148656992 0.221308365 -0.062245857 -0.0169674363 0.219458312 -0.0622902773 0.0026633963 0.242629513 -0.058766935 0.00302582956 0.23699075 -0.0568599589 -0.0483455621 0.225611627 -0.0573910251 -0.00161205314 0.260454059 -0.0459921323 -0.0899047256 0.262776494 -0.037226554 -0.104051918 0.232841641 -0.064010784 -0.0783469602 0.245328471 -0.0493916497 -0.0928839594 0.0699044243 -0.0515864193 0.0562475361 0.00640518311 -0.058316607 0.0677357316 0.269739926 -0.0138291335 0.00160580885 0.0556692891 0.00889855996 0.012954928 0.0740264207 -0.0427995101 0.0209623929 0.0101433955 -0.0338409133 -0.0176808629 0.0147235394 -0.0361001231 -0.0654953122 0.0232344363 -0.0290715471 -0.0666226819 0.0408665165 -0.0316304602 -0.0852553546 0.0570263676 -0.0163565855 -0.0723755658 0.037127804 -0.0141059784 -0.0675142109 0.0434667058 -0.00858957041 -0.0694544986 0.0402436703 -0.00845376682 -0.071537815 0.0398617014 0.037122529 -0.0907698497 0.0728163049 -0.00591239939 -0.0696968734 0.0380715765 -0.00512632029 -0.0132074663 -0.000609076524 0.00110001606 -0.0179258548 -0.00827598851 -0.0131306816 -0.00448861532 0.0207472742 -0.00678284094 -0.0118417386 -0.00714242784 -0.0505390987 -0.05682116 0.284428418 -0.026668502 -0.0934087411 0.285195976 -0.0105137844 -0.0685054511 0.293905228 0.0401439369 0.0879555568 0.166471645 -0.021400379 0.0897815526 0.18832472 -0.00535059022 0.0876482204 0.142493218 0.00116208685 -0.0708933249 0.31227836 -0.00424113357 -0.0686739385 0.289520174 0.00307182712 -0.0736214146 0.308293551 0.0131454384 -0.0770193413 0.29254812 0.0131822275 -0.0494327396 0.294462711 -0.00930440333 0.0212417375 0.0111954072 0.00496450486 0.0170445815 -0.00685174996 -0.00716334675 0.0118194036 -0.00662860554 0.0054015643 0.0136497617 6.71154921e-05 -0.00385515438 0.0122235185 -0.00325807091 0.00678323675 0.0118422639 -0.00714185461 0.0185611323 0.0552014783 0.291833192 -0.000400078017 0.0725114793 0.291973472 0.00631038006 0.0414110683 0.30405584 -0.0464569591 0.0907505229 0.261522174 -0.0488371365 0.0927593037 0.070799008 -0.0672971383 0.0636447817 0.237662598 0.0464121662 -0.0610101968 0.0117550576 0.0144246845 -0.0564182922 0.0169100296 -0.0502901785 0.0906149298 0.149571955 0.0565373786 -0.0736812875 0.104032502 0.0773650408 -0.0453987718 0.187940195 0.0562344864 -0.057874769 0.00409724005 -0.0428334437 0.102047034 0.265002728 -0.0272484608 0.102770247 0.208475485 -0.0150700966 0.00219135988 0.0299020819 -0.0349885896 0.0820871964 0.0552172177 -0.0168598425 0.0653602481 0.0458088182 -0.0320193581 0.0622157007 0.0267840009 -0.0218825098 0.0725883096 0.0363123938 -0.0146902399 0.07230784 0.0368805639 -0.0193286277 0.092155464 0.160753787 -0.0185666997 0.0903490484 0.124488808 0.0116737876 0.0104981838 0.0139738675 0.00693809846 -0.0139709394 0.0728645921 -0.0264769141 0.0544570722 0.108315073 0.0475396886 -0.0970108807 0.272502631 0.0277812947 -0.0641272664 0.291542917 -0.0089097172 0.0691479072 0.0401918441 -0.00794247072 0.0722325072 0.0423941426 0.00407798355 0.0710613504 0.043125093 -0.00599294901 0.0696287379 0.0384343304 0.00724708335 0.0693916678 0.0397544131 0.01084032 0.062079858 0.0626533255 0.0462771356 0.0918290019 0.0682475716 -0.00780833093 0.0951412097 0.11721544 -0.0221070368 0.0943148956 0.168862075 0.0279088002 0.0935361534 0.115239114 0.0167054627 0.0594659895 0.0151387462 -0.0477230735 0.0602016971 0.28592363 -0.00775071466 0.0662827864 0.294474483 0.000317042141 0.0731204897 0.311761975 -0.00446365122 0.0703296885 0.293427438 0.00465831766 0.0707047582 0.307371914 0.0171354096 0.090441227 0.288016349 0.00388562516 -0.0122432001 -0.00328633492 0.00709663471 -0.0118047474 -0.00666509941 0.00917307753 -0.0692312196 0.0408580378 0.00663774787 -0.0693133697 0.0411685705 0.00789013598 -0.0720763654 0.0375150926 0.010713459 -0.0613241084 0.06377469 0.0351094306 -0.065610677 0.0239073895 0.0289536305 0.0697190613 0.0274203476 0.0143342055 -0.00409254339 0.0203675032 0.015423812 -0.000123201753 0.0370401219 0.0127996961 0.00197901553 0.0411962457 0.034964025 -0.0966638476 0.182424545 0.0485887118 -0.0924995244 0.195884138 0.0399346389 -0.0900078267 0.0843925625 0.0460082702 -0.0853995383 0.0725495517 0.0751326606 -0.0708975717 0.184517965 0.0478415266 -0.103240289 0.224598914 0.0534643643 -0.088247478 0.0640974566 0.055181738 -0.089076072 0.178898782 0.0722504035 -0.0363936275 0.198239431 0.0498099327 -0.094942309 0.249033958 0.0641323179 -0.0197643265 0.2333249 0.0585664473 -0.0301104914 0.266569465 0.0470376611 0.00376506941 0.223321974 0.0520218574 0.00284298044 0.0137155252 0.05424539 -0.00178916822 0.0128175309 0.0575742312 -0.00726405066 0.0297420491 0.0555725135 -0.000497566594 0.0237748213 0.049146682 0.0602041706 0.0196544323 0.0741393939 -0.00101761555 0.236037627 0.0792998001 0.0248577986 0.227846235 0.0604018457 0.0486484021 0.00459019374 0.0818366632 0.00380806788 0.159824133 -0.0089606354 0.0517650917 0.0834426582 -0.049689278 0.0408872552 0.0756951943 0.00135828136 0.0592685267 0.0761592761 0.0391691178 0.0549195558 0.0851544812 0.0151375793 0.0703387931 0.0395027399 0.00993213896 0.0697878525 0.0388461836 0.0712208897 0.0708903298 0.173643664 -0.0191870704 0.0890307799 0.0962444618 0.0510712788 0.103014447 0.248339534 0.0493518971 0.0988857821 0.202050477 0.0526982099 0.0612820499 0.00429674238 0.0468625054 0.0540535562 0.131399393 0.0436788723 0.0564915389 0.192730412 0.0447407924 0.0853167921 0.0759862661 0.0413282439 0.0871821642 0.110966176 0.0373069271 0.0885879993 0.0889270753 0.0427664779 0.0854527503 0.137864068 0.056126643 0.00165766373 0.0246180445 0.0566407628 0.0264626183 0.257324249 0.0543544702 0.0353121124 0.280804664 0.0175365414 0.0932793468 0.173452333 0.0501191728 0.0815240219 0.0856521726 0.00852289889 -0.0869204924 0.0751773939 0.0558129176 0.0937575921 0.1735055 0.0512217991 0.0887302607 0.168326899 0.0500332713 0.0864813477 0.259329915 0.0719283968 0.0349923633 0.185332 0.0792604163 0.0357147269 0.179932922 0.00746268313 -0.0350743011 0.312779337 0.0269254502 0.0892270133 0.141721204 -0.0289094895 -0.0927241221 0.0826600268 -0.029177513 -0.0989422277 0.199683577 -0.0275547281 0.0526550487 0.196352273 -0.0493773483 -0.0378095992 0.0758657902 0.0392731316 0.0902542397 0.192549199 -0.0244124383 0.0544736125 0.16576916 0.00308308913 0.0903844535 0.0707961023 -0.0176308248 0.057582438 0.193752393</float_array>
          <technique_common>
            <accessor source="#positions_array" count="171" stride="3">
              <param name="X" type="float" />
              <param name="Y" type="float" />
              <param name="Z" type="float" />
            </accessor>
          </technique_common>
        </source>
        <source id="normals">
          <float_array id="normals_array" count="1500">0.915872335 0.384100705 -0.116809838 0.807961166 0.588217974 0.0346169993 0.997985244 0.0548642427 0.0318641849 0.0790673867 -0.936853111 -0.340667933 -0.143281326 0.969308317 0.199779421 -0.324165136 0.881558478 0.34317866 -0.145586684 0.972113609 0.183846742 -0.991716981 0.121297754 -0.0422408134 -0.997414649 0.0116079757 -0.0709176213 -0.99322629 0.115571074 0.0120372716 0.999778986 0.0107636023 0.0180573836 0.986075878 0.0241368357 -0.16453512 -0.981395304 -0.0755306855 0.176517323 -0.994287729 -0.0693301782 0.0811496451 -0.982222319 -0.17592077 0.0655071288 0.983011663 0.0276369657 -0.181450605 -0.978268683 -0.196410134 0.0664340183 -0.968086839 -0.156774729 0.195523694 0.744418681 -0.508753777 0.432447016 -0.959166765 -0.175983801 0.221424609 -0.65921247 -0.743024707 0.115555927 -0.892736375 -0.406648576 0.194058597 -0.967011273 -0.247548953 -0.0600730181 0.997286677 -0.0628708526 0.0382952131 0.96673882 -0.255597293 0.0092778597 0.996779799 -0.0712410733 0.0368073657 0.603671908 0.0749043971 -0.793706238 0.242490828 -0.0585603416 -0.968384683 0.182260424 -0.04334452 -0.98229444 0.071209453 -0.0153179942 -0.997343779 0.831147075 -0.425061196 -0.358493447 -0.0596255586 0.858251333 0.5097543 -0.0266229752 0.882594109 0.469381392 -0.0307995677 0.88235122 0.469582528 -0.768191755 0.609821677 -0.194933191 -0.145234883 -0.819010854 0.555092871 -0.155446067 -0.756446898 0.635314584 -0.126201496 -0.872812927 0.471456081 0.0904884785 0.604018092 -0.79181689 0.230630502 0.353690058 -0.906483829 0.302774042 0.190932959 -0.933741152 0.523517132 -0.0275543835 0.851569474 0.558577418 0.0424872041 0.828363478 0.568919241 0.0646432117 0.819848895 0.465655535 -0.13013646 0.875345349 -0.0714514703 0.815296888 0.574617863 -0.0918309018 0.799511254 0.593589783 -0.0647020936 0.820328832 0.568220258 -0.122805275 0.773794532 0.621418417 -0.271541178 -0.934438944 -0.230411023 0.416190714 -0.583687484 0.69720453 0.460629046 -0.538567543 0.705525219 0.338616729 -0.6533674 0.677089155 0.859711349 0.496610403 0.119475842 0.788177013 0.613814771 0.0448154919 0.700518668 0.713062465 -0.0285572 0.955398977 0.106508188 -0.275442958 0.812403858 0.521392643 -0.261054873 -0.882827044 -0.210335895 0.419970483 -0.683532953 -0.601967752 0.412816614 -0.872953951 0.290069938 0.392187268 0.993102551 0.0284846313 -0.113736555 -0.39645943 0.114824407 0.910843194 -0.221672475 -0.0578478836 0.973403811 -0.40108785 -0.0594982915 0.914105296 -0.0348195434 -0.998532474 0.0414783992 -0.0883611068 -0.995745242 0.0261487346 -0.0841796994 -0.995015085 -0.0534672476 0.080992274 0.993683398 0.0776762888 -0.678513348 0.192197472 0.708999157 0.70645988 -0.566353977 -0.424449712 0.732936323 0.671586037 -0.108519897 -0.332697839 -0.938784897 0.0894150287 0.454409957 -0.584214687 0.672461748 -0.356582224 0.807581127 -0.46974653 0.0271193199 -0.976034403 0.215920001 0.168801978 -0.984497964 -0.0476406366 0.0687545612 -0.987625241 0.140957996 0.0106089739 -0.969439805 0.245099738 0.559797227 -0.591612875 0.580190718 0.519309163 0.295588106 0.801838934 0.217830554 0.393911362 0.892963409 0.211530298 0.138872996 0.967455029 0.638297021 0.632023036 0.439458489 0.419498175 0.327156991 -0.846752346 -0.985762656 -0.0704145804 0.152688533 0.998302758 0.0206175651 -0.0544661097 -0.987193108 0.157912567 0.0226579327 -0.988446534 0.109355144 0.104951784 -0.989909232 0.116250515 0.0810279846 -0.969572127 0.235702679 -0.066137448 -0.996118903 0.054131221 -0.0694038942 -0.968814313 0.233067542 0.0841329917 0.142804608 -0.1095092 0.983674049 0.491694063 -0.809290648 0.321380705 -0.00537425 0.963909924 -0.266174316 -0.234113634 0.86119765 -0.451142311 -0.393592328 0.806790829 -0.440651357 0.910912216 -0.402998656 0.0884930491 0.977356791 -0.209138662 0.0321673304 -0.887006402 0.455617577 0.0750482455 -0.972361088 0.231050938 -0.0336060487 -0.982245266 0.155714735 0.104628861 0.884167433 -0.466224551 -0.0297095496 0.861350179 0.141869426 -0.487800062 -0.0201399047 0.994940519 0.0984262303 -0.051662717 0.995720208 -0.0766302794 -0.193782657 0.980192125 -0.0408866853 -0.0368124135 0.042805884 -0.99840498 0.0281439647 -0.704686999 -0.708959937 0.402167499 0.643071651 -0.651705563 0.4257828 0.747907639 -0.509257495 0.446741581 0.754556179 -0.480694234 -0.00703882053 -0.865753472 0.500421166 0.174598068 -0.753204525 0.634191215 0.0847537145 -0.841083348 0.534224331 -0.621061385 0.684512854 0.381739408 0.0174470842 -0.791136861 -0.611390293 -0.397670001 -0.914140999 -0.0787703097 -0.0720633566 -0.997386456 0.00521320431 0.704883814 -0.257359862 -0.660987735 0.740354359 0.0133458525 0.672084272 0.677877188 -0.029111132 0.734598517 0.797643423 0.0731014982 0.598682821 -0.456258595 -0.889837682 0.00412467029 -0.544233561 -0.837078691 0.0557596646 -0.484560251 -0.874520898 0.0203604624 0.741838336 -0.319081694 0.589798868 0.501376927 -0.110968471 0.858083427 0.343102813 -0.559502482 0.754478216 0.522103488 0.0638727024 -0.850487053 0.578100681 0.240451068 -0.779732585 0.50013411 0.00751696061 -0.865915358 -0.364389181 -0.462728232 0.808147967 -0.18981196 0.957855046 0.215604216 -0.137963042 0.92700249 0.348758698 -0.0315022245 0.848798215 0.527777612 0.0359100662 0.804276526 0.593169272 0.598995984 0.332322001 -0.728536844 -0.234487683 -0.861241877 0.4508636 -0.211972237 -0.861213505 0.461929679 -0.114068076 -0.854950607 0.506011844 -0.15034242 0.988412917 0.0209064689 -0.334247053 -0.854611099 0.397389889 -0.0251497831 0.905040801 -0.424580485 -0.111597687 0.973290861 -0.20062618 -0.0460508093 0.916123152 -0.398243219 0.0911238343 -0.26146242 -0.960902631 0.343322396 0.488201439 -0.802364707 -0.00450121984 0.967555106 -0.252619952 0.00101331354 0.99996829 -0.0079019377 0.209407374 0.971795976 -0.108448535 0.110281557 0.993771732 0.0159901623 0.0284007303 -0.77024442 0.637116134 0.581439257 -0.522344053 -0.62376678 -0.374430329 0.289348453 0.88095367 -0.673405886 0.526158154 0.519309282 -0.244421199 0.473456115 0.8462255 -0.200695232 0.40628165 0.891435146 -0.646492302 0.762920499 -5.126822e-05 0.47574687 -0.87952733 0.00982803665 0.0474866144 0.360114634 0.93169868 0.296161652 0.929752111 -0.218744695 -0.248342827 0.434010386 0.866002798 0.269921273 -0.706627905 0.654079139 -0.0193375666 0.981901467 0.188402593 -0.0948718265 0.994728327 0.0389211811 -0.044789955 0.989314258 0.138748452 -0.00972519163 0.978299141 0.206969038 0.968561709 -0.0940454975 -0.230312064 0.971581876 -0.0946737975 -0.216945931 0.972057045 -0.0947745666 -0.214762494 -0.0082757799 -0.877243757 -0.479973882 0.00558988005 -0.886521399 -0.462653846 0.0143812252 -0.959294736 -0.282040477 -0.0481010824 -0.876284182 -0.479387492 -0.0850582868 -0.831756473 -0.548585713 -0.0959627405 -0.885064483 -0.455469072 0.716326058 0.652298152 -0.24775815 0.0317736678 -0.999482512 -0.00500858994 0.0640992746 -0.960974514 0.269108236 0.0288188737 -0.983427763 0.178995326 -0.807573497 -0.38483423 0.446908951 -0.806846678 -0.259656161 0.530638397 -0.773045063 -0.559449196 0.299028277 -0.0411008708 -0.930642664 0.363613725 -0.424665004 0.763381839 -0.486731738 -0.206744939 -0.843101799 -0.496423155 -0.757287562 -0.599992931 0.25792253 -0.0597547442 -0.887174726 0.457548201 -0.102379203 -0.973180115 -0.206007257 -0.050825458 -0.997960806 0.038613759 0.87857312 0.455608219 0.143284574 -0.868344545 -0.444514453 -0.219964996 -0.34244293 0.918789923 -0.196361691 -0.507846475 0.647295177 -0.568419635 -0.696263313 0.372936189 -0.61329931 -0.60520035 0.525442898 -0.598031998 0.713110626 -0.700992882 0.00906345993 -0.80404526 0.139163077 -0.57805264 0.456653804 0.757734239 0.466161013 0.469429255 0.824482143 0.316014767 0.718353212 0.683715701 0.128458455 0.537129283 0.80014044 0.266959518 0.107950985 0.90277338 0.416349351 -0.244608045 -0.847043693 -0.471893996 -0.159561515 0.98661536 -0.0336194485 -0.209560275 0.973724484 -0.0891352072 -0.056812454 0.991458416 0.117399164 -0.00601109164 0.928096712 0.372290701 0.000445458485 0.925232768 0.379399747 0.00144180655 0.927828312 0.373004735 0.0552607663 0.915697455 0.398050785 0.930179238 -0.366234928 0.0252704974 0.794226527 -0.605366945 0.0522974506 0.961372435 -0.26142475 -0.0861404613 -0.844907641 0.527943194 0.0860643312 0.951760828 -0.30681181 -0.00422360282 0.989141583 -0.12598455 0.0756754726 0.965392053 -0.225170195 0.131592527 0.977332294 -0.177667052 -0.115134507 0.976617098 -0.0468155071 0.209827065 0.698284864 0.64195323 0.31669265 -0.216742977 0.08450111 -0.972564697 -0.266892493 0.0583716184 -0.961956918 -0.275743425 0.0536913313 -0.959730566 0.991007507 0.0315117575 -0.130042776 0.984460294 0.012964244 -0.175128073 0.973254204 0.141079307 -0.181308746 -0.981512427 0.189315245 0.0281625986 -0.959001184 0.102280818 0.264301687 -0.979406059 0.198293701 0.0379923768 -0.204774782 0.0906413496 -0.974603236 -0.949322224 -0.0175080895 -0.313816488 -0.935607255 0.301445752 -0.183764771 0.971013784 0.0766367242 0.226404697 -0.410860747 -0.911697626 -0.000930749986 -0.253876716 -0.964678228 0.0703027546 -0.564671278 -0.825272739 0.00844081864 0.958521307 0.246512622 -0.143067986 0.998398244 0.00781673845 -0.0560343564 0.986275971 -0.118114457 -0.115363352 0.253131509 -0.830210805 -0.496663362 0.33401823 -0.922767639 -0.192176297 0.236951143 -0.908589303 -0.343976229 0.131775975 0.218634546 0.966868162 -0.739843667 0.672693372 -0.0107191755 -0.153948694 -0.0682067275 0.985721886 -0.859160781 0.0692136288 -0.507003129 -0.845489025 0.0493746251 -0.53170526 -0.837885261 0.0389043838 -0.54445821 -0.8726089 0.090272069 -0.480004877 0.576723874 -0.612591386 0.540482581 0.515635312 0.357573777 0.778627753 0.337309122 0.150468737 0.92929095 0.339280456 0.940579832 0.0140830828 0.453098089 0.0881384239 0.887092829 0.980087638 -0.163034052 0.113349758 -0.288101465 0.852368414 0.436423659 -0.594025075 -0.799763739 0.0866731256 -0.0179407857 -0.989215493 0.145364478 0.169357151 -0.942753077 0.287288666 -0.969910622 0.188688427 0.153850913 0.0723914579 -0.744153738 -0.664074361 -0.0607225634 0.928016424 -0.367557138 0.29653722 -0.715084553 0.633024335 0.370070606 -0.645789981 0.66783458 0.394700468 -0.61991334 0.678173304 -0.0551808216 0.948622406 0.311561465 -0.0742612779 0.946549654 0.313893378 -0.0356886946 0.9503721 0.309061825 -0.455168247 0.46302861 -0.760543466 -0.389124662 -0.880642176 -0.270280063 0.154347986 0.95163244 0.265654624 0.123631686 0.975323081 0.182920933 0.17767325 0.915975094 0.359752506 0.11034333 -0.993023813 -0.0415698886 0.0511756949 -0.961188495 0.271104634 0.115913108 -0.989274979 -0.0888774693 0.9261747 0.376670718 -0.0178782493 0.0795293748 -0.960980177 -0.264938116 0.981405199 -0.191801056 -0.00749518862 0.977589786 -0.210195586 -0.0116616627 0.974843442 -0.222279221 0.016497232 0.032134477 0.997365654 0.0650314987 -0.00494322414 0.993266046 -0.115750216 0.0314319246 -0.997534573 -0.062743552 -0.0320051499 -0.963010728 -0.267555505 0.0188174136 -0.994389474 -0.104093671 -0.989783525 -0.135038629 -0.045750808 -0.997218251 -0.0420826115 0.0615209155 -0.995162427 -0.0884385258 -0.0427830778 -0.0831494257 -0.89857769 0.430864662 -0.201253355 -0.839310169 0.505030215 -0.987363875 -0.089677766 0.130654082 -0.981892705 -0.0738551468 0.174447939 -0.988909781 -0.0162327867 0.147627607 -0.991935432 -0.12391714 -0.0266201515 -0.927837312 0.0977278948 0.359954357 -0.932308555 0.0746618733 0.353873432 -0.233183771 -0.972267687 -0.017911369 -0.990241408 -0.119248562 0.0721230507 0.973465919 0.211988583 -0.0861681625 0.928945601 0.0801062658 -0.361445785 0.983872056 0.139780983 -0.111611336 -0.795435727 -0.375762343 0.475483596 -0.762117863 -0.626205325 -0.164448276 -0.829030514 -0.510804653 -0.227567539 0.689261913 0.0990627557 0.717707872 -0.0186090916 0.994700313 -0.101118885 0.844513416 0.511257529 -0.159414113 0.873354793 0.472890735 -0.116729274 -0.791920125 -0.594230831 0.140542492 -0.484080881 -0.830543995 0.275431156 -0.956766069 -0.248422965 0.151276797 0.117608376 0.978327751 -0.170420453 0.829274297 0.558804274 0.00647875294 -0.766057014 0.640180171 0.0576708689 0.710330904 -0.70196569 0.051712241 0.761901617 0.645770192 -0.0498682931 -0.852630854 -0.51268214 -0.100884147 -0.916980207 -0.398742497 -0.0123182284 -0.93318522 -0.283233821 -0.221232742 0.989487767 0.144162491 0.0114519075 0.970852137 0.204869464 0.124397255 0.949877679 0.310822755 -0.0334910415 -0.00750865834 0.961963713 -0.27307409 -0.0432465188 0.807087839 0.588845432 0.999673069 -0.00767845707 -0.0243895501 0.338156641 -0.940165162 0.0417079702 0.986758173 0.159386814 0.0300695039 0.854376793 0.373335749 0.361470193 -0.98429507 -0.175183877 -0.0217687525 -0.667655051 -0.732423544 0.133388266 -0.649560869 0.700505972 0.295570701 -0.744960606 -0.163357824 -0.646798253 0.776641369 0.0988063291 0.622145832 0.649524391 0.224826261 0.72634095 0.65310961 -0.636591256 -0.410121262 0.279711574 0.793115973 -0.541043878 -0.302322567 -0.829697251 0.469258457 0.930137992 -0.0294229705 0.366029471 0.944335759 -0.0403400809 0.326500595 -0.926263571 0.121366695 -0.356799603 -0.819517791 -0.0825822353 -0.567072093 -0.481980264 -0.489021629 -0.727016389 0.0508289002 0.938708961 0.340942681 0.0268801488 -0.957207322 -0.288152128 0.0187264998 -0.999648571 0.0187634546 -0.995434701 0.0464427099 -0.083383359 0.00448830612 0.76037395 -0.649469972 -0.0659967884 -0.997767806 -0.010188573 -0.232172579 -0.972673059 -0.00174495368 -0.073829934 -0.997122705 -0.0171880871 -0.98402524 0.16757752 -0.0601002946 -0.958777964 -0.283764809 0.0149126071 0.972964525 -0.183888152 -0.139732376 0.0654344559 0.641402125 -0.764409363 0.00961320754 -0.987893581 0.15483512 0.0013706889 -0.998722494 0.0505123958 -0.0130340317 -0.979355931 0.201722741 0.105063662 -0.608182192 0.786813855 0.999858379 -0.0167692807 0.00139896967 0.999885619 -0.0130470982 0.0076489863 0.999880791 -0.0145891039 0.00505995424 0.999873161 -0.0104389368 0.012027489 0.196291834 -0.00257242145 0.980542123 0.25506112 0.161606446 0.953324258 0.127025902 -0.177213773 0.975940406 -0.0419426933 0.993083239 0.109665208 -0.0363759324 0.99908787 0.0223655738 0.290723562 -0.649372578 -0.702705503 0.373069048 -0.559764862 -0.739920795 0.438561678 -0.476134956 -0.762206793 0.49815765 -0.388059795 -0.775402188 0.98221159 0.1869248 0.0178737156 0.0394073389 -0.0072983955 -0.999196589 0.00164303952 -0.996131241 0.0878624767 -0.0394568481 -0.0325198472 -0.998691976 -0.99704659 -0.0443926044 -0.0626687631 -0.893294573 0.448865592 0.0233348794 -0.996364832 -0.00706032058 -0.0848957747 -0.434936553 -0.900319219 0.0159828588 0.318236738 0.362915367 0.875795543 0.396777064 0.905559719 -0.150098294 0.993528485 -0.0896997601 0.0696787238 -0.151411593 -0.0357323438 0.987824738 0.160057038 -0.978981853 -0.126397178 0.395654887 -0.918293297 -0.0139525319 0.988260388 -0.132687032 0.0757332072 0.990105212 -0.137322992 0.0288806055 0.988387406 -0.150341153 0.0220884662 0.292539269 0.337562293 -0.894691288 -0.286007702 -0.0544283353 0.956680298 -0.331751525 -0.0337341502 0.942763448 -0.232126549 -0.006339652 0.972664952 -0.285648793 -0.0209740456 0.958104849 -0.718871057 -0.14831458 0.679137051 0.480550587 0.230051756 0.846254885 -0.989412487 0.0664717928 0.129013136 0.814410806 0.16839014 0.555319548 0.464187741 0.819422364 -0.336268902 0.0689261034 0.992605805 -0.0999147296 0.070512712 0.9936288 -0.0879193842 0.00778202154 -0.967735648 -0.251847416 -0.00664262101 -0.0471426919 -0.998866081 -0.0661179125 -0.285538673 -0.956083715 -0.0181392375 -0.123926617 -0.992125571 0.0694292262 0.00370562635 -0.997579992 0.813856304 0.306227207 -0.493824631 0.811747968 0.0552127548 0.58139205 0.998239756 0.0276824739 -0.0524509028 0.994129658 -0.0628103986 -0.0880972445 0.993903577 -0.0264705755 0.107027918 0.899262011 -0.435108095 0.0448189974 0.994365513 0.062898837 0.0853283629 0.974660218 -0.0953371823 -0.202356741 0.527021706 0.283169806 0.801288307 0.651993752 -0.634671926 -0.414844185 0.309207141 0.860109746 0.405711979 0.990441263 -0.0574161187 0.125417456 0.980503559 -0.148073643 0.129177958 0.991573513 -0.0361841694 0.124389209 0.992338359 -0.0107286889 0.123083279 -0.466970772 0.847821236 -0.251271755 -0.49716416 0.852999866 -0.158804938 -0.474844187 0.849849761 -0.228644699 0.0328998566 0.224099189 -0.974010885 -0.164433062 0.211286411 -0.963493526 0.0430005714 0.0629053116 -0.997092724 -0.0958720148 0.159071296 -0.982601106 0.576012909 0.244865373 -0.779903889 -0.0651010945 -0.925475001 0.373172641 -0.00829281844 0.992619991 -0.120982803 0.901775002 0.0300486069 -0.431160033 -0.81464088 -0.536942124 0.219210804 -0.109495811 0.0494554676 -0.992756188 -0.0781184658 0.0308062546 -0.996468008 -0.0912050158 0.0385817215 -0.995084465 -0.119396225 0.0553441867 -0.991302967 -0.0194036756 0.90141499 -0.432521075 -0.0811591819 -0.133216083 -0.987758398 0.218567088 -0.171072975 0.960709333 -0.0465441681 0.888580322 0.456353664 0.761900723 0.0370529406 0.646633148 -0.427887142 0.375951082 -0.821932733 -0.996994793 -0.00567247113 0.077260837 -0.998318553 -0.00281147938 0.0578978099 -0.0464734808 0.911090255 -0.409578741 -0.976465166 0.118724257 -0.180056334 -0.352265149 -0.484120309 -0.800959945 -0.991344929 -0.129478589 -0.0216906928 -0.533412755 0.625496864 -0.569407165 -0.036310453 -0.999056935 0.0238062721 -0.0156970806 -0.998026609 -0.0607983619 0.964118958 -0.0105316145 -0.265261531 0.985328436 -0.143287346 0.0927181989 -0.990832686 -0.118059374 0.0656705201 -0.990066707 -0.130972192 0.0511297695 -0.989903212 -0.0627759174 0.127085835 -0.0470157042 -0.0214420557 -0.998663962 -0.0477182679 -0.0218107905 -0.998622656 0.818691254 0.0276277922 0.573569 -0.997941613 0.0180534795 -0.0615353696 -0.979829907 -0.0039083194 -0.199795157 -0.982094228 -0.00207365793 -0.188379005 -0.999474883 0.0243246928 -0.021406725 0.116694607 0.810981691 -0.573315859 -0.133782193 -0.589761257 -0.796419501 0.0498126522 0.052415181 -0.997382224 0.220100135 0.974800766 0.0363243595 0.0733842179 -0.192589551 0.978531539 0.126963913 -0.103515379 0.986491144 0.0442892015 -0.239549249 0.969873488 -0.012111702 -0.327839077 0.944655955 0.278773963 -0.730177402 0.623799741 -0.0792115256 0.945953488 0.314479738 -0.453258991 0.703183949 -0.547803402 0.999900281 -0.00592809729 -0.0128189316 0.0712467656 0.291525245 -0.953906119 0.0251774061 0.144126445 -0.989238918 0.130093917 0.518850148 -0.844908297 -0.17106995 -0.632869065 0.755123675 -0.151245937 0.00647398224 0.988474965 0.0278711896 -0.0387072042 -0.998861849 0.025132874 -0.0484901331 -0.99850738 0.904061854 -0.398713022 -0.153948382 0.10081847 -0.174415618 -0.979497254 -0.969284058 0.24429886 -0.0283985361 0.952918112 0.300866872 -0.0377655253 0.106548302 0.280475229 -0.953929305 -0.984571457 -0.174980223 0.000999441021 0.169562504 -0.961402714 -0.216687366 -0.0416920595 -0.953611434 -0.298139155 -0.0176966283 0.916343689 0.400001377 0.973418534 0.0767314434 0.215797737 -0.0176159479 0.962716162 -0.269939452 -0.963041902 -0.0448017009 -0.265599608 -0.440530449 0.838279426 -0.321279466 -0.00685535604 -0.402394712 -0.915440619</float_array>
          <technique_common>
            <accessor source="#normals_array" count="500" stride="3">
              <param name="X" type="float" />
              <param name="Y" type="float" />
              <param name="Z" type="float" />
            </accessor>
          </technique_common>
        </source>
        <vertices id="vertices">
          <input semantic="POSITION" source="#positions" />
        </vertices>
        <triangles material="scout_b2b2b2" count="410">
          <input semantic="VERTEX" source="#vertices" offset="0" />
          <input semantic="NORMAL" source="#normals" offset="1" />
          <p>0 0 1 1 2 2 3 3 4 3 5 3 6 4 2 5 7 6 8 7 9 8 10 9 11 10 12 11 0 0 13 12 11 13 14 14 12 11 15 15 0 0 14 14 16 16 15 17 12 18 11 18 13 18 12 19 14 14 15 17 17 20 18 21 19 22 20 23 21 24 10 25 5 26 22 26 23 26 10 25 11 10 20 23 24 27 25 28 7 29 26 30 27 30 28 30 28 31 29 32 26 33 30 34 29 34 28 34 27 35 29 36 30 37 29 38 31 39 32 40 32 41 30 42 28 43 31 44 30 42 32 41 33 45 32 46 28 47 33 45 34 48 32 46 31 49 34 49 33 49 35 50 25 51 36 52 37 53 35 54 38 55 0 0 39 56 16 57 39 58 18 21 40 59 15 15 39 56 0 0 21 60 18 21 39 58 15 15 21 61 39 56 41 62 39 63 40 64 42 65 43 66 44 67 45 68 46 68 41 68 47 69 41 62 40 64 46 70 47 70 40 70 45 71 47 71 46 71 48 72 45 72 41 72 49 73 41 73 46 73 50 74 51 74 52 74 53 75 54 76 52 77 53 75 52 77 55 78 51 79 50 79 54 79 56 80 57 81 58 82 12 83 13 83 10 83 12 84 21 84 14 84 21 85 13 12 14 14 15 15 13 86 21 61 59 87 10 9 13 88 59 87 13 88 15 89 60 90 20 91 61 92 62 93 63 93 26 93 9 94 8 94 20 94 60 95 9 96 20 97 61 92 18 21 21 60 8 98 64 99 20 23 65 100 66 101 67 102 64 99 59 103 21 24 24 104 22 104 25 104 68 105 69 106 60 107 52 108 51 108 55 108 24 109 50 109 70 109 71 110 72 111 73 112 71 113 73 114 74 115 75 116 73 116 72 116 74 117 75 117 72 117 44 67 76 118 77 119 78 120 52 120 54 120 79 121 23 122 80 123 50 124 53 125 78 126 81 127 82 128 48 129 75 130 83 131 73 132 84 133 74 133 83 133 85 134 83 135 72 136 83 135 74 137 72 136 84 138 83 131 75 130 84 139 86 140 85 141 85 134 86 142 83 135 86 140 84 139 75 143 83 144 87 145 73 146 75 147 87 147 86 147 72 111 71 110 88 148 60 95 89 149 9 96 90 150 91 151 92 152 93 153 74 115 73 114 21 154 59 154 94 154 94 155 68 156 21 60 57 157 94 155 95 158 68 156 94 155 57 157 96 159 57 159 95 159 96 160 97 160 57 160 97 161 95 158 58 82 97 162 96 162 98 162 99 163 68 156 57 157 100 164 35 50 36 52 35 165 100 166 101 167 35 165 101 167 38 168 55 169 93 170 78 171 6 172 67 173 19 174 102 175 31 176 63 177 103 178 33 178 104 178 34 179 102 180 103 181 102 182 104 183 33 184 102 180 105 185 103 181 102 186 106 186 104 186 63 177 106 187 102 175 105 188 102 182 33 184 107 189 87 190 75 191 63 192 35 54 37 53 63 193 37 193 36 193 108 194 5 194 109 194 37 195 101 196 100 197 36 198 101 198 108 198 5 199 110 199 109 199 110 200 5 200 79 200 63 201 105 202 33 203 63 201 33 203 106 204 22 205 110 205 79 205 111 206 112 207 113 208 114 209 67 210 62 211 62 212 106 204 33 203 115 213 116 214 117 215 65 100 67 102 114 216 118 217 119 218 120 219 91 151 90 150 60 95 119 218 118 217 65 220 119 218 121 221 120 219 62 211 6 4 7 6 122 222 121 222 123 222 124 223 125 224 62 225 126 226 125 227 127 228 3 229 127 230 62 231 125 224 124 223 128 232 129 233 66 101 120 234 130 235 81 127 115 213 70 236 22 237 24 238 131 239 132 240 67 241 133 242 134 243 135 244 134 245 23 245 88 245 49 246 46 246 40 246 49 247 40 247 48 247 47 248 49 249 48 250 47 248 45 251 49 249 82 128 45 252 48 129 45 253 82 128 49 254 41 255 47 255 48 255 56 256 49 254 82 128 121 221 122 257 120 219 51 258 54 258 53 258 78 126 53 125 55 259 22 237 108 260 110 261 53 262 93 262 51 262 136 263 133 242 135 244 73 146 87 145 137 264 85 265 87 266 107 267 87 268 88 269 138 270 138 271 85 271 107 271 88 272 85 272 138 272 137 273 85 274 88 275 138 276 137 277 87 278 107 189 137 277 138 276 130 235 132 240 139 279 63 177 31 176 27 280 80 281 140 282 77 283 69 106 141 284 142 285 128 286 93 287 143 288 42 289 144 290 145 291 146 292 107 189 128 293 147 294 148 295 136 296 149 297 147 294 144 290 144 290 42 289 149 297 150 298 124 299 127 230 3 300 124 300 150 300 126 301 3 301 150 301 3 302 126 226 127 228 126 226 150 303 128 304 151 305 123 305 121 305 110 306 78 306 109 306 128 307 143 307 131 307 82 128 81 127 152 308 91 151 69 106 153 309 143 310 89 311 131 239 154 312 128 313 131 314 155 315 33 315 28 315 89 311 156 316 139 279 156 317 89 317 157 317 157 318 154 318 156 318 156 316 142 319 139 279 142 320 156 321 158 322 142 323 158 324 157 325 29 326 32 326 104 326 33 327 103 327 31 327 20 23 2 2 6 328 135 244 134 243 88 329 157 325 158 324 159 330 141 331 130 235 139 279 158 322 156 321 160 332 57 81 97 161 58 82 98 333 57 333 56 333 98 334 99 334 57 334 98 335 96 335 99 335 96 336 56 256 99 337 95 338 97 338 98 338 56 339 95 339 98 339 56 340 96 340 95 340 161 341 49 342 56 80 99 337 56 256 152 308 141 331 99 337 152 308 122 343 151 344 129 233 158 322 129 233 151 344 25 345 38 345 36 345 141 331 152 308 130 235 99 346 141 284 68 105 68 105 141 284 69 106 117 347 116 348 19 174 11 13 7 349 14 14 63 350 62 350 7 350 147 351 149 352 162 353 14 14 2 354 1 355 144 290 147 294 136 296 62 356 125 227 126 226 29 38 27 357 31 39 116 348 81 358 17 359 17 359 81 358 40 360 0 0 2 2 11 10 81 127 48 129 40 361 17 20 40 59 18 21 115 213 81 127 116 214 26 33 106 204 62 212 163 362 80 363 164 364 165 365 164 364 80 363 14 14 7 349 2 354 166 366 105 367 79 368 113 208 163 369 164 370 11 10 2 2 20 23 28 371 27 372 155 373 27 372 105 374 155 373 108 375 78 375 110 375 92 152 91 151 153 309 63 376 7 29 25 28 69 106 91 151 60 95 42 65 167 377 43 66 79 378 155 378 166 378 61 92 20 91 6 379 0 0 16 57 1 1 120 234 66 101 118 380 24 381 10 9 9 8 19 174 116 348 17 359 19 22 18 21 6 379 64 99 21 24 20 23 8 382 59 382 64 382 132 240 115 213 117 215 155 383 105 367 166 366 68 156 60 90 61 92 66 101 160 332 67 102 22 384 5 384 37 384 21 24 12 385 10 25 68 156 61 92 21 60 94 155 39 63 58 82 49 386 58 82 39 63 27 280 26 387 63 177 168 388 165 388 80 388 43 389 168 390 76 391 168 390 80 281 76 391 77 283 76 391 80 281 139 279 142 319 141 331 169 392 88 148 71 110 132 240 130 235 115 213 65 100 118 380 66 101 4 393 155 393 113 393 113 394 136 395 135 396 113 394 135 396 23 397 4 398 113 398 23 398 79 399 4 399 23 399 133 400 80 123 23 122 78 401 54 401 50 401 107 189 74 115 93 153 74 402 84 403 137 273 83 404 86 404 87 404 145 405 170 406 43 407 43 407 167 408 145 405 44 67 43 66 76 118 156 321 131 314 160 332 4 409 79 409 5 409 169 410 135 410 88 410 89 149 60 95 90 150 63 411 108 412 79 413 108 412 109 414 79 413 63 411 79 413 105 415 78 171 93 170 109 416 109 417 93 417 22 417 22 418 93 418 23 418 79 419 109 419 22 419 93 420 137 421 88 422 23 423 93 420 88 422 129 233 120 234 122 343 25 424 22 425 37 426 36 427 38 427 101 427 50 428 24 429 93 430 55 431 51 431 93 431 6 379 18 21 61 92 106 204 26 33 29 32 103 181 105 185 31 432 105 185 27 35 30 37 34 433 31 433 102 433 63 411 36 434 108 412 5 435 70 435 37 435 90 150 92 152 89 149 111 206 113 208 164 370 11 13 24 381 7 349 3 436 33 437 155 438 4 439 3 436 155 438 146 292 71 113 137 277 137 277 107 189 146 292 74 115 137 277 71 113 9 96 89 149 143 440 67 173 117 347 19 174 142 285 153 309 69 106 170 406 165 441 43 407 80 442 163 442 155 442 163 369 113 208 155 443 79 121 80 123 155 444 14 14 1 355 16 16 93 430 53 445 50 428 136 296 113 446 112 447 144 290 136 296 112 447 145 291 144 290 112 447 117 215 67 241 132 240 73 146 137 264 93 448 56 256 82 128 152 308 52 449 70 449 50 449 25 450 35 450 63 450 167 451 42 289 145 291 119 218 62 356 126 226 62 211 67 210 6 4 131 314 67 102 160 332 62 231 127 230 124 299 10 9 24 381 11 13 78 452 37 452 70 452 140 453 148 454 147 351 123 455 151 455 122 455 128 304 127 228 125 227 43 389 165 456 168 390 3 457 128 458 124 459 74 115 107 189 75 191 164 460 165 441 112 461 165 441 145 405 112 461 159 330 121 221 119 218 133 400 140 462 80 123 59 463 16 464 39 465 59 463 39 465 94 466 103 467 104 467 34 467 104 468 32 468 34 468 85 274 137 273 84 403 70 236 108 260 22 237 152 308 81 127 130 235 93 430 24 429 9 469 5 470 108 470 70 470 94 155 58 82 95 158 154 312 131 314 156 321 136 471 148 472 140 473 133 474 136 471 140 473 85 265 72 475 87 266 72 476 88 269 87 268 36 477 37 195 100 197 154 478 157 325 128 304 77 119 147 351 162 353 162 353 44 67 77 119 147 351 77 119 140 453 23 479 3 480 5 481 169 482 71 113 146 292 59 483 15 483 16 483 153 309 89 149 92 152 142 285 89 149 153 309 145 405 165 441 170 406 135 484 146 485 3 480 3 480 23 479 135 484 119 218 126 226 159 330 65 220 114 486 62 356 128 293 107 189 93 153 49 386 39 63 41 62 169 487 146 485 135 484 33 488 3 229 62 231 65 220 62 356 119 218 162 353 149 352 42 65 89 489 142 323 157 325 111 206 164 370 112 207 134 490 133 490 23 490 128 304 150 303 127 228 3 457 146 491 128 458 70 492 52 492 78 492 44 67 162 353 42 65 93 287 9 493 143 288 89 311 139 279 131 239 8 7 10 9 59 87 106 204 29 32 104 494 105 185 30 37 31 432 160 332 66 101 129 233 151 495 121 221 159 330 160 332 129 233 158 322 159 330 126 226 128 304 131 239 139 279 132 240 159 330 128 304 157 325 158 324 151 495 159 330 108 496 101 496 37 496 161 497 58 497 49 497 58 82 161 341 56 80 25 424 37 426 38 498 37 499 78 499 108 499</p>
        </triangles>
      </mesh>
    </geometry>
  </library_geometries>
  <library_visual_scenes>
    <visual_scene id="scene">
      <node id="torso_link_rev_1_0">
        <instance_geometry url="#geometry">
          <bind_material>
            <technique_common>
              <instance_material symbol="scout_b2b2b2" target="#scout_b2b2b2" />
            </technique_common>
          </bind_material>
        </instance_geometry>
      </node>
    </visual_scene>
  </library_visual_scenes>
  <scene>
    <instance_visual_scene url="#scene" />
  </scene>
</COLLADA>