<?xml version='1.0' encoding='utf-8'?>
<COLLADA xmlns="http://www.collada.org/2005/11/COLLADASchema" version="1.4.1">
  <asset>
    <created>2026-09-14T00:00:00Z</created>
    <modified>2026-09-14T00:00:00Z</modified>
    <unit name="metre" meter="1" />
    <up_axis>Z_UP</up_axis>
  </asset>
  <library_effects>
    <effect id="scout_b2b2b2_effect">
      <profile_COMMON>
        <technique sid="common">
          <lambert>
            <emission>
              <color>0 0 0 1</color>
            </emission>
            <ambient>
              <color>0.35 0.35 0.35 1</color>
            </ambient>
            <diffuse>
              <color>0.7 0.7 0.7 1</color>
            </diffuse>
          </lambert>
        </technique>
      </profile_COMMON>
    </effect>
  </library_effects>
  <library_materials>
    <material id="scout_b2b2b2" name="scout_b2b2b2">
      <instance_effect url="#scout_b2b2b2_effect" />
    </material>
  </library_materials>
  <library_geometries>
    <geometry id="geometry" name="waist_roll_link_rev_1_0">
      <mesh>
        <source id="positions">
          <float_array id="positions_array" count="63">-0.01746119 0.00122566614 0.00496933283 -0.0181324258 -0.00110529806 -0.00443348708 -0.0103084696 -0.00557086384 0.00202525314 -0.0102726677 0.0055292137 0.00224592397 -0.0099721821 0.00802124944 -0.00750759523 -0.00888679642 -0.0106990375 0.0049008918 -6.56275442e-05 0.00989195332 -0.00687673315 -0.00728379749 0.0106726345 0.00678977463 -0.00963218417 -0.00139355334 0.0118235499 0.00980270654 -0.00166503771 -0.0112545891 0.00643507252 -0.0105393222 -0.00725371204 -0.00934612285 -0.0062092049 -0.0107545806 0.00648848992 0.00992092397 0.00107411598 0.00899056252 -0.0111222565 0.00329672894 0.0188780762 -1.27940966e-05 -0.00360801793 0.0104343602 -0.00610418152 -0.000817506341 0.010258236 0.00336815882 0.00459884247 0.00961516239 -0.00219441345 0.0115490854 0.00940074213 0.00859121047 0.00830677059 0.00930087361 0.00929176807 -0.00724886125 0.0170781445 -6.83764592e-05 0.00525141228</float_array>
          <technique_common>
            <accessor source="#positions_array" count="21" stride="3">
              <param name="X" type="float" />
              <param name="Y" type="float" />
              <param name="Z" type="float" />
            </accessor>
          </technique_common>
        </source>
        <source id="normals">
          <float_array id="normals_array" count="192">-0.618802249 -0.751014054 0.23035109 -0.644507706 0.764597058 -0.00105625624 -0.653284669 0.756923854 0.0168934334 -0.710349739 0.686881185 0.153614566 0.739974737 0.0658788309 0.669400811 0.778980851 0.0246659275 0.626562357 0.876604617 -0.107212067 0.469116092 -0.960415065 0.243427321 0.135447711 0.0797297508 -0.43468073 -0.897048414 -0.829159319 -0.208885267 0.518518806 -0.928641438 -0.137773842 0.34444654 -0.969005823 -0.0909570679 0.229683533 -0.206649512 0.00250285096 -0.978411853 -0.0867638215 0.0941628367 -0.991768837 -0.25706014 -0.0371795557 -0.965679944 0.00835689623 -0.650008559 0.75988096 0.0288583953 -0.627040923 0.778451622 0.058036834 -0.592877269 0.803198755 0.554853201 -0.823451877 -0.118595742 0.863578796 -0.496085167 -0.0901727527 0.676135957 -0.662858188 -0.321650594 -0.386028677 -0.142169908 -0.911465645 0.323260725 -0.548723519 -0.770976663 -0.551588535 0.817955911 -0.163395748 0.364497006 -0.0196838435 0.930996478 0.0831070989 0.949129641 -0.303720564 0.273467422 0.955956757 -0.106593668 0.198946863 0.961939692 -0.187328964 0.610189438 0.179910317 0.77155757 -0.174427181 0.973523915 -0.147737473 0.0256437864 0.288260579 0.957208574 0.0028082463 0.327442676 0.944866896 -0.0119425133 0.352362514 0.93578738 -0.746875644 -0.249012917 0.616578758 0.970297873 -0.241181761 -0.0187975653 0.869066477 -0.43554768 -0.234567121 -0.200125366 -0.943344831 -0.264670283 -0.0102079632 0.345911354 -0.938211679 -0.0511513539 0.270889223 -0.961250544 -0.0125222085 0.378436089 -0.925542712 -0.317904234 -0.475083083 0.820507765 -0.0772658214 0.218557045 -0.972760439 -0.0370722972 0.293800056 -0.955147743 -0.0177321881 -0.678004444 0.73484385 0.169969767 0.979113102 0.111569516 0.208317384 0.976688445 0.0518024899 0.110398985 0.984463811 0.136539474 0.123443462 0.99179405 -0.0332602337 0.0616955832 0.996606529 -0.0544890948 -0.986881077 -0.160376191 0.0185796153 -0.996912479 -0.0270380098 -0.0737189651 -0.99394244 -0.0841925889 -0.0706404895 -0.970308185 -0.233386695 0.0635034516 -0.993361235 -0.0637644455 0.0957471952 -0.997679114 0.00186471362 0.068065539 0.975535035 0.203916579 0.0821550488 0.606361508 -0.786346436 0.118258446 -0.0349170193 0.390565127 0.919912875 0.997400761 -0.0455649048 0.0558174253 0.997002721 0.0533419289 0.0560378209 0.991098881 0.114510477 0.0678995475 0.995614946 0.0856428295 -0.0376316682 0.996788323 0.0634947419 -0.0488000736 0.440680802 0.892608821 0.0951312557</float_array>
          <technique_common>
            <accessor source="#normals_array" count="64" stride="3">
              <param name="X" type="float" />
              <param name="Y" type="float" />
              <param name="Z" type="float" />
            </accessor>
          </technique_common>
        </source>
        <vertices id="vertices">
          <input semantic="POSITION" source="#positions" />
        </vertices>
        <triangles material="scout_b2b2b2" count="42">
          <input semantic="VERTEX" source="#vertices" offset="0" />
          <input semantic="NORMAL" source="#normals" offset="1" />
          <p>0 0 1 0 2 0 1 1 3 2 4 3 5 4 6 5 7 6 7 7 4 7 8 7 9 8 10 8 11 8 12 9 10 10 13 11 13 12 5 13 7 14 13 15 8 16 5 17 14 18 15 19 9 20 13 12 7 14 12 21 1 22 4 22 2 22 1 1 0 23 3 2 0 24 2 24 3 24 9 25 16 26 14 27 5 4 10 28 6 5 6 29 4 29 7 29 17 30 18 31 8 32 12 9 6 33 10 10 9 20 13 34 10 35 11 36 10 36 5 36 19 37 4 38 6 39 16 40 15 40 20 40 11 41 4 38 9 42 4 38 19 37 9 42 13 15 17 43 8 16 18 44 12 45 7 46 12 45 18 44 19 47 6 48 12 45 19 47 2 49 4 50 11 51 11 51 5 52 2 49 5 52 8 53 2 49 3 54 2 49 8 53 4 55 3 55 8 55 14 18 20 56 15 19 7 57 8 32 18 31 17 58 13 34 16 59 13 34 15 19 16 59 13 34 9 20 15 19 18 60 17 58 16 59 19 61 18 60 16 59 16 59 9 62 19 61 20 63 14 27 16 26</p>
        </triangles>
      </mesh>
    </geometry>
  </library_geometries>
  <library_visual_scenes>
    <visual_scene id="scene">
      <node id="waist_roll_link_rev_1_0">
        <instance_geometry url="#geometry">
          <bind_material>
            <technique_common>
              <instance_material symbol="scout_b2b2b2" target="#scout_b2b2b2" />
            </technique_common>
          </bind_material>
        </instance_geometry>
      </node>
    </visual_scene>
  </library_visual_scenes>
  <scene>
    <instance_visual_scene url="#scene" />
  </scene>
</COLLADA>