<?xml version='1.0' encoding='utf-8'?>
<COLLADA xmlns="http://www.collada.org/2005/11/COLLADASchema" version="1.4.1">
  <asset>
    <created>2026-09-14T00:00:00Z</created>
    <modified>2026-09-14T00:00:00Z</modified>
    <unit name="metre" meter="1" />
    <up_axis>Z_UP</up_axis>
  </asset>
  <library_effects>
    <effect id="scout_b2b2b2_effect">
      <profile_COMMON>
        <technique sid="common">
          <lambert>
            <emission>
              <color>0 0 0 1</color>
            </emission>
            <ambient>
              <color>0.35 0.35 0.35 1</color>
            </ambient>
            <diffuse>
              <color>0.7 0.7 0.7 1</color>
            </diffuse>
          </lambert>
        </technique>
      </profile_COMMON>
    </effect>
  </library_effects>
  <library_materials>
    <material id="scout_b2b2b2" name="scout_b2b2b2">
      <instance_effect url="#scout_b2b2b2_effect" />
    </material>
  </library_materials>
  <library_geometries>
    <geometry id="geometry" name="waist_yaw_link_rev_1_0">
      <mesh>
        <source id="positions">
          <float_array id="positions_array" count="84">-0.0200505313 -0.00387711078 0.0535891205 -0.0200269707 0.00477320328 0.0530010834 -0.0430628881 -0.00282487413 0.0152761461 -0.0344801359 0.0266099907 0.0154784247 -0.0330741853 0.0293963831 0.00333721447 -0.0258327629 -0.00732786534 -0.000265645591 -0.0429460667 -0.00435318053 0.00330381119 0.0348214656 -0.0412749238 0.0257257503 -0.00962991733 -0.0419966616 0.0148344859 -0.00863761269 -0.0424353518 0.00329230586 -0.0322777629 -0.0284941569 0.00327671389 -0.0324818529 -0.0285962019 0.015202418 -0.00956751965 0.041999653 0.0148719577 0.0432214402 -0.00342645519 0.00314178295 0.0253674295 -0.0365455747 0.00348986313 0.0263913926 0.00208211085 -0.000262896734 0.00581002422 -0.0252971128 -0.000229852812 -0.0043270844 0.0426237173 0.00325981597 -0.00342625822 0.0265478231 -0.000277550309 0.0286013838 0.0351084098 0.00361078605 0.0110575454 -1.83449883e-05 0.0547737889 0.0200858042 -0.0407943241 0.0273617115 0.0390386768 -0.0343500376 0.0326287039 0.0385760851 -0.0374946371 0.0190169103 0.0347280912 0.0409965143 0.0264156274 0.037887428 0.0393186323 0.0199632216 0.0390622057 0.035063345 0.0321604088 0.019963976 0.0405096486 0.0277435035</float_array>
          <technique_common>
            <accessor source="#positions_array" count="28" stride="3">
              <param name="X" type="float" />
              <param name="Y" type="float" />
              <param name="Z" type="float" />
            </accessor>
          </technique_common>
        </source>
        <source id="normals">
          <float_array id="normals_array" count="171">-0.581658423 -0.403278679 0.706427455 -0.858015597 0.104369268 0.502907872 -0.969732881 -0.0391058661 0.241016433 -0.947305322 0.275091648 0.164125443 -0.127498448 0.102793381 -0.9864977 -0.119109996 -0.0318837799 -0.992368996 -0.204927668 -0.00447871676 -0.978766859 0.185827032 -0.962027967 -0.199926108 -0.244513527 -0.969429731 0.0204715431 -0.220255867 -0.974798441 -0.0354317389 -0.121629395 -0.127700076 -0.984326661 -0.757230878 -0.536020994 0.373206258 -0.498208314 0.864136219 0.0711133778 -0.479170114 0.790691912 0.381054252 -0.295992166 0.918873489 0.26088351 0.191383436 -0.0217718072 -0.98127383 0.112062201 -0.143782958 -0.983243883 0.126921579 0.0147167053 -0.991803586 0.0262857713 -0.120463379 -0.992369711 -0.042238351 -0.168356508 -0.984820783 -0.0163266268 0.213999242 -0.976697385 -0.0150769716 0.124054454 -0.992160857 0.111999422 0.132649273 -0.984814882 -0.922206521 -0.385903865 0.0247667301 0.0214800797 -0.554501235 0.831905663 -0.0803573206 -0.644944847 0.759992659 -0.00579694239 -0.622547626 0.782560408 0.971636057 -0.22437273 0.0747007653 0.954801977 -0.295088202 0.0357228145 0.998841465 0.0481068157 0.00118800416 -0.958859861 0.280066133 -0.0463760644 -0.958792388 0.280495316 -0.0451616049 0.692952633 -0.379999787 -0.612712681 0.188496962 -0.941214025 -0.280330181 0.31739071 -0.891059101 -0.324463814 -0.123672053 0.441006571 0.888942301 -0.0463730581 0.0678749308 0.996615529 0.0146618905 0.499682367 0.866084635 -0.119331978 0.989560366 -0.080809392 -0.507403791 -0.861582994 -0.0146997031 -0.507900059 -0.861266255 -0.0160612483 0.10322094 0.990090549 -0.0952160284 0.169567838 0.956002712 -0.239385709 0.211636573 0.910726786 -0.354664207 0.943237185 0.216736153 -0.251652658 0.791578531 0.306755543 -0.528492689 0.995408535 0.0940151364 0.0179719999 -0.310737193 -0.718070328 0.622749865 -0.0579223521 0.841792405 0.536684811 0.79618609 -0.594899058 0.110375755 -0.0172178205 -0.990570724 0.135916203 0.710074723 0.683297873 0.169993788 0.624388993 0.00505796075 0.781097174 -0.914508402 -0.404115409 -0.0191082358 0.0398306698 0.709922612 0.703152418 -0.00641977321 0.616196811 0.787566066 0.0531812496 -0.721044481 0.690844893</float_array>
          <technique_common>
            <accessor source="#normals_array" count="57" stride="3">
              <param name="X" type="float" />
              <param name="Y" type="float" />
              <param name="Z" type="float" />
            </accessor>
          </technique_common>
        </source>
        <vertices id="vertices">
          <input semantic="POSITION" source="#positions" />
        </vertices>
        <triangles material="scout_b2b2b2" count="52">
          <input semantic="VERTEX" source="#vertices" offset="0" />
          <input semantic="NORMAL" source="#normals" offset="1" />
          <p>0 0 1 1 2 2 1 1 3 3 2 2 4 4 5 5 6 6 7 7 8 8 9 9 5 5 10 10 6 6 11 11 0 0 2 2 4 12 3 13 12 14 13 15 14 16 15 17 14 16 16 18 15 17 14 16 9 19 16 18 9 19 5 5 16 18 9 19 10 10 5 5 4 4 17 20 18 21 17 20 19 22 18 21 19 22 15 17 18 21 19 22 13 15 15 17 6 23 11 11 2 2 20 24 21 25 22 26 22 27 23 28 13 29 2 2 4 30 6 31 23 32 14 32 13 32 7 7 14 33 23 34 7 7 9 9 14 33 1 35 0 36 20 37 4 12 12 14 17 38 9 9 11 39 10 40 24 41 25 42 17 38 25 42 19 43 17 38 25 44 13 29 19 45 25 44 26 46 13 29 11 11 8 47 0 0 8 47 21 25 0 0 20 37 27 48 1 35 27 48 12 14 1 35 12 14 3 13 1 35 26 46 22 27 13 29 22 27 7 49 23 28 7 7 21 50 8 8 27 48 24 41 12 14 24 51 26 51 25 51 15 17 16 18 5 5 18 21 15 17 5 5 22 52 26 52 20 52 4 4 18 21 5 5 6 23 10 53 11 11 20 24 0 0 21 25 24 54 27 48 26 55 2 2 3 3 4 30 9 9 8 8 11 39 24 41 17 38 12 14 26 55 27 48 20 37 22 26 21 25 7 56</p>
        </triangles>
      </mesh>
    </geometry>
  </library_geometries>
  <library_visual_scenes>
    <visual_scene id="scene">
      <node id="waist_yaw_link_rev_1_0">
        <instance_geometry url="#geometry">
          <bind_material>
            <technique_common>
              <instance_material symbol="scout_b2b2b2" target="#scout_b2b2b2" />
            </technique_common>
          </bind_material>
        </instance_geometry>
      </node>
    </visual_scene>
  </library_visual_scenes>
  <scene>
    <instance_visual_scene url="#scene" />
  </scene>
</COLLADA>