<?xml version='1.0' encoding='utf-8'?>
<COLLADA xmlns="http://www.collada.org/2005/11/COLLADASchema" version="1.4.1">
  <asset>
    <created>2026-09-14T00:00:00Z</created>
    <modified>2026-09-14T00:00:00Z</modified>
    <unit name="metre" meter="1" />
    <up_axis>Z_UP</up_axis>
  </asset>
  <library_effects>
    <effect id="scout_333333_effect">
      <profile_COMMON>
        <technique sid="common">
          <lambert>
            <emission>
              <color>0 0 0 1</color>
            </emission>
            <ambient>
              <color>0.1 0.1 0.1 1</color>
            </ambient>
            <diffuse>
              <color>0.2 0.2 0.2 1</color>
            </diffuse>
          </lambert>
        </technique>
      </profile_COMMON>
    </effect>
  </library_effects>
  <library_materials>
    <material id="scout_333333" name="scout_333333">
      <instance_effect url="#scout_333333_effect" />
    </material>
  </library_materials>
  <library_geometries>
    <geometry id="geometry" name="head_link">
      <mesh>
        <source id="positions">
          <float_array id="positions_array" count="378">-0.0589776039 -0.0433817729 0.326677889 -0.0503160618 -0.0649912208 0.329756975 -0.0365969911 -0.0235048961 0.358173221 -0.0314392559 0.0105421701 0.3757101 0.0431166179 -0.0422560163 0.45264098 0.0224215798 -0.0413528346 0.453811258 0.0442706607 0.00485761836 0.456649512 -0.0249490943 -0.077354826 0.334024966 -0.0201659296 -0.045982372 0.349176913 -0.0243648067 0.0778710842 0.333777755 0.00470908731 -0.079349108 0.334398836 -0.0246843137 -0.0146631626 0.391813755 -0.0278765894 0.00539124152 0.390671849 -0.0122925714 -0.0309808217 0.366221935 -0.0142619815 -0.0252990816 0.396037698 0.00916993711 -0.0422446467 0.348599672 0.00724807801 -0.0295756198 0.397702962 0.00811581127 -0.0306481402 0.363127828 -0.0649986938 -0.0230582319 0.475122333 -0.0552303679 -0.0423681661 0.465361774 -0.05067233 -0.0471245311 0.473178804 -0.0509901717 -0.0262625497 0.506210983 -0.0620277561 -0.00714966469 0.496030867 -0.0413524061 -0.0450585932 0.494612098 -0.0357114673 0.00595746981 0.523832381 -0.011254563 -0.0513335019 0.497848809 -0.0238537528 -0.0376438685 0.514981687 -0.0186274517 -0.0232979693 0.525235653 0.0226134825 -0.0425328724 0.512516916 0.00247933087 -0.0563427173 0.464556396 -0.0291792415 0.00740204938 0.463181376 -0.0233428329 -0.00476685166 0.446921974 -0.0187404174 -0.0202411134 0.461243182 0.072114788 0.0042843027 0.501741111 0.0740114674 -0.0134272082 0.492427409 0.0716972128 0.0256357435 0.490156144 0.000839514832 -0.0153449755 0.442277521 0.00652528601 -0.0231468603 0.461599678 -0.00245734444 -0.00565306004 0.531293809 0.0238553416 -0.0233343281 0.525016606 -0.0136787528 0.00577302417 0.43943885 -0.0496170409 0.0195479132 0.346690834 -0.048883047 0.0663498864 0.330232829 -0.0584838912 0.0445158184 0.326901317 -0.0358271115 0.0371310562 0.351011246 -0.0236537661 0.0267825518 0.367772818 0.0260266345 -0.0369070992 0.402030855 0.0292927083 -0.0487122573 0.427855283 0.0306394752 -0.0351790302 0.42083928 -0.0138605488 0.0493871234 0.347061992 -0.0181791056 0.023033658 0.397454351 0.00606247922 0.0300869681 0.396968096 0.00198138994 0.0313383788 0.365699023 -0.0534319095 0.0446335711 0.474333316 -0.0359615609 0.0492190979 0.464655817 -0.05936905 0.0287764054 0.465672672 -0.0564790405 0.0342564099 0.490923256 -0.0651388243 0.021374194 0.474113703 -0.0565283224 0.0143542262 0.503445685 -0.0340573937 0.0289713927 0.517330825 -0.0303697847 0.0498602316 0.495249957 -0.0199675784 0.0546429865 0.471949905 -0.0165582206 0.0193247311 0.458723813 0.0532079153 -0.027395796 0.512135148 0.0597977005 -0.0478072874 0.490023106 0.0692500174 -0.0314713567 0.497392297 -0.00417189719 0.0155202597 0.441376567 0.000276558392 0.025229143 0.461820185 0.00601082621 0.0401260518 0.517671525 0.00828408543 0.018339755 0.528590024 0.0171854496 0.0545140617 0.460528195 0.0229908787 0.054727342 0.488504946 0.01694737 -0.0250824988 0.388475657 0.0488066636 0.0317495689 0.409927279 0.05021213 0.0338599235 0.401224047 0.0442582481 0.0492552519 0.459727049 0.0283819661 -0.0702759847 0.331682175 0.0219680797 -0.0138080735 0.355090052 0.0440315269 -0.0364580378 0.330084532 0.0487206616 0.0387136489 0.466887534 0.0619930178 0.0443852656 0.479753166 0.0672790483 0.0350684486 0.497681767 0.0226657372 -0.00766973617 0.380134553 0.0425716676 -0.0458162352 0.326324284 0.0395261571 -0.0485691801 0.423671842 0.024486905 -0.0227581784 0.400409102 0.0433196984 -0.0338153467 0.394049823 0.0493742675 -0.029604746 0.406776398 0.0444990881 -0.0150362225 0.378839403 0.0447550863 -0.0481229499 0.460033894 0.0488990061 -0.0386844613 0.410974085 0.0529400408 -0.00669158716 0.382026404 0.0471529812 0.0279112309 0.326314241 0.0513994358 -0.00842934661 0.391102046 0.0226487145 0.0134609221 0.381519407 0.0292435531 -0.0523549654 0.49514994 0.0189391747 -0.00720404508 0.457351446 0.0205949936 -0.0536338054 0.455567986 0.0425173491 -0.055339653 0.471671045 0.0134374909 -0.00428778213 0.444931149 0.0142873889 0.0774657503 0.334036469 0.0409547202 0.00327092456 0.523092628 0.0630064681 -0.0439068079 0.480770797 0.0158998333 0.014733688 0.45858708 0.0480620973 -0.0352848358 0.465658337 0.0507949591 0.00976734329 0.392322391 -0.0135175921 -0.00886827614 0.395009726 0.0288717095 0.0259066764 0.403085113 0.0111266077 0.0447294153 0.346211612 0.0170304738 0.0342763923 0.349113584 0.0179284681 0.0212972369 0.366420448 0.0132729923 0.0270113349 0.387367904 0.026542224 0.00792391133 0.350782663 0.0423453711 0.0492603183 0.328156412 0.0364592336 0.054538127 0.455980539 0.0548623353 0.0527030379 0.484249502 0.0297188368 0.0480566658 0.425726861 0.0417139418 0.0413378254 0.405057847 0.0265699904 0.0378093123 0.402782321 0.0318772793 0.0659714565 0.330341339 0.0444258377 0.0191352591 0.380229682 0.0317648426 0.0461301468 0.506782234 0.0219753515 0.0414576828 0.453692317 0.0498358011 0.0246387478 0.514678955 0.0429171249 0.0410843231 0.452284664 0.0289326981 0.0373744555 0.427999198</float_array>
          <technique_common>
            <accessor source="#positions_array" count="126" stride="3">
              <param name="X" type="float" />
              <param name="Y" type="float" />
              <param name="Z" type="float" />
            </accessor>
          </technique_common>
        </source>
        <source id="normals">
          <float_array id="normals_array" count="717">-0.780315518 -0.154489711 0.606003761 -0.512552023 -0.363381565 0.777974427 -0.656324804 -0.407305032 0.635090828 -0.849139571 0.250485003 0.464993864 -0.0525084324 0.0859358832 -0.994916022 -0.0589759238 0.0889543295 -0.994288146 -0.0309269428 -0.0232673157 -0.99925077 -0.162322059 -0.43978712 0.883311272 -0.0736042261 -0.5189749 0.851614654 0.065617919 -0.000929205969 -0.997844398 -0.042364791 0.000979181146 -0.999101758 0.0748765171 -0.00186995603 -0.997191072 -0.868464649 -0.334389657 0.365995497 -0.97265166 -0.144472525 0.181869283 0.106377922 -0.392029196 0.913781643 -0.10565196 -0.722456515 0.683296621 -0.407655388 -0.878645837 0.248593286 -0.199022904 -0.972755492 0.118897468 0.190095633 -0.4818528 0.855383873 0.0866700411 -0.991776943 0.09416347 0.601760507 -0.787460446 0.133380413 -0.90360105 -0.332655489 0.269898981 -0.839411199 -0.513961911 0.176725581 -0.80050981 -0.531829238 0.276299983 -0.686255157 -0.380555987 0.619863689 -0.900699258 -0.0676526427 0.42914331 -0.450359046 -0.798037291 0.400391251 -0.454276294 0.0647251308 0.888506413 -0.10911198 -0.928993702 0.353645772 -0.21453245 -0.956435084 -0.198009491 -0.251821905 -0.650683522 0.716377497 -0.222239047 -0.362847537 0.904959381 0.19267799 -0.00156304671 -0.981260777 0.118429348 -0.709401548 0.69478339 -0.048701819 -0.99796629 0.0411267318 -0.220040753 -0.885046363 -0.410213381 -0.9345963 -0.347650975 -0.0752894804 0.850084186 0.043584004 0.524840236 0.952987969 -0.126875535 0.275166452 0.949387372 0.257899553 0.179308295 -0.289571613 -0.811021984 -0.508322299 -0.375859737 -0.523525715 -0.764624298 -0.275040299 -0.749079823 -0.602687478 -0.102355145 -0.932486475 -0.346399158 -0.0350199193 -0.0643561631 0.997312307 0.186144412 -0.339977205 0.921827376 -0.317844719 -0.337609112 -0.885999322 -0.824060738 0.132762343 0.550725043 -0.486296207 0.373600721 0.789897799 -0.796619236 0.175556555 0.578426957 -0.130908161 0.431489676 0.892569184 -0.461487591 0.473999649 0.749902308 -0.458616465 0.626295269 0.630416632 -0.851693332 0.451996535 0.265174687 -0.971028388 -0.00758269755 0.238843918 -0.988161445 0.0459333062 -0.146379828 -0.990178466 0.095831044 0.101798944 -0.0227622781 0.543885171 0.838850915 -0.888373256 0.405622244 0.2150895 -0.272172928 0.947143018 0.169829383 -0.0110076703 0.996983886 0.0768244937 -0.214388385 0.970720887 0.108344764 0.236929744 0.724424839 0.647358477 -0.644487143 0.751957893 -0.138548151 -0.510294497 0.551478028 -0.659902692 -0.803472877 0.487483472 -0.341747314 -0.764745772 0.502909064 0.402798146 -0.951757729 0.265035093 0.154640377 -0.813978374 0.175268322 0.553823292 -0.394533873 0.486340314 0.779625595 -0.282159537 0.876110017 0.390918404 -0.139768496 0.984187186 -0.108813196 -0.260983855 0.955403745 -0.13817057 -0.743892312 0.451060355 -0.493121505 -0.537416816 0.685303688 -0.491469294 -0.70154953 0.52955085 -0.476869166 -0.655008256 0.473092318 -0.58919251 0.46918574 -0.366345257 0.803527176 0.542150557 -0.788852632 0.289455175 0.834367335 -0.387644917 0.391870618 -0.44680196 0.752382636 -0.484033406 -0.348377049 0.628714263 0.695235014 0.00434618955 0.678711951 0.734391689 -0.245623484 0.895260751 -0.371722043 0.0615972802 0.275832206 0.959230065 -0.0301160198 0.992739439 -0.116453744 0.0202736035 0.974001348 0.225633249 0.107356764 -0.773221731 0.624982119 -0.112988114 -0.843348742 -0.525353789 -0.178617567 -0.797599971 -0.576133668 -0.143066138 -0.677685618 -0.721300364 0.665958881 -0.745931804 0.00919302832 0.98523128 -0.099079743 0.139651462 0.986094952 -0.0541415438 0.157115906 0.935490489 -0.112832934 -0.334852546 0.392668843 -0.338301837 0.855197668 0.68711704 -0.119001292 0.716734886 0.687368929 -0.187368914 0.701724231 0.770836473 -0.0471867025 -0.635283053 0.712018549 -0.0310179777 -0.701475263 0.944051385 -0.328902543 0.0242911689 0.742793083 0.490567803 0.455633253 0.757108569 0.645972431 -0.0975000411 0.98987931 -0.141730756 0.00716306409 0.778039336 -0.334928095 0.53148663 -0.0972341746 -0.957766831 -0.270607024 0.273852944 -0.926888525 -0.256675363 -0.748463631 -0.0253569037 -0.662690878 -0.724225581 -0.0179319698 -0.689329922 -0.798772454 -0.0417589769 -0.600182235 -0.966654599 -0.0772068352 0.244167894 0.357905835 -0.726063609 -0.587141454 -0.00570291746 0.946367264 0.323042601 -0.00460388418 0.810024858 0.586377442 -0.0260062423 0.442982912 0.896152794 -0.105454415 -0.13943395 -0.984600186 0.00495049264 -0.233024195 -0.972458363 0.792402983 -0.580289125 -0.188047886 0.532886326 -0.776797533 -0.335585713 0.989081681 0.0341899358 0.143347248 0.970625699 0.240363449 -0.0105437748 0.92146033 0.126154169 -0.367417932 0.723897576 -0.477494538 -0.497967154 0.982508302 0.0161604527 0.185516357 0.986986816 0.0222427156 0.159255505 0.972022176 -0.0604323 -0.226982087 0.0287138466 0.249594703 0.967924595 0.684508681 -0.484316587 -0.544871807 0.948867679 0.314290643 -0.0295209195 0.0962031707 -0.930619657 0.353117496 0.645989418 -0.625167906 -0.438021451 0.647178948 -0.621545851 -0.441406965 0.646102846 -0.624825358 -0.43834272 0.0368638076 -0.985574901 -0.165176153 0.309102774 -0.948153198 -0.0738984272 0.644330442 -0.630109668 -0.433359146 -0.212550819 -0.053039778 -0.975709438 -0.162348539 -0.0678913221 -0.984395087 -0.403844982 -0.013213519 -0.914731979 0.185739651 0.365458667 0.912107885 0.380601645 0.0360031687 0.924037993 0.732343793 -0.671025634 -0.115746349 -0.108793281 0.0189690553 -0.993883371 -0.167792097 0.0534560457 -0.98437202 -0.107882589 0.0273852367 -0.993786395 0.996729314 0.00492899073 -0.0806624442 0.787068427 0.0301135536 -0.616130292 0.00495209778 -0.313060433 0.949720323 0.0660847127 -0.17385672 0.982551098 0.285401285 0.0393938534 0.95759815 -0.0187863074 -0.703879476 0.710070968 0.21822454 0.473237991 0.853477538 0.50567168 0.418001205 0.754699349 0.436258733 0.730596125 0.525269151 0.696624219 0.688794851 0.200689867 0.14807798 0.988951564 -0.0069039287 0.827392995 0.548379421 -0.121246889 0.799355268 0.059791442 0.59787637 0.921852589 0.223810121 0.316380918 0.915253639 0.343669325 0.210243151 0.800754726 0.341721803 0.491953313 0.589166403 0.198426396 0.78326875 0.258294642 0.954252005 -0.15062201 0.221679926 0.903493643 0.366820455 0.0547936484 0.964367867 -0.25882864 0.24478896 0.874429405 -0.418869436 -0.0807252899 0.76131314 -0.643339574 0.454082519 0.286885619 0.843508005 -0.119299099 0.677549958 -0.725736678 -0.0213692188 0.420361668 -0.907104969 0.318789959 0.0392129347 -0.947013915 0.937794268 -0.0928210989 0.334553719 0.984523892 0.029438667 0.172760323 -0.00340795331 -0.848722816 0.528826952 0.870003164 0.257560223 -0.420425087 0.458406925 0.758454859 -0.463259459 -0.833419919 0.0312579013 -0.551755548 -0.719790101 0.0536787212 -0.69211334 0.625530958 0.723896384 -0.291007012 0.198756486 0.00366347772 -0.98004204 0.202505201 0.00429451466 -0.97927177 0.200675756 0.00398649927 -0.979649603 0.535829842 0.596401691 -0.597654879 0.643859804 0.517244995 -0.563828111 0.790926337 0.28598693 -0.540968597 0.426666588 0.777463794 -0.46206677 0.789504766 -0.450464904 0.416849554 0.182808056 0.755745769 0.628831923 0.916651607 0.147911027 -0.371311367 -0.571013689 -0.0205016918 -0.820684493 -0.717226326 -0.06884633 -0.69343102 -0.0824379772 0.0300213192 -0.996143937 0.429372162 0.339744359 0.836787462 -0.0687327981 -0.121869758 -0.990163386 0.720704019 0.0279813651 -0.692677975 0.984567583 -0.174436286 0.0140940612 0.691521585 0.694104493 -0.200042188 -0.263449043 -0.0264148582 0.9643116 -0.158247232 0.434206098 0.886804879 -0.245228231 0.0761647746 0.966468871 -0.98335582 -0.11011786 0.144517809 -0.991311193 -0.0197297353 -0.130049601 -0.960414469 -0.180322409 0.212339073 0.196484983 0.00328132068 -0.980501354 0.334170282 -0.000207759149 -0.942512691 0.174940869 0.00175675354 -0.984577358 0.730889738 0.00076809898 -0.682495117 -0.427836448 -0.0611055419 0.901788294 -0.485972583 -0.0467242822 0.872724175 -0.443710357 -0.0572516806 0.894339621 -0.208811194 -0.00426727114 -0.977946639 -0.22489354 -0.00146467693 -0.974382222 -0.170856312 0.00615596166 -0.985276699 -0.376345843 0.0169545077 -0.926324129 -0.287984252 0.017765034 -0.957470357 -0.0765294507 -0.00282499637 -0.997063339 -0.0719992816 0.0145482691 -0.997298598 -0.0671520457 0.0183811672 -0.997573435 -0.0819588155 0.0149260657 -0.996523917 -0.0781615004 -0.0423103273 -0.99604249 -0.0666429922 -0.053007748 -0.996367872 -0.13279514 0.514792025 0.846967876 -0.889928579 -0.0926626548 -0.446587831 -0.806222737 -0.0443219356 -0.589949548 -0.114425153 0.0370801874 0.992739618 -0.122640319 -0.0824711397 0.989018619 0.010857787 0.976959646 0.213147774 0.0538503528 0.978977919 0.196729153 -0.134734735 0.331105918 -0.933924735 0.734477639 0.0690795183 0.675107896 0.326672971 0.000567501935 -0.945137262 0.587945402 0.0239498466 0.808546007 -0.528243363 -0.0357809253 0.848338783 0.723556995 0.0027325775 -0.690259218 -0.988968253 0.0426028855 -0.14186874 -0.10888011 -0.976821244 0.184297025 -0.0433586463 -0.980642259 0.19094716 -0.00297268596 -0.976648867 0.214821354 -0.189611509 0.0914175734 0.977594137</float_array>
          <technique_common>
            <accessor source="#normals_array" count="239" stride="3">
              <param name="X" type="float" />
              <param name="Y" type="float" />
              <param name="Z" type="float" />
            </accessor>
          </technique_common>
        </source>
        <vertices id="vertices">
          <input semantic="POSITION" source="#positions" />
        </vertices>
        <triangles material="scout_333333" count="252">
          <input semantic="VERTEX" source="#vertices" offset="0" />
          <input semantic="NORMAL" source="#normals" offset="1" />
          <p>0 0 1 1 2 2 3 3 0 0 2 2 4 4 5 5 6 6 2 2 1 1 7 7 2 2 7 7 8 8 9 9 10 10 7 11 11 12 3 3 2 2 12 13 3 3 11 12 10 14 8 8 7 7 13 15 2 2 8 8 14 16 11 12 2 2 14 16 2 2 13 17 13 15 8 8 15 18 14 16 13 17 16 19 16 19 13 17 17 20 18 21 19 22 20 23 21 24 18 21 20 23 21 24 22 25 18 21 21 24 20 23 23 26 24 27 22 25 21 24 25 28 23 26 20 29 26 30 21 24 23 26 27 31 21 24 26 30 1 32 9 9 7 11 28 33 26 30 25 28 29 34 20 29 19 35 25 28 20 29 29 34 26 30 23 26 25 28 30 36 31 36 32 36 33 37 34 38 35 39 32 40 31 41 36 42 37 43 32 40 36 42 38 44 27 31 39 45 31 41 40 46 36 42 24 27 27 31 38 44 41 47 42 48 43 49 9 50 42 48 44 51 44 51 41 47 3 3 45 52 3 3 12 53 41 47 44 51 42 48 44 51 3 3 45 52 46 54 47 55 48 56 9 50 44 51 49 57 50 58 45 52 12 53 49 57 44 51 45 52 50 59 51 60 45 61 45 52 52 62 49 57 53 63 54 64 55 65 56 66 57 67 22 25 53 63 55 65 57 67 56 66 53 63 57 67 24 27 58 68 22 25 59 69 56 66 58 68 24 27 59 69 58 68 56 66 59 69 60 70 56 66 60 70 53 63 53 63 61 71 54 72 31 73 62 74 40 75 62 74 31 73 30 76 63 77 64 78 65 79 66 80 40 75 62 74 30 81 67 81 62 81 59 69 68 82 60 70 62 74 67 83 66 80 24 27 69 84 59 69 68 82 59 69 69 84 54 72 61 71 70 85 60 70 71 86 61 71 15 18 8 8 10 14 17 87 13 15 15 18 46 88 16 89 72 90 72 91 16 19 17 20 73 92 74 93 75 94 15 18 10 14 76 95 76 95 77 96 15 18 78 97 77 96 76 95 79 98 75 94 80 99 77 100 72 91 17 20 81 101 35 39 80 102 77 100 82 103 72 91 78 97 76 95 83 104 47 105 46 88 84 106 19 107 18 108 57 109 48 56 85 110 46 54 46 88 72 90 86 111 84 106 46 88 86 111 48 112 87 113 85 114 82 115 88 116 72 90 88 116 86 111 72 90 89 117 84 106 90 118 90 119 4 120 89 121 91 122 90 118 86 111 90 118 84 106 86 111 91 123 87 124 90 119 87 124 4 120 90 119 83 125 92 125 78 125 93 126 85 114 87 113 91 122 86 111 88 127 77 100 94 128 82 103 28 33 25 28 95 129 28 33 27 31 26 30 39 45 27 31 28 33 96 130 37 131 36 132 97 133 84 106 98 134 99 135 96 130 36 132 29 136 37 137 96 138 29 34 97 133 98 134 100 139 9 50 49 57 101 140 38 44 39 45 89 117 98 134 84 106 63 77 39 45 28 33 98 134 64 78 95 129 89 117 102 141 98 134 64 78 28 33 95 129 70 142 103 143 67 144 6 145 89 121 4 120 89 121 75 94 104 146 6 145 75 94 89 121 64 78 98 134 102 141 102 141 65 79 64 78 34 38 65 79 102 141 34 38 33 37 65 79 105 147 50 148 106 149 107 150 50 148 105 147 49 57 52 62 108 151 108 151 52 62 109 152 52 62 110 153 109 152 51 60 111 154 52 155 111 154 110 156 52 155 110 156 94 128 77 100 112 157 110 158 77 96 109 159 110 158 112 157 51 160 94 128 111 154 109 152 100 139 108 151 109 152 112 157 113 161 97 133 47 105 84 106 114 162 71 86 115 163 116 164 117 165 118 166 116 164 114 162 117 165 119 167 109 152 113 161 118 166 117 165 51 168 120 169 91 170 88 116 91 123 105 171 93 172 73 173 107 150 105 147 120 174 74 174 91 174 74 93 73 92 105 171 74 93 105 171 91 123 120 169 117 165 74 175 5 176 47 55 97 177 117 165 75 178 74 175 114 162 75 178 117 165 65 79 33 37 63 77 66 179 99 180 36 181 66 182 103 183 99 184 66 182 67 185 103 183 15 186 77 100 17 20 121 187 71 86 60 70 61 71 114 162 70 85 99 184 103 183 96 188 103 189 122 190 96 191 68 82 69 84 123 192 38 44 69 84 24 27 123 192 69 84 101 140 122 190 124 193 6 6 121 187 68 82 123 192 101 140 69 84 38 44 104 146 79 98 102 194 81 101 121 187 123 192 75 94 124 195 73 92 114 162 115 196 75 178 115 196 80 102 75 178 121 187 115 163 71 86 123 192 101 140 33 37 115 196 81 101 80 102 115 163 121 187 81 101 35 39 81 101 33 37 22 25 58 68 56 66 121 187 60 70 68 82 118 197 51 198 107 199 95 129 29 34 98 134 87 124 91 123 93 172 57 67 18 21 22 25 29 34 95 129 25 28 21 24 27 31 24 27 107 200 116 201 118 202 66 179 36 181 40 203 0 204 42 205 1 32 35 206 102 194 80 99 61 71 71 86 114 162 14 207 50 208 11 209 5 5 96 191 6 6 119 210 113 211 76 212 76 212 113 211 83 213 92 214 83 213 113 211 89 121 104 146 102 194 100 215 10 10 9 9 55 216 54 217 30 218 19 219 55 216 30 218 54 217 70 142 67 144 19 219 30 218 32 220 29 136 19 219 32 220 32 220 37 137 29 136 67 144 30 218 54 217 61 71 53 63 60 70 1 32 42 205 9 9 50 221 107 199 51 198 110 156 111 154 94 128 100 215 76 212 10 10 41 47 0 0 3 3 103 189 70 222 122 190 47 55 5 176 48 56 55 223 19 107 57 109 106 149 14 224 85 114 85 114 14 224 16 225 87 113 48 112 4 226 4 226 48 112 5 227 88 116 82 115 94 228 112 157 77 96 78 97 85 114 93 126 106 149 123 192 33 37 81 101 112 157 78 97 92 229 93 126 105 147 106 149 5 176 97 177 96 138 96 138 97 177 29 136 43 49 0 0 41 47 0 204 43 230 42 205 14 231 106 149 50 148 52 155 45 61 51 60 63 77 28 33 64 78 50 208 12 232 11 209 39 45 63 77 101 140 80 99 102 194 79 98 101 140 63 77 33 37 102 194 35 206 34 233 100 139 49 57 108 151 125 234 122 190 116 201 76 212 100 215 119 210 109 152 119 167 100 139 94 228 120 169 88 116 120 169 94 228 51 168 120 169 51 168 117 165 116 201 107 200 125 234 73 173 125 235 107 150 125 235 73 173 122 236 73 173 124 237 122 236 92 229 113 161 112 157 75 94 6 145 124 195 96 191 122 190 6 6 79 98 104 146 75 94 46 238 85 114 16 225 116 164 70 85 114 162 122 190 70 222 116 201</p>
        </triangles>
      </mesh>
    </geometry>
  </library_geometries>
  <library_visual_scenes>
    <visual_scene id="scene">
      <node id="head_link">
        <instance_geometry url="#geometry">
          <bind_material>
            <technique_common>
              <instance_material symbol="scout_333333" target="#scout_333333" />
            </technique_common>
          </bind_material>
        </instance_geometry>
      </node>
    </visual_scene>
  </library_visual_scenes>
  <scene>
    <instance_visual_scene url="#scene" />
  </scene>
</COLLADA>