<?xml version='1.0' encoding='utf-8'?>
<COLLADA xmlns="http://www.collada.org/2005/11/COLLADASchema" version="1.4.1">
  <asset>
    <created>2026-09-14T00:00:00Z</created>
    <modified>2026-09-14T00:00:00Z</modified>
    <unit name="metre" meter="1" />
    <up_axis>Z_UP</up_axis>
  </asset>
  <library_effects>
    <effect id="scout_b2b2b2_effect">
      <profile_COMMON>
        <technique sid="common">
          <lambert>
            <emission>
              <color>0 0 0 1</color>
            </emission>
            <ambient>
              <color>0.35 0.35 0.35 1</color>
            </ambient>
            <diffuse>
              <color>0.7 0.7 0.7 1</color>
            </diffuse>
          </lambert>
        </technique>
      </profile_COMMON>
    </effect>
  </library_effects>
  <library_materials>
    <material id="scout_b2b2b2" name="scout_b2b2b2">
      <instance_effect url="#scout_b2b2b2_effect" />
    </material>
  </library_materials>
  <library_geometries>
    <geometry id="geometry" name="left_elbow_link">
      <mesh>
        <source id="positions">
          <float_array id="positions_array" count="120">-0.0123695629 0.023759244 -0.0273646787 -0.00991584826 0.0321391448 -0.015436817 0.0219047796 0.0255799629 -0.0385646857 0.0469120853 0.0182381812 -0.0419733413 0.0414571539 0.0200530495 -0.0287809446 0.0676016659 0.000102543912 -0.0468293168 0.0481055193 -0.0278654937 -0.0274358783 0.0482826009 -0.00606615748 -0.0429579169 0.0690452233 -0.0320017636 -0.0140480241 0.0708118305 -0.0222507305 -0.0308229513 0.0722565502 -0.0264684707 0.000470728322 0.0984332114 -0.0277444907 -0.00426767813 0.0692505687 -0.0234655812 0.012146201 0.0720438436 -0.00548338983 -0.0395434126 0.0719087869 -0.00906241313 0.0183935463 0.0451832563 0.0212721918 0.0194486491 0.0421407111 0.0202605017 0.00948830042 -0.0295334291 0.0245846529 -0.0103257252 0.068817392 0.0290962402 -0.0332447588 -0.0275636967 0.0245481133 0.0132013308 -0.00759916799 0.0341098309 0.0126249352 0.0719356388 0.0181213357 -0.0350607932 -0.0126561187 0.0237048399 0.0272246264 0.0723978281 0.0330417193 -0.00702394126 0.0681175441 0.0348619483 -0.0171237998 0.0686744303 0.0314350501 0.00966480281 0.0980710536 0.0093631167 -0.0383414067 0.0394328609 0.0313022174 0.00985063985 0.0165070184 0.0245343577 0.0270634498 0.0714126378 0.0126273064 0.0193682518 0.0480139405 -0.0281351209 0.00425208313 0.0980055556 0.0224607605 0.0135982828 0.0447385535 -0.0110864071 0.0123271281 0.0447059348 -0.00813962054 -0.0341886021 0.0482002497 -0.00791916251 0.0216363687 0.0981139317 -0.0186099485 -0.0325937904 0.0982140154 -0.0122237271 0.0165090337 0.0978922844 0.0294904336 -0.0231660139 0.0209231023 0.0223419834 -0.0178666357 0.0195627883 0.0213103611 0.0184159745</float_array>
          <technique_common>
            <accessor source="#positions_array" count="40" stride="3">
              <param name="X" type="float" />
              <param name="Y" type="float" />
              <param name="Z" type="float" />
            </accessor>
          </technique_common>
        </source>
        <source id="normals">
          <float_array id="normals_array" count="264">-0.299939036 0.808506608 -0.506313801 -0.24599798 0.929857552 -0.273587227 -0.063810654 0.932479501 -0.355542034 -0.277999401 -0.960493565 0.0129790138 -0.279592633 -0.959977686 0.0164542086 -0.277944297 -0.960511148 0.0128589403 0.0219792854 -0.57998842 -0.814328134 -0.0165869277 -0.859505475 -0.510857344 0.0220161714 -0.580005467 -0.814315021 0.0134647209 -0.997604549 -0.0678518713 0.0731263235 -0.715095341 -0.695191503 -0.205019474 0.0280725379 -0.978355229 0.0348605402 0.431652218 -0.901366234 0.495172828 0.124607034 -0.85981214 0.943422914 -0.320058942 -0.0866918638 -0.0717337653 -0.988919079 -0.129974157 0.0240931362 -0.973712623 -0.22650221 0.00940204691 -0.977235258 -0.211950064 0.239151508 -0.923748255 0.299158335 0.0391222499 -0.747945487 0.662606239 0.727646232 -0.252981782 -0.637597919 0.614410639 -0.399113059 -0.680594087 0.902046144 -0.300768554 0.309598148 -0.946422756 -0.117013164 0.300984949 -0.837116957 -0.456080616 0.302035898 -0.935471892 -0.264193594 0.234721258 -0.411043316 0.902017593 -0.131938055 -0.27670002 -0.96090275 0.0101513816 0.0517675392 0.560175538 -0.826754808 0.698089778 0.440777689 -0.564256787 -0.419804722 0.887883484 0.188220501 -0.17456463 0.950740635 0.256162912 0.773959517 0.286059499 -0.564939439 -0.196010545 0.829370141 0.523187399 0.85053879 0.490416974 -0.189934 0.740047157 0.642817199 -0.197778329 0.0139356051 0.991856933 0.126592174 0.127712771 0.984124899 0.123237967 0.00108942902 0.995394468 -0.0958575606 0.0318978652 -0.170052722 -0.984918594 -0.0545856282 0.568167627 -0.821100414 0.082310386 0.23247987 -0.969112039 0.0911284462 0.90191853 0.422183096 0.0880588144 0.853525937 0.513555348 0.10943573 0.544523835 0.831575394 0.110339269 0.545061827 0.831103384 0.11969205 0.133345217 0.983815491 0.937609255 0.257208049 0.233950585 -0.0746102259 -0.906428993 0.415715963 -0.159564167 0.783727705 0.60025847 -0.984828055 -0.0751341358 -0.156424299 -0.949095786 -0.202002674 0.241686061 -0.955604434 -0.167263567 -0.242575929 -0.917613387 -0.132736459 0.374655485 -0.975153506 -0.214169279 0.0566320792 -0.978055775 -0.19585076 -0.0710592791 -0.92463845 -0.0345987231 -0.379271239 -0.909467995 -0.117698997 -0.398766726 0.106285758 -0.945995688 -0.306260467 0.100247286 -0.302699178 -0.947799385 0.0240826141 -0.256451309 0.966257095 -0.0363459401 -0.717251182 0.695866108 0.0154306274 -0.759856284 0.649907887 0.018576473 -0.762285709 0.646974087 0.101203561 -0.162806049 0.981454015 -0.170383632 0.871032715 -0.460729271 -0.0405148305 0.764988005 -0.642768979 0.132636294 0.029056944 0.99073875 0.999959588 0.00873607956 -0.00212910119 0.999780893 0.0203989111 -0.00469086086 0.999982953 0.00517258793 -0.00271095429 -0.0335965417 -0.998945355 -0.0312956534 0.0583081283 -0.993246078 -0.100311175 -0.055315271 -0.998457015 -0.00488322554 -0.0179664679 -0.988683403 0.148937523 -0.0584745258 -0.997086406 0.0489842519 -0.0597096533 -0.998209834 0.00344870449 0.0489182547 -0.987152398 -0.152108878 0.0210033227 -0.999090374 0.0371124372 0.0136448247 -0.935322404 0.353533268 -0.0321960412 0.940657556 -0.33782661 0.069216609 -0.798870206 0.597507715 0.999971151 0.00759239262 -0.000126215396 0.999980986 0.00584520027 -0.00196327642 0.999986291 0.00521135237 -0.00055536232 0.00402567675 -0.461641997 -0.887057185 0.247337699 0.95182848 0.181236222 0.18178241 0.0833183601 0.979802608</float_array>
          <technique_common>
            <accessor source="#normals_array" count="88" stride="3">
              <param name="X" type="float" />
              <param name="Y" type="float" />
              <param name="Z" type="float" />
            </accessor>
          </technique_common>
        </source>
        <vertices id="vertices">
          <input semantic="POSITION" source="#positions" />
        </vertices>
        <triangles material="scout_b2b2b2" count="76">
          <input semantic="VERTEX" source="#vertices" offset="0" />
          <input semantic="NORMAL" source="#normals" offset="1" />
          <p>0 0 1 1 2 2 2 3 3 4 4 5 5 6 6 7 7 8 8 9 6 7 9 10 7 11 3 12 5 13 9 14 10 14 8 14 10 15 9 16 11 17 10 18 12 19 8 9 5 13 13 20 9 21 10 22 14 22 12 22 15 23 2 24 16 25 6 7 5 6 9 10 0 0 17 26 1 1 16 27 2 3 4 5 2 28 18 29 3 12 17 26 19 30 20 31 3 12 18 29 5 13 5 13 21 32 13 20 18 29 21 32 5 13 22 33 20 31 19 30 18 29 23 34 21 32 18 29 24 35 23 34 25 36 23 37 24 38 13 39 21 40 26 41 27 42 24 38 20 31 28 43 15 44 27 42 25 45 15 44 29 46 23 47 25 47 29 47 2 2 1 1 24 38 8 9 30 48 6 7 1 1 17 26 20 31 29 49 31 49 23 49 16 25 4 50 32 51 4 50 33 52 32 51 16 25 32 51 34 53 15 23 16 25 34 53 30 54 34 53 32 51 30 54 32 51 6 55 32 51 33 52 6 55 3 56 7 57 33 52 33 52 7 57 6 55 9 16 35 58 11 17 25 36 24 38 27 42 33 52 4 50 3 56 20 31 24 38 1 1 13 39 26 41 35 59 34 60 30 48 12 19 14 61 10 62 36 63 14 64 34 60 12 19 23 65 37 66 21 40 14 64 36 67 29 46 12 19 30 48 8 9 36 68 11 69 35 70 0 71 38 72 17 73 38 72 39 74 17 73 17 73 39 74 22 75 17 73 22 75 19 76 2 77 15 78 38 72 2 77 38 72 0 71 39 74 28 79 22 75 39 74 15 78 28 79 38 72 15 78 39 74 24 38 18 80 2 2 36 63 10 62 11 81 26 41 21 40 37 66 37 82 31 83 36 68 37 82 36 68 26 84 26 84 36 68 35 70 20 31 22 33 28 43 27 42 20 31 28 43 35 59 9 85 13 39 29 46 15 44 34 60 34 60 14 64 29 46 23 86 31 86 37 86 25 45 27 42 15 44 31 87 29 46 36 67</p>
        </triangles>
      </mesh>
    </geometry>
  </library_geometries>
  <library_visual_scenes>
    <visual_scene id="scene">
      <node id="left_elbow_link">
        <instance_geometry url="#geometry">
          <bind_material>
            <technique_common>
              <instance_material symbol="scout_b2b2b2" target="#scout_b2b2b2" />
            </technique_common>
          </bind_material>
        </instance_geometry>
      </node>
    </visual_scene>
  </library_visual_scenes>
  <scene>
    <instance_visual_scene url="#scene" />
  </scene>
</COLLADA>