<?xml version='1.0' encoding='utf-8'?>
<COLLADA xmlns="http://www.collada.org/2005/11/COLLADASchema" version="1.4.1">
  <asset>
    <created>2026-09-14T00:00:00Z</created>
    <modified>2026-09-14T00:00:00Z</modified>
    <unit name="metre" meter="1" />
    <up_axis>Z_UP</up_axis>
  </asset>
  <library_effects>
    <effect id="scout_b2b2b2_effect">
      <profile_COMMON>
        <technique sid="common">
          <lambert>
            <emission>
              <color>0 0 0 1</color>
            </emission>
            <ambient>
              <color>0.35 0.35 0.35 1</color>
            </ambient>
            <diffuse>
              <color>0.7 0.7 0.7 1</color>
            </diffuse>
          </lambert>
        </technique>
      </profile_COMMON>
    </effect>
  </library_effects>
  <library_materials>
    <material id="scout_b2b2b2" name="scout_b2b2b2">
      <instance_effect url="#scout_b2b2b2_effect" />
    </material>
  </library_materials>
  <library_geometries>
    <geometry id="geometry" name="left_hand_middle_0_link">
      <mesh>
        <source id="positions">
          <float_array id="positions_array" count="72">0.0207397323 -0.0141631477 -0.00898139924 0.0197131522 -0.00783742778 0.0112287775 0.0154916877 0.0065718703 0.00894357171 0.0206452738 -0.0141296927 0.0100475773 0.0529330373 -0.00648676697 0.00940613449 0.044286821 -0.00963251851 0.0101001039 0.0527213924 -0.00673454814 -0.00944252312 -0.00440994278 -0.00463268673 -0.0110723898 0.0190061443 -0.00690001342 -0.0126119638 0.0429804921 -0.0138901174 -0.0087676635 0.0419902839 -0.014544907 0.00976962689 0.0548101142 0.0100936312 -0.0119608203 0.0163092688 0.0074980394 -0.0112775238 0.0186821017 0.00909073465 0.01184953 -0.0054689995 0.00528347818 0.0129036522 -0.00477861986 0.00569262775 0.00958601851 -0.00568878371 -0.00567703368 0.0111722099 0.0379373133 -0.00730014453 -0.0109126847 0.0393098816 0.0066389991 -0.011014821 -0.0045117694 0.00463254657 -0.011294323 0.00454391493 -0.00650766864 0.0108938804 0.0553164482 0.00838404801 0.0127054797 0.038772963 -0.00862288848 0.0109240077 0.0411646999 0.00621420797 0.0113204848</float_array>
          <technique_common>
            <accessor source="#positions_array" count="24" stride="3">
              <param name="X" type="float" />
              <param name="Y" type="float" />
              <param name="Z" type="float" />
            </accessor>
          </technique_common>
        </source>
        <source id="normals">
          <float_array id="normals_array" count="180">-0.975749433 -0.218582466 -0.0116079273 -0.973891973 -0.226013184 0.0212723594 -0.970871806 -0.239490941 -0.00721491873 -0.989320457 -0.14568232 -0.00465479773 0.342493922 -0.939481556 0.00850448851 0.679949224 -0.731657684 0.0484366901 0.526549935 -0.843990624 0.102103099 -0.0322782174 -0.0585358217 -0.997763336 -0.0164719447 -0.203258157 -0.978986621 0.000585598347 -0.427697271 -0.903921843 0.655010343 -0.74556011 0.122888766 0.012792849 -0.163181111 0.986513197 0.0295947008 -0.167089447 0.985497475 0.011576321 -0.0725045428 0.997300923 -0.0132714882 0.999670565 0.0219691917 -0.0682240129 0.995768011 -0.0615760647 -0.0376632884 0.999176979 -0.0150618935 -0.977513433 -0.205120891 -0.0489178784 -0.978993654 0.0508232489 -0.197454959 0.0704834834 -0.259563714 -0.963150442 0.071603775 -0.162506476 -0.984105945 -0.015902387 0.0618456081 -0.997959018 -0.0248530675 -0.158764735 -0.987003565 0.024250716 -0.142505243 -0.989496946 0.00409600232 -0.0239012744 -0.999705911 0.0518513434 -0.124186255 -0.990903258 -0.0194271989 -0.999809921 0.00166144036 -0.00483589387 -0.999877632 -0.0148763787 -0.00179814536 -0.999830604 -0.0183181241 -0.00749755977 -0.141334772 -0.989933491 0.00828979351 -0.154259995 -0.987995505 -0.0186372735 -0.137208208 -0.990366876 -0.0310906917 -0.129994422 -0.991027176 -0.037897408 -0.135096982 -0.990107358 0.012600542 -0.999320924 -0.0346258879 -0.625471771 0.780176878 0.0104446346 -0.0394381508 0.99267292 0.114214942 -0.153694794 0.823935866 -0.545442522 0.904529274 -0.425109237 0.0333014056 0.0176347662 0.997476578 0.068771638 -0.0741496906 0.0230660699 0.996980309 -0.0312683135 0.080587402 0.996256948 -0.0470319092 0.0595153607 0.997118831 -0.0148936128 0.102386683 0.994633198 -0.0165798385 -0.684953272 0.728398383 0.0306503177 -0.196599111 0.980004787 -0.00383960898 -0.0368784629 0.999312401 0.0652563274 -0.0464257449 0.996787965 0.0140180336 -0.0682343617 0.997570813 0.0242848564 -0.10377463 0.994304299 -0.00211358792 -0.229141995 0.973390698 0.0141753228 -0.156297654 0.987608254 0.0420989208 -0.133030087 0.990217507 -0.0595276952 -0.231542215 0.971001863 0.124300599 -0.124480106 0.984405458 0.0374668054 -0.123668678 0.991616011 0.987669408 -0.156293094 -0.00903558452 0.990259349 -0.137454242 -0.0221989919 0.989595473 -0.142676011 -0.0185566805 0.991419077 -0.127422735 -0.0291826762</float_array>
          <technique_common>
            <accessor source="#normals_array" count="60" stride="3">
              <param name="X" type="float" />
              <param name="Y" type="float" />
              <param name="Z" type="float" />
            </accessor>
          </technique_common>
        </source>
        <vertices id="vertices">
          <input semantic="POSITION" source="#positions" />
        </vertices>
        <triangles material="scout_b2b2b2" count="44">
          <input semantic="VERTEX" source="#vertices" offset="0" />
          <input semantic="NORMAL" source="#normals" offset="1" />
          <p>0 0 1 1 2 2 1 1 0 0 3 3 4 4 5 5 6 6 7 7 8 8 0 9 6 6 5 5 9 10 5 11 3 12 10 13 11 14 12 15 13 16 2 2 12 17 0 0 14 18 15 18 16 18 9 19 0 9 17 20 8 8 17 20 0 9 12 21 11 22 18 23 19 24 12 21 7 7 12 21 8 8 7 7 12 21 18 23 8 8 18 23 17 20 8 8 18 23 11 22 6 25 6 25 9 19 17 20 18 23 6 25 17 20 3 26 0 27 10 28 2 29 1 30 20 31 2 29 20 31 15 32 20 31 16 33 15 32 9 34 10 28 0 27 13 35 12 35 2 35 15 36 14 36 2 36 14 37 13 37 2 37 10 38 9 10 5 5 21 39 11 14 13 16 7 40 0 41 19 42 0 41 12 43 19 42 22 44 1 45 5 11 1 45 3 12 5 11 1 46 22 47 13 48 20 49 1 46 13 48 22 47 23 50 13 48 16 51 20 49 14 52 13 48 14 52 20 49 13 48 23 50 21 53 5 54 4 55 22 47 4 55 23 50 22 47 4 55 21 53 23 50 4 56 6 57 21 58 6 57 11 59 21 58</p>
        </triangles>
      </mesh>
    </geometry>
  </library_geometries>
  <library_visual_scenes>
    <visual_scene id="scene">
      <node id="left_hand_middle_0_link">
        <instance_geometry url="#geometry">
          <bind_material>
            <technique_common>
              <instance_material symbol="scout_b2b2b2" target="#scout_b2b2b2" />
            </technique_common>
          </bind_material>
        </instance_geometry>
      </node>
    </visual_scene>
  </library_visual_scenes>
  <scene>
    <instance_visual_scene url="#scene" />
  </scene>
</COLLADA>