<?xml version='1.0' encoding='utf-8'?>
<COLLADA xmlns="http://www.collada.org/2005/11/COLLADASchema" version="1.4.1">
  <asset>
    <created>2026-09-14T00:00:00Z</created>
    <modified>2026-09-14T00:00:00Z</modified>
    <unit name="metre" meter="1" />
    <up_axis>Z_UP</up_axis>
  </asset>
  <library_effects>
    <effect id="scout_333333_effect">
      <profile_COMMON>
        <technique sid="common">
          <lambert>
            <emission>
              <color>0 0 0 1</color>
            </emission>
            <ambient>
              <color>0.1 0.1 0.1 1</color>
            </ambient>
            <diffuse>
              <color>0.2 0.2 0.2 1</color>
            </diffuse>
          </lambert>
        </technique>
      </profile_COMMON>
    </effect>
  </library_effects>
  <library_materials>
    <material id="scout_333333" name="scout_333333">
      <instance_effect url="#scout_333333_effect" />
    </material>
  </library_materials>
  <library_geometries>
    <geometry id="geometry" name="left_hip_pitch_link">
      <mesh>
        <source id="positions">
          <float_array id="positions_array" count="144">-0.0413330793 0.032259021 0.00145864231 -0.0340116881 0.0117253549 -0.0441146605 -0.029321976 0.0120593598 -0.0124773746 -0.0184055492 0.016033832 -0.0596216917 -0.0272771791 0.0262240637 -0.0717534497 -0.0144527275 0.0116300909 -0.0273622312 -0.00872148853 0.0124259666 -0.0525899455 -0.00921182893 0.00269972393 -0.034732189 -0.00518124783 0.0977378935 -0.0488741361 -0.00799951237 0.0910887346 -0.0539955758 -0.0133432448 0.0939351842 -0.0130614555 -0.0050187232 0.0370343924 -0.0744213536 -0.00503896503 0.00639952254 -0.0584851056 1.11622439e-05 0.0365990661 -0.0791182294 -0.000976405572 0.0779947862 -0.0753137544 -0.00463112071 0.0685153827 -0.0736155435 -0.0184167959 0.0728041306 0.00624846481 -0.0391839594 0.0889700353 -0.012821747 -0.042287413 0.0570342988 0.00596101629 -0.0190847553 0.00536201382 0.029446682 -0.0166016761 0.0723132044 0.0125073101 -0.0211782027 0.0114546819 0.0220676735 0.0255809668 0.0862529129 0.00980388746 0.0173789505 0.000739122159 -0.00138659857 0.0209717955 0.00317198457 -0.0307985824 0.031275928 0.00543380436 -0.0253288243 -0.0308003984 -0.000440008997 -0.00579455309 0.0220132526 0.0491416007 0.0277164839 -0.00716261752 0.00703592924 0.0144162895 0.0106196702 0.0099370908 0.0123876818 -0.0256351456 0.0551610552 -0.0806118548 0.0393182896 0.0281794686 -0.0688231364 0.0357413366 0.0061044516 -0.0512625501 -0.0192834157 0.0432979986 0.010924276 -0.0154438233 0.0127383647 -0.00880969036 -0.0293450914 0.0904940963 -0.0585007593 0.0395314544 0.0577153675 -0.073793143 0.0375030413 0.0860339552 -0.0612569302 0.00602351921 0.00779330544 -0.0156295132 0.0275349915 0.0592743419 0.00744215772 0.0216941182 0.00193550496 0.0350805447 0.0324470401 0.099833183 -0.032762561 0.0318816043 0.0381263979 -0.0328797139 0.0320154987 0.0490206182 -0.0409594774 0.0300440006 0.0679894537 -0.0289690699 0.0285769273 0.0573386326 -0.00936066825 0.0280748606 0.0402533822 -0.0149776684 -0.0158807952 0.00764973881 -0.00463810656</float_array>
          <technique_common>
            <accessor source="#positions_array" count="48" stride="3">
              <param name="X" type="float" />
              <param name="Y" type="float" />
              <param name="Z" type="float" />
            </accessor>
          </technique_common>
        </source>
        <source id="normals">
          <float_array id="normals_array" count="333">-0.811900556 -0.569954813 0.126368254 0.0141125461 -0.851677358 -0.523876429 0.00567604508 -0.982473671 -0.18631497 0.0536638685 -0.61190778 -0.789106488 -0.842900932 -0.125965476 -0.52311635 -0.916003883 -0.287363619 -0.279926807 -0.906904578 -0.252477735 -0.337311596 -0.405835301 0.866574049 -0.290425658 -0.655258954 0.594300568 -0.466307282 -0.865293205 0.479441851 -0.146298289 -0.696986318 -0.166503713 -0.697485864 -0.90256691 -0.268222213 -0.336793393 0.26288256 -0.662129402 -0.701767325 0.187343985 -0.344120622 -0.920045257 -0.682793438 -0.127655849 -0.719372749 -0.554822385 0.0366459303 -0.83116138 -0.480766952 0.0283520073 -0.876389921 -0.317221493 0.485055715 -0.814918101 -0.861701548 0.25347513 -0.439568907 -0.21896185 0.462483883 0.859164894 -0.224872634 0.608690917 0.76087296 -0.26337117 0.161576256 0.95106715 -0.938649595 0.0829128847 0.334757149 -0.932344556 0.214998767 0.290704519 -0.969676197 0.0820627734 0.230203763 -0.901549637 0.333485693 0.275672942 -0.843126416 0.458757907 0.28049776 -0.0875617117 0.759596288 0.644473732 -0.108495049 0.923742354 0.367326677 -0.186125696 0.520411134 0.833384335 0.161561221 -0.98683399 0.00752755534 0.0526948757 -0.998272538 -0.0259841755 0.236340716 -0.971449912 -0.0206926242 -0.729976714 -0.186335087 -0.657581389 -0.15636678 0.290569812 0.943990767 -0.168080181 0.195965931 0.966098547 -0.194911182 0.768819928 -0.609036565 0.1942036 -0.111944951 -0.97455287 0.106585957 -0.595147192 -0.796516955 0.16247575 -0.426974058 -0.889547527 0.130998626 -0.630091906 -0.765391111 -0.174186602 -0.207103834 0.962687373 -0.0569900237 0.997896373 0.0309022367 -0.683244765 -0.279787481 -0.674459457 -0.986793637 0.00203702319 -0.161969826 -0.983133078 -0.00547339255 -0.1828098 -0.980208516 0.00404578913 -0.197926417 -0.981409967 -0.0020780263 -0.191911906 -0.97737819 0.0285211839 -0.209567264 -0.981301367 0.0150719034 -0.191886559 -0.982479215 -0.00911185239 -0.186149344 -0.977367282 0.0831998289 -0.194501847 -0.981864333 0.00992321409 -0.189324886 0.189914688 0.11651843 -0.974861979 0.122304894 -0.267068028 -0.955885053 0.162098661 0.706320524 -0.68908298 -0.190581769 -0.978103995 0.08361312 -0.590505362 -0.803751409 0.0727122352 -0.661064684 -0.732083023 0.164462641 0.00667200657 0.571711242 -0.820427775 0.0614539571 0.611563683 -0.788804948 0.137208372 0.66138649 -0.737388432 -0.286167651 -0.953449428 -0.0950906947 -0.0134042986 -0.998701572 -0.0491476543 -0.948261321 0.210631177 0.237560511 -0.190677702 -0.425803632 0.884496093 -0.130310699 -0.591416955 0.795767009 0.99044776 -0.0146361105 0.137109593 0.981515825 0.0175781436 0.190571934 0.982955694 -0.0116936117 0.183470488 0.98808825 0.00882493146 0.153635085 0.979845941 0.049116198 0.193622053 0.959024012 0.0389135517 0.280639797 0.986032903 0.0198067501 0.165368602 0.981326759 0.0146972621 0.191785648 0.985293269 -0.0252139997 0.169001132 0.981485367 0.017665185 0.190720752 0.977098763 0.00954278372 0.212572277 -0.0759935752 -0.996931434 -0.0187816322 0.00907891057 -0.997123003 -0.0752550662 0.0984404534 -0.994870722 0.0232747383 0.0353722982 0.997471511 -0.0616389923 0.304123104 0.0206341203 -0.952409267 -0.125057489 0.685480177 0.717270851 0.980363667 0.0446435101 0.192078114 0.977586746 0.079766959 0.194836676 0.976517856 -0.0276095066 0.213659957 0.98695308 -0.00990893506 0.160702869 0.0881816074 -0.878066003 -0.470344663 0.994625807 -0.0758983269 0.0704198331 0.239867583 0.296829879 -0.924313545 0.98598665 0.0122333076 0.166375026 0.0961739942 -0.990145147 -0.101799294 0.248863578 -0.968476593 -0.0109553216 0.477457345 -0.878542006 -0.0140857203 0.32654658 -0.693968952 0.641696572 0.235569447 -0.969291568 0.0705756173 -0.170422286 -0.626218081 0.760793746 0.0725878701 -0.993297577 -0.0899493992 0.0270088352 -0.98967737 -0.140745044 -0.945563614 0.233203501 0.226992533 -0.0159330405 -0.999789596 0.0129169142 -0.0515585728 0.525879502 -0.84899497 0.0904085711 -0.995880663 -0.00692711119 0.0413949825 -0.996724427 0.0694754124 -0.140931383 0.989695549 -0.0253189951 -0.0127942786 0.997392356 -0.0710264817 -0.0753286108 0.995959222 -0.0488959402 -0.188757524 0.981992006 -0.00789320935 -0.122537427 0.153781012 0.980477452 0.997711957 -0.0456990004 0.0498246551</float_array>
          <technique_common>
            <accessor source="#normals_array" count="111" stride="3">
              <param name="X" type="float" />
              <param name="Y" type="float" />
              <param name="Z" type="float" />
            </accessor>
          </technique_common>
        </source>
        <vertices id="vertices">
          <input semantic="POSITION" source="#positions" />
        </vertices>
        <triangles material="scout_333333" count="92">
          <input semantic="VERTEX" source="#vertices" offset="0" />
          <input semantic="NORMAL" source="#normals" offset="1" />
          <p>0 0 1 0 2 0 3 1 1 2 4 3 5 4 6 5 7 6 8 7 9 8 10 9 6 5 11 10 12 11 6 12 3 1 11 13 11 10 13 14 12 11 14 15 13 14 11 10 15 16 14 15 11 10 9 8 14 17 15 18 8 7 14 17 9 8 16 19 17 20 18 21 19 22 20 23 21 24 20 23 16 25 21 24 10 26 16 25 20 23 22 27 10 28 20 29 23 30 24 31 25 32 5 4 7 6 26 33 27 34 20 29 19 35 28 36 29 36 23 36 11 13 4 3 30 37 12 38 31 39 32 40 18 21 33 41 16 19 2 42 21 42 34 42 2 43 5 4 26 33 33 44 34 45 21 24 16 25 33 44 21 24 30 46 17 47 35 48 17 47 30 46 4 49 17 47 4 49 18 50 4 49 1 51 0 52 4 49 0 52 18 50 14 17 36 53 13 54 37 55 14 17 8 7 38 56 23 57 29 58 15 59 35 60 9 61 13 54 36 53 31 39 3 1 6 62 5 63 1 2 3 1 5 63 26 64 19 22 21 24 33 41 0 65 34 66 25 67 39 68 40 69 39 68 37 70 22 71 40 69 39 68 27 72 37 70 41 73 22 71 27 72 39 68 22 71 25 74 32 75 31 76 36 77 25 74 31 76 25 32 40 78 23 30 40 78 28 79 23 30 7 80 24 31 38 56 38 56 24 31 23 57 12 11 7 6 6 5 13 54 31 39 12 38 11 13 3 1 4 3 10 28 41 81 8 7 11 13 30 37 15 82 41 81 10 28 22 27 16 19 10 83 17 20 42 84 25 74 36 77 43 85 42 84 36 77 43 85 36 77 37 86 43 85 37 86 44 87 45 88 44 88 37 88 45 89 37 70 39 68 46 90 45 90 25 90 45 89 39 68 25 67 25 74 42 84 46 91 19 92 28 79 40 78 47 93 28 79 19 92 47 93 19 92 26 94 38 95 47 95 26 95 7 80 38 56 26 96 33 41 18 21 0 65 37 55 36 53 14 17 2 97 34 66 0 65 25 32 24 31 32 98 32 98 24 31 12 99 12 99 24 31 7 80 26 64 21 24 2 100 5 63 2 101 1 2 8 7 41 81 37 55 30 102 35 60 15 59 28 79 47 93 29 103 47 93 38 104 29 103 10 105 9 106 35 107 10 105 35 107 17 108 40 109 27 34 19 35 27 34 22 27 20 29 43 85 44 87 42 84 42 84 44 87 46 91 45 110 46 91 44 87</p>
        </triangles>
      </mesh>
    </geometry>
  </library_geometries>
  <library_visual_scenes>
    <visual_scene id="scene">
      <node id="left_hip_pitch_link">
        <instance_geometry url="#geometry">
          <bind_material>
            <technique_common>
              <instance_material symbol="scout_333333" target="#scout_333333" />
            </technique_common>
          </bind_material>
        </instance_geometry>
      </node>
    </visual_scene>
  </library_visual_scenes>
  <scene>
    <instance_visual_scene url="#scene" />
  </scene>
</COLLADA>