<?xml version='1.0' encoding='utf-8'?>
<COLLADA xmlns="http://www.collada.org/2005/11/COLLADASchema" version="1.4.1">
  <asset>
    <created>2026-09-14T00:00:00Z</created>
    <modified>2026-09-14T00:00:00Z</modified>
    <unit name="metre" meter="1" />
    <up_axis>Z_UP</up_axis>
  </asset>
  <library_effects>
    <effect id="scout_b2b2b2_effect">
      <profile_COMMON>
        <technique sid="common">
          <lambert>
            <emission>
              <color>0 0 0 1</color>
            </emission>
            <ambient>
              <color>0.35 0.35 0.35 1</color>
            </ambient>
            <diffuse>
              <color>0.7 0.7 0.7 1</color>
            </diffuse>
          </lambert>
        </technique>
      </profile_COMMON>
    </effect>
  </library_effects>
  <library_materials>
    <material id="scout_b2b2b2" name="scout_b2b2b2">
      <instance_effect url="#scout_b2b2b2_effect" />
    </material>
  </library_materials>
  <library_geometries>
    <geometry id="geometry" name="left_shoulder_yaw_link">
      <mesh>
        <source id="positions">
          <float_array id="positions_array" count="153">-0.0267926976 -0.0176679548 -0.074967213 -0.0311372802 0.000133060923 -0.0806290507 -0.0124315564 -0.0284294449 -0.0989035666 -0.0121081313 -0.0272383988 -0.0632304698 -0.0107186437 -0.0411897339 -0.0936309695 -0.00769027183 -0.0398653522 -0.0628363937 -0.00480445568 0.0216051172 -0.0611969642 -0.0210295338 0.02114648 -0.0875201225 -0.0243436266 0.0171707477 -0.0433557257 -0.0298772026 -0.013951459 -0.0242183823 -0.0204872359 -0.0264349505 -0.0157478526 0.0100271804 -0.0294678826 -0.113740467 0.00734102866 -0.0376096666 -0.104045667 0.0210194401 -0.0272425096 0.0296830386 -0.0195945725 -0.0181522537 0.0313499868 -0.0135429054 -0.0307088681 0.030596083 -0.0330141187 -0.00697408663 0.0313968286 -0.0187076181 0.0181043427 -0.000141439057 -0.0177235492 -0.0177063476 0.000424080208 -0.00308394968 -0.0320814848 -0.00362603646 0.00931410119 -0.02417643 -0.0343776532 -0.0303430744 0.017074516 0.0305362027 -0.011805363 0.00148577138 -0.108424343 -0.0176270064 0.0301300548 -0.0067561646 -0.00480825361 0.0233052857 -0.106404036 0.00643241918 0.022828076 -0.043431852 -0.01088461 0.032111764 0.0313573778 -0.000142279809 0.0257668234 0.0313996896 0.0149852931 -0.0206399858 -0.041298382 0.00693411147 -0.0318832509 -0.0524937399 0.033285819 -0.0377971567 -0.103362858 0.0379837453 -0.0292894635 -0.0557787307 0.0194505826 -0.00450382708 -0.0255447831 0.016783664 0.0140964584 -0.0414957702 0.0389819816 -0.0284873992 -0.103284717 0.0303331949 -0.0359120294 -0.0570703819 0.0323679484 -0.00351167214 -0.00242601824 0.0483281575 -0.0320135094 -0.0814448744 0.0166469961 -0.0195857417 9.93577341e-05 0.0186307319 -0.0178557765 0.031360995 0.0167579185 0.0224265959 -0.114355318 0.0377736427 0.0230808649 -0.0562294275 0.0171841457 0.0303896852 0.0311354771 0.0261187591 0.0207933187 -0.00422029244 0.00915454421 0.0308588948 -0.00923648011 0.0311806854 0.0125378696 0.0309127253 0.0423638187 0.0231068376 -0.100468211 0.0238274019 -0.0406524241 -0.0810387135 0.0483222641 0.0223368164 -0.074503392 0.0183441266 0.0172583349 0.000360327598 0.0324301608 -0.00642133085 0.0313794613</float_array>
          <technique_common>
            <accessor source="#positions_array" count="51" stride="3">
              <param name="X" type="float" />
              <param name="Y" type="float" />
              <param name="Z" type="float" />
            </accessor>
          </technique_common>
        </source>
        <source id="normals">
          <float_array id="normals_array" count="354">-0.932529807 -0.294191957 -0.209378302 -0.959595501 0.0499006175 -0.27692318 -0.643392801 -0.294112027 -0.706784129 -0.957345963 -0.276698858 0.0832255483 -0.991730571 -0.1276512 0.0132533917 -0.984833241 -0.170308411 0.0331447758 -0.939567924 -0.325411469 0.106393166 -0.0997522399 0.994463921 0.0330302566 -0.105173022 0.993317902 0.0475197509 -0.172612533 0.978565335 -0.112315848 -0.892340481 -0.449626029 -0.0395589508 -0.562552452 -0.826212406 0.0301293526 -0.588572264 -0.808382213 0.0100420592 -0.595590234 -0.797202289 -0.0986956358 -0.284007728 -0.48035422 -0.829818904 -0.067169413 -0.876700044 -0.476324737 -0.463378072 -0.469377577 -0.75164181 0.0463728011 -0.14628984 0.988154292 -0.0364635363 -0.0705327913 0.996842802 0.0189425368 -0.0508227199 0.998528004 -0.96378088 -0.266085088 0.0180318244 0.991160572 -0.0999854505 -0.0871989056 0.996958673 -0.0635584295 -0.0450965613 0.997748137 0.0283775534 0.0607731193 -0.391332954 -0.918742836 0.0526315905 0.0219715908 -0.994327545 -0.104067191 0.039239414 -0.83690995 -0.545932233 -0.864833415 0.498117268 -0.0627876818 -0.860224783 0.318652213 -0.398088008 -0.882889569 0.469501793 0.00860448182 -0.594758093 0.0350721925 -0.803139329 -0.766304851 0.641425669 -0.0367429182 -0.527168334 0.244408965 -0.813853681 -0.100845918 0.98836571 -0.113856748 -0.611867964 0.78809458 0.0672642291 -0.13429606 -0.941902697 0.307869852 -0.267546684 -0.888301909 0.373280644 -0.454520702 -0.76650244 0.453745514 0.29983303 -0.772328615 0.560007691 0.450345188 -0.77094245 0.450374246 0.292453825 -0.740279913 0.605356395 -0.345007092 -0.690621674 -0.635619223 0.133641884 -0.976062238 -0.17158784 0.133068144 -0.542172074 0.829663992 0.586461723 -0.808277309 -0.0524452068 0.762339711 -0.547641277 0.344858289 0.973448277 -0.0516643561 -0.223000675 0.377868444 -0.0437051766 -0.924827158 0.340802521 -0.0577282161 -0.93836087 0.338779271 -0.199564174 -0.919457853 0.971576393 -0.168334424 -0.166441813 0.126475543 -0.328652442 0.9359442 0.872202992 -0.0677785724 -0.484425485 0.958200634 -0.163066089 -0.235076472 0.870674133 -0.263730884 -0.415177733 0.922852218 -0.116309039 -0.367172986 0.779523611 -0.473508358 -0.410039902 0.376553029 -0.921185613 0.0981067121 0.589717865 -0.742992878 0.316534996 0.233846277 -0.943969846 0.232888192 0.0193018783 0.999538302 -0.023464961 0.0253429599 0.999543309 -0.0164593197 -0.0077284039 0.998469472 -0.0547630712 0.0632551983 -0.159995928 0.985088885 -0.269546956 0.0962858498 -0.958161533 0.36524871 0.592250407 0.718215048 0.350451142 0.578734934 0.736376166 0.405376583 0.627889037 0.664398313 -0.0126063516 0.999865234 -0.0105158817 0.313406825 0.544110477 0.778280139 0.876022279 0.14801088 -0.458996385 0.0606247783 0.996200621 -0.0625217408 0.441172481 0.897220552 -0.0190304685 -0.0522469319 0.988056898 -0.144961342 0.814025879 0.538973868 -0.216492549 0.248586565 0.957729697 -0.144770831 0.9379282 0.346807867 -0.00386933354 -0.513449609 -0.153292865 0.844316781 -0.0218249969 0.999611616 0.0173296947 0.00294365478 0.99999398 0.00184289378 0.143323645 -0.988152444 0.0548913628 0.0134659344 0.99719131 -0.0736756995 0.0547570363 0.998342693 0.017707387 0.749428153 -1.51697368e-05 0.662085712 0.581626058 -0.0254918169 0.813056767 0.54847759 -0.00032201389 0.83616519 0.782770753 -0.0166468546 0.622087419 -0.07611949 0.044102706 0.996122897 -0.0172565486 -0.000720470736 0.99985081 -0.0395832732 0.023419546 0.998941779 0.0164182968 0.0150950411 0.99975127 0.0092757633 0.0223710984 0.999706686 0.0101547046 0.019080203 0.999766409 0.107864015 -0.967525303 0.228604659 0.0373409614 -0.997506976 -0.0598790944 0.0857298002 -0.93701911 0.338593483 0.924644172 -0.0481482819 0.377776235 0.885392606 -0.00873853453 0.464761823 0.546222925 0.804733515 -0.232474729 -0.56391114 -0.825189233 0.0326638706 -0.224575311 -0.974181831 -0.0231460128 0.00903700385 -0.00749886641 0.999931037 -0.0023473897 0.00424476201 0.999988258 -0.0021020514 0.0039916872 0.999989808 -0.0131873023 0.0154262753 0.999794066 0.43100059 -0.0374935791 -0.901572347 0.0868979469 0.996170938 0.00960137602 0.974152625 -0.224898621 -0.0211498775 0.476977229 -0.0722424313 -0.875941634 0.974452257 0.0285575055 -0.222771838 0.962936938 0.0111863092 -0.269494593 -0.0254870467 -0.967875779 0.250133842 -0.686011553 -0.694064379 -0.218317926 -0.898521304 0.0382909775 0.437256575 -0.638035834 0.770003736 -0.00212350953 0.0299199428 0.0190157238 0.999371409 0.0515670255 0.0279739145 0.998277664 0.119065717 -0.145277232 0.982200503</float_array>
          <technique_common>
            <accessor source="#normals_array" count="118" stride="3">
              <param name="X" type="float" />
              <param name="Y" type="float" />
              <param name="Z" type="float" />
            </accessor>
          </technique_common>
        </source>
        <vertices id="vertices">
          <input semantic="POSITION" source="#positions" />
        </vertices>
        <triangles material="scout_b2b2b2" count="98">
          <input semantic="VERTEX" source="#vertices" offset="0" />
          <input semantic="NORMAL" source="#normals" offset="1" />
          <p>0 0 1 1 2 2 3 3 2 4 4 5 5 6 3 3 4 5 6 7 7 8 8 9 9 10 0 11 3 12 9 10 3 12 10 13 11 14 12 15 4 16 2 2 11 14 4 16 13 17 14 18 15 19 16 20 9 10 10 13 17 21 14 22 18 23 15 24 10 13 19 25 10 13 20 26 19 25 8 27 7 28 1 1 8 27 1 1 21 29 7 28 22 30 1 1 23 31 8 27 21 29 7 28 24 32 22 30 8 9 25 33 6 7 16 20 1 1 9 10 21 29 26 34 23 31 17 35 27 36 26 37 28 38 10 39 29 40 20 26 10 13 28 41 12 15 11 14 30 42 28 38 29 40 31 43 13 44 19 25 20 26 28 45 32 45 20 45 32 46 28 46 33 46 11 47 34 48 30 49 17 21 26 50 14 22 29 40 35 51 31 43 32 52 36 53 20 26 36 53 13 44 20 26 34 54 37 55 30 56 37 57 31 58 35 59 38 60 14 61 39 62 39 63 14 18 13 17 24 32 40 64 22 30 33 65 25 66 32 67 25 33 41 68 6 7 41 69 25 66 33 65 25 70 36 53 32 52 26 71 42 72 23 73 43 74 44 75 42 72 22 30 2 2 1 1 43 74 42 72 45 76 3 77 5 77 29 77 24 78 6 7 46 79 6 7 41 68 46 79 37 57 35 59 47 80 30 42 37 57 47 80 12 15 30 42 47 80 36 53 25 70 43 74 43 74 45 76 36 53 22 30 11 14 2 2 24 78 46 79 40 81 6 7 24 78 7 8 38 60 18 82 14 61 41 83 33 84 28 85 31 86 41 83 28 85 8 9 23 73 25 33 10 13 15 24 16 20 25 33 23 73 44 75 1 1 16 20 21 29 21 87 16 88 26 89 42 90 26 91 27 92 16 88 15 19 14 18 11 14 22 30 40 64 5 93 4 94 47 80 29 95 5 93 47 80 35 59 29 95 47 80 4 94 12 15 47 80 26 89 16 88 14 18 31 86 37 96 48 97 43 74 25 98 44 75 3 12 0 11 2 99 3 100 29 100 10 100 38 101 49 102 18 103 49 102 17 104 18 103 19 25 13 44 15 24 11 47 46 105 34 48 46 79 41 68 48 106 50 107 13 44 36 53 11 47 40 108 46 105 48 109 37 55 46 110 1 1 0 0 9 10 37 55 34 54 46 110 17 35 49 111 27 36 23 73 42 72 44 75 49 112 50 112 27 112 50 113 49 113 38 113 38 114 39 114 50 114 50 107 36 53 45 76 27 92 50 115 42 90 42 90 50 115 45 116 13 17 50 117 39 63 31 86 48 97 41 83</p>
        </triangles>
      </mesh>
    </geometry>
  </library_geometries>
  <library_visual_scenes>
    <visual_scene id="scene">
      <node id="left_shoulder_yaw_link">
        <instance_geometry url="#geometry">
          <bind_material>
            <technique_common>
              <instance_material symbol="scout_b2b2b2" target="#scout_b2b2b2" />
            </technique_common>
          </bind_material>
        </instance_geometry>
      </node>
    </visual_scene>
  </library_visual_scenes>
  <scene>
    <instance_visual_scene url="#scene" />
  </scene>
</COLLADA>