<?xml version='1.0' encoding='utf-8'?>
<COLLADA xmlns="http://www.collada.org/2005/11/COLLADASchema" version="1.4.1">
  <asset>
    <created>2026-09-14T00:00:00Z</created>
    <modified>2026-09-14T00:00:00Z</modified>
    <unit name="metre" meter="1" />
    <up_axis>Z_UP</up_axis>
  </asset>
  <library_effects>
    <effect id="scout_b2b2b2_effect">
      <profile_COMMON>
        <technique sid="common">
          <lambert>
            <emission>
              <color>0 0 0 1</color>
            </emission>
            <ambient>
              <color>0.35 0.35 0.35 1</color>
            </ambient>
            <diffuse>
              <color>0.7 0.7 0.7 1</color>
            </diffuse>
          </lambert>
        </technique>
      </profile_COMMON>
    </effect>
  </library_effects>
  <library_materials>
    <material id="scout_b2b2b2" name="scout_b2b2b2">
      <instance_effect url="#scout_b2b2b2_effect" />
    </material>
  </library_materials>
  <library_geometries>
    <geometry id="geometry" name="left_hand_palm_link">
      <mesh>
        <source id="positions">
          <float_array id="positions_array" count="183">0.0352848694 -0.0203160383 -0.0182123408 0.0132867163 -0.0189174842 -0.0161702614 0.00220544427 -0.0179070234 -0.0188268218 0.0336311609 -0.0108116828 -0.0378939994 0.0486509725 -0.0142792203 -0.0406066254 0.0474921651 -0.0185092557 -0.0175579172 0.0707122087 -0.0160837658 -0.0404621251 0.0709578395 -0.0125471037 -0.0438578017 0.0347791463 0.0140310414 -0.0396956913 0.067479074 -0.0183215812 -0.012170176 0.0718700513 -0.00922187045 -0.0129849315 0.0848663896 0.00556881446 -0.0124746868 0.0723532066 -0.014329507 -0.015269462 0.0177961159 -0.0190266706 0.022208536 0.00196900242 -0.0174628459 0.018975446 0.0378312841 -0.0135456054 0.03822238 0.0018248657 -0.00763943978 0.0252132546 0.0350752585 0.000450054591 0.0403786972 0.083779335 0.00973307714 -0.0217780415 0.08735127 -0.0112653449 -0.03021539 0.0796083212 0.010904544 -0.0367580056 0.0271880217 0.0205990728 -0.0236876681 0.00118051609 0.0187064614 -0.00280622463 0.0271840189 0.0207155198 0.0229592081 0.0410321057 -0.0197455082 0.0145140179 0.04732747 -0.018144073 0.0310867764 0.0465449132 -0.0205752682 0.00350810215 0.0710675269 -0.0100364368 0.0434443206 0.0674132109 -0.018196281 0.0346861854 0.00131687673 -0.00878261868 -0.0244721733 0.0723793283 -0.0153359538 0.0394737534 0.0521789528 -0.0108796051 0.0396838896 0.0842959285 0.0135072824 -0.0274750926 0.0822885931 -0.000334676355 0.0113713769 0.0819449574 0.00112192798 -0.0107573094 0.070781149 -0.0155676212 0.0109929517 0.00156648399 0.0139429234 -0.0209431071 0.0289192256 0.0140810851 0.0368308425 0.000647375069 0.0141919367 0.0201317612 0.0693643242 0.014194292 -0.0420707539 0.0734252408 0.0212989431 -0.0260816719 0.051915586 0.0121326754 -0.0399404317 0.0694505721 0.0129680764 -0.0390858911 0.0827884823 0.0110573061 0.0290024113 0.0695426315 0.0190659966 0.0251911581 0.0699588135 0.010611387 0.0381520279 0.0713808611 0.0104396734 -0.0378150456 0.0694173127 0.0191206429 -0.0243493356 0.0799943507 0.0173685402 -0.0251377951 0.0827390105 0.0178590808 -0.00237926422 0.0621987209 0.0145158553 0.0428100154 0.0756593496 0.0201613624 0.0298085213 0.0702539086 0.0105399191 0.0417685248 0.0496040285 0.0114080664 0.0394269861 0.0757150799 0.0165173188 0.0331335291 0.0797235742 0.01068136 0.0370505825 0.0854371712 -0.0103487251 0.0189960822 0.0845304206 0.00846160669 0.0190550182 0.0518012941 -0.0105353529 -0.0397345051 0.0711823851 -0.00821395032 0.0146015445 0.0832306445 0.00969456602 0.0119331628</float_array>
          <technique_common>
            <accessor source="#positions_array" count="61" stride="3">
              <param name="X" type="float" />
              <param name="Y" type="float" />
              <param name="Z" type="float" />
            </accessor>
          </technique_common>
        </source>
        <source id="normals">
          <float_array id="normals_array" count="444">0.00945182703 -0.999741197 -0.0206929427 -0.0728454143 -0.996873617 -0.0306020454 -0.0916024745 -0.995788395 -0.00379931042 -0.347346812 -0.533665419 -0.771071613 -0.30147019 -0.346971482 -0.88810277 -0.278125823 -0.655341446 -0.702263176 0.0297436658 0.156612277 -0.987212181 0.0635168925 -0.99069804 -0.120345339 -0.00659522973 -0.994385421 -0.105613403 -0.0504122339 -0.98186928 -0.18273297 -0.101328492 0.0178376082 -0.9946931 -0.157059446 -0.0452139601 -0.986553609 -0.274444908 0.00693896459 -0.961577773 0.303934515 -0.952582181 -0.0145250494 -0.0516923666 -0.689786375 -0.722165227 -0.365607768 0.350992173 -0.862053037 -0.115868479 -0.956874669 0.266393155 -0.232518628 -0.890258729 0.39163056 -0.196694359 -0.577520669 0.79232645 -0.436073273 -0.206877857 0.875809133 -0.259688497 -0.0310773365 0.965192258 0.936247766 0.255963594 -0.240671441 -0.136039332 0.957603216 -0.253947556 -0.180028394 0.983334303 -0.0253653545 -0.12775062 0.962807357 0.238079458 -0.0104436846 -0.997875035 0.0643146485 -0.0470612012 -0.964078009 0.261416912 0.930428863 -0.366425037 0.00590096507 -0.0193081293 -0.99957484 0.0218477957 -0.0577638671 -0.331060618 0.941839814 -0.0448947288 -0.930862486 0.362600952 -0.424831331 -0.230524793 -0.875429451 -0.0620467812 -0.700125933 0.711318374 0.127518103 0.614734948 -0.778357267 0.893764138 -0.402403831 -0.198133454 0.981731355 -0.187045425 -0.034894038 0.814710617 -0.514689684 -0.267097682 -0.930962503 0.363094449 0.0383573212 -0.801966488 0.57667774 0.155860543 -0.771520019 0.630154431 0.0875343382 -0.487154961 0.139233872 -0.862145007 -0.0923319533 0.905064881 -0.415129274 -0.269869268 0.914426148 -0.301654369 -0.355762273 0.116807826 0.92724818 -0.500624835 0.170542538 0.848698974 0.167457163 0.885156035 -0.434116185 0.263443291 0.935773253 -0.234363034 -0.996632159 -0.081346035 0.0103526199 -0.99992311 -0.0107806576 -0.00612754608 -0.999487519 -0.031379573 -0.00632827636 0.114259146 0.0577777214 0.991769433 0.0887238532 0.0407034457 0.995224237 0.0732941702 0.0303949062 0.996847093 0.990920305 0.0507279821 0.124513321 0.062509425 -0.922543406 -0.38079676 0.334236443 0.794262111 0.507379234 0.128870741 -0.712533295 -0.689701855 -0.800663233 0.0999268815 0.590722442 -0.755980253 0.269919395 0.596353352 -0.821435511 -0.101487711 0.561198652 -0.147521123 -0.972252905 0.18155399 -0.123231277 -0.915867865 0.382099658 -0.433299303 -0.893751442 0.116017513 0.674856544 -0.675535619 -0.297018886 -0.820783436 -0.166417897 0.546460986 0.531241059 0.794891298 -0.293139488 0.47658661 0.753990293 -0.452066183 0.766524255 0.64196682 0.0178666878 0.804964125 0.556285083 0.206348553 -0.894921243 -0.446186006 -0.00582670979 -0.655550361 -0.753220201 -0.0539721139 -0.149519801 0.884578705 0.44177407 -0.255944818 0.935409784 0.243927792 0.0343633667 0.553652942 0.832038224 0.514249802 -0.857636213 -0.00270169671 0.805854082 -0.592006922 -0.011268395 0.398849607 0.867105544 0.298407376 -0.0686713755 0.0624464229 -0.995683014 0.29048273 0.355833948 0.888257861 0.0282364059 -0.830163062 -0.556805134 0.0733548403 0.603306353 0.794128776 0.347122401 -0.780336142 -0.520174563 0.00489072083 -0.999784887 -0.0201556236 -0.0195191521 0.999581575 0.0213460308 -0.660146654 -0.353943437 -0.662518263 0.54754746 0.633390844 0.546816051 0.914465189 -0.0902160481 0.39447999 0.909867346 -0.0987576842 0.402974308 0.966507852 0.045799315 0.252517223 0.798270345 -0.533747911 0.279065579 0.502844751 -0.864373863 -0.00222392776 -0.997446179 -0.0620360486 -0.0353929438 -0.999831676 -0.0166824367 -0.00763572054 -0.999196053 -0.0399161465 0.00373054924 -0.999571979 0.0148894563 -0.0251823366 0.995898902 0.0899776667 0.00945771206 0.996873558 0.0784825087 0.0091432035 0.996528506 0.0817717314 0.0156296529 0.000682009908 0.0270742923 -0.999633193 0.0491165332 -0.00932074804 -0.998749554 0.0166645143 0.0150757981 -0.999747455 -0.0248603374 0.0462267399 -0.998621583 -0.00164554606 0.261830509 0.965112448 0.713066936 -0.153569266 0.68407023 0.0423259512 0.0547650009 0.997601807 0.0757247135 0.0468949862 0.996025443 0.0395247675 0.0384712256 0.998477697 0.0632363111 0.0188074317 0.997821331 0.150496125 -0.0344608575 -0.98800981 0.154353201 -0.0305131692 -0.987544477 0.194760129 0.0111956354 -0.980786979 0.291563064 0.0350902118 -0.955907762 0.536173582 -0.0611899942 -0.841886997 0.460848629 -0.0202286802 -0.887248218 0.41781643 0.0797891542 -0.905021071 0.248596773 -0.967254996 0.0511604771 0.77232486 -0.631482661 0.0688769147 0.543883204 -0.826398909 -0.145794094 0.710996926 -0.703193724 0.0013789637 0.828600883 -0.541195095 0.143277705 0.984552741 0.175066665 0.00274876785 -0.506904304 0.401875943 -0.76259017 -0.0599370711 -0.960395157 -0.272118926 0.0410441495 0.008869485 0.99911797 -0.724088311 0.670105934 0.163261056 -0.841400027 0.539283812 -0.0349136516 0.605792344 0.0638755932 -0.793054581 0.727485359 0.620096147 -0.293676525 0.595485628 0.711968243 -0.372153312 0.551279128 0.735538483 -0.393794984 0.539147973 0.833181024 -0.122999333 0.150530621 -0.98451966 -0.0897861645 0.991739035 -0.0978031382 0.0829956383 -0.0080098249 -0.983469844 -0.180894732 0.825401306 0.5216254 -0.215915933 0.998137772 0.0609504767 -0.00245768018 0.999655306 0.0227133911 0.0131649766 0.997322202 -0.0678305998 0.0273392871 -0.130450666 0.351958334 -0.926880777 0.00678965077 0.252940238 -0.967458069 0.123594038 0.162508771 -0.978935838 0.296924472 0.0173045322 -0.95474416 -0.323967367 -0.94540602 -0.0353918038 0.109169558 -0.0763998553 -0.991082788 -0.517710268 -0.854064584 -0.0504951887 0.847921908 -0.193382263 0.493590713 0.111447774 0.0609227642 0.9919011 -0.986655235 0.162727982 -0.00557396654</float_array>
          <technique_common>
            <accessor source="#normals_array" count="148" stride="3">
              <param name="X" type="float" />
              <param name="Y" type="float" />
              <param name="Z" type="float" />
            </accessor>
          </technique_common>
        </source>
        <vertices id="vertices">
          <input semantic="POSITION" source="#positions" />
        </vertices>
        <triangles material="scout_b2b2b2" count="126">
          <input semantic="VERTEX" source="#vertices" offset="0" />
          <input semantic="NORMAL" source="#normals" offset="1" />
          <p>0 0 1 1 2 2 2 3 3 4 4 5 2 6 5 6 0 6 6 7 5 8 4 9 7 10 4 11 8 12 9 13 5 8 6 7 7 14 6 14 4 14 10 15 11 15 12 15 2 2 13 16 14 17 15 18 16 19 14 17 17 20 16 19 15 18 15 18 14 17 13 16 18 21 19 21 20 21 21 22 22 23 23 24 24 25 25 26 13 16 15 18 13 16 25 26 5 27 25 27 26 27 25 26 24 25 26 28 27 29 17 20 15 18 9 13 25 26 5 8 28 30 25 26 9 13 15 18 25 26 28 30 3 4 29 31 8 12 30 32 15 18 28 30 27 33 30 33 31 33 27 29 15 18 30 32 32 34 18 35 20 36 33 37 34 38 35 39 36 40 8 12 29 31 21 22 8 41 36 42 22 23 21 22 36 42 3 4 8 12 4 11 37 43 38 44 16 19 39 45 21 22 40 46 2 47 14 48 16 49 39 50 41 51 6 52 7 53 39 53 6 53 42 54 41 54 39 54 43 55 44 55 45 55 20 56 46 56 39 56 39 57 46 58 18 59 47 60 42 61 48 62 48 63 42 63 39 63 48 64 39 57 18 59 39 45 32 65 20 66 49 67 32 65 40 46 40 46 32 65 39 45 32 34 43 68 18 35 48 62 18 69 43 70 37 71 23 24 38 72 50 73 37 43 17 20 37 71 50 73 23 24 30 74 6 7 12 75 51 76 23 24 50 73 39 77 7 10 8 12 52 78 50 73 27 29 53 79 54 79 52 79 54 80 53 80 45 80 44 81 54 81 45 81 3 4 2 3 29 31 52 82 45 82 55 82 52 83 43 83 45 83 52 84 54 84 43 84 55 85 50 73 52 78 51 76 50 73 55 85 51 76 55 85 43 68 55 86 56 87 57 88 57 89 43 89 55 89 6 7 30 74 28 90 38 91 22 92 16 49 16 49 22 92 29 93 29 93 22 92 36 94 12 95 47 96 10 97 58 98 41 99 42 100 58 98 42 100 6 101 47 102 12 102 18 102 19 103 18 103 12 103 1 1 13 16 2 2 30 104 45 105 31 106 31 106 45 105 53 107 53 108 27 109 31 110 20 111 19 112 6 113 6 113 46 114 20 111 12 115 6 115 19 115 11 116 33 117 59 118 59 118 12 119 11 116 12 120 59 120 30 120 59 121 33 121 35 121 59 122 56 122 30 122 51 76 40 46 23 24 40 46 21 22 23 24 21 22 39 45 8 41 41 51 58 123 6 52 34 38 10 124 35 39 34 38 11 125 10 124 16 49 29 93 2 47 42 126 46 114 6 113 46 127 47 128 18 129 57 130 44 130 43 130 26 28 0 0 5 131 13 16 1 1 24 25 24 25 1 1 26 28 26 28 1 1 0 0 28 90 9 13 6 7 23 24 22 23 38 72 37 43 16 19 17 20 11 132 60 132 33 132 2 133 4 9 5 8 47 128 46 127 42 134 44 135 59 136 47 96 59 136 35 137 10 97 47 96 59 136 10 97 50 73 17 20 27 29 43 68 49 67 51 76 44 138 57 139 59 140 59 140 57 139 56 141 47 60 48 62 44 142 52 143 27 109 53 108 48 62 54 144 44 142 48 62 43 70 54 144 51 76 49 67 40 46 55 86 30 145 56 87 45 105 30 104 55 146 60 147 11 125 34 38 34 38 33 37 60 147 43 68 32 34 49 67</p>
        </triangles>
      </mesh>
    </geometry>
  </library_geometries>
  <library_visual_scenes>
    <visual_scene id="scene">
      <node id="left_hand_palm_link">
        <instance_geometry url="#geometry">
          <bind_material>
            <technique_common>
              <instance_material symbol="scout_b2b2b2" target="#scout_b2b2b2" />
            </technique_common>
          </bind_material>
        </instance_geometry>
      </node>
    </visual_scene>
  </library_visual_scenes>
  <scene>
    <instance_visual_scene url="#scene" />
  </scene>
</COLLADA>