<?xml version='1.0' encoding='utf-8'?>
<COLLADA xmlns="http://www.collada.org/2005/11/COLLADASchema" version="1.4.1">
  <asset>
    <created>2026-09-14T00:00:00Z</created>
    <modified>2026-09-14T00:00:00Z</modified>
    <unit name="metre" meter="1" />
    <up_axis>Z_UP</up_axis>
  </asset>
  <library_effects>
    <effect id="scout_b2b2b2_effect">
      <profile_COMMON>
        <technique sid="common">
          <lambert>
            <emission>
              <color>0 0 0 1</color>
            </emission>
            <ambient>
              <color>0.35 0.35 0.35 1</color>
            </ambient>
            <diffuse>
              <color>0.7 0.7 0.7 1</color>
            </diffuse>
          </lambert>
        </technique>
      </profile_COMMON>
    </effect>
  </library_effects>
  <library_materials>
    <material id="scout_b2b2b2" name="scout_b2b2b2">
      <instance_effect url="#scout_b2b2b2_effect" />
    </material>
  </library_materials>
  <library_geometries>
    <geometry id="geometry" name="left_shoulder_pitch_link">
      <mesh>
        <source id="positions">
          <float_array id="positions_array" count="120">-0.0309905037 0.0680577829 -0.0333134122 -0.0285044387 0.0482204035 -0.0484104604 -0.030866662 0.0229756329 -0.0456190445 -0.0263395887 0.00229078997 -0.0112143494 -0.0311181974 0.0130647877 0.00912864041 -0.0301603302 0.0066037518 -0.0301949717 -0.0283022672 0.00379069941 0.00702207722 -0.0278670657 -4.79194604e-08 -0.00263606524 -0.0278670862 -4.80067719e-08 -0.00188290374 -0.0278671179 -4.81086353e-08 -0.00112974225 -0.00111028133 0.00981516298 -0.038024772 -0.0107340394 0.00269996352 -0.026496999 -0.0272477418 0.00520747621 0.0376931317 -0.0278670955 -4.84724296e-08 0.00188290374 -0.0278670695 -4.85742966e-08 0.00263606524 -0.0278670508 -4.867616e-08 0.00338922674 -0.0278670397 -4.87634715e-08 0.00414238824 -0.0278670304 -4.8850783e-08 0.00489554973 -0.0278670099 -3.25962937e-08 0.00527264783 -0.0267942864 0.0010774082 0.00858551171 -0.0278664846 -4.82978066e-08 0.000376580749 -0.0278664846 -4.82104952e-08 -0.000376580749 -0.0306540467 0.0576375946 0.0161083564 0.0306168627 0.0630846024 0.0122162355 -0.0296352431 0.0710435361 0.000112274589 0.0199721772 0.00442350749 -0.0224551279 0.0271041263 0.000628812879 -0.00948379375 0.0127234906 0.000504330383 -0.0254952107 0.0310983658 0.0732315555 -0.0078980336 0.0283687469 0.00234859157 0.00764017738 0.0310126487 0.00665192399 -0.0291330144 0.0291722398 0.0658124015 -0.0371706523 -0.000565423281 0.0733887479 -0.0252730884 0.0302895866 0.0411833338 0.0230184272 0.0278268848 0.00513391197 0.0356489941 0.0307110026 0.028171422 -0.0486202799 0.0308148116 0.0475291163 -0.0481188335 -0.0145033496 0.00218830793 0.024795657 0.0122324787 0.00226390688 0.0260767061 0.00460094307 0.0448516943 0.0245188493</float_array>
          <technique_common>
            <accessor source="#positions_array" count="40" stride="3">
              <param name="X" type="float" />
              <param name="Y" type="float" />
              <param name="Z" type="float" />
            </accessor>
          </technique_common>
        </source>
        <source id="normals">
          <float_array id="normals_array" count="249">-0.999189973 0.0222585481 -0.0335263088 -0.967913032 0.0636921674 -0.243079454 -0.999177516 -0.00306837191 -0.040433649 -0.872692645 -0.48548004 0.0521214195 -0.980444372 -0.192374632 0.0414836667 -0.990972757 -0.134046763 -0.00211423729 -0.942346692 -0.136384785 0.30558449 -0.973080277 0.19622983 -0.120866388 -0.981985569 0.156613275 -0.105719544 -0.993480682 -0.114000447 -2.89214877e-05 -0.993486047 -0.11395365 -3.49301226e-05 -0.128419384 -0.850862861 -0.509451568 -0.0630010888 -0.40316695 -0.912955225 0.0259153228 -0.725689948 -0.687533677 -0.0348443352 -0.958910227 -0.281561792 0.245743886 0.967876136 -0.0531577952 -0.993472934 -0.114068292 1.28434594e-05 -0.993469954 -0.114094131 3.2120548e-05 -0.993471205 -0.114083014 2.20568236e-05 -0.993472517 -0.114071704 1.39949298e-05 -0.993471205 -0.114083178 2.80218701e-05 -0.978551269 -0.167622373 0.119750269 0.746177673 -0.665705919 -0.00738533307 0.708840609 -0.705368638 4.46906415e-06 0.709549844 -0.70465517 -0.000172810294 -0.834366262 -0.159733921 0.527558506 -0.986850739 -0.12818706 0.0984563828 -0.999216795 0.0210549049 0.0335029066 -0.0440706052 0.603283048 0.796308577 0.0425583944 0.720771968 0.691864491 -0.0594327822 0.941029131 0.333064407 0.07106442 -0.965709388 -0.249710247 0.564709842 -0.654978752 -0.502101183 0.0574751832 0.987943113 0.14375329 0.134989709 -0.985205173 -0.105586849 0.10352996 -0.885065317 -0.453807145 0.631794989 0.765231967 -0.12351165 0.0562350228 0.77341342 -0.631402671 -0.0135014225 0.967870474 -0.251086593 0.996452034 -0.0685964003 0.0487632863 0.99927175 -0.0312966369 0.0218287297 0.9979195 -0.0593407676 0.0252069831 -0.082537435 0.857173264 -0.508371532 -0.0273650605 0.271138787 -0.96215117 0.0435054004 -0.311125904 -0.949372411 0.999746859 -0.00971598085 0.0202945769 0.999982297 -0.00342109241 -0.0048634964 0.999747157 0.018798409 -0.0123384986 0.983365417 0.149831042 -0.102679811 0.00789897703 0.27184999 -0.962307215 -0.790586829 -0.0904111713 0.605638683 0.0227178279 -0.999571383 -0.0184633322 -0.0368443318 -0.9956581 -0.0854839087 0.00789973792 -0.99889034 0.0464288183 -0.0398322754 -0.992198646 0.118132278 0.0232300591 -0.988269687 0.150941521 -0.098756209 -0.989898622 0.101725012 -0.111056663 -0.987990856 0.107426666 0.0199632477 0.421741605 0.906496286 -0.0170743987 0.327636123 0.944649696 0.0588917546 0.301149845 0.951756537 0.794543922 -0.60694921 -0.017680876 0.798422992 -0.60181129 -0.0185449943 0.000282458495 -0.99999994 -1.18508972e-07 -0.000282435649 -0.99999994 -1.12456512e-07 -0.000376764656 -0.99999994 -1.49941712e-07 -0.00037658072 -0.99999994 -1.08034094e-07 -1.69187751e-05 -1 -1.24287965e-07 0.000753160333 -0.999999702 -1.22934551e-07 0.860237002 -0.509894431 -1.07341011e-05 0.100755155 -0.994911253 1.22483207e-05 0.0962433144 -0.995357811 1.16998372e-05 -0.0309582222 -0.999520659 -1.15871089e-07 -0.0297933929 -0.999556065 -1.11511376e-07 0.708535075 -0.705675542 7.82732895e-05 -0.99328649 0.111641631 0.0303009115 0.0842137858 0.508815825 -0.856746435 0.999840558 -0.0162228346 0.00746285124 0.999979019 0.00390318246 0.00517344335 -0.0902152658 -0.985801458 0.14162159 -0.180493578 -0.982222915 0.0515771545 0.0751155242 -0.983523965 0.164433271 0.107759014 0.378618568 0.919258356</float_array>
          <technique_common>
            <accessor source="#normals_array" count="83" stride="3">
              <param name="X" type="float" />
              <param name="Y" type="float" />
              <param name="Z" type="float" />
            </accessor>
          </technique_common>
        </source>
        <vertices id="vertices">
          <input semantic="POSITION" source="#positions" />
        </vertices>
        <triangles material="scout_b2b2b2" count="76">
          <input semantic="VERTEX" source="#vertices" offset="0" />
          <input semantic="NORMAL" source="#normals" offset="1" />
          <p>0 0 1 1 2 2 3 3 4 4 5 5 6 6 3 7 7 8 6 6 7 8 8 9 6 6 8 9 9 10 5 11 2 12 10 13 11 14 5 11 10 13 6 15 12 15 3 15 6 6 13 16 14 17 6 6 14 17 15 18 6 6 15 18 16 19 6 6 16 19 17 20 6 6 17 20 18 21 19 22 20 23 21 24 6 6 18 21 19 25 12 26 4 4 3 3 12 26 22 27 4 4 22 28 23 29 24 30 25 31 11 14 10 13 25 32 26 32 27 32 24 30 23 29 28 33 29 34 25 31 30 35 25 36 29 36 26 36 28 33 31 37 32 38 29 39 33 40 34 41 0 0 2 2 22 27 22 27 2 2 4 4 32 38 24 30 28 33 24 30 32 38 0 42 1 43 35 44 2 12 31 37 0 42 32 38 30 45 33 40 29 39 28 46 36 47 31 48 2 12 35 44 10 13 1 43 36 49 35 44 37 50 6 6 19 25 19 51 3 52 29 53 37 54 19 51 29 53 38 55 37 54 29 53 3 52 11 14 29 53 29 53 11 14 27 56 26 57 29 53 27 56 39 58 12 59 34 60 19 22 21 24 7 61 19 22 7 61 3 62 6 6 9 10 13 16 9 63 8 64 13 65 13 65 8 64 14 66 8 64 7 67 14 66 15 68 14 66 7 67 18 69 17 69 16 69 16 70 15 68 7 67 18 71 16 70 21 67 16 70 7 67 21 67 18 72 21 67 20 73 18 74 20 23 19 22 24 75 0 0 22 27 5 5 4 4 2 2 27 76 11 76 25 76 36 49 1 43 31 37 11 14 3 52 5 11 30 35 25 31 10 13 0 42 31 37 1 43 10 13 35 44 30 35 33 40 36 47 23 77 36 47 28 46 23 77 35 78 36 47 33 40 30 45 35 78 33 40 12 79 6 80 37 54 12 79 37 54 34 81 37 54 38 55 34 81 34 60 33 82 39 58 39 58 33 82 23 29 34 81 38 55 29 53 22 28 12 59 39 58 39 58 23 29 22 28</p>
        </triangles>
      </mesh>
    </geometry>
  </library_geometries>
  <library_visual_scenes>
    <visual_scene id="scene">
      <node id="left_shoulder_pitch_link">
        <instance_geometry url="#geometry">
          <bind_material>
            <technique_common>
              <instance_material symbol="scout_b2b2b2" target="#scout_b2b2b2" />
            </technique_common>
          </bind_material>
        </instance_geometry>
      </node>
    </visual_scene>
  </library_visual_scenes>
  <scene>
    <instance_visual_scene url="#scene" />
  </scene>
</COLLADA>