<?xml version='1.0' encoding='utf-8'?>
<COLLADA xmlns="http://www.collada.org/2005/11/COLLADASchema" version="1.4.1">
  <asset>
    <created>2026-09-14T00:00:00Z</created>
    <modified>2026-09-14T00:00:00Z</modified>
    <unit name="metre" meter="1" />
    <up_axis>Z_UP</up_axis>
  </asset>
  <library_effects>
    <effect id="scout_b2b2b2_effect">
      <profile_COMMON>
        <technique sid="common">
          <lambert>
            <emission>
              <color>0 0 0 1</color>
            </emission>
            <ambient>
              <color>0.35 0.35 0.35 1</color>
            </ambient>
            <diffuse>
              <color>0.7 0.7 0.7 1</color>
            </diffuse>
          </lambert>
        </technique>
      </profile_COMMON>
    </effect>
  </library_effects>
  <library_materials>
    <material id="scout_b2b2b2" name="scout_b2b2b2">
      <instance_effect url="#scout_b2b2b2_effect" />
    </material>
  </library_materials>
  <library_geometries>
    <geometry id="geometry" name="left_ankle_pitch_link">
      <mesh>
        <source id="positions">
          <float_array id="positions_array" count="78">-0.0184153598 -0.00678325351 -0.0202206057 -0.023939224 0.000361109007 -0.0230580159 -0.0214354824 0.00518392352 -0.0207054671 -0.00291959429 0.00478732446 0.0102472221 -0.0167424344 -0.000624108419 0.00451907329 -0.00058308302 -0.00459408527 0.0109704006 -0.000588957279 0.00657362491 -0.0256452002 0.00986546185 0.00592235848 -0.0156855565 0.00585297681 -0.00729995826 -0.024187943 0.00785939675 0.00478322897 0.00750788627 -0.0085678203 0.00591016561 0.000629112299 0.00362168951 0.0038635619 0.00378068234 -0.0019043627 -0.00381276105 0.00497939344 -0.00644079223 -0.00596426288 0.00417172397 -0.00103047921 0.00605127402 -0.00793801527 -0.00586889498 0.00529652182 -0.0147795677 -0.0164252874 0.0048274342 -0.0103981821 -0.00619039685 -0.00497971475 -0.00784762949 -0.0154869482 -0.00539150788 -0.010297874 0.00472564949 -0.00500177173 -0.0154000688 0.00428474834 -0.00610367628 -0.00663437136 0.00754371472 -0.00608629687 0.000856611237 -0.0191655718 -0.000361968618 -0.0158400927 -0.0250135642 -0.002431612 -0.0120719429 0.00729443738 0.00540504325 -0.00631220639 0.00991127081 -0.00387050887 0.00928193331</float_array>
          <technique_common>
            <accessor source="#positions_array" count="26" stride="3">
              <param name="X" type="float" />
              <param name="Y" type="float" />
              <param name="Z" type="float" />
            </accessor>
          </technique_common>
        </source>
        <source id="normals">
          <float_array id="normals_array" count="201">0.561664104 0.108513668 -0.820218384 -0.375354201 -0.0220551584 0.926618993 0.677202582 0.241438523 -0.695056856 0.992463112 0.0796002001 -0.0931705981 0.983587325 -0.180316538 0.00647748727 0.94239831 -0.328037173 0.0653993338 0.222518519 -0.267027199 -0.937647045 0.194455072 -0.286482602 -0.938144445 0.237600639 -0.256366313 -0.936921656 0.274989069 -0.2293026 -0.933703005 -0.0228136703 0.999739349 0.000904663408 -0.0479569249 0.998642743 0.0203190818 -0.322786242 0.923886597 0.205529898 -0.143082783 0.98776871 0.0619697794 -0.00669902982 0.999054492 0.0429559946 -0.492857128 0.808311403 0.322062969 -0.124549583 0.974451303 0.186901316 -0.322809786 -0.926340699 0.194130823 -0.0850401223 -0.995955586 0.028993031 -0.3840473 -0.902018905 0.197153583 -0.0840599909 -0.97375375 0.211512432 0.0288213827 -0.991299987 0.128427669 -0.977635205 -0.196887642 -0.0739235952 -0.0932368413 -0.98937434 -0.1115584 -0.124360636 -0.990632772 0.0564016216 -0.193796262 0.955160558 0.223855451 0.684845746 0.340775043 0.644095302 0.685601294 0.340024412 0.643688023 0.664290071 0.36070314 0.654684663 0.709969163 0.315074414 0.629818976 -0.817125559 0.153113186 0.555753708 -0.20228605 -0.691327512 -0.693647385 -0.185281947 -0.00736751733 0.98265779 -0.371669382 0.123884283 -0.920062244 -0.721132398 -0.651328504 -0.236091584 -0.00443715556 0.996697903 0.0810779408 -0.227761105 0.972270489 0.053056661 0.0579144135 -0.973168314 0.222686738 -0.131606817 -0.975611091 0.175677553 -0.201898292 -0.125050098 -0.971390545 -0.223469347 -0.0956968665 -0.970001817 -0.180576295 -0.153551742 -0.971500933 -0.162454978 -0.177387252 -0.970640063 0.188120738 0.186673582 0.964242458 0.244106278 0.134824857 0.960330367 0.198764741 0.176977366 0.963935494 -0.994270802 -0.0918341577 -0.0546996668 -0.645175934 0.685539007 0.337319165 -0.387742907 -0.779945314 0.491264462 0.103118397 -0.968704343 0.225784197 -0.100121111 -0.992782116 0.06602633 -0.0214584917 -0.991408229 0.129031897 0.708749235 -0.705328107 -0.0136668766 -0.0332418345 0.997105658 0.0683760419 0.969669223 0.201579586 -0.138229027 0.139069602 0.230414242 0.963103771 -0.826695859 -0.431856483 0.360657603 -0.867325604 -0.386027247 0.314212233 -0.860815644 -0.393936694 0.322196037 -0.327091217 -0.917753696 0.225254178 -0.0378294513 0.994418025 0.0984975025 0.0260041822 0.994563103 0.10083665 0.268667459 0.818708658 -0.507478058 -0.176462188 0.980582595 0.0855501965 -0.888834417 -0.358001202 0.286021918 -0.261340022 -0.962853193 -0.0679347292 0.449351788 -0.867769063 -0.212272957</float_array>
          <technique_common>
            <accessor source="#normals_array" count="67" stride="3">
              <param name="X" type="float" />
              <param name="Y" type="float" />
              <param name="Z" type="float" />
            </accessor>
          </technique_common>
        </source>
        <vertices id="vertices">
          <input semantic="POSITION" source="#positions" />
        </vertices>
        <triangles material="scout_b2b2b2" count="52">
          <input semantic="VERTEX" source="#vertices" offset="0" />
          <input semantic="NORMAL" source="#normals" offset="1" />
          <p>0 0 1 0 2 0 3 1 4 1 5 1 6 2 7 2 8 2 9 3 8 4 7 5 10 6 11 7 12 8 13 9 10 6 12 8 14 10 15 11 10 12 15 11 16 13 10 12 7 14 15 11 14 10 16 13 4 15 10 12 3 16 10 12 4 15 4 17 17 18 13 19 4 17 18 20 17 18 18 20 19 21 17 18 19 22 8 22 20 22 17 18 19 21 20 23 8 24 21 24 20 24 22 25 1 25 23 25 14 26 13 27 20 28 13 27 14 26 10 29 2 30 1 30 22 30 23 31 2 31 22 31 23 32 18 32 16 32 11 33 21 33 12 33 23 34 1 34 0 34 14 10 24 35 7 14 9 36 7 14 24 35 8 37 19 21 18 20 0 38 8 37 18 20 0 39 2 40 6 41 0 39 6 41 8 42 9 43 3 44 5 45 4 46 16 46 18 46 2 47 23 47 16 47 5 48 4 17 13 19 25 49 5 50 21 51 8 52 25 52 21 52 2 53 16 13 15 11 9 3 25 54 8 4 9 43 5 45 25 55 21 56 11 57 20 58 0 38 18 20 23 59 6 60 2 53 15 11 15 11 7 14 6 60 3 16 9 61 10 12 10 62 9 62 11 62 11 63 9 36 24 35 11 63 24 35 14 10 14 64 20 58 11 57 12 65 21 51 5 50 5 66 13 66 12 66 20 23 13 19 17 18</p>
        </triangles>
      </mesh>
    </geometry>
  </library_geometries>
  <library_visual_scenes>
    <visual_scene id="scene">
      <node id="left_ankle_pitch_link">
        <instance_geometry url="#geometry">
          <bind_material>
            <technique_common>
              <instance_material symbol="scout_b2b2b2" target="#scout_b2b2b2" />
            </technique_common>
          </bind_material>
        </instance_geometry>
      </node>
    </visual_scene>
  </library_visual_scenes>
  <scene>
    <instance_visual_scene url="#scene" />
  </scene>
</COLLADA>