<?xml version='1.0' encoding='utf-8'?>
<COLLADA xmlns="http://www.collada.org/2005/11/COLLADASchema" version="1.4.1">
  <asset>
    <created>2026-09-14T00:00:00Z</created>
    <modified>2026-09-14T00:00:00Z</modified>
    <unit name="metre" meter="1" />
    <up_axis>Z_UP</up_axis>
  </asset>
  <library_effects>
    <effect id="scout_b2b2b2_effect">
      <profile_COMMON>
        <technique sid="common">
          <lambert>
            <emission>
              <color>0 0 0 1</color>
            </emission>
            <ambient>
              <color>0.35 0.35 0.35 1</color>
            </ambient>
            <diffuse>
              <color>0.7 0.7 0.7 1</color>
            </diffuse>
          </lambert>
        </technique>
      </profile_COMMON>
    </effect>
  </library_effects>
  <library_materials>
    <material id="scout_b2b2b2" name="scout_b2b2b2">
      <instance_effect url="#scout_b2b2b2_effect" />
    </material>
  </library_materials>
  <library_geometries>
    <geometry id="geometry" name="left_hand_index_1_link">
      <mesh>
        <source id="positions">
          <float_array id="positions_array" count="72">0.032966543 -0.00192005129 -0.0111653274 0.0503426492 0.00452844333 -0.00840406492 0.0488178954 -0.00202804292 -0.00707823504 0.0163220782 -0.00720469328 0.0110828141 0.0117984787 0.00633584382 -0.0102229221 0.020075582 -0.00810460187 -0.00818010792 0.0425574295 -0.00561334798 -0.00525507657 0.0208758619 -0.00658396678 -0.0105106151 0.0300264619 -0.00771077815 0.00753693655 0.0201503821 -0.00712369103 0.010198215 0.0399412364 -0.00127115555 0.0105820596 0.044314187 -0.00479959929 0.00571125001 0.0511221699 0.000343157415 0.00589805283 0.00953208096 0.00914922636 0.000702169491 0.0111731673 0.00609458983 0.00997061841 0.020795282 0.00708274636 -0.0123559283 0.0360653885 0.0071348683 -0.0110444902 0.03285864 0.0074139908 0.011475781 0.0506924577 0.00461920397 0.00744706998 0.0196188763 0.00683249673 0.0124005144 -0.00531053171 -0.0058470401 -0.0112799238 -0.00609755982 0.00528173707 -0.0114614889 -0.00443729805 -0.00450815307 0.0116550503 -0.0043463083 0.00461951783 0.011278661</float_array>
          <technique_common>
            <accessor source="#positions_array" count="24" stride="3">
              <param name="X" type="float" />
              <param name="Y" type="float" />
              <param name="Z" type="float" />
            </accessor>
          </technique_common>
        </source>
        <source id="normals">
          <float_array id="normals_array" count="171">0.151716173 -0.342657447 -0.927128971 0.218986809 -0.179394543 -0.959094584 0.228272587 -0.382225692 -0.895430148 -0.899691463 -0.428845972 -0.0815255195 -0.878993928 -0.468827665 -0.0870071277 -0.850006282 -0.507292032 -0.14192991 0.283948302 -0.898949742 -0.333560616 0.0633336231 -0.931892157 -0.357163697 0.101736128 -0.826428354 -0.553774297 0.0720942393 -0.997358441 0.00886507798 0.000342417014 -0.998578727 0.0532959402 0.237635881 -0.321813107 0.916496336 0.14081122 -0.217061192 0.965948582 0.180070624 -0.633200765 0.752749205 0.407607943 -0.912637115 0.0308094453 0.33337298 -0.595654011 0.730793238 0.404233128 -0.359755158 0.840935111 0.538804233 -0.842400372 0.00718203466 0.601616144 -0.797834754 0.038958557 -0.836109102 -0.547603607 -0.0324331522 -0.916859627 -0.39783147 -0.0331443213 -0.0286363922 0.986431777 -0.161654904 -0.0984064937 0.992860913 -0.0674041435 -0.0312475432 0.998713553 0.0399354026 0.00542961713 -0.109582946 -0.993962824 -0.00688681612 -0.117137723 -0.993091822 0.136858895 -0.0336251743 -0.990019679 0.0830402523 0.995758832 0.0396062955 0.111335002 0.993472219 -0.0248499233 0.16605328 0.986112773 0.00280430983 0.181305051 0.983379722 -0.0096317837 0.978656888 -0.176633671 -0.105029486 0.998545587 0.027485624 -0.0463816002 0.960474193 -0.248666286 -0.125117525 -0.087295115 0.987722158 0.129555121 -0.0551461428 0.992433131 -0.109706007 0.0384632759 -0.100108542 0.994232774 0.112252615 -0.0107057458 0.993622005 0.355004758 -0.157519266 0.921498418 0.0289616864 -0.0142582441 -0.999478817 0.0126200048 -0.0513361953 -0.998601675 -0.00742880628 -0.836296439 -0.548227251 -0.0640208349 0.994869351 0.0783343166 0.0333941877 -0.998028994 0.0531319901 -0.102149568 0.0572894141 0.993117988 -0.0697044805 0.0113446778 0.997503161 -0.0880088061 0.0372307785 0.995423675 -0.114328668 0.0746083632 0.990637422 -0.0402322859 -0.098727867 -0.994300842 -0.0629979819 -0.0654584318 -0.995864689 -0.0511070937 -0.0828675851 -0.995249212 -0.0801168755 -0.0402713157 -0.99597162 -0.0928841382 0.99546504 0.0205412097 0.109673947 -0.118399702 0.986890614 -0.0285423137 -0.00516127842 0.999579251 -0.0505574793 0.0416514948 0.997852266 0.99388963 0.10804975 -0.0225521773</float_array>
          <technique_common>
            <accessor source="#normals_array" count="57" stride="3">
              <param name="X" type="float" />
              <param name="Y" type="float" />
              <param name="Z" type="float" />
            </accessor>
          </technique_common>
        </source>
        <vertices id="vertices">
          <input semantic="POSITION" source="#positions" />
        </vertices>
        <triangles material="scout_b2b2b2" count="44">
          <input semantic="VERTEX" source="#vertices" offset="0" />
          <input semantic="NORMAL" source="#normals" offset="1" />
          <p>0 0 1 1 2 2 3 3 4 4 5 5 6 6 5 7 7 8 0 0 6 6 7 8 0 0 2 2 6 6 8 9 9 10 5 7 10 11 9 12 8 13 11 14 8 9 6 6 10 11 8 13 11 15 12 16 10 11 11 15 11 14 6 6 2 17 2 17 12 18 11 14 13 19 4 4 14 20 15 21 4 22 13 23 15 24 0 0 7 25 15 24 16 26 0 0 13 23 17 27 16 28 18 29 1 30 16 28 1 31 12 32 2 33 17 27 14 34 19 35 14 34 17 27 13 23 10 11 19 36 9 12 17 37 19 36 10 11 18 29 16 28 17 27 18 38 17 37 10 11 18 38 10 11 12 16 7 25 20 39 21 40 7 25 21 40 15 24 20 41 7 8 5 7 15 21 21 42 4 22 5 7 9 10 3 43 4 44 21 45 20 46 20 46 5 47 4 44 15 21 13 23 16 28 5 7 6 6 8 9 3 48 22 49 14 50 14 50 22 49 23 51 16 26 1 1 0 0 3 3 14 20 4 4 23 52 19 35 14 34 3 53 9 12 19 36 22 54 3 53 19 36 22 54 19 36 23 55 12 32 1 31 18 56</p>
        </triangles>
      </mesh>
    </geometry>
  </library_geometries>
  <library_visual_scenes>
    <visual_scene id="scene">
      <node id="left_hand_index_1_link">
        <instance_geometry url="#geometry">
          <bind_material>
            <technique_common>
              <instance_material symbol="scout_b2b2b2" target="#scout_b2b2b2" />
            </technique_common>
          </bind_material>
        </instance_geometry>
      </node>
    </visual_scene>
  </library_visual_scenes>
  <scene>
    <instance_visual_scene url="#scene" />
  </scene>
</COLLADA>