<?xml version='1.0' encoding='utf-8'?>
<COLLADA xmlns="http://www.collada.org/2005/11/COLLADASchema" version="1.4.1">
  <asset>
    <created>2026-09-14T00:00:00Z</created>
    <modified>2026-09-14T00:00:00Z</modified>
    <unit name="metre" meter="1" />
    <up_axis>Z_UP</up_axis>
  </asset>
  <library_effects>
    <effect id="scout_b2b2b2_effect">
      <profile_COMMON>
        <technique sid="common">
          <lambert>
            <emission>
              <color>0 0 0 1</color>
            </emission>
            <ambient>
              <color>0.35 0.35 0.35 1</color>
            </ambient>
            <diffuse>
              <color>0.7 0.7 0.7 1</color>
            </diffuse>
          </lambert>
        </technique>
      </profile_COMMON>
    </effect>
  </library_effects>
  <library_materials>
    <material id="scout_b2b2b2" name="scout_b2b2b2">
      <instance_effect url="#scout_b2b2b2_effect" />
    </material>
  </library_materials>
  <library_geometries>
    <geometry id="geometry" name="left_hip_roll_link">
      <mesh>
        <source id="positions">
          <float_array id="positions_array" count="159">0.0791513547 -0.00551777007 -0.0356514044 0.0790012926 -0.0211883113 -0.0944440663 0.0795412809 0.0181544703 -0.0973201618 0.07706099 0.0196419638 -0.0266128387 0.0756366029 -0.0301500466 -0.0392048471 0.0758402497 -0.0254196767 -0.123578437 0.0769784003 0.0148972366 -0.123745114 0.0737556145 0.0355386026 -0.0521698594 0.0710872784 -0.0319577828 0.00211032457 0.0721800625 -0.0379684977 -0.0719288737 0.071022436 0.0339062139 -0.123758212 0.0699686408 -0.0351562053 -0.123847596 0.0326844789 0.0486686155 -0.0550443232 0.0252879355 0.0451280959 -0.123667814 0.002736066 0.0446089655 -0.0860536993 0.0703526363 0.0316778906 0.00605703006 0.0686952025 0.0120537393 0.0293057002 0.0685036108 -0.0187834073 0.0271956902 0.0683037862 -0.0412578955 -0.0320552513 -0.0110762389 -0.0397373922 -0.12363153 0.0247689411 -0.0454338714 -0.123668119 -0.00029612286 -0.0442478657 -0.0867684036 0.0682641193 0.0415516347 -0.0510267951 0.0601187795 0.0448492877 -0.00541723194 -0.0266301408 -0.0109880688 -0.123718508 -0.0158211496 0.0367202833 -0.123862639 0.0556249656 -0.0475867465 -0.0557058938 0.0590154454 -0.0452938192 -0.00457768748 -0.0199508052 -0.0328030474 -0.123752184 0.0649373382 0.0369163416 0.0133504877 0.0676904395 0.0244671665 0.0253210291 0.0642472804 -0.0395778157 0.00790007506 0.0669235736 -0.0310483817 0.0200320911 0.0688475072 -0.00576269533 0.0303679295 0.0605996251 -0.0409130082 -0.123642869 0.0308409333 -0.0488122143 -0.060790576 0.0607206523 0.0405217819 -0.123725817 0.0581019521 0.0452047996 -0.0815397277 0.0349337794 0.0283527281 0.0375777483 0.0348878577 0.0087480424 0.0463646837 -0.014590079 -0.0361179188 -0.0954023674 -0.0195466653 -0.0263648555 -0.0926798061 -0.0211004894 0.0244154744 -0.0984222069 -0.0237997491 0.0254181493 -0.123675577 -0.00525745563 0.0409446247 -0.123706952 0.0349792093 0.0406464525 0.0214528497 -0.0189268645 0.00382993999 -0.071575664 0.0349599905 -0.0176931899 0.0440193564 0.0365407541 -0.0489111617 -0.0119145289 -0.0136256861 0.0367864743 -0.0946985185 0.0492550656 0.048129119 -0.020663593 0.0348656178 0.0481225513 -0.0097673554 0.0350572392 -0.0392083041 0.0262084287</float_array>
          <technique_common>
            <accessor source="#positions_array" count="53" stride="3">
              <param name="X" type="float" />
              <param name="Y" type="float" />
              <param name="Z" type="float" />
            </accessor>
          </technique_common>
        </source>
        <source id="normals">
          <float_array id="normals_array" count="231">0.996129632 -0.0408746228 0.0778140351 0.977424681 -0.207484648 -0.0398884341 0.980360091 0.190722883 -0.0501886196 0.981725931 0.165932536 0.0931697786 0.938188434 -0.341550082 0.0560888164 0.95314312 -0.291962862 -0.0792203322 0.985914826 0.125070214 -0.111037739 0.870988071 0.490798026 0.0222960431 0.916104376 -0.372638553 0.147963583 0.732513428 -0.679902732 -0.0340052843 0.780785084 0.619283676 -0.0828396976 0.00905488245 -0.00746291503 -0.999931157 0.00156879751 0.00265338714 -0.999995232 0.00797907263 0.000929922506 -0.999967754 -0.0273618661 0.999518037 -0.0146641023 -0.0131797884 0.997384608 -0.0710651055 -0.310920626 0.94913137 0.0497794077 0.901751101 0.40351072 0.154997021 0.985366642 0.0592878014 0.159804657 0.979528368 -0.10956952 0.168874651 0.670263708 -0.741110861 0.0387456194 0.7045663 -0.707213759 -0.0586086772 -0.427584618 -0.90388453 -0.0128108654 -0.0209562965 -0.997223139 -0.0714622214 -0.367098391 -0.927371502 0.072255522 0.578128099 0.815886855 0.0098260818 0.435923278 0.886529744 0.155035049 -0.00184984517 -0.00213904562 -0.999996006 -0.00507898396 0.00467133755 -0.999976218 0.27026999 -0.962331593 -0.0295298863 0.347417146 -0.924640477 0.156016961 0.00165166182 -0.00213185279 -0.999996364 0.0194529109 0.00749936188 -0.999782622 0.807828367 0.553675771 0.202129766 0.95671314 0.203256607 0.208294749 0.537709475 -0.789292932 0.29645437 0.914310098 -0.333814621 0.229357377 0.988103569 -0.0193500537 0.152567714 0.344675541 -0.936346173 -0.0667425469 -0.00223650294 -0.00666886987 -0.999975264 -0.0454534255 -0.998796046 -0.0184507724 0.354622513 0.931460679 -0.0813869536 0.302433759 0.951084137 -0.0630295649 0.332742393 0.56043905 0.758413196 0.402809978 0.142270431 0.904158831 0.366235077 0.52090019 0.771060824 -0.719575107 -0.677083313 0.154174849 -0.831604779 -0.552276075 0.0585200973 -0.918804765 -0.323493242 0.226163566 -0.988241017 -0.0980266407 0.117347494 -0.936207771 0.296417952 0.188815728 -0.940637708 0.325818628 0.0950943008 -0.272579104 0.961470783 -0.0357015766 0.207202449 0.86397475 0.45892781 0.259150594 0.829865873 0.494129092 0.426602602 0.194862559 0.883198023 0.432617426 -0.0882766768 0.897245467 -0.946148753 0.0564161874 0.318778455 -0.908972979 0.0624644682 0.412148356 -0.884485185 0.269278586 0.38101843 0.379849374 -0.324689597 0.866193473 0.404890984 -0.37952444 0.831880093 -0.171396554 -0.97402668 0.147970349 -0.706069589 0.686517358 0.173665211 -0.635834873 0.771133006 0.0326794572 0.149086624 0.988267541 0.0331722088 -0.216321766 0.962143242 0.165786862 -0.800746083 0.509302914 0.315303385 -0.904196143 -0.150585756 0.399691403 0.332716465 -0.673842192 0.659724474 -0.330596417 -0.753139853 0.568758607 0.00140308146 0.0152889173 -0.999882162 -0.00125410059 0.00294357189 -0.999994874 -0.0282140616 0.00337212277 -0.999596238 0.00652693538 -0.0461452007 -0.998913407 0.0552014187 -0.00568607822 -0.998459041 -0.00572254136 0.0511113182 -0.998676538</float_array>
          <technique_common>
            <accessor source="#normals_array" count="77" stride="3">
              <param name="X" type="float" />
              <param name="Y" type="float" />
              <param name="Z" type="float" />
            </accessor>
          </technique_common>
        </source>
        <vertices id="vertices">
          <input semantic="POSITION" source="#positions" />
        </vertices>
        <triangles material="scout_b2b2b2" count="102">
          <input semantic="VERTEX" source="#vertices" offset="0" />
          <input semantic="NORMAL" source="#normals" offset="1" />
          <p>0 0 1 1 2 2 2 2 3 3 0 0 4 4 1 1 0 0 5 5 2 2 1 1 5 5 6 6 2 2 7 7 3 3 2 2 0 0 8 8 4 4 4 4 9 9 1 1 9 9 5 5 1 1 6 6 10 10 2 2 10 10 7 7 2 2 11 11 10 12 6 13 12 14 13 15 14 16 15 17 16 18 3 3 17 19 8 8 0 0 18 20 9 9 4 4 9 9 11 21 5 5 19 22 20 23 21 24 22 25 23 26 7 7 23 26 15 17 7 7 11 11 24 27 25 28 18 20 4 4 8 8 26 29 18 20 27 30 19 31 28 32 24 27 22 25 7 7 10 10 29 33 15 17 23 26 29 33 30 34 15 17 15 17 30 34 16 18 31 35 18 20 8 8 32 36 31 35 8 8 33 37 3 3 16 18 33 37 0 0 3 3 32 36 8 8 17 19 27 30 18 20 31 35 26 29 11 21 9 9 26 29 34 38 11 21 20 39 24 27 11 11 26 29 20 23 34 38 26 29 35 40 20 23 36 41 37 42 10 10 37 42 22 25 10 10 37 42 23 26 22 25 38 43 39 44 30 45 18 20 26 29 9 9 40 46 28 47 19 22 41 48 24 49 28 47 40 46 41 48 28 47 24 49 42 50 43 51 44 52 14 16 13 15 12 14 37 42 13 15 37 42 36 41 13 15 45 53 29 54 23 26 45 53 38 43 29 54 38 43 30 45 29 54 39 44 16 55 30 45 39 44 33 56 16 55 46 57 39 58 38 59 47 60 17 61 33 56 48 62 21 24 35 40 21 24 40 46 19 22 42 50 49 63 43 51 49 63 25 64 43 51 25 64 14 16 44 52 12 14 50 65 37 42 50 65 23 26 37 42 50 65 51 66 23 26 51 66 45 53 23 26 49 63 42 50 45 67 42 50 38 59 45 67 42 50 46 57 38 59 42 50 24 49 46 57 47 60 33 56 39 44 46 57 47 68 39 58 47 60 32 69 17 61 47 60 52 70 32 69 52 70 27 30 31 35 48 62 35 40 26 29 48 62 52 70 21 24 52 70 40 46 21 24 52 70 41 48 40 46 46 57 24 49 41 48 49 63 14 16 25 64 51 66 12 14 14 16 14 16 49 63 51 66 49 63 45 67 51 66 41 48 47 68 46 57 41 48 52 70 47 68 52 70 48 62 27 30 27 30 48 62 26 29 3 3 7 7 15 17 50 65 12 14 51 66 13 71 36 72 10 12 10 12 25 28 13 71 24 27 43 73 25 28 21 24 20 23 35 40 52 70 31 35 32 69 25 28 10 12 11 11 33 37 17 19 0 0 34 74 20 39 11 11 6 13 5 75 11 11 44 76 13 71 25 28 20 39 19 31 24 27</p>
        </triangles>
      </mesh>
    </geometry>
  </library_geometries>
  <library_visual_scenes>
    <visual_scene id="scene">
      <node id="left_hip_roll_link">
        <instance_geometry url="#geometry">
          <bind_material>
            <technique_common>
              <instance_material symbol="scout_b2b2b2" target="#scout_b2b2b2" />
            </technique_common>
          </bind_material>
        </instance_geometry>
      </node>
    </visual_scene>
  </library_visual_scenes>
  <scene>
    <instance_visual_scene url="#scene" />
  </scene>
</COLLADA>