<?xml version='1.0' encoding='utf-8'?>
<COLLADA xmlns="http://www.collada.org/2005/11/COLLADASchema" version="1.4.1">
  <asset>
    <created>2026-09-14T00:00:00Z</created>
    <modified>2026-09-14T00:00:00Z</modified>
    <unit name="metre" meter="1" />
    <up_axis>Z_UP</up_axis>
  </asset>
  <library_effects>
    <effect id="scout_b2b2b2_effect">
      <profile_COMMON>
        <technique sid="common">
          <lambert>
            <emission>
              <color>0 0 0 1</color>
            </emission>
            <ambient>
              <color>0.35 0.35 0.35 1</color>
            </ambient>
            <diffuse>
              <color>0.7 0.7 0.7 1</color>
            </diffuse>
          </lambert>
        </technique>
      </profile_COMMON>
    </effect>
  </library_effects>
  <library_materials>
    <material id="scout_b2b2b2" name="scout_b2b2b2">
      <instance_effect url="#scout_b2b2b2_effect" />
    </material>
  </library_materials>
  <library_geometries>
    <geometry id="geometry" name="left_shoulder_roll_link">
      <mesh>
        <source id="positions">
          <float_array id="positions_array" count="141">0.0406154953 -0.0162614565 -0.00689736428 0.0408665687 0.00654351851 -0.0122182565 0.0407786965 0.0123324431 0.00958594028 0.0397108681 0.0044085416 0.0232959054 0.0393451005 0.0260882322 -0.0059532118 0.0387678519 -0.0076237903 0.0246819071 0.0397538692 -0.0217632577 0.00770129403 0.0334162675 -0.000170253246 -0.0669414401 0.0347784907 0.0297438335 0.0171309523 0.0313959643 0.0215265416 -0.0673721731 0.024809368 0.0035955722 -0.103240862 0.034238182 -0.0258560888 0.0207495913 0.0340046547 -0.0146227172 0.0301829316 -0.0342303291 -0.0257715564 0.0208571944 -0.0341313854 -0.0323710777 0.0072847642 0.0340959206 -0.0316948928 0.00933927391 0.0152321421 0.0262757875 -0.103216618 -0.0340817235 0.0247973613 0.0234821308 0.0340373777 0.0190220997 0.0282673072 0.0347431786 -0.0325818025 -0.0045980541 0.0339909084 0.0374574587 -0.00360117853 0.0340676904 0.00164088397 0.0336402282 0.0117603317 -0.0153992875 -0.103196733 0.0164384302 0.038102787 -0.0666873381 -0.039845489 -0.0216198526 0.00702452241 -0.038731318 -0.00763437618 0.0247502141 -0.00630950229 0.0299905036 -0.103206553 -0.00195863214 -0.0264260061 -0.0717152879 -0.00338958739 -0.0177001413 -0.103201665 -0.00892417692 0.0398731232 -0.0675800294 -0.0337030776 0.0375954583 -0.0055388459 -0.0339909866 0.0325113386 0.0125795938 -0.017463902 -0.0111604314 -0.103198476 0.00215662387 0.0398591012 -0.0305636395 -0.0341006331 0.00900081545 0.0327534378 -0.0342270732 -0.0322046876 -0.00682765851 -0.021535648 0.0180419423 -0.103213966 -0.0256222393 0.031064352 -0.0668936074 -0.0377135277 0.0300357211 -0.00748044113 -0.0326053351 0.0156866554 -0.0676208213 -0.039769128 0.0105175357 0.0213275757 -0.0332251638 -0.00049577473 -0.0676065311 -0.0239251852 0.00269607734 -0.10320276 -0.0397261642 0.0235189199 0.00712102931 -0.0340428762 -0.0126017174 0.0313102081 -0.0398917459 -0.0211153552 -0.00767803658 -0.0401513316 0.00929088239 -0.0180769116</float_array>
          <technique_common>
            <accessor source="#positions_array" count="47" stride="3">
              <param name="X" type="float" />
              <param name="Y" type="float" />
              <param name="Z" type="float" />
            </accessor>
          </technique_common>
        </source>
        <source id="normals">
          <float_array id="normals_array" count="222">0.978224039 -0.188110441 -0.0877048597 0.996133268 0.0362576805 -0.0800242797 0.987965524 0.119444482 0.098270528 0.953223884 0.0735341236 0.293184131 0.957633793 0.286531001 -0.0289392415 0.929726899 -0.132255763 0.343680561 0.955210388 -0.276955873 0.10425213 0.960184216 -0.175370544 -0.217466071 0.939505696 0.284728765 0.190416917 0.895947456 0.387193054 -0.217622936 0.94044888 -0.116362855 -0.319398731 0.893350899 -0.343481451 0.289732128 0.00478591956 -0.442175657 0.896915674 -0.00261864089 -0.781116307 0.624380112 -0.00197855663 -0.78340596 0.621507227 -0.00228883093 -0.97549808 0.219995975 0.00151305611 -0.963713765 0.26693359 0.830091655 0.461363614 -0.313195556 0.863318324 -0.23760061 0.445227355 0.0125614768 0.84649682 0.532245576 -0.0100542437 0.678886712 0.734174192 0.0133461896 0.529207051 0.848387778 0.907200575 -0.406861216 -0.10700959 0.888981998 0.457170159 -0.0265785735 0.904603362 0.228864625 0.359602243 0.85926801 0.0288625434 0.510710716 0.869947612 -0.472086728 0.142566592 0.791152418 -0.544152617 -0.279241502 0.720651686 0.659156084 -0.214882284 -0.959712923 -0.264963895 0.0935158655 -0.895366311 -0.341499716 0.28582716 -0.933838904 -0.109567128 0.34049952 -0.222857073 0.919492841 -0.32383281 0.0901166797 0.986603677 -0.135986075 0.161489367 0.937315583 -0.308805317 -0.057821285 -0.972016931 -0.227683634 0.182088256 -0.950064242 -0.253420174 0.0270644724 -0.999313414 -0.0253017154 -0.152189359 -0.954211235 -0.257525444 -0.184774622 0.967810273 -0.170884699 -0.52134192 0.850189865 0.073347196 -0.00354096736 0.902243614 0.431212157 0.0244155638 0.977641821 0.20885475 -0.00045508772 -0.000671401736 -0.999999642 -0.000156702794 -0.000153640882 -1 -0.000354685762 -2.6553118e-05 -0.99999994 0.0180153232 0.999539733 0.0244078469 -0.0163667519 0.230881616 0.972844183 0.0117478194 0.0422270671 0.999038994 -0.0417569987 -0.996792853 -0.0682664588 -0.390756518 -0.889025867 -0.238626003 -0.826661348 0.464576572 -0.317489594 -0.703997076 0.674214542 -0.22321026 -0.933810234 0.351529837 -0.0665219799 -0.952240229 0.224171549 -0.207329735 -0.873060524 0.110413365 0.474946558 -0.957388282 0.12118341 0.262149394 -0.954884589 -0.195787549 -0.223299459 -0.94927901 -0.141257316 -0.280919403 -0.869693637 -0.420009106 -0.259278387 -0.881490469 -0.457923204 -0.115242802 -0.960668802 0.258042216 0.102614328 -0.885361075 0.326430023 0.331027418 -0.876697659 0.436740071 0.201641455 -0.861904263 -0.195795804 0.467744678 -0.882247865 -0.462034315 0.0903489888 -0.958789825 -0.266343415 -0.0989106223 -0.994769871 0.0566766597 -0.0849744231 -0.0111373402 -0.365476817 0.930753827 -0.000305306079 0.000940098951 -0.999999523 -0.000744672026 -0.000335502642 -0.999999642 0.000756988418 -0.00284357159 -0.999995649 0.000325982692 -0.000349446404 -0.999999881 0.00120781688 -0.000918220903 -0.999998868</float_array>
          <technique_common>
            <accessor source="#normals_array" count="74" stride="3">
              <param name="X" type="float" />
              <param name="Y" type="float" />
              <param name="Z" type="float" />
            </accessor>
          </technique_common>
        </source>
        <vertices id="vertices">
          <input semantic="POSITION" source="#positions" />
        </vertices>
        <triangles material="scout_b2b2b2" count="90">
          <input semantic="VERTEX" source="#vertices" offset="0" />
          <input semantic="NORMAL" source="#normals" offset="1" />
          <p>0 0 1 1 2 2 2 2 3 3 0 0 4 4 2 2 1 1 5 5 6 6 3 3 7 7 1 1 0 0 4 4 8 8 2 2 9 9 1 1 7 7 7 7 10 10 9 9 8 8 3 3 2 2 11 11 6 6 5 5 12 12 13 13 11 14 11 14 14 15 15 16 16 17 9 9 10 10 5 5 12 18 11 11 8 19 17 20 18 21 19 22 7 7 0 0 4 4 20 23 8 8 18 24 3 3 8 8 21 25 12 18 5 5 11 11 15 26 6 6 15 26 19 22 6 6 7 7 19 22 10 10 19 22 22 27 10 10 23 28 9 9 16 17 20 23 4 4 9 9 18 24 21 25 3 3 20 23 9 9 23 28 24 29 13 30 25 31 26 32 23 33 16 34 27 35 22 36 19 37 27 35 28 38 22 36 29 39 23 33 26 32 30 40 31 41 20 42 8 19 31 41 17 20 28 43 32 44 26 45 33 46 20 42 23 33 18 21 34 47 21 48 15 16 14 15 19 37 35 49 19 37 14 15 27 35 32 50 28 38 36 51 37 52 26 32 37 52 29 39 26 32 6 6 0 0 3 3 27 35 35 49 32 50 30 40 29 39 37 52 38 53 37 52 39 54 39 54 37 52 36 51 34 55 40 56 25 31 41 57 42 58 32 59 35 60 41 57 32 59 42 58 39 54 36 51 38 53 30 40 37 52 43 61 17 62 31 63 30 40 43 61 31 63 43 61 40 56 17 62 40 56 34 55 17 62 38 53 43 61 30 40 25 31 13 30 44 64 24 29 14 65 13 30 25 31 44 64 34 55 35 60 45 66 41 57 14 65 45 66 35 60 24 29 45 66 14 65 41 57 39 54 42 58 41 57 46 67 39 54 45 66 46 67 41 57 46 67 38 53 39 54 43 61 38 53 46 67 24 29 46 67 45 66 40 56 24 29 25 31 8 19 20 42 31 41 33 46 30 40 20 42 12 12 44 68 13 13 11 14 13 13 14 15 12 12 21 48 44 68 9 9 4 4 1 1 17 20 34 47 18 21 33 46 23 33 29 39 16 69 10 70 26 45 10 70 22 71 28 43 32 44 42 72 26 45 42 72 36 73 26 45 10 70 28 43 26 45 19 22 0 0 6 6 34 47 44 68 21 48 33 46 29 39 30 40 27 35 19 37 35 49 43 61 46 67 40 56 24 29 40 56 46 67 21 25 5 5 3 3</p>
        </triangles>
      </mesh>
    </geometry>
  </library_geometries>
  <library_visual_scenes>
    <visual_scene id="scene">
      <node id="left_shoulder_roll_link">
        <instance_geometry url="#geometry">
          <bind_material>
            <technique_common>
              <instance_material symbol="scout_b2b2b2" target="#scout_b2b2b2" />
            </technique_common>
          </bind_material>
        </instance_geometry>
      </node>
    </visual_scene>
  </library_visual_scenes>
  <scene>
    <instance_visual_scene url="#scene" />
  </scene>
</COLLADA>