<?xml version='1.0' encoding='utf-8'?>
<COLLADA xmlns="http://www.collada.org/2005/11/COLLADASchema" version="1.4.1">
  <asset>
    <created>2026-09-14T00:00:00Z</created>
    <modified>2026-09-14T00:00:00Z</modified>
    <unit name="metre" meter="1" />
    <up_axis>Z_UP</up_axis>
  </asset>
  <library_effects>
    <effect id="scout_b2b2b2_effect">
      <profile_COMMON>
        <technique sid="common">
          <lambert>
            <emission>
              <color>0 0 0 1</color>
            </emission>
            <ambient>
              <color>0.35 0.35 0.35 1</color>
            </ambient>
            <diffuse>
              <color>0.7 0.7 0.7 1</color>
            </diffuse>
          </lambert>
        </technique>
      </profile_COMMON>
    </effect>
  </library_effects>
  <library_materials>
    <material id="scout_b2b2b2" name="scout_b2b2b2">
      <instance_effect url="#scout_b2b2b2_effect" />
    </material>
  </library_materials>
  <library_geometries>
    <geometry id="geometry" name="left_wrist_pitch_link">
      <mesh>
        <source id="positions">
          <float_array id="positions_array" count="114">-0.0220334306 -0.0224280637 -0.0123083517 -0.0285743754 -0.0184809156 -0.00581768295 -0.0181594044 -0.01871497 -0.0227020681 0.0570289493 -0.0269912519 0.0170702077 0.0580027141 -0.0253833942 -0.0204825848 0.0713571608 -0.0123940939 0.0185676031 0.0734165013 0.00226070755 -0.0209454894 0.072005935 0.00872200634 0.0192591287 -0.0250390414 0.0176348593 -0.0137198968 -0.0143615585 0.0168144051 -0.0247908588 -0.0159524754 -0.0212628618 0.0222541932 -0.00421178853 0.0192578603 0.0274695195 -0.0231420603 0.0168285202 0.0172535889 -0.00373471272 0.0205097627 -0.0253040418 -0.0277820192 0.019179767 -0.00245853281 0.00251091714 0.0165989641 -0.029036114 -0.0199382156 0.0204706993 0.0162375234 0.0698759928 0.0161963627 -0.0188792404 0.0603772178 0.023887489 0.0187532008 0.0232971292 -0.022474492 -0.0188623667 -0.00313557894 -0.0212643091 -0.0275864713 0.0205883905 -0.0184534919 -0.022859849 0.0407197662 -0.0272852741 -0.0205917545 0.0711046979 -0.0120180249 -0.0208404176 0.0458530597 -0.0257232897 0.0204718821 0.0229064152 -0.0187057592 0.0212722644 0.0256845579 -0.0228924062 0.0168077331 -0.0257443301 -0.0208334532 0.0106460731 0.0209788401 0.020711489 -0.0186524764 0.0196407624 0.0168751832 -0.0229243599 0.0407841057 0.0284365918 -0.0187649541 0.0417425521 0.0276440755 0.0185116436 0.0613637753 0.0235044882 -0.0205690097 0.0424896851 0.0250799209 -0.0224561505 0.022283541 0.0210426804 0.0173220336 0.00738833239 0.0165158696 0.0277779419 0.0248768479 0.0178559776 0.020898018 0.00199879915 -0.020567663 0.0279526636</float_array>
          <technique_common>
            <accessor source="#positions_array" count="38" stride="3">
              <param name="X" type="float" />
              <param name="Y" type="float" />
              <param name="Z" type="float" />
            </accessor>
          </technique_common>
        </source>
        <source id="normals">
          <float_array id="normals_array" count="237">-0.424234569 -0.875488758 -0.231396735 -0.90403372 -0.398224682 -0.155370861 -0.557547212 -0.423046201 -0.714263976 0.714190423 -0.699857831 -0.0114456983 0.713995755 -0.700058639 -0.0113124913 0.714107335 -0.699943542 -0.0113888457 0.999376893 0.0352702253 0.00136035681 0.953575373 0.296483487 0.0528353527 0.997749805 -0.0601057224 0.0297081806 -0.880284488 0.0283397846 -0.473599106 -0.469592631 0.0688117668 -0.880197525 -0.548912823 -0.0367352031 0.835071981 -0.280206531 0.0509618893 0.958586037 -0.760823488 0.312629879 0.568691611 -0.243341476 0.946338475 -0.212669626 -0.0938701779 0.993458331 -0.0650303215 -0.320690572 0.870309532 -0.373789877 -0.0573562197 0.997359455 -0.0445469767 -0.105674803 0.592995346 -0.798241377 0.0723290369 0.372436434 -0.925234914 -0.569553673 0.643626094 0.511227965 -0.693355203 0.67800051 0.244077474 0.846483827 0.532267988 0.0124880476 0.510952055 0.859049916 0.0310041551 -0.128456607 -0.741369724 -0.658687949 -0.0496387333 -0.0801164508 -0.995548785 0.121836521 -0.330286115 -0.935984492 -0.269181013 -0.76412493 -0.586220622 0.713911772 -0.700145185 -0.011255051 -0.0880192816 -0.996110737 0.00400421489 0.10954491 -0.993189335 -0.0396837741 -0.0751029029 -0.996947944 0.021316614 -0.216567591 -0.775755763 0.592706859 0.173588216 -0.339344621 0.924506545 -0.0735277534 -0.749891579 0.657462001 -0.096820794 -0.995170772 0.0161507707 0.0534272753 -0.031754531 0.998066723 0.0970821604 -0.045893807 0.994217694 0.240474045 -0.329694718 0.912947774 -0.999498904 0.0315962434 0.00190283277 -0.0918439552 0.755934596 -0.648172498 0.0636926293 0.732509673 -0.677770436 -0.0632124171 0.997738779 0.0228376146 -0.0551793501 0.998453617 0.00674996339 0.448834449 0.893568635 0.00909676403 -0.0449000634 0.736307025 -0.675156295 -0.112847216 0.70860213 -0.696525991 -0.909438372 -0.0223707706 0.415236592 0.127080962 0.762362063 -0.634550631 -0.176910296 0.984066665 0.0177635718 -0.188911602 0.981991649 -0.00218924042 0.102546968 0.0368177816 -0.994046569 0.374475718 0.228385776 -0.898670077 0.0686743185 0.0356063657 -0.997003496 -0.00976540707 0.742700219 0.669552803 0.171195716 0.791582525 0.586591125 -0.0593016669 0.723513901 0.687757909 -0.256214261 0.621893823 0.740001559 -0.131435737 -0.991195738 0.0159876272 0.0574312247 0.0297533963 0.997906029 0.207075328 0.0179296285 0.978160679 0.16662693 0.00266898307 -0.986016393 0.170984149 -0.00649748743 0.98525238 0.00996761676 -0.0743765831 0.997180402 -0.135881066 -0.990722537 0.00229017786 -0.0135758631 -0.999311566 0.0345267467 -0.0112115731 -0.999761164 0.0187586322 -0.0591256581 -0.987169147 -0.148327991 0.075151518 -0.0285648257 -0.996762931 0.987106025 -0.159875348 -0.00784946606 0.0271281693 -0.190190092 -0.981372416 0.0467164814 -0.0890839323 -0.994927943 0.0437790751 -0.0302991346 -0.998581648 -0.129017934 -0.990126312 -0.0548107438 0.175882712 0.974252105 -0.141060859 -0.0127939358 0.999882162 -0.00848503783 -0.0388964526 -0.0227463041 0.998984337 -0.00737557234 0.0276916921 0.999589324 0.171450227 0.791337311 0.586847544</float_array>
          <technique_common>
            <accessor source="#normals_array" count="79" stride="3">
              <param name="X" type="float" />
              <param name="Y" type="float" />
              <param name="Z" type="float" />
            </accessor>
          </technique_common>
        </source>
        <vertices id="vertices">
          <input semantic="POSITION" source="#positions" />
        </vertices>
        <triangles material="scout_b2b2b2" count="72">
          <input semantic="VERTEX" source="#vertices" offset="0" />
          <input semantic="NORMAL" source="#normals" offset="1" />
          <p>0 0 1 1 2 2 3 3 4 4 5 5 6 6 7 7 5 8 2 2 8 9 9 10 10 11 11 12 12 13 8 14 13 15 9 16 14 17 13 15 8 14 9 10 13 18 15 19 12 13 16 20 14 21 11 12 16 20 12 13 17 22 18 23 7 7 19 24 20 25 21 26 21 26 22 27 19 24 23 28 5 5 4 4 22 29 4 30 3 31 1 1 8 9 2 2 24 32 25 33 26 34 27 35 1 1 0 0 5 36 24 37 3 38 1 1 14 39 8 9 13 18 28 40 15 19 28 40 29 41 15 19 30 42 31 43 32 44 9 10 15 19 20 25 28 40 33 45 29 41 28 40 30 46 33 45 27 47 12 13 14 39 30 46 32 48 33 45 28 49 34 50 31 43 32 51 17 52 6 53 34 54 35 55 36 56 31 57 34 54 36 56 3 31 26 58 22 29 31 59 36 60 24 37 21 26 15 19 29 61 2 2 9 10 20 25 12 13 27 47 10 11 25 33 35 62 37 63 14 39 1 1 27 47 37 63 11 12 10 11 19 64 26 58 37 65 37 65 10 66 19 64 20 67 19 64 0 0 10 66 27 35 19 64 19 64 27 35 0 0 33 68 21 26 29 61 5 8 23 69 6 6 22 29 26 58 19 64 22 70 21 26 4 71 4 71 21 26 23 72 21 26 33 68 32 51 32 51 6 53 21 26 21 26 6 53 23 72 36 60 35 62 25 33 25 33 37 63 26 34 32 44 31 43 18 23 24 73 26 58 3 31 16 74 11 75 14 17 11 75 28 49 13 15 13 15 14 17 11 75 24 37 5 36 31 59 31 59 5 36 7 76 7 76 18 77 31 59 18 23 17 22 32 44 34 50 28 49 11 75 36 60 25 33 24 37 6 6 17 22 7 7 28 49 31 43 30 42 20 25 15 19 21 26 35 55 34 54 11 78 35 62 11 12 37 63 20 67 0 0 2 2</p>
        </triangles>
      </mesh>
    </geometry>
  </library_geometries>
  <library_visual_scenes>
    <visual_scene id="scene">
      <node id="left_wrist_pitch_link">
        <instance_geometry url="#geometry">
          <bind_material>
            <technique_common>
              <instance_material symbol="scout_b2b2b2" target="#scout_b2b2b2" />
            </technique_common>
          </bind_material>
        </instance_geometry>
      </node>
    </visual_scene>
  </library_visual_scenes>
  <scene>
    <instance_visual_scene url="#scene" />
  </scene>
</COLLADA>