<?xml version='1.0' encoding='utf-8'?>
<COLLADA xmlns="http://www.collada.org/2005/11/COLLADASchema" version="1.4.1">
  <asset>
    <created>2026-09-14T00:00:00Z</created>
    <modified>2026-09-14T00:00:00Z</modified>
    <unit name="metre" meter="1" />
    <up_axis>Z_UP</up_axis>
  </asset>
  <library_effects>
    <effect id="scout_b2b2b2_effect">
      <profile_COMMON>
        <technique sid="common">
          <lambert>
            <emission>
              <color>0 0 0 1</color>
            </emission>
            <ambient>
              <color>0.35 0.35 0.35 1</color>
            </ambient>
            <diffuse>
              <color>0.7 0.7 0.7 1</color>
            </diffuse>
          </lambert>
        </technique>
      </profile_COMMON>
    </effect>
  </library_effects>
  <library_materials>
    <material id="scout_b2b2b2" name="scout_b2b2b2">
      <instance_effect url="#scout_b2b2b2_effect" />
    </material>
  </library_materials>
  <library_geometries>
    <geometry id="geometry" name="left_wrist_yaw_link">
      <mesh>
        <source id="positions">
          <float_array id="positions_array" count="108">-0.0162248947 -0.00839840807 -0.024037838 -0.0172330476 0.00586670963 -0.0236482043 -0.00583597412 0.00109461322 -0.0311212968 -0.00733724516 -0.017000908 -0.0241042785 -0.00614301488 -0.00133702985 -0.0296128113 -0.00736153824 -0.0012815115 0.0300792158 -0.0182347149 0.00330572412 0.0229529273 -0.0160702523 -0.00854458567 0.0223778933 -0.00464034546 -0.0173796341 0.023870131 -0.00605684519 0.00267422548 0.0289153662 -0.00912360381 0.016367184 -0.0240767263 0.0276605561 0.0197518896 -0.021695476 0.036796093 0.0116260322 -0.0260403883 0.0371023789 0.0253664684 -0.0123224948 0.0284213815 -0.023348216 -0.00202540611 0.0376582928 -0.0201297887 -0.0197529048 0.0273518451 -0.0200563762 -0.021245027 -0.00831818022 0.0162913427 0.02408804 0.0373989902 0.00448492123 -0.0310790557 0.0409657434 -0.0170709006 -0.0156166404 0.0364762768 -0.021869339 -0.0218901206 0.027639851 -0.0196081083 0.0210694727 0.0357291624 -0.00860594492 0.0276270937 0.0381705575 0.0268171094 0.0118517773 0.0363877527 0.0143158259 0.0270388331 0.0390423387 0.00174200663 0.029201448 0.0281242486 0.0298881754 -0.000542721711 0.0408858508 -0.0165679511 0.0170854237 0.0363270529 -0.021745123 0.0215548705 0.0356676094 -0.00570078334 -0.029145604 0.0377180129 -0.0186496302 0.0204894152 0.0369529948 0.0273751002 0.00884143356 0.0270566288 0.0197573137 0.0212515295 0.0368073322 0.0113015287 0.0263278428 0.041257184 0.0205708556 -0.0129108047 0.0366730951 0.0278493129 -0.0133375488</float_array>
          <technique_common>
            <accessor source="#positions_array" count="36" stride="3">
              <param name="X" type="float" />
              <param name="Y" type="float" />
              <param name="Z" type="float" />
            </accessor>
          </technique_common>
        </source>
        <source id="normals">
          <float_array id="normals_array" count="246">-0.418112874 -0.203092396 -0.88540113 -0.495698869 0.154501691 -0.854641378 -0.208935007 0.0170511995 -0.977780879 0.115732983 0.347787917 0.930402815 0.185755402 0.0160190091 0.982465446 0.380919576 0.17320095 0.908240974 -0.253110468 -0.0529619679 0.965986609 -0.52251035 0.0801852793 0.848854125 -0.494114161 -0.280202419 0.823005319 -0.109191239 -0.364598572 0.924740553 0.365975022 0.202633172 -0.908296287 0.193185523 -0.0506567024 -0.97985369 0.124299124 0.288659185 -0.949329019 0.400218457 -0.134444609 0.906504154 -0.186714575 0.396651685 -0.898779809 0.43826291 -0.0303340796 -0.898334801 -0.0886117369 -0.636318743 0.76632005 -0.0896683037 -0.406083822 0.909425914 -0.0793319494 -0.896341622 0.436208755 -0.0175557043 0.985332549 0.169739634 -0.180332094 0.344961077 0.921130896 0.954344273 0.0289304163 -0.29730463 0.967246771 -0.0838093981 -0.239603192 0.861879408 -0.193598628 -0.468704075 -0.0573065802 0.541898668 -0.838487804 -0.0463211611 0.26742202 -0.962465465 0.131752536 -0.293294042 0.946900129 0.977983057 0.178705007 0.107766524 0.917599916 0.247256935 0.311246485 0.982407391 0.0577030405 0.1776122 -0.10354276 -0.344486177 -0.933063865 -0.203033641 -0.966935694 -0.154313684 -0.105312258 -0.987623513 -0.116228953 0.0869964287 -0.996206284 -0.00215938129 0.0170997865 -0.0758303255 0.996974111 0.13098526 -0.311856538 -0.941057026 -0.118818492 -0.804882348 0.581417739 -0.234752893 -0.953855157 0.187220126 0.0517793968 0.526554048 -0.848563313 0.0968737677 0.565290749 -0.819183648 0.956903696 -0.10792356 0.269606829 0.811191797 -0.263706803 0.521945059 0.0204786807 -0.311646432 0.949977458 -0.154073685 -0.980946422 0.118344687 0.727302253 -0.686302781 0.0044604009 0.729579329 -0.683877528 0.00504951924 0.750673771 -0.660587847 0.0106104603 -0.0408857465 0.184025601 0.982070744 0.0160250813 -0.338751167 -0.940739512 0.0110901212 -0.32955718 -0.944070458 -0.0966927186 0.994646966 -0.0364406854 -0.36822027 0.924107015 -0.102176361 -0.178517029 0.982321084 -0.0563641377 0.0637664869 -0.872380674 -0.484650135 -0.0701065958 -0.631541312 -0.772166193 0.178287998 -0.895597339 -0.40757677 -0.100756295 0.562999964 -0.820292175 -0.0830432698 -0.38508293 -0.919138134 -0.0264950525 0.770258665 0.637180984 0.00980511494 0.481233746 0.876537442 -0.147579208 0.866717935 0.476466537 -0.997879565 -0.0181570966 -0.0625035316 -0.99973911 -0.0195897948 -0.0117444806 -0.997877777 -0.00888052769 -0.0645059794 -0.999929368 -0.00663405936 0.00986175332 -0.998843431 -0.00444800034 0.047875572 -0.998779714 -0.0180130173 0.045984637 0.931949794 0.296132654 -0.20922488 -0.244015932 -0.958568573 0.146977887 -0.950566649 0.0313188322 -0.308937073 0.755534053 -0.655000985 0.0119194966 -0.356065542 -0.93051368 0.0858001262 0.830698907 0.510113776 -0.22298719 0.185945228 0.597860992 -0.779734969 -0.110198043 -0.623734057 -0.773829579 -0.386942446 0.834835947 -0.391566753 -0.569684446 0.808034003 -0.150135517 -0.971147716 0.0206722282 0.237581074 0.265376419 0.963853061 0.0237204675 -0.224223256 0.887879372 0.401738942 -0.117775284 0.530292928 0.839594185 -0.0622456148 0.508651793 0.858719289</float_array>
          <technique_common>
            <accessor source="#normals_array" count="82" stride="3">
              <param name="X" type="float" />
              <param name="Y" type="float" />
              <param name="Z" type="float" />
            </accessor>
          </technique_common>
        </source>
        <vertices id="vertices">
          <input semantic="POSITION" source="#positions" />
        </vertices>
        <triangles material="scout_b2b2b2" count="68">
          <input semantic="VERTEX" source="#vertices" offset="0" />
          <input semantic="NORMAL" source="#normals" offset="1" />
          <p>0 0 1 1 2 2 3 3 4 4 0 5 5 6 6 7 7 8 8 9 5 6 7 8 7 10 9 11 8 12 1 13 0 5 4 4 10 14 2 2 1 1 6 15 9 11 7 10 11 16 12 17 13 18 14 19 15 19 16 19 6 7 5 6 17 20 18 21 19 22 20 23 21 24 8 12 22 25 4 4 12 17 10 26 23 27 24 28 25 29 3 30 0 0 2 2 16 31 20 32 14 33 25 34 5 6 8 9 17 35 9 11 6 15 16 36 3 36 20 36 11 16 13 18 26 37 18 38 10 14 11 39 27 40 25 29 28 41 28 42 25 34 8 9 20 32 28 43 14 33 10 14 18 38 2 2 20 44 19 45 28 46 29 47 4 4 3 3 3 30 18 48 20 49 30 50 15 51 21 52 31 53 32 54 26 55 21 24 22 25 30 56 32 54 31 53 33 57 32 58 24 59 23 60 32 58 17 20 24 59 8 12 9 11 22 25 33 61 31 62 30 63 31 62 13 64 30 63 13 64 12 65 30 63 30 63 12 65 15 66 23 27 25 29 34 67 34 67 25 29 27 40 34 67 27 40 19 22 21 68 14 33 28 43 22 69 33 61 30 63 28 46 19 45 27 70 34 67 19 22 18 21 24 59 5 6 25 34 31 71 26 37 13 18 22 25 9 11 33 57 2 2 18 48 3 30 35 72 34 67 18 21 33 57 9 11 32 54 18 38 11 39 35 73 28 74 8 74 21 74 10 26 12 17 11 16 4 4 10 26 1 13 11 75 26 75 35 75 15 51 14 76 21 52 15 66 12 65 29 77 9 11 17 35 32 54 17 20 5 6 24 59 26 78 23 78 35 78 26 79 32 58 23 60 15 80 29 47 16 81 12 17 4 4 29 47 29 47 3 3 16 81 23 27 34 67 35 72</p>
        </triangles>
      </mesh>
    </geometry>
  </library_geometries>
  <library_visual_scenes>
    <visual_scene id="scene">
      <node id="left_wrist_yaw_link">
        <instance_geometry url="#geometry">
          <bind_material>
            <technique_common>
              <instance_material symbol="scout_b2b2b2" target="#scout_b2b2b2" />
            </technique_common>
          </bind_material>
        </instance_geometry>
      </node>
    </visual_scene>
  </library_visual_scenes>
  <scene>
    <instance_visual_scene url="#scene" />
  </scene>
</COLLADA>