<?xml version='1.0' encoding='utf-8'?>
<COLLADA xmlns="http://www.collada.org/2005/11/COLLADASchema" version="1.4.1">
  <asset>
    <created>2026-09-14T00:00:00Z</created>
    <modified>2026-09-14T00:00:00Z</modified>
    <unit name="metre" meter="1" />
    <up_axis>Z_UP</up_axis>
  </asset>
  <library_effects>
    <effect id="scout_b2b2b2_effect">
      <profile_COMMON>
        <technique sid="common">
          <lambert>
            <emission>
              <color>0 0 0 1</color>
            </emission>
            <ambient>
              <color>0.35 0.35 0.35 1</color>
            </ambient>
            <diffuse>
              <color>0.7 0.7 0.7 1</color>
            </diffuse>
          </lambert>
        </technique>
      </profile_COMMON>
    </effect>
  </library_effects>
  <library_materials>
    <material id="scout_b2b2b2" name="scout_b2b2b2">
      <instance_effect url="#scout_b2b2b2_effect" />
    </material>
  </library_materials>
  <library_geometries>
    <geometry id="geometry" name="left_wrist_roll_link">
      <mesh>
        <source id="positions">
          <float_array id="positions_array" count="108">0.044497814 0.0248811673 -0.0163578428 0.0141627071 0.0224728044 -0.0180068873 0.000230843929 0.0264433511 -0.0149296438 0.0112626031 -0.0222854856 -0.0193892792 0.000438641408 -0.0275615063 -0.0131925028 0.000498564914 -0.0115234125 -0.0286908317 0.00165849784 0.0272041708 0.00944980141 0.0418224595 0.0294391103 -0.00178454723 0.0452964194 0.0230849795 0.0168599896 0.0545282587 0.0229496006 0.00717375334 0.0439676605 0.029868111 0.00462531811 0.0541846529 -0.0235589109 0.00923821516 0.0510056913 -0.0238711182 -0.0143261924 0.0434167832 -0.0287833773 -0.00546569843 0.00167290354 -0.0267402027 0.013254188 0.0441343263 -0.0244772378 0.0165346321 0.0431385003 -0.0298639908 0.00696291914 0.0543899946 0.0235028435 -0.00741154701 0.0456880033 -0.0302914958 -0.00455968222 0.00173684594 0.026570512 -0.0120304637 0.00880552363 0.0143578034 -0.0258384645 0.000684986066 -0.00757771498 0.029981479 0.00967058167 -0.0117217377 0.0269005075 0.00968313124 0.00484669069 0.0290672462 0.00156945654 -0.00949120987 0.0272068065 0.000761639152 0.0292478707 0.0106779682 0.000568613759 0.0136321923 0.0269773211 0.000599826628 0.0122641465 -0.0277701542 0.00049779861 -0.0290554557 0.012385576 0.00943754427 -0.00471228454 -0.0299215969 0.00163242046 0.0116642313 -0.0264938995 0.00163671316 -0.0107498793 -0.0268900804 0.00157560175 -0.0266645048 -0.0127756177 0.0113066006 0.0216495004 0.0194647238 0.00175371231 0.0147932461 0.025381336 0.0104397591 -0.021737596 0.0196703896</float_array>
          <technique_common>
            <accessor source="#positions_array" count="36" stride="3">
              <param name="X" type="float" />
              <param name="Y" type="float" />
              <param name="Z" type="float" />
            </accessor>
          </technique_common>
        </source>
        <source id="normals">
          <float_array id="normals_array" count="246">-0.00447422825 0.602719307 -0.797940731 0.00885837991 0.631790042 -0.775088966 0.016510101 0.66388011 -0.747656763 0.0307351518 -0.730801642 -0.681897521 -0.0326964892 -0.909426391 -0.414577603 0.154657051 -0.552943408 -0.818739712 0.0647305623 -0.955473721 -0.287888765 -0.165608376 -0.986185431 -0.00348138646 -0.133371577 -0.939158738 -0.316532701 0.502301753 0.840911448 0.201397166 0.218870938 0.968806267 0.116232321 0.199640974 0.855767131 0.477290362 -0.296414465 0.9475407 -0.119603939 -0.496125698 0.866478264 0.0554498024 -0.18271178 0.975438356 0.123030037 0.0740538836 0.917276263 -0.391305923 -0.103470124 0.968981802 -0.224428564 0.508345842 -0.836660206 0.203922078 0.186180443 -0.851889431 0.489511251 0.204610944 -0.945181072 0.254493713 0.40236187 0.906093776 -0.130763203 0.31053251 -0.932700694 -0.183409423 0.699964285 -0.709097505 -0.0850337744 0.0544548817 -0.767117739 0.639190912 0.0767577663 -0.921498001 0.380722523 0.157491162 -0.69830966 0.698255062 -0.144116029 -0.944189608 0.296203554 -0.389890909 -0.915901423 0.095444791 0.110530749 0.973330259 -0.201025367 0.158617958 -0.0422906689 0.986433923 0.269697905 -0.125066921 0.954788625 0.0779105127 0.183194593 0.979984522 0.274313062 -0.0305145085 -0.961156189 0.0793453455 0.412778169 -0.907369018 0.131356239 0.306662381 -0.942710817 -0.351756901 -0.920860231 -0.168176994 -0.999861598 0.00930969138 0.0137898456 -0.99994272 -0.01048363 0.00216988241 -0.999997497 0.00131636288 0.00180946849 -0.999770045 -0.00828694366 -0.0197791345 -0.999971271 -0.00743952533 -0.0014606968 -0.999979496 0.00563107803 0.00305132149 -0.999987781 0.00455420697 0.0019251504 -0.999976397 0.00632834155 0.00268237642 0.248871922 -0.478758246 -0.841934264 0.0696721151 -0.0615956746 0.995666504 -0.0844149217 -0.0176258292 0.996274769 0.324249893 -0.131815374 0.936742604 -0.0115253106 0.618070126 0.786038518 -0.217972472 0.648040354 0.729747653 0.0650387779 0.91312325 0.402462333 0.028243918 0.711864889 0.701748252 0.0894749612 0.462924987 0.881869972 -0.0406716093 -0.91682297 0.397217214 0.999995351 0.00303594093 0.000307773793 0.999967217 -0.0071734786 -0.00375882909 0.999999881 -0.00043291293 0.000248557306 0.999998748 -0.00149237947 -0.000478285539 0.999996066 -0.00281329942 6.4191343e-05 0.999992669 -0.00373474625 -0.000846643583 0.999986768 -0.00475851726 -0.00194880774 0.999923706 0.0119023016 0.0032960549 0.0741446093 0.527074516 -0.846578419 -0.0964323804 0.0755751878 -0.992466211 0.0539123006 0.388055295 -0.920057893 0.0974273309 0.705918312 -0.701560557 0.46853888 -0.17008847 0.866914809 -0.0350202993 0.881293654 0.471269667 0.137674972 0.72104764 0.679069936 0.0491941646 -0.840049207 -0.540275156 0.032980293 -0.7949965 -0.605716765 -0.069761388 -0.594243407 -0.801254094 -0.0739964768 -0.651279688 0.755221307 -0.0531891435 -0.624410331 0.779283404 -0.0079718614 0.770958483 0.636835515 0.00878544897 0.989308 -0.145576373 0.192570075 -0.684026539 0.703579783 -0.0269237272 -0.633368194 0.773382127 -0.165285543 0.0388457924 -0.985480428 -0.193259999 -0.472678393 -0.859782338 0.0315288268 0.993491054 -0.109459803 0.343655884 -0.0729860365 -0.936255157</float_array>
          <technique_common>
            <accessor source="#normals_array" count="82" stride="3">
              <param name="X" type="float" />
              <param name="Y" type="float" />
              <param name="Z" type="float" />
            </accessor>
          </technique_common>
        </source>
        <vertices id="vertices">
          <input semantic="POSITION" source="#positions" />
        </vertices>
        <triangles material="scout_b2b2b2" count="68">
          <input semantic="VERTEX" source="#vertices" offset="0" />
          <input semantic="NORMAL" source="#normals" offset="1" />
          <p>0 0 1 1 2 2 3 3 4 4 5 5 6 6 7 7 8 8 9 9 10 10 8 11 11 12 12 13 13 14 14 15 15 16 13 14 11 17 15 18 16 19 15 16 11 12 13 14 10 10 9 9 17 20 11 17 16 19 18 21 11 17 18 21 12 22 1 23 19 24 20 25 7 7 0 26 17 27 0 28 10 10 17 20 21 29 22 30 23 31 23 32 22 33 24 34 8 8 7 7 9 35 25 36 2 37 21 38 26 39 25 36 21 38 21 38 2 37 27 40 28 41 21 38 27 40 28 41 27 40 5 42 28 41 5 42 4 43 3 3 5 5 29 44 20 45 30 46 31 47 29 48 31 49 32 50 33 51 26 52 23 31 7 7 6 6 19 24 4 4 18 21 28 53 14 54 32 55 31 56 14 54 31 56 24 57 31 56 30 58 24 57 30 58 19 59 24 57 24 57 19 59 34 60 34 60 19 59 6 61 20 62 29 63 27 64 16 19 15 18 28 53 19 24 0 26 7 7 14 15 24 34 35 65 31 47 29 66 20 45 12 67 3 68 32 50 32 50 3 68 29 48 4 4 12 69 18 21 33 70 34 71 6 6 32 50 13 14 12 67 2 2 1 1 20 62 12 69 4 4 3 3 35 72 22 73 28 53 26 52 33 51 25 74 2 2 20 62 27 64 21 29 23 31 26 52 25 75 10 10 0 28 20 25 19 24 30 76 22 73 21 77 28 53 29 63 5 78 27 64 34 71 33 70 23 79 0 28 2 80 25 75 8 8 33 70 6 6 25 74 33 51 8 11 1 23 0 26 19 24 15 18 35 72 28 53 35 65 24 34 22 33 28 53 18 21 16 19 13 14 32 50 14 15 34 81 23 32 24 34 9 35 7 7 17 27 35 65 15 16 14 15 10 10 25 74 8 11</p>
        </triangles>
      </mesh>
    </geometry>
  </library_geometries>
  <library_visual_scenes>
    <visual_scene id="scene">
      <node id="left_wrist_roll_link">
        <instance_geometry url="#geometry">
          <bind_material>
            <technique_common>
              <instance_material symbol="scout_b2b2b2" target="#scout_b2b2b2" />
            </technique_common>
          </bind_material>
        </instance_geometry>
      </node>
    </visual_scene>
  </library_visual_scenes>
  <scene>
    <instance_visual_scene url="#scene" />
  </scene>
</COLLADA>