<?xml version='1.0' encoding='utf-8'?>
<COLLADA xmlns="http://www.collada.org/2005/11/COLLADASchema" version="1.4.1">
  <asset>
    <created>2026-09-14T00:00:00Z</created>
    <modified>2026-09-14T00:00:00Z</modified>
    <unit name="metre" meter="1" />
    <up_axis>Z_UP</up_axis>
  </asset>
  <library_effects>
    <effect id="scout_b2b2b2_effect">
      <profile_COMMON>
        <technique sid="common">
          <lambert>
            <emission>
              <color>0 0 0 1</color>
            </emission>
            <ambient>
              <color>0.35 0.35 0.35 1</color>
            </ambient>
            <diffuse>
              <color>0.7 0.7 0.7 1</color>
            </diffuse>
          </lambert>
        </technique>
      </profile_COMMON>
    </effect>
  </library_effects>
  <library_materials>
    <material id="scout_b2b2b2" name="scout_b2b2b2">
      <instance_effect url="#scout_b2b2b2_effect" />
    </material>
  </library_materials>
  <library_geometries>
    <geometry id="geometry" name="left_knee_link">
      <mesh>
        <source id="positions">
          <float_array id="positions_array" count="342">0.0151780127 0.0277532637 0.0369367115 0.0101425005 0.0178137477 0.0389046296 0.0638339967 0.00537039759 0.0166893825 0.0636636764 -0.00822437182 0.0162989516 0.0616481788 0.00379085517 -0.0438924022 0.0593880229 -0.0135621363 -0.0713194013 0.0576016046 -0.00267764693 -0.110442869 0.0612337254 0.0195959099 -0.000759848219 0.0628276244 0.0128788538 0.0151913958 0.0599822886 0.0160423871 -0.0539375953 0.0555136129 0.00760281412 -0.130967811 -0.0391884819 0.0273219179 0.00697677489 -0.0397671275 0.0276507381 0.00130475033 -0.0398439169 0.017723741 0.0034539348 0.0191152152 0.0321208388 0.0327624716 0.0629041046 -0.012153334 0.0156491362 0.0622217469 -0.0163211767 0.010269952 0.0547366515 -0.0159986876 -0.125826269 0.0622834079 0.0155780418 0.0119072935 0.0572311692 0.0271546897 -0.055646047 0.0552028231 0.0161591098 -0.120261617 0.0079040397 0.0280845892 0.0389994681 -0.00734553253 0.017572416 -0.308650702 -0.0164308511 0.0352590904 -0.133063331 -0.00225425488 0.0181285199 -0.311048418 -0.000832467806 0.027351236 0.0399703793 -0.000340589992 0.017162336 0.0399874151 0.0585411415 -0.0269005783 -0.0270690434 0.0560748354 -0.0287324153 -0.0661699995 0.0535469167 -0.00297275186 -0.152774751 0.0567670651 0.0296530109 -0.0322112739 0.0253936872 0.0336543731 0.0252614021 0.0539129078 0.026769368 -0.104961038 0.00748652685 0.0318381861 0.0372444391 -0.00520137046 0.0320450552 0.0376196615 0.0209587496 0.0346547551 0.022870373 -0.00196477328 0.0345667712 0.0307603776 0.0108444765 0.0337259769 0.0339003541 -0.00481967814 0.0337527655 0.0350281969 -0.009209604 0.0168731604 0.0388875939 0.0620381981 -0.0147191901 0.0139372041 0.0534204096 -0.0321341753 -0.0354043134 0.0527527668 -0.0282350928 -0.111388832 0.0325626656 -0.0170284379 -0.307432264 0.0321642943 0.0338426866 0.0151095996 0.0539765246 0.0303551611 -0.0766084418 -0.00312378467 0.0165006481 -0.311825961 0.0247155074 0.0177303702 -0.315030307 -0.00435991585 -0.0163062401 -0.311573386 0.0321103744 0.0178490821 -0.309389263 0.0452093966 0.0347220451 -0.069894731 0.0357420146 0.0348378755 -0.117569871 0.0256950893 0.0351658016 -0.122312807 -0.0222104508 0.0337541625 0.0279731452 -0.010995023 0.0274286177 0.0383915193 -0.019688312 0.0173988473 0.0349001326 -0.019818984 0.0156996176 0.0335791036 -0.022431368 -0.0352741443 -0.051875744 0.0440038778 -0.0345510244 -0.0400858968 0.0303041842 -0.0172005855 -0.311947614 0.0476376675 -0.0307482909 -0.135264218 -0.017744543 0.0358261727 -0.0975967348 0.0506694689 0.0328542516 -0.0797927752 0.0462099388 0.0312655494 -0.137187615 0.050901778 0.0296056848 -0.118694723 -0.0194512885 0.0345701054 0.0237383116 -0.0187793821 0.0273720771 0.0351774544 -0.028588485 0.0171030592 0.0278599672 -0.0309181064 -0.0348959751 -0.0571616702 0.0437887087 -0.0349051468 -0.0730254203 0.0509969778 -0.0326703489 -0.0822029859 0.0495486706 0.0337375887 -0.0386459753 0.0400772803 -0.0326997451 -0.144786119 0.0289714839 0.0178871509 -0.313140005 -0.0211600121 0.0316853747 0.0319037512 -0.0365193635 0.0155243706 -0.100208417 0.0413990468 0.033412829 -0.132156119 -0.0309809819 0.0344734639 0.00674570352 -0.0310650486 0.0272141173 0.0250417273 -0.0324583463 0.0319586433 0.0196230933 -0.0251495093 0.0279112514 0.0308259521 -0.0343296491 0.0173304547 0.0203410592 0.0411689617 -0.0345553234 -0.11444325 -0.0178665742 -0.0355827101 -0.129037663 0.029179778 -0.0343953781 -0.136308819 0.00627977215 -0.0191600285 -0.309593409 0.0245865304 -0.0172100402 -0.315035522 0.0315334648 0.0335958451 -0.14455089 -0.0118163209 0.0156714246 -0.303346127 -0.0106494743 0.0167676285 -0.305830896 -0.0114964517 -0.0157878716 -0.304582119 -0.0365457684 0.0275472477 0.0158945285 -0.0376332663 0.0318453647 0.00518612983 -0.0226723514 0.0350659676 -0.124375232 -0.0342373289 0.0337161906 0.00966716465 -0.0375805348 0.0177281685 0.0137091363 -0.0340957642 -0.0346042104 -0.0638728067 -0.00106612535 -0.0360412784 -0.0953118652 -0.0283768289 -0.0349337123 -0.108454347 0.00561823463 0.0190801304 -0.309576303 -0.0347649977 0.0341553092 -0.0817733929 -0.0319482014 0.0342586748 -0.100920722 -0.0353226885 -0.0343927965 -0.0715464279 -0.00178764528 -0.0181351341 -0.311388552 -0.0351680368 -0.0342880748 -0.0777532309 -0.0320314318 -0.0336886719 -0.105874933 -0.0109089389 -0.0171596445 -0.304008722 -0.00732668908 -0.0176614355 -0.308649302 -0.00747646019 0.0161299612 -0.309756994 -0.0332909338 0.0229759105 -0.160168096 -0.0363722891 -0.016355196 -0.1021882 -0.03300111 -0.0247190464 -0.144216284 -0.0336418152 0.00294596772 -0.173908576 -0.0088176569 -0.0159609243 -0.308499604</float_array>
          <technique_common>
            <accessor source="#positions_array" count="114" stride="3">
              <param name="X" type="float" />
              <param name="Y" type="float" />
              <param name="Z" type="float" />
            </accessor>
          </technique_common>
        </source>
        <source id="normals">
          <float_array id="normals_array" count="402">0.356261373 0.254338682 0.899104893 0.205690548 -0.194660664 0.959061325 0.411893398 0.0670973063 0.908758342 0.32520774 -0.143071234 0.934756935 0.996101737 -0.0836503655 -0.0279987156 0.998627484 0.0235253535 -0.0467937887 0.997947395 0.0531583764 -0.0357097201 0.9882465 -0.140690938 -0.0597908497 0.996738851 -0.0270257443 -0.076034531 0.984559357 0.171908349 -0.0330213793 0.990348995 0.134287894 -0.0342866704 0.985512614 0.160371214 -0.055190295 0.509176731 0.453255922 0.731640697 0.989961624 0.098042205 -0.101802289 -0.959449053 0.200440779 0.198194325 -0.972668648 0.231065616 0.0228983611 -0.980951369 -0.148867533 0.12479125 0.37310499 0.668567002 0.643281341 0.150963426 -0.436471969 0.886962354 0.971888483 -0.229110733 0.0542316064 0.982487142 -0.186181828 -0.00743878633 0.975076735 -0.198110312 -0.0998880938 0.986339092 0.161901951 -0.0303805415 0.916107595 0.397907674 -0.0491558537 0.97472012 0.202968299 -0.0934050083 0.177158266 0.242092133 0.953942537 -0.206882343 0.972160578 -0.110016137 -0.0752637833 0.994486332 -0.0730226189 -0.114877298 0.983605325 -0.139010087 -0.0145057393 0.215893179 0.97630924 -0.0218144916 -0.350957483 0.936137259 0.828175962 -0.557271481 0.0597753152 0.85790503 -0.511760235 -0.0458303988 0.992006421 -0.0410005413 -0.119340792 0.721317232 0.690630555 0.0522572473 0.349215984 0.865049481 0.360191017 0.526159883 0.76638329 0.368527383 0.918815017 0.387092322 -0.0770620704 0.124860726 0.653607488 0.746463001 -0.115447186 0.641220331 0.758622706 0.0754728317 0.992939055 0.0915197432 -0.00569415744 0.994204581 0.107353687 0.128728494 0.905315757 0.404762119 -0.064411059 0.920863211 0.384528488 -0.224819481 -0.44778505 0.865415931 -0.0718702674 -0.782160103 0.618918657 0.860138714 -0.450217664 0.239719644 0.424069375 -0.896589398 0.127642721 -0.0494406335 -0.92395699 0.37928763 0.859295666 -0.505153596 -0.0801926628 0.795362294 -0.552514732 -0.249251559 0.331785291 0.925038695 0.184991747 0.518469632 0.830332935 0.204295143 0.761287689 0.64650321 -0.049745176 -0.2914868 0.275328308 -0.91609484 0.151968405 0.00892497879 -0.988345027 -0.368609607 -0.270043731 -0.889496088 0.731598496 0.591190577 -0.339495659 0.161409944 0.98686862 -0.00610015588 0.0982365906 0.994770825 -0.0279389229 0.0298392642 0.998984098 -0.0337690003 -0.301818788 0.888087213 0.346708208 -0.280146331 0.238691211 0.929808855 -0.467589021 -0.271154195 0.841329873 -0.360003233 -0.694589794 0.622850478 -0.158972993 -0.946633101 0.280380756 0.077249676 -0.983173013 0.165539324 0.715356112 -0.0122971553 -0.69865185 0.604138911 -0.790724754 -0.0988459066 -0.04432052 0.999006748 -0.00460523041 0.462653816 0.88553077 -0.0422687158 0.517453015 0.849819541 -0.100245483 0.759452999 0.643868148 -0.0930856243 -0.0665840805 0.994866192 0.0762089416 -0.44255653 0.210473448 0.871690691 -0.653040886 -0.395834267 0.645641387 -0.648279309 -0.649347961 0.397594213 0.156275213 -0.987710714 -0.00236527994 0.514176846 -0.856686354 -0.0413595885 0.298550785 0.953860164 0.0319097079 0.227636367 -0.96923995 -0.0935716778 0.106501795 -0.988771021 -0.104829542 0.601317704 0.00231049978 -0.799006641 -0.41504553 0.618198097 0.667509079 -0.998339295 0.0423809849 -0.0390186571 0.22963658 0.971130967 -0.0645888448 -0.12475913 0.991803885 0.0275727417 -0.753964484 0.230846182 0.615018427 -0.630296171 0.67088151 0.390697807 -0.63729322 0.248835623 0.729340911 -0.797230303 -0.341474384 0.497814268 0.196823359 -0.979624033 -0.0399661958 -0.0539134629 -0.998545587 -0.000249272416 -0.122618616 -0.989744484 -0.0732838884 0.0518712029 -0.996647477 -0.0632708892 -0.017577827 -0.972563684 -0.231971726 0.0626513138 -0.987714708 -0.143158823 0.179403454 -0.0114304535 -0.983709157 0.057258103 0.992850065 -0.104739174 0.0729183108 0.993907988 -0.0826425776 -0.937127531 0.243351832 -0.250143647 -0.736269891 0.54660368 -0.3989124 -0.8952021 -0.246560693 -0.371242493 -0.892347991 0.24666369 0.377984166 -0.756158292 0.646711409 0.0999450982 -0.218975127 0.973156691 -0.0708236098 -0.447694212 0.882055819 0.146790534 -0.906824648 -0.255526066 0.335224509 -0.913749993 -0.357263774 0.193451554 0.00160967291 -0.999996483 -0.00211825757 -0.0839720592 -0.996454298 -0.00524806883 -0.234369606 -0.970449209 -0.0574384592 0.0244749878 0.98704356 -0.158575028 -0.0339568332 0.975291669 -0.218295977 -0.674397588 0.737702489 -0.0313516296 -0.461358696 0.88466835 -0.0671565756 -0.992083132 -0.123963103 0.0201039277 -0.124221541 -0.992215157 -0.0088364305 -0.10507337 -0.983493984 -0.147306398 -0.188361928 -0.357373178 -0.914770007 -0.231967852 0.51962173 -0.822304189 -0.19602257 -0.980335593 -0.0227434766 -0.626061559 -0.773854375 -0.0958975032 -0.635735035 -0.73386687 -0.239333257 -0.169846043 -0.979567111 -0.107706018 -0.585416853 0.267294198 -0.765402496 -0.528161168 0.54643172 -0.64996779 -0.891584396 0.43887198 -0.11166323 -0.996775568 -0.0696239471 -0.0398873053 -0.99107641 -0.128819317 -0.0342507623 -0.91497916 -0.388376862 -0.109437168 -0.574531436 -0.491610289 -0.654395103 -0.992311895 -0.022586273 -0.12168406 -0.708565533 -0.265469521 -0.653804898</float_array>
          <technique_common>
            <accessor source="#normals_array" count="134" stride="3">
              <param name="X" type="float" />
              <param name="Y" type="float" />
              <param name="Z" type="float" />
            </accessor>
          </technique_common>
        </source>
        <vertices id="vertices">
          <input semantic="POSITION" source="#positions" />
        </vertices>
        <triangles material="scout_b2b2b2" count="224">
          <input semantic="VERTEX" source="#vertices" offset="0" />
          <input semantic="NORMAL" source="#normals" offset="1" />
          <p>0 0 1 1 2 2 1 1 3 3 2 2 3 4 4 5 2 6 3 4 5 7 4 5 6 8 4 5 5 7 7 9 8 10 9 11 8 10 2 6 9 11 8 12 0 0 2 2 6 8 10 13 4 5 10 13 9 11 4 5 11 14 12 15 13 16 8 12 14 17 0 0 1 1 15 18 3 3 15 19 16 20 3 4 16 20 5 7 3 4 17 21 6 8 5 7 18 22 8 10 7 9 9 11 19 23 7 9 10 13 20 24 9 11 1 1 0 0 21 25 22 26 23 27 24 28 25 29 1 1 21 25 25 29 26 30 1 1 26 30 15 18 1 1 27 31 5 7 16 20 27 31 28 32 5 7 28 32 17 21 5 7 17 21 29 33 6 8 29 33 10 13 6 8 30 34 7 9 19 23 31 35 8 12 18 36 31 35 14 17 8 12 32 37 19 23 9 11 20 24 32 37 9 11 25 29 33 38 34 39 35 40 36 41 37 42 36 41 38 43 37 42 35 40 37 42 31 35 39 44 40 45 26 30 40 45 15 18 26 30 16 20 15 19 40 46 41 47 27 31 16 48 42 49 17 21 28 32 17 21 43 50 29 33 30 34 44 51 7 52 44 51 18 36 7 52 45 53 30 34 19 23 44 51 31 35 18 36 46 54 47 55 48 56 29 33 49 57 10 13 49 57 20 24 10 13 50 58 51 59 52 60 44 51 35 40 31 35 36 41 53 61 38 43 39 44 26 30 25 29 54 62 39 44 25 29 55 63 56 64 39 44 56 64 57 65 39 44 57 65 40 45 39 44 57 65 16 48 40 45 57 65 58 66 16 48 58 66 41 47 16 48 28 32 27 31 41 47 59 67 49 57 43 50 49 57 29 33 43 50 17 21 42 49 43 50 42 49 60 68 43 50 61 69 35 40 50 58 45 53 19 23 32 37 62 70 30 34 45 53 49 57 32 37 20 24 63 71 64 72 49 57 64 72 32 37 49 57 65 73 53 61 36 41 66 74 55 63 54 62 55 63 39 44 54 62 55 63 67 75 56 64 67 75 68 76 56 64 68 76 57 65 56 64 58 66 69 77 41 47 69 77 70 78 41 47 71 79 30 34 62 70 70 78 42 49 28 32 41 47 70 78 28 32 60 68 72 80 43 50 72 80 59 81 43 50 59 67 73 82 49 57 71 79 35 40 44 51 54 62 74 83 66 74 64 72 62 70 45 53 75 84 13 16 12 15 76 85 63 71 49 57 77 86 65 73 61 69 78 87 74 83 79 88 23 27 61 69 52 60 80 89 55 63 66 74 80 89 67 75 55 63 81 90 68 76 67 75 82 91 70 78 69 77 57 65 68 92 83 93 70 78 60 68 42 49 84 94 85 95 59 81 85 95 86 96 59 81 72 80 84 94 59 81 59 67 86 97 73 82 86 97 47 55 73 82 71 79 50 58 35 40 62 70 50 58 71 79 63 71 62 70 64 72 76 85 50 58 62 70 73 98 87 99 49 57 88 100 89 101 90 102 91 103 92 104 11 14 87 99 23 27 52 60 93 105 61 69 23 27 77 86 94 106 53 61 94 106 79 88 53 61 67 75 80 89 78 87 91 103 95 107 81 90 95 107 68 76 81 90 95 107 96 108 68 76 97 109 57 65 83 93 68 92 96 110 83 93 96 110 98 111 83 93 70 78 82 91 60 68 82 91 72 80 60 68 82 91 84 94 72 80 63 71 76 85 62 70 76 85 51 59 50 58 47 112 99 113 73 98 99 113 87 99 73 98 100 114 77 86 61 69 100 114 94 106 77 86 93 105 101 115 61 69 101 115 100 114 61 69 99 113 23 27 87 99 23 27 22 26 93 105 22 26 89 101 93 105 91 103 81 90 78 87 81 90 67 75 78 87 95 107 13 16 96 108 13 16 102 116 96 108 96 110 102 117 98 111 34 39 37 42 38 43 83 93 85 95 84 94 85 95 103 118 86 96 103 119 48 56 86 97 48 56 47 55 86 97 45 53 32 37 64 72 46 54 24 120 47 55 87 99 52 60 51 59 100 114 92 104 94 106 99 113 24 28 23 27 89 101 101 115 93 105 37 42 14 17 31 35 11 14 95 107 91 103 11 14 13 16 95 107 102 117 104 121 98 111 104 121 105 122 98 111 105 122 106 123 98 111 106 123 83 93 98 111 106 123 107 124 83 93 33 38 0 0 14 17 24 28 99 113 47 112 100 114 12 15 92 104 108 125 89 101 22 126 88 100 109 127 89 101 109 127 101 115 89 101 110 128 102 116 13 16 110 128 104 129 102 116 111 130 105 122 104 129 105 122 111 130 106 123 107 124 103 118 83 93 103 118 85 95 83 93 107 131 48 56 103 119 48 56 108 125 46 54 108 125 24 120 46 54 108 125 22 126 24 120 101 115 109 127 100 114 100 114 109 127 12 15 112 132 110 128 75 84 112 132 111 130 110 128 111 130 104 129 110 128 112 132 90 102 111 130 90 102 106 123 111 130 90 102 107 131 106 123 90 102 113 133 107 131 113 133 48 56 107 131 53 61 34 39 38 43 113 133 89 101 108 125 90 102 112 132 88 100 112 132 109 127 88 100 112 132 75 84 109 127 2 6 4 5 9 11 90 102 89 101 113 133 30 34 71 79 44 51 12 15 11 14 92 104 61 69 36 41 35 40 37 42 33 38 14 17 25 29 21 25 33 38 50 58 52 60 61 69 82 91 69 77 97 109 92 104 79 88 94 106 54 62 34 39 74 83 75 84 110 128 13 16 78 87 80 89 74 83 80 89 66 74 74 83 97 109 58 66 57 65 76 85 49 57 87 99 75 84 12 15 109 127 69 77 58 66 97 109 91 103 79 88 92 104 77 86 53 61 65 73 87 99 51 59 76 85 84 94 82 91 97 109 84 94 97 109 83 93 65 73 36 41 61 69 34 39 33 38 37 42 33 38 21 25 0 0 34 39 54 62 25 29 79 88 74 83 53 61 91 103 78 87 79 88 53 61 74 83 34 39 108 125 48 56 113 133</p>
        </triangles>
      </mesh>
    </geometry>
  </library_geometries>
  <library_visual_scenes>
    <visual_scene id="scene">
      <node id="left_knee_link">
        <instance_geometry url="#geometry">
          <bind_material>
            <technique_common>
              <instance_material symbol="scout_b2b2b2" target="#scout_b2b2b2" />
            </technique_common>
          </bind_material>
        </instance_geometry>
      </node>
    </visual_scene>
  </library_visual_scenes>
  <scene>
    <instance_visual_scene url="#scene" />
  </scene>
</COLLADA>