<?xml version='1.0' encoding='utf-8'?>
<COLLADA xmlns="http://www.collada.org/2005/11/COLLADASchema" version="1.4.1">
  <asset>
    <created>2026-09-14T00:00:00Z</created>
    <modified>2026-09-14T00:00:00Z</modified>
    <unit name="metre" meter="1" />
    <up_axis>Z_UP</up_axis>
  </asset>
  <library_effects>
    <effect id="scout_b2b2b2_effect">
      <profile_COMMON>
        <technique sid="common">
          <lambert>
            <emission>
              <color>0 0 0 1</color>
            </emission>
            <ambient>
              <color>0.35 0.35 0.35 1</color>
            </ambient>
            <diffuse>
              <color>0.7 0.7 0.7 1</color>
            </diffuse>
          </lambert>
        </technique>
      </profile_COMMON>
    </effect>
  </library_effects>
  <library_materials>
    <material id="scout_b2b2b2" name="scout_b2b2b2">
      <instance_effect url="#scout_b2b2b2_effect" />
    </material>
  </library_materials>
  <library_geometries>
    <geometry id="geometry" name="left_hip_yaw_link">
      <mesh>
        <source id="positions">
          <float_array id="positions_array" count="189">-0.110372394 -0.019803714 -0.202251941 -0.101021744 -0.0344908349 -0.216090783 -0.125457868 -0.0346226618 -0.173915207 -0.117248006 -0.0207930636 -0.169541925 -0.0957885981 -0.0199745893 -0.139017448 -0.0999523029 -0.0313912109 -0.137313709 -0.0983060151 -0.0362772681 -0.165600434 -0.076002039 -0.0425885916 -0.200293094 -0.0933695659 -0.0447503887 -0.172814652 -0.113582663 -0.0405534096 -0.167710721 -0.0785428286 -0.0363060534 -0.135568783 -0.0973906443 -0.0446596965 -0.145451844 -0.0805272609 -0.0183314402 -0.219664693 -0.122783802 -0.0170168318 -0.200749353 -0.0768611208 -0.017359117 -0.228683293 -0.0873678923 -0.038404081 -0.212093145 -0.0593192019 -0.0452877395 -0.144966125 -0.0726169795 -0.0334603451 -0.221471816 -0.0473194718 -0.0342804082 -0.149806753 -0.0458609574 -0.0332267284 -0.206319496 -0.0540103875 -0.0336217992 -0.140488029 -0.0617055111 -0.0400956087 -0.210640967 -0.0373967402 -0.0335953049 -0.18826668 -0.0403015614 -0.0453817546 -0.180904225 -0.0403800681 -0.0332594179 -0.162338421 -0.0434602201 -0.0186091457 -0.199583843 -0.029946832 -0.0172541849 -0.199213669 -0.054635942 -0.0182281416 -0.142511129 -0.0436656363 -0.0332059786 -0.10439381 -0.050550472 -0.0169629697 -0.123478815 -0.0491600446 -0.028218966 -0.0734004453 -0.0506301746 -0.022321783 -0.00121102238 -0.0551064163 0.00914029405 -0.0582733713 -0.0497671776 0.00815212354 -0.123015873 -0.0182317365 -0.0357444435 -0.102697089 -0.032469701 -0.0413692258 -0.0012386475 -0.0421676449 0.0328116156 -0.101213828 0.0011023907 0.0329288729 -0.11925406 -0.0382219106 0.0348856337 -0.16565375 0.012221856 -0.024097519 -0.126802474 -0.098067157 0.0157000031 -0.222150251 -0.0699200258 0.0164114404 -0.226048231 -0.0425305255 0.0168513563 -0.123505272 -0.0889086947 0.0151531519 -0.130407006 -0.0475128293 0.0294721983 -0.0789766684 -0.0496430509 0.0250756014 -0.00119352387 0.00586165953 0.0208993442 -0.142664045 -0.0321506113 0.0406781733 -0.00105546357 -0.035546124 0.0283893831 -0.192286029 -0.0380333401 0.0154593857 -0.206154093 0.0196205266 0.0430912562 -0.00121878157 0.0385221131 -0.0409310609 -0.00223348453 0.0356567316 -0.0248658452 -0.069835186 0.0503742769 -0.0294997599 -0.00153920543 0.0330987982 0.0261258986 -0.0736974999 0.0397253148 0.0387345515 -0.00118600565 0.0408433042 0.00423881086 -0.05994628 0.0505811088 0.0249838755 -0.00128723145 -0.123088978 -0.0171031225 -0.154390544 -0.118124448 0.0152705014 -0.147834137 -0.122434013 0.0158208571 -0.194919348 -0.0933393836 -0.0170685351 -0.12977609 -0.0418245867 0.0162646826 -0.159088001</float_array>
          <technique_common>
            <accessor source="#positions_array" count="63" stride="3">
              <param name="X" type="float" />
              <param name="Y" type="float" />
              <param name="Z" type="float" />
            </accessor>
          </technique_common>
        </source>
        <source id="normals">
          <float_array id="normals_array" count="426">-0.862516284 -0.0780250728 -0.499977738 -0.826532245 0.540437639 -0.157389998 -0.784490645 0.311646938 0.536144197 -0.781363904 0.347260177 0.518537223 -0.785558581 0.294196039 0.544377089 -0.779837668 0.360754579 0.511575401 -0.843537986 -0.0351543799 -0.535917759 -0.0670717806 0.623876512 -0.778639495 -0.27976957 -0.877331614 0.389895171 -0.52712822 -0.718932331 0.453069657 -0.236328483 -0.895962775 0.376031399 -0.559569955 0.641036749 0.525312543 -0.0453097671 -0.989872515 -0.134534225 -0.259060323 -0.955049753 -0.144110024 0.00296062045 -0.993545175 -0.113398284 -0.105248593 -0.98287487 -0.15126054 -0.117402278 -0.992924869 0.0178007241 -0.137780145 -0.937646925 -0.319115728 -0.020792976 -0.74366188 0.668232501 -0.492132574 -0.154994696 -0.856610894 0.417255223 -0.0559815429 0.907063484 0.459192544 0.329620451 -0.82491976 0.456142575 0.316388994 -0.83176434 0.461332023 0.339141697 -0.819850981 0.0795606971 0.194263428 0.977717638 0.0773599222 0.204736128 0.975755394 0.0838716105 0.637313128 0.766027153 0.552704394 -0.738649547 -0.385894656 0.621516407 -0.603045523 -0.500053465 0.652195513 -0.510680556 -0.560220003 0.788151503 -0.519011974 0.330822945 0.706474125 -0.620354712 0.340667427 0.714076519 -0.597534835 0.364755929 0.927101374 -0.312028795 0.207656026 0.454654515 0.310068369 -0.834953189 0.0977630615 -0.983152211 -0.154447719 0.102822788 -0.98171556 -0.160193682 -0.964641988 -0.0461569801 0.25949055 -0.961285114 -0.00285088411 0.275540888 -0.561673701 -0.827352762 -0.00317597156 -0.98565799 -0.122092254 0.116497897 -0.893101275 -0.449211478 -0.0240666959 -0.926276624 -0.373228848 0.0520750545 -0.991194189 0.0813182071 -0.104505904 -0.168000758 0.617260754 -0.768612325 0.078232877 0.133028969 0.988019705 0.0749854296 0.122917876 0.989579916 -0.99889195 0.0312863365 0.0351580046 -0.0728759468 -0.997098923 -0.0219737422 0.0198592469 -0.999798954 -0.00276335701 -0.0741035417 -0.997151852 -0.0140284132 -0.0384768285 -0.85773474 -0.512650549 -0.00321284612 -0.954005599 -0.299771607 -0.365040481 -0.930890441 -0.0137268445 0.904808342 0.0464411527 -0.423278958 0.0803454742 -0.579786062 -0.810797572 0.519759238 -0.778725743 -0.351335406 0.0331903584 -0.994562209 0.0987136737 -0.0855838656 0.995743036 -0.0342234708 0.309425622 0.934603572 -0.17541945 0.217963368 0.965272188 -0.144019157 0.744865775 -0.173396751 -0.644289136 0.777472913 -0.503616989 -0.376703918 -0.471322119 -0.00398596143 -0.881952167 -0.139025152 0.105406672 -0.984663129 -0.360303134 -0.04700955 -0.931650043 -0.155195847 0.10350018 0.982446909 -0.151238441 0.180486694 0.971880376 -0.333564639 0.0737974122 0.939834356 -0.935954571 0.321919173 -0.142678291 -0.891046166 0.400691301 -0.213268057 -0.957539856 0.241563365 -0.157367632 -0.844297528 0.53387177 -0.0462887362 -0.898015618 0.436960667 0.0513162203 -0.750066578 0.60951972 -0.256682366 0.797745466 0.412984967 -0.439369559 -0.349041551 0.936579943 -0.0314330794 0.648578167 0.596625268 -0.472635776 0.686769545 0.0921708196 -0.721007705 0.0960492864 0.990467012 -0.0987404287 0.417113185 -0.896208942 -0.151083022 0.521857142 -0.82468003 -0.218100771 0.529544592 -0.0450002626 -0.847087622 0.94511205 -0.0537411161 -0.32229653 0.686726213 -0.700135767 -0.195491657 0.792062879 0.535673559 -0.292728931 0.536925972 0.828074932 -0.161252528 0.960965216 0.0394607484 -0.273840636 0.926840127 0.326066434 -0.186140046 -0.996958375 0.0573088974 0.0528172031 -0.988236487 0.152806878 -0.00622104062 -0.995466173 0.0891017616 0.0332866795 -0.995828032 -0.00556259509 0.0910801291 -0.00760684349 -0.997089028 -0.0758655816 -0.0767372772 -0.996601045 -0.0299627725 -0.0138222026 -0.999901593 -0.00239312043 -0.0852815881 -0.996314108 -0.00923017412 -0.209901094 -0.97733283 -0.0276066214 -0.352971494 -0.871007621 0.341697037 0.0470941737 -0.997308969 0.0561870337 0.0328744613 -0.994732916 0.0970860198 -0.120140411 -0.944150984 0.306830943 -0.223796993 -0.963283837 0.148320973 -0.42835322 -0.902691185 0.0407691263 -0.245898753 -0.896791995 -0.367828697 -0.981765985 0.176759899 -0.0699394122 -0.959150553 0.253304303 -0.12596485 -0.983655512 0.174064502 -0.0460804068 -0.145556137 -0.013695173 0.98925519 -0.395373881 0.0200220924 0.918302 0.00124734861 -0.00694466848 0.999975085 0.00376338069 -0.0130669698 0.999907553 0.0012434707 -0.00308704632 0.999994457 0.00110970205 -0.000392297894 0.999999285 0.00653805025 -0.00415218808 0.999970019 -0.00857829768 -0.0140047297 0.999865115 -0.73905164 0.12538217 -0.661877573 -0.646148562 -0.0110367173 -0.763131857 -0.636356354 -0.0581940599 0.769197047 -0.582937837 0.00692039356 0.812487304 -0.000100207493 0.999969542 0.00780473882 -0.0127867544 0.999916017 -0.00210477924 -0.00378123927 0.999947369 0.00953554735 -0.0352167413 0.999197364 -0.0190896392 0.527943373 -0.0423264317 -0.848224223 0.438336015 -0.870633125 -0.223292321 0.425987095 -0.514377177 -0.744278908 -0.577510774 -0.673170745 0.461868465 0.140812293 -0.975325346 0.170036271 0.978816867 -0.169511363 0.114819385 -0.910953999 0.370265216 -0.181841791 -0.0031259472 0.999923408 0.0119737722 -0.0340375677 0.99927336 -0.0171508938 0.00254835282 0.999726057 0.0232660864 -0.0295254961 0.999087691 -0.0308543071 -0.10309083 -0.994662523 -0.00433489121 -0.20115374 -0.949171305 -0.242097154 0.240431234 -0.429323256 -0.870559812 0.983326495 -0.0320867226 -0.178995743 -0.00100648403 -0.00550107984 0.999984384 -0.031960737 -0.0179515537 0.999327898 -0.00389097072 -0.0104328766 0.999938011</float_array>
          <technique_common>
            <accessor source="#normals_array" count="142" stride="3">
              <param name="X" type="float" />
              <param name="Y" type="float" />
              <param name="Z" type="float" />
            </accessor>
          </technique_common>
        </source>
        <vertices id="vertices">
          <input semantic="POSITION" source="#positions" />
        </vertices>
        <triangles material="scout_b2b2b2" count="122">
          <input semantic="VERTEX" source="#vertices" offset="0" />
          <input semantic="NORMAL" source="#normals" offset="1" />
          <p>0 0 1 0 2 0 2 1 3 1 0 1 2 2 4 3 3 4 5 5 4 3 2 2 6 6 7 6 8 6 6 7 8 7 9 7 5 8 9 9 10 10 10 11 9 11 11 11 12 12 13 13 14 14 7 15 6 16 15 17 10 18 11 18 16 18 17 19 0 19 12 19 18 20 10 20 16 20 12 21 19 22 17 23 20 24 5 25 10 26 21 27 22 28 23 29 24 30 18 31 16 32 24 30 16 32 23 33 12 21 25 34 19 22 25 35 12 12 14 14 25 35 14 14 26 36 27 37 20 38 28 39 29 40 27 37 28 39 30 41 31 42 32 43 1 44 0 44 17 44 20 24 27 45 4 46 30 41 33 47 29 40 20 24 4 46 5 25 34 48 18 49 24 50 17 51 21 52 15 17 35 53 30 41 28 39 25 54 22 54 19 54 25 55 26 55 22 55 34 48 24 50 22 56 28 39 20 57 34 48 36 58 37 59 38 60 26 61 39 62 22 56 40 63 41 64 14 65 33 66 42 67 43 68 42 69 44 70 36 71 32 43 44 72 30 41 44 72 32 43 45 73 33 74 44 70 42 69 46 75 39 62 26 61 44 72 47 76 36 58 47 76 44 72 45 73 48 77 46 75 49 78 47 76 50 79 36 58 37 59 46 75 48 77 38 60 37 59 48 77 39 62 51 80 22 56 52 81 51 80 39 62 14 82 49 78 26 61 39 62 46 75 52 83 52 81 53 84 51 80 37 59 54 85 46 75 55 86 54 85 37 59 50 79 55 86 37 59 56 87 54 85 57 88 55 86 57 88 54 85 13 89 58 90 59 91 59 91 60 92 13 89 21 52 23 93 7 15 7 15 15 17 21 52 7 15 23 93 8 94 8 94 23 93 16 95 16 95 11 96 8 94 9 97 8 94 11 96 4 98 27 99 29 100 4 98 29 100 61 101 61 101 58 102 3 103 58 102 13 13 3 103 3 103 4 98 61 101 3 103 13 13 0 104 38 105 49 106 62 107 29 108 33 66 61 109 31 42 45 73 32 43 29 40 28 39 30 41 50 110 47 111 45 112 45 112 31 113 35 114 31 42 30 41 35 53 18 49 34 48 20 57 34 48 35 53 28 39 34 48 22 56 51 80 51 115 50 110 35 114 60 116 40 63 13 117 58 118 61 109 59 119 60 120 43 121 49 122 43 121 62 123 49 122 49 78 14 82 41 124 22 28 21 27 19 125 17 126 19 126 21 126 2 127 9 9 5 8 30 41 44 72 33 47 26 61 49 78 46 75 45 112 35 114 50 110 42 69 36 71 38 105 62 107 42 69 38 105 34 48 51 80 35 53 36 58 50 79 37 59 18 49 20 57 10 128 59 119 61 109 43 68 23 33 22 129 24 30 56 87 46 75 54 85 56 87 52 83 46 75 38 105 48 130 49 106 60 120 59 131 43 121 62 123 43 121 42 132 41 133 40 134 60 120 49 122 41 133 60 120 2 135 15 17 6 16 17 51 15 17 1 136 15 17 2 135 1 136 6 137 9 137 2 137 56 87 53 138 52 83 61 109 33 66 43 68 0 104 13 13 12 12 57 139 50 110 53 140 53 140 50 110 51 115 55 141 50 110 57 139 53 138 56 87 57 88 14 65 13 117 40 63</p>
        </triangles>
      </mesh>
    </geometry>
  </library_geometries>
  <library_visual_scenes>
    <visual_scene id="scene">
      <node id="left_hip_yaw_link">
        <instance_geometry url="#geometry">
          <bind_material>
            <technique_common>
              <instance_material symbol="scout_b2b2b2" target="#scout_b2b2b2" />
            </technique_common>
          </bind_material>
        </instance_geometry>
      </node>
    </visual_scene>
  </library_visual_scenes>
  <scene>
    <instance_visual_scene url="#scene" />
  </scene>
</COLLADA>