<?xml version='1.0' encoding='utf-8'?>
<COLLADA xmlns="http://www.collada.org/2005/11/COLLADASchema" version="1.4.1">
  <asset>
    <created>2026-09-14T00:00:00Z</created>
    <modified>2026-09-14T00:00:00Z</modified>
    <unit name="metre" meter="1" />
    <up_axis>Z_UP</up_axis>
  </asset>
  <library_effects>
    <effect id="scout_333333_effect">
      <profile_COMMON>
        <technique sid="common">
          <lambert>
            <emission>
              <color>0 0 0 1</color>
            </emission>
            <ambient>
              <color>0.1 0.1 0.1 1</color>
            </ambient>
            <diffuse>
              <color>0.2 0.2 0.2 1</color>
            </diffuse>
          </lambert>
        </technique>
      </profile_COMMON>
    </effect>
  </library_effects>
  <library_materials>
    <material id="scout_333333" name="scout_333333">
      <instance_effect url="#scout_333333_effect" />
    </material>
  </library_materials>
  <library_geometries>
    <geometry id="geometry" name="left_ankle_roll_link">
      <mesh>
        <source id="positions">
          <float_array id="positions_array" count="282">-0.0549342297 -0.0123225711 0.00397723494 -0.0605058409 -0.0181715433 -0.0349423215 -0.0485535413 -0.0256151259 -0.0135992263 -0.0634425581 -0.00327215134 -0.0120667787 -0.0556192026 -0.00636939052 -0.0137407212 -0.0424338169 -0.0233521033 -0.00602783263 -0.0430968627 -0.0197819248 -0.014618638 -0.0548704602 -0.0115202218 -0.00215586717 0.00619004341 -0.0277734362 0.00302048633 -0.0289107133 -0.0251502395 0.00669245655 -0.0423290655 -0.0303220842 -0.0344041102 0.00855961069 -0.0251170304 -0.00393353542 -0.0303244069 -0.0226684846 -0.0139881754 -0.0268670265 -0.00729849888 -0.0137698324 -0.0262101572 -0.0136296172 -0.00415315153 -0.0258018244 -0.00352906459 -0.00663733063 -0.0180333033 -0.0124782817 0.000273667945 -0.018611297 -0.00816139579 -0.0136566758 -0.0181503985 0.00579510303 -0.012795263 -0.0121491896 -0.0290171523 -0.0345221795 0.018484015 -0.0297319777 -0.0332545415 0.0169028137 -0.0237333998 0.0074715144 -0.04308144 -0.0150860148 0.0161625743 -0.0415645279 -0.0110198306 0.0157591123 -0.0429670028 -0.00450484268 0.0189203974 -0.0477351733 0.0140165007 0.0134677505 -0.0140654687 -0.0230604559 0.00970243011 -0.0252456553 -0.0130626988 0.0186281018 -0.0255838204 0.0106770676 0.0205151532 -0.0262838285 -0.0100589218 0.0101190172 -0.0188464411 -0.00443551037 0.0140558928 -0.0262037143 -0.0011698032 0.00703756604 -0.0262553021 0.00554209249 0.0140453996 -0.0204256568 0.00643756101 0.00130977412 -0.0567074716 0.0167080518 -0.00557334907 -0.0659485981 0.00611453597 -0.0346979126 -0.0556627102 0.0104584675 -0.00356563996 -0.0487404726 0.0288730972 -0.0349238813 -0.0466591492 0.0197486002 -0.0146061014 -0.0404829271 0.0239494666 -0.00457070256 -0.0264077298 0.0141587397 -0.000222795672 -0.0184991136 0.0153666716 0.00288307248 -0.0264402796 0.00806682743 -0.0136922263 0.0128943836 0.0241501462 -0.0144539978 0.0161620919 0.0237751678 0.00731467083 0.0265187137 0.026571922 -0.00258530816 -0.0234229416 0.0258257259 0.00802311394 0.0147713814 0.0277498215 0.00463279057 -0.0410159528 0.0287263598 -0.0103683565 -0.0432196967 0.0109459665 0.0152459312 -0.0105521148 0.0290327929 -0.03436286 -0.0272646826 0.0222439226 0.00730718346 -0.0183699001 0.0215005074 0.0109179588 0.017929228 0.0300746933 -0.0332629196 0.0972884223 -0.035110604 -0.0224451143 0.0361399204 -0.0322246589 -0.0115320748 0.0457964018 -0.0378694534 -0.0344216451 0.0873791426 -0.0235367864 -0.0134797366 0.0256597456 -0.0255890116 -0.0144091826 0.0457516573 -0.0278479513 -0.0110743297 0.069648385 -0.0226268545 -0.00173527596 0.0565726198 -0.018301582 0.00455666054 0.0709423497 -0.0115882978 0.000256391533 0.0416199975 0.0352669917 -0.0189974289 0.0380057953 0.0195739884 0.0176112838 0.0600291863 0.0218059774 0.00371467019 0.0928850025 -0.0192574058 -0.00808172394 0.102168269 -0.013929354 -0.0116312653 0.0927810296 -0.0373735502 -0.0348325409 0.122461639 -0.0316248536 -0.0350610018 0.126543239 -0.0277743395 -0.0209662244 0.139071494 -0.014543104 -0.0194206312 0.0939944163 -0.0035067352 -0.00552201504 0.139402211 -0.0152388168 -0.0350894965 0.141926572 0.00845707301 -0.0192752238 0.142288134 0.00757048745 -0.0350187607 0.0386961289 -0.020102933 0.0169364735 0.0370975621 -0.0174317639 0.0162753277 0.0367400758 -0.0106590241 0.0220014211 0.0646512657 -0.00123228715 0.00760326209 0.0426399447 0.0361352861 -0.0345046148 0.0882950947 0.0232889708 -0.0121792462 0.0443077125 0.0272672866 -0.0142224012 0.100432493 0.0370046757 -0.0347897969 0.0692093596 0.0179240555 -0.000350928516 0.0927040577 0.0198183041 -0.0148210898 0.0893306211 0.0207357984 -0.0073682596 0.100012317 0.0348953716 -0.0224754885 0.129661992 0.0248785801 -0.0199768133 0.10070584 0.0133580761 -0.0115883769 0.102287628 -0.00529249851 -0.014696802 0.129219487 0.0285992622 -0.0347429924 0.0367399417 0.017434679 0.0171730127 0.0386129729 0.00512178196 0.0238104258</float_array>
          <technique_common>
            <accessor source="#positions_array" count="94" stride="3">
              <param name="X" type="float" />
              <param name="Y" type="float" />
              <param name="Z" type="float" />
            </accessor>
          </technique_common>
        </source>
        <source id="normals">
          <float_array id="normals_array" count="603">-0.673274517 -0.675492942 0.300683618 -0.822000921 -0.562743723 0.0873724669 -0.4834674 -0.850557148 0.206910193 -0.960719764 -0.102845825 0.257760167 0.71142751 0.660882235 0.238967687 0.715229392 0.659873605 0.230247289 0.7204445 0.65835923 0.217997506 0.707140028 0.661929011 0.248602048 -0.00810088776 -0.936897457 0.349510431 -0.130259961 -0.887116432 0.442782938 -0.2643812 -0.961447418 0.0756399184 0.278048068 0.950617969 -0.137894034 0.0483041219 0.997307181 -0.0551821403 0.0648421347 0.982795358 0.172941491 -0.991270483 0.0471373573 0.123129524 -0.99853754 0.046957016 0.0267921519 -0.997574866 0.0244124029 0.065179877 0.287686288 -0.911366224 -0.294360638 0.17071411 -0.906863451 -0.385299027 0.0677152276 -0.887218893 -0.456352204 -0.0537930988 0.580654442 0.812371075 0.0194876119 -0.999531686 0.0235930346 -0.136957318 -0.989127398 0.0535693094 -0.0051068305 0.977296472 -0.211814776 -0.254631966 -0.654863 0.711559594 0.34231618 0.797491074 -0.496817529 0.549394131 0.717567444 -0.428092331 -0.759523213 -0.0728681758 0.646385849 -0.822460949 -0.00461196061 0.568802893 -0.725423813 -0.166239455 0.667925715 -0.844346762 0.0619489737 0.532203794 0.0944961533 0.971826136 -0.215926886 -0.0422577932 -0.471507996 0.880848706 0.202883899 0.768565476 -0.606749713 -0.13396056 -0.0414908044 0.990117729 0.244032815 0.0327147692 -0.969215035 0.182356372 0.0804914683 -0.979932308 0.225767538 0.0470077954 -0.973046422 -0.011972826 -0.783132493 0.621739626 0.12037386 -0.935965538 0.330875605 0.246415257 -0.87294209 0.42101264 0.0051827291 -0.970080674 0.242727384 0.347301751 -0.80086726 0.487845331 0.78346771 0.615834832 -0.0832216665 -0.312773675 -0.231280863 0.921239257 -0.590553403 -0.148665965 -0.793186665 -0.445968866 -0.29699558 -0.844337225 -0.673022151 -0.0446811095 -0.738271534 -0.790254176 0.531293571 0.305328548 -0.97338897 0.216246173 0.0758384839 0.998214066 0.0327787995 -0.049941808 0.907376766 0.00574986916 -0.420278877 0.925458252 0.0262305606 -0.377940476 -0.718478918 0.689597249 0.0907943472 0.845336914 -0.274822682 0.458124399 0.334967196 -0.938915491 -0.0789600089 0.627617955 -0.726941824 -0.278659761 0.658060431 -0.747302055 -0.0921743736 -0.576923132 -0.295861781 0.761331379 0.975985944 -0.217150256 -0.0172394868 0.811707199 -0.562689066 0.156564444 0.872910023 -0.460280061 0.16177243 0.0226860605 0.910888553 -0.412028342 0.119350374 0.886282265 -0.447503299 0.214698181 0.851733744 -0.477968961 0.97808665 -0.206824094 -0.0238807518 0.0681795105 -0.934547484 0.349245638 0.050418973 -0.986099541 0.158321157 -0.00764361862 -0.960763454 -0.277263671 -0.0215458386 -0.987926245 -0.153419435 -0.0787286535 0.8440575 0.530441999 -0.0224821772 0.983121216 0.181568757 -0.280416846 0.938945293 0.199369222 0.818153858 0.0208025891 -0.574622929 0.801306248 0.0464453436 -0.59644872 0.382557452 -0.762331128 -0.522016346 -0.328156114 0.642506897 0.692458212 -0.128317371 0.373009086 0.918911815 -0.00786523614 0.999463677 0.0317888297 0.286262512 -0.000814578612 -0.958150864 0.158122852 -0.889317214 -0.42908287 0.192866713 -0.725877643 -0.660230339 -0.309922576 -0.410349876 -0.857648492 -0.317263544 0.810286641 0.492726475 0.544324875 0.40496093 0.734654427 0.0651569292 0.605681062 0.793035328 -0.0536034666 0.538398921 0.84098351 0.0975542292 -0.899663329 -0.425545633 -0.143950388 0.988388717 0.0486415029 0.144042522 -0.888691485 0.435292095 -0.0391107909 -0.965621591 0.256992847 -0.1014852 -0.976104796 0.192146376 -0.0343619548 0.719060242 0.694097757 0.270578861 -0.643781841 0.715773761 -0.319282115 0.714046538 -0.623054087 -0.432875216 0.198751524 -0.879270673 -0.290210634 0.522473872 -0.801747382 -0.0579864047 0.976126432 0.20931977 0.13226822 0.904465735 0.405520529 0.162255913 0.862830818 0.478744179 0.260320127 -0.389018893 0.883684158 -0.336611301 0.191645592 -0.92193538 0.0812008381 -0.985277951 0.150445119 0.420472234 -0.900791407 0.108526416 0.227901191 -0.424784243 0.876138926 0.550426185 -0.830677688 0.0836994201 0.274890482 -0.152845502 0.94924891 0.319113135 -0.0384516083 0.94693625 0.711536467 -0.702219605 0.024565218 0.722688019 -0.689650297 0.0458745398 0.274324536 0.0759021416 0.958636999 0.991851985 -0.124163851 0.0285128597 0.991805971 -0.124707349 0.0277317706 0.991731942 -0.12555927 0.026507074 0.0287848152 -0.773661554 0.632944942 -0.100326493 0.935003877 -0.340150416 -0.39756152 -0.00564150279 0.917558193 -0.4079943 0.0775033385 0.90968889 -0.408398896 0.08126086 0.90917933 0.103961505 -0.918412805 0.381719649 -0.279175431 0.77705121 -0.56413871 -0.396886498 -0.0103488835 0.917809367 -0.82345295 -0.391041845 0.411110014 -0.491659641 0.195597962 -0.848535359 0.488620162 -0.302158982 0.81850493 0.442604423 0.010924045 0.896650434 0.18812041 0.912006259 0.364493221 -0.119403832 0.991685867 0.0479779318 -0.305730253 -0.602931738 -0.736886919 -0.0467372835 -0.99033016 -0.130621031 0.145877227 0.975883484 0.162392139 -0.324302614 -0.501562178 -0.802036881 0.991921663 -0.123320304 0.0297247637 -0.0951101333 -0.676618755 0.730165184 0.315428942 0.3886621 0.865705669 0.163827181 0.884576559 0.436674953 0.293862253 0.602171659 0.742316842 -0.359444112 -0.155295089 -0.920153975 -0.492010623 -0.183564216 0.851016879 -0.0930669978 -0.019852519 0.995461881 -0.0932052284 0.0731784254 0.992954016 -0.62425071 -0.781066298 -0.0156997368 0.290360957 0.933037817 0.21244058 0.792146027 0.597036123 0.126698419 0.832255483 0.553180277 0.0366383567 0.819446445 0.569117725 0.067915149 -0.142801568 0.518777251 0.842898488 -0.61788553 0.192403272 0.762363732 -0.914012909 0.0757990032 0.398540914 -0.921871662 0.0656313151 0.381896853 -0.552746534 0.159497678 0.817943573 -0.151502222 -0.924699426 -0.349253565 -0.467847914 -0.149705678 -0.871037602 0.514024198 0.266029119 0.815479994 0.544905484 0.114136122 0.830693066 0.0859199911 0.991707563 0.0955713764 -0.00428924849 0.999963999 0.00732488278 0.849240303 0.52790755 -0.0102252681 0.279008865 0.822368205 -0.495847374 -0.99990046 -0.00133436499 -0.0140456678 -0.999977529 -0.00663140882 -0.00100990827 -0.999926388 -0.0115537783 0.00370489922 -0.998348773 -0.0229223948 0.0526718274 -0.998889327 -0.0419780277 0.0213996191 0.508644462 -0.245648548 0.825189412 0.995586455 0.061565008 -0.0708330497 0.991878927 0.126277655 -0.0151707055 -0.0313415527 0.0577902347 0.997836649 -0.00414561993 0.00741288019 0.999963939 -0.00415285584 0.00170914165 0.999989927 0.00588413794 0.00799144153 0.999950767 -0.0201218799 -0.00799372792 0.999765575 0.0145330839 0.0655849874 0.997741163 0.181952 -0.164032534 0.969529152 -0.0149694122 0.0609661862 0.998027563 -0.0173750035 0.0480559207 0.998693526 -0.0127674006 -0.0159779098 0.999790847 -0.00847500656 -0.0112360856 0.999900937 -0.0180014633 -0.0445122942 0.99884665 -0.319854438 0.320842385 0.891489387 -0.999730289 0.0119265188 -0.0199273918 -0.11771486 0.881659567 -0.456967831 -0.981242955 -0.0522967726 -0.185545936 -0.00750586484 0.000362342311 -0.999971747 -0.0239259545 -0.00214130641 -0.999711454 -0.0181038938 0.00722778775 -0.99980998 -0.0026357153 0.00245195511 -0.999993503 -0.00605541468 0.0032539214 -0.999976397 -0.000675903575 0.00508599821 -0.999986827 -0.00844441634 0.00594228599 -0.999946713 -0.0133847781 0.00479436805 -0.999898911 -0.0798220783 -0.835073352 -0.544316947 -0.0203916039 0.00549156964 -0.999776959 0.00633117137 -0.000773673353 -0.999979675 0.0165949743 -0.00375830987 -0.99985522 0.0136878649 -0.0079643596 -0.999874592 0.0269661248 0.00200162525 -0.999634326 0.00661797728 -0.00806337595 -0.999945581 0.998269737 -0.0298395678 -0.0506669283 0.00329247559 -0.0201821811 -0.999790907 -0.0308730304 0.0370001905 -0.998838246</float_array>
          <technique_common>
            <accessor source="#normals_array" count="201" stride="3">
              <param name="X" type="float" />
              <param name="Y" type="float" />
              <param name="Z" type="float" />
            </accessor>
          </technique_common>
        </source>
        <vertices id="vertices">
          <input semantic="POSITION" source="#positions" />
        </vertices>
        <triangles material="scout_333333" count="188">
          <input semantic="VERTEX" source="#vertices" offset="0" />
          <input semantic="NORMAL" source="#normals" offset="1" />
          <p>0 0 1 1 2 2 3 3 1 1 0 0 4 4 5 5 6 6 4 4 7 7 5 5 8 8 9 9 10 10 9 9 2 2 10 10 5 11 11 12 12 13 13 14 14 15 15 16 16 17 14 18 17 19 15 20 16 20 18 20 8 8 19 21 20 22 21 23 11 12 5 11 22 24 0 0 2 2 23 25 5 11 7 26 24 27 0 28 22 29 25 30 0 28 24 27 23 25 26 31 5 11 27 32 22 24 9 9 23 25 27 33 26 31 27 32 24 34 22 24 28 35 27 36 23 37 26 31 21 23 5 11 8 8 26 38 9 9 16 39 29 40 14 41 30 42 29 40 16 39 31 43 16 43 15 43 30 44 32 44 29 44 31 45 33 46 16 47 3 3 34 48 35 49 25 30 34 48 3 3 4 50 36 51 7 52 37 53 35 49 34 48 38 54 36 54 4 54 39 55 36 56 38 57 33 58 40 58 15 58 33 59 15 60 18 61 40 62 41 63 42 64 41 65 33 59 18 61 22 24 2 2 9 9 39 55 38 66 43 67 44 68 39 55 45 69 46 70 47 71 48 72 25 30 3 3 0 28 36 51 49 73 7 52 49 73 23 74 7 52 39 55 49 75 36 56 34 48 25 76 48 72 28 77 25 76 24 34 50 78 48 72 47 71 49 79 28 35 23 37 51 80 49 75 39 55 25 76 46 70 48 72 51 80 28 81 49 75 40 82 33 46 31 45 32 83 41 83 40 83 41 84 32 84 30 84 52 85 46 70 28 77 46 70 52 85 47 86 51 80 52 87 28 81 44 68 51 80 39 55 52 87 51 80 44 68 53 88 50 78 47 71 54 89 55 90 56 91 57 92 58 92 59 92 60 93 55 90 54 89 61 94 62 95 57 96 1 1 3 3 35 49 63 97 64 98 65 99 66 100 60 93 54 89 62 95 67 101 57 96 54 89 68 102 69 103 70 104 66 100 54 89 70 105 54 89 69 103 71 106 66 100 70 104 72 107 66 100 71 106 73 108 71 109 70 105 27 32 28 77 24 34 74 110 72 107 71 106 75 111 71 112 73 113 21 114 26 38 8 8 21 23 59 115 11 12 76 116 21 117 8 118 76 119 8 8 55 90 77 120 61 94 59 115 76 116 77 121 21 117 78 122 77 122 76 122 76 119 55 90 60 93 78 123 62 95 61 94 78 123 61 94 77 120 72 107 76 124 60 93 72 107 60 93 66 100 72 107 79 125 76 124 6 126 5 11 12 13 55 90 20 22 56 91 47 71 80 127 53 88 80 127 47 71 63 97 48 72 37 53 34 48 20 22 55 90 8 8 81 128 45 69 82 129 63 97 83 130 80 127 84 131 45 69 81 128 74 132 71 112 75 111 77 120 59 115 21 23 81 133 82 133 85 133 86 134 87 135 65 99 88 136 86 134 74 110 65 99 87 135 63 97 89 137 84 131 81 128 86 134 79 125 72 107 89 138 85 139 90 140 89 141 81 141 85 141 87 135 91 142 83 130 87 135 86 134 88 136 87 135 88 136 91 142 88 143 74 144 91 145 47 86 44 146 92 147 93 148 92 147 78 149 93 148 64 150 92 147 92 151 44 68 45 69 92 147 64 150 47 86 47 71 64 98 63 97 44 146 47 86 52 85 62 95 78 123 84 131 92 151 45 69 84 131 92 152 84 131 78 123 64 153 93 154 79 125 86 134 64 153 79 125 84 131 89 137 62 95 86 134 65 99 64 98 59 115 58 155 11 12 48 72 50 78 37 156 62 95 89 137 67 101 58 155 12 13 11 12 26 38 27 32 9 9 91 145 74 144 75 157 18 158 42 64 41 63 31 159 32 160 40 161 42 162 13 14 15 16 15 16 40 163 42 162 93 154 78 164 79 125 46 70 25 76 28 77 41 65 30 165 33 59 33 59 30 165 16 166 87 135 83 130 63 97 45 69 43 67 82 129 57 167 82 168 58 169 58 169 82 168 43 170 43 170 12 171 58 169 85 139 82 168 57 167 43 170 18 172 17 173 43 170 17 173 12 171 18 172 43 170 42 174 43 170 38 175 42 174 90 140 85 139 57 167 17 173 13 176 12 171 13 176 42 174 4 177 42 174 38 175 4 177 13 176 4 177 6 178 6 178 12 171 13 176 90 140 57 167 67 179 14 15 29 180 15 16 15 16 29 180 31 159 29 180 32 160 31 159 61 94 57 181 59 115 90 182 67 182 89 182 68 183 56 184 80 185 80 185 83 186 68 183 68 183 83 186 69 187 69 187 83 186 91 188 69 187 91 188 73 189 91 188 75 190 73 189 1 1 10 10 2 2 13 191 17 19 14 18 35 192 37 193 1 194 19 195 37 193 50 196 19 195 10 197 37 193 10 197 1 194 37 193 16 198 17 198 18 198 70 105 69 103 73 108 78 164 76 124 79 125 80 185 56 184 20 199 53 200 80 185 19 195 50 196 53 200 19 195 80 185 20 199 19 195 56 91 68 102 54 89 72 107 74 110 86 134 39 55 43 67 45 69 19 21 8 8 10 10</p>
        </triangles>
      </mesh>
    </geometry>
  </library_geometries>
  <library_visual_scenes>
    <visual_scene id="scene">
      <node id="left_ankle_roll_link">
        <instance_geometry url="#geometry">
          <bind_material>
            <technique_common>
              <instance_material symbol="scout_333333" target="#scout_333333" />
            </technique_common>
          </bind_material>
        </instance_geometry>
      </node>
    </visual_scene>
  </library_visual_scenes>
  <scene>
    <instance_visual_scene url="#scene" />
  </scene>
</COLLADA>