<?xml version='1.0' encoding='utf-8'?>
<COLLADA xmlns="http://www.collada.org/2005/11/COLLADASchema" version="1.4.1">
  <asset>
    <created>2026-09-14T00:00:00Z</created>
    <modified>2026-09-14T00:00:00Z</modified>
    <unit name="metre" meter="1" />
    <up_axis>Z_UP</up_axis>
  </asset>
  <library_effects>
    <effect id="scout_333333_effect">
      <profile_COMMON>
        <technique sid="common">
          <lambert>
            <emission>
              <color>0 0 0 1</color>
            </emission>
            <ambient>
              <color>0.1 0.1 0.1 1</color>
            </ambient>
            <diffuse>
              <color>0.2 0.2 0.2 1</color>
            </diffuse>
          </lambert>
        </technique>
      </profile_COMMON>
    </effect>
  </library_effects>
  <library_materials>
    <material id="scout_333333" name="scout_333333">
      <instance_effect url="#scout_333333_effect" />
    </material>
  </library_materials>
  <library_geometries>
    <geometry id="geometry" name="pelvis">
      <mesh>
        <source id="positions">
          <float_array id="positions_array" count="282">-0.0386200659 -0.0629153177 -0.081975773 -0.0477727838 -0.0558984429 -0.101762235 -0.0460299961 -0.0613460764 -0.111095928 0.048882816 0.00584853953 -0.0349434055 0.035519965 -0.0349669345 -0.0342529118 0.0438212156 -0.0474408232 -0.0356190167 0.0252078045 -0.0196892694 -0.141202047 -0.0149600636 -0.0189507008 -0.142811075 0.0030758637 -0.018619813 -0.143593088 -0.0117564732 0.0426586121 0.00167996821 0.012135894 0.0429075435 0.00188272656 0.000716888462 0.0500790067 -0.0257703923 -0.0376955569 -0.0253916867 -0.0231412295 -0.0465141647 -0.0103947846 -0.024246322 -0.0301503167 -0.0383701995 -0.0254036747 0.0101308562 -0.0431631617 0.00180768629 -0.00766782695 -0.0459793583 -0.0241325945 0.00595206488 -0.0485804379 -0.0304184053 -0.036585182 -0.0520234667 -0.0544072017 0.0360922478 -0.0524754785 -0.0542069227 -0.0257986225 -0.0635726005 -0.139024779 -0.0366617553 -0.0188212954 -0.124434173 -0.0115180314 -0.0485508256 -0.0345882811 -0.0449843258 -0.0218491796 -0.0344718173 0.0391289294 -0.0626368821 -0.125883475 0.00892529357 -0.0628282204 -0.147176847 0.0451097153 -0.0595416911 -0.0558366254 -0.0454836898 -0.0592615753 -0.0559160709 -0.0176440533 -0.0634715781 -0.0622783117 0.0406598598 0.0188852064 -0.104191139 0.0472108908 0.0192186888 -0.102158681 0.0479463376 -0.0197400581 -0.105107099 0.0365483239 0.0520584285 -0.0543935262 -0.0362162814 0.0511409752 -0.0357502066 0.0416644588 0.0485842936 -0.0355430767 -0.0439900309 0.0136599261 -0.023652669 -0.0436510444 0.024438018 -0.0342555977 -0.0423277244 0.0190078299 -0.103559934 -0.0443615317 -0.0192474723 -0.1025948 -0.0381872132 0.0228459258 0.00217087637 -0.0476340726 0.045304697 -0.0356674269 -0.0363547653 0.0520662554 -0.0541470945 -0.0463874899 0.061168924 -0.104049444 -0.0374948271 0.0190496705 -0.124637224 -0.0445709825 0.0591989197 -0.0556485131 -0.0374118052 0.0635427907 -0.0809585005 -0.0432628244 -0.0113344407 0.0019956422 -0.0305343643 0.035898149 -0.024219092 -0.0180249177 0.0185567867 -0.140795097 -0.0388265327 0.0624647327 -0.125881121 -0.0204255171 0.0617582835 -0.142243817 0.00777017884 0.0635467321 -0.147081077 -0.00726910355 0.049913168 -0.0342513993 0.0169014484 0.0192832332 -0.14389585 -0.0175080635 -0.0410036594 0.00213800906 0.0314029381 -0.0381396152 -0.0255199801 0.0348533615 -0.0296748281 -0.0231150277 0.0281859543 0.0183957405 -0.133404732 0.0328079052 -0.0184178278 -0.128905743 0.0454567038 -0.0621965453 -0.103066497 0.0414663926 -0.0608556867 -0.0780670196 0.0274412539 -0.0637043417 -0.0671604201 0.0340606794 0.063346386 -0.131486773 0.0463493988 -0.00351665425 -0.0240064468 0.0432893857 0.0137123093 0.00188238989 0.0378912874 -0.0239094142 0.00202537631 -0.0478558354 -0.0451537445 -0.0356353894 -0.04816496 -0.0455848388 -0.0544792637 0.0150769427 0.0623410158 -0.0600468554 0.036563471 0.0634416267 -0.0778637826 -0.0187551901 0.063486509 -0.0632473379 0.0113340914 0.048637744 -0.0346299484 0.0260739997 0.0378454775 -0.0236862469 0.0376587622 0.0307024121 -0.0346427262 0.0424000509 0.0197960436 -0.12021219 0.0414346755 0.0218515806 -0.0243310407 0.046590928 0.0606847852 -0.106270768 0.0451813489 0.0591027774 -0.0557536855 0.00858706515 0.0622333214 -0.117393866 -0.00947779976 0.0614344515 -0.0901938304 0.0123851541 0.0617733784 -0.0918571278 0.0481994562 -0.045803722 -0.0546837077 -0.0358982123 -0.0514072664 -0.0355535075 -0.0481560826 0.0458656624 -0.0547348075 0.0404248275 -0.0188666042 -0.102615371 0.0164094996 -0.00054723589 -1.16067713e-05 -0.00802961271 -0.0136452001 0.00112005812 -0.0117360335 0.0117120743 0.000764432945 -0.0127985673 -0.0607229359 -0.0935532823 -0.00858821534 -0.0622369274 -0.117395341 0.00624294905 -0.0615508817 -0.0875997543 0.0158811547 -0.0618014298 -0.107697859 -0.0137192672 0.0613247156 -0.110715464 0.0481182449 0.045736514 -0.0545824878</float_array>
          <technique_common>
            <accessor source="#positions_array" count="94" stride="3">
              <param name="X" type="float" />
              <param name="Y" type="float" />
              <param name="Z" type="float" />
            </accessor>
          </technique_common>
        </source>
        <source id="normals">
          <float_array id="normals_array" count="603">-0.271609008 -0.962407172 -0.000993334339 -0.77652967 -0.613995373 0.141461447 -0.809502959 -0.560178101 0.17579931 0.126282364 -0.0245675091 0.991690099 0.130776629 -0.0215205438 0.991178274 0.132397503 -0.0204208586 0.990986347 -0.000683718128 -0.9151932 -0.403014868 -0.330980778 0.925751448 0.182855144 0.367664248 0.909263253 0.195098191 0.0153615205 0.991145194 0.131891191 -0.809641063 -0.583712637 0.0613258556 -0.844506502 -0.497457474 0.198355258 -0.805292666 -0.485144138 0.340791583 -0.0846222192 -0.982698739 0.164749071 -0.22547473 -0.955830038 0.188547269 -0.090276368 -0.974068284 0.207463533 0.178884253 -0.971495152 0.155555844 -0.231174394 -0.971498549 0.0524306111 0.180928469 -0.965684056 0.186330855 -0.442281127 0.0487861112 -0.895548582 -0.556080222 0.00504639558 -0.831113279 -0.826213002 0.0393314511 -0.561983228 -0.579611361 -0.724826694 -0.372393608 -0.137946978 -0.247380942 0.959048152 0.75280869 0.00979014393 -0.658166528 0.822336614 -0.0385632776 -0.567693055 0.57351774 -0.103927985 -0.81257391 -0.213639975 -0.927494049 0.306778044 -0.318969935 -0.886411011 0.335460484 0.124920167 -0.980384469 0.15245074 -0.208885521 -0.966473818 0.149315596 -0.0163941216 -0.968871593 0.247020304 0.291812807 0.0776562989 -0.953317761 0.219093725 0.969681263 0.108241446 -0.227756873 0.971678019 0.0629972667 0.186524183 0.973922789 0.129163131 -0.959444225 0.237264484 0.152224839 -0.877586544 0.360457361 0.316089064 -0.996791303 0.0737637505 -0.0310802497 -0.039213255 -0.0211248379 -0.999007523 -0.0722267777 -0.0186822787 -0.997213244 0.0628285557 -0.0285081044 -0.997617066 -0.861289501 0.487915367 0.14184159 -0.459114403 0.88726604 0.0444170795 -0.239949241 0.969618261 0.0475903079 -0.952828884 -0.0553005151 -0.298427522 -0.847047687 -0.0424814858 -0.529816508 -0.968963325 -0.0477578528 -0.242547348 -0.15595147 0.968829036 0.192482308 -0.162042513 0.986360192 0.0289105438 -0.236842066 0.971516728 -0.00781401247 -0.78994292 -0.592850566 0.156583518 0.0419592224 0.121514723 -0.991702378 -0.110389754 0.0387237296 -0.993133724 -0.629214883 0.77576673 0.0476926751 -0.943498909 0.0726848617 -0.323305994 -0.393192947 -0.0278639868 -0.919033647 -0.825353146 -0.0484307744 -0.562535942 -0.435121357 -0.0543167517 -0.898731947 -0.0198636875 0.999790728 -0.00489523588 -0.0185476579 0.999518812 0.0248624571 -0.0865738839 0.986367226 -0.139945075 -0.414260864 0.872690737 0.258454591 -0.132421955 -0.062290702 -0.989234209 -0.0876151994 -0.0366784297 -0.995478928 -0.778640687 -0.472534686 0.412831187 -0.450478792 -0.887947083 0.0928373709 -0.073107183 -0.0186167769 -0.997150302 0.398869634 -0.9060812 -0.141137913 -0.0881533995 -0.238819391 0.967054427 0.826462626 -0.558360517 0.072062701 0.546670675 -0.832296491 0.091835022 0.53307122 -0.842951655 0.0725780278 0.641537189 -0.0656893328 -0.76427412 0.502897859 -0.105003759 -0.857944012 0.64084971 -0.130579367 -0.756479144 0.0629840046 0.987991512 -0.141087845 -0.024669122 -0.17560181 0.984152138 0.0591593571 -0.150805429 0.98679173 0.0283416957 -0.190162361 0.981343508 0.842298031 0.0955117717 -0.530482411 0.890138268 0.0373266041 -0.454159141 0.0211953782 -0.999770164 0.00321621494 0.147101611 -0.986974359 0.0651363358 0.0642794743 -0.991545916 0.11271558 0.509923518 0.0433707871 -0.859125674 0.723907948 0.0245915093 -0.689458132 0.984493494 -0.149784118 0.0913086012 0.886460423 -0.39333871 0.243870094 0.934715807 0.320315272 0.153962523 0.836402655 -0.537128925 0.109193213 -0.472081959 -0.880697787 0.0388598368 -0.485898584 -0.873567998 0.0279558692 0.0216544922 0.93448019 0.355355889 0.162433371 0.986114442 0.0345496275 -0.0187576823 0.977637112 0.20946078 0.35950321 0.912825882 0.193665504 0.588337541 0.793711543 0.154534668 0.744277954 0.643696725 0.178058594 0.862572074 -0.0167792905 -0.505655885 0.870223224 0.474495083 0.132536799 0.0819893777 -0.995491505 -0.047690656 0.13603057 -0.989835083 -0.0414991193 0.126029909 -0.991108835 -0.0426578037 0.0660828725 -0.996586561 -0.0494806804 0.927233875 0.242081836 0.285716206 0.0855846927 0.996308327 -0.00670596585 0.150585949 0.972041309 0.18016541 -0.99960053 -0.0171713755 -0.022447858 -0.00923025236 0.999378085 0.0340333506 0.0128773041 0.999249637 -0.0365282707 -0.0428671949 0.998923719 -0.0177162774 0.951550901 0.00353003456 0.307471067 0.973991752 0.0216978695 0.225542083 0.996209025 -0.0515143201 0.0700987652 0.917490244 0.040864218 -0.395653665 0.966132343 -0.0111213392 -0.257807344 0.1365529 -0.0175996255 0.990476429 -0.902921617 0.0463036485 -0.427303851 -0.969332278 0.0849811584 -0.23059313 -0.0718477294 -0.118131071 0.990395367 -0.0442338511 -0.151469707 0.98747164 -0.981267273 0.145063341 0.126771897 0.0665058196 0.99440521 -0.0820687488 -0.199376434 -0.978950799 0.0436395742 -0.0534416884 -0.0432259664 0.997634947 -0.0330524147 -0.046695739 0.998362184 -0.298389554 -0.0108436393 0.954382598 -0.0340182371 -0.0469909534 0.998315871 -0.23727189 0.0223358572 0.971186459 -0.0486510992 0.0693162754 0.996407688 -0.0411464199 0.0672535747 0.996887147 -0.0441802368 0.0500187986 -0.997770607 -0.0642281473 0.0385958962 -0.997188628 -0.983275294 0.0291625839 -0.179775387 0.0967401713 -0.104821175 0.989774644 -0.0549568608 0.0572259501 0.99684751 -0.466284871 0.883784831 0.0387665667 -0.000863922585 0.997016549 0.0771833733 -0.0589128062 0.139238402 0.988504887 -0.0989824757 0.0944985673 0.990592003 -0.0306413323 0.171966583 0.984626114 0.110425323 0.993770778 -0.0150290756 -0.563918471 0.805381596 -0.182637379 0.483402044 -0.874661803 0.0359057598 0.0493039526 -0.988582432 0.142386466 -0.120019741 0.852427483 0.508883715 0.0246102959 0.160963759 0.986653447 0.0449187569 0.136044562 0.989683867 -0.0556264296 0.0358512141 0.997807801 -0.0202562995 0.00236792141 0.999792039 -0.0011238507 0.0396200269 0.999214172 0.0263086185 0.0272955243 0.999281168 0.0316946879 0.980985999 0.191472888 0.937103927 0.0329723321 -0.347489595 0.96027112 -0.0176033825 -0.278513044 0.943963408 0.0195888262 -0.32946834 0.0920002311 0.0295057278 0.995321751 0.0437874272 0.041921895 0.998160899 0.0720122457 0.0340586677 0.996822059 0.961666226 -0.0691457689 -0.265361845 0.896500707 -0.381878436 0.224622563 0.949081182 -0.311519921 -0.0469073467 -0.0593016036 -0.020774398 0.998023927 -0.0138961282 -0.0392762311 0.999131739 0.0267904736 -0.0134273041 0.999550879 0.00991367549 -0.029563481 0.999513745 0.0447465591 -0.0198635161 0.998800874 0.0338734798 0.0108796936 0.999366939 0.0198739953 0.0302980337 0.999343336 0.0301890094 -0.999490499 0.0103637092 0.00503962999 -0.999373853 0.0350210518 -0.035865806 -0.998694539 -0.0363713354 -0.00984472688 -0.999884784 0.011553728 0.0086405566 0.999598384 0.0269889571 0.0300310422 0.14447616 0.989052474 0.0300699156 0.128150538 0.991298735 0.406476319 0.0200670492 0.913440943 0.00777454348 -0.998430133 0.0554693602 -0.024747692 -0.99967736 -0.00572018791 0.00714795245 -0.999685168 0.0240515061 -0.0100037446 -0.999613345 0.0259428453 -0.318178356 -0.0375590697 -0.947286546 0.100701548 0.00304861204 -0.994912028 0.442549139 -0.0538312532 -0.895127058 0.917188048 0.0671542063 -0.392754853 0.975089431 -0.220946014 0.0195834469 0.998017669 -0.0484564863 -0.0401584134 0.99908936 0.0343254954 -0.0253411569 0.975506246 0.217324242 0.034025304 0.991820276 0.0564006716 0.114505254 -0.997266173 0.0732017234 0.0100840665 -0.963829637 0.262368798 0.046851784 -0.998257101 0.0560726412 -0.0184005164 -0.999478459 -0.0314525142 -0.00731495209 -0.980041087 -0.195765659 0.0345726013 -0.998486757 -0.0537075959 0.0118210055 -0.999840915 0.000443234982 0.0178301223 -0.999620438 0.0024603561 0.0274391249 0.0723925084 0.102834091 0.992060721 0.479656398 0.876893342 0.031429477</float_array>
          <technique_common>
            <accessor source="#normals_array" count="201" stride="3">
              <param name="X" type="float" />
              <param name="Y" type="float" />
              <param name="Z" type="float" />
            </accessor>
          </technique_common>
        </source>
        <vertices id="vertices">
          <input semantic="POSITION" source="#positions" />
        </vertices>
        <triangles material="scout_333333" count="184">
          <input semantic="VERTEX" source="#vertices" offset="0" />
          <input semantic="NORMAL" source="#normals" offset="1" />
          <p>0 0 1 1 2 2 3 3 4 4 5 5 6 6 7 6 8 6 9 7 10 8 11 9 12 10 13 11 14 12 15 13 16 14 17 15 5 16 18 17 19 18 7 19 20 20 21 21 22 22 14 22 23 22 16 23 12 23 14 23 6 24 24 25 25 26 22 27 16 14 14 28 26 29 27 30 28 31 29 32 30 32 31 32 32 33 33 34 34 35 22 27 17 15 16 14 35 36 36 37 13 38 1 39 37 40 38 41 13 38 39 42 35 36 40 43 33 34 41 44 42 45 43 46 37 47 44 48 45 49 42 50 13 11 12 10 46 51 6 52 25 53 7 19 47 54 39 42 9 7 21 21 38 55 37 47 48 56 49 57 50 58 49 59 51 60 50 61 47 54 11 9 52 62 51 63 53 64 48 56 13 11 23 65 14 12 15 13 54 66 16 14 42 67 37 40 1 39 55 68 17 68 4 68 56 69 17 69 55 69 56 70 15 71 17 72 57 73 8 74 53 75 58 76 6 76 8 76 18 77 26 78 19 79 58 80 31 81 6 24 59 82 60 83 61 84 26 29 60 83 59 82 53 75 51 85 62 86 12 10 54 66 46 51 63 87 56 70 55 88 64 89 65 90 63 87 66 91 67 92 18 17 68 93 69 94 70 95 71 96 72 97 73 98 57 73 53 75 74 99 73 98 72 97 75 100 51 63 48 56 50 58 1 1 0 0 27 30 29 101 57 102 74 103 30 104 29 101 74 103 3 105 75 100 63 87 76 106 69 94 77 107 30 108 76 108 31 108 78 109 79 110 80 111 34 112 5 113 81 114 76 115 30 116 74 99 17 117 5 5 4 4 38 55 2 118 1 119 18 77 67 120 27 121 38 55 21 21 2 118 39 42 13 38 46 122 71 96 52 123 11 9 5 16 82 124 18 17 43 46 42 45 49 57 66 125 82 126 23 127 23 127 82 126 22 128 36 129 52 130 33 131 72 97 71 96 11 9 7 132 48 56 8 133 36 37 23 134 13 38 54 66 12 10 16 14 65 90 56 70 63 87 32 33 41 44 33 34 26 78 81 135 19 79 56 70 65 90 15 71 28 31 27 30 0 0 40 136 23 127 36 129 25 53 20 20 7 19 83 137 40 43 41 44 40 136 66 125 23 127 9 7 11 9 47 54 44 48 68 93 70 95 44 48 77 107 68 93 53 64 8 133 48 56 76 106 62 138 78 109 69 94 76 106 78 109 69 94 78 109 80 111 70 95 69 94 80 111 78 109 62 138 51 60 45 49 70 95 79 110 70 95 80 111 79 110 49 59 42 50 45 49 44 139 83 140 41 141 10 8 72 97 11 9 84 142 31 142 58 142 48 56 43 46 49 57 47 54 52 62 36 143 5 16 19 18 81 144 6 24 31 81 24 25 40 136 36 129 33 131 82 124 5 16 17 145 22 146 82 146 17 146 39 42 47 54 35 36 21 21 37 47 43 46 44 139 32 147 77 148 65 149 85 150 15 151 85 150 86 152 15 151 34 35 33 34 52 153 35 36 47 54 36 37 29 154 84 155 58 156 69 94 68 93 77 107 61 84 60 83 26 29 3 157 34 158 73 159 44 48 70 95 45 49 62 86 76 115 74 99 59 160 24 25 31 81 7 19 21 21 48 56 63 87 55 88 4 161 64 89 63 87 75 100 3 162 63 87 4 161 64 163 10 164 85 150 65 149 64 163 85 150 85 150 10 164 87 165 10 164 9 166 87 165 9 166 39 167 87 165 39 167 46 168 87 165 46 168 54 169 86 152 87 165 46 168 86 152 54 169 15 151 86 152 82 124 66 91 18 17 88 170 89 171 90 172 91 173 90 172 89 171 78 109 51 60 49 59 45 49 79 110 92 174 49 59 45 49 92 174 92 174 78 109 49 59 52 175 71 176 34 158 76 177 59 177 31 177 27 121 26 78 18 77 26 29 28 31 61 84 64 89 72 97 10 8 85 150 87 165 86 152 20 178 89 171 2 179 89 171 88 170 0 0 2 179 89 171 0 0 88 170 90 172 28 31 0 0 88 170 28 31 28 31 90 172 61 84 90 172 91 173 61 84 20 178 25 180 89 171 25 180 24 181 89 171 24 181 91 173 89 171 24 181 59 82 91 173 59 82 61 84 91 173 21 21 43 46 48 56 73 159 34 158 71 176 29 182 31 182 84 182 44 139 41 141 32 147 20 20 2 118 21 21 3 183 5 183 34 183 74 99 53 75 62 86 78 109 92 174 79 110 8 74 57 73 58 184 58 156 57 185 29 154 26 186 59 187 81 114 59 187 76 188 81 114 76 188 77 189 93 190 81 114 76 188 93 190 93 190 34 112 81 114 75 100 3 105 73 98 83 191 44 192 42 193 1 194 27 195 67 196 42 193 1 194 83 191 83 191 1 194 67 196 66 197 40 198 83 191 67 196 66 197 83 191 75 100 72 97 64 89 32 147 93 199 77 148 32 33 34 35 93 200</p>
        </triangles>
      </mesh>
    </geometry>
  </library_geometries>
  <library_visual_scenes>
    <visual_scene id="scene">
      <node id="pelvis">
        <instance_geometry url="#geometry">
          <bind_material>
            <technique_common>
              <instance_material symbol="scout_333333" target="#scout_333333" />
            </technique_common>
          </bind_material>
        </instance_geometry>
      </node>
    </visual_scene>
  </library_visual_scenes>
  <scene>
    <instance_visual_scene url="#scene" />
  </scene>
</COLLADA>