<?xml version='1.0' encoding='utf-8'?>
<COLLADA xmlns="http://www.collada.org/2005/11/COLLADASchema" version="1.4.1">
  <asset>
    <created>2026-09-14T00:00:00Z</created>
    <modified>2026-09-14T00:00:00Z</modified>
    <unit name="metre" meter="1" />
    <up_axis>Z_UP</up_axis>
  </asset>
  <library_effects>
    <effect id="scout_b2b2b2_effect">
      <profile_COMMON>
        <technique sid="common">
          <lambert>
            <emission>
              <color>0 0 0 1</color>
            </emission>
            <ambient>
              <color>0.35 0.35 0.35 1</color>
            </ambient>
            <diffuse>
              <color>0.7 0.7 0.7 1</color>
            </diffuse>
          </lambert>
        </technique>
      </profile_COMMON>
    </effect>
  </library_effects>
  <library_materials>
    <material id="scout_b2b2b2" name="scout_b2b2b2">
      <instance_effect url="#scout_b2b2b2_effect" />
    </material>
  </library_materials>
  <library_geometries>
    <geometry id="geometry" name="pelvis_contour_link">
      <mesh>
        <source id="positions">
          <float_array id="positions_array" count="282">0.0161143169 0.0649577156 -0.0313828625 -0.035447035 0.0579915382 -0.0278865378 0.0292149391 0.0594714135 -0.0278122406 0.0366130061 0.0626309663 -0.0319250971 -0.0340703353 0.0634120256 -0.031924352 -0.0402469561 0.0606428683 -0.0316092968 0.0448976234 0.0571572036 -0.0322170742 0.0411225744 0.053597372 -0.0279106256 -0.0461038835 0.0550820827 -0.032026127 -0.0542268232 -0.0412309878 -0.0490126424 -0.0571490601 -0.0189390928 -0.0550535321 -0.0548741557 -0.0495609269 -0.0702365935 -0.0273224823 0.0677128807 -0.0579714403 0.0306575894 0.0672814026 -0.0597601682 0.0492863655 0.0476760603 -0.0323394984 0.0468830243 0.0311016869 -0.0278756134 -0.0495902635 0.0429874249 -0.0312369298 -0.0429113619 0.0499862805 -0.0278163329 0.0468833894 0.0627225637 -0.0627650246 0.0520389676 0.0275794119 -0.0320674628 0.0412780382 0.0648215786 -0.062328428 -0.0506910682 0.0587487482 -0.0662825331 -0.0438126624 0.0639818609 -0.0628917813 0.0534252636 0.0523523614 -0.0549285598 -0.0559658185 0.0343552008 -0.0536648147 -0.0474995747 0.00834936462 -0.0278221872 0.0592558235 0.02146166 -0.0530577712 0.0427212492 0.0356206074 -0.12409924 0.0266055297 0.0288350824 -0.142201662 -0.0544532724 0.0505057052 -0.0694132671 0.0536449403 0.0534945428 -0.0695144385 0.00185687467 0.025910886 -0.14970015 -0.0197636802 0.0275298841 -0.145542011 -0.036294613 0.0322273113 -0.133123204 -0.0479944907 0.0397581533 -0.112507328 -0.052370511 -0.00152437435 -0.031675946 0.0603072792 0.0317332298 -0.0721046403 0.0513141714 -0.0346317291 -0.0315864645 0.0457007401 -0.0383567847 -0.0278020315 0.0571084023 -0.0243895464 -0.0439212099 0.0489168502 0.0422451347 -0.106093563 0.0480589978 -0.0403409824 -0.111319244 0.0559409708 -0.0486250073 -0.071792908 0.0500436351 -0.0597140789 -0.0645432323 -0.0532867573 0.0166805834 -0.122789718 -0.0536682792 -0.019191334 -0.120671012 -0.0539484769 0.0201808512 -0.119033083 0.0592143014 0.0327587016 -0.0880835056 0.0615897141 -0.00988695677 -0.0749950111 -0.0165155493 -0.0651379898 -0.0319254473 0.0165192094 -0.0599845089 -0.0278573856 -0.0335327834 -0.0583941489 -0.0278318524 -0.0572310574 0.0295273829 -0.0927174091 -0.0490651205 -0.0469228849 -0.0313480981 -0.0440518931 -0.0489001572 -0.0278857816 0.0456768125 -0.0553487837 -0.0315750986 0.0606131293 -0.000462049822 -0.0971684605 0.0554480851 0.0219164919 -0.116349272 -0.0399082527 0.0206114631 -0.13601996 0.0408753976 0.0169698577 -0.136161983 0.0240103304 0.0148848221 -0.147201374 -0.0430109799 -0.0641923994 -0.0628783926 -0.0498377495 -0.059805464 -0.0651609674 -0.0480003022 -0.0397309773 -0.112568624 0.0391368829 -0.0560754351 -0.0277972408 -0.0280212983 0.0178736113 -0.144549087 -0.0141117321 0.0138515253 -0.15012674 0.0587210804 -0.0376781151 -0.0655271709 0.0502501577 -0.0558032803 -0.0444098748 0.00496469392 0.0115193073 -0.152021736 0.0390971825 -0.0613918975 -0.031726636 -0.0570055284 -0.0286549702 -0.0953608602 0.0589635894 -0.0301343035 -0.0948161036 -0.0232898574 -0.00984217878 -0.148185939 0.0558908358 -0.0233399291 -0.113881864 0.0328252576 -0.00917588454 -0.143838719 -0.0427292362 -0.0588949844 -0.0316794515 0.0276892837 -0.063917309 -0.0314245299 0.0134345656 -0.00753435306 -0.15114893 -0.00782651175 -0.0104162805 -0.151554614 -0.042521216 -0.0018921853 -0.136488438 0.0513849296 -0.00372699415 -0.126367614 0.0525951087 -0.0172835924 -0.123006009 -0.0375420526 -0.0201838203 -0.138214365 -0.0377762839 -0.0621834435 -0.0319148712 0.0451463535 -0.0632425323 -0.0633115917 0.0203502625 -0.0276645292 -0.145300046 0.00290653086 -0.0259112157 -0.14952068 0.0122378683 -0.0680048242 -0.0496140793 0.0338927768 -0.0668123886 -0.0605630912 -0.0154901473 -0.0269418731 -0.14712587 0.0373117663 -0.0324036367 -0.132303178 -0.0305836406 -0.067076996 -0.0602254383 -0.0343393311 -0.0311968997 -0.135582775</float_array>
          <technique_common>
            <accessor source="#positions_array" count="94" stride="3">
              <param name="X" type="float" />
              <param name="Y" type="float" />
              <param name="Z" type="float" />
            </accessor>
          </technique_common>
        </source>
        <source id="normals">
          <float_array id="normals_array" count="336">0.000661700033 0.550965607 0.834527671 -0.150948077 0.349390328 0.924738407 0.0765503645 0.376156211 0.9233886 0.24567242 0.555997372 0.794047832 -0.104250416 0.611026049 0.784715891 -0.359548748 0.476000845 0.802588224 0.657279551 0.570161164 0.492848694 0.308125734 0.242358983 0.919956863 -0.499569058 0.33948341 0.796982884 -0.966447473 -0.188554466 0.17443195 -0.992085934 -0.0403786339 0.11889106 -0.938682437 -0.340450376 -0.0544873886 0.0393869914 0.992321849 0.117243618 -0.0899233744 0.987768888 -0.127383068 -0.225529775 0.963958263 0.141141057 0.323906213 0.933083117 0.15633522 0.103368141 0.98429966 -0.143070489 0.808340371 0.239007607 0.538015962 0.36777842 0.0425927192 0.928937495 -0.816336155 0.157572493 0.5556674 -0.329924673 0.163779765 0.929691315 0.566839755 0.818611443 -0.0925633684 0.830944598 0.0614219196 0.552954316 0.255081236 0.95247221 -0.166523978 -0.746265054 0.659430265 -0.0907752886 -0.842394531 0.510376155 0.172880426 -0.543442547 0.824867189 0.155770048 -0.384372115 0.914033175 -0.129620373 0.901325405 0.407627881 0.146465167 -0.983065844 0.1199819 0.138513148 -0.354481429 0.0120247323 0.934985757 0.977475345 0.0759227797 0.196920484 0.117505684 0.898436546 -0.423088849 0.0407090113 0.904775083 -0.423939675 -0.943018436 0.329986334 -0.0427234992 0.843818307 0.522295177 -0.123200692 0.00147790147 0.907685816 -0.419647872 -0.0265317634 0.907692015 -0.418797374 -0.076222457 0.903995037 -0.420693606 -0.607448816 0.675008535 -0.418771297 -0.841874182 -0.0132750822 0.539510489 0.986276507 0.163058877 0.025894165 0.803804576 -0.115411289 0.583590984 0.343059659 -0.0709056854 0.936633587 0.960331261 -0.0791586637 0.267390668 0.609250724 0.693906844 -0.383805811 0.565434039 -0.701771021 -0.433361053 0.899587393 -0.425378025 -0.0989751369 0.71714139 -0.690869629 -0.0916922018 -0.871202826 0.153400674 -0.466340929 -0.887700319 -0.189319402 -0.41969794 -0.92184931 0.225669637 -0.315066785 0.951454043 0.262643784 -0.160478726 0.999017298 -0.0347530469 0.0275070276 -0.0238907859 -0.570920467 0.82065773 0.0115368729 -0.351577759 0.936087608 -0.114480153 -0.360405087 0.925744295 -0.976904213 0.176635623 -0.120241337 -0.824692786 -0.22984688 0.516771019 -0.359586477 -0.165200487 0.918371618 0.705178201 -0.43624872 0.558937132 0.989458501 0.0042203567 -0.144755304 0.885572195 0.224722907 -0.406523675 -0.336865008 0.263621539 -0.903894722 -0.630559266 0.243941858 -0.736808896 -0.626982152 0.381040096 -0.679486454 0.660569429 0.190353885 -0.72623235 0.372616023 0.14749743 -0.916188717 0.460777879 0.290712893 -0.838552177 0.718651056 0.396742821 -0.57108295 -0.357067764 -0.92442137 -0.133969024 -0.722120762 -0.687406123 -0.0775526688 -0.602297544 -0.676106036 -0.424403518 0.248313934 -0.306919485 0.918771267 -0.459641725 0.174000636 -0.870892227 -0.214014247 0.117668964 -0.969717443 0.0373235159 0.210192278 -0.976947367 0.979373991 -0.186753824 0.0771333724 0.82312727 -0.526469529 0.212817475 0.0731842518 0.0931307748 -0.992960572 0.377087086 -0.79259336 0.479167134 -0.975289524 -0.176844642 -0.132424787 0.949007988 -0.262074649 -0.175216049 -0.375508964 -0.0843464136 -0.922972739 0.894922316 -0.248378426 -0.370705009 0.53264755 -0.103191212 -0.840022683 -0.610311568 -0.600672424 0.51644218 0.0857041553 -0.554287672 0.827900946 0.20122768 -0.0713475049 -0.976942658 -0.105346672 -0.0831179395 -0.99095583 -0.669257641 -0.0151033858 -0.742876887 0.821391046 -0.013425448 -0.570207477 0.821415067 -0.1826545 -0.54029125 -0.599510431 -0.233665898 -0.765498221 -0.2301967 -0.582327724 0.779681921 0.413719058 -0.900570929 -0.133448809 0.373387843 -0.227058291 -0.899458766 0.0502809957 -0.174830675 -0.983313799 0.0275350641 -0.998215556 0.0529862307 0.15915741 -0.976118445 -0.14785704 0.135664523 -0.978903532 0.152784079 -0.278771132 -0.226622 -0.933235824 0.657278538 -0.313920587 -0.685155988 -0.0643853545 -0.989943027 0.125965759 -0.111184597 -0.98231566 -0.150645196 -0.349736869 -0.926919162 0.136033148 -0.595090747 -0.364113897 -0.716441274 0.0922261029 -0.899516881 -0.427040726 0.00273459242 -0.907609403 -0.419806778 0.0287406407 -0.905670702 -0.423006535 -0.0762405172 -0.901339769 -0.42634955 -0.0204962809 -0.906300545 -0.422136486</float_array>
          <technique_common>
            <accessor source="#normals_array" count="112" stride="3">
              <param name="X" type="float" />
              <param name="Y" type="float" />
              <param name="Z" type="float" />
            </accessor>
          </technique_common>
        </source>
        <vertices id="vertices">
          <input semantic="POSITION" source="#positions" />
        </vertices>
        <triangles material="scout_b2b2b2" count="184">
          <input semantic="VERTEX" source="#vertices" offset="0" />
          <input semantic="NORMAL" source="#normals" offset="1" />
          <p>0 0 1 1 2 2 3 3 0 0 2 2 4 4 5 5 1 1 6 6 3 3 7 7 5 5 8 8 1 1 9 9 10 10 11 11 0 12 12 13 4 14 3 15 13 16 0 12 14 17 6 6 7 7 15 18 14 17 7 7 8 8 16 19 17 20 6 6 18 21 3 15 19 22 14 17 15 18 18 21 20 23 3 15 21 24 8 25 5 26 22 27 5 26 4 14 23 28 6 6 14 17 6 6 23 28 18 21 8 25 24 29 16 19 16 19 25 30 17 20 19 22 26 31 14 17 20 23 27 32 13 16 27 32 28 33 13 16 21 24 29 34 8 25 24 29 8 25 29 34 26 31 23 28 14 17 30 35 18 21 23 28 31 36 12 13 13 16 31 36 32 37 12 13 32 37 33 38 12 13 33 38 22 27 12 13 33 38 34 39 22 27 24 29 35 40 16 19 26 31 36 41 23 28 34 39 21 24 22 27 35 40 25 30 16 19 37 42 15 18 38 43 39 44 26 31 19 22 18 21 40 45 20 23 40 45 27 32 20 23 41 46 42 47 43 48 44 49 45 50 46 51 36 41 30 35 23 28 40 45 18 21 30 35 39 44 19 22 37 42 47 52 30 35 36 41 29 34 21 24 34 39 48 53 36 41 26 31 49 54 50 55 51 56 46 51 52 57 34 39 52 57 29 34 34 39 35 40 53 58 54 59 55 60 37 42 38 43 48 53 56 61 36 41 47 52 40 45 30 35 47 52 57 62 40 45 32 63 58 64 33 65 59 66 60 67 28 68 40 45 57 62 27 69 33 65 44 49 34 39 61 70 62 71 63 72 64 73 55 60 38 43 39 44 48 53 26 31 65 74 32 63 66 75 65 74 58 64 32 63 57 62 59 66 27 69 59 66 28 68 27 69 60 67 31 76 28 68 58 64 44 49 33 65 52 57 10 10 24 29 10 10 53 58 35 40 39 44 67 77 48 53 37 42 68 78 39 44 31 76 66 75 32 63 69 79 31 76 60 67 44 49 46 51 34 39 9 9 53 58 10 10 70 80 55 60 64 73 66 75 31 76 69 79 71 81 10 10 52 57 55 60 68 78 37 42 72 82 48 53 67 77 72 82 56 61 48 53 68 78 67 77 39 44 57 62 47 52 56 61 73 83 65 74 66 75 45 50 52 57 46 51 72 82 74 84 56 61 75 85 60 67 59 66 76 86 54 59 53 58 77 87 70 80 64 73 78 88 69 79 60 67 79 89 73 83 66 75 80 90 58 64 65 74 73 83 80 90 65 74 80 90 44 49 58 64 57 62 81 91 59 66 75 85 78 88 60 67 45 50 71 81 52 57 70 80 68 78 55 60 42 47 67 77 68 78 43 48 42 47 68 78 42 47 72 82 67 77 74 84 57 62 56 61 79 89 66 75 69 79 81 91 75 85 59 66 64 73 50 55 77 87 9 9 62 71 53 58 76 86 51 56 54 59 12 13 0 12 13 16 74 84 82 92 57 62 78 88 79 89 69 79 83 93 80 90 73 83 11 11 62 71 9 9 62 71 76 86 53 58 76 86 84 94 51 56 70 80 85 95 68 78 85 95 43 48 68 78 42 47 41 46 72 82 72 82 41 46 74 84 86 96 78 88 75 85 86 96 87 97 78 88 87 97 79 89 78 88 71 81 63 72 11 11 45 50 44 49 80 90 45 50 63 72 71 81 88 98 89 99 77 100 77 100 89 99 70 80 89 99 85 95 70 80 87 97 90 101 79 89 90 101 73 83 79 89 83 93 45 50 80 90 91 102 75 85 82 92 88 98 77 100 49 103 62 71 11 11 63 72 49 54 51 56 84 94 88 98 49 103 92 104 85 95 41 46 43 48 28 33 31 36 13 16 90 101 83 93 73 83 91 102 86 96 75 85 84 105 76 86 62 71 88 98 92 104 89 99 41 46 91 102 82 92 93 106 83 93 90 101 83 93 93 106 45 50 93 106 63 72 45 50 61 70 84 105 62 71 61 70 92 104 84 105 92 104 49 103 84 105 89 99 41 46 85 95 89 99 91 107 41 46 89 99 87 108 86 109 61 70 93 110 92 104 93 110 90 111 92 104 90 111 87 108 92 104 87 108 89 99 92 104 86 109 91 107 89 99 63 72 93 110 61 70 49 54 77 87 50 55 21 24 5 26 22 27 51 56 50 55 54 59 50 55 2 2 54 59 0 0 4 4 1 1 37 42 19 22 15 18 3 3 2 2 7 7 75 85 81 91 82 92 35 40 54 59 25 30 56 61 47 52 36 41 12 13 22 27 4 14 38 43 15 18 2 2 50 55 38 43 2 2 15 18 7 7 2 2 50 55 64 73 38 43 10 10 35 40 24 29 17 20 25 30 2 2 25 30 54 59 2 2 2 2 1 1 17 20 82 92 81 91 57 62 52 57 24 29 29 34 82 92 74 84 41 46 20 23 13 16 3 15 11 11 10 10 71 81 17 20 1 1 8 8</p>
        </triangles>
      </mesh>
    </geometry>
  </library_geometries>
  <library_visual_scenes>
    <visual_scene id="scene">
      <node id="pelvis_contour_link">
        <instance_geometry url="#geometry">
          <bind_material>
            <technique_common>
              <instance_material symbol="scout_b2b2b2" target="#scout_b2b2b2" />
            </technique_common>
          </bind_material>
        </instance_geometry>
      </node>
    </visual_scene>
  </library_visual_scenes>
  <scene>
    <instance_visual_scene url="#scene" />
  </scene>
</COLLADA>