<?xml version='1.0' encoding='utf-8'?>
<COLLADA xmlns="http://www.collada.org/2005/11/COLLADASchema" version="1.4.1">
  <asset>
    <created>2026-09-14T00:00:00Z</created>
    <modified>2026-09-14T00:00:00Z</modified>
    <unit name="metre" meter="1" />
    <up_axis>Z_UP</up_axis>
  </asset>
  <library_effects>
    <effect id="scout_333333_effect">
      <profile_COMMON>
        <technique sid="common">
          <lambert>
            <emission>
              <color>0 0 0 1</color>
            </emission>
            <ambient>
              <color>0.1 0.1 0.1 1</color>
            </ambient>
            <diffuse>
              <color>0.2 0.2 0.2 1</color>
            </diffuse>
          </lambert>
        </technique>
      </profile_COMMON>
    </effect>
  </library_effects>
  <library_materials>
    <material id="scout_333333" name="scout_333333">
      <instance_effect url="#scout_333333_effect" />
    </material>
  </library_materials>
  <library_geometries>
    <geometry id="geometry" name="right_ankle_roll_link">
      <mesh>
        <source id="positions">
          <float_array id="positions_array" count="282">-0.0551620647 -0.019930983 -0.00807682611 -0.0624543652 -0.00626796298 -0.0102206618 -0.0595298149 -0.0193836298 -0.0350041203 -0.0661878437 0.00550732808 -0.0346698835 -0.040276397 -0.0301005524 -0.0348945074 -0.039970912 -0.0282594524 -0.00846209843 0.0289807059 0.0265881997 -0.00373086915 -0.0406478234 0.0237213578 -0.00485123135 0.012632546 0.0240057763 -0.0143418582 -0.0460572504 -0.0204483755 -0.00503465766 -0.0573886856 -0.00472322991 -0.00567416893 -0.0436349586 -0.0116976779 0.0150180105 -0.0524534546 -0.0108012566 -0.0144467922 -0.0404858403 -0.0218974501 -0.0142248459 0.0672273859 -0.00809828937 0.00537903188 0.12761274 -0.0266832225 -0.0212558042 0.106824502 -0.00537359063 -0.00938091334 -0.0338895582 -0.0248189364 -0.00130424113 -0.0168241039 -0.0221768133 0.0100244442 0.00722687179 -0.0253364518 -0.00528877461 0.0163018741 -0.0297210589 -0.033238329 -0.0121136373 -0.0294217765 -0.0345788449 -0.0106166126 0.0290316641 -0.034304332 -0.0187764429 -0.0142903514 0.00643619103 -0.0264251884 -0.0154682836 0.00295101292 -0.0219872668 -0.00888363179 -0.0129729295 -0.0259996671 -0.00516033871 -0.00429185759 -0.018920226 -0.00696353894 0.00111575203 -0.0189132504 0.000951776921 -0.00690037664 0.0199614279 -0.0236993432 0.00778161222 -0.0527650677 -0.00319998944 0.00974711124 -0.0438760929 -0.0140299099 0.0166033693 -0.0242032632 -0.0247263648 0.00950715784 -0.0256111361 -0.0112449033 0.0203458983 -0.0425305292 0.0129205994 0.0179671235 0.0133546516 -0.0277870912 0.00595165137 -0.0261157025 -0.00117059622 0.00679006474 -0.0180888548 0.00174441538 0.0123694763 -0.026334187 0.00431142887 0.0139286295 -0.0568677485 0.013245672 -0.00180463691 -0.0608289875 0.0182505492 -0.0344837569 -0.0462318994 0.0200599767 -0.014566944 -0.0533486083 0.0138999578 -0.00439021131 -0.0433118604 0.0282015037 -0.0124320425 -0.0430951379 0.0296118483 -0.0348952562 -0.026139481 0.00696271984 -0.00116648595 -0.0264439043 0.00797119178 -0.0135633769 -0.0220292769 0.0148547422 0.00334835658 -0.0184001178 0.00742957741 -0.0136035923 0.00926530175 0.0285490807 -0.00762065826 0.0195568595 0.0233988166 0.00816104002 -0.0434478633 0.0111852717 0.0148060927 -0.0361201353 0.0222147387 0.00991592184 -0.0298947785 0.021976823 0.00649799267 -0.0252830088 0.0117896777 0.0193519723 0.0023531809 0.0262129344 0.00818157569 -0.0177551433 0.0213398542 0.011223129 0.0230042338 -0.0250864029 -0.0146414358 0.0454973057 0.0378220938 -0.0344467498 0.0439293012 -0.0367343836 -0.0345491432 0.0409861729 -0.0282977074 -0.0113621261 0.0823772177 -0.0242779572 -0.0139033068 0.0403531678 -0.0345745385 -0.0189224668 0.106199622 -0.036455173 -0.0349722691 0.0983150303 -0.0349008329 -0.0213427655 0.0665140674 -0.0275702383 -0.00835539866 0.0620593689 -0.0212136488 0.0034298005 0.0603279397 -0.0196759682 0.00141225872 0.10413646 -0.00998942833 -0.0124531854 0.0899583772 -0.0224332083 -0.0119525036 0.0641744807 -0.00692724762 0.00434783474 0.134180531 -0.0235606376 -0.0349509642 0.139476284 -0.0138940979 -0.0193569623 0.142316893 -0.00528848451 -0.0349804796 0.141326532 0.0114107765 -0.019396456 0.0373103283 -0.0169861484 0.0180773009 0.0389811285 0.00826939568 0.0235183667 0.036605861 0.0160267204 0.0184114818 0.0369412303 -0.00962703303 0.0221712328 0.04726151 0.0314728096 -0.0123071885 0.0204319227 0.0299725663 -0.0332960635 0.0742443949 0.0250013955 -0.0122306515 0.0465834737 0.0259997845 -0.0145914592 0.102305077 0.0103825461 -0.0115062827 0.059698008 0.0166775677 0.00434181187 0.0946774185 0.0205680784 -0.0138150323 0.0956536755 0.0352743976 -0.0221483465 0.12326891 0.0314127952 -0.0346919186 0.0942642614 0.0370087624 -0.0351234376 0.122457378 0.0290626679 -0.0209234636 0.0682880953 0.0222139396 -0.000788494828 0.0887169912 0.0164348949 -0.00549350306 0.13903448 0.0162893198 -0.0350548625 0.0402141809 0.0197387766 0.0174417663</float_array>
          <technique_common>
            <accessor source="#positions_array" count="94" stride="3">
              <param name="X" type="float" />
              <param name="Y" type="float" />
              <param name="Z" type="float" />
            </accessor>
          </technique_common>
        </source>
        <source id="normals">
          <float_array id="normals_array" count="579">-0.693844557 -0.664619684 0.277236968 -0.948221922 -0.164804399 0.271504521 -0.780419588 -0.621770501 0.065929465 -0.985340595 0.104425326 0.134904847 -0.238598496 -0.968700409 0.0684858933 -0.267348349 -0.941694617 0.204294026 -0.0405093841 -0.990613282 -0.130553856 0.31556654 -0.945474923 -0.0805907622 0.043046549 -0.982002139 0.183898732 0.61265099 0.784920752 -0.092510052 0.804628253 0.573562384 -0.153621688 0.43351239 0.755941808 -0.490529329 0.768486917 0.628196955 0.121640392 0.351692438 0.918163002 0.18245317 0.420507371 -0.112879038 0.900239885 0.24486421 -0.284133226 0.926989675 0.307723463 -0.0612312518 0.949503541 0.199159443 0.965109825 -0.169995844 0.0798348784 0.930728137 -0.356891543 0.0456402153 0.998735428 -0.0210838746 -0.00363459135 0.00190181274 -0.999991596 0.0299471039 0.00256442954 -0.999548197 0.0276413281 0.00138735643 -0.999616921 0.277311116 -0.912701964 -0.300122738 -0.334788352 0.670650542 0.661924958 -0.0231724363 0.970124543 -0.241498291 -0.803793907 -0.0791830048 0.58961457 -0.457760483 -0.45608145 0.763180912 -0.0601986386 -0.824223876 0.563055158 -0.00955520291 -0.62715888 0.778832734 -0.152602687 -0.00956488866 0.988241315 -0.524105906 0.30456391 0.795332491 -0.00754815526 -0.978899539 0.204202637 0.0820336267 -0.420736909 0.903466046 0.256018758 0.819779217 -0.51226598 0.335026026 0.838011026 -0.430691421 0.443843573 0.844598353 -0.299427032 -0.0615988895 -0.455983579 0.88785392 0.0142381461 -0.485268176 0.874249399 -0.242692739 -0.372574002 0.89570576 -0.353954256 -0.311177194 0.881977975 0.143192708 0.777582288 -0.612259448 0.984207451 -0.10104759 -0.145344704 0.998142302 -0.021741407 -0.0569147803 0.991468132 -0.0632907823 -0.11395248 -0.806678116 0.455757618 0.376238585 -0.775463045 0.614296734 0.145933285 0.839917421 -0.196597725 0.505853832 0.819733739 -0.173123285 0.545953214 0.808438659 -0.160774931 0.566196442 0.856839299 -0.218090042 0.467186421 -0.349390775 0.9168908 0.192969769 -0.277198166 0.959589362 0.0484715365 0.583629608 -0.767220378 -0.265987426 0.609696507 -0.790903091 -0.0523683764 0.493262619 -0.211819872 0.843696833 -0.610504329 -0.789841533 0.0586073585 0.0599302538 0.918990254 -0.389698982 0.00358178793 0.999874771 0.0154144308 -0.0585249178 0.993709505 0.0954791009 -0.0410814025 -0.957219541 -0.28643167 0.852814019 -0.0837445334 -0.515456259 0.849559844 -0.0717005953 -0.522596538 0.830891967 -0.0119454525 -0.556305528 0.868703067 -0.156043261 -0.470112205 0.357888103 -0.772560179 -0.524468184 -0.347691894 0.867429256 0.355916858 0.172254995 -0.889978409 -0.422216386 0.261318505 -0.0304758437 -0.96477139 0.24393855 -0.0452750288 -0.968733251 0.266464204 -0.026067974 -0.963492215 0.283717632 -0.0111995218 -0.958842456 -0.0770850852 0.0440769605 0.996049762 -0.0198598616 0.655519724 0.754916906 -0.0168550666 0.66128099 0.749948859 -0.0200508516 0.65939188 0.751531959 0.19953081 -0.731850207 -0.651600122 -0.98816222 0.153393373 0.00243919971 -0.92919457 0.366390288 0.0485347658 -0.999137998 0.01706581 -0.037841998 0.600606263 -0.558220565 -0.572417676 0.32508871 0.600436509 0.730611563 -0.0202235579 0.978384018 0.205804944 0.098280184 -0.921120048 -0.376668125 -0.0220947601 0.611311197 0.791081846 0.0529372394 0.362356961 0.93053484 0.0577441566 0.346176594 0.936390638 0.114004664 0.969215214 0.218230963 -0.0283369049 0.0019396292 -0.999596536 -0.026808193 0.000370779366 -0.999640524 -0.0183298327 0.662266672 0.749043941 -0.060697116 -0.976170361 0.208344087 -0.0979029164 -0.988617659 0.114237167 0.202610567 -0.964857399 0.167329475 0.125713661 -0.876992285 0.463767886 0.0871960372 -0.854540288 0.512013376 0.280341238 -0.630025566 0.72420752 0.155231193 -0.710512161 0.68634963 -0.44738543 0.337752014 -0.828112245 -0.379098833 0.139194652 -0.914827287 -0.353574365 0.368255466 -0.85986805 -0.447205782 0.117632546 -0.886662006 -0.129060879 0.0376283079 0.990922511 -0.0698145404 0.0585313849 0.995841384 -0.318151653 0.397129536 0.860852838 0.513274193 -0.851088345 0.110445701 0.702981114 -0.709851742 0.0439100079 0.250820369 -0.157181516 0.9551875 0.919016898 -0.385495305 0.0824702457 0.990811706 -0.134234264 0.0165314469 0.998121262 0.0612310395 -0.00218166597 0.0453662202 -0.468338788 0.882383525 0.0453232266 -0.45363614 0.890033722 -0.0809406266 0.950737655 -0.299243242 -0.552481771 0.672469974 0.492491633 0.285085082 -0.678119004 0.677407682 -0.866108358 0.0613804795 0.496073395 -0.543970227 0.122538522 -0.830108821 -0.506477237 0.399642587 -0.764046192 0.589256167 0.133878395 0.79677707 0.462530762 -0.252546221 0.84987396 -0.127189815 0.9035151 -0.40924716 0.0328938439 0.936569571 0.348934799 -0.0770983845 0.976501644 0.201246992 -0.203315541 0.978516698 -0.0341744199 -0.12469174 -0.991021991 0.0482431613 -0.182818383 -0.827485979 -0.530890226 -0.018661296 -0.999539971 0.0239077508 -0.384200275 -0.170051381 -0.907453954 -0.338759601 -0.537089765 -0.772513151 -0.0872410536 -0.666643798 0.740253329 -0.341874003 -0.534260929 -0.773102462 -0.381774336 -0.0771305487 0.921031594 -0.0879403427 -0.005041169 0.996113002 0.132286802 0.88994962 0.436451524 0.453205109 0.877096176 0.159083039 0.0963997245 0.987871528 0.12172465 0.466931731 0.866711318 0.175459996 0.233988479 0.768923402 0.594984233 0.320691973 0.337756336 0.884916544 0.279897809 0.116994083 0.952874362 0.230193898 0.443418443 0.866251051 0.680401921 0.71974051 0.137937829 0.688553512 0.714861095 0.121933244 -0.16139403 -0.98644042 -0.0297872033 0.123388067 0.90522325 0.406627953 -0.27145499 0.481558949 0.833314538 -0.274949551 0.484248191 0.830606043 -0.283283889 0.490632206 0.824032903 -0.261275887 0.473684281 0.841045856 -0.526787996 -0.116854139 -0.841926038 0.567772865 0.205555722 0.797107816 -0.187666446 -0.910094678 -0.369471282 -0.108776607 0.897961199 -0.426419228 -0.109778702 0.897253931 -0.427649379 0.0621338524 -0.945210874 0.320493042 0.000677080243 -0.9987185 0.0506052375 0.0154663399 0.0175615363 -0.999726176 0.0084468862 0.0124542033 -0.999886751 0.00697824406 0.00409578858 -0.999967277 -0.0131397415 0.00290916301 -0.999909461 0.000322698179 0.00141760637 -0.999998927 -0.147813946 0.923773587 -0.353261054 -0.899288595 0.432956666 0.0618751496 -0.898548126 0.435097247 0.057459712 -0.966796517 -0.255530298 0.00295399036 -0.954513013 -0.139017344 -0.263778567 -0.978472412 -0.154160529 -0.13720867 -0.948705375 -0.0171048343 -0.315698445 -0.988865316 -0.0517095737 -0.139540315 -0.0124773337 -0.000103843333 -0.999922156 0.171568424 0.745732605 -0.643775761 0.998917639 -0.0104803666 -0.0453174338 0.943879843 0.32483229 0.0597899929 0.975046694 0.219019368 0.0362554267 0.979967475 -0.168214068 -0.106619902 0.983966053 0.149346247 -0.0975014269 0.0153989447 0.00994864013 0.999831915 0.00543871056 0.0343289673 0.999395788 -0.00682563754 -0.0313178115 0.999486148 0.00910442974 -0.00836550724 0.999923587 -0.00706484029 0.00228257128 0.999972463 -0.0330153517 0.0344451852 0.998861134 -0.0481331348 -0.00297975983 0.998836458 -0.0333674476 -0.0486012809 0.998260736 0.00189365947 -0.00245894678 -0.999995172 -0.00218648533 -0.000637238845 -0.999997377 -0.00700182421 0.00229463587 -0.99997288 0.00352194696 0.000692213885 -0.999993563 -0.000208441517 -0.000102320555 -1 -0.030810209 -0.00813241303 -0.999492168 -0.0195444059 0.0451752618 0.99878788 0.967972338 -0.182970658 -0.171904862</float_array>
          <technique_common>
            <accessor source="#normals_array" count="193" stride="3">
              <param name="X" type="float" />
              <param name="Y" type="float" />
              <param name="Z" type="float" />
            </accessor>
          </technique_common>
        </source>
        <vertices id="vertices">
          <input semantic="POSITION" source="#positions" />
        </vertices>
        <triangles material="scout_333333" count="188">
          <input semantic="VERTEX" source="#vertices" offset="0" />
          <input semantic="NORMAL" source="#normals" offset="1" />
          <p>0 0 1 1 2 2 1 1 3 3 2 2 4 4 0 0 2 2 5 5 0 0 4 4 6 6 7 7 8 8 9 9 10 10 11 11 12 12 9 9 13 13 14 14 15 15 16 16 9 9 17 17 13 13 18 18 19 19 17 17 20 20 21 21 22 22 23 23 24 23 25 23 26 24 27 24 28 24 18 18 29 25 19 19 30 26 1 1 0 0 31 27 0 0 5 5 31 27 30 26 0 0 32 28 31 27 5 5 33 29 31 27 32 28 31 27 33 30 34 31 32 28 5 5 35 32 18 33 33 29 32 28 36 34 27 35 26 36 37 37 38 38 24 39 37 37 24 39 23 40 36 34 37 41 27 35 27 42 37 43 23 44 39 45 40 46 3 3 39 45 3 3 1 1 41 47 10 48 12 49 41 47 42 50 10 48 43 51 44 52 40 46 43 51 40 46 39 45 42 53 41 54 7 7 45 55 26 55 28 55 37 56 45 56 28 56 46 57 47 57 48 57 22 58 44 52 49 59 12 12 10 10 9 9 50 60 7 7 6 6 18 18 17 17 11 11 39 45 1 1 30 26 10 61 51 62 11 63 42 64 51 62 10 61 34 31 39 45 30 26 7 7 51 65 42 53 34 31 52 66 39 45 52 66 43 51 39 45 53 67 51 65 7 7 51 68 54 69 33 70 51 68 33 70 11 71 54 72 34 31 33 30 52 73 34 74 54 75 51 65 53 67 54 76 38 77 45 78 36 79 45 80 37 80 36 80 47 81 38 81 37 81 52 66 55 82 43 51 56 83 54 76 53 67 52 73 56 84 55 85 56 84 52 73 54 75 53 67 7 7 50 60 56 83 53 67 50 60 55 85 56 84 50 86 19 19 57 87 13 13 20 20 58 88 59 89 60 90 61 90 57 90 62 91 59 92 63 93 64 94 65 95 62 91 14 14 66 96 15 15 66 96 65 95 15 97 67 98 68 99 69 100 70 101 68 99 67 98 15 97 65 95 64 94 68 102 61 103 69 104 15 105 64 94 63 93 71 106 15 105 63 93 72 107 16 16 15 15 72 108 15 105 71 106 73 109 72 108 71 106 73 109 74 110 72 108 35 111 29 112 32 28 29 25 60 113 19 19 75 114 29 114 35 114 75 115 35 32 66 96 76 116 77 116 78 116 78 117 67 98 75 118 14 14 76 119 78 120 35 32 62 91 65 95 29 25 67 121 60 113 78 120 75 115 66 96 78 117 70 101 67 98 14 14 78 120 66 96 79 122 49 59 55 82 58 123 80 124 49 59 79 122 58 123 49 59 20 125 59 92 62 91 81 126 6 6 82 127 83 128 70 101 84 129 81 130 82 130 85 130 85 131 84 129 81 126 83 128 84 129 85 131 83 132 85 133 68 102 86 134 87 135 88 136 86 134 89 137 87 135 86 134 90 138 91 139 74 140 91 139 16 16 66 96 35 32 65 95 89 141 91 139 74 140 87 135 89 137 74 142 87 135 74 142 92 143 93 144 55 144 50 144 55 82 93 145 79 122 77 146 93 147 50 148 93 147 77 146 76 149 77 150 84 129 70 101 93 151 76 119 14 14 77 152 50 60 6 6 84 129 77 152 6 6 84 129 6 6 81 126 93 145 90 138 79 122 17 17 9 9 11 11 91 139 93 151 14 14 90 138 93 145 91 139 67 121 69 153 61 154 7 7 41 155 8 8 35 32 5 5 21 156 2 157 3 158 4 159 4 159 3 158 40 160 21 21 44 161 22 22 21 21 4 159 44 161 4 159 40 160 44 161 22 58 49 59 80 124 29 25 75 162 67 121 45 78 38 77 47 163 47 163 46 164 45 78 46 165 25 166 45 167 45 167 25 166 26 168 25 166 24 169 26 168 80 170 58 88 20 20 80 170 20 20 22 22 33 171 18 18 11 11 30 26 31 27 34 31 67 121 61 154 60 113 36 79 26 168 24 169 24 169 38 77 36 79 48 172 47 173 37 174 37 174 28 175 48 172 20 125 35 32 21 156 92 176 74 110 73 109 8 177 48 178 25 179 8 177 25 179 57 180 82 181 8 177 57 180 82 181 57 180 85 133 85 133 57 180 61 103 68 102 85 133 61 103 25 179 41 182 12 183 25 179 12 183 13 184 57 180 25 179 13 184 20 125 62 91 35 32 8 8 82 127 6 6 60 113 57 87 19 19 16 16 72 107 74 140 29 112 18 33 32 28 49 59 43 51 55 82 68 99 70 101 83 128 62 91 63 93 64 94 86 134 91 139 89 141 5 5 4 4 21 156 71 185 63 186 73 187 87 188 63 186 88 189 63 186 87 188 73 187 92 190 73 187 87 188 63 186 59 89 88 189 58 88 88 189 59 89 86 134 88 136 58 123 86 134 58 123 79 122 86 134 79 122 90 138 41 182 25 179 46 191 8 177 41 182 46 191 8 177 46 191 48 178 14 14 16 16 91 139 17 17 19 19 13 13 25 192 48 172 28 175 23 44 25 192 27 42 28 175 27 42 25 192 78 117 77 150 70 101 44 52 43 51 49 59</p>
        </triangles>
      </mesh>
    </geometry>
  </library_geometries>
  <library_visual_scenes>
    <visual_scene id="scene">
      <node id="right_ankle_roll_link">
        <instance_geometry url="#geometry">
          <bind_material>
            <technique_common>
              <instance_material symbol="scout_333333" target="#scout_333333" />
            </technique_common>
          </bind_material>
        </instance_geometry>
      </node>
    </visual_scene>
  </library_visual_scenes>
  <scene>
    <instance_visual_scene url="#scene" />
  </scene>
</COLLADA>