<?xml version='1.0' encoding='utf-8'?>
<COLLADA xmlns="http://www.collada.org/2005/11/COLLADASchema" version="1.4.1">
  <asset>
    <created>2026-09-14T00:00:00Z</created>
    <modified>2026-09-14T00:00:00Z</modified>
    <unit name="metre" meter="1" />
    <up_axis>Z_UP</up_axis>
  </asset>
  <library_effects>
    <effect id="scout_333333_effect">
      <profile_COMMON>
        <technique sid="common">
          <lambert>
            <emission>
              <color>0 0 0 1</color>
            </emission>
            <ambient>
              <color>0.1 0.1 0.1 1</color>
            </ambient>
            <diffuse>
              <color>0.2 0.2 0.2 1</color>
            </diffuse>
          </lambert>
        </technique>
      </profile_COMMON>
    </effect>
  </library_effects>
  <library_materials>
    <material id="scout_333333" name="scout_333333">
      <instance_effect url="#scout_333333_effect" />
    </material>
  </library_materials>
  <library_geometries>
    <geometry id="geometry" name="right_hip_pitch_link">
      <mesh>
        <source id="positions">
          <float_array id="positions_array" count="144">-0.014447459 -0.0884686634 -0.00347779971 -0.0390396491 -0.0870229676 -0.00953735411 -0.0121587804 -0.0956896767 -0.0198293533 -0.0267049465 -0.0675479472 -0.0766011626 -0.0306471623 -0.0909310505 -0.0575613678 -0.0297351256 -0.0268601794 -0.0687345117 -0.0212775972 -0.0447514318 -0.079636164 -0.0410430878 -0.0261696409 -0.00147529354 -0.015013502 -0.012164359 -0.0117597096 -0.0295158084 -0.0122436052 -0.0126580307 -0.0290444773 -0.01292904 -0.0583074577 -0.00590126775 -0.0954822674 -0.0525561906 -0.00647720182 -0.0268323664 -0.0698330551 -0.00421912456 -0.0597702004 -0.0764187798 -0.000878302497 -0.0789564177 -0.0735681355 0.000589648087 -0.0512670986 -0.0812599882 -0.00369821652 -0.0109685855 -0.0645912588 -0.00926408637 -0.011754388 -0.0504731275 -0.0191910993 -0.0639191419 0.00995794777 -0.0159009118 -0.0629445538 0.0168841109 -0.0201580618 -0.0102918688 0.0280608125 -0.041869659 -0.0583394505 0.00554455724 0.0395019464 -0.0628222078 -0.0724919662 0.0373437107 -0.0861801729 -0.0610332638 0.0298020467 -0.0967106149 -0.0129456948 0.032574065 -0.0980287045 -0.0390788987 -0.0285248477 0.000104518622 -0.00987167656 -0.00909440219 -0.0024733413 -0.0351153277 0.0319900215 -0.00185179152 -0.0217209607 0.00159508165 -0.00855538994 -0.0159765091 -0.0165735818 -0.00743235974 0.000661436527 0.0165052339 -0.00746048754 0.000841748202 -0.000598397455 -0.00690062763 0.0154591678 0.0207796916 -0.00443260511 0.0364335254 -0.0207462739 0.000761084491 0.0236266926 -0.0164580029 -0.0133909946 -0.0257573929 0.0392122231 -0.0274361875 -0.0689788535 0.0351729169 -0.00554843433 -0.0490157269 -0.0188003052 -0.0341733061 0.00814630743 0.0198511221 -0.00359967235 -0.0304819364 0.0224219672 -0.0576123409 0.0252968706 0.0284196455 -0.039991986 -0.014288079 0.0260847099 -0.0621364042 -0.0133853946 0.032149706 -0.0394319408 -0.034017235 0.0319112279 -0.0590230301 -0.0402003787 0.0332593396 -0.0683670416 -0.0277200155 0.0252495296 -0.0844056755 0.0109638013 0.0296714641 -0.0253288783 -0.00600581756</float_array>
          <technique_common>
            <accessor source="#positions_array" count="48" stride="3">
              <param name="X" type="float" />
              <param name="Y" type="float" />
              <param name="Z" type="float" />
            </accessor>
          </technique_common>
        </source>
        <source id="normals">
          <float_array id="normals_array" count="324">-0.14382416 -0.846205652 0.513079584 -0.24479869 -0.955403864 0.16515772 -0.149219021 -0.974545121 0.167318568 -0.948879421 -0.00966919214 -0.315490603 -0.982765496 -0.015968794 -0.184165493 -0.965106785 0.05375522 -0.256279737 -0.72004807 0.0796529725 -0.689337552 -0.188532159 0.48416838 0.854421794 -0.0641190112 0.665343404 0.743778765 -0.050501246 0.650407314 0.757904947 0.209854022 0.579183638 -0.787723064 0.0885987654 0.687452674 -0.720804453 0.165467367 0.209374696 -0.963733792 -0.226012096 -0.97404933 -0.0120995427 -0.0540050678 -0.971881032 -0.229195774 0.0861705542 0.549071372 -0.831321418 0.204536125 -0.22600989 -0.952409863 -0.898890257 -0.213381961 -0.382706672 -0.570669949 -0.138140544 -0.809476972 -0.726378441 0.0196401365 -0.687014282 -0.483389229 -0.210423216 -0.849739313 -0.76953876 0.0740664601 -0.634290338 0.0580068342 0.491253108 -0.869083226 0.122271523 0.0620359741 -0.990556002 -0.266077071 0.344135076 -0.900429904 -0.848320425 0.440902263 -0.293185383 -0.889484525 0.312653065 -0.333264679 -0.900756657 0.270161778 -0.340073645 -0.873561025 -0.285320163 0.394313931 -0.806560934 -0.396041572 0.438874155 -0.863035619 -0.241088971 0.44389829 -0.998004258 0.0189833939 -0.0602257289 -0.253942698 -0.486990541 0.835675359 -0.23433277 -0.264642626 0.935442388 -0.269442856 -0.134644777 0.953557193 -0.777060747 0.629183054 -0.0174704846 -0.960114598 0.237636656 -0.147338837 -0.974558592 0.179566145 -0.134132549 0.212147906 -0.189441219 -0.958699763 0.115636915 -0.557890117 -0.821819186 0.987423658 -0.00748666236 0.157919198 0.974068582 -0.0217746701 0.22520265 0.976433933 -0.183960006 0.112851366 -0.761316121 0.132300735 -0.634739578 -0.766606033 0.199262604 -0.610417604 -0.746786654 0.03426015 -0.664180636 -0.226720423 0.961454809 0.155571401 0.126472056 0.955211341 0.267537177 -0.00721037434 0.986172318 0.165566355 0.338752449 0.939024687 -0.0589862131 0.473287731 0.876296639 0.0900165439 -0.195232689 0.98064208 -0.0150101613 0.103932716 0.976872683 -0.18686296 -0.0275008865 0.986842632 -0.159327656 0.32766518 0.903559506 -0.276071936 0.119099319 -0.444013655 -0.888069391 0.105450489 -0.602463663 -0.791149616 0.0392958112 -0.634899437 -0.771594822 -0.208229095 0.0598333366 0.976248205 -0.186795875 -0.124420561 0.97448796 -0.235588655 0.351021767 0.906245947 -0.0293589309 0.999242723 0.0255339704 0.0363661014 0.999338508 0.000120708282 -0.076463528 0.996114075 0.043704018 0.985733092 -0.00861759391 0.16809535 0.979977131 -0.00424567703 0.199064791 0.987745285 -0.0236034878 0.154279545 -0.994899035 0.0249431599 -0.0977432281 -0.990077198 0.0524304286 -0.130377159 -0.0547563545 -0.967775822 0.245787844 -0.201238006 0.369430333 0.907206953 0.14020431 -0.70315516 -0.69707644 0.0801204741 0.960339069 -0.267075926 -0.0119162379 0.983643174 -0.17973353 0.0221370477 0.972217619 -0.233029798 -0.234692067 -0.501189947 0.832903504 0.0733633265 0.997203946 -0.0142157087 -0.973953307 0.0294861421 0.22482343 -0.974237621 0.0356225036 0.222692952 -0.973839223 0.0272459108 0.225598782 0.0144795738 0.975237608 -0.220685259 -0.0627145767 0.985842526 -0.155503631 0.172010243 0.412488669 -0.894575655 -0.180356547 -0.411925435 0.893190324 -0.157468274 -0.334311157 0.929214597 0.996504128 -0.0778143778 0.0304049347 0.953986466 0.0794307888 0.289137572 0.988429725 -0.0662358999 0.136453435 0.981238902 0.0621277988 0.182511359 -0.974306464 0.0372591689 0.222123027 0.955325961 0.194794595 0.222277597 -0.1263697 -0.721676767 0.680597842 0.0212647505 -0.980151296 -0.197107226 -0.708406389 -0.118576922 -0.695772827 -0.876674533 0.415965587 -0.241690695 -0.886922717 0.399608254 -0.231692344 0.00252851634 -0.998877645 0.0472971722 0.96871686 0.0526704453 0.242514998 0.98773998 -0.01331494 0.155539125 -0.130522728 -0.0266377144 -0.991087437 -0.985344887 -0.00987957604 -0.170287386 -0.986261845 -0.0106307482 -0.164846957 0.188783169 0.680550277 -0.707963407 0.9888376 -0.00876198616 0.148739412 0.98195672 -0.0092300484 0.188880324 0.977539182 -0.00618147431 0.210663036 0.979391515 -0.015462867 0.201378018 0.185691103 0.788010299 -0.586991072</float_array>
          <technique_common>
            <accessor source="#normals_array" count="108" stride="3">
              <param name="X" type="float" />
              <param name="Y" type="float" />
              <param name="Z" type="float" />
            </accessor>
          </technique_common>
        </source>
        <vertices id="vertices">
          <input semantic="POSITION" source="#positions" />
        </vertices>
        <triangles material="scout_333333" count="92">
          <input semantic="VERTEX" source="#vertices" offset="0" />
          <input semantic="NORMAL" source="#normals" offset="1" />
          <p>0 0 1 1 2 2 3 3 4 4 5 5 3 3 5 5 6 6 7 7 8 8 9 9 5 10 10 11 6 12 2 2 4 13 11 14 6 12 12 15 13 16 11 17 13 17 14 17 13 18 15 19 14 20 12 21 15 19 13 18 16 22 15 23 12 24 17 25 16 26 12 27 18 28 0 29 19 30 20 31 18 28 19 30 1 32 18 33 21 34 9 35 10 36 7 37 15 23 22 38 14 39 23 40 24 41 25 42 9 43 26 44 27 45 28 46 27 47 29 48 30 49 27 47 26 50 29 48 27 47 30 49 31 51 32 52 33 53 30 49 26 50 34 54 29 48 31 51 28 46 2 2 1 1 4 13 3 55 11 56 4 57 20 58 33 59 34 60 10 61 35 62 17 63 12 15 6 12 10 11 22 64 36 65 23 40 37 66 23 40 36 65 18 28 20 31 38 67 8 68 38 67 20 31 24 69 0 0 2 2 38 70 8 8 7 7 21 34 18 33 38 70 21 34 38 70 7 7 14 39 22 38 23 71 32 52 34 54 33 53 32 52 30 49 34 54 27 72 28 73 39 74 31 51 33 53 28 46 1 32 0 75 18 33 10 61 9 76 35 62 9 77 34 78 26 79 16 80 27 72 39 74 37 81 16 80 39 74 39 74 28 73 37 81 16 22 36 82 15 23 19 83 40 84 33 59 41 85 42 86 43 87 43 87 42 86 44 88 34 78 9 77 20 89 24 41 23 40 45 90 42 86 24 41 45 90 32 52 31 51 30 49 31 51 29 48 30 49 46 91 0 0 24 69 44 88 42 86 45 90 11 14 25 92 2 2 24 69 2 2 25 92 20 58 19 83 33 59 23 71 11 14 14 39 27 45 35 93 9 43 3 55 13 16 11 56 13 16 3 55 6 12 27 94 17 25 35 95 27 94 16 26 17 25 8 96 20 96 9 96 45 90 23 40 44 88 23 40 37 66 44 88 43 87 44 88 37 66 43 87 37 66 47 97 41 85 43 87 47 97 41 85 47 97 24 98 42 99 41 99 24 99 10 36 5 5 7 37 5 5 4 4 7 37 4 4 1 100 7 37 7 37 1 100 21 101 23 71 25 92 11 14 37 102 36 82 16 22 15 23 36 82 22 38 40 84 19 83 46 91 46 91 19 83 0 0 28 103 33 104 40 105 28 103 40 105 47 97 40 105 46 106 47 97 37 66 28 103 47 97 24 98 47 97 46 106 17 107 12 15 10 11</p>
        </triangles>
      </mesh>
    </geometry>
  </library_geometries>
  <library_visual_scenes>
    <visual_scene id="scene">
      <node id="right_hip_pitch_link">
        <instance_geometry url="#geometry">
          <bind_material>
            <technique_common>
              <instance_material symbol="scout_333333" target="#scout_333333" />
            </technique_common>
          </bind_material>
        </instance_geometry>
      </node>
    </visual_scene>
  </library_visual_scenes>
  <scene>
    <instance_visual_scene url="#scene" />
  </scene>
</COLLADA>