<?xml version='1.0' encoding='utf-8'?>
<COLLADA xmlns="http://www.collada.org/2005/11/COLLADASchema" version="1.4.1">
  <asset>
    <created>2026-09-14T00:00:00Z</created>
    <modified>2026-09-14T00:00:00Z</modified>
    <unit name="metre" meter="1" />
    <up_axis>Z_UP</up_axis>
  </asset>
  <library_effects>
    <effect id="scout_b2b2b2_effect">
      <profile_COMMON>
        <technique sid="common">
          <lambert>
            <emission>
              <color>0 0 0 1</color>
            </emission>
            <ambient>
              <color>0.35 0.35 0.35 1</color>
            </ambient>
            <diffuse>
              <color>0.7 0.7 0.7 1</color>
            </diffuse>
          </lambert>
        </technique>
      </profile_COMMON>
    </effect>
  </library_effects>
  <library_materials>
    <material id="scout_b2b2b2" name="scout_b2b2b2">
      <instance_effect url="#scout_b2b2b2_effect" />
    </material>
  </library_materials>
  <library_geometries>
    <geometry id="geometry" name="right_shoulder_pitch_link">
      <mesh>
        <source id="positions">
          <float_array id="positions_array" count="120">-0.0310834572 -0.00684333313 -0.0296847131 -0.0289762132 -0.0242558718 -0.0480713509 -0.0310329739 -0.0546063371 -0.0453461483 -0.031061938 -0.00862551853 0.0052063684 -0.0266429726 -0.000523122144 -0.0115355281 -0.0154116489 -0.00280782906 -0.0242183674 -0.0299277846 -0.056893073 0.0165673159 -0.0311645623 -0.06844154 0.00443362584 0.0306735374 -0.0703953505 0.00373230106 -0.0262326188 -0.0052949111 0.0380544066 -0.0196362846 -0.00206744368 0.0220373347 -0.001151687 4.76005688e-08 -0.0278667249 0.00458220625 -0.0057442598 -0.0297871474 0.000376580749 5.29398676e-08 -0.027866438 -0.000376580749 5.30126307e-08 -0.0278664362 0.0234462656 -0.000938130484 0.0173278842 0.010278156 -0.00243647164 0.0267422851 0.0294424742 -0.00493925251 0.00587474648 0.0280713961 0.000109602239 0.00427929824 0.0311694443 -0.0289420616 0.0179111399 0.0286427978 -0.0493042953 0.0214451738 0.0288880374 -0.0380713083 -0.0513733961 0.0310588013 -0.061442975 -0.0401162952 0.000376580749 5.29398676e-08 -0.0278672725 0.00112974225 5.26342774e-08 -0.0278672334 0.00188290374 5.23141388e-08 -0.0278671607 0.00303639169 -3.63788502e-07 -0.0278672259 0.0211997945 -0.00172824413 -0.0200516805 0.0278664809 4.87925753e-08 -0.000376580749 0.0278671477 4.84724332e-08 -0.00112974225 0.0278672036 4.87925753e-08 -0.000376580749 0.0278664753 4.91272658e-08 0.000376580749 0.027867185 4.91272658e-08 0.000376580749 0.0278671216 4.94619599e-08 0.00112974225 0.02786709 4.97821055e-08 0.00188290374 0.0278670695 4.98403452e-08 0.00263606524 0.0272081904 -0.00541106937 0.0363957956 -0.0304725878 -0.0710922405 -0.0289705191 0.0294816606 -0.0741959736 -0.0170883872 0.0310742054 -0.00749601563 -0.0327879377</float_array>
          <technique_common>
            <accessor source="#positions_array" count="40" stride="3">
              <param name="X" type="float" />
              <param name="Y" type="float" />
              <param name="Z" type="float" />
            </accessor>
          </technique_common>
        </source>
        <source id="normals">
          <float_array id="normals_array" count="279">-0.999352157 0.010255442 -0.0344974659 -0.985350251 0.0521958955 -0.162358984 -0.999847293 -0.00280204811 -0.0172508564 -0.646830022 -0.605440915 -0.46373719 -0.0157239344 -0.576368332 0.817038715 -0.0150325848 -0.723512053 0.690147996 0.0130714141 -0.65746963 0.753367603 -0.989463687 0.0107343718 0.144382566 -0.997582138 0.00289397268 0.0694371089 -0.993807077 0.00279460335 0.111084014 -0.215674967 0.973582506 0.0749764293 -0.669437051 0.722457051 0.172944531 -0.636839509 0.758788228 0.136659592 -0.191581935 0.133826211 -0.972310066 0.167609394 0.30981642 -0.93590647 -0.259092718 0.0635781139 -0.963757634 0.0255690683 0.998262346 0.0530899875 0.000278089748 0.791867435 0.610692978 -2.09215141e-05 0.792488873 0.609886348 0.437381089 -0.75277245 0.491966844 0.875736654 0.344652772 0.338082492 0.998620987 -0.043484237 0.0294142608 0.990107059 -0.00445521949 0.140243262 0.970567763 -0.0810747817 0.226771131 0.000143372905 -0.34292981 -0.939361036 0.0333355106 -0.68330586 -0.729370832 -0.0371281914 -0.441183686 -0.896648467 -0.000221935552 0.31684038 -0.948478818 6.38675483e-05 0.317026287 -0.94841677 7.79636539e-05 0.317036718 -0.948413253 0.174582481 0.354088128 -0.91877234 0.395434827 0.385137439 -0.833846807 -0.117165044 0.993108809 -0.0027026087 -0.0590564646 0.99765414 0.0346194878 -0.0587730259 0.998153567 0.0153346406 0.220380098 -0.975347042 0.0114328275 -0.47347492 0.880807281 3.47494424e-05 -0.473459512 0.880815566 3.40081388e-05 -0.299849451 0.953624129 -0.0262927767 -0.104301333 0.994545758 1.15723867e-06 -0.472494721 0.88133347 -1.26041568e-05 -0.472160041 0.881512821 -3.96262585e-05 -0.47239849 0.881385088 -2.00044869e-05 -0.343259424 0.939238727 -0.00188488676 0.158124164 0.987054527 0.0268340483 0.00931516849 0.975966394 0.217721879 0.101500668 0.988795578 0.109457262 -0.16363278 0.977961898 0.129671887 -0.265170246 0.962937891 0.0493490286 -0.0427927263 -0.993946075 0.101192802 -0.0870967433 -0.979113579 0.183713704 -0.0686435178 -0.986396372 0.14936617 -0.0305938181 -0.996449471 0.0784373656 -0.00171012268 -0.751346231 -0.65990603 0.00455999281 0.66483444 -0.746976793 0.137354866 0.798904181 -0.585564494 0.0739892945 0.514132977 -0.854513228 -0.999823153 0.00147322565 0.018747637 0.00932048447 -0.495466828 0.868576825 -0.00333938794 -0.356733054 0.934200406 0.945228696 0.168312758 -0.279666871 0.466238916 0.883808911 -0.0387689732 0.280668169 0.937251747 -0.206844136 0.988972008 0.0601831563 0.135323122 0.0286769774 -0.321450621 0.946492016 3.83207464e-07 0.999999881 0.000433921785 4.12183454e-07 0.999999881 0.000434166548 -2.50872176e-07 0.999959171 0.0090375999 0.000141514218 0.233787641 0.972287655 -2.5514322e-07 0.999959171 0.00903760735 -0.0630083457 0.919211805 0.388689607 5.43583883e-05 0.949349999 -0.314220577 5.56607229e-05 0.949349999 -0.314220607 8.86290363e-05 1 -4.36078125e-07 0.000188244507 1 -4.23744495e-07 -0.250306875 0.96816653 -0.0002221123 -0.000501861097 0.999999881 -5.264979e-07 -0.0278528556 0.999612033 -8.06139724e-07 -0.000232235878 0.792911351 0.609336972 4.99099784e-08 0.999821842 -0.0188763235 -6.73515927e-08 0.999821842 -0.0188763533 -0.076752007 -0.0840066895 -0.993504882 -0.0184471942 0.792172432 -0.610018432 -0.0269475579 0.751343668 -0.659360647 -0.0274470672 0.840198934 -0.5415833 0.98540765 -0.168260455 -0.0256950222 0.999332249 -0.0168205854 -0.0324355736 0.988611579 0.0199799296 -0.149157509 0.999609053 0.0196801741 -0.0198604427 0.994089842 0.0964802206 0.0497685485 -0.999956012 -0.00937666278 -0.00010525823 0.0500695929 -0.875158131 -0.481239319 0.202384457 0.979302108 0.00280916668</float_array>
          <technique_common>
            <accessor source="#normals_array" count="93" stride="3">
              <param name="X" type="float" />
              <param name="Y" type="float" />
              <param name="Z" type="float" />
            </accessor>
          </technique_common>
        </source>
        <vertices id="vertices">
          <input semantic="POSITION" source="#positions" />
        </vertices>
        <triangles material="scout_b2b2b2" count="76">
          <input semantic="VERTEX" source="#vertices" offset="0" />
          <input semantic="NORMAL" source="#normals" offset="1" />
          <p>0 0 1 1 2 2 3 3 4 3 5 3 6 4 7 5 8 6 9 7 3 8 6 9 10 10 4 11 3 12 11 13 12 14 5 15 5 16 13 17 14 18 15 19 16 19 17 19 18 20 15 20 17 20 8 21 19 22 20 23 21 24 22 25 2 26 11 13 23 27 12 14 23 27 24 28 12 14 24 28 25 29 12 14 25 29 26 30 12 14 26 30 27 31 12 14 28 32 27 33 15 34 27 35 29 35 18 35 29 36 30 37 18 38 31 39 28 32 15 34 30 37 32 40 18 38 32 40 33 41 18 38 33 41 34 42 18 38 34 42 35 43 18 38 17 44 16 45 36 46 36 46 16 45 10 10 36 46 10 10 9 47 5 48 0 48 3 48 37 49 38 50 8 51 8 51 7 52 37 49 2 26 22 25 37 53 1 54 39 55 21 56 3 8 7 57 6 9 6 4 20 58 9 59 27 60 18 60 17 60 17 61 39 55 27 62 9 47 10 10 3 12 36 63 20 23 19 22 20 58 36 64 9 59 25 65 24 66 23 67 26 68 25 68 11 68 25 69 23 67 11 67 27 33 26 70 5 16 26 71 11 72 13 71 32 73 30 74 29 75 33 76 32 73 29 75 34 77 33 76 29 75 35 43 34 77 29 75 18 38 35 43 15 34 11 78 5 16 14 18 11 79 14 80 13 71 26 70 13 17 5 16 29 75 27 33 28 32 35 43 29 75 31 39 29 75 28 32 31 39 35 43 31 39 15 34 21 24 2 26 1 81 12 82 0 83 5 84 8 21 38 85 22 86 22 86 21 87 39 88 39 88 17 89 19 22 12 82 39 55 0 83 3 8 0 0 2 2 3 8 2 2 37 90 3 8 37 90 7 57 39 55 12 82 27 62 22 25 38 91 37 53 8 21 39 88 19 22 39 88 8 21 22 86 20 58 6 4 8 6 36 63 19 22 17 89 1 54 0 83 39 55 27 33 10 10 15 34 10 10 27 33 5 16 16 45 15 34 10 10 10 10 5 16 4 92</p>
        </triangles>
      </mesh>
    </geometry>
  </library_geometries>
  <library_visual_scenes>
    <visual_scene id="scene">
      <node id="right_shoulder_pitch_link">
        <instance_geometry url="#geometry">
          <bind_material>
            <technique_common>
              <instance_material symbol="scout_b2b2b2" target="#scout_b2b2b2" />
            </technique_common>
          </bind_material>
        </instance_geometry>
      </node>
    </visual_scene>
  </library_visual_scenes>
  <scene>
    <instance_visual_scene url="#scene" />
  </scene>
</COLLADA>