<?xml version='1.0' encoding='utf-8'?>
<COLLADA xmlns="http://www.collada.org/2005/11/COLLADASchema" version="1.4.1">
  <asset>
    <created>2026-09-14T00:00:00Z</created>
    <modified>2026-09-14T00:00:00Z</modified>
    <unit name="metre" meter="1" />
    <up_axis>Z_UP</up_axis>
  </asset>
  <library_effects>
    <effect id="scout_b2b2b2_effect">
      <profile_COMMON>
        <technique sid="common">
          <lambert>
            <emission>
              <color>0 0 0 1</color>
            </emission>
            <ambient>
              <color>0.35 0.35 0.35 1</color>
            </ambient>
            <diffuse>
              <color>0.7 0.7 0.7 1</color>
            </diffuse>
          </lambert>
        </technique>
      </profile_COMMON>
    </effect>
  </library_effects>
  <library_materials>
    <material id="scout_b2b2b2" name="scout_b2b2b2">
      <instance_effect url="#scout_b2b2b2_effect" />
    </material>
  </library_materials>
  <library_geometries>
    <geometry id="geometry" name="right_wrist_pitch_link">
      <mesh>
        <source id="positions">
          <float_array id="positions_array" count="114">-0.021919718 -0.0205161255 -0.0138294166 -0.0290593021 -0.0166198071 -0.00499671418 -0.0172149502 -0.0166661348 -0.0233437791 -0.000940699305 -0.0192107037 -0.0274800137 -0.0232374016 -0.0190833751 0.0146259228 -0.000819019682 -0.019058479 0.0275138058 -0.0125373527 -0.0167605411 0.0259149596 -0.0248464849 0.0187943634 -0.0157582574 -0.0130288703 0.0224929675 -0.0222807378 -0.00695899222 0.0188343842 -0.0279241502 -0.0275755264 0.0186269581 0.00897035468 -0.0152803361 0.02075422 0.0235425271 -0.0255534593 0.022489015 0.000779127178 0.0047442806 0.0205573179 0.0277949423 0.02331849 -0.0172335207 0.0210743304 0.0732267052 -0.000188920007 0.0195111968 0.0726012588 0.0103020519 -0.0204767603 0.0709062815 0.0131681506 0.0189598761 0.0417169817 0.0286921356 -0.0184838809 0.0238386039 0.022544153 -0.0187843498 0.0414736308 0.0285223909 0.0165948421 0.0205413885 -0.0167439785 -0.0227241386 0.0432800949 -0.0280414075 -0.0208324566 0.0201887861 -0.020678632 -0.0189768616 0.0225473996 -0.0208895169 0.0177666992 0.0399521738 -0.0282273404 0.0165363606 0.0461963005 0.0256106462 -0.0225468036 0.0714043379 -0.0141195757 -0.0186922904 0.0186226312 0.0188765414 -0.0234765913 0.0593966469 0.0255147014 -0.0188576747 0.0698242188 -0.0108462293 -0.0226771422 0.0557803996 -0.0273574479 -0.0187383629 0.0674993694 -0.0182760656 0.018217029 0.0610526726 0.0250039324 0.0166772865 0.0239693616 0.01884114 0.0210056454 0.0457345843 0.0256932471 0.0204458032 0.0225191265 0.0225501116 0.0173654612 0.0538924299 -0.0267147534 0.0186057482</float_array>
          <technique_common>
            <accessor source="#positions_array" count="38" stride="3">
              <param name="X" type="float" />
              <param name="Y" type="float" />
              <param name="Z" type="float" />
            </accessor>
          </technique_common>
        </source>
        <source id="normals">
          <float_array id="normals_array" count="234">-0.802383661 -0.297722131 -0.517244577 -0.982895136 -0.0655840933 -0.172092751 -0.599397182 -0.0675602853 -0.797595501 -0.0411580466 -0.993930697 -0.102018721 -0.14018482 -0.986647248 -0.08291848 -0.251294494 -0.847652018 -0.467265636 -0.456189871 -0.889567733 0.0236656331 -0.123738281 -0.987913191 0.0933614224 -0.075283505 -0.988270938 0.132864386 -0.228591144 -0.887844265 0.399347723 -0.846535981 0.0882846117 -0.524959683 -0.532781124 0.322759748 -0.782285392 -0.245930597 0.063748166 -0.967188895 -0.473358393 0.836069584 0.277343601 -0.0897356942 0.988010466 0.125629708 -0.172651067 0.983684242 0.0505655669 0.073328495 0.00881910417 0.997268856 0.0544624999 -0.0147335343 0.998407125 0.112750091 -0.332171738 0.936455727 0.997924924 -0.0554981977 0.0326456502 0.95161128 0.30368948 -0.0469969623 0.908704042 0.417349845 0.00872453582 -0.103998765 0.933825254 -0.34227854 -0.15006353 0.948347151 -0.279497057 -0.0922513083 0.937969804 0.334219009 0.0122624831 -0.690178275 -0.723535419 -0.26508081 -0.652420104 -0.709986031 -0.0470616296 -0.686675251 -0.725439429 -0.181754127 -0.983341515 0.00220863847 -0.134886876 -0.990860164 -0.00127603579 -0.159343794 -0.987151504 -0.0118929045 0.026395658 0.824238658 -0.565626979 0.236763641 -0.678805351 0.695101619 -0.0135073783 -0.669264972 0.742901087 -0.0906582177 -0.494082361 0.864675522 0.92502445 -0.364799768 -0.106070414 -0.514975488 0.0262062512 0.856804252 -0.959983468 0.0588156506 0.273811042 -0.858026624 -0.0336734205 0.512500167 0.0494241118 0.759518921 -0.64860487 0.257141858 0.320239633 -0.911770046 0.061690934 0.080344975 -0.994856238 0.0922042727 0.0380990095 -0.995010972 0.175878674 -0.188176081 -0.966259003 0.485800087 -0.571060896 -0.661730826 0.205441833 -0.388972402 -0.898050189 0.785146236 -0.617630422 0.0455848053 0.765127957 0.643657148 -0.0168709867 0.176043838 0.981228352 0.0787366778 0.174586967 0.981159091 -0.0827422142 0.0456088111 0.711226523 0.70148176 0.0389176682 0.825344682 0.563286364 0.0441865325 0.70852071 0.704305351 0.237558275 0.370913059 0.897769213 0.0732332617 0.0499605685 0.996062636 0.113776349 0.111536108 0.987225711 0.169858411 -0.00118832814 0.985467792 0.327137887 -0.944407463 0.0327920355 0.349406511 -0.936970174 0.00142793008 -0.172926188 -0.984919727 0.00544752181 -0.0223095305 0.98830986 0.150817394 -0.132530257 0.990905046 0.0232994631 -0.0613250397 0.982145905 -0.177844375 0.109906904 -0.00631948095 -0.993921816 0.112092689 -0.0223799068 -0.993445694 -0.000324125896 -0.022790907 -0.999740183 -0.398305327 0.891414046 -0.216180131 -0.44485119 0.00740493648 0.895573914 0.0524245091 0.851234972 -0.522159636 -0.95432359 0.280304492 -0.103421144 0.231903121 -0.681670666 -0.693935215 0.285759747 0.725834191 0.625704467 0.753585815 0.656847775 -0.0256778691 0.0366334058 -0.104150958 0.99388659 0.0233471207 -0.0390799195 0.998963296 0.00158990559 -0.0343996473 0.999406874 0.0502982847 -0.182975248 -0.981830001 0.904315591 -0.0750259757 -0.420219481</float_array>
          <technique_common>
            <accessor source="#normals_array" count="78" stride="3">
              <param name="X" type="float" />
              <param name="Y" type="float" />
              <param name="Z" type="float" />
            </accessor>
          </technique_common>
        </source>
        <vertices id="vertices">
          <input semantic="POSITION" source="#positions" />
        </vertices>
        <triangles material="scout_b2b2b2" count="72">
          <input semantic="VERTEX" source="#vertices" offset="0" />
          <input semantic="NORMAL" source="#normals" offset="1" />
          <p>0 0 1 1 2 2 3 3 0 4 2 5 1 6 0 4 4 7 5 8 6 9 4 7 7 10 8 11 9 12 10 13 11 14 12 15 13 16 5 17 14 18 15 19 16 20 17 21 18 22 19 23 20 24 21 25 22 26 23 27 24 28 22 29 25 30 18 22 26 31 19 23 14 18 5 32 24 33 14 18 24 33 25 34 1 1 7 10 2 2 15 19 27 35 16 20 11 36 10 37 4 38 9 12 2 2 7 10 19 23 26 31 28 39 29 40 16 41 26 42 30 43 27 44 31 45 15 19 32 46 27 35 16 20 33 47 17 21 18 22 33 48 29 49 20 24 34 50 35 51 20 24 36 52 34 50 33 53 35 54 17 55 34 56 14 18 35 54 37 57 25 30 31 58 4 7 24 28 5 8 4 7 0 4 24 28 23 59 24 28 3 3 24 28 0 4 3 3 13 60 36 61 11 14 36 61 19 23 8 62 11 14 36 61 12 15 36 61 8 62 12 15 28 63 21 64 3 65 8 62 7 66 12 15 6 67 5 17 13 16 19 23 9 68 8 62 9 12 3 65 2 2 1 1 4 38 10 37 4 38 6 67 11 36 12 69 7 10 10 37 21 25 23 27 3 70 3 65 9 12 28 63 19 23 28 39 9 68 36 52 13 71 34 50 31 58 32 46 37 57 1 1 10 37 7 10 6 67 13 16 11 36 16 20 29 72 33 47 35 54 14 18 37 73 35 54 37 73 32 74 32 74 15 75 35 54 17 55 35 54 15 75 14 18 34 56 13 16 14 18 25 34 37 73 21 64 28 63 26 42 22 76 21 64 30 43 26 42 16 41 21 64 16 41 30 43 21 64 27 35 32 46 31 58 19 23 36 61 20 24 29 49 26 31 18 22 31 58 25 30 22 29 20 24 35 51 33 48 33 48 18 22 20 24 22 76 30 43 31 45 22 29 24 28 23 59 27 35 30 77 16 20</p>
        </triangles>
      </mesh>
    </geometry>
  </library_geometries>
  <library_visual_scenes>
    <visual_scene id="scene">
      <node id="right_wrist_pitch_link">
        <instance_geometry url="#geometry">
          <bind_material>
            <technique_common>
              <instance_material symbol="scout_b2b2b2" target="#scout_b2b2b2" />
            </technique_common>
          </bind_material>
        </instance_geometry>
      </node>
    </visual_scene>
  </library_visual_scenes>
  <scene>
    <instance_visual_scene url="#scene" />
  </scene>
</COLLADA>