<?xml version='1.0' encoding='utf-8'?>
<COLLADA xmlns="http://www.collada.org/2005/11/COLLADASchema" version="1.4.1">
  <asset>
    <created>2026-09-14T00:00:00Z</created>
    <modified>2026-09-14T00:00:00Z</modified>
    <unit name="metre" meter="1" />
    <up_axis>Z_UP</up_axis>
  </asset>
  <library_effects>
    <effect id="scout_b2b2b2_effect">
      <profile_COMMON>
        <technique sid="common">
          <lambert>
            <emission>
              <color>0 0 0 1</color>
            </emission>
            <ambient>
              <color>0.35 0.35 0.35 1</color>
            </ambient>
            <diffuse>
              <color>0.7 0.7 0.7 1</color>
            </diffuse>
          </lambert>
        </technique>
      </profile_COMMON>
    </effect>
  </library_effects>
  <library_materials>
    <material id="scout_b2b2b2" name="scout_b2b2b2">
      <instance_effect url="#scout_b2b2b2_effect" />
    </material>
  </library_materials>
  <library_geometries>
    <geometry id="geometry" name="right_wrist_roll_link">
      <mesh>
        <source id="positions">
          <float_array id="positions_array" count="108">0.00142543879 0.0258935094 0.0143552832 0.0425022505 0.0245449319 0.0171924382 0.011118087 0.0223152265 0.0192980487 0.00173645222 -0.0239259023 -0.0166460034 0.0122148711 -0.0221595671 -0.0189426243 0.00925600715 -0.0114333322 -0.0269995127 0.00170602032 -0.00917730201 -0.0272581223 0.00156467978 0.0136978524 -0.0261095203 0.00924677029 0.0136404913 -0.02629859 0.0123958373 0.0224395208 -0.0182783939 0.0442609265 -0.0282157697 0.00304696523 0.0552712791 -0.0228577517 -0.00537898624 0.0457159095 -0.0250163078 -0.0137389041 0.0482602306 -0.0209370442 -0.0150794135 0.049041152 -0.0255109351 -0.0145975435 0.0453621037 -0.0235022362 0.0164275784 0.0550107285 -0.0234275758 0.00619337754 0.000748575083 -0.0300060064 -0.00931385439 0.000236840686 -0.0102011515 -0.0291368291 0.000133557507 0.0287797414 0.0128538366 0.00115271332 0.0272484068 -0.0149801848 0.000180250237 0.0147516392 -0.0264117438 0.0095113162 0.00914451201 0.0278283358 0.0558940247 0.0243808609 0.00655374769 0.0435162634 0.0298778322 -0.000227103636 0.0476791933 0.0239278618 -0.0161077864 0.044217106 0.0306412689 -0.0026639807 0.000481316732 -0.0246873572 0.0178436209 0.0408639833 -0.0305881966 0.00456932792 0.000417411939 -0.000576923951 0.0311941206 0.0110605005 -0.0212858189 0.0196218323 0.00176395464 -0.0287049226 0.00686546555 0.0015891823 -0.0149504151 0.0251761675 0.00943672378 -0.00925812684 0.0280272886 0.00170041865 0.00920170266 0.027394142 0.00173548388 0.0276981499 -0.0100917062</float_array>
          <technique_common>
            <accessor source="#positions_array" count="36" stride="3">
              <param name="X" type="float" />
              <param name="Y" type="float" />
              <param name="Z" type="float" />
            </accessor>
          </technique_common>
        </source>
        <source id="normals">
          <float_array id="normals_array" count="249">0.0832192674 -0.886540771 -0.455104381 -0.0902964249 -0.943690062 -0.318269789 0.103832968 -0.697767556 -0.708758891 0.0458468199 0.855356634 0.516006887 0.0122902906 0.747487426 0.664162278 0.121144101 0.589168549 0.798877001 0.145227656 0.578061044 0.802965999 0.0688842162 -0.711662769 0.6991359 0.0130816158 -0.67613709 0.736659646 0.0496455207 -0.793584168 0.606431782 -0.17818445 0.982049227 -0.0618843362 -0.371272087 0.9229334 0.10173998 -0.135361746 0.808245838 0.573075831 0.815294981 0.0787627399 -0.573664129 -0.133475631 0.928841472 -0.345597774 -0.375620008 0.919490516 -0.115960166 -0.029680267 -0.732398927 -0.680228531 -0.0525410548 -0.955483258 -0.290329337 0.00612667901 -0.645166278 -0.764017582 -0.999959767 0.00807040464 -0.00392216351 -0.992293596 0.116307177 -0.0427321419 -0.99974376 0.0209151078 -0.00866102427 0.088590011 -0.598007619 -0.796579361 -0.355701983 -0.928831875 -0.103669837 -0.192567497 -0.980867922 0.0285630208 -0.180559039 -0.92799145 0.325929999 0.253697008 0.963463902 -0.0858783424 0.595102489 0.7697016 -0.231111467 0.24467063 0.87842989 -0.410484195 -0.0204031672 -0.805863142 0.591750264 0.177142516 -0.971618593 0.156773269 -0.999940395 0.00313895219 -0.0104552219 -0.999968886 -0.00736640114 -0.00282330508 -0.999944746 -0.00987647846 0.0035979168 -0.999914527 -0.0107151819 0.00748768914 0.0560594499 0.797090352 -0.601252317 0.0385917574 0.981745899 -0.186240777 0.00213739858 0.661037385 -0.750349939 0.0106312716 -0.0321397297 0.999426842 -0.0492256023 -0.0503911786 0.997515678 -0.0322179794 -0.0452193692 0.998457432 0.43430841 -0.892459035 0.122036979 0.239612833 -0.950157762 -0.199464142 0.43440643 -0.900054514 -0.0345385 0.179997802 -0.872961044 0.453364938 0.0243857075 -0.0279261544 0.99931252 0.243371919 0.0688110888 -0.967489123 0.284254372 0.0863780603 -0.954849899 0.116708413 0.0148507096 -0.993055165 0.0554191135 -0.0110184643 -0.998402357 0.0651362762 -0.950711846 0.303157061 0.0105416896 0.882189095 -0.470777363 0.0396047756 0.626485169 -0.778426468 -0.234047726 0.532206655 0.81362015 -0.291386306 0.544813395 0.786302984 -0.0973708332 0.624567866 0.774876714 -0.111830786 -0.501374602 0.85797286 0.0777214468 -0.680433512 0.728676617 0.0799026117 0.665085554 -0.742480159 0.0911156014 0.668283105 -0.738305926 0.10904742 -0.085715726 -0.990334034 0.112973176 -0.576626778 -0.809159219 0.190244809 0.044854451 -0.98071146 0.0713241547 0.0912900418 -0.993266821 0.234027252 0.0272536017 -0.971847951 -0.0757144317 0.897410452 0.434651405 0.121699572 0.931675911 0.342299849 -0.111380108 0.372262627 0.921420097 0.338804185 0.00879796036 0.940815747 0.999999642 -0.000831099984 -0.000267843832 0.999996781 -0.00251035369 -0.000303248351 0.999999344 0.00109671894 0.000365906075 0.999998748 0.00153753022 -0.000369242276 0.999499738 0.0279810615 0.0147415195 0.99998343 0.00522792852 0.00239931024 0.999981821 0.00533726299 0.00281587685 0.999936402 0.0112253213 0.00111203175 0.0257103089 0.108585887 -0.993754566 -0.107467979 0.559719205 -0.821684301 0.0392898656 -0.614719272 -0.787766814 -0.612237573 0.563971937 0.554166853 -0.157473028 -0.47869277 0.863745034 0.252640307 0.918611467 0.303851694</float_array>
          <technique_common>
            <accessor source="#normals_array" count="83" stride="3">
              <param name="X" type="float" />
              <param name="Y" type="float" />
              <param name="Z" type="float" />
            </accessor>
          </technique_common>
        </source>
        <vertices id="vertices">
          <input semantic="POSITION" source="#positions" />
        </vertices>
        <triangles material="scout_b2b2b2" count="68">
          <input semantic="VERTEX" source="#vertices" offset="0" />
          <input semantic="NORMAL" source="#normals" offset="1" />
          <p>0 0 1 1 2 2 3 3 4 4 5 5 5 5 6 6 3 3 7 7 8 8 9 9 10 10 11 11 12 12 13 13 11 13 14 13 10 10 15 14 16 15 10 10 16 15 11 11 4 16 17 17 18 18 19 19 20 20 21 21 0 0 2 2 22 22 23 23 24 24 25 25 26 26 23 27 25 28 27 29 17 17 28 30 23 23 1 1 24 24 27 31 29 32 17 33 17 33 29 32 19 19 17 33 19 19 18 34 18 34 19 19 21 21 30 35 31 36 32 37 7 38 6 39 5 40 16 41 14 42 11 43 15 44 28 30 16 41 5 40 8 45 7 38 12 12 4 4 3 3 15 14 31 36 30 35 33 46 32 47 34 48 34 48 22 49 33 46 35 50 25 25 24 24 20 51 25 28 9 52 0 0 24 24 1 1 29 53 22 54 2 55 33 56 27 29 30 57 8 58 21 59 20 51 8 58 20 51 9 52 13 60 14 60 4 60 4 16 18 18 5 61 18 62 8 63 5 64 26 26 19 65 1 66 27 29 28 30 30 57 12 12 13 67 4 4 26 26 25 28 20 51 16 41 28 30 14 42 22 68 29 68 33 68 7 69 35 70 34 71 7 69 34 71 32 72 35 70 0 73 34 71 3 74 6 75 32 72 6 75 7 69 32 72 3 74 32 72 31 76 26 26 20 51 19 65 8 63 18 62 21 77 17 17 14 42 28 30 35 50 7 7 9 9 31 36 12 12 3 3 10 10 31 36 15 14 9 9 25 25 35 50 30 35 32 37 33 78 19 65 29 53 2 55 30 57 28 30 15 44 0 0 22 22 34 79 12 80 11 80 13 80 35 50 24 24 0 0 4 16 14 42 17 17 31 36 10 10 12 12 29 81 27 29 33 56 23 82 26 26 1 66 1 66 19 65 2 55</p>
        </triangles>
      </mesh>
    </geometry>
  </library_geometries>
  <library_visual_scenes>
    <visual_scene id="scene">
      <node id="right_wrist_roll_link">
        <instance_geometry url="#geometry">
          <bind_material>
            <technique_common>
              <instance_material symbol="scout_b2b2b2" target="#scout_b2b2b2" />
            </technique_common>
          </bind_material>
        </instance_geometry>
      </node>
    </visual_scene>
  </library_visual_scenes>
  <scene>
    <instance_visual_scene url="#scene" />
  </scene>
</COLLADA>