<?xml version='1.0' encoding='utf-8'?>
<COLLADA xmlns="http://www.collada.org/2005/11/COLLADASchema" version="1.4.1">
  <asset>
    <created>2026-09-14T00:00:00Z</created>
    <modified>2026-09-14T00:00:00Z</modified>
    <unit name="metre" meter="1" />
    <up_axis>Z_UP</up_axis>
  </asset>
  <library_effects>
    <effect id="scout_b2b2b2_effect">
      <profile_COMMON>
        <technique sid="common">
          <lambert>
            <emission>
              <color>0 0 0 1</color>
            </emission>
            <ambient>
              <color>0.35 0.35 0.35 1</color>
            </ambient>
            <diffuse>
              <color>0.7 0.7 0.7 1</color>
            </diffuse>
          </lambert>
        </technique>
      </profile_COMMON>
    </effect>
  </library_effects>
  <library_materials>
    <material id="scout_b2b2b2" name="scout_b2b2b2">
      <instance_effect url="#scout_b2b2b2_effect" />
    </material>
  </library_materials>
  <library_geometries>
    <geometry id="geometry" name="right_shoulder_yaw_link">
      <mesh>
        <source id="positions">
          <float_array id="positions_array" count="153">-0.0127660576 0.0282447133 -0.066741094 -0.0234011374 0.021686947 -0.0820471048 -0.0192503817 0.0231773667 -0.0410797708 -0.0317993313 -0.002684623 -0.0747779533 -0.0222988669 -0.0200661104 -0.0395706296 -0.0307588372 -0.0152749475 0.0303772166 -0.0180173591 -0.0230205636 -0.0886325687 -0.0227590278 0.00211868458 -0.0997810587 0.00231518364 -0.0222989675 -0.112347931 0.0247392468 -0.0228133574 -0.111319408 -0.019236438 -0.0287227686 -0.00970754772 0.0133189717 -0.0307806302 -0.00681721745 0.014407902 -0.020177396 -0.0406778418 0.0415598825 -0.0227997489 -0.0588118583 0.0162420925 -0.021361785 -0.05446494 0.0426747389 -0.0212266166 -0.0796437338 -0.0122682378 -0.0243933685 0.0311769396 -0.0158696696 -0.0313480832 0.0312119443 -0.0320768431 0.00932062697 0.0299462546 -0.00980686769 0.0291379318 -0.101343624 -0.0108903432 0.0397971906 -0.0680580437 -0.0085514579 0.0406775624 -0.0967354253 -0.0181377921 0.0184730347 -0.000204651049 -0.0205356739 0.0239208546 0.0325201787 -0.0112745771 -0.0248985887 -7.83047744e-06 0.00860182475 0.0293122195 -0.112541944 0.00359669491 0.0257231425 -0.0495062992 0.00687580789 0.0388250314 -0.102099873 0.00856411643 0.0411102064 -0.0536924154 0.017797254 0.0195449851 0.0313858651 0.012417201 0.0316579603 0.0309021957 -0.0223989729 0.0270630736 -0.00269701425 0.0175045822 -0.01680094 -0.0260142908 0.0300104581 -0.0136990072 -0.00375373685 0.0132163921 0.0181946531 -0.0385867134 0.0300010834 0.0142710684 -0.00134606217 0.0341726653 0.0274702348 -0.108178213 0.0462698974 -0.0222931132 -0.0949538276 0.0162421726 -0.0307447221 0.0311513748 0.0286018904 -0.0130292065 0.0326927453 0.0415893719 0.0290562212 -0.0586438142 0.0370306186 0.0359551981 -0.0991564021 0.0341543779 0.0346557721 -0.0596315488 0.0226027761 0.0389265269 -0.0546313822 0.0485131703 0.0264663212 -0.0870983079 0.0445215069 0.0369698741 -0.078993246 0.00815093424 0.030913977 -0.00242938567 0.0323055871 0.00837451965 0.0307629928 0.0252529457 -0.00598545186 0.000877534738 0.0277237277 0.0400575958 -0.0836531445 0.0147188818 0.0195585303 0.000315970537</float_array>
          <technique_common>
            <accessor source="#positions_array" count="51" stride="3">
              <param name="X" type="float" />
              <param name="Y" type="float" />
              <param name="Z" type="float" />
            </accessor>
          </technique_common>
        </source>
        <source id="normals">
          <float_array id="normals_array" count="375">-0.424016416 0.903775692 0.0583058 -0.796622515 0.582232714 -0.16247353 -0.426869988 0.904267251 0.00909690373 -0.980739295 -0.119426303 -0.154556632 -0.826430082 -0.560097218 -0.057484027 -0.919689894 -0.392636687 -0.00262304395 -0.814391196 -0.433764249 -0.385506868 -0.776297867 -0.00103089423 -0.630365431 -0.690406084 -0.398093641 -0.604037106 0.00594469905 -0.999585986 0.0281523019 -0.0206999816 -0.998626411 -0.0481329411 0.00695102755 -0.999711394 0.0229950063 -0.0460480303 -0.982438803 -0.180813596 -0.0180091858 -0.993146598 -0.115479313 -0.0244735163 -0.987864435 -0.153378353 -0.0036216788 -0.999801755 -0.0195788741 -0.0853242874 -0.994967639 -0.0525279492 -0.0369843878 -0.998467982 -0.0411567092 -0.312906384 -0.948996842 -0.0386594571 -0.0235823113 -0.00665993616 0.999699712 -0.0786573514 -0.0238294117 0.99661684 -0.0164476 0.0135493325 0.999772906 -0.957436562 0.287545383 0.0251563378 -0.502980769 0.864049435 -0.0207102764 -0.582457304 0.302794725 -0.754359841 -0.985745132 0.148245335 -0.0795604736 -0.986909568 0.141471714 -0.0774292275 -0.985289752 0.150814578 -0.0803684071 -0.987501979 0.13790296 -0.0763056725 0.98661983 0.156334862 0.0462680645 0.986180127 0.160979167 0.0391724221 0.985910177 0.163508937 0.0352986939 -0.0975100473 0.374323666 -0.922157049 -0.115527801 0.0375810526 -0.99259305 -0.0973123983 0.994579554 0.0366310179 -0.379656017 0.505016863 -0.775125325 0.00854452606 0.908212066 -0.418422997 -0.565620303 0.381502688 0.731115162 -0.651567101 0.265840769 0.710485041 -0.607847095 0.327706099 0.723277748 -0.0379049592 -0.996316075 0.0769255534 -0.107490271 -0.981955469 0.155593425 -0.0470830724 -0.995066702 0.0873235092 -0.222891137 0.96987164 0.0983289033 -0.17892006 0.982539177 0.0510326438 -0.149754927 0.98822397 -0.0314137265 0.925072968 -0.259578139 -0.277234972 0.747882187 -0.643773437 -0.161950558 0.978039384 -0.097880736 -0.184006333 0.916619778 -0.337771237 -0.213819459 0.861912608 0.379056036 -0.336783588 0.893569708 0.411539316 -0.1793558 0.785517812 0.107673869 -0.609399736 0.676399529 -0.0311264805 -0.735876918 0.604878426 -0.0638925582 -0.793750465 -0.0243690554 -0.997666717 0.0637747496 -0.142982885 -0.0168104656 0.98958236 0.0187851023 -0.999823391 -0.000500736234 -0.015413342 -0.999523461 -0.0267446786 -0.380051494 0.915626824 0.131104425 -0.348723352 0.933224142 0.0865141973 -0.266984016 0.963399172 -0.024114931 -0.0159516502 -0.0756175816 0.997009277 -0.0140332123 -0.0670085847 0.997653723 0.78506434 -0.619372368 0.00720081618 0.142677367 0.577442288 0.803867877 0.131538495 0.559546471 0.818294227 0.0543715917 0.843817055 0.533869326 0.570660293 -0.015448425 0.821040869 0.583689272 -0.0261022747 0.811557472 0.566006958 -0.0116835972 0.824317634 0.164554328 0.906499982 -0.388818324 0.224365324 0.287808448 0.931035161 0.290331721 -0.0469306819 0.955774546 0.169734508 0.690477014 -0.703158319 0.796919227 0.293171078 -0.528176546 0.823878348 0.114844963 -0.555009127 -0.789038956 0.60681355 0.0958894193 -0.927259624 0.366708815 -0.0755923465 0.635548174 -0.746088862 -0.198569521 0.590407789 0.804021716 0.070481807 0.225898311 0.968165815 0.107818671 0.392300159 0.892652631 0.221972629 0.52605176 0.76428175 0.373018682 0.60524857 0.786710918 -0.121491119 0.69682616 0.717208505 -0.00673267851 0.758973002 0.647918284 0.0645121709 -0.223794326 0.00508479681 0.974623144 0.0909171253 0.0784997568 0.992759705 0.0465887114 0.0605059601 0.997079968 0.0358938798 0.0557844415 0.99779743 -0.45113644 0.860156238 0.237922683 -0.829449415 -0.556171238 -0.0518390946 -0.733941257 -0.67900455 0.0168235265 0.92372483 -0.380669773 0.0426955558 -0.127895683 0.990453959 -0.0514162853 0.980274737 -0.0258522388 0.195941508 0.971620083 -0.00131898513 0.236543193 0.985212028 -0.0439686961 0.165602088 0.10063006 0.230802879 0.967782855 0.135223389 -0.00354624121 -0.990808785 0.0469772853 0.0534978285 -0.997462332 0.6787467 0.705352426 -0.204403877 0.555189848 -0.00301097357 0.831718206 -0.622386634 -0.777283669 -0.0920052677 0.98956126 -0.0661536232 0.128032103 -0.697553039 0.19195509 0.690342665 0.0983978584 0.0724572539 0.992505848 0.099553518 0.0739709139 0.992278874 0.995304167 -0.0966993496 -0.00434157345 0.985399961 0.167822391 0.0286795795 0.0919047892 0.995512187 -0.0225614589 0.159558222 0.987175584 -0.00505114533 0.0630046278 0.997439027 -0.0338498577 0.133257136 0.990221977 0.041267179 0.130915552 0.955426037 -0.264617175 0.0330778211 -0.999445856 -0.00371304899 -0.0223187972 0.00576798059 0.999734282 -0.0159099214 0.00201980118 0.999871373 -0.0219698772 0.00556390779 0.999743164 -0.0293394309 0.00987440627 0.999520719 -0.9367823 -0.344798476 0.0596064962 -0.949073076 -0.313578427 0.0304767564 -0.937404752 -0.34333843 0.0582325533 -0.921333253 -0.377944708 0.0911199525</float_array>
          <technique_common>
            <accessor source="#normals_array" count="125" stride="3">
              <param name="X" type="float" />
              <param name="Y" type="float" />
              <param name="Z" type="float" />
            </accessor>
          </technique_common>
        </source>
        <vertices id="vertices">
          <input semantic="POSITION" source="#positions" />
        </vertices>
        <triangles material="scout_b2b2b2" count="98">
          <input semantic="VERTEX" source="#vertices" offset="0" />
          <input semantic="NORMAL" source="#normals" offset="1" />
          <p>0 0 1 1 2 2 3 3 4 4 5 5 6 6 7 7 8 8 6 9 8 10 9 11 10 12 4 13 11 14 11 14 4 13 12 15 13 16 14 17 15 18 16 19 5 20 17 21 6 9 14 17 4 13 3 3 6 6 4 4 1 1 3 3 18 22 2 2 1 1 18 22 19 23 1 1 0 0 1 1 19 24 7 7 20 25 19 26 0 27 20 25 21 28 19 26 22 29 23 30 24 31 7 7 25 32 8 33 19 24 25 32 7 7 2 2 26 34 0 0 19 24 21 35 25 32 21 35 27 36 25 32 28 37 20 38 26 39 29 40 23 41 22 42 23 43 30 44 31 45 13 16 4 13 14 17 13 16 12 15 4 13 32 46 11 47 12 48 32 46 33 49 11 47 34 50 35 51 33 49 36 52 37 53 9 54 37 55 15 18 9 11 5 20 16 19 23 56 38 57 17 58 11 14 39 59 24 60 16 61 39 62 16 19 38 63 11 47 33 49 38 64 40 65 26 66 34 67 40 68 34 69 12 70 27 36 41 71 25 32 42 72 26 66 40 65 43 73 26 66 42 72 41 71 36 74 25 32 41 75 44 76 36 52 7 7 6 6 3 3 23 77 31 78 18 22 45 79 40 79 41 79 40 80 44 80 41 80 45 81 42 82 40 83 2 2 18 22 31 78 7 7 3 3 1 1 46 84 30 85 35 51 30 85 47 86 35 51 17 21 38 63 16 19 18 87 5 20 23 56 29 88 30 89 23 90 18 22 3 3 5 5 39 59 48 91 24 60 10 92 17 93 5 5 39 94 38 64 33 49 26 34 2 2 46 95 44 96 40 97 13 98 28 99 26 66 43 73 8 33 25 32 36 100 8 33 36 100 9 101 35 51 26 102 46 84 32 46 34 50 33 49 12 70 13 103 40 68 15 18 14 17 6 9 15 18 6 9 9 11 13 16 15 18 37 104 37 105 44 96 13 98 20 38 0 106 26 39 39 107 47 108 29 88 2 2 31 45 46 95 39 94 33 49 47 109 30 44 46 95 31 45 34 50 32 46 12 48 24 31 23 30 16 110 17 58 10 12 11 14 35 51 34 50 26 102 27 36 49 111 41 71 45 81 41 71 49 111 42 82 45 81 49 111 43 112 42 82 49 111 49 111 27 36 43 112 43 112 27 36 20 113 27 36 21 114 20 113 43 112 20 113 28 115 33 49 35 51 47 109 5 5 4 4 10 92 44 76 37 53 36 52 22 42 50 116 29 40 50 117 22 118 24 119 50 117 24 119 48 120 47 108 30 89 29 88 48 121 39 122 29 123 48 121 29 123 50 124</p>
        </triangles>
      </mesh>
    </geometry>
  </library_geometries>
  <library_visual_scenes>
    <visual_scene id="scene">
      <node id="right_shoulder_yaw_link">
        <instance_geometry url="#geometry">
          <bind_material>
            <technique_common>
              <instance_material symbol="scout_b2b2b2" target="#scout_b2b2b2" />
            </technique_common>
          </bind_material>
        </instance_geometry>
      </node>
    </visual_scene>
  </library_visual_scenes>
  <scene>
    <instance_visual_scene url="#scene" />
  </scene>
</COLLADA>