<?xml version='1.0' encoding='utf-8'?>
<COLLADA xmlns="http://www.collada.org/2005/11/COLLADASchema" version="1.4.1">
  <asset>
    <created>2026-09-14T00:00:00Z</created>
    <modified>2026-09-14T00:00:00Z</modified>
    <unit name="metre" meter="1" />
    <up_axis>Z_UP</up_axis>
  </asset>
  <library_effects>
    <effect id="scout_b2b2b2_effect">
      <profile_COMMON>
        <technique sid="common">
          <lambert>
            <emission>
              <color>0 0 0 1</color>
            </emission>
            <ambient>
              <color>0.35 0.35 0.35 1</color>
            </ambient>
            <diffuse>
              <color>0.7 0.7 0.7 1</color>
            </diffuse>
          </lambert>
        </technique>
      </profile_COMMON>
    </effect>
  </library_effects>
  <library_materials>
    <material id="scout_b2b2b2" name="scout_b2b2b2">
      <instance_effect url="#scout_b2b2b2_effect" />
    </material>
  </library_materials>
  <library_geometries>
    <geometry id="geometry" name="right_hip_yaw_link">
      <mesh>
        <source id="positions">
          <float_array id="positions_array" count="192">-0.0660939515 0.0174373444 -0.226568803 -0.0649118423 -0.0158488881 -0.225583836 -0.0940139219 -0.0158156324 -0.223066553 -0.0954733416 -0.0113056749 -0.130865782 -0.121993288 -0.0156038273 -0.156984285 -0.0678244457 -0.0161970705 -0.132359907 -0.0514031537 -0.0118206386 -0.123917095 -0.0405626781 -0.0354501754 -0.159955755 -0.0420309305 -0.0333129056 -0.103281528 -0.0410456955 -0.0166414436 -0.160642862 -0.0545144528 -0.0202801134 -0.057477951 -0.036712382 -0.038921088 -0.00175132265 -0.0506664664 -0.0219131168 -0.00146529125 -0.0433112308 -0.0160471443 -0.110554501 0.0164953079 -0.0311599914 -0.102340162 -0.0359189957 -0.0291271545 -0.191926822 -0.006162534 -0.0185178369 -0.164080814 -0.0351794958 -0.0164648239 -0.203180566 -0.0206098258 -0.0359701253 -0.0877721235 -0.120627962 0.0347440578 -0.186231181 -0.0931762084 0.0182246305 -0.216783866 -0.120016843 0.0200111419 -0.179393753 -0.124381714 0.0170176439 -0.15808782 -0.0920079723 0.0179438964 -0.135691509 -0.118954308 0.0333168134 -0.159511968 -0.0975719765 0.0291630775 -0.139197633 -0.096013926 0.0170531869 -0.130101919 -0.0958877578 0.0448185503 -0.142302811 -0.112969339 0.039151568 -0.169623256 -0.102362573 0.0363306962 -0.145075977 -0.0981427878 0.0398404039 -0.164291725 -0.0978416279 0.0340946801 -0.21750316 -0.0596818216 0.0339692421 -0.217258662 -0.0748309344 0.0378514081 -0.200714603 -0.0862316266 0.0439040922 -0.211082041 -0.0843449757 0.0446529984 -0.187213466 -0.070856899 0.0337918624 -0.134733379 -0.0579313338 0.0169248022 -0.125965849 -0.0591985323 0.0185129549 -0.213499963 -0.0532699861 0.0181552824 -0.141813338 -0.0638340116 0.0411529876 -0.211125955 -0.0522207953 0.0354716182 -0.141138256 -0.0491596796 0.0416426696 -0.153026626 -0.0435398966 0.0226569809 -0.19673267 -0.0464120619 0.0175728798 -0.108451098 -0.0436899848 0.0339506567 -0.111499928 -0.0492890365 0.0291218963 -0.0714973137 -0.0441906154 0.0408569165 -0.192026138 -0.0418484733 0.0255997069 -0.156078756 -0.0295591373 0.0194713864 -0.196441129 -0.0355523527 0.0334885716 -0.188844368 -0.0346597023 0.035060063 -0.165639505 -0.0269153826 0.0415820777 -0.00141105056 -0.0490510128 0.027070431 -0.00115620391 0.0117660156 0.0257286765 -0.126696944 0.0278080292 0.0435498096 -0.00137868396 0.0252981167 0.0364208706 -0.0580936447 0.0296471026 -0.0247012898 -0.087481074 0.0505487956 -0.0281484313 -0.00107124983 0.0216347426 -0.043114759 -0.00153967435 0.0367928408 0.0247474909 -0.0680648088 0.0482193306 0.0313171558 -0.00100503117 -0.119690023 -0.015049261 -0.203731269 -0.118901871 0.0171268564 -0.208630949</float_array>
          <technique_common>
            <accessor source="#positions_array" count="64" stride="3">
              <param name="X" type="float" />
              <param name="Y" type="float" />
              <param name="Z" type="float" />
            </accessor>
          </technique_common>
        </source>
        <source id="normals">
          <float_array id="normals_array" count="477">-0.217175454 0.0882805064 -0.972132385 -0.0861675814 -0.0325251631 -0.995749593 -0.338784635 0.0389356948 -0.940057993 -0.145909652 -0.928808928 0.340623379 -0.0375581123 -0.998206556 0.0466157906 -0.0605120808 -0.959157586 0.276324004 -0.105624385 -0.783929288 0.6117993 -0.996169329 -0.0286012329 -0.0826357529 -0.981737018 -0.126260623 -0.142304718 -0.995284915 -0.0389398076 -0.0888347849 -0.729743004 -0.683707237 0.00441392185 -0.722717822 -0.691143095 -0.000317644997 -0.761078537 -0.648125291 0.0263266582 -0.772352219 -0.634253204 0.0345683955 -0.455751568 0.731381297 0.507318377 0.462258667 -0.852401674 -0.244393796 0.174295843 -0.977542162 -0.118457779 0.587792158 -0.679600477 -0.438911855 -0.988614619 -0.0561716966 -0.139591798 0.803516507 -0.341108263 -0.487859011 0.71962595 -0.120012209 -0.683911979 -0.00531980721 -0.998442531 -0.0555356741 -0.129537806 -0.991533339 0.00903453305 -0.784444869 -0.28120631 -0.552783191 -0.784065008 -0.264150023 -0.561664402 -0.784512162 -0.287524998 -0.549426973 -0.107421167 0.987606227 0.114431933 -0.0315277204 0.989845872 0.138604298 -0.108785003 0.987224579 0.116419114 -0.726379335 -0.461038023 0.509722471 -0.701049805 -0.574757874 0.422116786 -0.723436058 -0.320838124 0.611312628 -0.470124394 0.197593927 0.860197484 -0.047320094 0.992562175 0.112165503 -0.788123608 0.472214937 0.394809186 -0.58342278 0.793885529 0.171358258 -0.727603912 0.571116388 0.380024403 -0.563414693 0.265155226 0.782468259 0.0200425144 0.974677384 -0.22271584 -0.0193628576 0.9912498 -0.13057144 0.051582966 0.962106347 -0.267751008 -0.622662902 0.778330326 0.080578424 -0.467776358 0.856675744 0.21746704 0.00625832193 -0.0434405357 -0.999036431 0.0713422298 -0.181349143 -0.98082757 0.0276657306 -0.0888801962 -0.99565804 -0.598577499 0.20083046 0.77548182 -0.515056551 -0.854492545 0.0675225407 -0.839075148 -0.120771341 -0.530440509 -0.316122502 -0.0680202097 0.946276844 0.115199521 -0.0802418664 0.990096092 -0.107703023 0.0463211201 0.993103445 -0.138497531 -0.00184525701 0.990361035 -0.12813428 0.01444289 0.991651654 0.0955197215 -0.232394427 -0.967919827 -0.000557820254 0.996654034 -0.0817336738 -0.282399505 0.956720471 0.0702596977 -0.0352729894 0.997359872 -0.0634751841 0.253537893 -0.147690818 0.955984294 -0.0871875808 0.056231387 0.994603634 -0.0378581695 0.996651053 0.0724804178 0.0593040995 0.496637076 -0.865929902 0.240622193 0.69176209 -0.680856884 0.0416167267 0.551955283 -0.832834542 0.304853767 0.695276916 -0.650887191 0.0847549811 0.8752653 0.476158828 0.133599117 0.843397737 0.52041477 0.167305365 0.818447173 0.549684644 0.184126109 0.805062056 0.563890696 0.601755202 -0.00226318208 -0.798677385 0.617760301 0.0210182033 -0.786085486 0.746060908 -0.122890085 -0.654439569 0.754499495 -0.100249998 -0.64859885 0.740625978 -0.136817068 -0.65784061 -0.37322101 0.919789135 0.12121895 -0.119479954 0.991953075 0.0418767668 -0.069728002 0.995946467 0.0568208396 -0.985220909 0.15059188 0.0816200748 -0.990597248 0.0168302711 0.135771453 -0.99458617 0.0596384779 -0.0850974694 0.460345924 0.849966347 -0.25620085 0.81466049 0.27402401 0.511115611 0.864121735 0.319882751 0.388546914 0.764911711 0.234451562 0.599952102 0.763006091 0.193158269 -0.616856217 0.216551721 0.92067039 -0.324763566 0.135251775 0.516182005 -0.845732272 0.758459747 -0.0891464576 -0.64559406 0.608641088 0.767596483 -0.200877398 0.149305597 0.988785326 0.00337069249 0.305371612 0.951672733 -0.0326682851 0.691058934 0.181847185 0.699549258 -0.812234759 0.0283813607 -0.582639813 -0.0690651089 0.997595072 -0.00584071176 0.0676152706 0.997207344 0.0317122638 -0.545209169 0.837924838 0.0250779372 -0.276877046 0.960602939 -0.024106523 -0.547863901 0.836155891 0.0262400061 0.374913186 0.904115617 -0.204975694 0.267947435 0.95689708 -0.112036154 0.363736749 0.916960537 -0.163948089 0.610194802 -0.764520705 -0.207775027 0.468221754 -0.873776734 -0.131463304 0.225991905 -0.968820989 -0.101555943 0.597520888 0.772376955 -0.215412647 0.532864749 0.834651172 -0.139328822 0.960024059 -0.00228065299 -0.27990815 0.98441571 0.0387539193 -0.171533749 0.98014003 0.00377915776 -0.198270723 -0.600182056 -0.106024422 -0.792805374 -0.461833626 0.0478055291 -0.885677338 -0.0159987211 -0.999840736 -0.00791172031 -0.00315738632 -0.999723673 -0.0232951567 -0.00827213842 -0.999932408 -0.00816962309 -0.995721757 -0.090952538 0.0163044166 -0.996102393 0.0425595976 -0.0772575215 -0.00426623272 -0.999922812 0.0116711846 -0.0117067304 -0.999930501 0.00139708724 -0.0999430716 0.989572942 -0.103714727 -0.0958579108 0.991278708 -0.0904310495 -0.0743048564 0.987309039 -0.140355572 -0.823761046 -0.148074493 0.547258377 -0.852114797 -0.122973122 0.508702278 -0.0736995414 -0.996126175 -0.0479684025 -0.988579035 -0.0636653155 -0.136595175 -0.00882689562 -0.00242067035 0.999958098 0.00482059456 -0.00497511961 0.999975979 0.00296127889 -0.00367119117 0.999988854 -0.00850428548 -0.00125178078 0.999963045 -0.996946335 0.0666719005 0.0406557545 -0.992774725 0.0532698706 -0.107520632 -0.995961607 -0.0217249431 -0.0871120393 -0.99709332 0.0141597297 -0.0748628154 -0.995960593 -0.074610956 -0.0499570444 -0.997058272 0.0324441865 0.0694423094 -0.700192332 -0.0301650912 0.713316679 -0.700691044 -0.0293920282 0.712859154 -0.698636591 -0.0325691029 0.714735031 -0.783784628 -0.256058276 -0.565787792 -0.156017676 -0.0295679104 0.987311602 0.0159931015 -0.00683651399 0.999848723 0.0137155354 -0.00598459831 0.999888003 -0.962356269 0.0949058682 0.25468269 0.329064935 -0.0566854551 0.942604363 -0.0402389914 -0.999094307 -0.0138349906 0.894255996 0.0577792339 -0.443810582 0.696896732 0.548423946 -0.462132156 -0.702020049 -0.0273261517 0.711632729 -0.998005569 -0.0127001656 0.0618352816 0.0386315882 0.998699009 0.0332842059 0.121734135 0.991726339 -0.0407389104 0.0984723568 0.993273437 -0.0609181449 0.93999505 -0.0132840332 -0.340929329 -0.959263742 0.0472625569 0.278530627 -0.0194259956 -0.00187433185 0.999809563 -0.0163013786 -0.000883041648 0.999866724 -0.0742531791 0.992141306 -0.100707725 -0.28025791 0.505052149 -0.816319704 -0.817182839 0.56971854 -0.0873672962</float_array>
          <technique_common>
            <accessor source="#normals_array" count="159" stride="3">
              <param name="X" type="float" />
              <param name="Y" type="float" />
              <param name="Z" type="float" />
            </accessor>
          </technique_common>
        </source>
        <vertices id="vertices">
          <input semantic="POSITION" source="#positions" />
        </vertices>
        <triangles material="scout_b2b2b2" count="124">
          <input semantic="VERTEX" source="#vertices" offset="0" />
          <input semantic="NORMAL" source="#normals" offset="1" />
          <p>0 0 1 1 2 2 3 3 4 4 5 5 6 6 3 3 5 5 7 7 8 8 9 9 10 10 8 11 11 12 12 13 10 10 11 12 6 14 5 14 13 14 14 15 7 16 15 17 9 9 15 18 7 7 14 15 15 17 16 19 16 19 15 17 17 20 18 21 8 22 7 16 19 23 20 24 21 25 22 26 23 27 21 28 24 29 21 30 23 31 25 32 24 29 23 31 26 33 23 27 22 26 27 34 28 35 29 36 29 37 24 29 25 32 27 38 30 39 28 40 28 35 19 41 24 42 31 43 32 44 20 45 33 46 34 46 31 46 33 47 35 47 34 47 35 48 33 48 30 48 27 49 29 49 36 49 36 50 29 37 25 32 37 51 26 52 6 53 32 44 38 54 20 45 20 55 38 56 0 57 39 58 36 50 23 59 26 33 39 60 23 27 34 61 40 62 31 63 31 63 40 62 32 64 41 65 42 66 36 67 42 66 27 68 36 67 1 69 0 70 17 20 32 71 43 72 38 73 38 56 43 74 0 57 44 75 39 60 37 76 45 77 44 78 46 79 40 62 47 80 32 64 42 81 41 82 48 83 0 70 49 84 17 20 43 85 49 85 0 85 50 86 49 86 43 86 32 71 50 87 43 72 47 80 50 88 32 64 42 89 51 90 47 80 51 91 42 81 48 83 41 92 51 92 48 92 45 93 51 90 41 94 46 95 52 96 45 93 53 97 52 96 46 95 51 90 54 98 50 88 52 96 55 99 45 93 56 100 54 98 51 90 57 101 14 15 16 19 57 101 58 102 14 15 58 102 59 103 14 15 54 98 56 100 60 104 60 104 56 100 61 105 60 106 61 107 58 108 55 99 61 105 56 100 2 2 62 109 63 110 2 111 1 112 17 113 13 114 8 8 10 115 13 116 5 5 9 117 33 118 31 119 19 120 33 118 19 120 30 39 30 39 19 120 28 40 8 8 13 114 9 9 37 121 6 122 44 78 11 123 8 22 18 21 17 124 15 18 9 9 7 16 14 15 18 21 4 4 2 111 5 5 5 5 2 111 9 117 6 122 13 114 44 78 55 125 52 126 11 127 55 125 11 127 59 128 10 115 53 129 46 79 63 130 62 131 22 132 62 131 4 133 22 132 53 129 10 115 12 134 26 135 4 136 3 137 19 23 31 138 20 24 3 139 6 53 26 52 52 126 53 140 12 141 52 126 12 141 11 127 13 114 10 115 46 79 45 77 39 142 44 78 39 58 41 143 36 50 9 117 2 111 17 113 2 111 4 4 62 144 51 90 50 88 47 80 54 145 49 84 50 146 56 100 51 90 45 93 4 136 26 135 22 147 21 148 24 148 19 148 16 19 17 20 49 84 63 110 0 0 2 2 16 19 49 84 54 145 18 21 59 103 11 123 29 36 28 35 24 42 30 39 42 89 35 149 30 39 27 38 42 89 42 89 47 80 35 149 34 150 35 149 40 151 35 149 47 80 40 151 54 145 60 106 57 152 18 21 14 15 59 103 26 33 37 76 39 60 41 153 39 142 45 77 60 106 58 108 57 152 61 154 55 125 58 155 55 125 59 128 58 155 45 93 55 99 56 100 23 59 36 50 25 32 57 152 16 19 54 145 13 114 46 79 44 78 21 156 20 156 63 156 0 0 63 110 20 157 63 130 22 132 21 158</p>
        </triangles>
      </mesh>
    </geometry>
  </library_geometries>
  <library_visual_scenes>
    <visual_scene id="scene">
      <node id="right_hip_yaw_link">
        <instance_geometry url="#geometry">
          <bind_material>
            <technique_common>
              <instance_material symbol="scout_b2b2b2" target="#scout_b2b2b2" />
            </technique_common>
          </bind_material>
        </instance_geometry>
      </node>
    </visual_scene>
  </library_visual_scenes>
  <scene>
    <instance_visual_scene url="#scene" />
  </scene>
</COLLADA>