<?xml version='1.0' encoding='utf-8'?>
<COLLADA xmlns="http://www.collada.org/2005/11/COLLADASchema" version="1.4.1">
  <asset>
    <created>2026-09-14T00:00:00Z</created>
    <modified>2026-09-14T00:00:00Z</modified>
    <unit name="metre" meter="1" />
    <up_axis>Z_UP</up_axis>
  </asset>
  <library_effects>
    <effect id="scout_b2b2b2_effect">
      <profile_COMMON>
        <technique sid="common">
          <lambert>
            <emission>
              <color>0 0 0 1</color>
            </emission>
            <ambient>
              <color>0.35 0.35 0.35 1</color>
            </ambient>
            <diffuse>
              <color>0.7 0.7 0.7 1</color>
            </diffuse>
          </lambert>
        </technique>
      </profile_COMMON>
    </effect>
  </library_effects>
  <library_materials>
    <material id="scout_b2b2b2" name="scout_b2b2b2">
      <instance_effect url="#scout_b2b2b2_effect" />
    </material>
  </library_materials>
  <library_geometries>
    <geometry id="geometry" name="right_hip_roll_link">
      <mesh>
        <source id="positions">
          <float_array id="positions_array" count="111">0.0342764556 0.0359493457 -0.0674024522 0.0790503621 -0.000290102122 0.0329689495 0.0330932736 0.0432359427 -0.081189692 -0.032018736 0.0230344068 -0.118988313 -0.0125955921 -0.026920449 -0.0778044388 0.00173908519 0.0378366411 -0.0752298534 0.00109444035 -0.0253042877 -0.0708456561 0.00496229483 -0.0286552794 -0.0676357448 0.0040704282 -0.0262624323 -0.0726927891 0.00156205869 -0.0265769809 -0.0631766096 0.00691761542 -0.0298040397 -0.0706583112 0.0105169099 -0.030650083 -0.0671027526 0.0102324625 -0.0313733369 -0.0696992278 0.0142501006 -0.0320138671 -0.0725469589 0.012145021 -0.0325430371 -0.0712756887 0.013344802 -0.0338732414 -0.0720378608 0.0170114674 -0.0350139029 -0.0632897913 0.0283301864 -0.0342213064 -0.0706475228 0.0175464377 -0.0341549143 -0.071568355 0.0158972591 -0.033233352 -0.0675196573 -0.00623417553 -0.0396620296 -0.12253052 0.0255333539 -0.0444341302 -0.123830646 0.0879939198 0.0184856877 -0.124390371 0.0330422968 -0.0337807275 -0.0683358237 0.0343846418 -0.0373772681 -0.0722684786 0.0350459106 -0.0495893769 0.0109556718 0.0134399524 0.0363409854 -0.0633034334 0.0169452522 0.0352844596 -0.0672487691 0.00558332074 0.0310490578 -0.067266427 0.000436777336 0.0280006826 -0.063347213 0.00314218714 0.0304854419 -0.0713767782 0.00157254713 0.0271911845 -0.0675995871 0.003967728 0.0301380046 -0.0725469738 0.0143969543 0.0357961282 -0.0698709637 0.0176543724 0.0366944 -0.0707322359 0.0195785966 0.0377788208 -0.0718500912 0.0316318758 0.0366555825 -0.070789434</float_array>
          <technique_common>
            <accessor source="#positions_array" count="37" stride="3">
              <param name="X" type="float" />
              <param name="Y" type="float" />
              <param name="Z" type="float" />
            </accessor>
          </technique_common>
        </source>
        <source id="normals">
          <float_array id="normals_array" count="450">-0.173847899 0.90629214 0.385242105 -0.011957407 0.940670669 0.339110106 -0.374650955 0.806058586 0.458155245 -0.778386176 0.190507129 0.598182201 0.779188693 -0.148269504 -0.609000146 0.461015582 0.830806971 0.311808318 -0.201412007 0.964233637 0.172298282 0.171453461 -0.878499508 -0.445917398 -0.291087329 0.289750099 0.911763728 -0.237567917 0.482153922 0.843260944 -0.185522303 0.624571025 0.758612216 0.419053525 0.882318497 -0.214262083 0.420334131 0.906838715 0.0310273822 0.406320423 0.865554094 0.292779535 0.362896502 0.809132993 0.462179601 0.367912441 0.667598486 0.647265494 -0.322383225 -0.753991604 0.572333574 -0.299376667 -0.870835006 0.389897376 -0.327839375 -0.674636781 0.661352098 -0.285021961 -0.909305096 0.303194225 0.54341048 -0.207695723 0.813368022 -0.332141101 -0.926202536 0.178412959 -0.239675924 -0.93704468 0.253973901 -0.409000635 -0.906472862 0.105002299 -0.234178692 -0.799771965 -0.552743256 -0.476641804 -0.878344834 0.036371626 -0.474309504 -0.879925668 0.0275930762 -0.154845849 0.694189787 0.702939034 0.346117496 0.929243624 -0.129263178 0.380796164 -0.218357161 -0.898506761 -0.28027308 -0.916340113 0.28595078 0.0757024735 -0.396099001 -0.915081799 -0.690207064 -0.713815093 -0.118668362 0.109103061 0.547257662 0.8298226 -0.0360137671 0.369039237 0.928715825 -0.0858684033 0.301784337 0.949501336 -0.628254473 -0.765335858 0.139847666 -0.737030923 -0.67559433 0.0189120192 -0.651975572 -0.749343455 0.115811504 -0.61220932 -0.775251091 0.155516729 0.455296993 0.887496591 0.0710947886 0.262114555 0.963811517 0.0486140996 0.43631196 0.896700859 0.0745616555 -0.486783147 0.708300173 -0.511227012 0.806728542 -0.441042334 -0.393281937 0.791730165 -0.47871083 -0.379472375 0.788254619 -0.486836284 -0.376357734 0.809406579 -0.433805794 -0.395820051 0.133513495 0.957966983 -0.253916234 -0.541581869 0.531837344 -0.651028514 -0.229980126 -0.755977929 0.612867475 -0.125615045 -0.633232296 0.763700008 -0.187246695 -0.70862484 0.680286348 0.0168088172 -0.989229679 -0.145403266 0.0639753342 -0.997910142 -0.00908177346 0.0397882089 -0.992436409 -0.11613293 0.0137828533 -0.980538547 -0.195842147 0.145587876 0.58785814 0.795755625 0.0833002403 0.96153003 -0.261765331 0.117044307 0.75243938 -0.648178637 0.0367067121 0.957294106 -0.286776304 0.229462475 0.962632895 0.143822595 0.205171257 0.975536585 -0.0789502561 0.191420987 0.980167985 -0.0512713641 0.119696759 0.986291528 0.113585576 -0.572048724 0.815336049 0.0893724486 -0.52312845 0.851906359 -0.0243346971 -0.578797698 0.813137054 0.0616553202 -0.953049242 0.234672964 -0.191378415 -0.948647141 0.277147174 -0.152505696 -0.960656285 0.152232602 -0.232303232 0.849407852 -0.51760298 0.102924637 0.879272521 -0.449334174 0.158046246 0.917533576 -0.291292071 0.270704746 0.423523396 -0.887079477 -0.183624536 0.437704533 -0.888445735 -0.138126656 0.334023684 -0.847027957 -0.413487345 0.342848182 -0.835260928 0.429877132 0.323802769 -0.82003504 0.471904963 0.346378535 -0.845947742 0.405455679 -0.968690991 0.0490398891 -0.243377939 0.779667914 0.473879188 0.409336656 -0.50618577 0.862403035 0.00607810635 -0.62841624 0.728265882 0.273352951 -0.678940952 0.234990761 0.695570648 -0.727788508 0.204236954 0.654684007 -0.753512144 0.186597511 0.63039732 0.416740626 -0.901742756 0.114835761 0.0300136656 0.955644369 0.29298982 -0.090593949 0.840581298 0.534056008 -0.008357835 0.910343051 0.413770109 -0.0835184455 0.886053979 0.455996752 -0.109009877 0.800680995 0.589089811 0.424533993 -0.903306603 0.0617096424 0.310158461 -0.830100954 -0.463394195 -0.64332366 -0.655144334 -0.396132082 -0.595197439 0.744575381 -0.302237481 -0.00403780024 -0.936232269 -0.351358563 0.0192466881 -0.914937913 -0.403135359 -0.00453585573 -0.844759583 -0.535126746 0.00497587677 -0.970277905 -0.241942227 0.0612666309 0.949123979 0.308885187 -0.00718691666 0.867888093 0.496707737 0.144596338 0.953546345 0.264274895 0.0323548838 -0.928738475 -0.369320989 0.694310427 -0.714124084 -0.0892174989 -0.999872267 -0.00656910054 0.0145706013 -0.998128295 0.0312101655 0.0525916815 -0.999865413 -0.0153878918 0.00568659278 0.873148561 -0.0593825653 -0.483823687 0.182009786 -0.6633057 -0.725877345 -0.0113336053 0.0647801831 -0.997835219 -0.0327193737 0.105225891 -0.993909955 -0.0130805783 0.0680875629 -0.997593582 0.925075471 0.0150404116 -0.379485458 -0.049497027 0.136892289 -0.989348531 0.472889632 0.878749609 0.0646104664 0.0851465017 -0.919101894 -0.384709924 -0.149587914 -0.988372982 -0.0272456724 -0.89112556 -0.380455583 0.247282758 -0.00238797674 0.00246642926 0.999994099 -0.00530236773 0.0030165168 0.999981403 0.00635791803 0.000815545965 0.999979436 0.00763997203 0.000573531084 0.999970675 -0.832924485 -0.0415847935 0.551821947 -0.774392962 0.55829066 0.297702968 -0.24055773 0.901647091 0.35939464 0.597499371 -0.77284956 -0.213771135 0.562469125 -0.784215331 -0.261982471 0.66151607 -0.741212487 -0.114019915 0.708819091 -0.704034269 -0.0437180176 0.741178811 -0.668166935 -0.0648605153 0.722481012 -0.689394414 -0.0525025539 -0.998138428 -0.0203999281 0.0574758239 -0.998944104 -0.0182552896 0.0421593376 0.0430257097 0.991746604 0.120778561 -0.0434763618 0.038522251 -0.99831152 0.760863185 -0.644166648 -0.0783357918 -0.463124186 -0.827740133 -0.316799968 -0.145312265 -0.501213014 0.853035688 0.082558006 0.1109263 0.990393639 -0.457876593 0.337867141 0.822310686 0.356055647 -0.187706038 0.915418386 -0.797736108 0.153401762 0.583168089 -0.15518479 -0.905862689 -0.394119829 0.485615611 -0.798329592 -0.356156349 -0.237466246 -0.942602932 0.234754205 -0.979213655 0.132148832 0.153874353 -0.0884269252 -0.584065557 0.806875527 0.00267436914 -0.994674206 -0.103034265</float_array>
          <technique_common>
            <accessor source="#normals_array" count="150" stride="3">
              <param name="X" type="float" />
              <param name="Y" type="float" />
              <param name="Z" type="float" />
            </accessor>
          </technique_common>
        </source>
        <vertices id="vertices">
          <input semantic="POSITION" source="#positions" />
        </vertices>
        <triangles material="scout_b2b2b2" count="102">
          <input semantic="VERTEX" source="#vertices" offset="0" />
          <input semantic="NORMAL" source="#normals" offset="1" />
          <p>0 0 1 1 2 2 3 3 4 3 1 3 5 4 1 4 4 4 6 5 7 5 8 5 4 6 9 6 6 6 8 7 7 7 4 7 8 8 4 9 10 10 11 11 12 12 10 13 10 13 13 14 8 15 14 16 4 17 15 18 12 19 4 17 14 16 13 20 12 20 14 20 12 12 13 14 10 13 9 21 4 22 7 23 6 24 11 24 7 24 16 25 7 23 10 26 16 27 10 10 4 9 7 28 11 11 10 13 11 29 16 29 4 29 11 30 4 17 12 19 17 31 18 31 15 31 16 32 19 32 18 32 18 33 13 34 15 35 11 36 14 37 15 38 16 39 11 36 15 38 11 40 19 41 13 42 11 43 13 43 14 43 19 44 15 45 13 46 16 47 15 45 19 44 20 48 4 48 21 48 4 49 22 49 21 49 23 50 17 51 24 52 16 53 17 54 23 55 25 56 16 53 23 55 13 34 18 33 24 57 23 58 24 59 18 60 19 41 23 58 18 60 19 41 25 61 23 58 26 62 27 63 5 64 28 65 29 66 26 67 30 68 4 69 31 70 32 71 31 72 4 73 28 74 30 75 33 76 33 77 30 78 32 79 29 80 30 68 31 70 29 81 32 81 30 81 28 65 32 82 29 66 28 65 26 67 30 83 26 84 5 85 30 86 34 87 33 77 32 79 33 88 34 89 5 64 35 90 5 91 34 92 34 87 32 79 2 93 33 76 27 94 28 74 5 64 27 63 33 88 26 95 34 95 27 95 26 96 35 96 34 96 36 97 34 98 2 99 0 100 34 98 36 97 35 90 36 101 2 102 35 90 0 0 36 101 1 1 35 90 26 103 0 100 27 104 34 98 1 1 0 0 35 90 32 71 28 105 31 72 25 106 2 107 24 108 25 109 4 109 3 109 25 61 19 41 11 40 0 110 25 110 31 110 0 111 31 112 27 113 31 114 25 114 6 114 28 115 27 113 31 112 25 61 11 40 6 116 2 117 1 117 5 117 21 118 25 118 20 118 20 119 25 119 3 119 16 25 9 21 7 23 26 120 29 121 9 122 26 120 9 122 16 123 26 124 16 124 1 124 1 125 16 125 25 125 25 126 22 126 4 126 24 127 22 128 25 129 22 130 1 131 21 132 9 133 29 80 6 134 3 135 1 135 22 135 20 136 3 136 22 136 21 132 1 131 25 137 6 138 8 138 13 138 6 139 13 139 24 139 6 140 24 140 2 140 6 141 2 141 4 141 2 142 32 142 4 142 5 85 4 143 30 86 4 144 24 144 15 144 2 102 5 91 35 90 6 134 29 80 31 70 22 128 24 127 20 145 4 146 20 146 24 146 25 106 0 147 2 107 15 148 24 52 17 51 16 53 18 149 17 54</p>
        </triangles>
      </mesh>
    </geometry>
  </library_geometries>
  <library_visual_scenes>
    <visual_scene id="scene">
      <node id="right_hip_roll_link">
        <instance_geometry url="#geometry">
          <bind_material>
            <technique_common>
              <instance_material symbol="scout_b2b2b2" target="#scout_b2b2b2" />
            </technique_common>
          </bind_material>
        </instance_geometry>
      </node>
    </visual_scene>
  </library_visual_scenes>
  <scene>
    <instance_visual_scene url="#scene" />
  </scene>
</COLLADA>