<?xml version='1.0' encoding='utf-8'?>
<COLLADA xmlns="http://www.collada.org/2005/11/COLLADASchema" version="1.4.1">
  <asset>
    <created>2026-09-14T00:00:00Z</created>
    <modified>2026-09-14T00:00:00Z</modified>
    <unit name="metre" meter="1" />
    <up_axis>Z_UP</up_axis>
  </asset>
  <library_effects>
    <effect id="scout_b2b2b2_effect">
      <profile_COMMON>
        <technique sid="common">
          <lambert>
            <emission>
              <color>0 0 0 1</color>
            </emission>
            <ambient>
              <color>0.35 0.35 0.35 1</color>
            </ambient>
            <diffuse>
              <color>0.7 0.7 0.7 1</color>
            </diffuse>
          </lambert>
        </technique>
      </profile_COMMON>
    </effect>
  </library_effects>
  <library_materials>
    <material id="scout_b2b2b2" name="scout_b2b2b2">
      <instance_effect url="#scout_b2b2b2_effect" />
    </material>
  </library_materials>
  <library_geometries>
    <geometry id="geometry" name="right_hand_index_1_link">
      <mesh>
        <source id="positions">
          <float_array id="positions_array" count="72">0.0200193617 -0.00716655049 -0.0122089721 0.00954844523 -0.00889515225 -0.00175265747 0.0110741323 -0.00608549593 -0.00994302612 0.019658301 0.00735053187 -0.0111033469 0.0375080258 -0.0071309302 -0.0109063219 0.0416561849 0.000378472178 -0.0103553291 0.0512834154 -0.00442615245 -0.00695193885 0.050005313 0.000971730275 -0.00604640227 0.0493639372 0.00217021164 0.00653008372 0.0508458354 -0.00436655432 0.00776383374 0.0428780429 0.00511887297 -0.00674265111 0.036701519 0.00529734371 0.00980506651 0.0357564948 -0.006896595 0.0113568967 0.0217270888 -0.00792245008 0.0120202601 0.0202044658 0.00738966698 0.0104239602 0.0207068529 0.00769900344 -0.00927118771 0.0299965329 0.00827828329 -0.00307142152 -0.00614609849 0.00527595216 0.0112227537 -0.00509144412 -0.00596511597 0.0115622785 0.0157483499 0.00533025526 0.00965141132 0.0159450863 0.00637156796 -0.00964884833 0.0105805248 -0.00649946835 0.00992446952 -0.0060388241 -0.00314298924 -0.0110950358 -0.00338397641 0.00503126206 -0.0119860182</float_array>
          <technique_common>
            <accessor source="#positions_array" count="24" stride="3">
              <param name="X" type="float" />
              <param name="Y" type="float" />
              <param name="Z" type="float" />
            </accessor>
          </technique_common>
        </source>
        <source id="normals">
          <float_array id="normals_array" count="177">-0.0390542187 -0.980969012 -0.190196127 -0.0516641997 -0.997463107 -0.0489704534 -0.175336123 -0.955756783 -0.236190975 0.0467401855 0.072804682 -0.996250391 0.127803266 0.0127744554 -0.991717279 0.0441027246 0.0588891394 -0.997289836 0.243809685 0.257733613 -0.934949338 0.382579476 0.117431566 -0.916429341 0.415282041 0.325470418 -0.849476218 0.973756969 0.225844383 0.0281377453 0.973724902 0.225992098 0.0280605126 0.973743379 0.225906834 0.0281050894 0.973715723 0.226034313 0.0280384384 0.328523606 0.944466114 -0.00748691522 0.211645856 0.970641971 0.114281431 0.33805272 0.940113842 0.0436611623 0.113882735 0.116732836 0.986612499 0.135660261 0.128747225 0.982354522 0.0198738519 0.109095663 0.993832588 0.115319908 -0.993136466 0.0195260886 0.0110429209 -0.999153793 0.0396199077 0.114056811 -0.993450701 -0.00683386624 0.257960349 0.1769346 0.949816108 0.0234683137 0.0958374366 0.995120287 0.283178747 0.870116532 -0.403369546 0.29472512 0.89357096 -0.338626742 0.265305161 0.540232599 -0.798599958 0.116470635 0.991330266 -0.0608188547 -0.209092274 0.977419436 -0.030522529 0.506227136 0.860567629 -0.0561915077 0.298529029 0.241927549 0.92322886 0.0276574176 0.0327710509 0.999080122 0.0156783909 0.0553981625 0.998341262 -0.174134448 0.982028902 0.0727769956 -0.920704782 0.390256822 -0.0015231187 -0.922229707 0.386606872 -0.00524154399 -0.931366146 0.363942653 0.0101420758 -0.106175698 -0.988622606 -0.106545933 -0.913401842 0.406810701 -0.0142168654 -0.244713649 0.966735363 0.0744176134 -0.89398706 0.447907746 -0.0128781535 -0.182102829 0.960636437 0.209800258 -0.425441474 0.903894603 0.0444314405 -0.157229811 -0.975257218 -0.1554095 -0.0641800985 -0.95050174 -0.304018706 -0.0456100404 0.122871727 0.991373956 -0.101051077 0.0511693805 0.993564487 -0.0739428774 0.0864157006 0.993511319 -0.121654898 0.0241364129 0.992278934 0.177738786 -0.983899891 0.018704921 0.189999536 -0.981737018 0.00962575432 -0.0564118549 -0.0900599062 -0.99433744 -0.0310790073 -0.0413760468 -0.998660147 -0.107076518 0.929707289 0.352390409 -0.0904172957 0.00748650031 -0.995875835 -0.0643601939 0.46957925 -0.880541384 -0.0682090372 0.337861449 -0.938721001 -0.0816037953 -0.00603166409 -0.996646583 -0.105201721 -0.0398824066 -0.993650854</float_array>
          <technique_common>
            <accessor source="#normals_array" count="59" stride="3">
              <param name="X" type="float" />
              <param name="Y" type="float" />
              <param name="Z" type="float" />
            </accessor>
          </technique_common>
        </source>
        <vertices id="vertices">
          <input semantic="POSITION" source="#positions" />
        </vertices>
        <triangles material="scout_b2b2b2" count="44">
          <input semantic="VERTEX" source="#vertices" offset="0" />
          <input semantic="NORMAL" source="#normals" offset="1" />
          <p>0 0 1 1 2 2 3 3 4 4 0 5 5 6 4 4 3 3 5 6 6 7 4 4 5 6 7 8 6 7 7 9 8 10 6 11 6 11 8 10 9 12 10 13 11 14 8 15 12 16 11 17 13 18 12 19 13 20 4 21 1 1 0 0 4 21 9 22 11 17 12 16 11 17 14 23 13 18 15 24 5 6 3 25 15 24 10 26 5 6 16 27 10 13 15 28 10 26 7 8 5 6 10 13 8 15 7 29 8 30 11 17 9 22 14 23 17 31 18 32 14 23 18 32 13 18 15 28 14 33 16 27 2 34 19 35 20 36 10 13 16 27 11 14 21 37 1 1 13 20 21 38 19 35 2 34 3 39 14 33 15 28 1 40 21 38 2 34 20 41 19 42 14 33 14 33 3 39 20 41 22 43 0 0 2 2 13 20 18 44 21 37 22 45 2 46 23 47 2 46 20 48 23 47 4 21 13 20 1 1 4 21 9 49 12 19 4 21 6 50 9 49 0 5 22 51 23 52 23 52 3 3 0 5 23 53 20 41 3 39 11 14 16 27 14 33 17 54 14 55 19 56 21 57 18 58 17 54 21 57 17 54 19 56</p>
        </triangles>
      </mesh>
    </geometry>
  </library_geometries>
  <library_visual_scenes>
    <visual_scene id="scene">
      <node id="right_hand_index_1_link">
        <instance_geometry url="#geometry">
          <bind_material>
            <technique_common>
              <instance_material symbol="scout_b2b2b2" target="#scout_b2b2b2" />
            </technique_common>
          </bind_material>
        </instance_geometry>
      </node>
    </visual_scene>
  </library_visual_scenes>
  <scene>
    <instance_visual_scene url="#scene" />
  </scene>
</COLLADA>