<?xml version='1.0' encoding='utf-8'?>
<COLLADA xmlns="http://www.collada.org/2005/11/COLLADASchema" version="1.4.1">
  <asset>
    <created>2026-09-14T00:00:00Z</created>
    <modified>2026-09-14T00:00:00Z</modified>
    <unit name="metre" meter="1" />
    <up_axis>Z_UP</up_axis>
  </asset>
  <library_effects>
    <effect id="scout_b2b2b2_effect">
      <profile_COMMON>
        <technique sid="common">
          <lambert>
            <emission>
              <color>0 0 0 1</color>
            </emission>
            <ambient>
              <color>0.35 0.35 0.35 1</color>
            </ambient>
            <diffuse>
              <color>0.7 0.7 0.7 1</color>
            </diffuse>
          </lambert>
        </technique>
      </profile_COMMON>
    </effect>
  </library_effects>
  <library_materials>
    <material id="scout_b2b2b2" name="scout_b2b2b2">
      <instance_effect url="#scout_b2b2b2_effect" />
    </material>
  </library_materials>
  <library_geometries>
    <geometry id="geometry" name="right_wrist_yaw_link">
      <mesh>
        <source id="positions">
          <float_array id="positions_array" count="108">-0.00857520755 -0.0157949589 -0.0233072191 -0.00597059308 0.000185237601 -0.0296850763 -0.0169592947 -0.00779857347 -0.0238408241 -0.00461691571 -0.0154555896 -0.0268152766 -0.00756893819 0.00412210682 -0.0303704794 -0.0174576398 -0.00429411512 0.0233362187 -0.00800225418 -0.0166115873 0.0231891442 -0.00661820313 0.000390617992 0.0306943748 -0.00507605122 2.80712247e-05 0.0293432791 -0.0116920937 0.0151280994 -0.0238059033 0.0272312593 -0.0192078725 -0.0221710764 0.0384412445 -0.012579293 -0.0271336362 0.0382416137 -0.0272704214 -0.0125502376 0.0281470232 0.0210444611 -0.0200805385 0.037283849 0.0194958542 -0.0193901621 0.036873389 0.0206501316 0.0189952701 -0.0056884815 0.0170867108 0.0235448405 -0.0167110618 0.00830551516 0.0219417885 0.0370598063 0.00642815512 -0.0280043762 0.0363984481 -0.0112355724 0.028524546 0.0358385295 -0.0117210569 -0.0268460214 0.0375791974 -0.0240730215 -0.0142494999 0.0409203172 0.00472068554 0.0231575593 0.0364539102 0.0122261783 0.0278457087 0.0263098981 -0.0192617308 0.0216128323 0.0356912501 -0.0117310379 0.0264797769 0.037270993 -0.0252028275 0.0131129799 0.0368449613 -0.0282980427 0.0120902322 0.0411893129 -0.0166407973 0.0184047204 0.0380012281 0.00376729062 0.0271091182 0.0276624933 0.0199027434 0.0209739916 0.0283449516 -0.0273105893 -0.0104055926 0.0385797024 0.0212660041 0.0168694183 0.028479863 -0.0271833967 0.0104388651 0.0388632789 0.0221936349 -0.0138180554 0.0375628993 0.00911283121 -0.0293827783</float_array>
          <technique_common>
            <accessor source="#positions_array" count="36" stride="3">
              <param name="X" type="float" />
              <param name="Y" type="float" />
              <param name="Z" type="float" />
            </accessor>
          </technique_common>
        </source>
        <source id="normals">
          <float_array id="normals_array" count="240">0.122887127 0.363451451 0.923472703 0.203627527 -0.0101990933 0.978995323 0.365526021 0.167178497 0.915664852 -0.512221217 -0.579363942 -0.634008527 -0.485018104 -0.17967464 -0.855847239 -0.197101921 -0.310601294 -0.92988044 -0.386300832 -0.0403366648 -0.921490431 -0.521119833 -0.121197231 0.844834507 -0.183820337 -0.412065357 0.892419279 -0.26295945 0.0125600239 0.964725137 0.413164049 0.0774848387 -0.907354176 0.174832717 -0.0187961943 -0.98441875 0.145937324 0.339819223 -0.929099143 -0.69246453 0.160159171 -0.703449965 0.18782112 -0.318220437 0.929224968 0.036537569 -0.691016376 -0.721915066 0.0394855067 -0.403533578 -0.914112449 -0.0176454633 -0.918688834 -0.394587755 -0.132093504 -0.991045475 0.0194979217 -0.169085547 -0.98520875 0.0278178342 0.0435103029 -0.998856843 -0.0197965 -0.180435836 0.424926698 0.887062669 -0.501455843 0.269653141 0.822088361 -0.0595314167 -0.503560603 0.861906469 -0.0501872115 -0.247631565 0.967553556 -0.154276416 -0.541941643 0.826134384 0.437205255 -0.310360849 0.844113529 -0.0870427042 -0.977376401 -0.192766562 -0.999228358 0.0132677667 0.036967814 -0.97403276 0.0790839419 0.212146103 -0.999709487 -0.00656517921 0.0231917277 0.938666582 0.0676204637 0.338130981 0.84816879 0.197777197 0.491420329 -0.0606376454 0.636962175 -0.768506467 -0.07082396 0.363491446 -0.928901494 -0.0770058483 0.767839909 -0.635996878 -0.0143821426 -0.920477271 0.390531421 0.910601556 -0.287118912 0.297266722 -0.999409616 0.012780969 -0.031892132 -0.951712012 0.152664945 -0.266341329 -0.999266624 0.00700072665 0.0376452021 -0.0859361589 0.996015787 -0.0238240194 0.093799606 -0.317388892 -0.943645 0.40970996 -0.216479853 -0.886156976 -0.0727720782 -0.957170784 -0.280229062 -0.0716462359 0.376486987 0.923647344 -0.069703266 0.632314622 0.77156961 -0.0313263088 -0.2214652 -0.974664986 -0.0255850051 -0.406286597 -0.913387418 0.978638053 0.177724481 0.103351608 -0.00742249237 0.815088153 -0.579289436 -0.115479998 0.992952168 0.026651809 -0.123231821 0.991958559 0.0288465116 -0.120752558 0.992283583 0.0281445384 -0.332192689 0.943204641 -0.00360528356 -0.251395136 0.967443109 0.0292276703 -0.302361786 0.953154027 0.00864285696 0.929591 -0.366690606 0.037397638 0.990448534 -0.128411978 -0.0502205566 0.0603376888 0.431277126 0.900199652 0.0111111449 -0.122782953 -0.992371321 0.0957897455 0.644790769 -0.758333147 0.116140835 0.666073859 -0.736788273 0.290742904 0.720375776 -0.629704177 -0.114159673 0.773094058 0.623933554 -0.230485454 0.972350895 0.0375525765 0.149239048 0.748889565 0.645671844 0.0542014726 0.6997329 0.712345421 -0.999733508 -0.0112549337 0.0201568175 -0.999996185 0.00180269929 0.00208339235 -0.050451979 0.820299625 0.569704413 -0.179824904 -0.945052385 0.273018211 -0.031748753 0.527259052 -0.849111259 -0.0365729518 0.501771092 -0.864226937 0.0751185119 -0.996813476 -0.026834581 -0.0111671202 -0.686800241 0.726760447 0.997419775 -0.0117459828 -0.0708224997 0.997724116 0.0398028865 -0.0544266626 -0.114135921 0.99311775 0.0262713153 0.993781447 0.0290958155 -0.107479483</float_array>
          <technique_common>
            <accessor source="#normals_array" count="80" stride="3">
              <param name="X" type="float" />
              <param name="Y" type="float" />
              <param name="Z" type="float" />
            </accessor>
          </technique_common>
        </source>
        <vertices id="vertices">
          <input semantic="POSITION" source="#positions" />
        </vertices>
        <triangles material="scout_b2b2b2" count="68">
          <input semantic="VERTEX" source="#vertices" offset="0" />
          <input semantic="NORMAL" source="#normals" offset="1" />
          <p>0 0 1 1 2 2 0 3 2 4 3 5 4 6 3 5 2 4 5 7 6 8 7 9 5 10 8 11 6 12 9 13 4 6 2 4 9 14 2 2 1 1 10 15 11 16 12 17 13 18 14 19 15 20 16 21 17 22 7 9 13 23 18 24 14 25 19 26 7 9 6 8 3 27 10 27 0 27 18 28 20 29 21 30 22 31 23 32 19 26 24 33 25 34 26 35 27 36 28 37 19 26 26 38 25 39 29 40 16 41 30 41 15 41 16 42 8 11 17 43 10 15 12 17 31 44 20 45 0 0 10 46 8 11 29 47 25 34 8 11 15 48 29 47 32 49 23 32 22 31 24 33 26 35 33 50 32 51 34 52 13 53 31 54 33 55 21 56 27 57 12 58 28 37 13 23 9 14 18 24 7 9 23 59 16 21 27 36 31 44 12 17 35 60 3 5 4 6 20 45 18 24 1 1 35 61 13 62 34 63 21 64 20 45 10 46 33 55 26 65 21 56 6 12 8 11 25 34 7 9 19 26 23 59 23 59 32 66 30 67 8 11 5 10 17 43 26 38 29 40 15 68 26 38 15 68 14 69 26 38 14 69 18 28 21 30 26 38 18 28 31 70 21 64 10 46 33 71 31 44 27 36 3 5 35 60 11 16 9 72 35 61 4 73 23 59 30 67 16 21 13 18 15 20 30 74 35 61 9 72 13 62 19 26 6 8 24 75 3 5 11 16 10 15 18 24 9 14 1 1 28 37 22 31 19 26 33 71 27 36 24 75 0 0 20 45 1 1 11 76 34 77 28 37 34 77 32 49 22 31 34 77 22 31 28 37 12 58 11 76 28 37 13 53 30 78 32 51 34 77 11 76 35 79 15 48 8 11 16 42 7 9 17 22 5 7 25 34 24 33 6 12 27 36 19 26 24 75</p>
        </triangles>
      </mesh>
    </geometry>
  </library_geometries>
  <library_visual_scenes>
    <visual_scene id="scene">
      <node id="right_wrist_yaw_link">
        <instance_geometry url="#geometry">
          <bind_material>
            <technique_common>
              <instance_material symbol="scout_b2b2b2" target="#scout_b2b2b2" />
            </technique_common>
          </bind_material>
        </instance_geometry>
      </node>
    </visual_scene>
  </library_visual_scenes>
  <scene>
    <instance_visual_scene url="#scene" />
  </scene>
</COLLADA>