<?xml version='1.0' encoding='utf-8'?>
<COLLADA xmlns="http://www.collada.org/2005/11/COLLADASchema" version="1.4.1">
  <asset>
    <created>2026-09-14T00:00:00Z</created>
    <modified>2026-09-14T00:00:00Z</modified>
    <unit name="metre" meter="1" />
    <up_axis>Z_UP</up_axis>
  </asset>
  <library_effects>
    <effect id="scout_b2b2b2_effect">
      <profile_COMMON>
        <technique sid="common">
          <lambert>
            <emission>
              <color>0 0 0 1</color>
            </emission>
            <ambient>
              <color>0.35 0.35 0.35 1</color>
            </ambient>
            <diffuse>
              <color>0.7 0.7 0.7 1</color>
            </diffuse>
          </lambert>
        </technique>
      </profile_COMMON>
    </effect>
  </library_effects>
  <library_materials>
    <material id="scout_b2b2b2" name="scout_b2b2b2">
      <instance_effect url="#scout_b2b2b2_effect" />
    </material>
  </library_materials>
  <library_geometries>
    <geometry id="geometry" name="right_elbow_link">
      <mesh>
        <source id="positions">
          <float_array id="positions_array" count="120">0.00654360093 -0.0251128376 0.0296034142 -0.0136083923 -0.0240560807 0.027223805 -0.00843705516 -0.034803316 0.00872641057 -0.0244129729 -0.0276530143 -0.0187990479 -0.0124094766 -0.0240435172 -0.0274473671 0.0390524976 -0.0312902629 -0.0316100009 0.0168216377 -0.0213131718 -0.0194355864 0.0255746506 -0.0213493165 0.00641603302 0.0227866471 -0.0234003998 -0.0378339328 0.0328633934 -0.0233383551 0.0221636556 0.0462992191 -0.0196705777 -0.0415312685 0.0426380634 -0.0190040674 -0.0311328992 0.0415906943 -0.0206444394 0.0086519504 0.0493831597 0.00263393251 -0.0459962003 0.0715622902 0.0103266938 -0.0393219031 0.0696896613 -0.023489261 -0.0392774828 0.0720329061 -0.0240319744 -0.0311567932 0.0687488243 -0.0349825323 -0.015052109 0.0718092695 -0.0311698318 -0.00153191166 0.0691092983 -0.0300401896 0.0131783728 0.0980736166 -0.00155860861 -0.0405510105 0.0984934568 -0.0249660853 -0.0286091082 0.0417932943 -0.0301640872 0.0116157783 0.0476807244 -0.017362047 0.0209107902 -0.0297093019 -0.0231721811 0.00827389117 0.0668615475 0.000754409819 0.0257191304 0.0719624758 -0.0126529168 0.0183420964 0.0986631662 -0.00528915599 0.0208144449 0.0988445729 -0.0305951927 0.000355358934 0.0449561067 0.0113996295 -0.0319608003 0.0694220662 0.0296983961 -0.0236980226 0.0721905082 0.0281112473 -0.0130496575 0.0686324239 0.0269666929 0.00731335022 0.0979203284 0.0257332623 0.00416618073 0.0981161743 0.0224351753 -0.0268540215 0.0446269102 0.00867733266 0.0140019031 0.0482624397 0.00602794858 0.022080401 0.048147954 0.0278965812 0.00611134944 0.072086148 0.0166447666 0.014468601 0.0482017994 0.0290271435 -0.023633182</float_array>
          <technique_common>
            <accessor source="#positions_array" count="40" stride="3">
              <param name="X" type="float" />
              <param name="Y" type="float" />
              <param name="Z" type="float" />
            </accessor>
          </technique_common>
        </source>
        <source id="normals">
          <float_array id="normals_array" count="294">0.0270028543 -0.895342886 0.444558114 -0.26007387 -0.864708662 0.429698229 -0.20179829 -0.965068817 0.167091593 -0.239750654 -0.949962378 -0.200227559 -0.15971756 -0.810560048 -0.563455999 -0.0325341597 -0.874699712 -0.483572006 0.0257002022 0.998538971 -0.0475332029 0.133775845 0.990969002 0.00918966811 0.0372371599 0.993479967 -0.107754342 0.0447273515 0.993488848 0.10478276 -0.125504404 -0.760919392 -0.636592805 0.00622850936 -0.49213931 -0.870494187 -0.315283537 0.948854208 -0.016492784 -0.205105692 0.978039682 -0.0370138772 -0.212411344 0.977109194 -0.0117937587 -0.287054837 0.957897961 0.00557164568 0.204282627 -0.0918626115 -0.974592149 0.293684751 -0.0175188202 -0.955741763 0.138135597 -0.555235028 -0.820141792 0.940481365 -0.186855197 -0.283866107 0.864345014 -0.431318849 -0.258595794 0.899087191 -0.424856395 -0.105542831 0.909046113 -0.406613588 -0.0911075175 0.442652315 -0.884202659 0.149145976 0.0515868478 -0.98381871 0.17157945 0.0707114562 -0.993761122 -0.0862479359 0.958469987 -0.0534454733 -0.280140847 -0.0564211048 -0.328705102 -0.942745805 0.0696369633 -0.452354938 -0.889115155 -0.0409899391 -0.344548941 -0.937873065 0.0988232419 -0.868503392 0.485732287 0.262713492 -0.693296313 0.671060205 0.0584902652 -0.452346832 0.889922023 -0.377726197 0.92398721 -0.0597545765 -0.475229472 -0.862355232 0.174643785 0.00258531584 -0.217692122 0.976014078 0.0987305567 -0.442169636 0.891480982 0.95767957 -0.214239091 0.192227468 0.399416029 -0.320614219 0.858879149 0.100714326 -0.625068128 0.774045527 0.0416489877 -0.675555468 0.736131907 0.0341525413 -0.681584418 0.73094207 -0.939532399 0.221813694 -0.260916799 -0.92413801 0.116243817 -0.363945484 -0.981441438 0.0700797513 -0.178497896 -0.00233190041 0.636899829 -0.770943046 -0.00846209098 0.639575601 -0.768681586 0.0158613045 0.62877214 -0.777427793 0.9411605 0.268993109 -0.204596207 0.0290832557 0.997593462 0.0629398748 0.0550667644 0.99450779 0.089005433 0.207991809 0.973880589 0.0910823271 -0.00738262199 0.989013076 0.147643745 0.0783461109 0.836291909 -0.542658031 -0.0424708351 0.992455781 -0.115011759 -0.943587482 0.183518633 0.275614798 -0.894331336 0.101464868 0.435747981 -0.976459801 0.205321029 0.0661019757 -0.0113471597 0.580400407 0.814252138 0.00922497734 0.589736998 0.807542682 -0.00122069567 0.582279623 0.812987685 0.869504511 0.0611299425 0.490127534 -0.169178382 0.909992576 0.378539592 -0.0150497667 0.575275838 0.817821026 0.0182692725 0.573738456 0.818834782 0.888959229 0.421546876 0.179024458 0.0190588925 0.299109429 0.954028487 0.0485292189 0.331407309 0.942238867 -0.127046302 0.130535901 0.98326987 0.0129346242 0.997496426 0.0695243254 -0.0314783752 0.998785377 0.037906073 -0.174458653 0.976820886 -0.124036871 0.999877691 0.0135489199 -0.00781088043 0.999865055 0.0164252613 -0.000282905297 0.999773502 0.0172481816 -0.0124694342 -0.00485118153 0.995836079 0.0910328329 0.014170846 0.999098003 0.0400300734 -0.00857010577 0.999556124 -0.0285323597 -0.130944416 0.988804817 -0.071544528 -0.0320310593 -0.73114711 0.681467474 -0.147957757 -0.230577707 -0.961739242 -0.016302783 -0.981540143 -0.190560207 0.0126616219 -0.976708293 -0.214197621 0.00902737956 -0.977390885 -0.211247697 0.178941876 0.487522632 -0.854576766 0.0297796726 0.684610844 -0.728300154 0.036973007 -0.971578121 -0.233814001 -0.982538581 0.0624734238 0.175257072 0.999868989 0.0130433971 -0.00958579965 0.999881148 0.00788260531 -0.0132493144 -0.427575469 0.874647498 -0.228409767 -0.899585485 0.0103462841 0.436622143 -0.203772843 -0.0438385271 0.978036225 0.999923646 0.0117084058 -0.00394896697 -0.975307286 0.210759625 -0.0660001934 -0.940103292 0.06291648 -0.335033238 -0.0227568392 0.645691931 -0.763258874 0.180112183 0.468475521 0.864922106</float_array>
          <technique_common>
            <accessor source="#normals_array" count="98" stride="3">
              <param name="X" type="float" />
              <param name="Y" type="float" />
              <param name="Z" type="float" />
            </accessor>
          </technique_common>
        </source>
        <vertices id="vertices">
          <input semantic="POSITION" source="#positions" />
        </vertices>
        <triangles material="scout_b2b2b2" count="76">
          <input semantic="VERTEX" source="#vertices" offset="0" />
          <input semantic="NORMAL" source="#normals" offset="1" />
          <p>0 0 1 1 2 2 3 3 4 4 5 5 2 2 3 3 5 5 6 6 7 7 8 8 7 7 9 9 8 8 8 10 10 11 5 5 9 12 11 13 8 14 9 12 12 15 11 13 13 16 14 17 15 18 10 11 13 16 15 18 15 19 16 20 17 21 16 20 18 22 17 21 18 23 19 24 17 25 14 26 16 20 15 19 20 27 21 28 16 29 0 0 22 30 9 31 23 32 9 31 22 30 9 12 23 33 12 15 24 34 3 3 2 2 25 35 23 32 19 36 26 37 19 37 18 37 26 38 25 35 19 36 27 39 26 40 28 41 29 42 13 43 11 44 13 45 30 46 14 47 30 48 31 48 14 48 30 49 32 50 31 51 33 52 34 53 31 54 35 55 36 56 37 57 37 58 36 59 25 60 0 0 2 2 22 30 38 61 25 61 26 61 38 62 33 52 31 54 32 63 25 60 38 64 32 65 38 65 31 65 27 66 38 67 26 68 17 25 2 2 5 5 37 69 30 49 39 70 24 34 2 2 1 1 10 71 8 14 11 13 28 72 33 73 27 74 5 5 4 4 8 10 0 75 7 7 6 6 0 75 6 6 1 76 24 77 1 76 4 78 4 78 1 76 6 6 19 24 22 30 17 25 19 36 23 32 22 30 28 41 26 40 18 79 17 25 5 5 15 18 14 80 20 27 16 29 21 81 28 82 16 83 20 84 14 85 34 53 18 86 16 83 28 82 35 55 29 42 12 87 29 42 11 44 12 87 21 88 20 89 28 72 6 6 8 8 4 78 4 78 3 90 24 77 0 75 9 9 7 7 23 91 35 55 12 87 23 32 25 35 36 92 28 72 20 89 34 93 28 72 34 93 33 73 10 11 15 18 5 5 39 94 13 43 29 42 29 42 35 55 37 57 29 42 37 57 39 94 13 43 10 95 11 44 39 96 30 46 13 45 22 30 2 2 17 25 30 49 37 69 32 50 23 91 36 56 35 55 37 58 25 60 32 63 31 54 34 53 14 85 38 67 27 66 33 97</p>
        </triangles>
      </mesh>
    </geometry>
  </library_geometries>
  <library_visual_scenes>
    <visual_scene id="scene">
      <node id="right_elbow_link">
        <instance_geometry url="#geometry">
          <bind_material>
            <technique_common>
              <instance_material symbol="scout_b2b2b2" target="#scout_b2b2b2" />
            </technique_common>
          </bind_material>
        </instance_geometry>
      </node>
    </visual_scene>
  </library_visual_scenes>
  <scene>
    <instance_visual_scene url="#scene" />
  </scene>
</COLLADA>