<?xml version='1.0' encoding='utf-8'?>
<COLLADA xmlns="http://www.collada.org/2005/11/COLLADASchema" version="1.4.1">
  <asset>
    <created>2026-09-14T00:00:00Z</created>
    <modified>2026-09-14T00:00:00Z</modified>
    <unit name="metre" meter="1" />
    <up_axis>Z_UP</up_axis>
  </asset>
  <library_effects>
    <effect id="scout_b2b2b2_effect">
      <profile_COMMON>
        <technique sid="common">
          <lambert>
            <emission>
              <color>0 0 0 1</color>
            </emission>
            <ambient>
              <color>0.35 0.35 0.35 1</color>
            </ambient>
            <diffuse>
              <color>0.7 0.7 0.7 1</color>
            </diffuse>
          </lambert>
        </technique>
      </profile_COMMON>
    </effect>
  </library_effects>
  <library_materials>
    <material id="scout_b2b2b2" name="scout_b2b2b2">
      <instance_effect url="#scout_b2b2b2_effect" />
    </material>
  </library_materials>
  <library_geometries>
    <geometry id="geometry" name="right_hand_palm_link">
      <mesh>
        <source id="positions">
          <float_array id="positions_array" count="183">0.0718439221 0.0138776898 0.0149463676 0.0902310684 -0.000219392809 0.0385445692 0.0854821503 0.0103334049 0.0189935993 0.0276649166 -0.0205868222 -0.023715483 0.00163563865 -0.0193022937 -0.00564856688 0.00122432504 -0.0115380585 -0.0221118387 0.0327396654 -0.0143731674 -0.0387266651 0.00188142876 0.00658368226 -0.0249065198 0.0756203681 -0.0202775039 -0.0294955932 0.0697289407 -0.0127623538 -0.0434691049 0.0699189156 -0.0104689663 -0.0381807834 0.0693791881 -0.0118284244 -0.0412892662 0.0516884178 -0.0122078862 -0.039869383 0.0690690428 -0.0187510643 -0.0235016048 0.0464911051 0.0185065623 0.0184576828 0.0693435818 0.0179337859 0.0378361084 0.066695556 0.0183360856 -0.0165911671 0.0532669313 0.0185997989 -0.0065919715 0.0810482353 -0.0160975698 -0.0269649606 0.0813158378 -0.0098004099 -0.037251886 0.0832683146 -0.010019741 -0.0214544795 0.0838865936 -0.0136162359 -0.0279350597 0.0164774489 0.019073464 -0.0221040994 0.039794825 0.0194146559 -0.0154104391 0.0479515381 0.0163584929 -0.0373387113 0.0839152187 -0.0101934196 0.0226120651 0.01442964 0.00990750734 0.0296101719 0.000842558802 -0.00463815266 0.0251394026 0.00104295788 -0.013646855 0.0210113898 0.0289726611 -0.0205261372 0.0237031281 0.0335300565 -0.0138792899 0.0396135747 0.0720292255 0.014563757 -0.0153029552 0.0854092017 0.0103636989 -0.0189936496 0.0853780508 0.010295352 -0.0377614759 0.0726243034 -0.0212084763 0.0279667322 0.0693574026 -0.0130366478 0.0390156135 0.0773756057 -0.0177654754 0.0287465882 0.06965103 -0.0195379667 0.0192107428 0.0519251786 -0.0121424524 0.0399295837 0.0703763291 -0.0108175287 0.0416899994 0.070738025 0.0114793684 0.0431836694 0.0708782673 -0.0134569239 0.0427903719 0.0714194104 -0.0103894733 0.0378205217 0.0817078501 -0.017848121 0.027132662 0.0391069539 0.0136857852 0.0389088541 0.00158379576 0.0177421514 -0.0172797926 0.0833757967 -0.00971682742 -0.011903543 0.082309559 0.00021071505 -0.0113654966 0.0851800591 -0.00675744237 0.012559996 0.0113063278 0.0188798252 0.0151631059 0.00166037783 0.0169166308 0.0206216741 0.0352537632 0.00992243644 -0.0390436798 0.0694343522 0.0141665395 -0.0391976945 0.0711088404 0.0155899953 -0.0433002003 0.0812328011 0.000151559419 0.0110113211 0.0730588511 0.0100649809 -0.0125449449 0.0227243267 0.0181504432 0.0259490665 0.0408970341 0.0192708299 0.0115969814 0.0718902573 0.00921280775 0.0129812537 0.0518000871 0.0105382204 0.0397465006 0.0485990122 0.0055073495 -0.0396523811</float_array>
          <technique_common>
            <accessor source="#positions_array" count="61" stride="3">
              <param name="X" type="float" />
              <param name="Y" type="float" />
              <param name="Z" type="float" />
            </accessor>
          </technique_common>
        </source>
        <source id="normals">
          <float_array id="normals_array" count="495">0.348916292 0.898875892 0.265102983 0.422775328 0.884167671 0.198767453 0.0951422453 0.885479212 0.45483458 -0.143336073 -0.957930982 -0.248642251 -0.184716836 -0.979370952 -0.0819278583 -0.317365855 -0.854449332 -0.411333442 -0.122195803 -0.896878958 -0.425060362 -0.410539448 0.259467959 -0.874147475 -0.281197965 -0.00592601439 -0.959631503 -0.47138074 -0.117699474 -0.874040663 0.343910307 -0.889618993 -0.300505757 -0.021312438 -0.88422972 -0.466565669 -0.0512138531 0.918243527 -0.392690629 0.971882463 -0.224667266 -0.0704917014 0.0089063542 0.995100081 0.0984708518 0.678520858 0.729490936 0.0863275081 0.231904954 0.972058356 -0.0363677628 0.0433896072 0.998934567 0.0157187209 0.579924762 0.778379917 -0.240441248 -0.169667006 0.972690225 0.158388078 -0.160496593 0.96785748 0.193630531 -0.101621374 0.927685499 0.359266996 -0.021454785 0.917512774 -0.397127241 -0.437268198 -0.819245279 0.370990217 0.43720454 -0.783517241 -0.441534758 0.603169858 -0.748968482 -0.274285257 0.52157104 -0.681879461 -0.512839258 -0.827828705 -0.179492429 0.531490445 -0.0329339579 0.998996675 -0.0303470008 0.0210490264 0.998379469 -0.052870743 0.0211370122 0.992843926 -0.117533915 0.988070309 -0.0921389759 -0.123399556 0.994731486 0.0927343741 -0.0436987206 0.94950527 0.300994903 -0.0885540619 0.967503607 -0.252315849 0.0165377334 0.142143846 -0.409728408 0.901064813 -0.124032818 -0.966590405 0.224318594 -0.254275322 -0.933669806 0.252199888 -0.111923337 -0.900322139 0.420586705 0.271137983 0.962295115 -0.0217330847 0.298497468 0.954402149 -0.0039711115 0.259375781 0.965331852 -0.0293014366 0.167398304 -0.955245495 0.243893057 -0.0984419137 0.817130983 -0.567984223 0.025584694 0.969854832 -0.242336631 -0.151576981 0.986747384 -0.0579141229 0.00586971501 0.768455744 -0.639876008 -0.095923461 0.783673644 -0.613721669 0.919765234 0.0113607422 -0.39230448 0.14030461 0.0246116575 -0.98980242 0.0901428983 0.0651123449 -0.993798077 0.130751297 0.032369554 -0.990886629 0.915383101 0.290348738 0.278875262 -0.172237217 -0.972933769 -0.154059067 0.507366717 -0.791449606 0.34086147 0.69808507 -0.666606843 0.261366665 0.814362407 -0.547720969 0.191873863 -0.782467842 0.622023344 -0.0288276616 -0.916907132 0.399062663 0.0054989527 -0.768951654 0.638526797 -0.0315746628 -0.796086192 0.236099988 -0.557228506 0.377092868 -0.908592939 0.179610103 0.0636504218 -0.881260872 0.468324602 0.830496669 0.0855669901 0.550412238 -0.440886855 0.784457684 0.436170727 -0.943541169 0.330908418 0.015155592 -0.103129499 0.0112942262 0.994603813 -0.231172845 0.0715761483 0.970276237 -0.292888135 0.0297539774 0.955683649 -0.303580195 0.53211695 -0.790373683 -0.336348891 0.589336812 -0.734541774 0.990051091 0.111019582 -0.0864494368 0.906855047 0.421214163 0.013874691 0.884451389 0.466554403 0.00852895062 -0.0937607065 0.993234932 0.0685076043 -0.106527843 0.994305372 -0.00294284173 -0.151947692 0.984672129 0.0856310874 -0.272230029 0.344470531 -0.898460269 -0.204702079 0.607230604 -0.767703056 0.0898768827 -0.0393113792 -0.995176733 0.0587112568 -0.0140826777 -0.998175681 0.0694362596 -0.0273928363 -0.997210205 -0.185622782 0.576931536 -0.795420766 0.104101919 0.990576684 -0.0889982134 0.981048703 -0.0198399089 0.192743003 0.933702409 -0.0461061485 0.355069101 0.98620522 -0.015353323 0.164813623 0.930457711 -0.0474494323 0.363313854 -0.708900452 -0.703527927 -0.0500865504 -0.717968464 -0.694731414 -0.0432384536 -0.726389885 -0.686298728 -0.036767751 0.988050938 -0.144861057 -0.0526363216 -0.407791853 0.342506915 0.846401095 -0.489927351 0.19659701 0.849306047 -0.35505408 0.484861344 0.799278498 -0.312858075 0.630372405 0.710457921 -0.352613181 0.652668536 0.670587599 0.00272996654 0.990216434 0.139513254 0.0355196856 0.998491287 0.0418744944 0.872619152 0.488322258 0.00878876634 -0.0311934222 0.975307286 0.218638092 -0.0608691797 0.62897718 0.775037229 -0.180820733 -0.383342505 0.905733049 -0.83506757 -0.518386364 -0.184221923 -0.87654531 -0.474615365 -0.0800536871 -0.872842729 -0.482904404 0.070348613 0.9466362 -0.12465626 -0.29722175 -0.999989331 0.00457578106 0.000646597298 -0.999797344 0.0104708923 -0.0171950459 -0.999584794 0.0266708881 -0.0109063871 -0.999617159 -0.0276322272 0.00141793513 0.528461218 0.843916833 0.0923745483 -0.99995935 0.00219498505 -0.00874307565 -0.999722779 -0.0133527648 -0.019392401 -0.99804014 0.0431749746 0.0452964641 0.991726995 -0.119222254 -0.0475779511 0.981320381 -0.049760066 -0.185833812 0.994857907 -0.0995845944 0.0184562728 0.993650854 -0.0562825873 0.0974180028 -0.12768051 0.012122266 -0.99174124 -0.124031663 0.007372119 -0.99225086 -0.981523037 -0.191108525 -0.00949040987 0.964360952 0.257775754 0.0596627444 0.149190962 -0.231130674 0.961415946 0.643283844 -0.163395017 0.747989237 0.479371518 -0.194915563 0.855693221 -0.701172352 -0.710802674 -0.0558293685 0.0895708427 -0.234592751 0.967958331 -0.993405342 -0.104088709 -0.0480771847 0.0820973143 -0.0401480421 -0.995815337 0.0796738043 -0.0413612165 -0.995962501 -0.496799856 -0.0342304371 0.867189825 -0.442405969 0.0217941813 0.896550059 0.239319831 0.97002697 -0.0421145707 0.822784424 0.566553712 0.0451967008 0.178908795 -0.00695506996 -0.983841062 0.5834077 -0.772075236 0.252062142 0.963413179 -0.267444462 0.0175644904 0.937918305 0.00202130922 -0.346850306 0.0155973211 0.0149666863 -0.99976635 0.0423906147 -0.0434354357 0.998156488 0.0384510979 -0.0481523275 0.998099625 0.07996694 0.00173540867 0.996796012 -0.481989473 -0.535471916 -0.693509936 0.0115889432 -0.0802204981 0.996709764 -0.0833376125 -0.0928260982 0.992188573 0.0527835339 0.00835179072 0.998571038 -0.0464731865 -0.0655134395 0.996768892 -0.168885961 -0.155949861 0.973219991 0.574756742 -0.816865742 -0.0488369502 0.994544625 -0.104304105 -0.0012709013 0.222262204 -0.139834434 0.964907169 0.141001195 -0.179175854 0.973660469 0.0587454624 -0.216969058 0.974409282 0.007349452 -0.239575714 0.970849872 0.337229341 0.941131413 0.0234111156 0.521725357 -0.755584121 -0.396100074 -0.0845600739 -0.0161891039 0.996286869 0.44998166 -0.817622006 0.359180629 0.989536762 -0.0475553684 0.136218697 0.234762371 -0.186104015 -0.954071224 0.295916975 -0.151927441 -0.943054199 0.267297775 -0.168120399 -0.948834777 0.315782875 -0.140474871 -0.938375175 0.840657353 0.541286886 0.0174263772</float_array>
          <technique_common>
            <accessor source="#normals_array" count="165" stride="3">
              <param name="X" type="float" />
              <param name="Y" type="float" />
              <param name="Z" type="float" />
            </accessor>
          </technique_common>
        </source>
        <vertices id="vertices">
          <input semantic="POSITION" source="#positions" />
        </vertices>
        <triangles material="scout_b2b2b2" count="126">
          <input semantic="VERTEX" source="#vertices" offset="0" />
          <input semantic="NORMAL" source="#normals" offset="1" />
          <p>0 0 1 1 2 2 3 3 4 4 5 5 6 6 3 3 5 5 7 7 6 8 5 9 8 10 6 6 9 11 10 12 11 12 12 12 10 13 13 13 11 13 14 14 15 15 16 16 17 17 14 14 16 16 9 18 11 18 18 18 13 19 18 20 11 21 10 22 19 22 9 22 20 23 10 23 9 23 19 24 21 25 9 26 21 25 8 10 9 26 20 27 9 27 18 27 22 28 23 29 24 30 19 31 20 32 21 33 20 32 25 34 21 33 26 35 27 35 28 35 29 36 28 37 4 4 30 38 28 37 29 36 31 39 32 40 33 41 34 42 30 38 29 36 35 43 36 44 37 45 38 46 39 47 35 43 39 48 40 48 41 48 40 49 39 50 38 51 35 43 39 47 36 44 39 52 41 52 42 52 42 53 25 53 39 53 37 54 42 55 35 56 25 57 18 58 36 59 39 60 25 60 36 60 43 61 41 62 34 42 25 63 41 63 43 63 1 64 42 64 41 64 20 65 18 58 25 57 40 66 44 67 30 68 45 69 22 70 7 7 46 71 47 72 48 73 49 74 45 75 50 76 22 70 51 77 7 7 22 70 24 78 51 77 10 79 12 80 52 81 24 78 53 82 51 77 23 29 16 16 24 30 23 29 17 17 16 16 16 16 53 83 24 30 9 84 52 85 11 86 53 87 52 85 9 84 54 88 55 89 47 90 33 91 20 32 19 31 50 92 27 93 26 94 56 95 50 92 26 94 56 95 26 94 44 96 56 97 57 98 49 74 53 83 15 15 0 99 44 100 14 14 56 97 44 100 15 15 14 14 15 101 44 101 40 101 13 19 37 45 18 20 0 102 58 102 54 102 0 103 54 104 48 105 2 106 1 106 25 106 8 10 43 61 34 42 7 107 27 108 50 109 7 107 50 109 45 110 0 0 40 111 1 1 27 108 7 107 4 112 28 113 27 108 4 112 7 107 5 114 4 112 16 16 15 15 53 83 13 115 55 116 37 117 55 116 58 118 37 117 36 44 18 20 37 45 9 119 6 8 53 120 46 121 48 105 54 104 8 10 3 3 6 6 40 122 0 99 15 15 40 123 35 124 42 125 54 88 58 126 55 89 14 14 17 17 57 98 23 29 57 98 17 17 40 123 42 125 1 127 54 104 47 128 46 121 19 129 10 79 52 81 52 81 33 130 19 129 28 131 30 68 26 132 33 41 52 133 31 39 49 74 22 28 45 75 41 62 30 38 34 42 48 73 47 72 31 134 38 51 59 135 40 49 3 3 34 42 4 4 1 136 41 136 25 136 43 137 21 33 25 34 3 3 8 10 34 42 6 8 7 7 51 77 49 74 57 98 23 29 49 74 23 29 22 28 13 115 31 138 55 116 49 74 50 76 56 97 52 81 12 80 60 139 11 140 60 141 12 142 55 143 31 143 47 143 11 140 52 144 60 141 29 36 4 4 34 42 59 145 38 146 35 147 59 145 35 147 40 148 53 149 31 149 52 149 6 8 51 77 53 120 33 91 32 150 20 32 32 151 31 152 20 153 20 153 31 152 13 154 44 67 26 132 30 68 57 98 56 97 14 14 0 155 31 155 53 155 10 156 20 156 13 156 40 66 30 68 41 157 42 55 37 54 25 158 0 159 37 117 58 118 2 160 25 161 0 162 0 162 25 161 37 163 43 61 8 10 21 25 0 164 48 73 31 134</p>
        </triangles>
      </mesh>
    </geometry>
  </library_geometries>
  <library_visual_scenes>
    <visual_scene id="scene">
      <node id="right_hand_palm_link">
        <instance_geometry url="#geometry">
          <bind_material>
            <technique_common>
              <instance_material symbol="scout_b2b2b2" target="#scout_b2b2b2" />
            </technique_common>
          </bind_material>
        </instance_geometry>
      </node>
    </visual_scene>
  </library_visual_scenes>
  <scene>
    <instance_visual_scene url="#scene" />
  </scene>
</COLLADA>