<?xml version='1.0' encoding='utf-8'?>
<COLLADA xmlns="http://www.collada.org/2005/11/COLLADASchema" version="1.4.1">
  <asset>
    <created>2026-09-14T00:00:00Z</created>
    <modified>2026-09-14T00:00:00Z</modified>
    <unit name="metre" meter="1" />
    <up_axis>Z_UP</up_axis>
  </asset>
  <library_effects>
    <effect id="scout_b2b2b2_effect">
      <profile_COMMON>
        <technique sid="common">
          <lambert>
            <emission>
              <color>0 0 0 1</color>
            </emission>
            <ambient>
              <color>0.35 0.35 0.35 1</color>
            </ambient>
            <diffuse>
              <color>0.7 0.7 0.7 1</color>
            </diffuse>
          </lambert>
        </technique>
      </profile_COMMON>
    </effect>
  </library_effects>
  <library_materials>
    <material id="scout_b2b2b2" name="scout_b2b2b2">
      <instance_effect url="#scout_b2b2b2_effect" />
    </material>
  </library_materials>
  <library_geometries>
    <geometry id="geometry" name="right_shoulder_roll_link">
      <mesh>
        <source id="positions">
          <float_array id="positions_array" count="141">0.0405435339 0.0164033435 -0.00723310839 0.0398859158 -0.0114753554 0.0204580501 0.0406754129 -0.0135389827 -0.0122336671 0.034034688 -0.0265395809 0.0219550952 -0.0340368375 -0.0191621725 0.0281730946 -0.0341211967 -0.0327550955 0.0128492648 -0.039855212 -0.0249636862 -0.00441978918 -0.0398082323 -0.00717292959 0.0220208541 -0.0397612005 0.0216488838 0.00743969576 3.91194917e-05 -0.0399513878 -0.0319395624 0.033882048 -0.0374668911 -0.0073884204 -0.0334635265 -0.0376056023 -0.00716091786 0.0341325104 -0.0346526988 0.00708732987 0.0333318487 0.000474818138 -0.0672359765 0.0389825143 0.0240637399 0.00599288661 0.0396269783 0.0106888404 0.0218827035 0.0319324471 -0.0192744751 -0.0673925355 0.0245251711 -0.00581943709 -0.103218608 -0.00900342129 -0.0296888463 -0.103212953 -0.0223408397 0.00307491212 -0.103204384 0.0174631216 0.0111606838 -0.103198655 0.0350629762 0.03249906 -0.00404995959 0.03409601 0.0316949226 0.0093391547 0.0396671444 -0.0232925992 0.00802122802 0.0151035842 -0.0262252968 -0.103217609 0.0340585895 0.0259769838 0.0206612907 0.034015853 0.0146809947 0.0301424954 0.0340520144 0.00163509801 0.0333889052 0.0231064465 -0.0330416113 -0.0671873093 0.0340461582 -0.0114656659 0.0317623354 3.78271798e-05 0.0256984308 -0.0767040178 -0.0340511613 -0.00173656084 0.0336498693 -0.0387325585 0.00763611309 0.0247464497 0.00985781942 -0.0396481194 -0.0675298572 0.00336918328 0.0177045297 -0.103201911 -0.0341314226 0.0323710963 0.00728474697 -0.0342302434 0.025771575 0.0208572447 -0.0340085253 0.0145550128 0.0302058216 -0.00909800455 -0.0395331234 -0.067357704 -0.0111174183 0.0156164644 -0.103214256 -0.0216816366 -0.0346107483 -0.0666475296 -0.0351919085 0.0319825336 -0.00557107199 -0.0237364247 -0.0121964449 -0.103213526 -0.0330227129 -0.0161283668 -0.068024762 -0.0323590413 0.00297959242 -0.067619361 -0.0378710479 -0.0256747026 0.0132584795 -0.0402180888 0.0156121161 -0.0125027904</float_array>
          <technique_common>
            <accessor source="#positions_array" count="47" stride="3">
              <param name="X" type="float" />
              <param name="Y" type="float" />
              <param name="Z" type="float" />
            </accessor>
          </technique_common>
        </source>
        <source id="normals">
          <float_array id="normals_array" count="213">0.980064452 0.178484663 -0.0872751474 0.955646455 -0.12773326 0.265375346 0.989483953 -0.1225949 -0.0767593756 0.0136013059 -0.734398305 0.678582489 -0.0159489661 -0.542792439 0.839715421 -0.0116541926 -0.887094378 0.461440951 -0.966945946 -0.253821254 -0.0242968276 -0.961306512 -0.0864272118 0.261572301 -0.961160183 0.25842312 0.0968947858 -1.64811408e-05 -0.999457836 0.0329249389 0.588583887 -0.808147192 0.0216137264 -0.0402917899 -0.989622176 0.137929261 0.00814757589 -0.942043781 0.335391104 0.958043635 0.183552355 -0.220138535 0.941242218 0.325337201 0.090657331 0.948218763 0.142218053 0.283998519 0.92566216 -0.309034944 -0.218281761 0.950424731 -0.0028302155 -0.310941786 -4.43390927e-05 0.000373385177 -0.99999994 0.000340586528 1.9581832e-05 -0.99999994 -0.000240789581 0.00040774353 -0.999999881 0.912534416 0.397491157 -0.0963415951 0.862031281 0.477723539 0.169358492 0.956238985 -0.274746567 0.100604691 0.880673349 -0.34892717 0.320412725 0.562526405 -0.750620961 -0.34660086 0.878909349 0.392362505 -0.27123785 0.881381869 0.372721642 0.290249139 0.853042364 0.235767484 0.465545237 0.888640225 0.0116776349 0.458456308 0.886280477 -0.442924291 0.135369807 0.648413539 -0.728020668 -0.222588852 0.878715158 -0.147249192 0.454067558 0.387351364 0.891616285 -0.234476805 0.0325088575 0.971712589 -0.233918309 0.0382405967 0.998657942 -0.0349282436 -0.868443191 -0.0318829194 0.49476251 -0.932181835 0.122799501 0.340525031 0.202531129 -0.96436733 -0.17022565 0.16994071 0.949161053 -0.264978319 -0.33189705 -0.877523661 -0.346116453 -0.0020576762 0.784978271 0.619519889 -0.00359485322 0.978591442 0.205781043 -0.000931157148 0.787533879 0.616270661 0.000318985753 0.453920066 0.891042352 -0.00313471328 0.438965917 0.898498237 0.0114213461 -0.340695262 0.940104425 -0.172029793 -0.972864747 -0.154725268 -0.455490381 0.840590477 -0.293148637 0.00457489071 0.0630372241 0.998000681 -0.010303854 -0.0451105721 0.998928845 -0.617605269 -0.755761921 -0.217687011 -0.583504856 0.805856228 -0.100587711 -0.914015591 -0.264910132 -0.307242721 -0.880693972 0.378235519 -0.285159737 -0.943444312 -0.249411613 -0.218418643 -0.948209703 0.226468831 -0.222733632 -0.877446651 0.4625462 0.12703675 -0.895240009 0.342084289 0.285523564 -0.912294805 -0.344074726 0.222105354 -0.864284337 -0.466483831 0.188163295 -0.878550231 -0.25435856 0.404290944 -0.889401317 -0.452288419 -0.0663358867 -0.862859726 0.236787394 0.446547717 -0.979420543 0.169990987 -0.108804941 -0.000647121225 0.000670838577 -0.999999583 -0.000198844777 4.31202352e-05 -1 0.000677752774 0.000536823121 -0.999999642 0.00110732799 -0.0017792912 -0.999997795 0.000306851754 -0.000371085218 -0.999999881 0.00173276803 0.965540767 0.260245979</float_array>
          <technique_common>
            <accessor source="#normals_array" count="71" stride="3">
              <param name="X" type="float" />
              <param name="Y" type="float" />
              <param name="Z" type="float" />
            </accessor>
          </technique_common>
        </source>
        <vertices id="vertices">
          <input semantic="POSITION" source="#positions" />
        </vertices>
        <triangles material="scout_b2b2b2" count="90">
          <input semantic="VERTEX" source="#vertices" offset="0" />
          <input semantic="NORMAL" source="#normals" offset="1" />
          <p>0 0 1 1 2 2 3 3 4 4 5 5 6 6 7 7 8 8 9 9 10 10 11 11 3 3 5 5 12 12 13 13 0 0 2 2 14 14 15 15 0 0 16 16 13 13 2 2 17 17 13 13 16 16 18 18 19 19 20 20 21 21 22 22 14 14 10 10 2 2 23 23 1 1 3 24 23 23 16 16 2 2 10 10 16 16 24 25 17 17 20 26 13 13 17 17 13 13 21 21 0 0 22 22 25 27 14 14 25 27 15 15 14 14 25 27 26 28 15 15 26 28 27 29 15 15 3 24 12 30 23 23 12 30 10 10 23 23 16 16 28 31 24 25 21 21 13 13 20 26 29 32 3 24 1 1 28 31 16 16 10 10 20 33 30 34 21 35 7 7 31 36 32 37 28 31 33 38 24 25 34 39 30 34 20 33 33 38 18 40 24 25 10 10 33 38 28 31 25 41 35 42 36 43 26 44 36 43 37 45 12 12 11 11 10 10 4 4 3 3 29 46 33 38 38 47 18 40 39 48 30 34 34 39 27 49 37 45 31 50 29 46 31 50 4 4 38 47 40 51 18 40 10 10 9 9 33 38 33 38 9 9 38 47 1 1 27 29 29 32 38 47 11 11 40 51 9 9 11 11 38 47 41 52 30 34 39 48 40 51 42 53 18 40 19 54 41 52 39 48 40 51 43 55 42 53 44 56 41 52 19 54 41 52 8 8 35 57 8 8 36 58 35 57 45 59 5 60 4 61 31 36 7 7 4 61 5 60 6 6 11 62 40 51 11 62 43 55 11 62 6 6 43 55 42 53 44 56 19 54 21 35 30 34 41 52 36 58 32 37 37 63 32 37 31 36 37 63 4 61 7 7 45 59 45 59 6 6 5 60 43 55 44 56 42 53 46 64 41 52 44 56 8 8 41 52 46 64 7 7 6 6 45 59 46 64 44 56 43 55 6 6 46 64 43 55 8 8 7 7 32 37 21 21 14 14 0 0 1 1 0 0 15 15 8 8 46 64 6 6 8 8 32 37 36 58 20 20 17 65 18 18 17 65 24 66 18 18 42 67 19 19 18 18 19 19 39 68 34 69 19 19 34 69 20 20 25 41 22 70 35 42 26 44 25 41 36 43 12 12 5 5 11 11 23 23 2 2 1 1 27 49 26 44 37 45 29 46 27 49 31 50 1 1 15 15 27 29 41 52 35 42 21 35 22 70 21 35 35 42</p>
        </triangles>
      </mesh>
    </geometry>
  </library_geometries>
  <library_visual_scenes>
    <visual_scene id="scene">
      <node id="right_shoulder_roll_link">
        <instance_geometry url="#geometry">
          <bind_material>
            <technique_common>
              <instance_material symbol="scout_b2b2b2" target="#scout_b2b2b2" />
            </technique_common>
          </bind_material>
        </instance_geometry>
      </node>
    </visual_scene>
  </library_visual_scenes>
  <scene>
    <instance_visual_scene url="#scene" />
  </scene>
</COLLADA>