<?xml version='1.0' encoding='utf-8'?>
<COLLADA xmlns="http://www.collada.org/2005/11/COLLADASchema" version="1.4.1">
  <asset>
    <created>2026-09-14T00:00:00Z</created>
    <modified>2026-09-14T00:00:00Z</modified>
    <unit name="metre" meter="1" />
    <up_axis>Z_UP</up_axis>
  </asset>
  <library_effects>
    <effect id="scout_b2b2b2_effect">
      <profile_COMMON>
        <technique sid="common">
          <lambert>
            <emission>
              <color>0 0 0 1</color>
            </emission>
            <ambient>
              <color>0.35 0.35 0.35 1</color>
            </ambient>
            <diffuse>
              <color>0.7 0.7 0.7 1</color>
            </diffuse>
          </lambert>
        </technique>
      </profile_COMMON>
    </effect>
  </library_effects>
  <library_materials>
    <material id="scout_b2b2b2" name="scout_b2b2b2">
      <instance_effect url="#scout_b2b2b2_effect" />
    </material>
  </library_materials>
  <library_geometries>
    <geometry id="geometry" name="right_knee_link">
      <mesh>
        <source id="positions">
          <float_array id="positions_array" count="342">0.0615510754 -0.00788471755 -0.0435060449 0.0636636764 0.00822435878 0.0162989516 0.0638339892 -0.0053703771 0.0166893974 0.0101424847 -0.0178137589 0.0389046445 0.0154903466 -0.0278222021 0.0367801115 0.0593905747 0.0135662211 -0.0712680221 0.0576015674 0.00267754635 -0.110443391 0.0629041046 0.0121533414 0.0156491306 0.0622282624 0.0162517931 0.0104773287 0.0191152077 -0.0321208425 0.0327624753 0.0628276244 -0.0128788492 0.0151914004 0.0612073876 -0.0196657777 -0.000963792903 0.0555136651 -0.00760382833 -0.130966336 0.054736089 0.0159916785 -0.125843138 0.0585422181 0.0268981289 -0.027058376 0.05615988 0.0286391228 -0.0655157641 -0.000340476719 -0.0171623304 0.0399874188 -0.000829539786 -0.0273509677 0.0399706587 0.00808331184 -0.0279466473 0.0390120894 -0.0114265876 -0.0157274436 -0.304785043 -0.0109241838 -0.0170945488 -0.303969234 -0.0333221518 -0.0239444859 -0.155174717 0.0108409366 -0.0337213017 0.0339085385 0.00748652685 -0.0318381861 0.0372444391 0.0622833855 -0.0155781088 0.0119074844 0.0581508055 -0.0274232142 -0.0278674066 0.0568052679 -0.0271653719 -0.0644956082 0.0556519441 -0.0171490964 -0.113853291 0.0535469204 0.00297278212 -0.152774677 0.0533898287 0.0321440697 -0.0354010463 0.0620492138 0.0146741634 0.0139839463 -0.00920930784 -0.0168731492 0.0388876535 -0.015170034 -0.0345820561 0.0273190662 0.0084720077 -0.0345659629 0.0296648126 -0.00481737778 -0.0337528363 0.0350284278 0.0253826231 -0.0336534902 0.0252734032 0.0250045974 -0.0345924236 0.0182708725 -0.00520137511 -0.0320450552 0.0376196578 0.0555150211 -0.0306305643 -0.0336129032 0.0539765246 -0.0303551573 -0.0766084418 0.0525506921 0.0269502699 -0.117880538 0.0325626619 0.0170284342 -0.307432294 0.0441285707 0.0345628373 -0.0401257947 -0.0218864977 0.035298422 -0.0517722331 -0.019818984 -0.0156996176 0.0335791036 -0.0196882989 -0.0173987858 0.0349001028 -0.0109949093 -0.0274279304 0.0383917764 0.0495685637 -0.0337317772 -0.0386683792 0.0320549197 -0.033893384 0.0151514895 -0.0211600047 -0.0316853821 0.0319037512 -0.0187800266 -0.0273716245 0.0351772569 -0.0222130921 -0.0337570347 0.0279656164 0.0527170412 -0.0269129816 -0.115749739 0.0496021062 -0.0304212868 -0.122857779 -0.0337384269 -0.0142714856 -0.168367684 -0.0398440324 -0.0177238341 0.00345380185 -0.0363742597 0.0163247529 -0.102174006 -0.0185236074 -0.0358092934 -0.0960232764 0.0506649613 -0.0328543037 -0.0798386708 0.0321106911 -0.0178485308 -0.309388965 0.0303041823 0.0172005817 -0.311947614 0.0512733348 0.0299221259 -0.114302687 0.0512582995 0.032694459 -0.0776117891 0.045031637 0.0347375982 -0.07084658 -0.030655086 0.0349334143 -0.0569010153 -0.0285802409 -0.0170699432 0.0278532915 0.0289666634 -0.0178877953 -0.313143253 0.0413080454 0.0333119668 -0.135060355 0.0465344451 0.0312422924 -0.136299834 0.0296768844 0.0354001187 -0.100140259 -0.0343100242 -0.0173248891 0.0203751698 -0.0251491405 -0.0279108491 0.030826414 -0.0283357631 -0.0345966741 0.0105570108 -0.0158408228 -0.0352691635 -0.133166522 0.0360475257 -0.0350533836 -0.104789667 0.0299489331 -0.0342918038 -0.136652902 0.0452196375 -0.0347219929 -0.0697077289 0.0412274636 -0.0334882364 -0.131670877 0.0452244096 -0.0316016935 -0.137999147 0.0247168038 -0.0177304242 -0.315030158 0.0245779101 0.0172128286 -0.315036863 0.00437173108 0.0190775506 -0.310207278 0.0300466102 0.0343307443 -0.136775777 0.0364401974 0.0346951559 -0.120501667 -0.0155431619 0.0358824432 -0.114754781 -0.0319399871 -0.0342495702 -0.100989424 -0.0348230936 -0.0341322012 -0.0813261718 -0.034093231 0.0346047692 -0.0638646036 -0.0375819653 -0.0177340172 0.0137064354 -0.0365165658 -0.0274487212 0.0159779321 -0.0310663097 -0.0272261165 0.0250344425 -0.0338440388 -0.0338530578 0.00990028959 -0.0192997772 0.0353521705 -0.130941764 -0.0324016325 0.0343662426 -0.0989753902 -0.039039515 -0.0295142774 0.00472219847 -0.0328680575 -0.0318928771 0.0191630274 -0.0218302961 -0.0350692421 -0.126624838 -0.00735616358 -0.0175621752 -0.308654338 0.00553851342 -0.0190804005 -0.309563875 -0.00225615012 -0.0181263313 -0.311050236 -0.00317780511 -0.0165090952 -0.31180954 -0.00430814829 0.0163180884 -0.311599731 -0.00199158536 0.018041499 -0.311407506 -0.03533452 0.0343911089 -0.0716854408 -0.0398712493 -0.0254461095 0.00335771451 -0.0372654572 -0.0323053449 0.00458531734 -0.0109021468 0.0171721131 -0.30399853 -0.00733281579 0.0176598597 -0.308645368 -0.0351603664 0.034246102 -0.0780579969 -0.03300111 0.0247190464 -0.144216284 -0.00741900643 -0.0161283445 -0.309811354 -0.0114553142 0.0158173144 -0.30467096 -0.0336054638 -0.00152180973 -0.173371911 -0.00867778901 0.015954271 -0.308654338</float_array>
          <technique_common>
            <accessor source="#positions_array" count="114" stride="3">
              <param name="X" type="float" />
              <param name="Y" type="float" />
              <param name="Z" type="float" />
            </accessor>
          </technique_common>
        </source>
        <source id="normals">
          <float_array id="normals_array" count="399">0.995910227 -0.0764249936 -0.0481871814 0.996107459 0.0829594731 -0.029793309 0.998028696 -0.0516206026 -0.0356940813 0.325208068 0.143071488 0.934756815 0.206392691 0.194702923 0.958901882 0.411990941 -0.0669742301 0.908723235 0.360620528 -0.257120669 0.896572232 0.989042401 0.135397151 -0.0588454045 0.996656537 0.0288282037 -0.0764506906 0.152337834 0.434232146 0.887826324 0.982166529 0.187907055 -0.00631505484 0.971893251 0.229028791 0.0544911176 0.372297138 -0.670818508 0.641402602 0.509438455 -0.453352541 0.731398642 0.990191758 -0.135844111 -0.0326596238 0.985815465 -0.163933709 -0.0359662957 0.989281297 -0.103785008 -0.102719098 0.976557791 0.191364214 -0.0985625163 0.8276577 0.557980597 0.060335286 0.861823618 0.505202651 -0.045058541 -0.0218229648 0.350961059 0.936135709 -0.0146266157 -0.216041788 0.97627455 0.183308721 -0.235783935 0.954360425 -0.883871913 -0.243064657 -0.399612278 -0.637408793 -0.735224247 -0.230554536 -0.878256559 -0.467207223 -0.101896204 0.135307774 -0.899251342 0.415979296 0.124806039 -0.652143002 0.747751951 0.986512244 -0.160637215 -0.031453073 0.834023774 -0.549291253 0.0518022403 0.917829216 -0.394104719 -0.0476550423 0.977124274 -0.195132777 -0.0845659375 0.992006898 0.0409881733 -0.119340844 0.423992753 0.896442592 0.128921643 -0.055337619 0.920761585 0.386181086 0.855789483 0.454025745 0.247961566 -0.224788949 0.447897732 0.865365565 -0.0731839538 0.779292822 0.622371972 -0.0551412217 -0.991742551 0.115784831 0.027992893 -0.994466543 0.10125573 -0.0566145182 -0.925461948 0.374586463 0.334264189 -0.873565853 0.353765696 0.0794361979 -0.994621277 0.0664710477 -0.115484379 -0.641215861 0.758620858 0.526092231 -0.766428411 0.368530154 0.610463083 -0.790446579 0.0502889566 0.519873798 -0.830048859 0.201866701 0.75519073 -0.653368294 -0.0528845266 0.919683158 0.38031742 -0.0976810604 0.795061231 0.553022087 -0.249086648 0.0769462436 0.983325362 0.164774045 -0.147882119 0.949236572 0.277634203 -0.359456152 0.694674551 0.623071909 -0.467628211 0.271069974 0.841335177 -0.280137479 -0.238661155 0.929819286 0.285106987 -0.958023131 0.0300954785 0.340391278 -0.92096132 0.189641953 -0.415397167 -0.618400693 0.667102516 -0.442567974 -0.21045588 0.871689081 -0.308587164 -0.887111068 0.343231618 0.902387023 -0.421037734 -0.0917871445 0.675500572 -0.731939137 -0.0892417654 -0.986732185 -0.120926566 -0.108334243 -0.980578125 0.150131747 0.126202002 -0.997094452 0.064851433 -0.03996123 -0.0468430892 -0.998888195 -0.00530351046 0.462019086 -0.885873318 -0.0420340523 0.731172979 -0.591917455 -0.33914569 0.71518302 0.0123170782 -0.698828638 0.730065763 0.678933263 -0.0778047517 0.508812785 0.859940112 -0.0401567854 0.172196135 0.985055029 -0.00388194388 -0.419480324 0.871941209 0.252497166 -0.652383626 0.396959782 0.645614862 0.601094127 -0.00228601042 -0.799174964 0.231230199 0.970031559 -0.0746414363 0.102053791 0.989481926 -0.102520712 0.545298874 0.832299531 -0.099632442 0.0331488289 0.999422491 -0.00747343525 -0.797099411 0.341465443 0.498029977 -0.63743943 -0.248356864 0.729376376 -0.0891567171 -0.995166302 0.0411722325 -0.0580642484 -0.995903015 -0.0693232715 0.0765156299 -0.996890366 -0.0188408028 0.0584582537 -0.996064842 -0.0666142106 0.161525935 -0.986851931 -0.00571323186 0.221330464 -0.973322034 -0.0604731962 0.449133873 -0.887996435 -0.0986970589 0.152000874 -0.00900764391 -0.988339305 0.179804578 0.01108192 -0.983639956 0.0594142787 0.989281058 -0.133390054 -0.0382613502 0.958101332 -0.283862531 0.0545188263 0.996078968 -0.0696737543 0.0998172835 0.994464874 -0.0328046679 -0.0350395292 0.999300838 -0.0130432155 -0.459936738 -0.885406077 -0.0671879575 -0.684204996 -0.728693545 -0.0294841528 -0.912203014 0.360153437 0.195384502 -0.909234762 0.25064519 0.33236903 -0.899946213 -0.230608895 0.370022148 -0.7528373 -0.232982084 0.615593493 -0.413165271 -0.901427448 0.129317552 0.0571164601 -0.992928028 -0.104075246 -0.163762555 0.983094215 -0.081900157 -0.513800561 0.8550511 -0.0699761137 -0.086767301 0.996206403 -0.00665402366 -0.926169097 -0.353779197 0.130579934 -0.643857956 -0.659968317 0.387154669 -0.212643489 -0.974460244 -0.0721802637 -0.184907153 -0.976732433 -0.108642288 -0.0342985764 -0.975352287 -0.217971385 0.0242905132 -0.987053037 -0.158544242 -0.229063585 -0.519960761 -0.822903812 -0.291948676 -0.277946204 -0.915156722 -0.366207153 0.267789364 -0.891168416 -0.192895502 0.361050755 -0.912378013 -0.123523891 0.979023516 -0.162033215 -0.103342973 0.994573236 -0.0120123848 -0.992083251 0.12408895 0.0193056203 -0.992300034 -0.0902608112 0.084815532 -0.682933271 -0.725312829 0.0867379159 -0.115816854 -0.983458042 -0.139272079 -0.636510074 0.734991431 -0.233757466 -0.160499364 0.981056273 -0.108483166 -0.262853891 0.964395881 -0.0291279424 -0.910645127 0.398554027 -0.108996123 -0.989823997 0.137241676 -0.0375920534 -0.590654731 -0.528503478 -0.609763145 -0.596795678 -0.275423825 -0.753642201 -0.575812936 0.497193962 -0.649028182 -0.892477572 0.249466538 -0.375832766 -0.991416216 0.0555472896 -0.118356995 -0.700097501 0.258110672 -0.665764511</float_array>
          <technique_common>
            <accessor source="#normals_array" count="133" stride="3">
              <param name="X" type="float" />
              <param name="Y" type="float" />
              <param name="Z" type="float" />
            </accessor>
          </technique_common>
        </source>
        <vertices id="vertices">
          <input semantic="POSITION" source="#positions" />
        </vertices>
        <triangles material="scout_b2b2b2" count="224">
          <input semantic="VERTEX" source="#vertices" offset="0" />
          <input semantic="NORMAL" source="#normals" offset="1" />
          <p>0 0 1 1 2 2 1 3 3 4 2 5 3 4 4 6 2 5 5 7 1 1 0 0 6 8 5 7 0 0 7 9 3 4 1 3 8 10 7 11 1 1 5 7 8 10 1 1 9 12 10 13 4 6 10 13 2 5 4 6 2 2 10 14 0 0 10 14 11 15 0 0 12 16 6 8 0 0 13 17 5 7 6 8 5 7 14 18 8 10 15 19 14 18 5 7 7 9 16 20 3 4 16 20 17 21 3 4 17 21 18 22 3 4 19 23 20 24 21 25 22 26 9 12 23 27 24 28 11 15 10 14 11 15 25 29 26 30 26 30 27 31 0 0 27 31 12 16 0 0 12 16 28 32 6 8 28 32 13 17 6 8 13 17 15 19 5 7 14 18 29 33 8 34 30 35 7 11 8 10 31 36 16 20 30 37 16 20 7 9 30 37 23 27 4 6 18 22 32 38 33 39 34 40 33 39 22 26 34 40 33 39 35 41 22 26 33 39 36 42 35 41 37 43 22 26 23 27 35 41 10 13 9 12 35 41 24 44 10 13 38 45 25 29 11 46 38 45 39 47 26 30 25 29 38 45 26 30 40 48 15 19 13 17 41 49 13 17 28 32 15 19 29 33 14 18 29 33 42 50 8 34 42 50 43 51 8 34 44 52 45 53 31 36 30 37 43 51 31 36 43 51 44 52 31 36 17 21 16 20 31 36 46 54 17 21 31 36 47 55 48 56 36 42 49 57 46 54 50 58 51 59 32 38 34 40 52 60 39 47 53 61 54 62 55 63 56 64 51 59 37 43 49 57 57 65 36 42 33 39 36 42 48 56 35 41 48 56 24 44 35 41 48 56 11 46 24 44 38 45 58 66 39 47 52 60 27 31 26 30 27 31 59 67 12 16 59 67 28 32 12 16 59 67 41 49 28 32 59 67 60 68 41 49 61 69 40 48 41 49 40 48 13 17 41 49 62 70 29 33 15 19 62 70 63 71 29 33 63 71 42 50 29 33 64 72 44 52 43 51 61 69 62 70 15 19 65 73 45 53 44 52 64 72 65 73 44 52 45 53 46 54 31 36 45 53 50 58 46 54 26 30 0 0 11 15 38 45 11 46 48 56 58 66 53 61 39 47 52 60 59 67 27 31 52 60 53 61 59 67 66 74 60 68 59 67 67 75 41 49 60 76 68 77 61 69 41 49 63 71 69 78 42 50 64 72 70 79 65 73 65 73 71 80 45 53 68 77 62 70 61 69 45 53 71 80 50 58 32 38 72 81 57 65 73 82 74 83 57 65 73 82 75 84 74 83 47 55 76 85 58 66 76 85 77 86 58 66 78 87 59 67 53 61 78 87 77 86 59 67 79 88 80 89 66 74 80 89 60 68 66 74 80 90 81 91 60 76 81 91 82 92 60 76 82 92 67 75 60 76 67 75 63 71 62 70 67 75 83 93 63 71 83 93 69 78 63 71 37 43 17 21 46 54 84 94 43 51 42 50 72 81 32 38 51 59 84 94 64 72 43 51 85 95 57 65 86 96 87 97 88 98 64 72 88 98 70 79 64 72 88 98 89 99 70 79 90 100 71 80 65 73 68 77 67 75 62 70 91 101 72 81 51 59 76 85 47 55 36 42 74 83 77 86 76 85 78 87 58 66 77 86 78 87 53 61 58 66 40 48 61 69 15 19 75 84 66 102 59 67 38 45 48 56 47 55 83 93 67 75 82 92 92 103 93 104 84 94 93 104 87 105 84 94 87 105 64 72 84 94 90 100 70 79 89 99 90 100 65 73 70 79 94 106 95 107 89 99 86 96 72 81 91 101 72 81 86 96 57 65 85 95 96 108 57 65 20 24 97 109 96 108 98 110 66 102 75 84 73 82 98 110 75 84 75 84 77 86 74 83 17 21 23 27 18 22 98 110 79 111 66 102 99 112 100 113 79 88 101 114 80 89 79 88 101 114 102 115 80 89 102 116 81 91 80 90 92 103 82 92 81 91 92 103 84 94 82 92 103 117 87 105 93 104 55 63 87 97 103 118 55 63 88 98 87 97 55 63 104 119 88 98 104 119 89 99 88 98 104 119 94 106 89 99 105 120 86 96 91 101 85 95 20 24 96 108 97 109 99 121 96 108 99 121 73 82 96 108 99 121 98 110 73 82 9 12 22 26 35 41 98 110 99 121 79 111 33 39 32 38 57 65 106 122 93 104 92 103 107 123 106 122 92 103 108 124 103 117 93 104 93 104 109 125 108 126 103 118 56 64 55 63 108 126 56 64 103 118 86 96 94 106 104 119 21 25 86 96 104 119 86 96 105 120 94 106 21 25 20 24 85 95 90 100 49 57 71 80 19 23 97 127 20 24 19 23 110 128 97 127 97 127 110 128 99 112 110 128 100 113 99 112 110 128 101 114 100 113 101 114 107 129 102 115 102 116 92 103 81 91 102 116 107 123 92 103 109 125 93 104 106 122 56 64 108 126 109 125 106 122 111 130 109 125 111 130 112 131 109 125 112 131 56 64 109 125 112 131 54 62 56 64 68 77 41 49 67 75 21 25 85 95 86 96 21 25 54 62 19 23 113 132 107 129 101 114 107 129 111 130 106 122 113 132 111 130 107 129 111 130 19 23 112 131 19 23 54 62 112 131 19 23 113 132 110 128 110 128 113 132 101 114 113 132 19 23 111 130 18 22 4 6 3 4 84 94 69 78 82 92 23 27 9 12 4 6 91 101 95 107 105 120 37 43 34 40 22 26 49 57 37 43 46 54 52 60 26 30 39 47 54 62 104 119 55 63 51 59 34 40 37 43 100 113 101 114 79 88 75 84 59 67 77 86 96 108 73 82 57 65 95 107 90 100 89 99 84 94 42 50 69 78 21 25 104 119 54 62 91 101 51 59 95 107 82 92 69 78 83 93 57 65 74 83 76 85 76 85 36 42 57 65 43 51 30 37 8 34 49 57 50 58 71 80 94 106 105 120 95 107 47 55 58 66 38 45 17 21 37 43 23 27 90 100 95 107 49 57 51 59 49 57 95 107</p>
        </triangles>
      </mesh>
    </geometry>
  </library_geometries>
  <library_visual_scenes>
    <visual_scene id="scene">
      <node id="right_knee_link">
        <instance_geometry url="#geometry">
          <bind_material>
            <technique_common>
              <instance_material symbol="scout_b2b2b2" target="#scout_b2b2b2" />
            </technique_common>
          </bind_material>
        </instance_geometry>
      </node>
    </visual_scene>
  </library_visual_scenes>
  <scene>
    <instance_visual_scene url="#scene" />
  </scene>
</COLLADA>