<?xml version='1.0' encoding='utf-8'?>
<COLLADA xmlns="http://www.collada.org/2005/11/COLLADASchema" version="1.4.1">
  <asset>
    <created>2026-09-14T00:00:00Z</created>
    <modified>2026-09-14T00:00:00Z</modified>
    <unit name="metre" meter="1" />
    <up_axis>Z_UP</up_axis>
  </asset>
  <library_effects>
    <effect id="scout_b2b2b2_effect">
      <profile_COMMON>
        <technique sid="common">
          <lambert>
            <emission>
              <color>0 0 0 1</color>
            </emission>
            <ambient>
              <color>0.35 0.35 0.35 1</color>
            </ambient>
            <diffuse>
              <color>0.7 0.7 0.7 1</color>
            </diffuse>
          </lambert>
        </technique>
      </profile_COMMON>
    </effect>
  </library_effects>
  <library_materials>
    <material id="scout_b2b2b2" name="scout_b2b2b2">
      <instance_effect url="#scout_b2b2b2_effect" />
    </material>
  </library_materials>
  <library_geometries>
    <geometry id="geometry" name="right_ankle_pitch_link">
      <mesh>
        <source id="positions">
          <float_array id="positions_array" count="78">-0.0246127285 -0.000347136782 -0.0117741721 -0.0187200829 0.000130058179 -0.0175328404 -0.0248390008 -0.00539630465 -0.0169997104 0.00990152266 -0.00583343487 -0.0157437548 -0.0060103205 -0.00554435048 -0.0144879306 -0.00112380856 -0.00650297105 -0.0256850161 0.00925163273 0.00445716921 0.00455028145 0.00162124902 0.00424874946 0.0111640748 0.00773953833 -0.00462106522 0.0081909867 -0.0251120571 0.00446122 -0.021340074 -0.00484808953 -0.00525324978 0.00979841314 0.00410178537 -0.00407840032 0.00351007353 0.00749995699 0.00583187863 -0.00393124716 -0.00482732803 -0.00610986352 -0.00723796384 -0.0169217736 0.00203889608 0.00405012071 -0.00260335696 -0.00351996277 0.00449432665 -0.00544233434 0.00610242644 -0.0062169428 0.0101270927 0.00569923501 -0.0159697179 -0.00520834653 0.0060786251 0.00537182204 -0.0179351568 -0.00588590791 -0.0218312424 -0.016156964 -0.00511923898 -0.0104112905 -0.0180891771 0.00458845077 -0.023062015 0.00745435059 -0.00528167142 -0.00607599691 -0.0178783946 0.00530133629 -0.0121398447 -0.00601014262 0.00508948835 -0.0146546187 -0.00173909985 0.0064486824 -0.0257136747</float_array>
          <technique_common>
            <accessor source="#positions_array" count="26" stride="3">
              <param name="X" type="float" />
              <param name="Y" type="float" />
              <param name="Z" type="float" />
            </accessor>
          </technique_common>
        </source>
        <source id="normals">
          <float_array id="normals_array" count="183">-0.585676432 0.595419526 -0.549962521 0.00988249201 -0.998979807 0.0440650322 -0.0259170849 -0.999584138 0.0126416078 -0.0136038177 -0.996878207 0.0777735785 0.639806807 0.191882282 0.744196534 -0.331679165 -0.849732399 -0.40980953 0.134635106 -0.230184227 0.963788688 -0.679381907 0.575129688 0.455703914 -0.367910564 0.117924146 0.922353327 0.979977608 0.164875001 -0.111624844 0.977600873 0.065941982 -0.199870542 0.980499923 0.155448511 -0.120231517 0.995793819 -0.0487291403 0.0775893927 0.993237972 -0.102602042 0.0543248728 0.995708525 -0.0176956803 0.0908369869 -0.553334653 -0.370449483 -0.746048212 -0.553920686 -0.348310053 -0.756208956 -0.378540516 -0.219881669 -0.899087965 -0.33778134 -0.19367449 -0.921083033 -0.0209289044 -0.997312486 0.0702126101 -0.0461959541 -0.9980551 0.0418568067 -0.0215245299 -0.997293353 0.070304051 -0.216143414 -0.0942869335 -0.97179836 -0.0783480033 -0.996481776 -0.0297606066 -0.00223080767 -0.997213185 0.0745715201 -0.0603042729 -0.996343374 -0.0605251826 -0.598155081 -0.730339587 0.329870611 -0.0383075327 -0.999153376 0.0150036849 -0.100841209 -0.993653417 0.0498394407 -0.073446393 0.151381046 0.985743046 -0.140781268 0.0521758683 -0.988664925 -0.0338692889 0.997346461 -0.0644427836 0.0226717815 0.998275459 0.0541487187 -0.0387734994 0.998868108 -0.02755294 0.126848742 0.98294872 0.133121118 -0.000951232738 0.999436498 0.033552669 0.209407389 0.976425171 0.0523685589 -0.0580536909 0.997914791 0.0282101016 -0.215264067 0.974995673 0.0551803671 -0.226259381 0.970559597 -0.0825878382 -0.326884419 0.945025742 0.00854101125 -0.579211354 0.715809405 0.390039861 -0.183674559 -0.0487681702 -0.981776595 -0.159001067 -0.00973812398 -0.987230361 -0.267957509 0.382012695 0.884457529 -0.175037175 -0.090779461 0.980367839 -0.319498986 0.72791481 0.606679857 -0.986979365 -0.158674881 0.0263434052 0.121166825 0.981218994 0.15009287 0.131755322 0.979245424 0.154009476 0.670321047 -0.0276404843 -0.741556227 0.650181413 0.00542224711 -0.759759605 0.654869437 -0.00210121088 -0.755739152 0.635428369 0.0284797382 -0.771634459 -0.0560852587 -0.963998139 -0.259926915 -0.129459739 -0.925058126 -0.357082039 0.665811062 -0.74513787 0.0382779911 -0.0605944879 0.993273199 0.0986747518 0.964478076 0.263483644 -0.0189325511 0.987933755 -0.151322961 0.0329894535 -0.456702411 -0.629796207 0.628314972</float_array>
          <technique_common>
            <accessor source="#normals_array" count="61" stride="3">
              <param name="X" type="float" />
              <param name="Y" type="float" />
              <param name="Z" type="float" />
            </accessor>
          </technique_common>
        </source>
        <vertices id="vertices">
          <input semantic="POSITION" source="#positions" />
        </vertices>
        <triangles material="scout_b2b2b2" count="52">
          <input semantic="VERTEX" source="#vertices" offset="0" />
          <input semantic="NORMAL" source="#normals" offset="1" />
          <p>0 0 1 0 2 0 3 1 4 2 5 3 6 4 7 4 8 4 1 5 0 5 9 5 8 6 7 6 10 6 11 7 12 7 13 7 10 8 7 8 14 8 15 9 13 10 16 11 17 12 8 13 3 14 18 15 12 15 11 15 2 16 9 17 19 18 19 19 20 20 2 21 21 22 19 18 9 17 11 23 22 24 8 25 3 1 8 25 22 24 14 26 20 26 10 26 13 27 20 20 4 2 4 2 3 1 13 27 22 24 13 27 3 1 13 27 10 28 20 20 0 29 20 29 23 29 18 30 11 30 15 30 9 31 23 32 21 33 6 34 17 35 12 36 17 35 24 37 12 36 23 32 14 38 24 37 24 37 14 38 16 39 16 39 14 38 18 40 24 37 16 39 12 36 23 41 9 41 0 41 19 18 21 22 5 42 21 22 25 43 5 42 1 44 9 44 2 44 13 45 12 45 16 45 18 46 14 46 7 46 23 47 20 47 14 47 7 48 12 36 18 49 7 48 6 34 12 36 4 2 20 20 5 3 20 20 19 19 5 3 3 50 5 51 17 52 25 53 17 52 5 51 11 23 13 27 22 24 11 23 8 25 10 54 10 54 15 55 11 23 13 56 15 56 10 56 17 35 25 57 24 37 25 57 21 33 24 37 21 33 23 32 24 37 18 58 15 9 16 11 17 12 6 59 8 13 2 60 20 60 0 60</p>
        </triangles>
      </mesh>
    </geometry>
  </library_geometries>
  <library_visual_scenes>
    <visual_scene id="scene">
      <node id="right_ankle_pitch_link">
        <instance_geometry url="#geometry">
          <bind_material>
            <technique_common>
              <instance_material symbol="scout_b2b2b2" target="#scout_b2b2b2" />
            </technique_common>
          </bind_material>
        </instance_geometry>
      </node>
    </visual_scene>
  </library_visual_scenes>
  <scene>
    <instance_visual_scene url="#scene" />
  </scene>
</COLLADA>