<?xml version='1.0' encoding='utf-8'?>
<COLLADA xmlns="http://www.collada.org/2005/11/COLLADASchema" version="1.4.1">
  <asset>
    <created>2026-09-14T00:00:00Z</created>
    <modified>2026-09-14T00:00:00Z</modified>
    <unit name="metre" meter="1" />
    <up_axis>Z_UP</up_axis>
  </asset>
  <library_effects>
    <effect id="scout_b2b2b2_effect">
      <profile_COMMON>
        <technique sid="common">
          <lambert>
            <emission>
              <color>0 0 0 1</color>
            </emission>
            <ambient>
              <color>0.35 0.35 0.35 1</color>
            </ambient>
            <diffuse>
              <color>0.7 0.7 0.7 1</color>
            </diffuse>
          </lambert>
        </technique>
      </profile_COMMON>
    </effect>
  </library_effects>
  <library_materials>
    <material id="scout_b2b2b2" name="scout_b2b2b2">
      <instance_effect url="#scout_b2b2b2_effect" />
    </material>
  </library_materials>
  <library_geometries>
    <geometry id="geometry" name="right_hand_thumb_1_link">
      <mesh>
        <source id="positions">
          <float_array id="positions_array" count="72">-0.00553361326 -0.00498881331 0.0129033141 -0.0051805689 -0.0057103415 0.00961725041 0.00575882895 -0.00548353 0.0109780412 0.00785598531 0.0196619444 0.0110265519 -0.0075845453 0.0164829455 -0.0112195844 0.0142413871 0.0207054038 -0.00893854536 -0.00725218188 0.0550192706 0.0129054571 -0.00909826066 0.0186750852 0.0119457534 0.00433884282 -0.0037856847 -0.0127172275 0.00464816112 -0.00349222939 -0.0096118534 -0.00438266434 -0.00480580283 -0.0110056689 0.0141574582 0.042740155 0.0103602614 0.0142350486 0.020597497 0.00999300927 0.00649488578 0.0528516993 0.00944161322 0.00648327451 0.0529403612 -0.00941767823 -0.0101832636 0.0548005588 -0.0121293645 -0.00654391991 0.0154743828 0.00893791951 0.00855520554 0.0387842581 0.0109310932 0.0065321913 0.00450658472 0.0111500919 -0.0060482081 0.0410000086 0.0109864473 0.00686736638 0.0190388877 -0.0126310093 -0.00571504002 0.0383070186 -0.0106832664 0.0132470392 0.0433547683 -0.00887889694 0.00733461184 0.0377348661 -0.0113052782</float_array>
          <technique_common>
            <accessor source="#positions_array" count="24" stride="3">
              <param name="X" type="float" />
              <param name="Y" type="float" />
              <param name="Z" type="float" />
            </accessor>
          </technique_common>
        </source>
        <source id="normals">
          <float_array id="normals_array" count="174">-0.0063428767 -0.97685504 0.213808417 0.200366288 -0.979569614 -0.0172258709 0.229094073 -0.973200083 -0.0199375376 0.180679604 -0.983521283 0.00638340414 -0.998351276 -0.0240249541 0.0521303937 -0.999972343 0.00691337604 0.00273316167 -0.996163189 0.0524493754 -0.0700565726 0.928602517 -0.36653766 -0.0578581393 0.131328732 -0.988081992 0.0802919343 0.999545157 0.0219341014 -0.0206967331 0.950242639 0.311056018 -0.0168253612 0.999993801 0.00349813327 0.000354752847 0.156867027 0.987609267 0.00454614684 0.128140301 0.991664052 -0.0135065485 0.137158245 0.990518034 -0.00785123929 0.114443801 0.993184447 -0.022075383 0.28705591 -0.955863237 -0.0626448914 -0.991085827 -0.0644474998 0.116599537 0.0869777128 0.00192512118 0.99620837 0.0584265515 0.0432018004 0.997356474 0.0563133173 0.0236443728 0.998133123 0.104696557 0.0176722687 0.994347155 0.343228847 -0.0153546855 0.939126313 0.276235998 -0.10701628 0.955113173 0.627773046 -0.0523950346 0.776631057 0.127405748 0.0211981442 0.991624117 0.166719854 -0.0298794955 0.985551476 -0.777584672 -0.628718197 0.00868520234 -0.993505061 -0.0668891296 -0.0920520127 -0.98730135 -0.0757984817 -0.139608696 -0.843768835 -0.141958475 -0.51759249 -0.825429678 -0.146401033 -0.545190454 -0.0690520257 -0.023824092 -0.99732852 0.192576393 0.0137161715 -0.981186092 0.43487373 0.012390797 -0.900406182 0.149143577 -0.0215805881 -0.988580048 0.149522915 -0.0211186633 -0.988532722 0.142678946 -0.0144806793 -0.989663064 0.1378434 -0.00943395495 -0.990409136 0.123284526 0.00754641602 -0.992342651 -0.131177932 -0.00054178579 0.991358697 -0.106736906 0.0146527681 0.994179308 -0.117791317 0.00778882392 0.993007839 -0.150711969 -0.0127347531 0.988495708 0.148821861 0.0300242789 -0.988408089 0.177235827 -0.038208995 -0.983426452 0.119524717 -0.013777147 -0.992735624 0.165032387 0.0969025642 -0.981516302 0.127067208 0.188405484 -0.973836362 0.941947341 0.334044605 -0.0339028388 0.80992049 0.586420476 -0.01182489 0.796899498 0.60410732 0.00234951754 0.14421837 -0.989530087 -0.00559197692 0.101434983 0.0233841613 0.994567335 0.05848011 0.0609649494 0.996425271 0.151738957 -0.00359392446 0.988414049 -0.0918979198 0.0151699753 -0.995652854 -0.188132793 -0.0381570719 -0.981402099</float_array>
          <technique_common>
            <accessor source="#normals_array" count="58" stride="3">
              <param name="X" type="float" />
              <param name="Y" type="float" />
              <param name="Z" type="float" />
            </accessor>
          </technique_common>
        </source>
        <vertices id="vertices">
          <input semantic="POSITION" source="#positions" />
        </vertices>
        <triangles material="scout_b2b2b2" count="44">
          <input semantic="VERTEX" source="#vertices" offset="0" />
          <input semantic="NORMAL" source="#normals" offset="1" />
          <p>0 0 1 0 2 0 3 1 4 2 5 3 6 4 4 5 7 6 8 7 5 7 9 7 8 8 9 8 10 8 5 9 11 10 12 11 13 12 14 13 6 14 14 13 15 15 6 14 3 1 16 16 4 2 6 4 15 17 4 5 3 18 17 19 7 20 18 21 3 18 7 20 17 19 19 22 7 20 6 23 7 24 19 22 18 21 7 20 0 25 2 26 18 21 0 25 7 27 4 27 16 27 1 28 0 29 16 30 0 29 7 31 16 30 8 32 20 33 5 34 16 35 3 36 18 37 16 35 18 37 1 38 18 37 2 39 1 38 9 40 5 41 4 42 4 42 10 43 9 40 21 44 15 45 14 46 21 44 14 46 22 47 23 48 21 44 22 47 5 34 23 48 22 47 11 10 22 49 14 50 14 50 13 51 11 10 11 10 5 9 22 49 5 3 12 52 3 1 19 22 17 19 13 53 13 53 6 23 19 22 13 53 17 19 11 54 17 19 3 18 12 55 12 55 11 54 17 19 20 33 23 48 5 34 20 33 8 32 4 56 10 57 4 56 8 32 4 56 15 45 21 44 20 33 4 56 21 44 23 48 20 33 21 44</p>
        </triangles>
      </mesh>
    </geometry>
  </library_geometries>
  <library_visual_scenes>
    <visual_scene id="scene">
      <node id="right_hand_thumb_1_link">
        <instance_geometry url="#geometry">
          <bind_material>
            <technique_common>
              <instance_material symbol="scout_b2b2b2" target="#scout_b2b2b2" />
            </technique_common>
          </bind_material>
        </instance_geometry>
      </node>
    </visual_scene>
  </library_visual_scenes>
  <scene>
    <instance_visual_scene url="#scene" />
  </scene>
</COLLADA>