<?xml version='1.0' encoding='utf-8'?>
<COLLADA xmlns="http://www.collada.org/2005/11/COLLADASchema" version="1.4.1">
  <asset>
    <created>2026-09-14T00:00:00Z</created>
    <modified>2026-09-14T00:00:00Z</modified>
    <unit name="metre" meter="1" />
    <up_axis>Z_UP</up_axis>
  </asset>
  <library_effects>
    <effect id="scout_b2b2b2_effect">
      <profile_COMMON>
        <technique sid="common">
          <lambert>
            <emission>
              <color>0 0 0 1</color>
            </emission>
            <ambient>
              <color>0.35 0.35 0.35 1</color>
            </ambient>
            <diffuse>
              <color>0.7 0.7 0.7 1</color>
            </diffuse>
          </lambert>
        </technique>
      </profile_COMMON>
    </effect>
  </library_effects>
  <library_materials>
    <material id="scout_b2b2b2" name="scout_b2b2b2">
      <instance_effect url="#scout_b2b2b2_effect" />
    </material>
  </library_materials>
  <library_geometries>
    <geometry id="geometry" name="right_hand_thumb_0_link">
      <mesh>
        <source id="positions">
          <float_array id="positions_array" count="63">-0.011395596 0.0193857085 0.00945206918 -0.0114267766 0.0193041842 -0.00945811439 -0.0113194939 0.000180506919 0.00944966264 -0.0111909444 0.0214834213 -0.00947127305 -0.0111877723 0.0215092991 0.00946852658 0.00997640379 0.025816286 -0.00948152691 0.00998227112 0.00019701448 0.00945669971 0.00995700806 0.000177240145 -0.00947303046 -0.0103110177 0.023712799 -0.00947402976 -0.0103396308 0.0236740578 0.00946934149 -0.00887375604 0.0256252978 -0.00947397202 0.00754335942 0.0282428246 -0.00948013552 0.0099567296 0.02583405 0.00948389899 -0.00440792879 0.0280937459 -0.0094561344 0.00753606157 0.0282409191 0.00948186126 -0.0113255521 0.000198596681 -0.00944550429 -0.00889065396 0.0255960934 0.00947307236 -0.00732755382 0.0268548336 0.0094815325 -0.00708180061 0.0270073507 -0.00947345514 -0.00327608758 0.0282290559 0.00945217162 -0.00528024836 0.0278374348 0.00948619377</float_array>
          <technique_common>
            <accessor source="#positions_array" count="21" stride="3">
              <param name="X" type="float" />
              <param name="Y" type="float" />
              <param name="Z" type="float" />
            </accessor>
          </technique_common>
        </source>
        <source id="normals">
          <float_array id="normals_array" count="150">-0.998874605 0.0474203527 0.000888478011 -0.998670876 0.0515295938 0.00108825276 -0.999988794 -0.00463474961 0.000986327999 -0.970934927 0.23934336 0.000376307435 -0.972266674 0.233874768 -0.000304821762 0.99999994 0.000285729911 7.67623715e-05 0.99999994 -4.66576712e-05 -0.000372919516 0.999998808 -0.000756887661 -0.00133377814 -0.872568071 0.488492459 -0.000175807741 -0.872988164 0.487741292 -0.000232701612 -0.711868107 0.702312827 -0.000688546512 0.706037462 0.708174527 0.000100347977 0.705205321 0.709003091 0.000311451266 0.706159413 0.708052933 6.93862603e-05 -0.196823135 0.980433345 -0.003335129 -0.00516881049 0.999976456 -0.00451118359 -0.0124726947 0.999922216 9.56167351e-05 -0.999985933 -0.00529798772 0.000315547892 -4.73291366e-05 -1 0.000119421486 0.000774593267 -0.999999166 0.00104358362 -0.000181271243 -1 -3.1181844e-05 -0.00100471277 -0.999999046 -0.000957052456 -0.718258679 0.695775986 0.000431890279 0.999998987 0.000995085342 0.00103643839 -0.533564866 0.845758438 0.00106285722 -0.499246478 0.866454959 -0.00296581397 -0.00274366513 -0.00191293354 0.999994397 0.00279777823 -0.00285029365 0.999992013 -0.00175144966 -0.0006904084 0.999998212 -0.000330374518 -0.000126615196 0.99999994 -0.000778475485 -0.000625940273 0.999999523 0.00113354472 -0.00177326822 0.999997795 0.017032953 -0.0163609516 0.99972105 -0.000877657731 -0.00327934814 0.999994218 0.00102589407 -0.0040041781 0.999991477 0.0250756834 -0.0102010565 0.999633491 -0.00979659893 0.00544403028 0.999937177 -0.316171139 0.948698342 0.00270653795 -0.00136306288 -0.000279015512 -0.999999046 -0.00113282329 -0.000486654608 -0.999999225 0.000765590172 -0.00112876471 -0.999999046 0.000347872759 -0.000431619788 -0.999999821 -0.00199039839 -0.00142242841 -0.99999702 -0.00129402347 -0.000666877371 -0.999998927 0.00737007102 -0.00553988619 -0.999957502 0.0167571567 -0.00785068795 -0.999828756 0.0101640485 -0.00978705101 -0.99990046 0.000626221357 -0.00044382023 -0.999999702 -0.0936295763 0.995605946 -0.00152001565 0.705082417 0.70912534 0.000342616666</float_array>
          <technique_common>
            <accessor source="#normals_array" count="50" stride="3">
              <param name="X" type="float" />
              <param name="Y" type="float" />
              <param name="Z" type="float" />
            </accessor>
          </technique_common>
        </source>
        <vertices id="vertices">
          <input semantic="POSITION" source="#positions" />
        </vertices>
        <triangles material="scout_b2b2b2" count="38">
          <input semantic="VERTEX" source="#vertices" offset="0" />
          <input semantic="NORMAL" source="#normals" offset="1" />
          <p>0 0 1 1 2 2 3 3 0 0 4 4 5 5 6 6 7 7 8 8 9 9 10 10 11 11 12 12 5 13 13 14 14 15 11 16 4 4 8 8 3 3 15 17 2 2 1 1 3 3 1 1 0 0 7 18 6 19 2 20 2 20 15 21 7 18 4 4 9 9 8 8 10 10 9 9 16 22 5 5 12 23 6 6 10 10 16 22 17 24 17 24 18 25 10 10 14 26 19 27 12 28 2 29 6 30 0 31 0 31 6 30 12 28 12 28 19 27 0 31 0 31 19 27 20 32 0 31 20 32 17 33 0 31 17 33 9 34 0 31 9 34 4 35 17 33 16 36 9 34 20 37 13 14 18 25 18 25 17 24 20 37 5 38 7 39 1 40 5 38 1 40 13 41 13 41 11 42 5 38 15 43 1 40 7 39 13 41 1 40 8 44 1 40 3 45 8 44 13 41 8 44 18 46 18 46 8 44 10 47 13 14 20 37 19 48 11 11 14 49 12 12 13 14 19 48 14 15</p>
        </triangles>
      </mesh>
    </geometry>
  </library_geometries>
  <library_visual_scenes>
    <visual_scene id="scene">
      <node id="right_hand_thumb_0_link">
        <instance_geometry url="#geometry">
          <bind_material>
            <technique_common>
              <instance_material symbol="scout_b2b2b2" target="#scout_b2b2b2" />
            </technique_common>
          </bind_material>
        </instance_geometry>
      </node>
    </visual_scene>
  </library_visual_scenes>
  <scene>
    <instance_visual_scene url="#scene" />
  </scene>
</COLLADA>