<?xml version='1.0' encoding='utf-8'?>
<COLLADA xmlns="http://www.collada.org/2005/11/COLLADASchema" version="1.4.1">
  <asset>
    <created>2026-09-14T00:00:00Z</created>
    <modified>2026-09-14T00:00:00Z</modified>
    <unit name="metre" meter="1" />
    <up_axis>Z_UP</up_axis>
  </asset>
  <library_effects>
    <effect id="scout_b2b2b2_effect">
      <profile_COMMON>
        <technique sid="common">
          <lambert>
            <emission>
              <color>0 0 0 1</color>
            </emission>
            <ambient>
              <color>0.35 0.35 0.35 1</color>
            </ambient>
            <diffuse>
              <color>0.7 0.7 0.7 1</color>
            </diffuse>
          </lambert>
        </technique>
      </profile_COMMON>
    </effect>
  </library_effects>
  <library_materials>
    <material id="scout_b2b2b2" name="scout_b2b2b2">
      <instance_effect url="#scout_b2b2b2_effect" />
    </material>
  </library_materials>
  <library_geometries>
    <geometry id="geometry" name="torso_link_rev_1_0">
      <mesh>
        <source id="positions">
          <float_array id="positions_array" count="813">0.00464083953 0.000121372344 0.0681906492 -0.0433356762 0.00846582465 0.0621222556 0.00889855996 0.012954928 0.0740264207 -0.0599185452 -0.0770293549 0.245152831 -0.0456788689 -0.0894192681 0.118305884 -0.0450755656 -0.0853359327 0.0634733438 0.0599299222 -0.000161076634 0.0738295168 0.00831940118 -0.00664556911 0.0796836317 -0.0475075543 -0.0807350352 0.264293253 -0.0439619943 -0.0950921923 0.24985227 -0.053837914 -0.0659207404 0.0533768572 -0.0438938551 -0.0597514547 0.0118836313 -0.0498205982 -0.0601523519 0.00307795452 -0.0318506099 0.0955176428 0.0734011009 -0.0456801429 0.0744420514 0.0354367755 -0.05288231 0.0874070302 0.0746525228 -0.0462981649 0.0859809518 0.110291429 -0.043571528 0.0633504465 0.00836404599 -0.0596932955 0.0148656992 0.221308365 0.0448215604 -0.0595405735 0.0122575993 0.0505020916 -0.0498295464 0.0136570828 0.0440545045 -0.0763756558 0.0492565036 -0.0644712225 -0.0216678511 0.216679811 -0.0622902773 0.0026633963 0.242629513 -0.058766935 0.00302582956 0.23699075 -0.058478415 -0.0183752328 0.219779789 -0.0568599589 -0.0483455621 0.225611627 -0.0573910251 -0.00161205314 0.260454059 -0.0513872132 0.0573165976 0.00428293971 -0.0559168831 -0.0639908686 0.0383981057 0.0580738895 -0.0718892366 0.0375238173 0.0647608191 -0.085255444 0.181484297 0.0432049334 -0.0926427469 0.0675731376 -0.037226554 -0.104051918 0.232841641 -0.0572885349 -0.0880856663 0.249619678 -0.0526909195 -0.0861622319 0.0628606528 -0.054759033 0.068460159 0.065492779 -0.0601351671 0.0737120956 0.236065745 0.00818542112 0.00550305843 0.0526853688 -0.0438894257 0.013440609 0.0146191446 -0.0399504602 -0.0140906274 0.0157211032 -0.0445445627 0.000428157218 0.0510194004 0.00653467327 -0.00492185913 0.0516469292 -0.0361001231 -0.0654953122 0.0232344363 -0.0290715471 -0.0666226819 0.0408665165 -0.0316304602 -0.0852553546 0.0570263676 -0.0163565855 -0.0723755658 0.037127804 -0.0141059784 -0.0675142109 0.0434667058 -0.00858957041 -0.0694544986 0.0402436703 -0.00845376682 -0.071537815 0.0398617014 0.0290644486 -0.0791369379 0.046575509 -0.00591239939 -0.0696968734 0.0380715765 -0.00512632029 -0.0132074663 -0.000609076524 -0.00769342016 -0.0251483191 0.0107234521 0.00110001606 -0.0179258548 -0.00827598851 -0.0109735047 -0.00700016413 0.016804697 -0.00678284094 -0.0118417386 -0.00714242784 0.00693809846 -0.0139709394 0.0728645921 -0.0434337817 -0.00852670986 0.0621771999 -0.0505390987 -0.05682116 0.284428418 -0.0657958314 -0.0590740219 0.242284283 -0.0347801596 -0.0976493582 0.272650868 -0.0549896248 0.0437631421 0.280614406 0.0191360749 0.0623086505 0.0144033702 -0.0366695896 0.0543615408 0.0174441729 -0.0190705564 -0.0874851868 0.289280981 -0.0105137844 -0.0685054511 0.293905228 0.0318375528 0.0871761441 0.165647358 -0.0111941462 0.087029539 0.197798461 -0.00606060494 0.0851665363 0.162804678 0.00116208685 -0.0708933249 0.31227836 -0.00424113357 -0.0686739385 0.289520174 0.00307182712 -0.0736214146 0.308293551 0.0131454384 -0.0770193413 0.29254812 0.00373336091 -0.0641666949 0.293316007 -0.00930440333 0.0212417375 0.0111954072 0.00496450486 0.0170445815 -0.00685174996 -0.00716334675 0.0118194036 -0.00662860554 0.0054015643 0.0136497617 6.71154921e-05 -0.00385515438 0.0122235185 -0.00325807091 0.00678323675 0.0118422639 -0.00714185461 0.0149178607 0.0663903207 0.295369267 -0.000400078017 0.0725114793 0.291973472 0.00201300322 0.050817322 0.29481405 -0.0461424105 -0.0552681983 0.0719906017 -0.0465500355 -0.0160808433 0.0752652586 -0.0352192 -0.0542012565 0.0176806077 -0.0480309315 0.0793443918 0.265020698 0.0127296858 -0.0522847176 0.070664376 -0.0654744282 0.0471443422 0.177798524 0.0218698252 -0.0645763725 0.0131509472 0.0153580578 -0.060075026 0.0196593273 -0.0446946546 0.0835381523 0.0618437715 -0.0631146878 0.0720343143 0.252351999 -0.0516357422 0.0877660587 0.120202281 0.057909485 -0.0767050758 0.127829134 0.0773650408 -0.0453987718 0.187940195 0.0581085868 -0.0505632535 0.00452350779 -0.0448039025 0.0940157399 0.179809928 -0.0444777608 0.0958812684 0.25046438 -0.0339387506 0.0329570882 0.0106966244 -0.0434470773 0.0617036298 0.0621161982 0.0119577423 0.0550328568 0.0692019016 0.00818105321 0.0670906156 0.0514021702 -0.0455092229 0.101797983 0.257332951 -0.0302115381 0.100921862 0.200704321 -0.0138203185 0.104544863 0.217629135 -0.0150045184 0.0103381537 0.0196561348 0.0473115779 -0.0861658305 0.0797324032 -0.0320933387 0.0728658587 0.046690505 -0.0168598425 0.0653602481 0.0458088182 -0.0320193581 0.0622157007 0.0267840009 -0.0218825098 0.0725883096 0.0363123938 -0.0146902399 0.07230784 0.0368805639 -0.0259088781 0.088673912 0.154656023 -0.0163205266 0.0920604095 0.16248478 -0.0244124383 0.0544736125 0.16576916 -0.0208364911 0.0866263062 0.105975121 -0.0100403856 0.0899929181 0.11859981 -0.0225279704 0.0886515677 0.126384363 -0.00288017979 0.0884412304 0.148775816 -0.0222435109 0.0885980278 0.188523725 -0.0236051902 0.0877550617 0.176237181 0.0116737876 0.0104981838 0.0139738675 -0.0285205133 0.0527068563 0.087307632 0.0344988517 -0.0943785161 0.279997051 0.0404008999 -0.0483445786 0.287789017 0.00295227324 0.0631113425 0.0636516139 -0.0089097172 0.0691479072 0.0401918441 -0.00794247072 0.0722325072 0.0423941426 0.00407798355 0.0710613504 0.043125093 -0.00599294901 0.0696287379 0.0384343304 0.00724708335 0.0693916678 0.0397544131 -0.0176308248 0.057582438 0.193752393 0.0462771356 0.0918290019 0.0682475716 -0.00359627185 0.0882462412 0.1322622 -0.00404431392 0.09593492 0.127104074 -0.00577812502 0.0972449258 0.157155588 0.0245951954 0.0944788232 0.12416207 -0.0477230735 0.0602016971 0.28592363 -0.0240142774 0.0942777917 0.282045156 -0.00775071466 0.0662827864 0.294474483 0.000317042141 0.0731204897 0.311761975 -0.00446365122 0.0703296885 0.293427438 0.00465831766 0.0707047582 0.307371914 0.0207456071 0.0921124145 0.286071569 0.00388562516 -0.0122432001 -0.00328633492 0.00709663471 -0.0118047474 -0.00666509941 0.0115717929 0.0226155967 0.0108273085 0.0491076596 -0.0630842596 0.00501706637 0.00917307753 -0.0692312196 0.0408580378 0.00663774787 -0.0693133697 0.0411685705 0.00789013598 -0.0720763654 0.0375150926 0.00787848234 -0.0670775548 0.0492190197 0.0257029086 -0.073279798 0.0369136892 0.0289536305 0.0697190613 0.0274203476 0.0117736403 -0.0251053516 0.0112835718 0.0143342055 -0.00409254339 0.0203675032 0.015423812 -0.000123201753 0.0370401219 0.0127996961 0.00197901553 0.0411962457 0.077681385 -0.0125935571 0.229763001 0.0726349354 0.0535788164 0.233954594 0.0547259897 0.00159896817 0.281293243 0.0395327508 -0.0602777787 0.0217173751 0.034964025 -0.0966638476 0.182424545 0.0461187735 -0.0849407017 0.0848032907 0.0301835593 -0.0920206532 0.0863958746 0.050799083 -0.0879484639 0.177249759 0.040762607 -0.0872058719 0.0778783709 0.0561578237 -0.0868305862 0.261382669 0.0493657589 -0.103406802 0.235814258 -0.0398911685 -0.0949291885 0.0703885257 0.0604551397 -0.0822158232 0.175569117 0.047562059 -0.0957649052 0.185459033 0.0532464981 -0.0930380076 0.247093484 0.0548813716 -0.0722649172 0.0903135687 -0.0155019006 -0.00169742957 0.0353825502 0.064968884 -0.0474780574 0.224120155 0.0485522151 -0.0868147463 0.253207922 -0.0289383102 0.0918777809 0.192749053 0.0717398599 -0.0313707553 0.183968216 0.0641323179 -0.0197643265 0.2333249 0.053754732 -0.0176708214 0.261391073 0.0470376611 0.00376506941 0.223321974 0.0520218574 0.00284298044 0.0137155252 0.05424539 -0.00178916822 0.0128175309 0.0584589057 0.0483788401 0.00292180176 0.0618900955 0.0491311885 0.00741085317 0.0575742312 -0.00726405066 0.0297420491 0.0555725135 -0.000497566594 0.0237748213 0.0790792406 -0.0524226315 0.189404264 0.0513230376 0.0495350473 0.0172082949 0.0698383525 -0.0287622474 0.242400184 0.0712952986 -0.0100285485 0.0633683652 -0.0089606354 0.0517650917 0.0834426582 -0.046529144 0.0541808344 0.0746957138 0.00826165732 0.0556137972 0.0800727978 -0.0457500108 0.0143081406 0.0714572147 0.0729742721 0.029207129 0.231887177 0.0128238443 -0.0681515187 0.288686216 0.0209510345 -0.0369163454 0.29197228 0.00270704622 -0.0379502289 0.310846269 0.0239778999 -0.023151312 0.307093292 0.0263126977 0.0316674784 0.286649406 0.0548258536 -0.0599135384 0.266475499 0.0298275314 0.0530057736 0.0841237381 0.0151375793 0.0703387931 0.0395027399 0.00993213896 0.0697878525 0.0388461836 0.0822583884 0.0209658798 0.171189532 0.0712208897 0.0708903298 0.173643664 0.0303826034 0.0862398297 0.141661897 0.0263504572 0.0888251513 0.131162733 0.0222277846 0.0905370042 0.150081441 0.0526982099 0.0612820499 0.00429674238 -0.0244008135 0.0542018525 0.121225253 0.0493518971 0.0988857821 0.202050477 0.0254921596 0.095481053 0.15881896 0.0116263293 0.0935777873 0.185411677 0.0404734723 0.103120141 0.238881797 0.0477228314 0.0651159957 0.0189892333 0.0427237451 0.0757312253 0.0490184464 0.0352664776 0.0909756795 0.0730072707 0.0536329895 0.0578229055 0.0772621259 0.042104125 0.0860661715 0.131760344 0.0473322198 0.0537325628 0.112342037 0.0458998308 0.055023618 0.139368847 0.0439854898 0.0891538635 0.16184099 0.0496611521 0.0518951342 0.156664699 0.0451186933 0.0542666949 0.166802406 0.0335952789 0.0873084664 0.0870392323 0.0468169861 0.0535748005 0.0872020349 0.0453922302 0.0868367255 0.0949237645 0.0444936194 0.0887683406 0.110968731 0.0420548655 0.0855880007 0.147031188 0.0320103802 0.0890321881 0.197121367 0.04199652 0.0877868533 0.190374374 0.0418827608 0.055586379 0.19521524 0.0534987524 0.0818540156 0.0899055228 0.0477700233 0.0793851763 0.0805576295 0.0355490334 0.0858282968 0.11067722 0.0394069515 0.0851536766 0.177843496 0.056126643 0.00165766373 0.0246180445 0.0645317361 0.0182100255 0.233479172 0.055960495 0.015651416 0.264420331 0.0494961403 0.0763445348 0.263380677 0.0497124083 0.0884802938 0.152888268 0.00346452696 -0.0906785205 0.0716382265 0.0558129176 0.0937575921 0.1735055 0.0542977005 0.0907501578 0.249050304 0.0577918664 0.0773968175 0.18930319 0.0719283968 0.0349923633 0.185332 0.0520233437 0.100664817 0.252571881 0.0770692751 0.0461382419 0.183896154 0.00227178191 0.023441514 0.309506595 0.0222001374 0.0297254864 0.308211684 0.0154405702 0.0769550577 0.290771425 0.0479771197 0.0599588975 0.280879289 -0.0441668257 -0.0933803469 0.179748729 -0.0127543733 0.00128420547 0.0416040979 0.017095197 -0.104477473 0.217869297 -0.0289094895 -0.0927241221 0.0826600268 -0.029177513 -0.0989422277 0.199683577 -0.0275547281 0.0526550487 0.196352273 -0.0141889192 0.0883718282 0.0853962377 0.00818976574 -0.0581410155 0.079244785 0.0754834041 0.00796860922 0.142755896 0.00308308913 0.0903844535 0.0707961023 -0.033889927 0.0893701389 0.0652112737 -0.00273153535 0.0954930335 0.100639328 0.0251109991 0.0950337797 0.100594282 0.0429041162 -0.096777387 0.201213926</float_array>
          <technique_common>
            <accessor source="#positions_array" count="271" stride="3">
              <param name="X" type="float" />
              <param name="Y" type="float" />
              <param name="Z" type="float" />
            </accessor>
          </technique_common>
        </source>
        <source id="normals">
          <float_array id="normals_array" count="2154">0.144080207 0.369614869 -0.917946458 0.17816551 0.3577272 -0.916672409 0.0911319554 0.283251673 -0.954705954 0.91466248 0.372552097 -0.15683575 0.855276048 0.516162753 0.0455955416 0.881002963 0.459926844 0.110910445 0.048494529 -0.853848219 -0.518258095 0.769876182 0.494472742 -0.403469235 0.760077 0.630155623 -0.158703804 0.956311166 0.257829607 0.137814581 0.816452205 0.509633183 0.271440208 -0.0469866917 0.998843491 0.0101924576 -0.207178697 0.973668337 0.095115222 -0.0710713416 0.997468293 0.00242278469 -0.157448605 0.958239377 -0.238720089 -0.265097767 0.878208816 -0.398086041 -0.369706213 0.904733479 -0.211600095 -0.991848111 0.121145442 -0.0395102799 -0.997395992 0.0273183361 -0.0667455569 -0.996745706 0.0800246149 0.00969926454 0.858284116 -0.473569363 -0.197687849 0.946134686 -0.279236257 -0.163878903 0.804408193 -0.536768258 -0.254572839 0.999746442 0.0144782895 -0.0172445774 0.979380727 0.0227914061 -0.200733468 -0.988767982 -0.0663674027 0.133915126 -0.998712897 -0.0448998921 -0.0235900469 -0.987656176 -0.150593132 0.043092154 0.983570755 0.0128701339 -0.180063754 -0.976098418 -0.208460882 0.0614487045 -0.969306469 -0.153936878 0.19169873 -0.99511975 0.0361044258 -0.0918318927 -0.981947601 -0.0672524944 -0.176793739 -0.976495862 -0.166078418 -0.137381807 0.937907994 -0.319016606 -0.136224121 0.816690087 -0.576269507 -0.0305085219 0.730790913 -0.676035523 -0.0944488421 0.0492006503 -0.730665147 0.680960834 0.798038602 -0.371080756 0.474798322 -0.959166765 -0.175983801 0.221424609 -0.310751975 -0.94900471 0.0531347282 -0.814992607 -0.539245069 0.212136358 -0.906029761 -0.419272006 -0.0576282889 0.953265131 -0.279923111 0.113704182 0.946408927 -0.307787508 -0.0978620201 0.997652769 -0.0520990118 0.0444365218 0.00605450943 -0.944145083 0.32947436 0.47540772 0.0328290313 -0.879152834 0.0222401489 0.0956086069 -0.995170534 0.831147075 -0.425061196 -0.358493447 -0.0596255586 0.858251333 0.5097543 -0.0109648062 0.889796674 0.456225455 -0.0125069078 0.895712614 0.444457561 -0.768191755 0.609821677 -0.194933191 -0.155802473 -0.753910422 0.638235629 -0.155446067 -0.756446898 0.635314584 -0.147052452 -0.773228943 0.616840839 0.0904884785 0.604018092 -0.79181689 0.230630502 0.353690058 -0.906483829 0.302774042 0.190932959 -0.933741152 0.523517132 -0.0275543835 0.851569474 0.558577418 0.0424872041 0.828363478 0.568919241 0.0646432117 0.819848895 0.465655535 -0.13013646 0.875345349 -0.277551174 0.859360993 0.429492712 0.027636338 0.735009313 0.677493632 0.00498218695 0.850088716 0.526615918 0.0101860166 0.689842343 0.72388798 -0.219793424 -0.961732447 -0.163589567 0.822403073 0.288528085 0.490310818 0.624363542 0.778190732 -0.0677449256 0.661266327 0.74880749 -0.0448797978 0.692157269 0.72132355 -0.0247103777 0.169320926 -0.285281599 -0.943368852 0.954989433 0.109286085 -0.275774688 -0.65047431 -0.14320758 0.74590528 -0.981810212 -0.129912794 0.13846086 -0.378335536 -0.798946023 0.467490613 -0.93261379 0.104731038 0.345344663 0.0583522692 -0.686926842 -0.724380076 0.990716636 0.00786665641 -0.135715172 -0.476778984 -0.194226682 0.857296824 -0.343105465 0.215941668 0.914137781 0.0427630246 -0.998331428 -0.0388028324 0.0478149205 -0.997085452 0.0594498627 0.0578208566 -0.996098042 -0.0666740611 0.080992274 0.993683398 0.0776762888 -0.694298208 0.141072184 0.70572561 0.713564634 -0.557121694 -0.424783409 0.732936323 0.671586037 -0.108519897 -0.332697839 -0.938784897 0.0894150287 0.279033959 -0.857575357 0.432093263 -0.356582224 0.807581127 -0.46974653 0.0271193199 -0.976034403 0.215920001 0.168801978 -0.984497964 -0.0476406366 0.0687545612 -0.987625241 0.140957996 0.0106089739 -0.969439805 0.245099738 0.559797227 -0.591612875 0.580190718 -0.0252076015 -0.0469456315 0.998579323 0.0538713001 0.135530323 0.989307523 -0.0439742841 -0.0441223532 0.998057842 0.0561752394 -0.051101502 -0.997112334 0.0277928095 -0.0145701431 -0.999507487 -0.0479386002 0.0826829299 -0.995422244 0.433729887 0.057202287 -0.899225354 0.638297021 0.632023036 0.439458489 0.955543995 0.131555364 -0.263872892 0.959620237 -0.151797295 -0.236826077 0.876166046 0.233885556 -0.421462387 -0.98609072 -0.0699970126 0.150749892 0.997685432 -0.024642963 -0.0633762404 0.651198506 -0.691724837 -0.312181532 -0.984799922 0.172410518 0.021064518 -0.989518523 0.101458564 0.102758378 -0.99071455 0.110041015 0.0798475966 0.0385616608 -0.0635907724 0.997230768 0.0340496562 -0.0709365159 0.996899486 0.0266463645 -0.0829690546 0.996195793 0.591186106 -0.784802854 0.185966328 0.540775001 -0.821812868 0.179404601 -0.985310495 0.157733098 -0.065448083 -0.995653629 0.0868650079 -0.0335902125 0.124225304 -0.753594458 0.645494699 0.837931871 -0.516959012 0.174995899 -0.447649956 0.815700769 -0.366390109 -0.928753853 0.283530772 0.238802433 0.94397825 -0.327155918 0.0432906412 -0.907027483 0.411696732 0.0883568004 -0.978249609 0.205805764 -0.0259173941 -0.985708773 0.125919506 0.111904182 0.775769353 -0.630807281 -0.0162501149 0.870952427 -0.465180576 -0.158268571 0.987151086 0.14400582 0.0692464635 -0.147485554 -0.122070245 -0.981502354 -0.0681977123 -0.0771911442 -0.99468118 0.0617323704 -0.226827532 -0.971976519 0.873146534 0.244361803 -0.421784818 -0.998707354 0.036937736 -0.0349175259 0.0288220327 0.83040607 0.556412637 -0.24857524 0.889360845 -0.383728594 -0.227037117 -0.972449362 0.0528813489 -0.131529972 -0.98555547 0.106678218 -0.248332381 -0.967824519 0.0405795686 -0.113700002 -0.986663401 0.116480269 0.0464488454 0.992687643 0.111417003 -0.0476842411 0.995104492 -0.0865635276 -0.0228802916 0.998123467 -0.0567982458 -0.0368124135 0.042805884 -0.99840498 -0.0966514573 -0.244312406 -0.96486783 -0.0811673999 -0.425045222 -0.901525617 0.901484907 -0.396151811 -0.174323574 0.377379477 0.817124367 -0.435766488 0.531245828 -0.652708232 0.540138721 0.260763079 -0.778847218 0.570438147 0.291671723 -0.794864833 0.532087862 -0.621061385 0.684512854 0.381739408 0.0174470842 -0.791136861 -0.611390293 0.661473393 -0.205432996 -0.721283734 0.256002009 -0.965903103 0.038654428 0.0484278463 -0.998826265 0.000943252235 0.0508075431 -0.998706877 -0.00176713208 -0.0153694116 -0.995842934 0.089780964 0.0268465225 -0.989172578 0.144280404 -0.397833258 -0.907385528 -0.135573447 0.0613113679 -0.991137505 -0.117844827 0.511882186 -0.859052837 0.00220807153 0.704883814 -0.257359862 -0.660987735 0.528440595 0.0983627066 0.843252778 0.264537215 -0.0722809508 0.961662889 0.220694527 -0.0519482754 0.973958552 -0.456258595 -0.889837682 0.00412467029 -0.544233561 -0.837078691 0.0557596646 -0.484560251 -0.874520898 0.0203604624 0.314072102 -0.67152077 0.671132326 0.676551342 -0.161857605 0.718387365 0.134887308 -0.322190672 0.937015772 0.044120837 -0.531845212 -0.845691442 0.522103488 0.0638727024 -0.850487053 0.578100681 0.240451068 -0.779732585 0.50013411 0.00751696061 -0.865915358 -0.364389181 -0.462728232 0.808147967 -0.18981196 0.957855046 0.215604216 -0.137963042 0.92700249 0.348758698 -0.0315022245 0.848798215 0.527777612 0.0359100662 0.804276526 0.593169272 0.598995984 0.332322001 -0.728536844 -0.234487683 -0.861241877 0.4508636 -0.211972237 -0.861213505 0.461929679 -0.114068076 -0.854950607 0.506011844 -0.15034242 0.988412917 0.0209064689 -0.334247053 -0.854611099 0.397389889 -0.0251497831 0.905040801 -0.424580485 -0.111597687 0.973290861 -0.20062618 -0.0668250993 0.939556181 -0.335810274 0.0911238343 -0.26146242 -0.960902631 0.166449398 0.441405267 -0.881734669 0.131500348 0.666888297 -0.733462811 0.178495735 0.624309659 -0.760510802 0.639676273 -0.0343164317 -0.767878056 0.0154665997 0.963484406 -0.267317325 0.0386972651 -0.955098629 -0.293750048 -0.012612965 -0.997776508 -0.0654438809 0.0722092167 -0.944604099 0.320170105 -0.544806778 -0.819142401 -0.179419249 -0.524671435 -0.794979095 -0.304513037 -0.204891786 -0.972715259 -0.10883186 -0.0226115175 0.999738872 -0.0032994959 -0.0796394497 0.996698439 -0.0158032402 0.0528984815 0.998593807 -0.00348765962 -0.0898222774 -0.816628337 0.570131719 0.981106997 -0.193433464 -0.00354920886 0.905833066 -0.305691481 -0.293290347 -0.73201859 0.351550251 0.583576202 -0.692079306 0.415087849 0.590532243 -0.337153703 0.374476343 0.863767803 -0.122606821 0.358877152 0.925297141 -0.253541976 0.602938056 0.756427228 -0.646492302 0.762920499 -5.126822e-05 0.47574687 -0.87952733 0.00982803665 0.223391429 0.142671064 0.964230895 -0.0207105651 0.00887141563 0.999746144 0.296161652 0.929752111 -0.218744695 0.31047222 0.321710736 0.894488215 0.269921273 -0.706627905 0.654079139 -0.0193375666 0.981901467 0.188402593 -0.0948718265 0.994728327 0.0389211811 -0.044789955 0.989314258 0.138748452 -0.00972519163 0.978299141 0.206969038 0.911860764 0.196153089 -0.3606022 0.962871611 -0.0804223344 -0.25770241 0.979739308 -0.0425713286 -0.195700213 -0.0193271693 -0.916461408 -0.399656057 0.0357139595 -0.948261023 -0.315476745 -0.00670873281 -0.851980567 -0.523530424 -0.111829847 -0.899977744 -0.421348065 -0.0929167643 -0.860826671 -0.5003438 -0.115811765 -0.91291374 -0.391377211 0.265806317 0.810551465 -0.521874785 0.44720152 0.780451298 -0.436928511 0.31659776 0.805623293 -0.500736475 0.0317736678 -0.999482512 -0.00500858994 -0.32598874 -0.864907086 0.381663561 0.0284210276 -0.989386618 0.142500356 -0.476467729 -0.570825696 0.668682635 -0.495757431 -0.798767388 0.340874135 -0.225025371 -0.943721235 0.242391765 0.0289643779 0.755696118 -0.654281616 0.0253346991 0.721036434 -0.692433834 0.0139245018 0.604240835 -0.796680033 -0.31249252 -0.835472643 -0.452033073 -0.31035468 -0.820987225 0.479228437 -0.102379203 -0.973180115 -0.206007257 -0.050825458 -0.997960806 0.038613759 0.609468043 0.789098144 -0.076634571 -0.615098596 -0.787062347 0.0467608087 -0.637300849 0.758009434 -0.138813913 -0.517182052 0.653251886 -0.552978039 -0.695724785 0.375273734 -0.612484038 -0.615395069 0.521330059 -0.59118849 0.713110626 -0.700992882 0.00906345993 -0.850605249 -0.0232694186 -0.525289655 -0.327708542 0.866778612 0.37590158 -0.212841615 0.897294104 0.386732101 -0.0276064873 0.919297338 0.392594367 0.96723181 -0.0390202664 0.250878483 0.950242102 0.196663335 0.241585299 0.890601397 -0.00521151861 0.454754829 -0.141858369 0.874828577 0.463196635 -0.31167084 0.928531647 0.201718211 -0.160494417 0.95904088 0.233413965 0.499429017 0.806375027 0.316749066 0.498721391 0.80660677 0.317273527 0.49972102 0.806279182 0.316532493 0.507992506 0.803506196 0.310356796 -0.92309016 -0.2466418 -0.295080334 -0.217060953 0.973162711 0.0764128268 -0.408337742 0.91067487 0.0627020746 -0.209985912 0.975919604 0.0590499677 -0.455836296 0.884923995 0.0955133513 0.829482138 0.50169754 0.245476916 -0.232476965 0.917285919 0.323327988 0.531137764 0.768478394 0.356838405 -0.212706074 0.903406084 -0.372308403 -0.201905578 0.827203929 -0.52437377 0.802995861 -0.427498996 0.415261626 0.557631671 -0.756282926 0.342173994 0.797832727 -0.590668619 0.120720901 -0.316064179 -0.94730407 -0.0521383025 -0.87846446 0.476214021 0.0389923379 -0.711283088 0.702056587 0.0345394947 -0.926481068 0.34038499 -0.160533249 -0.526540995 0.797431231 0.294716746 -0.772833049 0.623712718 0.117096521 -0.80760181 0.583835065 0.0831623748 -0.795338213 0.594095409 0.120365106 -0.898727953 0.431964576 0.075462766 -0.172707349 0.915833831 -0.362519711 -0.127650768 0.965070248 -0.228789538 -0.218849853 0.922908068 -0.316773564 0.859656215 -0.470072508 0.200057462 0.961693704 -0.178887293 0.207712784 0.94884336 -0.262365013 0.175672725 -0.164135844 0.986436903 -0.00127806282 0.936180055 -0.262955636 -0.233283699 0.751584172 -0.554379642 -0.357469529 0.995160282 -0.0956199691 0.0226454809 0.930441618 -0.349820971 0.109103851 0.978716135 -0.18259877 -0.0936609432 0.97064209 -0.0535312295 0.234495997 0.0258664843 0.969954789 0.241906241 0.739780188 0.63366133 0.226270989 -0.26449278 0.0596376844 -0.962541878 -0.340291172 0.0189079028 -0.940129995 -0.354198843 0.0112572219 -0.935102344 0.766228378 0.182190791 -0.61619848 0.895923913 0.249120727 -0.367776006 0.990886033 0.0434968174 -0.127486795 0.985771239 0.0209640153 -0.16677992 0.976238012 0.127100721 -0.175512791 -0.992724359 0.0844258666 0.0858520269 -0.962845445 0.0708887428 0.260582983 -0.986437976 0.0710410327 0.147963673 0.973216116 -0.227117196 0.0356117487 -0.247425407 0.0685930625 -0.966475904 -0.926583707 0.0687739551 -0.369746894 -0.0614857227 -0.933632731 -0.352915674 -0.0612199344 -0.933732808 -0.352696955 -0.0422575213 -0.940558136 -0.336993545 0.989988446 -0.0546822809 -0.130125657 0.0723878592 -0.820463479 -0.567097604 0.0762040839 -0.827743173 -0.555908442 0.0402621366 -0.754116356 -0.655505478 0.0399212651 -0.00123394979 0.999202073 -0.0437495261 0.116940282 0.992174864 0.0122528104 0.0379729606 0.999203622 -0.954298437 -0.0942241475 -0.283612907 -0.577681124 0.446710259 0.683179677 -0.0657163411 -0.107395396 0.992042124 -0.00819449499 -0.71414125 0.699953616 -0.881304741 -0.381050557 -0.279468179 -0.792360842 -0.499462128 -0.350288302 -0.759714603 -0.534193456 -0.370770931 -0.923208416 -0.305250883 -0.23346965 0.861965775 0.228372023 0.452615976 0.519218922 0.780848503 0.347400844 0.339280456 0.940579832 0.0140830828 0.21224606 0.00351850037 0.977209926 0.245541126 -0.24105233 0.938937366 0.22378315 -0.027903568 0.974239469 0.290682495 -0.364650995 0.884609163 0.619520843 -0.540526152 0.569232285 0.631262779 -0.512489557 0.582118332 0.671691298 -0.393444568 0.62771976 -0.977868319 0.209218949 -0.00101021654 -0.97927469 0.202524617 -0.00221632142 -0.243746519 0.379790366 0.892382741 0.552803338 -0.668329298 0.497739345 0.00138205139 -0.198806211 0.980037868 -0.38977477 0.478856653 -0.786620557 0.92126292 -0.0233693589 -0.388237745 0.92934376 -0.111579046 0.351952046 -0.753112435 0.0329548903 -0.657065988 -0.912141442 0.142596424 -0.384271115 0.117468655 0.929547846 0.349488139 -0.288101465 0.852368414 0.436423659 -0.594025075 -0.799763739 0.0866731256 0.0422083847 -0.962113738 0.269361496 0.027407296 -0.956841946 0.289313555 -0.0445801467 -0.959966421 0.276544869 -0.908267021 0.350066423 0.229138732 -0.0127745019 0.147986338 -0.98890692 0.0167153757 0.060948927 -0.99800092 0.09436737 -0.078761071 0.992416978 0.0355080888 -0.743551314 -0.667735398 -0.0858294815 0.953034043 -0.290446937 0.29653722 -0.715084553 0.633024335 0.370070606 -0.645789981 0.66783458 0.394700468 -0.61991334 0.678173304 -0.0919768661 0.97545296 0.200079322 -0.107153706 0.973722517 0.200954184 -0.0767849386 0.97695452 0.199158013 -0.455168247 0.46302861 -0.760543466 -0.373263568 -0.894978046 -0.24431242 0.145698398 0.961604953 0.232568011 0.121357545 0.976943195 0.175653979 0.175831005 0.918731272 0.353576392 0.11034333 -0.993023813 -0.0415698886 0.097071439 -0.936425686 0.33717072 0.115913108 -0.989274979 -0.0888774693 0.257759064 -0.903992712 0.341112107 0.99656868 0.0814324915 -0.0148201855 0.917578936 0.397001863 -0.020937603 0.041467566 -0.975861251 -0.214418381 -0.110369802 -0.993840873 -0.00994396862 -0.0789315179 -0.994255483 -0.0722903237 0.0471797027 -0.870464563 0.489964813 -0.012252179 0.906588316 -0.421838224 0.99711436 -0.0758823901 -0.0022027751 0.974943101 -0.199370176 0.0986786634 0.991955817 -0.0697469488 0.10563606 0.413632929 0.906686068 -0.0826331377 -0.0126451887 0.999872863 -0.00971298665 0.0259289797 0.992426217 -0.120074712 0.0975183323 0.994275033 0.0436736234 0.142832115 0.144914642 -0.979080558 0.0514060892 -0.961929679 0.268418908 -0.0096429754 -0.997548938 0.0693049505 0.036879234 -0.974473596 0.221452206 0.863503456 0.478173047 -0.16035068 0.978160858 0.193737417 -0.0752808452 0.972832024 0.214961052 0.0859630927 -0.794220209 -0.574437857 0.198079154 -0.875524759 -0.401158571 0.269310474 -0.947935641 -0.308498174 0.0790369809 -0.99199903 -0.111907676 -0.0584342964 -0.937410533 -0.34820801 -0.00356151909 -0.987102509 -0.147644907 0.0618840009 -0.994686544 -0.102870248 -0.00404328387 -0.98760426 -0.137606695 -0.0755127817 -0.967738867 -0.0567110404 -0.245490119 -0.26347518 -0.13290222 0.955467343 -0.0949515849 -0.0677054971 0.993176818 -0.272271156 -0.102097139 0.956788659 -0.548954785 -0.211256817 0.808714509 -0.995106161 -0.0679830909 -0.0717078 -0.998165905 -0.0306340419 -0.0522151254 -0.999008179 -0.0372059681 0.0244614277 -0.98331672 -0.151908576 0.100060187 -0.566031992 -0.120600827 -0.815514088 -0.741742969 -0.653288186 0.151762471 -0.916614354 -0.388813466 0.092963174 -0.415585637 -0.877082825 0.240861624 0.241991982 -0.96401906 0.110032611 0.297574013 -0.952193618 0.0691163167 0.310571164 -0.948641121 0.0602130108 0.0785152167 -0.99680382 -0.0147500364 0.311398506 -0.949930549 0.0257483013 0.072517246 -0.997168779 0.0198903084 -0.0734255984 -0.996645868 -0.0361339785 -0.575761974 -0.785447717 0.227090389 -0.254057586 -0.967039347 0.0170204025 -0.0816505104 -0.996647835 0.0051286174 0.753893137 -0.654937387 0.0519825742 0.691197395 -0.722462177 0.0171651449 0.761237204 -0.646023929 0.0563119538 0.682415545 -0.730856657 0.0125541529 0.125165612 0.184111014 -0.974903405 0.13683179 0.199720591 -0.970251918 0.0488251671 0.0818056092 -0.995451629 -0.927837312 0.0977278948 0.359954357 -0.93848902 0.0364833735 0.343376428 -0.233183771 -0.972267687 -0.017911369 -0.990241408 -0.119248562 0.0721230507 0.973465919 0.211988583 -0.0861681625 0.937600553 0.0406258479 -0.345332742 -0.503210366 0.00178195606 0.864162087 0.800627887 0.538145363 -0.26342836 -0.762117863 -0.626205325 -0.164448276 0.598344624 -0.794972301 0.10001345 0.977385819 0.0749695301 0.197728515 0.961313903 0.208308622 0.180230573 0.955924869 0.106501445 0.273614824 -0.901529789 -0.380543143 -0.205987647 -0.962961972 -0.259511173 0.0731997713 -0.995526791 -0.0677717552 -0.0658281446 -0.645599067 -0.763673127 0.00226423121 -0.489230871 -0.872021616 -0.0152157955 0.0738691762 -0.97158742 -0.224858329 0.863197446 0.491652966 -0.114750102 0.382388651 -0.916256487 0.11938563 -0.0617423728 0.929048955 0.364768356 0.829274297 0.558804274 0.00647875294 -0.755517006 0.652689278 0.0564867333 0.387150586 -0.91424489 0.119460277 -0.728000522 -0.684298456 -0.0418436155 -0.904155493 -0.426383406 0.0264572259 -0.925848961 -0.281976968 -0.251580447 0.94226259 0.33211726 0.0428870507 0.939386845 0.342856497 0.00132103625 0.870822072 -0.460753173 -0.171392649 0.0282228813 -0.918629885 -0.394109935 -0.0256319456 -0.807661653 -0.589088798 -0.00750865834 0.961963713 -0.27307409 -0.0596919954 0.373287559 0.92579329 0.997364998 0.00312253903 0.0724799708 0.0201928355 -0.997982204 0.0601979494 0.988090754 0.151416466 0.0273799729 0.57620877 0.755112469 0.312711686 -0.977905631 -0.208723515 -0.0116211809 0.0175944529 0.192262769 0.981185734 0.141964823 0.0148716457 0.989759982 -0.0067687924 0.222371534 0.974938512 0.646264434 0.73912555 0.189830616 -0.0912447795 0.470252365 0.877802432 -0.373704076 -0.927443147 0.0139439087 -0.251307696 0.948302746 0.193820417 -0.755051076 -0.276486456 -0.594519198 0.771587729 0.221365154 0.596363842 0.582951605 0.240403846 0.776127219 0.332824856 0.271374434 0.903096616 0.65310961 -0.636591256 -0.410121262 0.00861878414 0.943338215 -0.331720918 -0.0102769379 -0.928204894 0.37192744 0.995303571 -0.0680622011 -0.0688352734 0.98909086 -0.0865735114 -0.119181648 0.991619408 0.00589637132 0.129058927 0.211732149 0.02604568 0.976980627 0.673930705 0.187311739 0.714654982 0.409621865 0.0538288169 0.91066587 -0.85419327 -0.0400437638 -0.518411338 -0.87947005 -0.13264972 -0.457095742 -0.570585847 -0.644432068 -0.509056985 0.0149910264 0.972341955 0.233080178 0.045809567 0.981333256 0.186779395 0.0252553076 -0.997581899 -0.0647500083 -0.0200063027 -0.996403515 0.082339637 -0.997606158 -0.0205212086 -0.0660362989 0.119683594 0.868538022 -0.480954885 0.111166917 0.842100561 -0.527739167 0.0668874756 0.684843242 -0.72561413 0.76211077 0.647080362 0.0217745937 -0.121054158 0.0935085192 -0.988231778 -0.0965304375 0.162239939 -0.982018352 -0.0823466256 0.200956479 -0.976132929 -0.995117903 -0.083005704 -0.0533892885 -0.977321327 -0.21069932 -0.0211854391 -0.257550687 0.91077143 -0.322742969 0.0654344559 0.641402125 -0.764409363 0.0288359448 -0.999539733 0.00942291413 -0.961616457 -0.274377435 0.00328382757 0.99999392 -0.00274318573 0.00214456464 0.999962866 -0.00749003608 -0.00426141918 0.999978542 -0.00610067043 -0.00238639978 0.999901354 -0.0108982353 -0.00886109192 0.0467578396 -0.0502229184 0.997642875 -0.0152382152 0.998477221 0.0530195758 -0.0215578843 0.998752713 0.0450357459 0.20078437 -0.657447219 -0.726256728 0.177539229 -0.675427735 -0.715735376 0.168968588 -0.681858838 -0.711700916 0.150261462 -0.695530117 -0.702609003 0.98221159 0.1869248 0.0178737156 0.0192150213 -0.39315936 -0.919269562 0.015884174 -0.239108786 -0.970862865 0.0268361513 -0.436723441 -0.899195433 0.0872891843 -0.974627197 0.206112698 0.0709788576 -0.969412804 0.234948501 0.987561464 0.156039566 -0.0193393435 0.972379684 -0.232368737 0.0219652355 0.900401354 -0.347809762 0.261353761 -0.00312779704 -0.998259902 0.0588847697 -0.0124473888 -0.998031557 -0.0614664666 0.123872623 -0.138421908 -0.98259604 0.998529732 0.0127764437 0.0526792333 -0.997278571 -0.0020479532 -0.0736968517 -0.0297561139 0.832852721 0.552694201 -0.86028868 0.509778202 -0.00543684745 -0.996064723 -0.00709394878 0.0883443281 -0.0617949888 0.967233479 -0.246253505 0.103309609 0.993020773 0.056893412 0.13191165 -0.943870604 0.302832544 -0.965011537 -0.262083858 0.00805064384 -0.0854255706 -0.924110293 -0.372454941 -0.180644333 -0.0259420387 0.983206332 -0.148308501 0.0952197164 0.98434639 0.0971929878 -0.990020514 -0.10204342 -0.0074260952 -0.657657266 -0.75328064 0.46434325 -0.885644555 -0.00436950102 0.467289716 -0.88409251 -0.00455872063 0.368222475 -0.929736257 0.00165602274 0.988700628 -0.0662723035 0.134458393 0.983097672 -0.112790003 0.144212827 0.892250955 -0.155031279 0.424091458 0.99904418 0.0437114649 -5.96212249e-06 0.998706043 -0.00535424659 0.0505728051 0.144883618 0.687810004 -0.711284816 0.0790110752 0.748041332 -0.658931971 0.297826111 -0.954601884 0.00590174505 -0.150559455 -0.00804561097 0.988568187 0.00560078956 0.0448267013 0.998979092 -0.0461842529 0.139785886 0.989104092 -0.306393772 -0.0505324416 0.950562656 -0.182626382 -0.0161034297 0.983050525 -0.260270357 -0.0376302786 0.964802206 -0.563202143 -0.124198861 0.816932023 0.387273043 0.245085418 0.888792872 -0.989412487 0.0664717928 0.129013136 0.121921636 -0.0863312408 0.988778055 0.464187741 0.819422364 -0.336268902 0.0689261034 0.992605805 -0.0999147296 0.070512712 0.9936288 -0.0879193842 0.00778202154 -0.967735648 -0.251847416 0.000816059881 0.0832473934 -0.996528566 0.028719008 0.129902467 -0.991110802 0.0138739869 0.105111308 -0.994363666 -0.0180395469 0.0515815727 -0.998505831 0.0241195578 0.999218524 -0.0313146524 -0.817284882 0.3114115 -0.484838486 0.961122215 0.0679095313 -0.26764223 0.957991719 0.068368338 -0.278527647 0.601417542 0.782196879 0.162680611 0.926414013 -0.0995626301 0.363103837 0.994903624 -0.0255103633 0.0975500569 0.970177412 -0.223132536 0.0946975201 0.997708201 0.0256989785 0.0625936612 0.899262011 -0.435108095 0.0448189974 0.946461499 0.163659334 0.27825579 0.988873124 -0.146568075 0.0254511647 0.972610056 -0.226542637 0.0520392694 0.963462889 -0.115413442 -0.241700172 0.94875741 -0.156047717 -0.274788141 0.91681999 0.145439118 0.37187168 0.967976749 0.0562304854 0.244661331 0.96772778 0.0709526017 0.241803005 0.99564451 -0.0810275823 0.0461149812 0.906558871 0.274325609 0.320774764 0.774816632 -0.55579406 0.301250875 0.987841249 0.070912227 0.138351545 0.957208991 -0.100699544 -0.271312624 0.94159013 0.322790653 -0.095990926 0.0328998566 0.224099189 -0.974010885 0.849782348 0.320425421 -0.418565989 -0.0724746808 -0.923183918 0.377463669 -0.00829281844 0.992619991 -0.120982803 0.946426094 -0.312054396 0.0830646604 0.987824559 -0.151610956 0.0348828584 0.0111304959 -0.231833234 -0.972691834 0.88758409 0.0873661712 -0.452284873 -0.499989212 -0.674001336 0.543813348 0.0705539808 0.996978164 -0.0325058214 -0.0153394267 0.0498262495 -0.99864012 0.0246737637 0.0745192915 -0.996914268 0.142835289 0.205590934 -0.968158305 -0.0953837857 -0.00785188377 -0.995409608 -0.113788038 0.00875280891 -0.993466496 0.570219278 -0.585060537 0.576674998 0.0461409688 -0.869395673 0.491957486 -0.0652293339 -0.864779472 0.497897238 -0.0938621834 -0.877389312 0.470508158 -0.194903612 0.976842821 0.0882651582 -0.0660202354 -0.358389109 -0.931234956 -0.0521990769 -0.152234018 -0.98696506 -0.16087991 -0.187289029 -0.96904099 -0.0208335873 0.193512335 0.980876625 0.0331692398 0.062921837 0.997467101 0.745873094 0.658848286 -0.0979400799 -0.0624885634 0.784085393 -0.617499232 -0.998705447 0.00415618392 0.0506969094 -0.986529171 -0.0119461771 -0.163148776 -0.947522461 -0.0189159941 -0.319129109 -0.977370799 -0.034593787 -0.208685413 -0.993557513 -0.013407859 -0.112533338 -0.995555401 -0.0299370419 -0.0892928019 0.966043353 -0.228271306 -0.121047281 -0.0779637992 0.94587183 -0.315036774 -0.93691957 0.336496145 -0.0946151167 -0.968511462 0.248956904 -0.00244125328 -0.80465138 0.513616204 -0.297883511 -0.923776269 0.28139466 -0.259719968 0.0223203544 -0.690738261 -0.72276032 0.023613438 0.966299295 0.256335914 -0.20765923 0.111545376 -0.971820593 0.0228288062 -0.999549389 0.0194913074 -0.973785341 -0.227388918 0.00603201613 0.978882611 -0.0467047691 -0.199016333 0.998458743 -0.0534138903 -0.0150679369 0.987633586 -0.125463441 0.0940147415 -0.0405570567 0.310866117 -0.949588001 -0.993537009 -0.0743981525 0.0857268646 -0.991317868 -0.0245000925 0.129184648 0.0218874738 -0.0221983064 -0.999513984 0.011932116 -0.0268940069 -0.999567091 -0.0136853559 -0.0629114285 -0.997925282 0.0348015167 -0.055892352 0.997830093 -0.999810815 0.019006243 0.00413752114 -0.989296913 -0.0025715027 -0.145893797 -0.990908086 -0.000923163199 -0.13453722 -0.999062538 0.0235774759 0.0363061018 0.116694607 0.810981691 -0.573315859 -0.133782193 -0.589761257 -0.796419501 -0.0930147246 0.288538098 -0.952939689 0.261874765 0.960823536 0.0907729864 0.278773963 -0.730177402 0.623799741 -0.112192214 0.973096907 0.201234549 -0.4739407 0.700644135 -0.533364832 0.002207682 0.14817442 -0.988958776 -0.415610462 -0.907519162 0.0606379099 0.0107428897 -0.993942022 0.109379143 -0.399841577 -0.00547242723 0.916567922 -0.739441693 0.673220575 -0.000331194664 -0.493043721 0.811591625 0.313411772 -0.00713053113 -0.0568439923 -0.998357594 -0.0601915792 -0.0330810957 -0.997638524 0.17949751 -0.0423342288 -0.982847095 0.0709360763 -0.247254387 -0.966350496 0.00207368913 -0.197455719 -0.980309606 -0.975836694 0.216314152 0.0308365636 -0.644911826 -0.710129499 0.282497466 0.981772721 0.187270314 -0.0324375816 0.949934125 0.30735907 -0.0561749078 -0.0841021091 -0.994701803 0.0591201112 0.234141961 0.329649836 -0.914608419 -0.00640085759 -0.998286366 -0.0581668727 0.971827507 -0.170133218 0.163113341 0.0938883647 -0.95962292 -0.265158087 -0.0199835636 -0.99918288 0.0351318456 0.0635036156 0.671680868 -0.73811388 0.00703915488 0.528441787 -0.848940372 0.0162478723 0.919827402 0.391986638 -0.074861899 0.964041173 -0.254990727 0.158396095 0.0226635821 0.987115502 -0.999839842 -0.014828762 -0.0100195296 -0.999312401 -0.0100776376 -0.0356807224 -0.999815524 -0.0143132731 -0.0128066987 -0.998891294 -0.00809410028 -0.0463758223 0.981396496 0.0289812684 0.189792022 -0.980952799 -0.128478393 -0.145687908 0.171012253 -0.369118452 -0.913513184</float_array>
          <technique_common>
            <accessor source="#normals_array" count="718" stride="3">
              <param name="X" type="float" />
              <param name="Y" type="float" />
              <param name="Z" type="float" />
            </accessor>
          </technique_common>
        </source>
        <vertices id="vertices">
          <input semantic="POSITION" source="#positions" />
        </vertices>
        <triangles material="scout_b2b2b2" count="610">
          <input semantic="VERTEX" source="#vertices" offset="0" />
          <input semantic="NORMAL" source="#normals" offset="1" />
          <p>0 0 1 1 2 2 3 3 4 4 5 5 6 6 7 6 0 6 3 3 8 7 9 8 10 9 5 5 11 10 10 9 3 3 5 5 12 11 10 12 11 13 13 14 14 15 15 16 16 17 17 18 18 19 19 20 20 21 21 22 22 23 23 24 3 3 24 25 25 26 26 27 23 24 27 28 3 3 26 27 8 29 27 30 28 31 12 32 29 33 30 34 31 35 32 36 25 37 23 37 22 37 23 38 25 38 24 38 23 39 26 27 27 30 33 40 34 41 35 42 36 43 37 44 18 45 35 42 29 33 12 32 1 46 38 46 2 46 18 45 22 23 36 43 39 47 40 47 11 47 41 48 38 48 42 48 43 49 44 49 45 49 45 50 46 51 43 52 47 53 46 53 45 53 44 54 46 55 47 56 46 57 48 58 49 59 49 60 47 61 45 62 48 63 47 61 49 60 50 64 49 65 45 66 50 64 51 67 49 65 48 68 51 68 50 68 52 69 53 69 54 69 55 70 52 71 56 72 57 73 58 73 0 73 3 3 59 74 8 7 59 75 60 76 34 41 59 75 34 41 61 77 27 28 59 74 3 3 62 78 60 76 59 75 63 79 64 79 17 79 27 28 62 80 59 74 59 75 61 77 65 81 66 82 59 75 65 81 67 83 68 84 69 85 70 86 71 86 66 86 72 87 66 82 65 81 71 88 72 88 65 88 70 89 72 89 71 89 73 90 70 90 66 90 74 91 66 91 71 91 75 92 76 92 77 92 78 93 79 94 77 95 78 93 77 95 80 96 76 97 75 97 79 97 81 98 82 99 83 100 57 101 84 102 85 103 18 104 25 104 22 104 23 105 24 105 18 105 23 106 62 107 26 108 62 109 24 25 26 27 27 28 24 110 62 80 11 111 53 111 86 111 87 112 18 19 24 113 87 112 24 113 27 114 88 115 85 116 84 117 17 118 36 43 28 119 15 120 28 31 89 121 90 122 91 122 43 122 17 118 92 123 36 43 15 16 14 15 28 124 93 125 60 76 62 78 15 120 89 121 93 125 92 123 94 126 36 43 95 127 96 128 97 129 98 130 99 131 37 44 39 132 41 132 40 132 17 133 100 134 39 135 64 136 100 136 17 136 92 137 17 18 16 17 101 138 102 138 103 138 28 124 14 15 17 139 16 140 94 141 92 142 98 143 94 141 16 140 15 16 104 144 13 14 104 144 105 145 13 14 104 144 106 146 105 145 77 147 76 147 80 147 100 134 75 148 107 149 108 150 21 22 20 21 109 151 110 151 111 151 109 152 111 153 112 154 113 155 111 155 110 155 112 156 113 156 110 156 114 157 115 157 116 157 117 158 118 159 119 160 120 161 114 162 119 160 115 163 121 164 122 165 123 166 77 166 79 166 57 167 2 168 124 169 75 170 78 171 123 172 125 173 126 174 73 175 102 176 101 176 127 176 113 177 128 178 111 179 129 180 112 180 128 180 130 181 128 182 110 183 128 182 112 184 110 183 129 185 128 178 113 177 129 186 131 187 130 188 130 181 131 189 128 182 131 187 129 186 113 190 128 191 132 192 111 193 113 194 132 194 131 194 110 195 109 196 103 197 121 198 68 198 133 198 13 14 134 199 14 15 127 200 101 200 103 200 119 160 118 159 135 201 120 161 119 160 135 201 115 202 114 162 120 161 69 203 115 163 120 204 68 205 121 164 115 163 136 206 137 207 138 208 63 209 112 154 111 153 62 107 87 210 139 211 139 212 104 213 62 78 99 131 62 107 37 44 99 131 87 210 62 107 140 214 104 213 139 212 82 215 139 212 141 216 140 214 139 212 82 215 142 217 82 217 141 217 142 218 143 218 82 218 143 219 141 220 83 100 143 221 142 221 144 221 145 222 140 214 82 215 146 223 52 223 54 223 52 224 146 225 147 226 52 224 147 226 56 227 80 228 148 229 123 230 12 231 149 232 35 233 150 234 48 235 91 236 151 237 50 238 152 239 51 240 150 241 151 242 150 241 152 243 50 244 150 241 153 245 151 242 150 246 154 247 152 248 91 236 154 249 150 234 153 245 150 241 50 244 155 250 132 251 113 252 156 253 52 71 55 70 156 254 55 254 54 254 157 255 42 255 158 255 55 256 147 257 146 258 54 259 147 259 157 259 42 260 159 260 158 260 159 261 42 262 57 263 160 264 161 265 162 266 154 267 163 268 90 269 91 270 153 271 50 272 91 270 50 272 154 273 38 274 159 274 57 274 164 275 165 276 166 277 164 275 167 278 165 276 21 279 149 279 19 279 154 267 50 64 163 268 168 280 163 268 50 64 19 281 163 281 168 281 163 268 19 282 90 269 90 269 19 282 149 283 169 284 125 285 170 286 31 35 170 286 32 36 33 40 35 42 171 287 172 288 173 289 174 290 21 291 97 292 149 293 175 294 97 129 108 295 40 296 176 297 55 298 173 299 177 300 178 301 179 302 136 206 13 14 97 303 30 34 149 304 180 305 172 306 95 307 177 300 181 308 178 301 90 309 12 11 11 13 182 310 181 310 183 310 184 311 185 312 20 313 97 303 186 314 187 315 188 316 185 317 189 318 6 319 189 320 20 321 190 322 31 35 30 34 185 312 184 311 191 323 192 324 96 128 174 290 160 264 169 284 190 322 107 325 41 326 39 327 187 315 193 328 97 303 194 329 195 330 196 331 197 332 2 333 102 334 192 324 198 335 96 128 74 336 71 336 65 336 74 337 65 338 73 175 72 339 74 340 73 341 72 339 70 342 74 340 199 343 70 343 73 343 70 344 199 344 74 344 66 345 72 345 73 345 200 346 74 347 126 348 126 348 74 347 199 349 200 350 201 351 74 352 99 353 98 354 87 112 126 355 199 355 73 355 202 356 201 351 200 350 203 357 200 346 126 348 178 358 204 358 174 358 182 359 204 359 178 359 181 308 182 360 178 301 182 361 192 324 204 362 1 363 0 363 38 363 76 364 79 364 78 364 123 172 78 171 80 365 38 366 157 367 159 368 78 369 148 369 76 369 100 134 63 370 148 371 197 332 102 334 195 372 205 373 194 329 196 331 111 193 132 192 206 374 130 375 132 376 155 377 132 378 103 379 207 380 207 381 130 381 155 381 103 382 130 382 207 382 206 383 130 384 103 385 207 386 206 387 132 388 155 389 206 387 207 386 161 265 208 390 209 391 91 236 48 235 44 392 210 393 120 161 135 201 135 201 211 394 210 393 212 395 120 161 210 393 213 396 17 139 14 15 169 284 126 174 125 173 214 397 117 398 119 399 215 400 216 401 217 402 106 146 218 403 215 400 63 404 219 404 191 404 219 405 63 406 213 407 220 408 191 409 219 410 221 411 191 412 222 413 223 414 224 415 225 416 226 417 227 418 228 419 221 411 155 250 191 412 229 420 205 421 230 422 231 423 229 420 230 422 232 424 231 425 230 426 223 414 232 424 224 415 227 418 226 417 233 427 234 428 235 428 236 428 219 429 237 430 220 431 237 432 238 433 220 434 231 435 232 436 239 437 232 436 223 438 239 437 210 393 211 394 223 438 240 439 67 440 233 441 233 441 210 393 223 438 226 442 240 443 233 444 235 445 240 443 226 442 195 446 2 447 197 448 241 449 184 450 189 320 6 451 184 451 241 451 188 452 6 452 241 452 6 453 188 316 189 318 188 316 241 454 191 409 242 455 183 455 181 455 213 456 187 315 186 314 159 457 123 457 158 457 243 458 183 458 242 458 242 459 244 460 243 461 219 429 213 462 186 463 126 174 169 284 162 266 227 464 224 415 230 426 225 465 224 415 227 464 236 466 228 466 227 466 137 207 105 145 217 402 120 467 67 83 69 85 213 456 134 468 187 315 237 430 219 429 186 463 237 432 245 469 238 433 246 470 50 64 45 66 134 468 247 471 209 391 247 472 134 472 245 472 245 469 237 432 247 473 247 471 215 400 209 391 215 474 247 475 248 476 215 477 244 460 249 478 215 479 248 479 244 479 30 480 32 481 35 233 46 482 49 482 152 482 50 483 151 483 48 483 36 43 10 9 12 484 196 485 195 485 102 485 249 478 244 460 250 486 187 315 208 390 193 328 251 487 161 265 209 391 248 476 247 475 252 488 253 489 202 490 254 491 83 492 254 492 203 492 83 493 253 489 254 491 82 99 143 219 83 100 144 494 82 494 81 494 144 495 255 495 82 495 144 496 142 496 255 496 142 497 81 498 255 499 141 500 143 500 144 500 81 501 141 501 144 501 81 502 142 502 141 502 202 503 200 504 203 505 81 98 83 100 203 357 81 98 203 357 162 506 256 507 81 498 162 508 255 499 81 498 256 507 251 487 145 222 256 507 182 361 243 509 192 324 244 510 198 335 243 509 161 265 256 507 162 266 53 511 56 511 54 511 251 487 256 507 161 265 145 512 218 403 140 513 140 513 218 403 106 146 32 514 170 515 171 287 25 26 11 516 26 27 91 517 90 518 86 519 257 520 4 4 3 3 239 437 223 438 211 394 11 521 40 522 53 523 26 27 5 524 4 525 169 284 31 35 190 322 176 297 258 526 55 298 224 415 232 424 230 426 39 135 100 134 107 149 20 21 185 317 188 316 46 57 44 527 48 58 179 302 137 207 136 206 259 528 125 173 33 40 33 40 125 173 61 77 168 280 50 64 246 470 3 3 10 9 22 23 125 173 73 175 65 338 33 40 61 77 34 41 26 27 4 525 257 529 31 35 169 284 170 286 23 106 37 44 62 107 43 52 154 267 90 269 260 530 124 531 261 532 262 533 261 532 124 531 26 27 11 516 5 524 85 116 88 115 57 534 125 173 259 528 170 515 166 277 260 535 261 536 173 299 172 306 177 300 97 129 175 294 95 127 22 23 10 9 36 43 45 537 44 538 246 539 44 538 153 540 246 539 157 541 123 541 159 541 138 208 137 207 216 401 156 542 86 543 53 544 38 366 41 545 258 546 105 547 179 547 13 547 117 398 124 548 263 549 61 77 125 173 65 338 67 83 234 550 68 84 93 125 89 121 60 76 239 437 229 551 231 435 57 101 264 552 84 102 89 121 28 31 29 33 3 3 9 8 257 520 36 43 12 484 28 553 174 290 96 128 172 288 39 554 18 19 17 18 171 287 259 528 33 40 35 42 60 76 29 33 94 126 37 44 36 43 16 17 87 112 98 354 193 328 190 322 30 34 264 555 88 555 84 555 94 126 98 130 37 44 177 300 172 306 180 305 104 556 15 120 93 125 96 128 265 557 97 129 41 558 42 559 176 297 37 44 23 106 18 45 104 213 93 125 62 78 58 560 42 560 0 560 26 27 9 561 8 29 41 326 107 325 258 562 139 563 59 75 83 100 74 564 83 100 59 75 44 392 43 565 91 236 35 233 32 481 171 566 116 567 262 568 124 569 122 570 116 571 115 572 190 322 193 328 208 390 124 548 117 398 214 397 116 573 214 397 114 574 119 399 114 574 214 397 209 391 215 400 251 487 266 575 103 197 109 196 109 196 267 576 266 575 124 569 214 577 116 567 208 390 160 264 190 322 95 127 172 288 96 128 7 578 264 579 165 580 165 581 230 582 196 583 165 581 196 583 2 584 7 585 165 585 2 585 57 586 7 586 2 586 194 587 124 169 2 168 123 588 79 588 75 588 155 250 112 154 63 209 112 589 129 590 206 383 128 591 131 591 132 591 236 592 133 593 68 594 68 594 234 595 236 592 268 596 13 14 136 206 69 203 68 205 115 163 137 597 179 597 105 597 247 475 186 463 252 488 7 598 57 598 0 598 266 599 196 599 127 599 196 600 102 600 127 600 266 601 127 601 103 601 134 199 13 14 268 596 156 602 157 603 57 604 157 603 158 605 57 604 91 606 156 602 153 607 153 607 156 602 88 608 156 602 57 604 88 608 123 230 148 229 158 609 148 229 63 610 158 609 158 611 63 612 38 613 38 613 63 612 2 614 57 615 158 611 38 613 63 616 206 616 103 616 103 617 102 618 2 614 2 614 63 612 103 617 192 324 174 290 204 362 40 296 41 558 176 297 238 619 191 409 220 408 54 620 56 620 147 620 145 222 82 215 255 499 75 148 100 134 148 371 80 228 76 621 148 229 29 33 60 76 89 121 154 267 43 52 46 51 151 242 153 245 48 622 153 245 44 54 47 56 51 623 48 623 150 623 153 607 88 608 264 624 153 607 264 624 246 625 86 543 156 542 91 626 156 627 54 627 157 627 42 628 258 628 176 628 268 596 269 629 134 199 164 275 166 277 261 536 25 26 39 554 11 516 171 287 170 515 259 528 264 630 168 631 246 632 6 633 168 631 264 630 7 634 6 633 264 630 112 154 267 635 109 152 221 636 267 637 206 387 206 387 155 389 221 636 112 638 206 387 267 637 14 15 134 199 213 396 106 146 215 400 105 145 149 232 30 480 35 233 167 278 164 275 270 639 215 400 217 402 105 145 133 640 262 641 121 642 165 580 264 579 166 643 124 169 260 644 264 579 260 644 166 643 264 579 57 167 124 169 264 579 265 557 252 488 186 463 178 645 174 645 173 645 26 27 257 529 9 561 148 646 78 646 75 646 230 426 165 647 167 648 227 464 230 426 167 648 270 649 236 650 167 648 236 650 227 464 167 648 30 34 97 303 193 328 236 651 235 652 228 419 180 305 95 307 175 653 111 193 206 374 63 654 19 655 6 656 20 657 203 357 126 348 162 506 77 658 107 658 75 658 53 544 52 659 156 542 235 652 226 417 228 419 180 305 20 21 188 316 90 309 149 660 12 11 186 463 97 129 265 557 20 321 189 320 184 450 18 19 39 554 25 26 123 661 55 661 107 661 263 662 229 551 239 437 55 663 258 663 107 663 183 664 243 664 182 664 191 409 189 318 185 317 121 665 262 666 116 571 121 665 116 571 122 570 269 629 268 596 136 206 136 206 138 208 269 629 40 522 55 667 53 523 6 668 191 412 184 669 112 154 155 250 113 252 261 670 262 641 270 671 262 641 236 672 270 671 177 300 180 305 250 486 250 486 181 308 177 300 194 587 263 673 124 169 87 674 8 675 59 676 87 674 59 676 139 677 151 237 152 239 51 678 152 679 49 679 51 679 130 384 206 383 129 590 263 662 118 159 117 158 258 546 157 367 38 366 162 266 169 284 160 264 63 370 100 134 64 680 42 681 157 681 258 681 139 563 83 100 141 220 237 430 186 463 247 475 205 421 229 420 263 673 194 587 205 421 263 673 130 375 110 682 132 376 110 683 103 379 132 378 54 684 55 256 146 258 238 619 249 478 191 409 118 159 239 437 211 394 211 394 135 201 118 159 239 437 118 159 263 662 216 401 137 207 217 402 2 2 6 685 0 0 212 686 210 393 67 440 198 335 244 510 248 476 266 687 267 637 221 636 87 688 27 688 8 688 269 689 138 689 216 689 216 401 134 199 269 629 215 400 134 199 216 401 236 672 262 641 133 640 108 690 97 292 21 291 196 691 222 692 6 685 6 685 2 2 196 691 180 305 188 316 250 486 175 653 108 150 20 21 230 693 205 693 196 693 191 412 155 250 63 209 74 564 59 75 66 82 266 694 221 695 196 691 221 695 222 692 196 691 140 513 106 146 104 144 168 696 6 656 19 655 233 427 223 414 225 416 175 653 20 21 180 305 67 440 240 439 235 697 210 393 233 441 67 440 134 698 215 477 245 699 67 83 235 700 234 550 245 699 215 477 249 478 164 275 261 536 270 639 218 403 251 487 215 400 195 446 194 701 2 447 191 409 241 454 189 318 6 668 222 413 191 412 107 702 77 702 123 702 0 703 42 703 38 703 120 467 212 704 67 83 63 406 17 705 213 407 134 468 209 391 187 315 249 478 238 619 245 699 90 518 11 706 86 519 233 427 225 416 227 418 16 17 18 19 87 112 154 247 46 707 152 248 58 708 57 263 42 262 153 245 47 56 48 622 96 128 252 488 265 557 252 488 96 128 198 335 242 459 181 308 250 486 252 488 198 335 248 476 250 486 188 316 191 409 34 41 60 76 35 42 187 315 209 391 208 390 250 486 191 409 249 478 244 460 242 459 250 486 157 709 147 709 55 709 253 489 201 710 202 490 83 711 74 712 253 713 201 714 253 713 74 712 145 512 251 487 218 403 192 324 243 509 198 335 254 715 202 503 203 505 161 265 160 264 208 390 145 222 255 499 256 507 53 716 55 716 56 716 55 717 123 717 157 717</p>
        </triangles>
      </mesh>
    </geometry>
  </library_geometries>
  <library_visual_scenes>
    <visual_scene id="scene">
      <node id="torso_link_rev_1_0">
        <instance_geometry url="#geometry">
          <bind_material>
            <technique_common>
              <instance_material symbol="scout_b2b2b2" target="#scout_b2b2b2" />
            </technique_common>
          </bind_material>
        </instance_geometry>
      </node>
    </visual_scene>
  </library_visual_scenes>
  <scene>
    <instance_visual_scene url="#scene" />
  </scene>
</COLLADA>