<?xml version='1.0' encoding='utf-8'?>
<COLLADA xmlns="http://www.collada.org/2005/11/COLLADASchema" version="1.4.1">
  <asset>
    <created>2026-09-14T00:00:00Z</created>
    <modified>2026-09-14T00:00:00Z</modified>
    <unit name="metre" meter="1" />
    <up_axis>Z_UP</up_axis>
  </asset>
  <library_effects>
    <effect id="scout_b2b2b2_effect">
      <profile_COMMON>
        <technique sid="common">
          <lambert>
            <emission>
              <color>0 0 0 1</color>
            </emission>
            <ambient>
              <color>0.35 0.35 0.35 1</color>
            </ambient>
            <diffuse>
              <color>0.7 0.7 0.7 1</color>
            </diffuse>
          </lambert>
        </technique>
      </profile_COMMON>
    </effect>
  </library_effects>
  <library_materials>
    <material id="scout_b2b2b2" name="scout_b2b2b2">
      <instance_effect url="#scout_b2b2b2_effect" />
    </material>
  </library_materials>
  <library_geometries>
    <geometry id="geometry" name="waist_roll_link_rev_1_0">
      <mesh>
        <source id="positions">
          <float_array id="positions_array" count="75">-0.01746119 0.00122566614 0.00496933283 -0.0181324258 -0.00110529806 -0.00443348708 -0.0103084696 -0.00557086384 0.00202525314 -0.0102726677 0.0055292137 0.00224592397 -0.0101086237 0.000117477197 -0.00571595784 -0.00888679642 -0.0106990375 0.0049008918 -6.56275442e-05 0.00989195332 -0.00687673315 -0.00860625971 0.00964683853 0.00745232869 -0.00979314651 0.00890508015 -0.0075233602 -0.00963218417 -0.00139355334 0.0118235499 0.00980270654 -0.00166503771 -0.0112545891 0.00898848381 -0.00984407775 -0.00641102577 -0.00934612285 -0.0062092049 -0.0107545806 0.00648848992 0.00992092397 0.00107411598 6.49759386e-05 -0.00989167858 -0.00687758485 0.00899056252 -0.0111222565 0.00329672894 -0.00274059083 0.00989138242 0.00633779541 0.0166704115 -0.004375319 -0.00270541082 0.0104343602 -0.00610418152 -0.000817506341 0.010258236 0.00336815882 0.00459884247 0.0167866498 0.00430905167 -0.0027130465 0.00961516239 -0.00219441345 0.0115490854 0.00940074213 0.00859121047 0.00830677059 0.00930087361 0.00929176807 -0.00724886125 0.0170781445 -6.83764592e-05 0.00525141228</float_array>
          <technique_common>
            <accessor source="#positions_array" count="25" stride="3">
              <param name="X" type="float" />
              <param name="Y" type="float" />
              <param name="Z" type="float" />
            </accessor>
          </technique_common>
        </source>
        <source id="normals">
          <float_array id="normals_array" count="216">-0.618802249 -0.751014054 0.23035109 -0.38361001 0.840241432 -0.383194089 -0.41306442 0.841039777 -0.349327654 -0.211181834 0.806358874 -0.552437901 0.825121343 -0.0308197588 0.564114213 0.834641218 -0.0435010158 0.549073517 0.857094765 -0.0757188201 0.509563804 -0.99003917 0.120698489 0.0724865124 0.0998162776 -0.514340699 -0.851757228 0.0907451063 -0.541226387 -0.83596611 0.0825630352 -0.564754725 -0.821118414 -0.764795303 -0.0105843833 0.644186437 -0.758291662 -0.0157188214 0.651725888 -0.752779722 -0.0200112537 0.657968283 -0.215103701 0.021213077 -0.976360798 -0.105077095 0.100409426 -0.989382029 -0.272726268 0.0240524653 -0.961790979 0.00835689623 -0.650008559 0.75988096 0.0288583953 -0.627040923 0.778451622 0.058036834 -0.592877269 0.803198755 0.132561833 -0.909187496 -0.394721985 -0.489536911 -0.148953274 -0.859166205 0.0282783005 -0.80586201 -0.591427743 -0.551588535 0.817955911 -0.163395748 0.364497006 -0.0196838435 0.930996478 -0.420338959 0.868241787 -0.263574123 0.795974374 0.00522862095 0.605307758 -0.0981175825 0.99431026 -0.0414728262 0.0256437864 0.288260579 0.957208574 0.00891655684 0.317033708 0.948372364 -0.00524946442 0.341093272 0.94001478 -0.771607935 -0.00512124645 0.636077762 0.0121130589 -0.991370082 -0.130531907 0.972869396 -0.215001762 -0.0854361206 0.986705124 -0.157343432 0.0406945422 0.994104683 -0.107469052 -0.0143627841 -0.257365733 -0.930844545 -0.259405732 0.00623160508 0.355722964 -0.93457067 -0.0439283401 0.271839201 -0.961339533 0.00116366567 0.540007591 -0.841659367 0.998944581 -0.0134089049 -0.0439308137 -0.317904234 -0.475083083 0.820507765 -0.0744500607 0.206375316 -0.975636423 -0.0277552102 0.286593258 -0.957650244 -0.0177321881 -0.678004444 0.73484385 0.0355146676 0.920595169 0.388900042 0.143175364 0.979562581 0.141272783 0.0448882617 0.938331246 0.342811257 0.202566117 0.977829337 0.0530733243 0.123443462 0.99179405 -0.0332602337 0.0616955832 0.996606529 -0.0544890948 -0.994782388 -0.0119130732 -0.101321615 -0.998836637 0.0277467221 -0.0394393317 -0.99714309 0.0208662245 -0.0725969523 -0.984597862 -0.173104748 0.0245322194 -0.991326749 -0.0933217332 -0.0925330892 -0.970308185 -0.233386695 0.0635034516 -0.993361235 -0.0637644455 0.0957471952 -0.997679114 0.00186471362 0.068065539 0.945502102 0.29062736 0.146838367 0.359723806 -0.82815367 0.429837465 0.777858794 -0.0109640732 -0.628343463 -0.190228626 0.124738418 -0.973783016 -0.0223927982 0.36983189 0.928828776 0.997400761 -0.0455649048 0.0558174253 0.997002721 0.0533419289 0.0560378209 0.948210299 -0.313704312 -0.0498685017 0.991098881 0.114510477 0.0678995475 0.995614946 0.0856428295 -0.0376316682 0.996788323 0.0634947419 -0.0488000736 0.0422759987 -0.671159029 -0.74010694 0.3711178 0.819438577 0.43679747</float_array>
          <technique_common>
            <accessor source="#normals_array" count="72" stride="3">
              <param name="X" type="float" />
              <param name="Y" type="float" />
              <param name="Z" type="float" />
            </accessor>
          </technique_common>
        </source>
        <vertices id="vertices">
          <input semantic="POSITION" source="#positions" />
        </vertices>
        <triangles material="scout_b2b2b2" count="50">
          <input semantic="VERTEX" source="#vertices" offset="0" />
          <input semantic="NORMAL" source="#normals" offset="1" />
          <p>0 0 1 0 2 0 1 1 3 2 4 3 5 4 6 5 7 6 7 7 8 7 9 7 10 8 11 9 12 10 13 11 14 12 15 13 15 14 5 15 16 16 15 17 9 18 5 19 17 20 18 20 10 20 15 14 16 16 13 21 1 22 4 22 2 22 1 1 0 23 3 2 0 24 2 24 3 24 10 25 19 25 20 25 5 4 14 26 6 5 6 27 8 27 7 27 21 28 22 29 9 30 13 11 6 31 14 12 14 32 11 32 15 32 10 33 15 34 11 35 12 36 14 36 5 36 23 37 8 38 6 39 20 40 24 40 17 40 19 41 18 41 24 41 12 42 8 38 10 43 8 38 23 37 10 43 15 17 21 44 9 18 7 45 22 46 16 47 22 46 13 48 16 47 13 48 22 46 23 49 6 50 13 48 23 49 4 51 3 52 8 53 2 54 4 51 12 55 12 55 4 51 8 53 12 55 5 56 2 54 5 56 9 57 2 54 3 58 2 54 9 57 8 59 3 59 9 59 17 60 24 60 18 60 20 61 17 61 10 61 16 16 5 15 7 62 7 63 9 30 22 29 21 64 15 34 19 65 15 34 18 66 19 65 15 34 10 33 18 66 22 67 21 64 19 65 23 68 22 67 19 65 19 65 10 69 23 68 12 10 11 9 14 70 24 71 20 71 19 71</p>
        </triangles>
      </mesh>
    </geometry>
  </library_geometries>
  <library_visual_scenes>
    <visual_scene id="scene">
      <node id="waist_roll_link_rev_1_0">
        <instance_geometry url="#geometry">
          <bind_material>
            <technique_common>
              <instance_material symbol="scout_b2b2b2" target="#scout_b2b2b2" />
            </technique_common>
          </bind_material>
        </instance_geometry>
      </node>
    </visual_scene>
  </library_visual_scenes>
  <scene>
    <instance_visual_scene url="#scene" />
  </scene>
</COLLADA>