<?xml version='1.0' encoding='utf-8'?>
<COLLADA xmlns="http://www.collada.org/2005/11/COLLADASchema" version="1.4.1">
  <asset>
    <created>2026-09-14T00:00:00Z</created>
    <modified>2026-09-14T00:00:00Z</modified>
    <unit name="metre" meter="1" />
    <up_axis>Z_UP</up_axis>
  </asset>
  <library_effects>
    <effect id="scout_b2b2b2_effect">
      <profile_COMMON>
        <technique sid="common">
          <lambert>
            <emission>
              <color>0 0 0 1</color>
            </emission>
            <ambient>
              <color>0.35 0.35 0.35 1</color>
            </ambient>
            <diffuse>
              <color>0.7 0.7 0.7 1</color>
            </diffuse>
          </lambert>
        </technique>
      </profile_COMMON>
    </effect>
  </library_effects>
  <library_materials>
    <material id="scout_b2b2b2" name="scout_b2b2b2">
      <instance_effect url="#scout_b2b2b2_effect" />
    </material>
  </library_materials>
  <library_geometries>
    <geometry id="geometry" name="waist_yaw_link_rev_1_0">
      <mesh>
        <source id="positions">
          <float_array id="positions_array" count="144">-0.0244539361 0.00542282825 -0.000201565519 -0.0412619449 -0.0106921718 0.00329583534 -0.0425250791 0.00291058281 0.00329801021 -0.0204473324 -0.0151576214 -0.000208625643 -0.0414856374 -0.0097989589 0.0153056579 -0.0200505313 -0.00387711078 0.0535891205 -0.0424674265 0.00371669047 0.0153424107 -0.0200269707 0.00477320328 0.0530010834 -0.0377031602 0.0203618445 0.0153073687 -0.0382939428 0.0192260575 0.00330407661 0.0320718363 -0.0284395907 0.0033119591 0.0147077022 -0.0401469804 0.00329081272 0.00581002422 -0.0252971128 -0.000229852812 0.0343312472 -0.0411275253 0.0217241775 -0.0038608273 -0.04238474 0.0152290706 -0.00128468615 -0.0425955169 0.00327679864 -0.0243347418 0.0353759341 0.00331540173 -0.0265988652 0.0333105065 0.0153178629 0.0263913926 0.00208211085 -0.000262896734 -0.0322777629 -0.0284941569 0.00327671389 -0.0361006297 -0.0227570515 0.0151930023 -0.00956751965 0.041999653 0.0148719577 0.0416285023 -0.0101830438 0.003273407 0.0385760851 -0.0374946371 0.0190169103 -0.0152046429 -0.0398757942 0.00331162359 -0.0111450683 0.0228737909 -0.000215400083 -0.0043270844 0.0426237173 0.00325981597 0.00959024951 0.0229390468 -0.00020132224 0.0181742907 0.0390626006 0.00329424138 0.0364557393 0.0224658977 0.00330585428 0.0421549454 0.00616245205 0.00328420266 0.0120782843 -0.00390102016 0.0532607399 0.0151422853 -0.0358590968 0.0316164233 0.0387772322 -0.0355332568 0.0317119285 0.0120073427 0.00237307861 0.0539409444 0.0391188897 -0.0313763544 0.0330927931 0.0425511524 2.26114626e-05 0.0144130709 0.0353091955 -0.0407220982 0.0266477764 -0.0149536058 -0.0398931652 0.0153247193 -0.0267201457 -0.0332138576 0.0153166894 0.0347280912 0.0409965143 0.0264156274 0.0347836949 0.0408639461 0.0214079544 0.0385651551 0.0374815464 0.0189891905 0.0391837023 0.0358496979 0.0303292423 0.015512703 0.0357577577 0.0317000933 0.038727805 0.0343397446 0.0328421257 0.0199418887 -0.0412140116 0.0262920354 0.0201178547 0.0411713868 0.0263289101</float_array>
          <technique_common>
            <accessor source="#positions_array" count="48" stride="3">
              <param name="X" type="float" />
              <param name="Y" type="float" />
              <param name="Z" type="float" />
            </accessor>
          </technique_common>
        </source>
        <source id="normals">
          <float_array id="normals_array" count="216">-0.108146615 0.0253162663 -0.993812561 -0.181635872 -0.0472106412 -0.982231915 -0.191691265 0.0118026594 -0.981384277 -0.088970542 -0.0702068731 -0.993556857 -0.940271735 -0.224305645 0.256078154 -0.996877015 0.0787401646 -0.0060164379 -0.964172721 -0.26460439 -0.0188542679 -0.455797911 -0.273590088 0.846992731 -0.961957276 0.0986740142 0.254757941 -0.45676735 0.333667517 0.824639082 -0.843174219 0.47093612 0.259376913 -0.164067686 0.090531528 -0.982286036 0.129056841 -0.110774413 -0.985430539 0.0777060241 -0.185672313 -0.979534388 0.0284927767 -0.111574665 -0.993347526 0.334566206 -0.931577384 -0.142228886 -0.134565264 -0.965940416 0.221023381 -0.0482466035 -0.998280108 -0.0333027504 -0.573031723 0.819503248 -0.00700453669 -0.589868546 0.748774409 0.302311152 0.117492586 0.0094901761 -0.993028402 -0.142013595 -0.130456582 -0.981230438 -0.819238484 -0.508651733 0.264805049 -0.260579318 0.924841106 0.2770693 0.181037292 -0.0581566021 -0.981755197 0.798269331 -0.54319185 -0.260208935 0.239141598 -0.917987227 -0.316402912 0.625577271 -0.535181999 -0.567655921 -0.0117623378 -0.194024593 -0.980926156 -0.0667669922 -0.164710626 -0.98407954 -0.114765726 0.15599215 -0.981068432 -0.0516155623 0.101067193 -0.993539751 -0.0154074319 0.188491136 -0.981954038 0.0548280366 0.102158077 -0.993256092 0.0851161927 0.158980966 -0.983605742 0.137039885 0.104790531 -0.985007107 0.210661605 0.0354012959 -0.976917803 0.227111086 -0.280014455 0.932744563 -0.10722065 -0.685668826 0.719973624 0.0934129953 -0.567503333 0.818054974 0.248677075 0.179190829 0.951866746 0.416579068 -0.238757104 0.877186954 0.99808538 -0.00507982355 0.0616418011 0.968872309 -0.245386586 0.0327386446 0.996706724 -0.0803292617 -0.0110877184 -0.88879776 0.458243221 -0.00718713738 0.74754703 -0.392446101 -0.535872638 0.746786594 -0.663924873 0.0389052033 -0.370915234 -0.928459287 -0.0196265467 -0.347048849 -0.882849514 0.31643936 -0.0993606299 0.993974209 -0.0462902449 -0.581178665 -0.758081913 0.295876831 -0.748215318 -0.663183928 -0.0189966317 0.0410442948 0.99915725 -0.000369065237 0.385149002 0.908462524 -0.162345707 0.279231548 0.887062073 -0.367628336 0.79289037 0.545044065 -0.272491843 0.767864466 0.407985568 -0.493894637 0.992868543 0.0870780945 -0.0814218372 0.994209468 0.062714465 0.0872609988 -0.105934016 0.682080209 0.72356385 0.995510459 -0.0729225799 0.0603420883 0.982469916 0.00947676972 0.186180219 0.0217451192 -0.997266591 0.070614785 -0.0329378843 -0.910451472 0.412302405 -0.0771848336 0.733675897 0.675101638 0.0117092533 0.999053776 0.0418859236 0.419039577 0.798241913 0.432684302 0.515366375 0.754767716 0.40586105 0.00663888128 -0.701045871 0.713085294 0.0931157246 0.671756804 0.734896123 0.614772737 0.00666695926 0.788676083</float_array>
          <technique_common>
            <accessor source="#normals_array" count="72" stride="3">
              <param name="X" type="float" />
              <param name="Y" type="float" />
              <param name="Z" type="float" />
            </accessor>
          </technique_common>
        </source>
        <vertices id="vertices">
          <input semantic="POSITION" source="#positions" />
        </vertices>
        <triangles material="scout_b2b2b2" count="92">
          <input semantic="VERTEX" source="#vertices" offset="0" />
          <input semantic="NORMAL" source="#normals" offset="1" />
          <p>0 0 1 1 2 2 3 3 1 1 0 0 4 4 2 5 1 6 5 7 6 8 4 4 5 7 7 9 6 8 7 9 8 10 6 8 9 11 0 0 2 2 10 12 11 13 12 14 13 15 14 16 15 17 16 18 8 10 17 19 18 20 3 3 0 0 3 3 19 21 1 1 20 22 5 7 4 4 16 18 17 19 21 23 22 24 10 12 18 20 10 12 12 14 18 20 23 25 11 26 10 27 11 13 15 28 12 14 15 28 24 29 12 14 24 29 3 3 12 14 24 29 19 21 3 3 9 11 16 30 25 31 16 30 26 32 25 31 26 32 27 33 25 31 26 32 28 34 27 33 28 34 18 20 27 33 28 34 29 35 18 20 29 35 30 36 18 20 30 36 22 24 18 20 1 6 20 22 4 4 31 37 32 38 33 39 31 37 34 40 5 7 31 37 35 41 34 40 36 42 33 43 22 44 33 43 23 25 22 44 6 8 9 45 2 5 23 25 10 27 22 46 37 47 13 15 23 25 13 15 11 26 23 25 13 15 15 17 11 26 7 9 5 7 34 40 24 48 14 16 38 49 16 18 21 23 26 50 24 48 39 51 19 52 40 53 41 54 26 50 41 54 28 55 26 50 41 54 42 56 28 55 42 56 29 57 28 55 42 56 30 58 29 57 42 56 43 59 30 58 43 59 36 42 30 58 20 22 39 51 5 7 39 51 38 49 5 7 38 49 32 38 5 7 33 39 35 41 31 37 34 40 44 60 7 9 44 60 21 23 7 9 21 23 17 19 7 9 17 19 8 10 7 9 35 61 33 43 36 42 43 59 45 62 36 42 45 62 35 61 36 42 33 43 37 47 23 25 37 63 46 64 14 16 46 64 38 49 14 16 46 64 32 38 38 49 44 60 47 65 21 23 47 66 40 53 21 23 40 67 42 56 41 54 40 67 43 68 42 56 46 64 37 69 32 38 40 67 45 70 43 68 4 4 6 8 2 5 13 15 37 63 14 16 16 18 9 45 8 10 18 20 12 14 3 3 0 0 25 31 27 33 27 33 18 20 0 0 35 41 45 71 34 40 9 11 25 31 0 0 1 6 19 52 20 22 31 37 5 7 32 38 44 60 45 70 47 65 40 67 47 65 45 70 6 8 8 10 9 45 24 48 15 17 14 16 19 52 39 51 20 22 24 48 38 49 39 51 40 53 26 50 21 23 45 70 44 60 34 40 33 39 32 38 37 69 36 42 22 44 30 58</p>
        </triangles>
      </mesh>
    </geometry>
  </library_geometries>
  <library_visual_scenes>
    <visual_scene id="scene">
      <node id="waist_yaw_link_rev_1_0">
        <instance_geometry url="#geometry">
          <bind_material>
            <technique_common>
              <instance_material symbol="scout_b2b2b2" target="#scout_b2b2b2" />
            </technique_common>
          </bind_material>
        </instance_geometry>
      </node>
    </visual_scene>
  </library_visual_scenes>
  <scene>
    <instance_visual_scene url="#scene" />
  </scene>
</COLLADA>